<svg xmlns="http://www.w3.org/2000/svg" width="646.419" height="476.682" viewBox="0 0 646.419 476.682">
  <g id="Dropshipping_model-rafiki" data-name="Dropshipping model-rafiki" transform="translate(0 -55)">
    <g id="freepik--background-complete--inject-2" transform="translate(0 55)">
      <rect id="Retângulo_4803" data-name="Retângulo 4803" width="42.819" height="0.323" transform="translate(538.829 444.077)" fill="#ebebeb"/>
      <rect id="Retângulo_4804" data-name="Retângulo 4804" width="11.235" height="0.323" transform="translate(416.979 447.593)" fill="#ebebeb"/>
      <rect id="Retângulo_4805" data-name="Retângulo 4805" width="24.81" height="0.323" transform="translate(512.727 432.079)" fill="#ebebeb"/>
      <rect id="Retângulo_4806" data-name="Retângulo 4806" width="55.838" height="0.323" transform="translate(67.822 434.251)" fill="#ebebeb"/>
      <rect id="Retângulo_4807" data-name="Retângulo 4807" width="8.184" height="0.323" transform="translate(135.179 434.251)" fill="#ebebeb"/>
      <rect id="Retângulo_4808" data-name="Retângulo 4808" width="121.113" height="0.323" transform="translate(169.969 439.707)" fill="#ebebeb"/>
      <path id="Caminho_5517" data-name="Caminho 5517" d="M296.619,420.615H46.972a7.382,7.382,0,0,1-7.382-7.382V62.317A7.382,7.382,0,0,1,46.972,55H296.619A7.382,7.382,0,0,1,304,62.382v350.85A7.382,7.382,0,0,1,296.619,420.615ZM46.972,55.259a7.072,7.072,0,0,0-7.059,7.059V413.232a7.072,7.072,0,0,0,7.059,7.059H296.619a7.072,7.072,0,0,0,7.059-7.059V62.317a7.072,7.072,0,0,0-7.059-7.059Z" transform="translate(11.593 -55)" fill="#ebebeb"/>
      <path id="Caminho_5518" data-name="Caminho 5518" d="M512.919,420.615H263.272a7.382,7.382,0,0,1-7.382-7.382V62.317A7.382,7.382,0,0,1,263.272,55H512.919a7.382,7.382,0,0,1,7.382,7.382v350.85A7.382,7.382,0,0,1,512.919,420.615ZM263.272,55.259a7.072,7.072,0,0,0-7.059,7.059V413.232a7.072,7.072,0,0,0,7.059,7.059H512.919a7.072,7.072,0,0,0,7.059-7.059V62.317a7.072,7.072,0,0,0-7.059-7.059Z" transform="translate(74.934 -55)" fill="#ebebeb"/>
      <rect id="Retângulo_4809" data-name="Retângulo 4809" width="646.419" height="0.323" transform="translate(0 423.275)" fill="#ebebeb"/>
      <rect id="Retângulo_4810" data-name="Retângulo 4810" width="24.318" height="24.318" transform="translate(508.603 247.785)" fill="#f5f5f5"/>
      <rect id="Retângulo_4811" data-name="Retângulo 4811" width="14.945" height="24.318" transform="translate(532.934 247.785)" fill="#ebebeb"/>
      <path id="Caminho_5519" data-name="Caminho 5519" d="M416.84,246.66v9.205l.388-.362.685.44.595-.44.763.44.814-.44.517.44.595-.323V246.66Z" transform="translate(122.067 1.125)" fill="#e0e0e0"/>
      <path id="Caminho_5520" data-name="Caminho 5520" d="M416.84,246.66v9.205l.388-.362.685.44.595-.44.763.44.814-.44.517.44.595-.323V246.66Z" transform="translate(122.067 1.125)" fill="#e0e0e0" opacity="0.7"/>
      <rect id="Retângulo_4812" data-name="Retângulo 4812" width="31.817" height="31.817" transform="translate(502.203 276.59)" fill="#f5f5f5"/>
      <rect id="Retângulo_4813" data-name="Retângulo 4813" width="19.548" height="31.817" transform="translate(534.02 276.59)" fill="#e6e6e6"/>
      <path id="Caminho_5521" data-name="Caminho 5521" d="M415.567,277.886H383.75l6.076-8.946h31.817Z" transform="translate(112.377 7.65)" fill="#e6e6e6"/>
      <path id="Caminho_5522" data-name="Caminho 5522" d="M418.826,277.886h19.535l-5.753-8.946H413.06Z" transform="translate(120.96 7.65)" fill="#f5f5f5"/>
      <circle id="Elipse_236" data-name="Elipse 236" cx="17.634" cy="17.634" r="17.634" transform="translate(113.615 244.631)" fill="#e0e0e0"/>
      <circle id="Elipse_237" data-name="Elipse 237" cx="17.634" cy="17.634" r="17.634" transform="translate(110.874 244.631)" fill="#ebebeb"/>
      <circle id="Elipse_238" data-name="Elipse 238" cx="13.562" cy="13.562" r="13.562" transform="translate(109.331 262.263) rotate(-45)" fill="#fff" opacity="0.2"/>
      <path id="Caminho_5523" data-name="Caminho 5523" d="M90.981,260.917a13.536,13.536,0,0,1,12.526-13.5h-1.033a13.575,13.575,0,0,0,0,27.15h1.034a13.549,13.549,0,0,1-12.528-13.652Z" transform="translate(26.033 1.348)" fill="#e0e0e0"/>
      <path id="Caminho_5524" data-name="Caminho 5524" d="M105.657,265.11a5.96,5.96,0,0,1-3.491,1.461v2.25h-2.03v-2.2a10.845,10.845,0,0,1-2.844-.517,7.394,7.394,0,0,1-2.172-1.086l1.112-2.469a7.382,7.382,0,0,0,1.8.957,8.444,8.444,0,0,0,2.107.478v-3.361a15.271,15.271,0,0,1-2.418-.776,4.215,4.215,0,0,1-1.655-1.228,3.349,3.349,0,0,1-.659-2.172,3.878,3.878,0,0,1,1.215-2.87,5.766,5.766,0,0,1,3.517-1.461V249.88h2.017v2.2a8.856,8.856,0,0,1,4.1,1.228l-1.008,2.482a7.911,7.911,0,0,0-3.09-1.047v3.426a14,14,0,0,1,2.392.724,4.434,4.434,0,0,1,1.642,1.228,3.361,3.361,0,0,1,.659,2.159,3.879,3.879,0,0,1-1.189,2.831Zm-6.606-8a3.1,3.1,0,0,0,1.1.556v-2.87a2.211,2.211,0,0,0-1.125.582,1.293,1.293,0,0,0-.362.918,1,1,0,0,0,.388.814Zm4.2,6.27a1.151,1.151,0,0,0,.362-.866,1.047,1.047,0,0,0-.362-.827,3.388,3.388,0,0,0-1.086-.556v2.78a2.043,2.043,0,0,0,1.086-.53Z" transform="translate(27.855 2.068)" fill="#e0e0e0"/>
      <circle id="Elipse_239" data-name="Elipse 239" cx="17.634" cy="17.634" r="17.634" transform="translate(343.985 85.547)" fill="#e0e0e0"/>
      <circle id="Elipse_240" data-name="Elipse 240" cx="17.634" cy="17.634" r="17.634" transform="translate(341.232 85.547)" fill="#ebebeb"/>
      <circle id="Elipse_241" data-name="Elipse 241" cx="13.562" cy="13.562" r="13.562" transform="translate(339.693 103.189) rotate(-45)" fill="#fff" opacity="0.2"/>
      <path id="Caminho_5525" data-name="Caminho 5525" d="M269.161,137.87a13.562,13.562,0,0,1,12.528-13.51h-1.034a13.575,13.575,0,1,0,0,27.15h1.034a13.536,13.536,0,0,1-12.528-13.639Z" transform="translate(78.211 -34.689)" fill="#e0e0e0"/>
      <path id="Caminho_5526" data-name="Caminho 5526" d="M283.834,142.061a5.805,5.805,0,0,1-3.491,1.461v2.262h-2v-2.2a10.754,10.754,0,0,1-2.844-.53,7.33,7.33,0,0,1-2.185-1.086l1.112-2.456a7.6,7.6,0,0,0,1.8.944,8.429,8.429,0,0,0,2.12.491v-3.374a14.3,14.3,0,0,1-2.431-.763,4.331,4.331,0,0,1-1.642-1.293,3.271,3.271,0,0,1-.672-2.159,3.879,3.879,0,0,1,1.293-2.883,5.844,5.844,0,0,1,3.517-1.461V126.78h2v2.2a8.959,8.959,0,0,1,4.1,1.228l-1.008,2.482a7.912,7.912,0,0,0-3.09-1.047v3.426a15.169,15.169,0,0,1,2.392.737,4.085,4.085,0,0,1,1.642,1.228,3.3,3.3,0,0,1,.672,2.146,3.878,3.878,0,0,1-1.28,2.883Zm-6.606-7.99a2.973,2.973,0,0,0,1.112.543v-2.857a2.2,2.2,0,0,0-1.138.569,1.293,1.293,0,0,0-.362.918,1.034,1.034,0,0,0,.388.827Zm4.215,6.27a1.293,1.293,0,0,0,.362-.866,1.06,1.06,0,0,0-.375-.827,3.245,3.245,0,0,0-1.086-.569v2.78a2.237,2.237,0,0,0,1.1-.517Z" transform="translate(80.036 -33.98)" fill="#e0e0e0"/>
      <circle id="Elipse_242" data-name="Elipse 242" cx="12.683" cy="12.683" r="12.683" transform="translate(225.07 269.208)" fill="#e0e0e0"/>
      <circle id="Elipse_243" data-name="Elipse 243" cx="12.683" cy="12.683" r="12.683" transform="translate(223.092 269.208)" fill="#f5f5f5"/>
      <circle id="Elipse_244" data-name="Elipse 244" cx="9.748" cy="9.748" r="9.748" transform="translate(226.027 272.142)" fill="#fff" opacity="0.2"/>
      <path id="Caminho_5527" data-name="Caminho 5527" d="M176.25,275.2a9.761,9.761,0,0,1,9.05-9.722h-.75a9.761,9.761,0,0,0,0,19.509,7.064,7.064,0,0,0,.75,0,9.748,9.748,0,0,1-9.05-9.787Z" transform="translate(51.289 6.637)" fill="#e0e0e0"/>
      <path id="Caminho_5528" data-name="Caminho 5528" d="M186.876,278.253a4.357,4.357,0,0,1-2.521,1.047v1.629h-1.448v-1.59a7.617,7.617,0,0,1-2.043-.375,5.352,5.352,0,0,1-1.564-.776l.8-1.771a5.3,5.3,0,0,0,1.293.685,5.571,5.571,0,0,0,1.513.336v-2.418a10.546,10.546,0,0,1-1.732-.556,2.9,2.9,0,0,1-1.189-.879,2.4,2.4,0,0,1-.478-1.564,2.78,2.78,0,0,1,.879-2.069,4.2,4.2,0,0,1,2.586-1.047V267.29h1.448v1.59a6.349,6.349,0,0,1,2.948.879l-.724,1.784a5.61,5.61,0,0,0-2.224-.75v2.456a10.552,10.552,0,0,1,1.719.53,3.012,3.012,0,0,1,1.189.892,2.4,2.4,0,0,1,.478,1.538A2.805,2.805,0,0,1,186.876,278.253Zm-4.758-5.753a2.133,2.133,0,0,0,.789.388v-2.094a1.513,1.513,0,0,0-.8.414.944.944,0,0,0-.272.659.711.711,0,0,0,.284.633Zm3.025,4.512a.905.905,0,0,0,.259-.633.737.737,0,0,0-.272-.582,2.147,2.147,0,0,0-.776-.414v2a1.6,1.6,0,0,0,.789-.375Z" transform="translate(52.506 7.167)" fill="#e0e0e0"/>
      <circle id="Elipse_245" data-name="Elipse 245" cx="12.683" cy="12.683" r="12.683" transform="translate(253.143 50.49) rotate(-45)" fill="#e0e0e0"/>
      <circle id="Elipse_246" data-name="Elipse 246" cx="12.683" cy="12.683" r="12.683" transform="translate(251.163 50.506) rotate(-45)" fill="#f5f5f5"/>
      <circle id="Elipse_247" data-name="Elipse 247" cx="9.748" cy="9.748" r="9.748" transform="translate(259.356 40.75)" fill="#fff" opacity="0.2"/>
      <path id="Caminho_5529" data-name="Caminho 5529" d="M202,96.261a9.748,9.748,0,0,1,9.05-9.709,7.029,7.029,0,0,0-.737,0,9.761,9.761,0,0,0,0,19.509h.737A9.774,9.774,0,0,1,202,96.261Z" transform="translate(58.833 -45.763)" fill="#e0e0e0"/>
      <path id="Caminho_5530" data-name="Caminho 5530" d="M212.643,99.27a4.163,4.163,0,0,1-2.508,1.047v1.629h-1.448v-1.577a8.158,8.158,0,0,1-2.043-.375,5.352,5.352,0,0,1-1.564-.789l.8-1.771a5,5,0,0,0,1.293.685,6.361,6.361,0,0,0,1.526.349V96.038a9.5,9.5,0,0,1-1.732-.543,3.051,3.051,0,0,1-1.189-.892,2.379,2.379,0,0,1-.478-1.564,2.767,2.767,0,0,1,.866-2.056,4.2,4.2,0,0,1,2.586-1.06v-1.6h1.4V89.9a6.348,6.348,0,0,1,2.948.879l-.724,1.784a5.818,5.818,0,0,0-2.224-.776v2.469a9.41,9.41,0,0,1,1.719.53,3.077,3.077,0,0,1,1.189.879,2.4,2.4,0,0,1,.478,1.538,2.754,2.754,0,0,1-.892,2.069Zm-4.758-5.753a2.585,2.585,0,0,0,.8.4V91.849a1.72,1.72,0,0,0-.814.414.983.983,0,0,0-.259.659.737.737,0,0,0,.272.595Zm3.038,4.512a.853.853,0,0,0,.259-.621.737.737,0,0,0-.272-.595,2.172,2.172,0,0,0-.776-.4V98.4a1.551,1.551,0,0,0,.789-.375Z" transform="translate(60.055 -45.243)" fill="#e0e0e0"/>
      <path id="Caminho_5531" data-name="Caminho 5531" d="M127.386,327.831l-17.686-5.52,19.742,1.047c-4.331-7.537-6.257-11.248-9.7-18.462,4.939,5.624,7.511,8.481,12.928,14.221a161.9,161.9,0,0,1,6.141-24.667,106.426,106.426,0,0,0-1.681,21.72l.362.078a175.674,175.674,0,0,1,19-18.5A141.116,141.116,0,0,0,139.28,320.41q11.028-4.163,22.224-7.925c-7.473,4.085-14.777,8.3-22.069,12.721l18.281,5.831-18.9-1.151c3.982,4.667,6.05,7.02,10.343,11.739-5.314-3.5-7.938-5.249-13.122-8.74a121.628,121.628,0,0,0,2.586,14.441c-2.586-5.9-3.723-8.83-5.714-14.609-3.71,17.751-2.741,34.907.84,52.606l-4.447-.8a138.127,138.127,0,0,1,2.082-52.076c-4.473,4.615-6.568,6.956-10.446,11.636a120.44,120.44,0,0,1,7.511-12.618c-6.374,1.4-9.515,2.107-15.76,3.53C118.414,332.123,121.348,330.675,127.386,327.831Z" transform="translate(32.124 15.12)" fill="#ebebeb"/>
      <path id="Caminho_5532" data-name="Caminho 5532" d="M126.776,331.92l16.341-8.662-19.2,4.784c2.844-8.21,4.06-12.217,6.076-19.948-3.8,6.464-5.792,9.735-10.019,16.432a162.241,162.241,0,0,0-10.692-23.155A106.683,106.683,0,0,1,115,322.392l-.349.129A176.905,176.905,0,0,0,92.5,307.808a142.212,142.212,0,0,1,21.138,19.056q-11.636-2.03-23.271-3.633c8.106,2.586,16.07,5.391,24.06,8.378l-16.884,9.14L115.9,336.1c-3.038,5.327-4.628,8.016-7.964,13.458,4.577-4.434,6.826-6.645,11.261-11.028a120.094,120.094,0,0,1,.155,14.661c1.435-6.27,2-9.36,2.883-15.424,6.955,16.807,9.231,33.834,9.05,51.843l4.215-1.616a138.333,138.333,0,0,0-11.765-50.783c5.262,3.71,7.757,5.624,12.45,9.541a121.69,121.69,0,0,0-9.735-10.989c6.464.181,9.748.284,16.135.517C136.434,334.505,133.228,333.613,126.776,331.92Z" transform="translate(26.464 17.147)" fill="#f0f0f0"/>
      <path id="Caminho_5533" data-name="Caminho 5533" d="M133.587,337.57l-11.907-6.309,13.988,3.426c-2.081-5.973-2.961-8.895-4.434-14.532,2.767,4.693,4.228,7.085,7.3,11.972A118.04,118.04,0,0,1,146.3,315.32a77.866,77.866,0,0,0-4.163,15.32l.259.1a128.194,128.194,0,0,1,16.148-10.731,103.523,103.523,0,0,0-15.424,13.9q8.481-1.487,17-2.65c-5.908,1.913-11.713,3.879-17.531,6.1l12.295,6.658-13.394-3.413c2.211,3.879,3.374,5.844,5.8,9.813-3.323-3.232-4.964-4.848-8.21-8.041a86.452,86.452,0,0,0-.1,10.692c-1.047-4.577-1.474-6.826-2.107-11.248-5.068,12.217-6.723,24.667-6.555,37.79l-3.077-1.176a100.375,100.375,0,0,1,8.584-37.014,102.853,102.853,0,0,0-9.05,6.955,88.746,88.746,0,0,1,7.1-8.016c-4.745.142-7.1.22-11.765.388C126.58,339.47,128.881,338.8,133.587,337.57Z" transform="translate(35.633 21.232)" fill="#f5f5f5"/>
      <path id="Caminho_5534" data-name="Caminho 5534" d="M142.242,392.744H113.528L110.71,346.99h34.351Z" transform="translate(32.42 30.506)" fill="#ebebeb"/>
      <path id="Caminho_5535" data-name="Caminho 5535" d="M148.011,350.189H108.928l-.7-6.089h40.479Z" transform="translate(31.694 29.659)" fill="#f5f5f5"/>
      <rect id="Retângulo_4814" data-name="Retângulo 4814" width="53.601" height="97.415" transform="translate(537.485 423.12) rotate(180)" fill="#f0f0f0"/>
      <rect id="Retângulo_4815" data-name="Retângulo 4815" width="15.165" height="97.415" transform="translate(483.884 423.12) rotate(180)" fill="#e6e6e6"/>
      <rect id="Retângulo_4816" data-name="Retângulo 4816" width="42.871" height="25.689" transform="translate(531.912 359.241) rotate(180)" fill="#fafafa"/>
      <rect id="Retângulo_4817" data-name="Retângulo 4817" width="42.871" height="25.689" transform="translate(531.912 387.735) rotate(180)" fill="#fafafa"/>
      <rect id="Retângulo_4818" data-name="Retângulo 4818" width="42.871" height="25.689" transform="translate(531.912 416.216) rotate(180)" fill="#fafafa"/>
      <path id="Caminho_5536" data-name="Caminho 5536" d="M393.17,318.067a2.857,2.857,0,1,0,2.857-2.857,2.857,2.857,0,0,0-2.857,2.857Z" transform="translate(115.135 21.199)" fill="#e0e0e0"/>
      <path id="Caminho_5537" data-name="Caminho 5537" d="M394.32,318.067a2.857,2.857,0,1,0,2.857-2.857A2.857,2.857,0,0,0,394.32,318.067Z" transform="translate(115.472 21.199)" fill="#f0f0f0"/>
      <path id="Caminho_5538" data-name="Caminho 5538" d="M393.17,340.027a2.857,2.857,0,1,0,2.857-2.857,2.857,2.857,0,0,0-2.857,2.857Z" transform="translate(115.135 27.63)" fill="#e0e0e0"/>
      <path id="Caminho_5539" data-name="Caminho 5539" d="M394.32,340.027a2.857,2.857,0,1,0,2.857-2.857A2.857,2.857,0,0,0,394.32,340.027Z" transform="translate(115.472 27.63)" fill="#f0f0f0"/>
      <path id="Caminho_5540" data-name="Caminho 5540" d="M393.17,361.977a2.857,2.857,0,1,0,2.857-2.857,2.857,2.857,0,0,0-2.857,2.857Z" transform="translate(115.135 34.058)" fill="#e0e0e0"/>
      <path id="Caminho_5541" data-name="Caminho 5541" d="M394.32,361.977a2.857,2.857,0,1,0,2.857-2.857A2.857,2.857,0,0,0,394.32,361.977Z" transform="translate(115.472 34.058)" fill="#f0f0f0"/>
      <path id="Caminho_5542" data-name="Caminho 5542" d="M173.647,123.265c-3.672,1.5-15.863-.31-15.863-.31l-1.293.556A26.064,26.064,0,0,1,134,122.5h0s-10.02.4-13.265-.259c-4.952-1-12.334-4.913-10.485-17.272s20.388-1.668,20.388-1.668-5.352-17.389,12.709-12.14a26.878,26.878,0,0,1,19.5,22.418S190.971,116.167,173.647,123.265Z" transform="translate(32.199 -44.699)" fill="#f5f5f5"/>
      <path id="Caminho_5543" data-name="Caminho 5543" d="M131.2,133.4c-2.586,1.034-10.976-.207-10.976-.207l-.9.388a18.022,18.022,0,0,1-15.514-.711h0a64.551,64.551,0,0,1-9.179-.181c-3.426-.685-8.533-3.4-7.253-11.946s14.1-1.151,14.1-1.151-3.7-12.036,8.791-8.4a18.591,18.591,0,0,1,13.5,15.514S143.2,128.483,131.2,133.4Z" transform="translate(25.528 -38.747)" fill="#f0f0f0"/>
      <path id="Caminho_5544" data-name="Caminho 5544" d="M279.7,162.823c-3.672,1.5-15.863-.3-15.863-.3l-1.293.556a26.064,26.064,0,0,1-22.5-1.021h0s-10.019.4-13.264-.259c-4.952-1-12.321-4.913-10.485-17.259s20.388-1.681,20.388-1.681-5.352-17.389,12.709-12.127a26.852,26.852,0,0,1,19.5,22.4S297.02,155.725,279.7,162.823Z" transform="translate(63.255 -33.112)" fill="#f5f5f5"/>
      <path id="Caminho_5545" data-name="Caminho 5545" d="M407.244,121.929a21.358,21.358,0,0,0-15.514-17.8c-7.046-2.056-9.606.246-10.343,3.1a34.687,34.687,0,0,0-17.815-11.558c-23.491-6.826-16.484,15.773-16.484,15.773s-24.111-13.885-26.5,2.185,7.111,21.151,13.575,22.444c4.228.853,17.246.336,17.246.336a33.847,33.847,0,0,0,29.244,1.293l1.719-.724s15.85,2.353,20.621.4c7.55-3.1,8.455-5.533,6.322-7.4a18.306,18.306,0,0,0,6.529-.388C429.611,123.984,407.244,121.929,407.244,121.929Z" transform="translate(93.769 -43.466)" fill="#f5f5f5"/>
    </g>
    <g id="freepik--Shadow--inject-2" transform="translate(66.31 502.413)">
      <ellipse id="freepik--path--inject-2" cx="250.668" cy="14.635" rx="250.668" ry="14.635" fill="#f5f5f5"/>
    </g>
    <g id="freepik--Arrows--inject-2" transform="translate(167.097 118.71)">
      <path id="Caminho_5546" data-name="Caminho 5546" d="M388.174,160.8a147.888,147.888,0,0,0-220.325-6.645,1.939,1.939,0,0,1-2.728.1h0a1.952,1.952,0,0,1-.091-2.767,151.766,151.766,0,0,1,226.1,6.8Z" transform="translate(-118.925 -104.279)" fill="#263238"/>
      <path id="Caminho_5547" data-name="Caminho 5547" d="M343.334,151.364H331.259a1.939,1.939,0,0,1-1.939-1.939h0a1.939,1.939,0,0,1,1.939-1.939h8.2v-8.2a1.939,1.939,0,0,1,1.939-1.939h0a1.952,1.952,0,0,1,1.939,1.939Z" transform="translate(-70.659 -94.594)" fill="#263238"/>
      <path id="Caminho_5548" data-name="Caminho 5548" d="M316.495,342.831l-2.185-3.206a147.914,147.914,0,0,0,63.259-101.514,1.952,1.952,0,0,1,2.159-1.668h0a1.965,1.965,0,0,1,1.694,2.2A151.831,151.831,0,0,1,316.495,342.831Z" transform="translate(-75.055 -65.58)" fill="#263238"/>
      <path id="Caminho_5549" data-name="Caminho 5549" d="M324.032,324.829l-11.752-2.715,2.715-11.765a1.926,1.926,0,0,1,2.314-1.448h0a1.939,1.939,0,0,1,1.461,2.327l-1.849,7.977,7.99,1.836a1.939,1.939,0,0,1,1.448,2.327h0a1.952,1.952,0,0,1-2.327,1.461Z" transform="translate(-75.649 -44.372)" fill="#263238"/>
      <path id="Caminho_5550" data-name="Caminho 5550" d="M171.6,318.146a151,151,0,0,1-37.35-76.73l3.814-.646a147.06,147.06,0,0,0,36.406,74.765,1.952,1.952,0,0,1-.1,2.728h0a1.952,1.952,0,0,1-2.767-.116Z" transform="translate(-127.783 -64.309)" fill="#263238"/>
      <path id="Caminho_5551" data-name="Caminho 5551" d="M130.052,249.166h0a1.952,1.952,0,0,1-.44-2.715l7.1-9.761,9.761,7.1a1.926,1.926,0,0,1,.427,2.7h0a1.926,1.926,0,0,1-2.7.427l-6.632-4.809-4.758,6.619a1.939,1.939,0,0,1-2.754.44Z" transform="translate(-129.248 -65.504)" fill="#263238"/>
    </g>
    <g id="freepik--Factory--inject-2" transform="translate(379.297 169.339)">
      <path id="Caminho_5552" data-name="Caminho 5552" d="M398.1,186.1H387.76l1.293-42.664h7.757Z" transform="translate(-265.746 -143.44)" fill="#263238"/>
      <path id="Caminho_5553" data-name="Caminho 5553" d="M398.1,186.1H387.76l1.293-42.664h7.757Z" transform="translate(-265.746 -143.44)" fill="#fff" opacity="0.7"/>
      <path id="Caminho_5554" data-name="Caminho 5554" d="M397.294,160.642l-.116-4.2H388.4l-.129,4.2Z" transform="translate(-265.597 -139.633)" fill="#407bff"/>
      <path id="Caminho_5555" data-name="Caminho 5555" d="M388.47,154.142h8.52l-.129-4.2h-8.274Z" transform="translate(-265.538 -141.537)" fill="#407bff"/>
      <path id="Caminho_5556" data-name="Caminho 5556" d="M397.611,167.142l-.129-4.2H388.2l-.129,4.2Z" transform="translate(-265.655 -137.73)" fill="#407bff"/>
      <path id="Caminho_5557" data-name="Caminho 5557" d="M397.925,173.642l-.129-4.2H388l-.116,4.2Z" transform="translate(-265.711 -135.826)" fill="#407bff"/>
      <path id="Caminho_5558" data-name="Caminho 5558" d="M396.676,147.642l-.129-4.2h-7.757l-.129,4.2Z" transform="translate(-265.483 -143.44)" fill="#407bff"/>
      <path id="Caminho_5559" data-name="Caminho 5559" d="M411.443,186.1H401.1l1.293-42.664h7.757Z" transform="translate(-261.84 -143.44)" fill="#263238"/>
      <path id="Caminho_5560" data-name="Caminho 5560" d="M411.443,186.1H401.1l1.293-42.664h7.757Z" transform="translate(-261.84 -143.44)" fill="#fff" opacity="0.7"/>
      <path id="Caminho_5561" data-name="Caminho 5561" d="M410.637,160.642l-.129-4.2h-8.778l-.129,4.2Z" transform="translate(-261.693 -139.633)" fill="#407bff"/>
      <path id="Caminho_5562" data-name="Caminho 5562" d="M401.8,154.142h8.52l-.129-4.2h-8.261Z" transform="translate(-261.635 -141.537)" fill="#407bff"/>
      <path id="Caminho_5563" data-name="Caminho 5563" d="M410.938,167.142l-.116-4.2h-9.3l-.116,4.2Z" transform="translate(-261.749 -137.73)" fill="#407bff"/>
      <path id="Caminho_5564" data-name="Caminho 5564" d="M411.255,173.642l-.129-4.2h-9.787l-.129,4.2Z" transform="translate(-261.808 -135.826)" fill="#407bff"/>
      <path id="Caminho_5565" data-name="Caminho 5565" d="M410,147.642l-.116-4.2h-7.757l-.129,4.2Z" transform="translate(-261.576 -143.44)" fill="#407bff"/>
      <path id="Caminho_5566" data-name="Caminho 5566" d="M295.43,255.5H454.022V188.391l-79.3-39.121-79.29,39.121Z" transform="translate(-292.784 -141.733)" fill="#407bff"/>
      <path id="Caminho_5567" data-name="Caminho 5567" d="M295.43,255.5H454.022V188.391l-79.3-39.121-79.29,39.121Z" transform="translate(-292.784 -141.733)" fill="#fff" opacity="0.5"/>
      <rect id="Retângulo_4819" data-name="Retângulo 4819" width="62.922" height="53.11" transform="translate(50.481 60.647)" fill="#263238"/>
      <rect id="Retângulo_4820" data-name="Retângulo 4820" width="11.209" height="53.11" transform="translate(50.481 60.647)" fill="#263238"/>
      <rect id="Retângulo_4821" data-name="Retângulo 4821" width="11.209" height="53.11" transform="translate(50.481 60.647)" fill="#fff" opacity="0.5"/>
      <rect id="Retângulo_4822" data-name="Retângulo 4822" width="9.477" height="11.765" transform="translate(67.934 76.601)" fill="#263238"/>
      <rect id="Retângulo_4823" data-name="Retângulo 4823" width="9.477" height="11.765" transform="translate(67.934 76.601)" fill="#fff" opacity="0.6"/>
      <rect id="Retângulo_4824" data-name="Retângulo 4824" width="5.818" height="11.765" transform="translate(77.411 76.601)" fill="#263238"/>
      <rect id="Retângulo_4825" data-name="Retângulo 4825" width="5.818" height="11.765" transform="translate(77.411 76.601)" fill="#fff" opacity="0.4"/>
      <path id="Caminho_5568" data-name="Caminho 5568" d="M355.06,202.69v3.581l.155-.129.259.168.233-.168.31.168.31-.168.194.168.233-.129V202.69Z" transform="translate(-275.322 -126.089)" fill="#407bff"/>
      <path id="Caminho_5569" data-name="Caminho 5569" d="M355.06,202.69v3.581l.155-.129.259.168.233-.168.31.168.31-.168.194.168.233-.129V202.69Z" transform="translate(-275.322 -126.089)" fill="#407bff" opacity="0.7"/>
      <rect id="Retângulo_4826" data-name="Retângulo 4826" width="9.477" height="11.765" transform="translate(84.896 76.601)" fill="#263238"/>
      <rect id="Retângulo_4827" data-name="Retângulo 4827" width="9.477" height="11.765" transform="translate(84.896 76.601)" fill="#fff" opacity="0.6"/>
      <rect id="Retângulo_4828" data-name="Retângulo 4828" width="5.818" height="11.765" transform="translate(94.386 76.601)" fill="#263238"/>
      <rect id="Retângulo_4829" data-name="Retângulo 4829" width="5.818" height="11.765" transform="translate(94.386 76.601)" fill="#fff" opacity="0.4"/>
      <path id="Caminho_5570" data-name="Caminho 5570" d="M368.19,202.69v3.581l.142-.129.271.168.233-.168.3.168.323-.168.194.168.233-.129V202.69Z" transform="translate(-271.477 -126.089)" fill="#407bff"/>
      <path id="Caminho_5571" data-name="Caminho 5571" d="M368.19,202.69v3.581l.142-.129.271.168.233-.168.3.168.323-.168.194.168.233-.129V202.69Z" transform="translate(-271.477 -126.089)" fill="#407bff" opacity="0.7"/>
      <path id="Caminho_5572" data-name="Caminho 5572" d="M453.523,191.409l-78.2-38.591-78.2,38.591a2.586,2.586,0,0,1-3.465-1.176h0a2.586,2.586,0,0,1,1.176-3.465L375.319,147l80.466,39.768a2.586,2.586,0,0,1,1.176,3.465h0a2.586,2.586,0,0,1-3.439,1.176Z" transform="translate(-293.383 -142.397)" fill="#263238"/>
      <g id="Grupo_2506" data-name="Grupo 2506" transform="translate(0 4.603)" opacity="0.5">
        <path id="Caminho_5573" data-name="Caminho 5573" d="M453.523,191.409l-78.2-38.591-78.2,38.591a2.586,2.586,0,0,1-3.465-1.176h0a2.586,2.586,0,0,1,1.176-3.465L375.319,147l80.466,39.768a2.586,2.586,0,0,1,1.176,3.465h0a2.586,2.586,0,0,1-3.439,1.176Z" transform="translate(-293.383 -147)" fill="#fff"/>
      </g>
      <rect id="Retângulo_4830" data-name="Retângulo 4830" width="11.209" height="53.11" transform="translate(102.195 60.647)" fill="#263238"/>
      <rect id="Retângulo_4831" data-name="Retângulo 4831" width="11.209" height="53.11" transform="translate(102.195 60.647)" fill="#fff" opacity="0.5"/>
      <rect id="Retângulo_4832" data-name="Retângulo 4832" width="37.066" height="17.453" transform="translate(65.129 96.316)" fill="#263238"/>
      <rect id="Retângulo_4833" data-name="Retângulo 4833" width="37.066" height="17.453" transform="translate(65.129 96.316)" fill="#fff" opacity="0.4"/>
      <rect id="Retângulo_4834" data-name="Retângulo 4834" width="6.27" height="23.051" transform="translate(36.893 90.706)" fill="#407bff"/>
      <path id="Caminho_5574" data-name="Caminho 5574" d="M344.931,222.1a5.171,5.171,0,1,1,0-10.343H382V222.1Z" transform="translate(-279.802 -123.433)" fill="#407bff"/>
      <path id="Caminho_5575" data-name="Caminho 5575" d="M347.2,216.405A2.805,2.805,0,1,1,344.4,213.6a2.805,2.805,0,0,1,2.805,2.805Z" transform="translate(-279.267 -122.894)" fill="#263238"/>
      <rect id="Retângulo_4835" data-name="Retângulo 4835" width="27.059" height="23.051" transform="translate(13.415 90.706)" fill="#407bff"/>
      <rect id="Retângulo_4836" data-name="Retângulo 4836" width="27.059" height="23.051" transform="translate(13.415 90.706)" fill="#fff" opacity="0.3"/>
      <path id="Caminho_5576" data-name="Caminho 5576" d="M320.874,222.86H316.31l1.81-5.65-8.08,8.08H314.6l-1.81,5.65Z" transform="translate(-288.506 -121.837)" fill="#fff" opacity="0.8"/>
    </g>
    <g id="freepik--Coins--inject-2" transform="translate(159.381 84.036)">
      <circle id="Elipse_248" data-name="Elipse 248" cx="25.883" cy="25.883" r="25.883" transform="translate(4.021 224.916)" fill="#407bff"/>
      <circle id="Elipse_249" data-name="Elipse 249" cx="25.883" cy="25.883" r="25.883" transform="translate(0 224.916)" fill="#407bff"/>
      <circle id="Elipse_250" data-name="Elipse 250" cx="25.883" cy="25.883" r="25.883" transform="translate(0 224.916)" fill="#fff" opacity="0.3"/>
      <circle id="Elipse_251" data-name="Elipse 251" cx="19.897" cy="19.897" r="19.897" transform="translate(5.986 230.902)" fill="#fff" opacity="0.2"/>
      <path id="Caminho_5577" data-name="Caminho 5577" d="M130.922,275.957a19.884,19.884,0,0,1,18.384-19.819c-.491,0-1-.078-1.5-.078a19.9,19.9,0,0,0,0,39.794,9.642,9.642,0,0,0,1.5-.078,19.871,19.871,0,0,1-18.384-19.819Z" transform="translate(-121.924 -25.158)" opacity="0.1"/>
      <g id="Grupo_2507" data-name="Grupo 2507" transform="translate(19.742 235.633)" opacity="0.1">
        <path id="Caminho_5578" data-name="Caminho 5578" d="M154.038,282.06a8.662,8.662,0,0,1-5.171,2.146v3.31h-2.961V284.3a15.721,15.721,0,0,1-4.163-.776,10.343,10.343,0,0,1-3.193-1.59l1.616-3.607a11.026,11.026,0,0,0,2.586,1.383,12.283,12.283,0,0,0,3.1.711V275.48a22.149,22.149,0,0,1-3.542-1.125,6.193,6.193,0,0,1-2.431-1.823,4.861,4.861,0,0,1-.97-3.18,5.727,5.727,0,0,1,1.784-4.215A8.468,8.468,0,0,1,145.867,263V259.72h2.961v3.219a12.928,12.928,0,0,1,6,1.81l-1.474,3.633a11.7,11.7,0,0,0-4.525-1.538v5.029a21.081,21.081,0,0,1,3.5,1.073,6.18,6.18,0,0,1,2.4,1.81,4.8,4.8,0,0,1,.983,3.155,5.6,5.6,0,0,1-1.681,4.15ZM144.3,270.425a4.77,4.77,0,0,0,1.629.8v-4.2a3.168,3.168,0,0,0-1.629.814,1.94,1.94,0,0,0-.53,1.293A1.525,1.525,0,0,0,144.3,270.425Zm6.18,9.192a1.706,1.706,0,0,0,.543-1.293,1.525,1.525,0,0,0-.556-1.215,4.822,4.822,0,0,0-1.577-.827v4.085a3.064,3.064,0,0,0,1.616-.814Z" transform="translate(-138.55 -259.72)"/>
      </g>
      <path id="Caminho_5579" data-name="Caminho 5579" d="M152.508,282.06a8.623,8.623,0,0,1-5.171,2.146v3.31h-2.961V284.3a15.814,15.814,0,0,1-4.163-.776,10.512,10.512,0,0,1-3.193-1.59l1.629-3.607a10.692,10.692,0,0,0,2.586,1.383,12.285,12.285,0,0,0,3.1.711V275.48a22.589,22.589,0,0,1-3.542-1.125,6.3,6.3,0,0,1-2.431-1.823,4.861,4.861,0,0,1-.97-3.18,5.727,5.727,0,0,1,1.784-4.215A8.494,8.494,0,0,1,144.35,263V259.72h2.986v3.219a12.929,12.929,0,0,1,6.012,1.81l-1.487,3.633a11.7,11.7,0,0,0-4.525-1.538v5.029a21.082,21.082,0,0,1,3.5,1.073,6.31,6.31,0,0,1,2.418,1.81,4.861,4.861,0,0,1,.97,3.155,5.559,5.559,0,0,1-1.719,4.15Zm-9.7-11.726a4.823,4.823,0,0,0,1.616.8v-4.2a3.219,3.219,0,0,0-1.655.84,1.94,1.94,0,0,0-.53,1.293,1.538,1.538,0,0,0,.53,1.357Zm6.18,9.192a1.732,1.732,0,0,0,.53-1.293,1.551,1.551,0,0,0-.543-1.215,4.9,4.9,0,0,0-1.59-.827v4.085a3.168,3.168,0,0,0,1.564-.724Z" transform="translate(-119.256 -24.087)" fill="#407bff"/>
      <circle id="Elipse_252" data-name="Elipse 252" cx="25.883" cy="25.883" r="25.883" transform="translate(126.222 36.604) rotate(-45)" fill="#407bff"/>
      <circle id="Elipse_253" data-name="Elipse 253" cx="25.883" cy="25.883" r="25.883" transform="translate(127.641 55.845) rotate(-76.72)" fill="#407bff"/>
      <circle id="Elipse_254" data-name="Elipse 254" cx="25.883" cy="25.883" r="25.883" transform="translate(127.641 55.845) rotate(-76.72)" fill="#fff" opacity="0.3"/>
      <circle id="Elipse_255" data-name="Elipse 255" cx="19.897" cy="19.897" r="19.897" transform="translate(138.89 16.717)" fill="#fff" opacity="0.2"/>
      <path id="Caminho_5580" data-name="Caminho 5580" d="M233.735,110.287a19.884,19.884,0,0,1,18.384-19.819c-.5,0-1-.078-1.513-.078a19.9,19.9,0,0,0,0,39.794,9.8,9.8,0,0,0,1.513-.078,19.884,19.884,0,0,1-18.384-19.819Z" transform="translate(-91.82 -73.673)" opacity="0.1"/>
      <g id="Grupo_2508" data-name="Grupo 2508" transform="translate(152.632 21.462)" opacity="0.1">
        <path id="Caminho_5581" data-name="Caminho 5581" d="M256.841,116.4a8.507,8.507,0,0,1-5.171,2.146v3.323h-2.961v-3.232a16.34,16.34,0,0,1-4.176-.763,10.666,10.666,0,0,1-3.193-1.6l1.629-3.607a10.6,10.6,0,0,0,2.586,1.4,11.506,11.506,0,0,0,3.1.7V109.82a21.474,21.474,0,0,1-3.555-1.125,6.128,6.128,0,0,1-2.418-1.81,4.848,4.848,0,0,1-.983-3.18,5.676,5.676,0,0,1,1.8-4.215,8.468,8.468,0,0,1,5.171-2.146V94.06h2.961v3.219a13.083,13.083,0,0,1,6.076,1.875l-1.474,3.633a12,12,0,0,0-4.525-1.538v5.029a22.714,22.714,0,0,1,3.5,1.086,6.141,6.141,0,0,1,2.4,1.8,4.874,4.874,0,0,1,.983,3.155,5.572,5.572,0,0,1-1.758,4.085Zm-9.7-11.726a4.551,4.551,0,0,0,1.629.8v-4.2a3.271,3.271,0,0,0-1.655.84,1.914,1.914,0,0,0-.53,1.293,1.487,1.487,0,0,0,.556,1.267Zm6.18,9.205a1.72,1.72,0,0,0,.53-1.293,1.513,1.513,0,0,0-.543-1.2,4.589,4.589,0,0,0-1.577-.827v4.111A3.154,3.154,0,0,0,253.325,113.879Z" transform="translate(-241.34 -94.06)"/>
      </g>
      <path id="Caminho_5582" data-name="Caminho 5582" d="M255.291,116.4a8.572,8.572,0,0,1-5.171,2.146v3.323h-2.961v-3.232a16.444,16.444,0,0,1-4.176-.763,10.667,10.667,0,0,1-3.193-1.6l1.629-3.607a10.6,10.6,0,0,0,2.586,1.4,11.726,11.726,0,0,0,3.1.7V109.82a21.475,21.475,0,0,1-3.555-1.125,6.218,6.218,0,0,1-2.418-1.81,4.913,4.913,0,0,1-.983-3.18,5.714,5.714,0,0,1,1.8-4.215,8.468,8.468,0,0,1,5.171-2.146V94.06h2.961v3.219a13.083,13.083,0,0,1,6,1.81l-1.474,3.633a12,12,0,0,0-4.525-1.538v5.029a22.276,22.276,0,0,1,3.5,1.086,6.141,6.141,0,0,1,2.4,1.8,4.8,4.8,0,0,1,.982,3.155,5.6,5.6,0,0,1-1.681,4.15Zm-9.709-11.726a4.551,4.551,0,0,0,1.629.8v-4.2a3.271,3.271,0,0,0-1.655.84,1.914,1.914,0,0,0-.53,1.293A1.487,1.487,0,0,0,245.582,104.674Zm6.18,9.205a1.732,1.732,0,0,0,.543-1.293,1.525,1.525,0,0,0-.556-1.2,4.589,4.589,0,0,0-1.577-.827v4.111A3.154,3.154,0,0,0,251.762,113.879Z" transform="translate(-89.161 -72.598)" fill="#407bff"/>
    </g>
    <g id="freepik--Graphic--inject-2" transform="translate(349.143 308.615)">
      <path id="Caminho_5583" data-name="Caminho 5583" d="M303.17,251.17H272.711a2.586,2.586,0,0,0-2.65,2.65v30.446a2.65,2.65,0,0,0,2.65,2.663h0V292.1a1.849,1.849,0,0,0,3.142,1.293l6.464-6.464H303.17a2.65,2.65,0,0,0,2.65-2.663V253.82a2.586,2.586,0,0,0-2.65-2.65Z" transform="translate(-270.059 -251.169)" fill="#407bff"/>
      <g id="Grupo_2509" data-name="Grupo 2509" transform="translate(4.125 12.632)" opacity="0.9">
        <path id="Caminho_5584" data-name="Caminho 5584" d="M295.526,263.19H279.3l-.608-2.25H273.25v1.008h4.667l3.374,12.463h11.17V273.4H282.119l-.595-2.185h11.351ZM281.2,270.21l-1.629-6.012h14.544L292.1,270.21Z" transform="translate(-273.25 -260.94)" fill="#fff"/>
        <circle id="Elipse_256" data-name="Elipse 256" cx="1.008" cy="1.008" r="1.008" transform="translate(7.589 13.82)" fill="#fff"/>
        <path id="Caminho_5585" data-name="Caminho 5585" d="M289.347,272.638a1.008,1.008,0,1,1-1.008-1.008A1.008,1.008,0,0,1,289.347,272.638Z" transform="translate(-269.127 -257.81)" fill="#fff"/>
      </g>
      <circle id="Elipse_257" data-name="Elipse 257" cx="5.934" cy="5.934" r="5.934" transform="translate(17.144 5.689)" fill="#407bff"/>
      <circle id="Elipse_258" data-name="Elipse 258" cx="5.934" cy="5.934" r="5.934" transform="translate(17.144 5.689)" opacity="0.3"/>
      <g id="Grupo_2510" data-name="Grupo 2510" transform="translate(17.445 2.701)" opacity="0.9">
        <path id="Caminho_5586" data-name="Caminho 5586" d="M289,266.021l-4.874-5.055a1.991,1.991,0,0,1,0-2.805h0a1.978,1.978,0,0,1,2.805,0l2.133,2.211,6.464-6.529a1.978,1.978,0,0,1,2.805,0h0a1.978,1.978,0,0,1,0,2.793Z" transform="translate(-283.553 -253.259)" fill="#fff"/>
      </g>
    </g>
    <g id="freepik--Store--inject-2" transform="translate(115.14 179.94)">
      <rect id="Retângulo_4837" data-name="Retângulo 4837" width="114.209" height="92.813" transform="translate(4.072 10.356)" fill="#407bff"/>
      <rect id="Retângulo_4838" data-name="Retângulo 4838" width="114.209" height="92.813" transform="translate(4.072 10.356)" fill="#fff" opacity="0.5"/>
      <rect id="Retângulo_4839" data-name="Retângulo 4839" width="17.44" height="12.36" transform="translate(0.129)" fill="#407bff"/>
      <rect id="Retângulo_4840" data-name="Retângulo 4840" width="17.44" height="12.36" transform="translate(34.803)" fill="#407bff"/>
      <rect id="Retângulo_4841" data-name="Retângulo 4841" width="17.44" height="12.36" transform="translate(69.49)" fill="#407bff"/>
      <rect id="Retângulo_4842" data-name="Retângulo 4842" width="17.44" height="12.36" transform="translate(104.177)" fill="#407bff"/>
      <g id="Grupo_2511" data-name="Grupo 2511" transform="translate(0.129)" opacity="0.2">
        <rect id="Retângulo_4843" data-name="Retângulo 4843" width="17.44" height="12.36" fill="#fff"/>
        <rect id="Retângulo_4844" data-name="Retângulo 4844" width="17.44" height="12.36" transform="translate(34.674)" fill="#fff"/>
        <rect id="Retângulo_4845" data-name="Retângulo 4845" width="17.44" height="12.36" transform="translate(69.361)" fill="#fff"/>
        <rect id="Retângulo_4846" data-name="Retângulo 4846" width="17.44" height="12.36" transform="translate(104.048)" fill="#fff"/>
      </g>
      <path id="Caminho_5587" data-name="Caminho 5587" d="M107.16,169.775c0,3.012-4.021,5.456-9.05,5.456s-9.05-2.443-9.05-5.456V161.1H106.5Z" transform="translate(-89.06 -148.87)" fill="#407bff"/>
      <path id="Caminho_5588" data-name="Caminho 5588" d="M134,169.775c0,3.012-4.021,5.456-9.05,5.456s-8.985-2.443-8.985-5.456V161.1h17.453Z" transform="translate(-81.183 -148.87)" fill="#407bff"/>
      <path id="Caminho_5589" data-name="Caminho 5589" d="M160.83,169.775c0,3.012-4.021,5.456-8.985,5.456s-8.985-2.443-8.985-5.456V161.1h17.453Z" transform="translate(-73.305 -148.87)" fill="#407bff"/>
      <path id="Caminho_5590" data-name="Caminho 5590" d="M187.108,169.775c0,3.012-3.5,5.456-8.468,5.456s-9.05-2.443-9.05-5.456V161.1h17.453Z" transform="translate(-65.478 -148.87)" fill="#407bff"/>
      <path id="Caminho_5591" data-name="Caminho 5591" d="M120.01,163.87V151.64H102.57v12.347h0v8.559c0,3.012,4.021,5.456,9.05,5.456s8.468-2.443,8.468-5.456V163.87Z" transform="translate(-85.104 -151.64)" fill="#263238"/>
      <path id="Caminho_5592" data-name="Caminho 5592" d="M120.01,151.64H102.57v20.905c0,3.012,4.021,5.456,9.05,5.456s8.468-2.443,8.468-5.456Z" transform="translate(-85.104 -151.64)" fill="#fff" opacity="0.8"/>
      <path id="Caminho_5593" data-name="Caminho 5593" d="M146.959,163.87V151.64H129.48v12.347h0v8.559c0,3.012,4.021,5.456,8.985,5.456s8.468-2.443,8.468-5.456V163.87Z" transform="translate(-77.223 -151.64)" fill="#263238"/>
      <path id="Caminho_5594" data-name="Caminho 5594" d="M146.959,151.64H129.48v20.905c0,3.012,4.021,5.456,8.985,5.456s8.468-2.443,8.468-5.456Z" transform="translate(-77.223 -151.64)" fill="#fff" opacity="0.8"/>
      <path id="Caminho_5595" data-name="Caminho 5595" d="M173.75,163.87V151.64H156.31v12.347h0v8.559c0,3.012,4.021,5.456,9.05,5.456s8.468-2.443,8.468-5.456V163.87Z" transform="translate(-69.367 -151.64)" fill="#263238"/>
      <path id="Caminho_5596" data-name="Caminho 5596" d="M173.75,151.64H156.31v20.905c0,3.012,4.021,5.456,9.05,5.456s8.468-2.443,8.468-5.456Z" transform="translate(-69.367 -151.64)" fill="#fff" opacity="0.8"/>
      <rect id="Retângulo_4847" data-name="Retângulo 4847" width="52.088" height="29.554" transform="translate(53.847 39.393)" fill="#fff" opacity="0.5"/>
      <path id="Caminho_5597" data-name="Caminho 5597" d="M158.645,211.571H149.22l7.072-29.231h9.438Z" transform="translate(-71.443 -142.65)" fill="#fff" opacity="0.4"/>
      <path id="Caminho_5598" data-name="Caminho 5598" d="M160.524,211.571H158.43l7.085-29.231H167.6Z" transform="translate(-68.746 -142.65)" fill="#fff" opacity="0.4"/>
      <path id="Caminho_5599" data-name="Caminho 5599" d="M137.82,211.571h-1.06l7.085-29.231h1.06Z" transform="translate(-75.092 -142.65)" fill="#fff" opacity="0.4"/>
      <path id="Caminho_5600" data-name="Caminho 5600" d="M184.067,212.933H129.91V181.31h54.157Zm-52.088-2.069H182V183.379h-50.02Z" transform="translate(-77.098 -142.952)" fill="#407bff"/>
      <rect id="Retângulo_4848" data-name="Retângulo 4848" width="31.313" height="74.325" transform="translate(9.838 28.585)" fill="#407bff"/>
      <rect id="Retângulo_4849" data-name="Retângulo 4849" width="28.649" height="72.968" transform="translate(11.17 29.929)" fill="#fff" opacity="0.7"/>
      <rect id="Retângulo_4850" data-name="Retângulo 4850" width="11.48" height="26.723" transform="translate(13.342 39.561)" opacity="0.1"/>
      <rect id="Retângulo_4851" data-name="Retângulo 4851" width="11.48" height="26.723" transform="translate(26.322 39.561)" opacity="0.1"/>
      <rect id="Retângulo_4852" data-name="Retângulo 4852" width="24.46" height="26.723" transform="translate(13.342 74.364)" opacity="0.1"/>
      <path id="Caminho_5601" data-name="Caminho 5601" d="M123.853,182.6H99.38a6.309,6.309,0,0,1,6.309-6.309h11.855a6.309,6.309,0,0,1,6.309,6.309Z" transform="translate(-86.038 -144.422)" opacity="0.1"/>
      <rect id="Retângulo_4853" data-name="Retângulo 4853" width="2.094" height="5.443" transform="translate(13.342 67.486)" fill="#407bff"/>
      <rect id="Retângulo_4854" data-name="Retângulo 4854" width="2.094" height="5.443" transform="translate(13.342 67.486)" fill="#fff" opacity="0.3"/>
      <rect id="Retângulo_4855" data-name="Retângulo 4855" width="0.414" height="5.443" transform="translate(15.837 72.929) rotate(180)" fill="#407bff"/>
      <path id="Caminho_5602" data-name="Caminho 5602" d="M100.858,205.689a.879.879,0,1,1-.879-.879.879.879,0,0,1,.879.879Z" transform="translate(-86.12 -136.07)" fill="#263238"/>
      <rect id="Retângulo_4856" data-name="Retângulo 4856" width="0.452" height="1.099" transform="translate(14.118 71.145)" fill="#fff" opacity="0.5"/>
      <circle id="Elipse_259" data-name="Elipse 259" cx="1.228" cy="1.228" r="1.228" transform="translate(11.855 68.391)" fill="#263238"/>
      <circle id="Elipse_260" data-name="Elipse 260" cx="1.228" cy="1.228" r="1.228" transform="translate(11.855 68.391)" fill="#fff" opacity="0.2"/>
    </g>
    <g id="freepik--Box--inject-2" transform="translate(411.614 305.707)">
      <path id="Caminho_5603" data-name="Caminho 5603" d="M364.444,248.92H318.38l8.8,11.558h46.051Z" transform="translate(-318.38 -248.92)" fill="#407bff"/>
      <path id="Caminho_5604" data-name="Caminho 5604" d="M364.444,248.92H318.38l8.8,11.558h46.051Z" transform="translate(-318.38 -248.92)" fill="#fff" opacity="0.3"/>
      <path id="Caminho_5605" data-name="Caminho 5605" d="M369.149,248.92h28.287l-8.326,11.558h-28.3Z" transform="translate(-305.955 -248.92)" fill="#407bff"/>
      <path id="Caminho_5606" data-name="Caminho 5606" d="M369.149,248.92h28.287l-8.326,11.558h-28.3Z" transform="translate(-305.955 -248.92)" fill="#fff" opacity="0.1"/>
      <rect id="Retângulo_4857" data-name="Retângulo 4857" width="46.064" height="46.064" transform="translate(8.804 11.558)" fill="#407bff"/>
      <rect id="Retângulo_4858" data-name="Retângulo 4858" width="46.064" height="46.064" transform="translate(8.804 11.558)" fill="#fff" opacity="0.5"/>
      <rect id="Retângulo_4859" data-name="Retângulo 4859" width="8.339" height="10.369" transform="translate(27.654 11.558)" opacity="0.2"/>
      <rect id="Retângulo_4860" data-name="Retângulo 4860" width="8.339" height="8.326" transform="translate(27.654 49.296)" opacity="0.2"/>
      <rect id="Retângulo_4861" data-name="Retângulo 4861" width="28.287" height="46.064" transform="translate(54.855 11.558)" fill="#407bff"/>
      <rect id="Retângulo_4862" data-name="Retângulo 4862" width="28.287" height="46.064" transform="translate(54.855 11.558)" fill="#fff" opacity="0.3"/>
      <rect id="Retângulo_4863" data-name="Retângulo 4863" width="8.339" height="12.709" transform="translate(70.835 46.258) rotate(90)" fill="#fff" opacity="0.8"/>
    </g>
    <g id="freepik--Character--inject-2" transform="translate(219.095 305.909)">
      <path id="Caminho_5607" data-name="Caminho 5607" d="M301.876,418.644c10.653.543,15.979.879,26.62,1.719q-2.586-57.48-6.684-114.856c-.362-4.861-5.068-9.05-10.5-9.373l-10.343-.517c-40.324-1.5-80.466-1.06-120.751,1.293q13.51,60.608,25.172,121.527C237.648,417.222,269.659,417.261,301.876,418.644Z" transform="translate(-166.319 -235.702)" fill="#407bff"/>
      <path id="Caminho_5608" data-name="Caminho 5608" d="M301.876,418.644c10.653.543,15.979.879,26.62,1.719q-2.586-57.48-6.684-114.856c-.362-4.861-5.068-9.05-10.5-9.373l-10.343-.517c-40.324-1.5-80.466-1.06-120.751,1.293q13.51,60.608,25.172,121.527C237.648,417.222,269.659,417.261,301.876,418.644Z" transform="translate(-166.319 -235.702)" fill="#fff" opacity="0.5"/>
      <path id="Caminho_5609" data-name="Caminho 5609" d="M220.179,417.623c-10.653.388-15.979.659-26.632,1.293q-10.782-56.523-22.935-112.748c-1.047-4.758,2.508-8.972,7.951-9.36,4.111-.284,6.18-.427,10.343-.672,5.443-.336,10.6,3.323,11.506,8.106Q210.987,360.841,220.179,417.623Z" transform="translate(-169.187 -235.302)" fill="#407bff"/>
      <path id="Caminho_5610" data-name="Caminho 5610" d="M235.315,426.493l-5.042-57.686a5.508,5.508,0,0,0-4.783-4.964l-2.081-.272a7.382,7.382,0,0,1-6.464-6.671l-.918-10.511a7.382,7.382,0,0,1,7.356-8.029H176.84a7.382,7.382,0,0,0-7.343,8.029l.918,10.511a7.382,7.382,0,0,0,6.464,6.671l2.081.272a5.508,5.508,0,0,1,4.784,4.964l5.042,57.686a8.132,8.132,0,0,0,8.106,7.421h46.542a8.145,8.145,0,0,1-8.119-7.421Z" transform="translate(-169.468 -222.931)" fill="#407bff"/>
      <g id="Grupo_2512" data-name="Grupo 2512" transform="translate(0 115.429)" opacity="0.2">
        <path id="Caminho_5611" data-name="Caminho 5611" d="M235.315,426.493l-5.042-57.686a5.508,5.508,0,0,0-4.783-4.964l-2.081-.272a7.382,7.382,0,0,1-6.464-6.671l-.918-10.511a7.382,7.382,0,0,1,7.356-8.029H176.84a7.382,7.382,0,0,0-7.343,8.029l.918,10.511a7.382,7.382,0,0,0,6.464,6.671l2.081.272a5.508,5.508,0,0,1,4.784,4.964l5.042,57.686a8.132,8.132,0,0,0,8.106,7.421h46.542a8.145,8.145,0,0,1-8.119-7.421Z" transform="translate(-169.468 -338.36)" fill="#fff"/>
      </g>
      <path id="Caminho_5612" data-name="Caminho 5612" d="M329.577,354.378a17.544,17.544,0,0,1,17.479-16.018H306.526a17.557,17.557,0,0,0-17.479,16.018L285,400.093h40.518Z" transform="translate(-135.636 -222.931)" fill="#407bff"/>
      <path id="Caminho_5613" data-name="Caminho 5613" d="M329.577,354.378a17.544,17.544,0,0,1,17.479-16.018H306.526a17.557,17.557,0,0,0-17.479,16.018L285,400.093h40.518Z" transform="translate(-135.636 -222.931)" fill="#fff" opacity="0.2"/>
      <path id="Caminho_5614" data-name="Caminho 5614" d="M333.208,391.827a456.843,456.843,0,0,1-84.5,1.991,7.318,7.318,0,0,1-6.956-7.757c.814-7.408,1.215-11.105,2.03-18.513a7.175,7.175,0,0,1,7.757-6.309,335.817,335.817,0,0,0,77.183-1.862,7.188,7.188,0,0,1,8.106,5.921l2.909,18.4a7.3,7.3,0,0,1-6.529,8.132Z" transform="translate(-148.304 -216.798)" fill="#407bff"/>
      <path id="Caminho_5615" data-name="Caminho 5615" d="M255.07,361.23c-6.464-.582-9.606-.944-15.979-1.823a7.188,7.188,0,0,0-8.119,5.921l-2.961,18.4a7.3,7.3,0,0,0,6.568,8.093c6.994.957,10.485,1.357,17.505,1.991C253.311,380.778,253.867,374.262,255.07,361.23Z" transform="translate(-152.338 -216.789)" fill="#407bff"/>
      <g id="Grupo_2513" data-name="Grupo 2513" transform="translate(93.435 142.506)" opacity="0.4">
        <path id="Caminho_5616" data-name="Caminho 5616" d="M333.208,391.827a456.843,456.843,0,0,1-84.5,1.991,7.318,7.318,0,0,1-6.956-7.757c.814-7.408,1.215-11.105,2.03-18.513a7.175,7.175,0,0,1,7.757-6.309,335.817,335.817,0,0,0,77.183-1.862,7.188,7.188,0,0,1,8.106,5.921l2.909,18.4a7.3,7.3,0,0,1-6.529,8.132Z" transform="translate(-241.739 -359.303)" fill="#fff"/>
      </g>
      <path id="Caminho_5617" data-name="Caminho 5617" d="M388.321,338.36H370.337a17.544,17.544,0,0,0-17.466,16.018l-4.008,45.715H252.34l-3.995-45.715a17.544,17.544,0,0,0-17.466-16.018h-18a7.382,7.382,0,0,0-7.356,8.029l.918,10.511a7.382,7.382,0,0,0,6.464,6.671l2.081.272a5.507,5.507,0,0,1,4.784,4.964l5.042,57.686a8.145,8.145,0,0,0,8.106,7.421h135.4a8.145,8.145,0,0,0,8.119-7.421l5.042-57.686a5.482,5.482,0,0,1,4.784-4.964l2.069-.272A7.369,7.369,0,0,0,394.8,356.9l.918-10.511a7.369,7.369,0,0,0-7.4-8.029Z" transform="translate(-158.917 -222.931)" fill="#407bff"/>
      <path id="Caminho_5618" data-name="Caminho 5618" d="M388.321,338.36H370.337a17.544,17.544,0,0,0-17.466,16.018l-4.008,45.715H252.34l-3.995-45.715a17.544,17.544,0,0,0-17.466-16.018h-18a7.382,7.382,0,0,0-7.356,8.029l.918,10.511a7.382,7.382,0,0,0,6.464,6.671l2.081.272a5.507,5.507,0,0,1,4.784,4.964l5.042,57.686a8.145,8.145,0,0,0,8.106,7.421h135.4a8.145,8.145,0,0,0,8.119-7.421l5.042-57.686a5.482,5.482,0,0,1,4.784-4.964l2.069-.272A7.369,7.369,0,0,0,394.8,356.9l.918-10.511a7.369,7.369,0,0,0-7.4-8.029Z" transform="translate(-158.917 -222.931)" fill="#fff" opacity="0.6"/>
      <path id="Caminho_5619" data-name="Caminho 5619" d="M301.6,394.161l4.331,20.1,6.749-2.327-.789-19.018Z" transform="translate(-130.775 -206.953)" fill="#ffc3bd"/>
      <path id="Caminho_5620" data-name="Caminho 5620" d="M253.78,329.165a69.192,69.192,0,0,0,19.134-2.5l6.361,13.355s39.806-7.136,44.874,5.171c4.331,10.459,4.512,74.985,4.512,74.985l-11.08,1.293s-12.14-46.969-12.088-62.522a1.461,1.461,0,0,0-2.353-1.176c-6.115,4.758-22.392,15.049-47.033,13.458-3.814-.246-8.274-1.073-7.136-13.523a267.861,267.861,0,0,1,4.809-28.546Z" transform="translate(-146.239 -226.354)" fill="#407bff"/>
      <path id="Caminho_5621" data-name="Caminho 5621" d="M275.731,362.032c10.924-4.848,26.077-18.1,33.084-23.013a15.113,15.113,0,0,1,5.443-2.521c-6.076-1.293-13.859-1.293-20.556-.763l-15.889,7.02L252.3,354.132l-3.154,9.05c1.1,4.848,4.15,5.352,6.891,5.533a73.083,73.083,0,0,0,28.662-3.723C283.436,365.057,265.194,366.7,275.731,362.032Z" transform="translate(-146.134 -223.797)" opacity="0.1"/>
      <path id="Caminho_5622" data-name="Caminho 5622" d="M328.58,366.8l13.652,13.795,5.3-4.176L337.009,360.59Z" transform="translate(-122.874 -216.421)" fill="#ffc3bd"/>
      <path id="Caminho_5623" data-name="Caminho 5623" d="M343.936,372.115l-6.154,4.693a.737.737,0,0,0-.207.879l3.116,6.723a1.2,1.2,0,0,0,1.577.595,1.29,1.29,0,0,0,.22-.129c2.521-1.991,4.68-3.879,7.848-6.3,3.749-2.857,3.142-1.681,7.589-4.99,2.689-1.991.866-5.378-.375-4.667-5.65,3.284-8.287,2.844-11.636,2.521A2.845,2.845,0,0,0,343.936,372.115Z" transform="translate(-120.259 -214.009)" fill="#263238"/>
      <path id="Caminho_5624" data-name="Caminho 5624" d="M255.981,338.487l6.8,1.629s12.722-9.89,6.787-6.619c-4.331,2.4-6.464-2.586-7.356-5.417-2.7.375-5.068.543-6.852.621Z" transform="translate(-144.316 -225.941)" opacity="0.1"/>
      <path id="Caminho_5625" data-name="Caminho 5625" d="M264.224,331.072c-16.872,2.793-24.318.168-24.318.168s-12.023,43.194,14.493,43.013c11.752-.078,16.626-4.68,24.267-9.166,17.376-10.2,31.726-25.314,38.449-24.331,9.658,1.4,4.189,12.928,43.582,44.952l8.171-7.188s-34.04-61.138-51.92-61.009c-17.221.116-44.926,21.758-48.572,21.784S264.224,331.072,264.224,331.072Z" transform="translate(-149.637 -229.036)" fill="#407bff"/>
      <path id="Caminho_5626" data-name="Caminho 5626" d="M303.17,337.39h0a9.218,9.218,0,0,1,5.068,4.628,27.265,27.265,0,0,1,1.37,5.74c1.112,1.6,2.431,3.4,3.982,5.365C312.556,340.17,303.17,337.39,303.17,337.39Z" transform="translate(-130.315 -223.215)" opacity="0.1"/>
      <path id="Caminho_5627" data-name="Caminho 5627" d="M312.27,406.233l-7.757.465a.711.711,0,0,0-.672.595l-1.176,7.33a1.176,1.176,0,0,0,.983,1.37.789.789,0,0,0,.246,0c3.206-.246,6.038-.582,10.033-.814,4.706-.284,3.542.349,9.05.1,3.348-.155,3.723-3.982,2.3-4.085-6.464-.427-8.455-2.275-11.093-4.447a2.883,2.883,0,0,0-1.914-.517Z" transform="translate(-130.469 -203.058)" fill="#263238"/>
      <path id="Caminho_5628" data-name="Caminho 5628" d="M256.771,283.71c2.185-.84,5.8.608,8.946,6.219s16.51,28.753,12.709,31.726-11.08-5.456-13.756-11.506S252.944,285.2,256.771,283.71Z" transform="translate(-144.175 -238.999)" fill="#263238"/>
      <path id="Caminho_5629" data-name="Caminho 5629" d="M261.1,291.92l.465,3.71-.246,8.029c.724,1.616,1.357,3,1.81,4.021a31.323,31.323,0,0,0,4.434,6.981c.569-11.312-3.7-22.741-3.7-22.741Z" transform="translate(-142.635 -236.53)" opacity="0.4"/>
      <path id="Caminho_5630" data-name="Caminho 5630" d="M240.826,342s23.362,2.78,38.268-2.12c0,0-4.538-5.714-5.171-17.156-.582-11.222,4.189-24.693-7.046-38.346a2.133,2.133,0,0,0-1.823-.776c-5.908.414-33.42,2.586-33.821,7.46C230.768,297.241,242.791,310.428,240.826,342Z" transform="translate(-151.385 -238.968)" fill="#263238"/>
      <path id="Caminho_5631" data-name="Caminho 5631" d="M240.42,273.636s3.064,8.934.685,12.76c0,0,8.6.44,10.692-2.366,0,0-1.215-.659-1.6-4.072S246.535,273.016,240.42,273.636Z" transform="translate(-148.691 -241.905)" fill="#ffc3bd"/>
      <path id="Caminho_5632" data-name="Caminho 5632" d="M250.088,279.957c-.349-3.154-3.193-6.464-8.481-6.387l-.362.323-.375.685s3.245,8.714,9.761,7.757A9.827,9.827,0,0,1,250.088,279.957Z" transform="translate(-148.559 -241.904)" opacity="0.2"/>
      <path id="Caminho_5633" data-name="Caminho 5633" d="M237.943,267.354c1.021,8.21,1.293,11.713,5.7,15.682,6.671,5.986,16.535,2.935,18-5.43,1.293-7.524-.582-19.69-8.856-22.469a11.3,11.3,0,0,0-14.842,12.217Z" transform="translate(-149.446 -247.478)" fill="#ffc3bd"/>
      <path id="Caminho_5634" data-name="Caminho 5634" d="M252,268.19a18.1,18.1,0,0,0,2.663,4.137,2.87,2.87,0,0,1-2.353.608Z" transform="translate(-145.3 -243.479)" fill="#ed893e"/>
      <path id="Caminho_5635" data-name="Caminho 5635" d="M246.426,265.346l-.155-.065a.336.336,0,0,1,0-.465h0a3.879,3.879,0,0,1,3.206-1.526.336.336,0,0,1-.065.659,3.18,3.18,0,0,0-2.586,1.293A.349.349,0,0,1,246.426,265.346Z" transform="translate(-147.005 -244.914)" fill="#2e353a"/>
      <path id="Caminho_5636" data-name="Caminho 5636" d="M256.584,264.187l-.155-.065a3.206,3.206,0,0,0-2.857-.582.323.323,0,0,1-.427-.181h0a.31.31,0,0,1,.207-.414,3.878,3.878,0,0,1,3.478.659.323.323,0,0,1,.078.452.336.336,0,0,1-.323.142Z" transform="translate(-144.971 -245.061)" fill="#2e353a"/>
      <path id="Caminho_5637" data-name="Caminho 5637" d="M248.251,267.853c0,.672.44,1.189.879,1.164s.763-.582.711-1.293-.427-1.189-.866-1.164S248.212,267.129,248.251,267.853Z" transform="translate(-146.398 -243.957)" fill="#2e353a"/>
      <path id="Caminho_5638" data-name="Caminho 5638" d="M254.131,267.483c0,.672.427,1.189.866,1.164s.75-.582.711-1.293-.427-1.189-.866-1.164S254.079,266.811,254.131,267.483Z" transform="translate(-144.677 -244.065)" fill="#2e353a"/>
      <path id="Caminho_5639" data-name="Caminho 5639" d="M254.54,266.376l1.577-.556S255.367,267.126,254.54,266.376Z" transform="translate(-144.556 -244.173)" fill="#2e353a"/>
      <path id="Caminho_5640" data-name="Caminho 5640" d="M248.66,266.749l1.59-.569S249.487,267.5,248.66,266.749Z" transform="translate(-146.278 -244.068)" fill="#2e353a"/>
      <path id="Caminho_5641" data-name="Caminho 5641" d="M249.008,272.978a4.765,4.765,0,0,1-.478-.659.168.168,0,0,1,0-.22h0a.181.181,0,0,1,.22,0,4.331,4.331,0,0,0,3.323,2.094.168.168,0,0,1,0,.323,4.473,4.473,0,0,1-3.064-1.538Z" transform="translate(-146.328 -242.345)" fill="#263238"/>
      <path id="Caminho_5642" data-name="Caminho 5642" d="M243.234,309.807c-1.293-5.844-5.727-15.915-5.727-15.915L234.287,293l-1.577,2.172c2.805,6.981,7.757,18.1,7.886,36.458,6.206-.194,13.071-8.947,13.071-8.947l-3.517-7.757C246.233,316.866,244.488,315.7,243.234,309.807Z" transform="translate(-150.948 -236.214)" opacity="0.4"/>
      <path id="Caminho_5643" data-name="Caminho 5643" d="M242.371,275.481s5.326-2.431,2.224-6.994c0,0,5.456.75,5.908-4.577,0,0,4.848,2.443,7.576-1.357,0,0,5.171,2.935,6.361-.737s-2.844-4.641-2.844-4.641.621-3.62-1.474-4.577a4.46,4.46,0,0,0-4.189.633s-.4-4.318-3.879-4.15a7.111,7.111,0,0,0-5.352,3.284,6.994,6.994,0,0,0-6.464-.491c-3.452,1.564-4.021,6.27-4.021,6.27s-3.879.789-4.512,3.788.608,4.021.608,4.021-2.094,2.883-1.422,5.546,2.069,2.586,2.069,2.586a8.636,8.636,0,0,0,1.448,5.921c1.926,2.314,3.387,1.293,3.387,1.293s.633,5.171,4.176,4.641S242.371,275.481,242.371,275.481Z" transform="translate(-151.52 -249.076)" fill="#263238"/>
      <path id="Caminho_5644" data-name="Caminho 5644" d="M236.77,270.457a6.038,6.038,0,0,0,3.142,3.387c1.939.879,3.219-.776,2.948-2.767-.233-1.784-1.538-4.409-3.607-4.447a2.754,2.754,0,0,0-2.7,2.78A2.716,2.716,0,0,0,236.77,270.457Z" transform="translate(-149.824 -243.936)" fill="#ffc3bd"/>
      <path id="Caminho_5645" data-name="Caminho 5645" d="M239.74,287.24l2.094-6.128a14.893,14.893,0,0,0,6.943.879c2.586-.3,2.5-1.461,2.5-1.461L256.443,285l-2.211,2.831-3.969-1.823-3,3.336Z" transform="translate(-148.89 -239.865)" fill="#263238"/>
      <path id="Caminho_5646" data-name="Caminho 5646" d="M239.74,287.24l2.094-6.128a14.893,14.893,0,0,0,6.943.879c2.586-.3,2.5-1.461,2.5-1.461L256.443,285l-2.211,2.831-3.969-1.823-3,3.336Z" transform="translate(-148.89 -239.865)" fill="#fff" opacity="0.7"/>
      <path id="Caminho_5647" data-name="Caminho 5647" d="M263.337,308.243h-4.99a1.474,1.474,0,0,1-1.474-1.875l2.767-13.083a2.431,2.431,0,0,1,2.262-1.875h5.016a1.474,1.474,0,0,1,1.461,1.875l-2.78,13.109a2.431,2.431,0,0,1-2.262,1.849Z" transform="translate(-143.889 -236.68)" fill="#407bff"/>
      <path id="Caminho_5648" data-name="Caminho 5648" d="M263.337,308.243h-4.99a1.474,1.474,0,0,1-1.474-1.875l2.767-13.083a2.431,2.431,0,0,1,2.262-1.875h5.016a1.474,1.474,0,0,1,1.461,1.875l-2.78,13.109a2.431,2.431,0,0,1-2.262,1.849Z" transform="translate(-143.889 -236.68)" fill="#fff" opacity="0.3"/>
      <path id="Caminho_5649" data-name="Caminho 5649" d="M263.91,308.243h-5a1.474,1.474,0,0,1-1.474-1.875l2.78-13.083a2.431,2.431,0,0,1,2.263-1.875h5.016a1.474,1.474,0,0,1,1.461,1.875l-2.78,13.109a2.431,2.431,0,0,1-2.262,1.849Z" transform="translate(-143.725 -236.68)" fill="#407bff"/>
      <path id="Caminho_5650" data-name="Caminho 5650" d="M263.91,308.243h-5a1.474,1.474,0,0,1-1.474-1.875l2.78-13.083a2.431,2.431,0,0,1,2.263-1.875h5.016a1.474,1.474,0,0,1,1.461,1.875l-2.78,13.109a2.431,2.431,0,0,1-2.262,1.849Z" transform="translate(-143.725 -236.68)" fill="#fff" opacity="0.7"/>
      <path id="Caminho_5651" data-name="Caminho 5651" d="M261.124,295.107h.491a1.642,1.642,0,0,0,1.513-1.293l.1-.491a.983.983,0,0,0-.983-1.293h-.491a1.642,1.642,0,0,0-1.513,1.293l-.1.491a.982.982,0,0,0,.983,1.293Z" transform="translate(-142.93 -236.498)" fill="#407bff"/>
      <path id="Caminho_5652" data-name="Caminho 5652" d="M262.058,292.787a.646.646,0,0,1-.621.517.4.4,0,0,1-.414-.517.685.685,0,0,1,.633-.517.4.4,0,0,1,.4.517Z" transform="translate(-142.662 -236.428)" fill="#263238"/>
      <path id="Caminho_5653" data-name="Caminho 5653" d="M261.82,293.947a.685.685,0,0,1-.633.517.414.414,0,0,1-.414-.517.685.685,0,0,1,.633-.517.414.414,0,0,1,.414.517Z" transform="translate(-142.734 -236.088)" fill="#263238"/>
      <path id="Caminho_5654" data-name="Caminho 5654" d="M276.159,311.4l-7.02-5.417s-2.741-5.973-4.641-6.723a2.586,2.586,0,0,0-2.805.931c-1.112,1.37-1.228,5.7-.1,7.072s4.551,2.275,4.551,2.275l6.568,6.839Z" transform="translate(-142.723 -234.411)" fill="#ffc3bd"/>
      <path id="Caminho_5655" data-name="Caminho 5655" d="M276.243,315.47c-3.271,3.077-6.555-.7-9.9-4.5a8.106,8.106,0,0,0,4.318-5.171S280.548,311.437,276.243,315.47Z" transform="translate(-141.1 -232.465)" fill="#263238"/>
      <path id="Caminho_5656" data-name="Caminho 5656" d="M266.35,310.968l.97,1.1a9.683,9.683,0,0,0,4.538-5.508c-.7-.478-1.189-.75-1.189-.75A8.106,8.106,0,0,1,266.35,310.968Z" transform="translate(-141.097 -232.463)" fill="#fff" opacity="0.7"/>
      <path id="Caminho_5657" data-name="Caminho 5657" d="M249.22,311.4l7.02-5.417s2.741-5.973,4.641-6.723a2.586,2.586,0,0,1,2.805.931c1.112,1.37,1.228,5.7.1,7.072s-4.551,2.275-4.551,2.275l-6.568,6.839Z" transform="translate(-146.114 -234.411)" fill="#ffc3bd"/>
      <path id="Caminho_5658" data-name="Caminho 5658" d="M230,308.037c-1.125-4.46-2.379-15.63,1.939-19.186s6.8,6.167,8.507,13.652,2.586,17.518,6.4,15.967a67.145,67.145,0,0,0,9.838-6.025l4.383,6.18s-13.381,15.424-19.263,10.873S231.44,313.687,230,308.037Z" transform="translate(-152.057 -237.65)" fill="#263238"/>
      <path id="Caminho_5659" data-name="Caminho 5659" d="M249.14,308.094l4.5,6.658c.944-.983,1.513-1.642,1.513-1.642l-4.383-6.18S250.123,307.408,249.14,308.094Z" transform="translate(-146.137 -232.135)" fill="#fff" opacity="0.7"/>
    </g>
  </g>
</svg>
