<svg xmlns="http://www.w3.org/2000/svg" id="Componente_2_1" width="47.171" height="60.274" data-name="Componente 2 – 1" viewBox="0 0 47.171 60.274">
    <defs>
        <style>
            .cls-1{fill:#ff293e}
        </style>
    </defs>
    <path id="Caminho_2528" d="M77.957 11.413a.44.44 0 0 0 .66 0l3.048-3.073a.441.441 0 0 0-.332-.733h-1.092V5.441A.439.439 0 0 0 79.8 5h-3.027a.44.44 0 0 0-.441.441v2.166H75.24a.441.441 0 0 0-.33.733z" class="cls-1" data-name="Caminho 2528" transform="translate(-34.605 -5)"/>
    <path id="Caminho_2529" d="M47.609 37.04c-1.26-1.4-2.5-2.974-3.625-4.385-.528-.667-1.034-1.3-1.507-1.881l-.035-.042a19.777 19.777 0 0 0 1.177-4.8c.224-3.088-.121-5.077-1.053-6.08a2.319 2.319 0 0 0-2.467-.615 3.26 3.26 0 0 0-1.994 2.3c-.735 2.254-.379 6.246 1.712 9.548a70.492 70.492 0 0 1-3.67 7.923 17.417 17.417 0 0 0-6.482 3.75c-2.045 2-2.876 3.977-2.281 5.434a2.338 2.338 0 0 0 2.266 1.441 4.273 4.273 0 0 0 2.292-.764c1.936-1.266 4.464-5.483 5.82-7.927a36.083 36.083 0 0 1 6.983-1.37 45.905 45.905 0 0 1 1.878-.145c2.464 2.6 4.479 3.974 6.336 4.316a6.084 6.084 0 0 0 1.112.1 3.728 3.728 0 0 0 3.347-1.614 2.392 2.392 0 0 0-.025-2.444c-1.03-1.783-4.139-2.765-8.754-2.765-.332.005-.675.01-1.03.02zm-16.952 9.867a2.066 2.066 0 0 1-1.008.382.454.454 0 0 1-.1-.01c-.046-.234.12-1.244 1.757-2.844A12.376 12.376 0 0 1 34.2 42.39a17.424 17.424 0 0 1-3.543 4.517zm9.675-24.642c.171-.523.382-.759.514-.8h.009c.127.143.668.962.426 4.307a11.974 11.974 0 0 1-.423 2.2 9.278 9.278 0 0 1-.525-5.707zm4.187 14.975a39.809 39.809 0 0 0-5.265.869 72.75 72.75 0 0 0 2.218-4.845l.675.849c.767.966 1.628 2.053 2.521 3.114zm10.842 3.722c.035.06.034.084.025.1a1.625 1.625 0 0 1-1.319.442 3.765 3.765 0 0 1-.684-.066 7.783 7.783 0 0 1-3.439-2.038c3.648.173 5.122 1.053 5.417 1.562z" class="cls-1" data-name="Caminho 2529" transform="translate(-18.883 -9.66)"/>
    <path id="Caminho_2530" d="M48.476 5H18.152a3.369 3.369 0 0 0-3.369 3.369v53.536a3.37 3.37 0 0 0 3.369 3.369h40.432a3.368 3.368 0 0 0 3.369-3.369V18.477zm0 4.764l8.714 8.714h-8.714zm10.109 52.141H18.152V8.369h26.955v10.108a3.368 3.368 0 0 0 3.369 3.369h10.108v40.059z" class="cls-1" data-name="Caminho 2530" transform="translate(-14.783 -5)"/>
    <path id="Caminho_2531" d="M38.692 69.018a2.456 2.456 0 0 0-.98-.524 6.062 6.062 0 0 0-1.577-.159h-2.243a1.363 1.363 0 0 0-.956.293 1.25 1.25 0 0 0-.318.946v6.652a1.3 1.3 0 0 0 .285.9 1.038 1.038 0 0 0 1.508 0 1.306 1.306 0 0 0 .291-.907v-2.28h1.434a3.861 3.861 0 0 0 2.526-.719 2.625 2.625 0 0 0 .873-2.126 3.114 3.114 0 0 0-.212-1.175 2.376 2.376 0 0 0-.631-.901zM37.243 71.8a1.035 1.035 0 0 1-.548.364 3.385 3.385 0 0 1-.983.122H34.7v-2.3h1.01c.91 0 1.279.181 1.426.329a1.136 1.136 0 0 1 .291.816 1.107 1.107 0 0 1-.184.669z" class="cls-1" data-name="Caminho 2531" transform="translate(-20.674 -25.919)"/>
    <path id="Caminho_2532" d="M50.95 69.158a2.982 2.982 0 0 0-1.222-.654 6.356 6.356 0 0 0-1.566-.17h-2.279a1.079 1.079 0 0 0-1.238 1.238V75.9a2.722 2.722 0 0 0 .08.725.831.831 0 0 0 .39.5 1.555 1.555 0 0 0 .8.169H48.2a6.943 6.943 0 0 0 1.095-.078 3.656 3.656 0 0 0 .929-.278 3.168 3.168 0 0 0 .8-.53 3.778 3.778 0 0 0 .758-.963 4.388 4.388 0 0 0 .434-1.2 7.067 7.067 0 0 0 .139-1.453 4.548 4.548 0 0 0-1.405-3.634zm-1.522 6.052a1.258 1.258 0 0 1-.4.233 1.97 1.97 0 0 1-.471.108 7.547 7.547 0 0 1-.667.023h-1.163v-5.522h.986a4.526 4.526 0 0 1 1.317.167 1.553 1.553 0 0 1 .856.736 3.629 3.629 0 0 1 .362 1.826 3.057 3.057 0 0 1-.821 2.43z" class="cls-1" data-name="Caminho 2532" transform="translate(-24.646 -25.918)"/>
    <path id="Caminho_2533" d="M63.256 68.335h-4.12a1.613 1.613 0 0 0-.679.125.859.859 0 0 0-.433.429 1.606 1.606 0 0 0-.127.686v6.64a1.306 1.306 0 0 0 .289.913 1.052 1.052 0 0 0 1.506 0 1.312 1.312 0 0 0 .289-.918v-2.672h2.711a1.035 1.035 0 0 0 .705-.218.766.766 0 0 0 .257-.6.777.777 0 0 0-.252-.6 1.023 1.023 0 0 0-.711-.224H59.98v-1.877h3.276a1.057 1.057 0 0 0 .735-.23.857.857 0 0 0 0-1.225 1.062 1.062 0 0 0-.735-.229z" class="cls-1" data-name="Caminho 2533" transform="translate(-29.023 -25.919)"/>
</svg>
