<svg xmlns="http://www.w3.org/2000/svg" id="Componente_1_1" width="48.171" height="60.274" data-name="Componente 1 – 1" viewBox="0 0 48.171 60.274">
    <defs>
        <style>
            .cls-1{fill:#1e7418}
        </style>
    </defs>
    <g id="noun_Excel_File_2676779" data-name="noun_Excel File_2676779" transform="translate(-1.815)">
        <g id="Grupo_772" data-name="Grupo 772" transform="translate(7.402 31.358)">
            <path id="Caminho_2524" d="M35.113 132h4.041l2.116 4.383L43.312 132h4l-3.692 6.9 4.046 7.347h-4.132l-2.334-4.574-2.352 4.577h-4.1l4.1-7.425z" class="cls-1" data-name="Caminho 2524" transform="translate(-34.744 -131.756)"/>
            <path id="Caminho_2525" d="M91.4 132h3.672v10.732h5.722v3.515H91.4z" class="cls-1" data-name="Caminho 2525" transform="translate(-77.301 -131.756)"/>
            <path id="Caminho_2526" d="M133.316 140.788l3.5-.264a3.633 3.633 0 0 0 .46 1.559 1.812 1.812 0 0 0 1.613.867 1.591 1.591 0 0 0 1.206-.442 1.441 1.441 0 0 0 .022-2.017 4.228 4.228 0 0 0-1.875-.826 7.369 7.369 0 0 1-3.441-1.732 3.813 3.813 0 0 1-1.037-2.753 4.289 4.289 0 0 1 .531-2.077 3.735 3.735 0 0 1 1.6-1.538 6.345 6.345 0 0 1 2.92-.559 5.219 5.219 0 0 1 3.471 1.017 4.691 4.691 0 0 1 1.422 3.235l-3.466.243a2.41 2.41 0 0 0-.579-1.4 1.654 1.654 0 0 0-1.217-.437 1.3 1.3 0 0 0-.963.326 1.084 1.084 0 0 0-.324.793.853.853 0 0 0 .268.612 2.716 2.716 0 0 0 1.231.525 13.6 13.6 0 0 1 3.445 1.259 3.924 3.924 0 0 1 1.514 1.58 4.631 4.631 0 0 1 .474 2.11 5.2 5.2 0 0 1-.631 2.528 4.225 4.225 0 0 1-1.765 1.755 6.089 6.089 0 0 1-2.857.6q-3.028 0-4.194-1.4a6.1 6.1 0 0 1-1.328-3.564z" class="cls-1" data-name="Caminho 2526" transform="translate(-108.785 -131.006)"/>
        </g>
    </g>
    <path id="Caminho_2541" d="M77.957 11.413a.44.44 0 0 0 .66 0l3.048-3.073a.441.441 0 0 0-.332-.733h-1.092V5.441A.439.439 0 0 0 79.8 5h-3.027a.44.44 0 0 0-.441.441v2.166H75.24a.441.441 0 0 0-.33.733z" class="cls-1" data-name="Caminho 2541" transform="translate(-33.605 -5)"/>
    <path id="Caminho_2543" d="M48.476 5H18.152a3.369 3.369 0 0 0-3.369 3.369v53.536a3.37 3.37 0 0 0 3.369 3.369h40.432a3.368 3.368 0 0 0 3.369-3.369V18.477zm0 4.764l8.714 8.714h-8.714zm10.109 52.141H18.152V8.369h26.955v10.108a3.368 3.368 0 0 0 3.369 3.369h10.108v40.059z" class="cls-1" data-name="Caminho 2543" transform="translate(-14.783 -5)"/>
</svg>
