<svg xmlns="http://www.w3.org/2000/svg" width="500" height="318.719" viewBox="0 0 500 318.719">
  <g id="motoboy" transform="translate(0 -108.841)">
    <g id="freepik--background-complete--inject-117" transform="translate(0 53.841)">
      <rect id="Rectangle_1" data-name="Rectangle 1" width="500" height="0.25" transform="translate(0 328.559)" fill="#ebebeb"/>
      <rect id="Rectangle_2" data-name="Rectangle 2" width="33.12" height="0.25" transform="translate(104.54 335.369)" fill="#ebebeb"/>
      <rect id="Rectangle_3" data-name="Rectangle 3" width="40.75" height="0.25" transform="translate(171.14 344.529)" fill="#ebebeb"/>
      <rect id="Rectangle_4" data-name="Rectangle 4" width="51.08" height="0.25" transform="translate(52.46 341.399)" fill="#ebebeb"/>
      <rect id="Rectangle_5" data-name="Rectangle 5" width="93.14" height="0.25" transform="translate(356.76 337.049)" fill="#ebebeb"/>
      <rect id="Rectangle_6" data-name="Rectangle 6" width="6.33" height="0.25" transform="translate(341.53 337.049)" fill="#ebebeb"/>
      <rect id="Rectangle_7" data-name="Rectangle 7" width="42.23" height="0.25" transform="translate(277.21 341.269)" fill="#ebebeb"/>
      <path id="Path_1" data-name="Path 1" d="M237,337.8H43.91a5.71,5.71,0,0,1-5.7-5.71V60.66A5.71,5.71,0,0,1,43.91,55H237a5.71,5.71,0,0,1,5.71,5.71h0V332.09A5.71,5.71,0,0,1,237,337.8ZM43.91,55.2a5.46,5.46,0,0,0-5.45,5.46V332.09a5.46,5.46,0,0,0,5.45,5.46H237a5.48,5.48,0,0,0,5.46-5.46V60.66A5.48,5.48,0,0,0,237,55.2Z" fill="#ebebeb"/>
      <path id="Path_2" data-name="Path 2" d="M453.31,337.8H260.21a5.73,5.73,0,0,1-5.71-5.71V60.66A5.72,5.72,0,0,1,260.21,55h193.1A5.71,5.71,0,0,1,459,60.66V332.09a5.7,5.7,0,0,1-5.69,5.71ZM260.21,55.2a5.48,5.48,0,0,0-5.46,5.46V332.09a5.48,5.48,0,0,0,5.46,5.46h193.1a5.48,5.48,0,0,0,5.46-5.46V60.66a5.48,5.48,0,0,0-5.46-5.46Z" fill="#ebebeb"/>
      <path id="Path_3" data-name="Path 3" d="M70.67,171.1h86.76s-4.67-10.86-20.27-7.48c0,0-3.28-12.35-15.18-10.64,0,0-9.85-10.68-24.22-6.54s-13.13,17.18-13.13,17.18S74,160.84,70.67,171.1Z" transform="translate(0 -15.32)" fill="#fafafa"/>
      <path id="Path_4" data-name="Path 4" d="M302.89,104.94H216.14s4.66-10.87,20.26-7.49c0,0,3.28-12.35,15.19-10.64,0,0,9.85-10.67,24.21-6.53s13.14,17.17,13.14,17.17S299.61,94.68,302.89,104.94Z" fill="#fafafa"/>
      <path id="Path_5" data-name="Path 5" d="M366.87,102.11h66.37S430.7,93,421.1,96c0,0,2-12.26-5.08-13.68s-9.33,7.91-9.33,7.91a13.15,13.15,0,0,0-13.27-4,13.36,13.36,0,0,0-9.6,9.71S372,89.17,366.87,102.11Z" fill="#fafafa"/>
      <rect id="Rectangle_8" data-name="Rectangle 8" width="80.74" height="159.97" transform="translate(45.96 168.329)" fill="#e6e6e6"/>
      <rect id="Rectangle_9" data-name="Rectangle 9" width="66.06" height="159.97" transform="translate(45.96 168.329)" fill="#f0f0f0"/>
      <rect id="Rectangle_10" data-name="Rectangle 10" width="83.43" height="2.61" transform="translate(44.22 195.776)" fill="#e0e0e0"/>
      <rect id="Rectangle_11" data-name="Rectangle 11" width="83.43" height="2.61" transform="translate(44.22 191.38)" fill="#e0e0e0"/>
      <rect id="Rectangle_12" data-name="Rectangle 12" width="79.94" height="2.61" transform="translate(45.96 193.578)" fill="#f0f0f0"/>
      <rect id="Rectangle_13" data-name="Rectangle 13" width="12.41" height="12.6" transform="translate(52.23 202.859)" fill="#e6e6e6"/>
      <rect id="Rectangle_14" data-name="Rectangle 14" width="11.31" height="12.6" transform="translate(53.32 202.859)" fill="#f5f5f5"/>
      <rect id="Rectangle_15" data-name="Rectangle 15" width="12.41" height="12.6" transform="translate(71.02 202.859)" fill="#e6e6e6"/>
      <rect id="Rectangle_16" data-name="Rectangle 16" width="11.31" height="12.6" transform="translate(72.11 202.859)" fill="#f5f5f5"/>
      <rect id="Rectangle_17" data-name="Rectangle 17" width="12.41" height="12.6" transform="translate(89.81 202.859)" fill="#e6e6e6"/>
      <rect id="Rectangle_18" data-name="Rectangle 18" width="11.31" height="12.6" transform="translate(90.9 202.859)" fill="#f5f5f5"/>
      <rect id="Rectangle_19" data-name="Rectangle 19" width="12.41" height="12.6" transform="translate(52.23 218.392)" fill="#e6e6e6"/>
      <rect id="Rectangle_20" data-name="Rectangle 20" width="11.31" height="12.6" transform="translate(53.32 218.392)" fill="#f5f5f5"/>
      <rect id="Rectangle_21" data-name="Rectangle 21" width="12.41" height="12.6" transform="translate(71.02 218.392)" fill="#e6e6e6"/>
      <rect id="Rectangle_22" data-name="Rectangle 22" width="11.31" height="12.6" transform="translate(72.11 218.392)" fill="#f5f5f5"/>
      <rect id="Rectangle_23" data-name="Rectangle 23" width="12.41" height="12.6" transform="translate(89.81 218.392)" fill="#e6e6e6"/>
      <rect id="Rectangle_24" data-name="Rectangle 24" width="11.31" height="12.6" transform="translate(90.9 218.392)" fill="#f5f5f5"/>
      <rect id="Rectangle_25" data-name="Rectangle 25" width="12.41" height="12.6" transform="translate(52.23 246.836)" fill="#e6e6e6"/>
      <rect id="Rectangle_26" data-name="Rectangle 26" width="11.31" height="12.6" transform="translate(53.32 246.836)" fill="#f5f5f5"/>
      <rect id="Rectangle_27" data-name="Rectangle 27" width="12.41" height="12.6" transform="translate(71.02 246.836)" fill="#e6e6e6"/>
      <rect id="Rectangle_28" data-name="Rectangle 28" width="11.31" height="12.6" transform="translate(72.11 246.836)" fill="#f5f5f5"/>
      <rect id="Rectangle_29" data-name="Rectangle 29" width="12.41" height="12.6" transform="translate(89.81 246.836)" fill="#e6e6e6"/>
      <rect id="Rectangle_30" data-name="Rectangle 30" width="11.31" height="12.6" transform="translate(90.9 246.836)" fill="#f5f5f5"/>
      <rect id="Rectangle_31" data-name="Rectangle 31" width="12.41" height="12.6" transform="translate(52.23 262.369)" fill="#e6e6e6"/>
      <rect id="Rectangle_32" data-name="Rectangle 32" width="11.31" height="12.6" transform="translate(53.32 262.369)" fill="#f5f5f5"/>
      <rect id="Rectangle_33" data-name="Rectangle 33" width="12.41" height="12.6" transform="translate(71.02 262.369)" fill="#e6e6e6"/>
      <rect id="Rectangle_34" data-name="Rectangle 34" width="11.31" height="12.6" transform="translate(72.11 262.369)" fill="#f5f5f5"/>
      <rect id="Rectangle_35" data-name="Rectangle 35" width="12.41" height="12.6" transform="translate(89.81 262.369)" fill="#e6e6e6"/>
      <rect id="Rectangle_36" data-name="Rectangle 36" width="11.31" height="12.6" transform="translate(90.9 262.369)" fill="#f5f5f5"/>
      <rect id="Rectangle_37" data-name="Rectangle 37" width="12.41" height="12.6" transform="translate(52.23 286.559)" fill="#e6e6e6"/>
      <rect id="Rectangle_38" data-name="Rectangle 38" width="11.31" height="12.6" transform="translate(53.32 286.559)" fill="#f5f5f5"/>
      <rect id="Rectangle_39" data-name="Rectangle 39" width="12.41" height="12.6" transform="translate(71.02 286.559)" fill="#e6e6e6"/>
      <rect id="Rectangle_40" data-name="Rectangle 40" width="11.31" height="12.6" transform="translate(72.11 286.559)" fill="#f5f5f5"/>
      <rect id="Rectangle_41" data-name="Rectangle 41" width="12.41" height="12.6" transform="translate(89.81 286.559)" fill="#e6e6e6"/>
      <rect id="Rectangle_42" data-name="Rectangle 42" width="11.31" height="12.6" transform="translate(90.9 286.559)" fill="#f5f5f5"/>
      <rect id="Rectangle_43" data-name="Rectangle 43" width="12.41" height="12.6" transform="translate(52.23 305.109)" fill="#e6e6e6"/>
      <rect id="Rectangle_44" data-name="Rectangle 44" width="11.31" height="12.6" transform="translate(53.32 305.109)" fill="#f5f5f5"/>
      <rect id="Rectangle_45" data-name="Rectangle 45" width="12.41" height="12.6" transform="translate(71.02 305.109)" fill="#e6e6e6"/>
      <rect id="Rectangle_46" data-name="Rectangle 46" width="11.31" height="12.6" transform="translate(72.11 305.109)" fill="#f5f5f5"/>
      <rect id="Rectangle_47" data-name="Rectangle 47" width="12.41" height="12.6" transform="translate(89.81 305.109)" fill="#e6e6e6"/>
      <rect id="Rectangle_48" data-name="Rectangle 48" width="11.31" height="12.6" transform="translate(90.9 305.109)" fill="#f5f5f5"/>
      <rect id="Rectangle_49" data-name="Rectangle 49" width="80.74" height="1.17" transform="translate(45.96 237.537)" fill="#e0e0e0"/>
      <rect id="Rectangle_50" data-name="Rectangle 50" width="80.74" height="1.17" transform="translate(45.96 286.469)" fill="#e0e0e0"/>
      <rect id="Rectangle_51" data-name="Rectangle 51" width="79.77" height="194.11" transform="translate(364.43 135.319)" fill="#e0e0e0"/>
      <rect id="Rectangle_52" data-name="Rectangle 52" width="57.05" height="194.11" transform="translate(364.43 135.319)" fill="#f0f0f0"/>
      <rect id="Rectangle_53" data-name="Rectangle 53" width="21.23" height="10.31" transform="translate(370.31 180.862)" fill="#e6e6e6"/>
      <rect id="Rectangle_54" data-name="Rectangle 54" width="19.82" height="10.31" transform="translate(371.72 180.862)" fill="#f5f5f5"/>
      <rect id="Rectangle_55" data-name="Rectangle 55" width="21.23" height="10.31" transform="translate(394.87 180.862)" fill="#e6e6e6"/>
      <rect id="Rectangle_56" data-name="Rectangle 56" width="19.82" height="10.31" transform="translate(396.28 180.862)" fill="#f5f5f5"/>
      <rect id="Rectangle_57" data-name="Rectangle 57" width="21.23" height="10.31" transform="translate(370.31 197.128)" fill="#e6e6e6"/>
      <rect id="Rectangle_58" data-name="Rectangle 58" width="19.82" height="10.31" transform="translate(371.72 197.128)" fill="#f5f5f5"/>
      <rect id="Rectangle_59" data-name="Rectangle 59" width="21.23" height="10.31" transform="translate(394.87 197.128)" fill="#e6e6e6"/>
      <rect id="Rectangle_60" data-name="Rectangle 60" width="19.82" height="10.31" transform="translate(396.28 197.128)" fill="#f5f5f5"/>
      <rect id="Rectangle_61" data-name="Rectangle 61" width="21.23" height="10.31" transform="translate(370.31 217.914)" fill="#e6e6e6"/>
      <rect id="Rectangle_62" data-name="Rectangle 62" width="19.82" height="10.31" transform="translate(371.72 217.914)" fill="#f5f5f5"/>
      <rect id="Rectangle_63" data-name="Rectangle 63" width="21.23" height="10.31" transform="translate(394.87 217.914)" fill="#e6e6e6"/>
      <rect id="Rectangle_64" data-name="Rectangle 64" width="19.82" height="10.31" transform="translate(396.28 217.914)" fill="#f5f5f5"/>
      <rect id="Rectangle_65" data-name="Rectangle 65" width="21.23" height="10.31" transform="translate(370.31 229.862)" fill="#e6e6e6"/>
      <rect id="Rectangle_66" data-name="Rectangle 66" width="19.82" height="10.31" transform="translate(371.72 229.862)" fill="#f5f5f5"/>
      <rect id="Rectangle_67" data-name="Rectangle 67" width="21.23" height="10.31" transform="translate(394.87 229.862)" fill="#e6e6e6"/>
      <rect id="Rectangle_68" data-name="Rectangle 68" width="19.82" height="10.31" transform="translate(396.28 229.862)" fill="#f5f5f5"/>
      <rect id="Rectangle_69" data-name="Rectangle 69" width="21.23" height="10.31" transform="translate(370.31 249.49)" fill="#e6e6e6"/>
      <rect id="Rectangle_70" data-name="Rectangle 70" width="19.82" height="10.31" transform="translate(371.72 249.49)" fill="#f5f5f5"/>
      <rect id="Rectangle_71" data-name="Rectangle 71" width="21.23" height="10.31" transform="translate(394.87 249.49)" fill="#e6e6e6"/>
      <rect id="Rectangle_72" data-name="Rectangle 72" width="19.82" height="10.31" transform="translate(396.28 249.49)" fill="#f5f5f5"/>
      <rect id="Rectangle_73" data-name="Rectangle 73" width="21.23" height="10.31" transform="translate(370.31 261.43)" fill="#e6e6e6"/>
      <rect id="Rectangle_74" data-name="Rectangle 74" width="19.82" height="10.31" transform="translate(371.72 261.43)" fill="#f5f5f5"/>
      <rect id="Rectangle_75" data-name="Rectangle 75" width="21.23" height="10.31" transform="translate(394.87 261.43)" fill="#e6e6e6"/>
      <rect id="Rectangle_76" data-name="Rectangle 76" width="19.82" height="10.31" transform="translate(396.28 261.43)" fill="#f5f5f5"/>
      <rect id="Rectangle_77" data-name="Rectangle 77" width="21.23" height="10.31" transform="translate(370.31 282.794)" fill="#e6e6e6"/>
      <rect id="Rectangle_78" data-name="Rectangle 78" width="19.82" height="10.31" transform="translate(371.72 282.794)" fill="#f5f5f5"/>
      <rect id="Rectangle_79" data-name="Rectangle 79" width="21.23" height="10.31" transform="translate(394.87 282.794)" fill="#e6e6e6"/>
      <rect id="Rectangle_80" data-name="Rectangle 80" width="19.82" height="10.31" transform="translate(396.28 282.794)" fill="#f5f5f5"/>
      <rect id="Rectangle_81" data-name="Rectangle 81" width="21.23" height="10.31" transform="translate(370.31 291.649)" fill="#e6e6e6"/>
      <rect id="Rectangle_82" data-name="Rectangle 82" width="19.82" height="10.31" transform="translate(371.72 291.649)" fill="#f5f5f5"/>
      <rect id="Rectangle_83" data-name="Rectangle 83" width="21.23" height="10.31" transform="translate(394.87 291.649)" fill="#e6e6e6"/>
      <rect id="Rectangle_84" data-name="Rectangle 84" width="19.82" height="10.31" transform="translate(396.28 291.649)" fill="#f5f5f5"/>
      <rect id="Rectangle_85" data-name="Rectangle 85" width="79.77" height="1.77" transform="translate(364.43 211.848)" opacity="0.05"/>
      <rect id="Rectangle_86" data-name="Rectangle 86" width="79.77" height="1.77" transform="translate(364.43 244.158)" opacity="0.05"/>
      <rect id="Rectangle_87" data-name="Rectangle 87" width="79.77" height="1.77" transform="translate(364.43 276.755)" opacity="0.05"/>
      <rect id="Rectangle_88" data-name="Rectangle 88" width="83.53" height="6.2" transform="translate(360.67 162.928)" fill="#e0e0e0"/>
      <rect id="Rectangle_89" data-name="Rectangle 89" width="19.09" height="6.2" transform="translate(425.11 162.928)" opacity="0.05"/>
      <rect id="Rectangle_90" data-name="Rectangle 90" width="90.18" height="234.38" transform="translate(160.64 91.739)" fill="#e6e6e6"/>
      <rect id="Rectangle_91" data-name="Rectangle 91" width="90.19" height="234.38" transform="translate(127.26 91.739)" fill="#f0f0f0"/>
      <rect id="Rectangle_92" data-name="Rectangle 92" width="74.45" height="11.94" transform="translate(135.13 144.204)" fill="#e6e6e6"/>
      <rect id="Rectangle_93" data-name="Rectangle 93" width="71.56" height="11.94" transform="translate(138.02 144.204)" fill="#f5f5f5"/>
      <rect id="Rectangle_94" data-name="Rectangle 94" width="74.45" height="11.94" transform="translate(135.13 161.041)" fill="#e6e6e6"/>
      <rect id="Rectangle_95" data-name="Rectangle 95" width="71.56" height="11.94" transform="translate(138.02 161.041)" fill="#f5f5f5"/>
      <rect id="Rectangle_96" data-name="Rectangle 96" width="74.45" height="11.94" transform="translate(135.13 178.531)" fill="#e6e6e6"/>
      <rect id="Rectangle_97" data-name="Rectangle 97" width="71.56" height="11.94" transform="translate(138.02 178.531)" fill="#f5f5f5"/>
      <rect id="Rectangle_98" data-name="Rectangle 98" width="74.45" height="11.94" transform="translate(135.13 196.03)" fill="#e6e6e6"/>
      <rect id="Rectangle_99" data-name="Rectangle 99" width="71.56" height="11.94" transform="translate(138.02 196.03)" fill="#f5f5f5"/>
      <rect id="Rectangle_100" data-name="Rectangle 100" width="74.45" height="11.94" transform="translate(135.13 213.521)" fill="#e6e6e6"/>
      <rect id="Rectangle_101" data-name="Rectangle 101" width="71.56" height="11.94" transform="translate(138.02 213.521)" fill="#f5f5f5"/>
      <rect id="Rectangle_102" data-name="Rectangle 102" width="74.45" height="11.94" transform="translate(135.13 231.02)" fill="#e6e6e6"/>
      <rect id="Rectangle_103" data-name="Rectangle 103" width="71.56" height="11.94" transform="translate(138.02 231.02)" fill="#f5f5f5"/>
      <rect id="Rectangle_104" data-name="Rectangle 104" width="74.45" height="11.94" transform="translate(135.13 250.303)" fill="#e6e6e6"/>
      <rect id="Rectangle_105" data-name="Rectangle 105" width="71.56" height="11.94" transform="translate(138.02 250.303)" fill="#f5f5f5"/>
      <rect id="Rectangle_106" data-name="Rectangle 106" width="74.45" height="11.94" transform="translate(135.13 269.578)" fill="#e6e6e6"/>
      <rect id="Rectangle_107" data-name="Rectangle 107" width="71.56" height="11.94" transform="translate(138.02 269.578)" fill="#f5f5f5"/>
      <rect id="Rectangle_108" data-name="Rectangle 108" width="74.45" height="11.94" transform="translate(135.13 280.339)" fill="#e6e6e6"/>
      <rect id="Rectangle_109" data-name="Rectangle 109" width="71.56" height="11.94" transform="translate(138.02 280.339)" fill="#f5f5f5"/>
      <rect id="Rectangle_110" data-name="Rectangle 110" width="74.45" height="11.94" transform="translate(135.13 303.359)" fill="#e6e6e6"/>
      <rect id="Rectangle_111" data-name="Rectangle 111" width="71.56" height="11.94" transform="translate(138.02 303.359)" fill="#f5f5f5"/>
      <rect id="Rectangle_112" data-name="Rectangle 112" width="128.46" height="5.72" transform="translate(124.71 129.163)" fill="#f5f5f5"/>
      <rect id="Rectangle_113" data-name="Rectangle 113" width="128.46" height="5.72" transform="translate(124.71 120.487)" fill="#f5f5f5"/>
      <rect id="Rectangle_114" data-name="Rectangle 114" width="121.64" height="5.72" transform="translate(127.26 124.354)" fill="#f0f0f0"/>
      <rect id="Rectangle_115" data-name="Rectangle 115" width="25.13" height="11.94" transform="translate(225.7 144.204)" fill="#e0e0e0"/>
      <rect id="Rectangle_116" data-name="Rectangle 116" width="25.13" height="11.94" transform="translate(225.7 160.664)" fill="#e0e0e0"/>
      <rect id="Rectangle_117" data-name="Rectangle 117" width="25.13" height="11.94" transform="translate(225.7 177.124)" fill="#e0e0e0"/>
      <rect id="Rectangle_118" data-name="Rectangle 118" width="25.13" height="11.94" transform="translate(225.7 196.022)" fill="#e0e0e0"/>
      <rect id="Rectangle_119" data-name="Rectangle 119" width="25.13" height="11.94" transform="translate(225.7 213.521)" fill="#e0e0e0"/>
      <rect id="Rectangle_120" data-name="Rectangle 120" width="25.13" height="11.94" transform="translate(225.7 231.02)" fill="#e0e0e0"/>
      <rect id="Rectangle_121" data-name="Rectangle 121" width="25.13" height="11.94" transform="translate(225.7 250.295)" fill="#e0e0e0"/>
      <rect id="Rectangle_122" data-name="Rectangle 122" width="25.13" height="11.94" transform="translate(225.7 269.578)" fill="#e0e0e0"/>
      <rect id="Rectangle_123" data-name="Rectangle 123" width="25.13" height="11.94" transform="translate(225.7 280.339)" fill="#e0e0e0"/>
      <rect id="Rectangle_124" data-name="Rectangle 124" width="25.13" height="11.94" transform="translate(225.7 303.359)" fill="#e0e0e0"/>
      <rect id="Rectangle_125" data-name="Rectangle 125" width="9.92" height="15.52" transform="translate(356.83 199.184)" fill="#e0e0e0"/>
      <rect id="Rectangle_126" data-name="Rectangle 126" width="9.92" height="15.52" transform="translate(356.83 220.416)" fill="#e0e0e0"/>
      <rect id="Rectangle_127" data-name="Rectangle 127" width="9.92" height="15.52" transform="translate(356.83 241.055)" fill="#e0e0e0"/>
      <rect id="Rectangle_128" data-name="Rectangle 128" width="9.92" height="15.52" transform="translate(356.83 262.872)" fill="#e0e0e0"/>
      <rect id="Rectangle_129" data-name="Rectangle 129" width="9.92" height="15.52" transform="translate(356.83 284.103)" fill="#e0e0e0"/>
      <rect id="Rectangle_130" data-name="Rectangle 130" width="104.39" height="158.76" transform="translate(262.36 158.049)" fill="#e6e6e6"/>
      <rect id="Rectangle_131" data-name="Rectangle 131" width="86.75" height="158.76" transform="translate(262.37 158.049)" fill="#f0f0f0"/>
      <rect id="Rectangle_132" data-name="Rectangle 132" width="70.54" height="15.52" transform="translate(270.17 199.193)" fill="#ebebeb"/>
      <rect id="Rectangle_133" data-name="Rectangle 133" width="70.54" height="15.52" transform="translate(270.17 220.416)" fill="#ebebeb"/>
      <rect id="Rectangle_134" data-name="Rectangle 134" width="70.54" height="15.52" transform="translate(270.17 241.648)" fill="#ebebeb"/>
      <rect id="Rectangle_135" data-name="Rectangle 135" width="70.54" height="15.52" transform="translate(270.17 262.872)" fill="#ebebeb"/>
      <rect id="Rectangle_136" data-name="Rectangle 136" width="70.54" height="15.52" transform="translate(270.17 284.103)" fill="#ebebeb"/>
      <rect id="Rectangle_137" data-name="Rectangle 137" width="67.94" height="15.52" transform="translate(272.77 199.193)" fill="#f5f5f5"/>
      <rect id="Rectangle_138" data-name="Rectangle 138" width="67.94" height="15.52" transform="translate(272.77 220.416)" fill="#f5f5f5"/>
      <rect id="Rectangle_139" data-name="Rectangle 139" width="67.94" height="15.52" transform="translate(272.77 241.648)" fill="#f5f5f5"/>
      <rect id="Rectangle_140" data-name="Rectangle 140" width="67.94" height="15.52" transform="translate(272.77 262.872)" fill="#f5f5f5"/>
      <rect id="Rectangle_141" data-name="Rectangle 141" width="67.94" height="15.52" transform="translate(272.77 284.103)" fill="#f5f5f5"/>
    </g>
    <g id="freepik--Shape--inject-117">
      <ellipse id="freepik--shape--inject-117-2" data-name="freepik--shape--inject-117" cx="193.89" cy="11.32" rx="193.89" ry="11.32" transform="translate(56.11 404.92)" fill="#f5f5f5"/>
    </g>
    <g id="freepik--Route--inject-117">
      <line id="Line_1" data-name="Line 1" x1="4" transform="translate(135.73 416.24)" fill="none" stroke="#407bff" stroke-linecap="round" stroke-linejoin="round" stroke-width="1"/>
      <line id="Line_2" data-name="Line 2" x1="102.15" transform="translate(26.02 416.24)" fill="none" stroke="#407bff" stroke-linecap="round" stroke-linejoin="round" stroke-width="1" stroke-dasharray="7.566 7.566"/>
      <line id="Line_3" data-name="Line 3" x1="4" transform="translate(18.24 416.24)" fill="none" stroke="#407bff" stroke-linecap="round" stroke-linejoin="round" stroke-width="1"/>
    </g>
    <g id="freepik--Character--inject-117">
      <rect id="Rectangle_142" data-name="Rectangle 142" width="115.4" height="83.31" transform="matrix(1, -0.017, 0.017, 1, 262.372, 178.784)" fill="#407bff"/>
      <rect id="Rectangle_143" data-name="Rectangle 143" width="69.77" height="83.31" transform="matrix(1, -0.017, 0.017, 1, 262.258, 178.775)" fill="#fff" opacity="0.3"/>
      <rect id="Rectangle_144" data-name="Rectangle 144" width="20.09" height="5.6" transform="translate(322.441 183.634) rotate(-1.146)" fill="#fff" opacity="0.3"/>
      <rect id="Rectangle_145" data-name="Rectangle 145" width="20.09" height="5.6" transform="matrix(1, -0.017, 0.017, 1, 323.04, 248.339)" fill="#fff" opacity="0.3"/>
      <ellipse id="Ellipse_1" data-name="Ellipse 1" cx="11.79" cy="13.34" rx="11.79" ry="13.34" transform="translate(344.73 203.51)" fill="none" stroke="#fff" stroke-miterlimit="10" stroke-width="1"/>
      <line id="Line_4" data-name="Line 4" y2="2.24" transform="translate(357.01 205.54)" fill="none" stroke="#fff" stroke-linecap="round" stroke-linejoin="round" stroke-width="1"/>
      <line id="Line_5" data-name="Line 5" y2="2.24" transform="translate(357.52 226.06)" fill="none" stroke="#fff" stroke-linecap="round" stroke-linejoin="round" stroke-width="1"/>
      <line id="Line_6" data-name="Line 6" x2="2.25" transform="translate(346.58 216.41)" fill="none" stroke="#fff" stroke-linecap="round" stroke-linejoin="round" stroke-width="1"/>
      <line id="Line_7" data-name="Line 7" x2="2.25" transform="translate(364.64 216.42)" fill="none" stroke="#fff" stroke-linecap="round" stroke-linejoin="round" stroke-width="1"/>
      <line id="Line_8" data-name="Line 8" y1="6.9" x2="0.01" transform="translate(357 209.51)" fill="none" stroke="#fff" stroke-linecap="round" stroke-linejoin="round" stroke-width="0.5"/>
      <line id="Line_9" data-name="Line 9" x2="4.88" y2="4.88" transform="translate(357.44 216.86)" fill="none" stroke="#fff" stroke-linecap="round" stroke-linejoin="round" stroke-width="0.5"/>
      <path id="Path_6" data-name="Path 6" d="M358.09,216.42a1.08,1.08,0,1,1-.316-.774,1.09,1.09,0,0,1,.316.774Z" fill="#fff"/>
      <ellipse id="Ellipse_2" data-name="Ellipse 2" cx="15.61" cy="16.87" rx="15.61" ry="16.87" transform="translate(340.91 199.98)" fill="#fff" opacity="0.3"/>
      <path id="Path_7" data-name="Path 7" d="M226.88,363.15c1.74,1.33,36.67-2.43,27.64-64.4,0,0,16.57,4.21,18.35,3.93,0,0,24.31,37.27,6.61,55.73S235.4,378,235.4,378Z" fill="#407bff"/>
      <path id="Path_8" data-name="Path 8" d="M226.88,363.15c1.74,1.33,36.67-2.43,27.64-64.4,0,0,16.57,4.21,18.35,3.93,0,0,24.31,37.27,6.61,55.73S235.4,378,235.4,378Z" opacity="0.3"/>
      <path id="Path_9" data-name="Path 9" d="M265.59,308.34c.09,0-9.76.19-13.06-3.91S247,293,253,288s41.23-26.6,57.82-28.3,34.35,9,34.35,9l-21.72,16.06-46.77,11.32Z" fill="#263238"/>
      <path id="Path_10" data-name="Path 10" d="M233.74,353.39l.91,8.96,10.76-.91-1.62-9.21Z" fill="#ffc3bd"/>
      <path id="Path_11" data-name="Path 11" d="M231.65,361.7l15.61-.22,1.11,7.88s-14.62.2-20.63-.6-5.07-3.93-5.07-3.93S229.71,365,231.65,361.7Z" fill="#263238"/>
      <ellipse id="Ellipse_3" data-name="Ellipse 3" cx="41.69" cy="35.29" rx="41.69" ry="35.29" transform="matrix(0.101, -0.995, 0.995, 0.101, 293.439, 418.712)" fill="#263238"/>
      <path id="Path_12" data-name="Path 12" d="M308.24,253.29s1.62,37.17-20,38.23-44.85-1.31-44.85-1.31L250.2,357l-20.27,1.25s-14.55-56.66-16.84-70.9-.3-24.31,14.73-30.63S308.24,253.29,308.24,253.29Z" fill="#407bff"/>
      <path id="Path_13" data-name="Path 13" d="M187.25,371.22,214.18,293l36-39.74s-31.42.12-46.52,8.8S188,281.17,185.23,293.58s-13.88,71.15-13.88,71.15Z" fill="#407bff"/>
      <path id="Path_14" data-name="Path 14" d="M308.24,253.29s-33.46-1.49-58,0h0s-31.42.12-46.52,8.8S188,281.17,185.23,293.58s-13.88,71.15-13.88,71.15l15.9,6.49L214.18,293h0c4.53,21.68,15.75,65.21,15.75,65.21L250.2,357l-6.82-66.75s23.22,2.37,44.85,1.31S308.24,253.29,308.24,253.29Z" opacity="0.7"/>
      <path id="Path_15" data-name="Path 15" d="M253,193l-12.43,1.51s-2.16,22.85-4.17,27.29c0,0-38.23,5.25-53.89,4.8l-7.95,5.4-.28,9.39,7.79.23,2.51-5.95s5.26-.23,6.48-3.19c0,0,40.62,9.81,55.58-1.39C246.66,231.1,255.68,217.85,253,193Z" fill="#ffc3bd"/>
      <path id="Path_16" data-name="Path 16" d="M288.62,131.81s3.89,5,2.41,9.33a7.57,7.57,0,0,1-5.49,5s-.73,6.93-4.82,7.13S278,138,278,138Z" fill="#263238"/>
      <path id="Path_17" data-name="Path 17" d="M257.13,253.46l-2.73-44.67-16.94-11.26S243,178,253.6,174.69s33.72-10.9,47.74-7.13,12.41,20.31,10,32.58l-2.7.64s-.42,48.35-.44,52.51Z" fill="#263238"/>
      <path id="Path_18" data-name="Path 18" d="M287.61,170.32c-5.55,5.37-16.87,8.57-20,5.9s.82-5.12,3.76-8.14c1.59-1.66,1.54-4.77,1.17-7.25a25.53,25.53,0,0,0-.86-3.69c-10.39-.57-14.7-5.43-15.13-14S260,124.62,260,124.62l7.34-6.26s10,1.5,18,7c4.76,3.24,3.35,9.62,1.38,14.33a38.313,38.313,0,0,1-3,5.77C282.6,157.19,287.61,170.32,287.61,170.32Z" fill="#ffc3bd"/>
      <path id="Path_19" data-name="Path 19" d="M262.33,145.5s4,.19,5.75-2.29" fill="none" stroke="#263238" stroke-linecap="round" stroke-linejoin="round" stroke-width="1"/>
      <path id="Path_20" data-name="Path 20" d="M268.7,135.38c0,.76-.46,1.36-1,1.35s-.93-.64-.91-1.4.46-1.36,1-1.35S268.73,134.62,268.7,135.38Z" fill="#263238"/>
      <path id="Path_21" data-name="Path 21" d="M259.58,135.62c0,.76-.46,1.36-1,1.35s-.93-.64-.91-1.4.46-1.36,1-1.35S259.61,134.87,259.58,135.62Z" fill="#263238"/>
      <path id="Path_22" data-name="Path 22" d="M262.75,141.83l-.41-6.13-2.93,5.82a2.92,2.92,0,0,0,3.34.31Z" fill="#ed847e"/>
      <path id="Path_23" data-name="Path 23" d="M268.22,130.58a3.36,3.36,0,0,1,3.94,1.83" fill="none" stroke="#263238" stroke-linecap="round" stroke-linejoin="round" stroke-width="1"/>
      <path id="Path_24" data-name="Path 24" d="M256.76,131.71s1.84-2,4-1.49" fill="none" stroke="#263238" stroke-linecap="round" stroke-linejoin="round" stroke-width="1"/>
      <path id="Path_25" data-name="Path 25" d="M286.79,139.69h0c-11.44.41-12.86-12.56-12.86-12.56-5.66,3-13.89-2.5-13.89-2.5l7.34-6.28s10,1.52,18,7C290.17,128.6,288.76,135,286.79,139.69Z" fill="#263238"/>
      <path id="Path_26" data-name="Path 26" d="M256.36,128.43s-5.92-3.94-3.31-6.78,18.6,2.56,30.55,9.18c0,0-27.37-18.31-34.81-12.52-6.15,4.79,7.49,11.44,7.08,11.43Z" fill="#407bff"/>
      <path id="Path_27" data-name="Path 27" d="M289.75,127.09a17.129,17.129,0,0,1-1.16,6.06l-26.88-13a14.3,14.3,0,0,1,3.94-3.18,16.7,16.7,0,0,1,5.12-1.9,18.84,18.84,0,0,1,5.79-.2C286.39,116,289.8,123.56,289.75,127.09Z" fill="#407bff"/>
      <path id="Path_28" data-name="Path 28" d="M228,246.66c-1.75,1.83-24.38-2.86-28.33-.76-1.67.88-2.4,4-4.08,7.42h0c-2.29,4.65-6.36,9.75-17,10.09-18.48.59-16.25-18.16-17.71-24.25,0,0-17.5-3.19-18.42-6.26s.21-3.53.21-3.53,21.59,4,25.77-1.46a9.16,9.16,0,0,1,2.8-1.87h0a20.32,20.32,0,0,1,7.6-1.71c7.61-.4,16.89,1.74,19.49,6.56,5.28,9.83,27.92,7.62,30,10.2S229.75,244.83,228,246.66Z" fill="#407bff"/>
      <path id="Path_29" data-name="Path 29" d="M170.71,259.47s-30.36,42-5.36,106.65" fill="none" stroke="#263238" stroke-linecap="round" stroke-linejoin="round" stroke-width="1"/>
      <path id="Path_30" data-name="Path 30" d="M210.78,281.29h0v.77a80,80,0,0,1-2,12c-1.38,5.83-3.21,11.38-4.72,15.84-6.4,18.95-5.66,39.37-5.66,39.37-2.12-2.64-6-4.52-10.85-5.84-17.66-4.85-47.64-2.25-47.64-2.25-5.88-20.63-3.78-52.92,2.07-71s22.07-14,22.07-14,17.12.5,19.27.27a42.1,42.1,0,0,1,11.83.24C208.37,259.11,211.55,269.56,210.78,281.29Z" fill="#407bff"/>
      <path id="Path_31" data-name="Path 31" d="M342.59,360c-30,27.08-87.91,29.92-131,26.92l-24.14-43.43-9.78-17.59,31.42-42.35,1.66-2.23v.77c-.43,7.55-3.21,68.14,19,83l.18.13A19.26,19.26,0,0,0,240,368.3c40.75,1.18,39.61-52,29.25-63.39l70.71-14.21S353.92,325.85,342.59,360Z" fill="#407bff"/>
      <path id="Path_32" data-name="Path 32" d="M263.94,293.38s-6.63,5.5-3.21,12.88,36.39-6.95,49.37-9.56,28-5.16,34.46-6.49,5.9-19.86.62-21.5-57,7.5-65.58,12.52a87.062,87.062,0,0,0-15.66,12.15Z" fill="#263238"/>
      <path id="Path_33" data-name="Path 33" d="M280.54,144.27a4.1,4.1,0,0,1-.39-5.09c1.6-2.4,4.83-6.21,7.93-3.36,4.34,4-3.07,11.27-6.14,9.51A6.251,6.251,0,0,1,280.54,144.27Z" fill="#ffc3bd"/>
      <path id="Path_34" data-name="Path 34" d="M256.36,128.43s-5.92-3.94-3.31-6.78c1.16-1.26,4.63-1,9.32.34a65.7,65.7,0,0,1,8.84,3.07c4.12,1.79,8.5,4.08,12.39,5.77,0,0-27.37-18.31-34.81-12.52-6.15,4.79,6.64,11,7.09,11.42l.22-.81Z" opacity="0.2"/>
      <path id="Path_35" data-name="Path 35" d="M259.17,126.72s-6,1-1.86,7.46Z" fill="#263238"/>
      <path id="Path_36" data-name="Path 36" d="M264.92,122.78s-9.05-3.18-11.57-1.38.12,5.23,3,7l2.31.3,1.36-4.1,3.52-.43Z" fill="#263238"/>
      <path id="Path_37" data-name="Path 37" d="M277.25,117.89l-2.17,3.21-9.43-4.1a16.7,16.7,0,0,1,5.12-1.9Z" fill="#fff" opacity="0.3"/>
      <path id="Path_38" data-name="Path 38" d="M275.15,156.26a16,16,0,0,1-2.65,4.57,25.53,25.53,0,0,0-.86-3.69,10.34,10.34,0,0,0,3.51-.88Z" opacity="0.1"/>
      <path id="Path_39" data-name="Path 39" d="M185.5,244.2c-.4,6.93-3.4,12.6-7.08,14h0a4.77,4.77,0,0,1-2,.31c-4.54-.26-7.84-7.07-7.38-15.2s4.52-14.51,9.06-14.25c1.85.1,3.48,1.29,4.75,3.2h0C184.72,235,185.77,239.38,185.5,244.2Z" fill="#f5f5f5"/>
      <path id="Path_40" data-name="Path 40" d="M185.5,244.2c-.4,6.93-3.4,12.6-7.08,14h0c-4.2-.24-7.25-6.53-6.82-14s4.17-13.4,8.37-13.16a4.87,4.87,0,0,1,2.91,1.25h0C184.72,235,185.77,239.38,185.5,244.2Z" fill="#fff"/>
      <path id="Path_41" data-name="Path 41" d="M347.57,342.43c-7.73-5.43-37.64-10.76-37.64-10.76-18.17,0-34.12,16.35-36.32,38.06-1.8,17.66,6,33.69,18.57,41,0,0,1.05.44,2.81,1.13,6.66,2.63,23.56,9,33.55,10.4" fill="#263238"/>
      <ellipse id="Ellipse_4" data-name="Ellipse 4" cx="41.69" cy="35.29" rx="41.69" ry="35.29" transform="matrix(0.101, -0.995, 0.995, 0.101, 293.439, 418.712)" opacity="0.3"/>
      <ellipse id="Ellipse_5" data-name="Ellipse 5" cx="41.69" cy="35.29" rx="41.69" ry="35.29" transform="matrix(0.101, -0.995, 0.995, 0.101, 137.98, 417.378)" fill="#263238"/>
      <path id="Path_42" data-name="Path 42" d="M198.88,345.64,181,420.71a30.1,30.1,0,0,1-7.89.23h-.2c-3.43-.88-1.9.07-5.34-1.07-8.75-2.89-21.46-8-21.46-8-13.47-6.55-21.08-22.48-19.23-40.68,2.24-22.05,18.06-38.52,36.68-37.17,0,0,8.84,1.63,17.94,4a106.362,106.362,0,0,1,11.29,3.43h0a33.521,33.521,0,0,1,6.09,4.19Z" fill="#263238"/>
      <path id="Path_43" data-name="Path 43" d="M212.42,383c-2,19.75-15.37,35.08-31.44,37.67a30.1,30.1,0,0,1-7.89.23h-.2a30.241,30.241,0,0,1-10.5-3.13c-13.51-6.85-22.06-23.49-20.19-41.89,2.33-22.89,19.9-39.84,39.28-37.9h.05a30.241,30.241,0,0,1,11.24,3.43h0a33.519,33.519,0,0,1,6.09,4.2C208.43,353.93,214,367.89,212.42,383Z" opacity="0.3"/>
      <path id="Path_44" data-name="Path 44" d="M207.55,356.7a18.329,18.329,0,0,0-2-2.63c-4.47-6.1-14.69-8.38-21.38-7.84a31.12,31.12,0,0,0-14.33,5.14c-4.88,3.16-8.37,8-13.21,11.32-9.18,6.34-23.11,6.16-32.33-.37a14.211,14.211,0,0,1-1.48-1.21,6.82,6.82,0,0,1-1.8-3.55,9,9,0,0,1,.37-5c2-5.62,8.67-10.56,12.88-13.57a56.43,56.43,0,0,1,29-10.21C193,326.73,205.68,352.12,207.55,356.7Z" fill="#407bff"/>
      <path id="Path_45" data-name="Path 45" d="M205.49,357.5c-6.39-9.22-14.59-11.81-21.28-11.27a31.12,31.12,0,0,0-14.33,5.14c-4.88,3.16-8.37,8-13.21,11.32-9.18,6.34-23.11,6.16-32.33-.37a14.209,14.209,0,0,1-1.48-1.21,6.82,6.82,0,0,1-1.8-3.55,9,9,0,0,1,.37-5c3.09,3.57,12.09,12.17,24.28,8,15.2-5.25,18.91-20.85,35.16-20.71C193.78,340,201.73,350,205.49,357.5Z" opacity="0.3"/>
      <g id="Group_1" data-name="Group 1" opacity="0.3">
        <path id="Path_46" data-name="Path 46" d="M138.62,336.24A42.29,42.29,0,0,1,153,329.65a47.71,47.71,0,0,1,15.84-1.3,52.12,52.12,0,0,1,15.41,3.92l1.82.8,1.78.89c1.2.56,2.33,1.26,3.49,1.9s2.23,1.43,3.34,2.14,2.15,1.54,3.21,2.33A75.121,75.121,0,0,0,184,333a53.29,53.29,0,0,0-15.21-3.63,49.131,49.131,0,0,0-15.57,1,48.283,48.283,0,0,0-7.51,2.32,41.049,41.049,0,0,0-7.09,3.55Z"/>
      </g>
      <g id="Group_2" data-name="Group 2" opacity="0.3">
        <path id="Path_47" data-name="Path 47" d="M171,329.09a55.119,55.119,0,0,1-2.23-12.82c-.33-4.33-.4-8.68-.31-13s.39-8.68.79-13l.73-6.46c.32-2.15.6-4.3,1-6.44l-.91,13-.36,6.48c-.06,2.16-.19,4.32-.2,6.48-.17,4.32-.09,8.64.07,13,.07,2.16.24,4.31.46,6.46a46.543,46.543,0,0,0,.96,6.3Z"/>
      </g>
      <path id="Path_48" data-name="Path 48" d="M229.7,365c-20.88-13.43-21.71-48.08-21-70.94.13-3.93.29-7.5.41-10.57a64.887,64.887,0,0,0,0-9.23C207,258.56,195,256.67,195,256.67h.05c13.29,2.44,16.47,12.89,15.7,24.62h0v.77C210.3,289.61,207.52,350.2,229.7,365Z" opacity="0.3"/>
      <path id="Path_49" data-name="Path 49" d="M228,246.66c-1.75,1.83-24.38-2.86-28.33-.76-1.67.88-2.4,4-4.08,7.42h0c-4.72,7.5-11.36,8.68-11.77,8.74,7.92-6,10.13-20.44,6.2-29.57s-18-6.76-18.8-6.49a20.32,20.32,0,0,1,7.6-1.71c7.61-.4,16.89,1.74,19.49,6.56,5.28,9.83,27.92,7.62,30,10.2S229.75,244.83,228,246.66Z" opacity="0.2"/>
      <path id="Path_50" data-name="Path 50" d="M210.28,237.93a13.87,13.87,0,0,0-1.57,8.31l19.17,2.16a10.44,10.44,0,0,0,2.43-8.34S211.32,238.15,210.28,237.93Z" fill="#263238"/>
      <path id="Path_51" data-name="Path 51" d="M152.07,237.22s-1.91-4.06.38-6.63c-5.12-.46-8.29-1-11.59-1.48-.49,1.49-.73,2.92,1,5.19S152.07,237.22,152.07,237.22Z" fill="#263238"/>
      <path id="Path_52" data-name="Path 52" d="M141.42,262.63c-3.32,5.41-6.16,14.07-6.41,27.9" fill="none" stroke="#407bff" stroke-linecap="round" stroke-linejoin="round" stroke-width="1"/>
      <path id="Path_53" data-name="Path 53" d="M152.35,253.71a13.85,13.85,0,0,0-6.43,3.47" fill="none" stroke="#407bff" stroke-linecap="round" stroke-linejoin="round" stroke-width="1"/>
      <path id="Path_54" data-name="Path 54" d="M301.48,201.58l-12.62,1.54s-2.2,23.19-4.24,27.7c0,0-38.81,5.34-54.72,4.87l-8.07,5.48-.28,9.54,7.91.23,2.55-6s5.34-.23,6.57-3.24c0,0,41.24,10,56.43-1.4C295,240.26,304.17,226.81,301.48,201.58Z" fill="#ffc3bd"/>
      <path id="Path_55" data-name="Path 55" d="M198.72,380c-.36,12.58-8.6,22.54-18.41,22.26a14,14,0,0,1-3.88-.67c-7.86-2.5-13.52-11.77-13.21-22.62.31-10.5,6.1-19.18,13.71-21.59a14.069,14.069,0,0,1,4.71-.67C191.45,357,199.09,367.46,198.72,380Z" fill="#fafafa" opacity="0.2"/>
      <path id="Path_56" data-name="Path 56" d="M189.69,380c-.31,10.74-6,19.57-13.26,21.62-7.86-2.5-13.52-11.77-13.21-22.62.31-10.5,6.1-19.18,13.71-21.59C184.49,359.46,190,368.88,189.69,380Z" fill="#263238"/>
      <path id="Path_57" data-name="Path 57" d="M352.8,381c-.37,12.58-8.61,22.55-18.41,22.26a13.609,13.609,0,0,1-3.88-.67c-7.87-2.5-13.53-11.76-13.21-22.62.3-10.49,6.09-19.18,13.7-21.59a14.07,14.07,0,0,1,4.71-.67C345.52,358,353.16,368.44,352.8,381Z" fill="#fafafa" opacity="0.2"/>
      <path id="Path_58" data-name="Path 58" d="M343.77,381c-.32,10.73-6,19.56-13.26,21.61-7.87-2.5-13.53-11.76-13.21-22.62.3-10.49,6.09-19.18,13.7-21.59C338.57,360.45,344.09,369.87,343.77,381Z" fill="#263238"/>
      <path id="Path_59" data-name="Path 59" d="M368.26,347.86c.17,12.37-18.66,20.56-50.17,25.72a79.49,79.49,0,0,1-25.7.3c-14-2.31-20.84-8.23-20.84-8.23s3.56-42.75,38.79-48.17c24-3.68,42.06,6,51.22,16.43C365.87,338.81,368.21,343.9,368.26,347.86Z" fill="#407bff"/>
      <path id="Path_60" data-name="Path 60" d="M368.26,347.86c.17,12.37-18.66,20.56-50.17,25.72a79.49,79.49,0,0,1-25.7.3c1.51-11.61,8.29-42.06,37.76-45.22,13.37-1.44,23.69,1.26,31.41,5.25C365.87,338.81,368.21,343.9,368.26,347.86Z" opacity="0.3"/>
      <g id="Group_3" data-name="Group 3" opacity="0.3">
        <path id="Path_61" data-name="Path 61" d="M273.59,365.84a68.861,68.861,0,0,1,4.13-17,61.52,61.52,0,0,1,8.44-15.44,46,46,0,0,1,6-6.47,38.252,38.252,0,0,1,7.17-5.16,41.751,41.751,0,0,1,16.7-5.21,50.749,50.749,0,0,0-8.46,2.18,40.269,40.269,0,0,0-4,1.62,42.481,42.481,0,0,0-3.81,2.07c-1.26.72-2.42,1.59-3.61,2.4a25.919,25.919,0,0,0-3.34,2.78A45.39,45.39,0,0,0,287,334a63.64,63.64,0,0,0-8.51,15.11,77.152,77.152,0,0,0-2.86,8.24,73.124,73.124,0,0,0-2.04,8.49Z"/>
      </g>
      <path id="Path_62" data-name="Path 62" d="M226.31,351.72l2.08,7.06,21.81-1.82.29-9.87Z" fill="#407bff"/>
    </g>
    <g id="freepik--speed-line--inject-117">
      <line id="Line_10" data-name="Line 10" y1="1.95" x2="47.99" transform="translate(356.16 301.62)" fill="none" stroke="#407bff" stroke-linecap="round" stroke-linejoin="round" stroke-width="1"/>
      <line id="Line_11" data-name="Line 11" y1="0.29" x2="7.13" transform="translate(420.01 292.59)" fill="none" stroke="#407bff" stroke-linecap="round" stroke-linejoin="round" stroke-width="1"/>
      <line id="Line_12" data-name="Line 12" y1="1.44" x2="35.38" transform="translate(379.16 293.1)" fill="none" stroke="#407bff" stroke-linecap="round" stroke-linejoin="round" stroke-width="1"/>
      <line id="Line_13" data-name="Line 13" y1="1.2" x2="29.65" transform="translate(403.92 318.18)" fill="none" stroke="#407bff" stroke-linecap="round" stroke-linejoin="round" stroke-width="1"/>
      <line id="Line_14" data-name="Line 14" y1="0.53" x2="12.92" transform="translate(385.59 319.6)" fill="none" stroke="#407bff" stroke-linecap="round" stroke-linejoin="round" stroke-width="1"/>
    </g>
  </g>
</svg>
