<svg xmlns="http://www.w3.org/2000/svg" width="551.925" height="411.25" viewBox="0 0 551.925 411.25">
  <g id="Organizing_projects-rafiki" data-name="Organizing projects-rafiki" transform="translate(0 -55)">
    <g id="freepik--background-complete--inject-4" transform="translate(0 55)">
      <rect id="Retângulo_6661" data-name="Retângulo 6661" width="551.925" height="0.276" transform="translate(0 361.401)" fill="#ebebeb"/>
      <rect id="Retângulo_6662" data-name="Retângulo 6662" width="86.001" height="0.276" transform="translate(57.908 371.909)" fill="#ebebeb"/>
      <rect id="Retângulo_6663" data-name="Retângulo 6663" width="41.836" height="0.276" transform="translate(454.786 380.31)" fill="#ebebeb"/>
      <rect id="Retângulo_6664" data-name="Retângulo 6664" width="21.183" height="0.276" transform="translate(145.013 382.164)" fill="#ebebeb"/>
      <rect id="Retângulo_6665" data-name="Retângulo 6665" width="47.675" height="0.276" transform="translate(223.165 368.918)" fill="#ebebeb"/>
      <rect id="Retângulo_6666" data-name="Retângulo 6666" width="6.987" height="0.276" transform="translate(280.665 368.918)" fill="#ebebeb"/>
      <rect id="Retângulo_6667" data-name="Retângulo 6667" width="47.708" height="0.276" transform="translate(361.699 375.651)" fill="#ebebeb"/>
      <path id="Caminho_8459" data-name="Caminho 8459" d="M257.644,367.169H44.5a6.3,6.3,0,0,1-6.292-6.3V61.248A6.3,6.3,0,0,1,44.5,55H257.644a6.3,6.3,0,0,1,6.3,6.3V360.866A6.3,6.3,0,0,1,257.644,367.169ZM44.5,55.221a6.027,6.027,0,0,0-6.016,6.027V360.866a6.027,6.027,0,0,0,6.016,6.027H257.644a6.038,6.038,0,0,0,6.027-6.027V61.248a6.038,6.038,0,0,0-6.027-6.027Z" transform="translate(3.968 -55)" fill="#ebebeb"/>
      <path id="Caminho_8460" data-name="Caminho 8460" d="M473.956,367.169H260.8a6.314,6.314,0,0,1-6.3-6.3V61.248A6.314,6.314,0,0,1,260.8,55H473.956a6.3,6.3,0,0,1,6.281,6.248V360.866A6.3,6.3,0,0,1,473.956,367.169ZM260.8,55.221a6.038,6.038,0,0,0-6.027,6.027V360.866a6.038,6.038,0,0,0,6.027,6.027H473.956a6.038,6.038,0,0,0,6.027-6.027V61.248a6.038,6.038,0,0,0-6.027-6.027Z" transform="translate(26.43 -55)" fill="#ebebeb"/>
      <path id="Caminho_8461" data-name="Caminho 8461" d="M139.708,369.188H85.465a4.868,4.868,0,0,1-4.813-4.173l-13.577-92.8A4.868,4.868,0,0,1,71.9,266.64h54.232a4.857,4.857,0,0,1,4.813,4.161l13.577,92.812a4.868,4.868,0,0,1-4.813,5.574Z" transform="translate(6.96 -33.021)" fill="#f0f0f0"/>
      <path id="Caminho_8462" data-name="Caminho 8462" d="M93.721,369.188H68.145a4.857,4.857,0,0,1-4.813-4.173l-13.577-92.8a4.868,4.868,0,0,1,4.813-5.574H80.144a4.879,4.879,0,0,1,4.824,4.162l13.566,92.812a4.868,4.868,0,0,1-4.813,5.574Z" transform="translate(5.162 -33.021)" fill="#fafafa"/>
      <path id="Caminho_8463" data-name="Caminho 8463" d="M409.487,245.33H145.865c-6.7,0-12.584,5.023-13.158,11.215L126.084,328.2c-.574,6.193,4.415,11.215,11.038,11.215h263.6c6.7,0,12.584-5.022,13.158-11.215l6.623-71.651C421.143,250.353,416.187,245.33,409.487,245.33Z" transform="translate(13.089 -35.234)" fill="#e0e0e0"/>
      <path id="Caminho_8464" data-name="Caminho 8464" d="M393.275,245.33h-263.6c-6.7,0-12.584,5.023-13.158,11.215L109.894,328.2c-.574,6.193,4.415,11.215,11.039,11.215h263.6c6.7,0,12.595-5.022,13.158-11.215l6.623-71.651C404.931,250.353,399.975,245.33,393.275,245.33Z" transform="translate(11.408 -35.234)" fill="#e6e6e6"/>
      <rect id="Retângulo_6668" data-name="Retângulo 6668" width="41.394" height="115.165" rx="7.19" transform="translate(222.978 294.772) rotate(90)" fill="#ebebeb"/>
      <rect id="Retângulo_6669" data-name="Retângulo 6669" width="41.394" height="130.409" rx="6.58" transform="translate(381.778 294.772) rotate(90)" fill="#e0e0e0"/>
      <rect id="Retângulo_6670" data-name="Retângulo 6670" width="41.394" height="130.409" rx="6.58" transform="translate(353.376 294.761) rotate(90)" fill="#ebebeb"/>
      <path id="Caminho_8465" data-name="Caminho 8465" d="M386.373,369.188H346.028a4.239,4.239,0,0,1-4.117-5.574L367.3,270.8a5.729,5.729,0,0,1,5.354-4.161H413a4.239,4.239,0,0,1,4.106,5.574l-25.389,92.8a5.707,5.707,0,0,1-5.343,4.173Z" transform="translate(35.485 -33.021)" fill="#f0f0f0"/>
      <path id="Caminho_8466" data-name="Caminho 8466" d="M354.273,369.188H328.7a4.239,4.239,0,0,1-4.106-5.574L349.979,270.8a5.718,5.718,0,0,1,5.354-4.161H380.92a4.239,4.239,0,0,1,4.117,5.574l-25.389,92.8a5.729,5.729,0,0,1-5.376,4.172Z" transform="translate(33.686 -33.021)" fill="#fafafa"/>
      <path id="Caminho_8467" data-name="Caminho 8467" d="M333.321,384.774h-3.886L320.13,359.54h9.626Z" transform="translate(33.246 -23.373)" fill="#e0e0e0"/>
      <path id="Caminho_8468" data-name="Caminho 8468" d="M377.941,384.774h-3.886L364.75,359.54h9.615Z" transform="translate(37.879 -23.373)" fill="#e0e0e0"/>
      <path id="Caminho_8469" data-name="Caminho 8469" d="M123.07,384.774h3.886l9.294-25.234h-9.615Z" transform="translate(12.781 -23.373)" fill="#e0e0e0"/>
      <path id="Caminho_8470" data-name="Caminho 8470" d="M78.45,384.774h3.886L91.63,359.54h-9.6Z" transform="translate(8.147 -23.373)" fill="#e0e0e0"/>
      <rect id="Retângulo_6671" data-name="Retângulo 6671" width="294.353" height="104.987" transform="translate(128.786 47.101)" fill="#e0e0e0"/>
      <rect id="Retângulo_6672" data-name="Retângulo 6672" width="294.353" height="104.987" transform="translate(126.082 47.101)" fill="#f0f0f0"/>
      <rect id="Retângulo_6673" data-name="Retângulo 6673" width="87.326" height="276.691" transform="translate(411.615 55.932) rotate(90)" fill="#fafafa"/>
      <circle id="Elipse_639" data-name="Elipse 639" cx="26.183" cy="26.183" r="26.183" transform="translate(247.086 73.406)" fill="#f0f0f0"/>
      <path id="Caminho_8471" data-name="Caminho 8471" d="M162.91,193l18.346-87.326h40.467L203.388,193Z" transform="translate(16.918 -49.738)" fill="#fff"/>
      <path id="Caminho_8472" data-name="Caminho 8472" d="M215.05,193,233.4,105.67H253.63L235.295,193Z" transform="translate(22.333 -49.738)" fill="#fff"/>
      <path id="Caminho_8473" data-name="Caminho 8473" d="M326.99,193l18.346-87.326H365.57L347.235,193Z" transform="translate(33.958 -49.738)" fill="#fff"/>
      <path id="Caminho_8474" data-name="Caminho 8474" d="M443.272,251.76c-6.866,29.8,9.935,60.513,3.058,90.273l-6.8-.287-6.8-.276C444.133,311.887,431.924,281.332,443.272,251.76Z" transform="translate(44.939 -34.566)" fill="#f0f0f0"/>
      <path id="Caminho_8475" data-name="Caminho 8475" d="M427.073,263.45c5.63,28.457-12.429,56.915-6.8,85.372h13.61C423.718,320.353,437.24,291.907,427.073,263.45Z" transform="translate(43.531 -33.352)" fill="#f0f0f0"/>
      <path id="Caminho_8476" data-name="Caminho 8476" d="M439.232,242c-9.007,30.345,7.727,63.1-1.28,93.441l-7.4-.7-7.4-.684C437.1,304.191,425.29,271.9,439.232,242Z" transform="translate(43.945 -35.58)" fill="#e6e6e6"/>
      <path id="Caminho_8477" data-name="Caminho 8477" d="M450.739,281.61c2.9,16.4-13.246,29.307-10.387,45.721l5.519,1,5.519,1C444.767,312.264,457.3,298.687,450.739,281.61Z" transform="translate(45.695 -31.467)" fill="#e6e6e6"/>
      <ellipse id="Elipse_640" data-name="Elipse 640" cx="37.145" cy="41.593" rx="37.145" ry="41.593" transform="translate(443.052 286.493)" fill="#e0e0e0"/>
    </g>
    <g id="freepik--Shadow--inject-4" transform="translate(61.937 441.259)">
      <ellipse id="freepik--path--inject-4" cx="214.026" cy="12.496" rx="214.026" ry="12.496" fill="#f5f5f5"/>
    </g>
    <g id="freepik--Board--inject-4" transform="translate(179.424 134.929)">
      <path id="Caminho_8478" data-name="Caminho 8478" d="M406.658,289.228H168.116a4.415,4.415,0,0,1-4.415-4.669l8.058-146.249a5.011,5.011,0,0,1,4.934-4.669H415.235a4.415,4.415,0,0,1,4.415,4.669l-8.036,146.249A4.989,4.989,0,0,1,406.658,289.228Z" transform="translate(-162.424 -126.762)" fill="#263238"/>
      <path id="Caminho_8479" data-name="Caminho 8479" d="M296.308,159.157H273.249A13.114,13.114,0,0,1,260,145.193l.232-4.261a14.5,14.5,0,0,1,14.284-13.522h23.048a13.125,13.125,0,0,1,13.246,13.964l-.232,4.261a14.527,14.527,0,0,1-14.273,13.522Z" transform="translate(-152.425 -127.409)" fill="#263238"/>
      <path id="Caminho_8480" data-name="Caminho 8480" d="M314.519,441.315h-7.385L286.79,130.36h7.4Z" transform="translate(-149.64 -127.103)" fill="#263238"/>
      <path id="Caminho_8481" data-name="Caminho 8481" d="M261.67,441.315h7.4L289.4,130.36h-7.385Z" transform="translate(-152.249 -127.103)" fill="#263238"/>
      <path id="Caminho_8482" data-name="Caminho 8482" d="M405.508,289.228H166.966a4.415,4.415,0,0,1-4.415-4.669l8.025-146.249a5.011,5.011,0,0,1,4.934-4.669H414.052a4.415,4.415,0,0,1,4.415,4.669l-8.036,146.249A4.989,4.989,0,0,1,405.508,289.228Z" transform="translate(-162.543 -126.762)" fill="#407bff"/>
      <path id="Caminho_8483" data-name="Caminho 8483" d="M170.333,284.324a3.5,3.5,0,0,1-3.532-3.731l7.65-139.162a3.985,3.985,0,0,1,3.93-3.731H409.869a3.5,3.5,0,0,1,3.532,3.731l-7.65,139.162a3.985,3.985,0,0,1-3.941,3.731Z" transform="translate(-162.102 -126.341)" fill="#263238" opacity="0.4"/>
      <path id="Caminho_8484" data-name="Caminho 8484" d="M402.334,210.011H332.626a2.969,2.969,0,0,1-3-3.168l3.477-63.35a.43.43,0,0,0-.419-.453.486.486,0,0,0-.475.453l-3.477,63.35a3.4,3.4,0,0,1-3.312,3.168H252.983a2.969,2.969,0,0,1-3-3.168l3.477-63.35a.43.43,0,0,0-.419-.453.486.486,0,0,0-.475.453l-3.477,63.35a3.4,3.4,0,0,1-3.312,3.168h-69.73a.475.475,0,0,0-.475.453.419.419,0,0,0,.419.442h69.675a2.98,2.98,0,0,1,3,3.179l-3.477,63.339a.408.408,0,0,0,.419.453.486.486,0,0,0,.475-.453l3.477-63.339a3.389,3.389,0,0,1,3.312-3.179h72.4a2.98,2.98,0,0,1,3.1,3.179L324.9,277.423a.408.408,0,0,0,.419.453.486.486,0,0,0,.475-.453l3.477-63.339a3.389,3.389,0,0,1,3.312-3.179h69.675a.486.486,0,0,0,.475-.442.419.419,0,0,0-.4-.453Z" transform="translate(-161.191 -125.786)" fill="#fff" opacity="0.1"/>
      <path id="Caminho_8485" data-name="Caminho 8485" d="M280.83,153.44H252.847l-1.567,28.468,27.949.751Z" transform="translate(-153.328 -124.706)" fill="#263238" opacity="0.4"/>
      <path id="Caminho_8486" data-name="Caminho 8486" d="M277.953,181.661l-28.093-1.369a246.72,246.72,0,0,0,2.925-29.042l28.248,1.369A246.886,246.886,0,0,1,277.953,181.661Z" transform="translate(-153.476 -124.933)" fill="#fff"/>
      <path id="Caminho_8487" data-name="Caminho 8487" d="M311.257,170.67l-28.027,2.141.618,28.369,28.038-1.391Z" transform="translate(-150.01 -122.917)" fill="#263238" opacity="0.4"/>
      <path id="Caminho_8488" data-name="Caminho 8488" d="M310.467,198.785l-28.236.784a243.7,243.7,0,0,0,.706-29.053l28.391-.806a244.134,244.134,0,0,1-.861,29.075Z" transform="translate(-150.114 -123.016)" fill="#407bff"/>
      <path id="Caminho_8489" data-name="Caminho 8489" d="M239.777,217.745l-51.66-1.965-4.647,45.953,51.55,3.179Z" transform="translate(-160.37 -118.232)" fill="#263238" opacity="0.4"/>
      <path id="Caminho_8490" data-name="Caminho 8490" d="M232.7,263.209,181,259a353.046,353.046,0,0,0,7.175-46.8l52.013,4.195A350.413,350.413,0,0,1,232.7,263.209Z" transform="translate(-160.627 -118.604)" fill="#fff"/>
      <g id="Grupo_3403" data-name="Grupo 3403" transform="translate(21.383 29.341)" opacity="0.3">
        <path id="Caminho_8491" data-name="Caminho 8491" d="M186.57,159.817h0a2.749,2.749,0,0,1-2.76-2.914h0a3.135,3.135,0,0,1,3.08-2.9h0a2.738,2.738,0,0,1,2.749,2.914h0a3.124,3.124,0,0,1-3.069,2.9Z" transform="translate(-181.718 -153.989)" fill="#263238"/>
        <path id="Caminho_8492" data-name="Caminho 8492" d="M231.291,159.818H195.449A2.738,2.738,0,0,1,192.7,156.9h0a3.113,3.113,0,0,1,3.069-2.914h35.9a2.749,2.749,0,0,1,2.76,2.914h0a3.135,3.135,0,0,1-3.135,2.914Z" transform="translate(-180.795 -153.99)" fill="#263238" opacity="0.8"/>
        <path id="Caminho_8493" data-name="Caminho 8493" d="M185.94,171.328h0a2.738,2.738,0,0,1-2.76-2.914h0a3.124,3.124,0,0,1,3.113-2.914h0a2.738,2.738,0,0,1,2.749,2.914h0a3.124,3.124,0,0,1-3.1,2.914Z" transform="translate(-181.784 -152.795)" fill="#263238"/>
        <path id="Caminho_8494" data-name="Caminho 8494" d="M237.009,171.328H194.82a2.749,2.749,0,0,1-2.76-2.914h0a3.135,3.135,0,0,1,3.08-2.914h42.189a2.749,2.749,0,0,1,2.76,2.914h0A3.135,3.135,0,0,1,237.009,171.328Z" transform="translate(-180.862 -152.795)" fill="#263238" opacity="0.8"/>
        <path id="Caminho_8495" data-name="Caminho 8495" d="M185.259,182.827h0a2.727,2.727,0,0,1-2.749-2.9h0a3.113,3.113,0,0,1,3.069-2.914h0a2.738,2.738,0,0,1,2.76,2.914h0a3.124,3.124,0,0,1-3.08,2.9Z" transform="translate(-181.854 -151.599)" fill="#263238"/>
        <path id="Caminho_8496" data-name="Caminho 8496" d="M214.722,182.827H194.179a2.726,2.726,0,0,1-2.749-2.9h0a3.113,3.113,0,0,1,3.069-2.914h20.543a2.726,2.726,0,0,1,2.749,2.914h0a3.113,3.113,0,0,1-3.069,2.9Z" transform="translate(-180.927 -151.599)" fill="#263238" opacity="0.8"/>
        <path id="Caminho_8497" data-name="Caminho 8497" d="M231.952,194.338H211.409a2.738,2.738,0,0,1-2.749-2.914h0a3.124,3.124,0,0,1,3.069-2.914h20.543a2.738,2.738,0,0,1,2.749,2.914h0A3.124,3.124,0,0,1,231.952,194.338Z" transform="translate(-179.138 -150.405)" fill="#263238" opacity="0.8"/>
        <path id="Caminho_8498" data-name="Caminho 8498" d="M184.669,194.338h0a2.738,2.738,0,0,1-2.749-2.914h0a3.124,3.124,0,0,1,3.069-2.914h0a2.738,2.738,0,0,1,2.749,2.914h0a3.124,3.124,0,0,1-3.069,2.914Z" transform="translate(-181.915 -150.405)" fill="#263238"/>
        <path id="Caminho_8499" data-name="Caminho 8499" d="M203.031,194.338h-9.482a2.738,2.738,0,0,1-2.749-2.914h0a3.124,3.124,0,0,1,3.069-2.914h9.482a2.738,2.738,0,0,1,2.76,2.914h0a3.124,3.124,0,0,1-3.08,2.914Z" transform="translate(-180.993 -150.405)" fill="#263238" opacity="0.8"/>
      </g>
      <path id="Caminho_8500" data-name="Caminho 8500" d="M266.627,228.03h-13.9l-1.91,34.782h13.9Z" transform="translate(-153.376 -116.96)" fill="#407bff"/>
      <path id="Caminho_8501" data-name="Caminho 8501" d="M285.7,234.53H271.792l-1.512,27.607h13.9Z" transform="translate(-151.355 -116.285)" fill="#407bff"/>
      <path id="Caminho_8502" data-name="Caminho 8502" d="M306.165,217.75h-13.9l-2.528,46.13h13.9Z" transform="translate(-149.334 -118.027)" fill="#407bff"/>
      <path id="Caminho_8503" data-name="Caminho 8503" d="M256.594,248.405c-1.38,0-2.771,0-4.173-.11a23.633,23.633,0,0,1-8.411-1.7.905.905,0,0,1-.453-1.192.894.894,0,0,1,1.192-.442,22.076,22.076,0,0,0,7.727,1.545c16.679.861,31.283-3.488,45.986-13.666a51.462,51.462,0,0,0,11.955-11.59.894.894,0,1,1,1.468,1.016,51.88,51.88,0,0,1-12.374,12C285.713,243.879,271.97,248.405,256.594,248.405Z" transform="translate(-154.138 -117.708)" fill="#fff"/>
      <path id="Caminho_8504" data-name="Caminho 8504" d="M308.528,228.674a.894.894,0,0,1-.828-1.236,15.8,15.8,0,0,0,.773-9.659,60.169,60.169,0,0,1-11.1,5.895.894.894,0,1,1-.673-1.656,58.6,58.6,0,0,0,11.778-6.413.905.905,0,0,1,1.358.453,17.43,17.43,0,0,1-.475,12.065A.894.894,0,0,1,308.528,228.674Z" transform="translate(-148.672 -118.266)" fill="#fff"/>
      <path id="Caminho_8505" data-name="Caminho 8505" d="M378.829,201.1h-51.7A3.1,3.1,0,0,1,324,197.788l2.406-43.712a3.477,3.477,0,0,1,3.422-3.245h51.715a3.1,3.1,0,0,1,3.113,3.312l-2.406,43.712A3.477,3.477,0,0,1,378.829,201.1Zm-49-49.364a2.561,2.561,0,0,0-2.528,2.406l-2.406,43.712a2.208,2.208,0,0,0,2.208,2.351h51.7a2.561,2.561,0,0,0,2.528-2.406l2.406-43.712a2.194,2.194,0,0,0-2.219-2.351Z" transform="translate(-145.777 -124.977)" fill="#407bff"/>
      <path id="Caminho_8506" data-name="Caminho 8506" d="M383.536,162.285h-57.4a.453.453,0,0,1,0-.894h57.4a.453.453,0,1,1,0,.894Z" transform="translate(-145.594 -123.881)" fill="#407bff"/>
      <path id="Caminho_8507" data-name="Caminho 8507" d="M336.58,200h0a.452.452,0,0,1-.419-.475l2.031-37.719a.442.442,0,0,1,.475-.419.453.453,0,0,1,.419.475l-2.064,37.73a.453.453,0,0,1-.442.408Z" transform="translate(-144.513 -123.88)" fill="#407bff"/>
      <path id="Caminho_8508" data-name="Caminho 8508" d="M375.116,166.345h-31.14a.453.453,0,0,1,0-.894h31.14a.453.453,0,1,1,0,.894Z" transform="translate(-143.741 -123.459)" fill="#407bff"/>
      <path id="Caminho_8509" data-name="Caminho 8509" d="M370.466,171.325H343.719a.453.453,0,1,1,0-.894h26.746a.453.453,0,1,1,0,.894Z" transform="translate(-143.783 -122.942)" fill="#407bff"/>
      <path id="Caminho_8510" data-name="Caminho 8510" d="M359,176.465H343.439a.453.453,0,1,1,0-.894H359a.453.453,0,1,1,0,.894Z" transform="translate(-143.812 -122.408)" fill="#407bff"/>
      <path id="Caminho_8511" data-name="Caminho 8511" d="M361.886,186.5h-19a.453.453,0,1,1,0-.894h19a.453.453,0,1,1,0,.894Z" transform="translate(-143.869 -121.366)" fill="#407bff"/>
      <path id="Caminho_8512" data-name="Caminho 8512" d="M358.161,191.644H342.586a.453.453,0,0,1,0-.894h15.575a.453.453,0,0,1,0,.894Z" transform="translate(-143.886 -120.831)" fill="#407bff"/>
      <path id="Caminho_8513" data-name="Caminho 8513" d="M365.428,191.645h-4.978a.453.453,0,1,1,0-.894h4.978a.453.453,0,1,1,0,.894Z" transform="translate(-142.045 -120.832)" fill="#407bff"/>
      <path id="Caminho_8514" data-name="Caminho 8514" d="M372.316,181.455H343.153a.453.453,0,1,1,0-.905h29.164a.453.453,0,1,1,0,.905Z" transform="translate(-143.834 -121.891)" fill="#407bff"/>
      <path id="Caminho_8515" data-name="Caminho 8515" d="M346.8,258.042c-6.756,0-12.286-2-15.719-5.707-3.676-3.963-5.2-10.2-4.184-17.11a20.653,20.653,0,0,1,13.191-17.353,31.592,31.592,0,0,1,26.746.353c3.632,1.821,5.906,4.128,6.767,6.855a.9.9,0,0,1-1.711.541c-.706-2.208-2.682-4.195-5.861-5.8a29.8,29.8,0,0,0-25.212-.32,18.9,18.9,0,0,0-12.142,15.984c-.938,6.369.419,12.065,3.72,15.619,4.581,4.956,12.142,5.31,16.293,5.089,7.661-.43,14.24-3.1,18.545-7.528,5.034-5.188,6.446-12.937,3.312-18.037a5.652,5.652,0,0,0-3.875-2.87.894.894,0,0,1,.177-1.777,7.175,7.175,0,0,1,5.221,3.7c3.576,5.784,2.064,14.471-3.521,20.234-4.625,4.758-11.624,7.617-19.737,8.069C348.115,258.042,347.453,258.042,346.8,258.042Z" transform="translate(-145.507 -118.305)" fill="#fff"/>
    </g>
    <g id="freepik--Character--inject-4" transform="translate(105.298 119.112)">
      <path id="Caminho_8516" data-name="Caminho 8516" d="M139.733,169.948l-3.19,5.519-3.113,5.663c-2.053,3.786-4.018,7.606-5.806,11.436-.894,1.932-1.744,3.841-2.517,5.762l-.143.353v.077a.883.883,0,0,0-.1.155,2.919,2.919,0,0,0-.155.32,2.307,2.307,0,0,0,.132,1.236,12.286,12.286,0,0,0,2.66,4.029,47.465,47.465,0,0,0,4.316,4.084l-2.594,5.519a27.042,27.042,0,0,1-3.565-1.258,29.362,29.362,0,0,1-3.312-1.722,19.251,19.251,0,0,1-6.226-5.773,12.871,12.871,0,0,1-1.943-5.034,11.392,11.392,0,0,1,0-3,9.064,9.064,0,0,1,.254-1.468l.177-.717.132-.442c.718-2.208,1.446-4.493,2.307-6.623,1.678-4.327,3.576-8.522,5.63-12.595,1.038-2.031,2.1-4.051,3.223-6.038s2.208-3.93,3.532-5.939Z" transform="translate(-93.45 -107.845)" fill="#ffc3bd"/>
      <path id="Caminho_8517" data-name="Caminho 8517" d="M127.711,203.942l5.8-1.512.331,9.361s-4.537.673-7.307-2.1Z" transform="translate(-92.157 -103.801)" fill="#ffc3bd"/>
      <path id="Caminho_8518" data-name="Caminho 8518" d="M141.074,201l-1.314,8.224-6.579,2.715-.331-9.361Z" transform="translate(-91.501 -103.95)" fill="#ffc3bd"/>
      <path id="Caminho_8519" data-name="Caminho 8519" d="M162,129.485c.132.64.574,1.1.993,1s.662-.673.53-1.314-.574-1.1-.993-1S161.914,128.845,162,129.485Z" transform="translate(-88.476 -111.514)" fill="#263238"/>
      <path id="Caminho_8520" data-name="Caminho 8520" d="M162.5,130.36a23.413,23.413,0,0,0,4.173,4.857,3.731,3.731,0,0,1-2.936,1.192Z" transform="translate(-88.422 -111.285)" fill="#ed847e"/>
      <path id="Caminho_8521" data-name="Caminho 8521" d="M159.285,126.753a.379.379,0,0,1-.254-.651,3.819,3.819,0,0,1,3.312-1.269.375.375,0,0,1,.309.442.386.386,0,0,1-.442.32h0a3.047,3.047,0,0,0-2.572,1.027.375.375,0,0,1-.353.132Z" transform="translate(-88.794 -111.862)" fill="#263238"/>
      <path id="Caminho_8522" data-name="Caminho 8522" d="M145.661,137.52c1.17,5.939,2.329,16.812-1.821,20.763,0,0,1.623,6.016,12.639,6.016,12.142,0,5.8-6.016,5.8-6.016-6.623-1.578-6.446-6.48-5.287-11.094Z" transform="translate(-90.36 -110.542)" fill="#ffc3bd"/>
      <path id="Caminho_8523" data-name="Caminho 8523" d="M141.767,157.827c-.883-1.645-1.866-3.532.155-4.128,2.208-.651,16.492-1.854,20.686-.629-1.292,2.285.883,5.1.883,5.1Z" transform="translate(-90.682 -108.982)" fill="#263238"/>
      <path id="Caminho_8524" data-name="Caminho 8524" d="M109.34,408.041a2.627,2.627,0,0,0,2.02-.11.784.784,0,0,0,.188-.894.894.894,0,0,0-.5-.563c-1.1-.519-3.61.508-3.72.552a.177.177,0,0,0-.121.166.2.2,0,0,0,.11.177,10.125,10.125,0,0,0,2.02.673Zm1.314-1.292a1.161,1.161,0,0,1,.232.066.53.53,0,0,1,.287.331c.11.353,0,.453-.066.5-.43.364-2.053,0-3.19-.431A6.258,6.258,0,0,1,110.654,406.75Z" transform="translate(-94.164 -82.626)" fill="#407bff"/>
      <path id="Caminho_8525" data-name="Caminho 8525" d="M107.366,407.6h.088c.916-.265,2.881-1.656,2.9-2.572a.629.629,0,0,0-.486-.629,1.038,1.038,0,0,0-.85.066c-1.1.563-1.777,2.8-1.8,2.9a.2.2,0,0,0,0,.188Zm2.3-2.87h.077c.243.088.243.2.243.254,0,.541-1.314,1.634-2.208,2.075a4.713,4.713,0,0,1,1.479-2.285.684.684,0,0,1,.408-.044Z" transform="translate(-94.165 -82.833)" fill="#407bff"/>
      <path id="Caminho_8526" data-name="Caminho 8526" d="M163.627,409.294c1.038,0,2.042-.144,2.384-.607a.74.74,0,0,0,0-.839.96.96,0,0,0-.607-.453c-1.347-.364-4.184,1.247-4.3,1.325a.177.177,0,0,0-.088.2.188.188,0,0,0,.144.155,14.817,14.817,0,0,0,2.473.221Zm1.28-1.567a1.346,1.346,0,0,1,.375,0,.563.563,0,0,1,.375.265c.132.243.088.364,0,.431-.375.519-2.428.53-3.93.32a8.632,8.632,0,0,1,3.179-1.016Z" transform="translate(-88.577 -82.521)" fill="#407bff"/>
      <path id="Caminho_8527" data-name="Caminho 8527" d="M161.182,409.255h.077c.982-.442,2.914-2.208,2.771-3.113,0-.221-.188-.486-.717-.541a1.468,1.468,0,0,0-1.1.331c-1.027.85-1.247,3.036-1.258,3.124a.232.232,0,0,0,.088.177.188.188,0,0,0,.143.022Zm1.976-3.312h.11c.353,0,.375.166.375.21.088.552-1.225,1.932-2.208,2.528a4.416,4.416,0,0,1,1.1-2.495,1.016,1.016,0,0,1,.673-.221Z" transform="translate(-88.583 -82.703)" fill="#407bff"/>
      <path id="Caminho_8528" data-name="Caminho 8528" d="M153.08,410.508h8.113L162,391.72h-8.113Z" transform="translate(-89.4 -84.143)" fill="#ffc3bd"/>
      <path id="Caminho_8529" data-name="Caminho 8529" d="M99.16,406.986l7.926,1.711,7.959-17.485-7.926-1.722Z" transform="translate(-95 -84.375)" fill="#ffc3bd"/>
      <path id="Caminho_8530" data-name="Caminho 8530" d="M108.206,406.353l-8.831-1.932a.706.706,0,0,0-.784.4L95.5,411.53a1.181,1.181,0,0,0,.85,1.656c3.124.618,4.669.762,8.588,1.612,2.406.519,7.848,1.843,11.171,2.572s4.415-2.484,3.179-3.069c-5.817-2.66-8.246-5-9.824-7.186A1.987,1.987,0,0,0,108.206,406.353Z" transform="translate(-95.391 -82.826)" fill="#263238"/>
      <path id="Caminho_8531" data-name="Caminho 8531" d="M161.429,407.89H152.6a.7.7,0,0,0-.684.552l-1.6,7.208a1.17,1.17,0,0,0,1.159,1.435c3.2,0,7.815-.232,11.833-.232,4.691,0,8.742.254,14.251.254,3.312,0,4.261-3.367,2.859-3.676-6.336-1.38-11.524-1.534-17-4.912A3.8,3.8,0,0,0,161.429,407.89Z" transform="translate(-89.691 -82.464)" fill="#263238"/>
      <path id="Caminho_8532" data-name="Caminho 8532" d="M131.984,158.021c-7.594,1.744-13.864,21.15-13.864,21.15l15.321,11.624a33.38,33.38,0,0,0,8.091-14.99C144.094,165.637,139.755,156.232,131.984,158.021Z" transform="translate(-93.031 -108.436)" fill="#407bff"/>
      <path id="Caminho_8533" data-name="Caminho 8533" d="M131.984,158.021c-7.594,1.744-13.864,21.15-13.864,21.15l15.321,11.624a33.38,33.38,0,0,0,8.091-14.99C144.094,165.637,139.755,156.232,131.984,158.021Z" transform="translate(-93.031 -108.436)" fill="#fafafa" opacity="0.2"/>
      <path id="Caminho_8534" data-name="Caminho 8534" d="M137.125,170.92c-4.128,4.084-5.519,11.524-5.8,17.993l.673.519a33.336,33.336,0,0,0,8.1-14.99c.155-.607.287-1.214.4-1.81Z" transform="translate(-91.659 -107.073)" opacity="0.2"/>
      <path id="Caminho_8535" data-name="Caminho 8535" d="M176.112,158.607s8.632,9.747.475,70.094H133.239c-.3-6.623,3.886-39.143-2.539-70.514a113.545,113.545,0,0,1,14.527-1.832,160.354,160.354,0,0,1,18.434,0,81.13,81.13,0,0,1,12.451,2.252Z" transform="translate(-91.724 -108.613)" fill="#407bff"/>
      <path id="Caminho_8536" data-name="Caminho 8536" d="M176.112,158.607s8.632,9.747.475,70.094H133.239c-.3-6.623,3.886-39.143-2.539-70.514a113.545,113.545,0,0,1,14.527-1.832,160.354,160.354,0,0,1,18.434,0,81.13,81.13,0,0,1,12.451,2.252Z" transform="translate(-91.724 -108.613)" fill="#fafafa" opacity="0.2"/>
      <path id="Caminho_8537" data-name="Caminho 8537" d="M176.216,175.094l-.166-.144-9.857,2.362c-.563,6.623,6.292,14.637,9.824,18.28a189.257,189.257,0,0,0,.2-20.5Z" transform="translate(-88.042 -106.655)" opacity="0.2"/>
      <path id="Caminho_8538" data-name="Caminho 8538" d="M161.963,391.73l-.419,9.681H153.43l.419-9.681Z" transform="translate(-89.364 -84.142)" opacity="0.2"/>
      <path id="Caminho_8539" data-name="Caminho 8539" d="M106.746,389.49l7.937,1.722-4.106,9.018-7.937-1.722Z" transform="translate(-94.638 -84.375)" opacity="0.2"/>
      <path id="Caminho_8540" data-name="Caminho 8540" d="M142.459,133.372c2.075,7.782,2.9,12.429,7.727,15.664,7.208,4.868,16.193-.717,16.48-8.952.254-7.418-3.2-18.887-11.546-20.454a10.972,10.972,0,0,0-12.661,13.743Z" transform="translate(-90.546 -112.421)" fill="#ffc3bd"/>
      <path id="Caminho_8541" data-name="Caminho 8541" d="M146.852,146.663c3.312,1.888,15.355-4.415,12.882-14.019,0,0,4.592-5.519,4.073-11.613s-4.7-8.411-9.151-7.1c-3.919,1.1-3.808,3.312-3.808,3.312s-18.534,2.208-14.571,9.725C128.726,135.172,142.723,144.3,146.852,146.663Z" transform="translate(-91.373 -113.028)" fill="#263238"/>
      <path id="Caminho_8542" data-name="Caminho 8542" d="M137.051,126.469s-2.208-3.819-5.431-1.678C133.143,124.813,135.616,125.089,137.051,126.469Z" transform="translate(-91.629 -111.931)" fill="#263238"/>
      <path id="Caminho_8543" data-name="Caminho 8543" d="M160.678,125.134s4.04-9.118-2.208-12.054A15.586,15.586,0,0,1,160.678,125.134Z" transform="translate(-88.84 -113.08)" fill="#263238"/>
      <path id="Caminho_8544" data-name="Caminho 8544" d="M154.413,132.722a9.063,9.063,0,0,0,3.312,4.835c2.108,1.567,3.687,0,3.543-2.362-.143-2.152-1.4-5.519-3.731-6.193S153.806,130.382,154.413,132.722Z" transform="translate(-89.276 -111.44)" fill="#ffc3bd"/>
      <path id="Caminho_8545" data-name="Caminho 8545" d="M164.359,221.874s-9.206,61.959-14.262,85.14C144.578,332.4,114.9,416.56,114.9,416.56l-14.516-3.146s20.752-68.549,25.389-104.093c3.565-27.3,10.6-87.491,10.6-87.491Z" transform="translate(-94.873 -101.786)" fill="#263238"/>
      <path id="Caminho_8546" data-name="Caminho 8546" d="M118.47,394.19c.066,0-2.7,5.254-2.7,5.254L99.44,395.9l1.369-4.9Z" transform="translate(-94.971 -84.218)" fill="#407bff"/>
      <path id="Caminho_8547" data-name="Caminho 8547" d="M153.92,241.878c-10.641,2.086-9.515,41.77-8.235,62.18,3.069-14.427,7.561-42.189,10.63-61.893A3.632,3.632,0,0,0,153.92,241.878Z" transform="translate(-90.251 -99.713)" opacity="0.3"/>
      <path id="Caminho_8548" data-name="Caminho 8548" d="M174.95,221.87s1.1,60.635.243,85.361c-.916,25.72-9.935,109.943-9.935,109.943h-13.71s-.5-82.723-1.1-107.979c-.662-27.6-3.985-87.326-3.985-87.326Z" transform="translate(-90.088 -101.782)" fill="#263238"/>
      <path id="Caminho_8549" data-name="Caminho 8549" d="M244.14,183.15H216.157l-1.567,28.457,27.949.751Z" transform="translate(-83.012 -105.803)" fill="#263238" opacity="0.4"/>
      <path id="Caminho_8550" data-name="Caminho 8550" d="M230.637,202.759l-28.027-3.466a241.743,241.743,0,0,0,5.045-28.623l28.192,3.466a241.986,241.986,0,0,1-5.21,28.623Z" transform="translate(-84.256 -107.099)" fill="#407bff"/>
      <path id="Caminho_8551" data-name="Caminho 8551" d="M167.6,393.84c.066,0-.773,5.707-.773,5.707H150.113l-.453-5.089Z" transform="translate(-89.755 -83.923)" fill="#407bff"/>
      <path id="Caminho_8552" data-name="Caminho 8552" d="M176.454,165.07c1.247,1.943,2.671,4.128,4.1,6.137s2.892,4.062,4.415,6.016a82.389,82.389,0,0,0,9.67,10.785,33.926,33.926,0,0,0,2.605,2.208l.662.5a2.557,2.557,0,0,0-.386-.132h-.353a3.6,3.6,0,0,0,1.821-.419,20.6,20.6,0,0,0,2.793-1.446,96.941,96.941,0,0,0,11.7-9.007l4.736,3.819a55.931,55.931,0,0,1-10.619,12.948,25.1,25.1,0,0,1-3.786,2.793,14.869,14.869,0,0,1-5.574,2.075,9.847,9.847,0,0,1-4.217-.364,9.572,9.572,0,0,1-2.152-.982l-.949-.607c-1.269-.817-2.473-1.689-3.61-2.583a79.885,79.885,0,0,1-11.944-11.944c-1.733-2.141-3.411-4.305-4.967-6.557s-3.047-4.415-4.5-6.976Z" transform="translate(-88.07 -107.681)" fill="#ffc3bd"/>
      <path id="Caminho_8553" data-name="Caminho 8553" d="M161.022,170.663c-2.594,10.873,17.077,21.525,17.077,21.525l12.783-14.968a105.826,105.826,0,0,0-13.059-15.763C168.926,152.88,163.031,162.407,161.022,170.663Z" transform="translate(-88.6 -108.406)" fill="#407bff"/>
      <path id="Caminho_8554" data-name="Caminho 8554" d="M161.022,170.663c-2.594,10.873,17.077,21.525,17.077,21.525l12.783-14.968a105.826,105.826,0,0,0-13.059-15.763C168.926,152.88,163.031,162.407,161.022,170.663Z" transform="translate(-88.6 -108.406)" fill="#fafafa" opacity="0.2"/>
      <path id="Caminho_8555" data-name="Caminho 8555" d="M207.78,181.292,210.8,171.6l7.937,3.963s-1.159,7.065-6.943,8.29Z" transform="translate(-83.72 -107.003)" fill="#ffc3bd"/>
      <path id="Caminho_8556" data-name="Caminho 8556" d="M213.7,169.17l7.153,1.976-2.4,4.669-7.948-3.963Z" transform="translate(-83.436 -107.255)" fill="#ffc3bd"/>
    </g>
  </g>
</svg>
