<svg xmlns="http://www.w3.org/2000/svg" width="554.168" height="412.922" viewBox="0 0 554.168 412.922">
  <g id="Organizing_projects-rafiki" data-name="Organizing projects-rafiki" transform="translate(0 -55)">
    <g id="freepik--background-complete--inject-4" transform="translate(0 55)">
      <rect id="Retângulo_6661" data-name="Retângulo 6661" width="554.168" height="0.277" transform="translate(0 362.869)" fill="#ebebeb"/>
      <rect id="Retângulo_6662" data-name="Retângulo 6662" width="86.35" height="0.277" transform="translate(58.143 373.421)" fill="#ebebeb"/>
      <rect id="Retângulo_6663" data-name="Retângulo 6663" width="42.006" height="0.277" transform="translate(456.634 381.855)" fill="#ebebeb"/>
      <rect id="Retângulo_6664" data-name="Retângulo 6664" width="21.269" height="0.277" transform="translate(145.602 383.717)" fill="#ebebeb"/>
      <rect id="Retângulo_6665" data-name="Retângulo 6665" width="47.869" height="0.277" transform="translate(224.072 370.417)" fill="#ebebeb"/>
      <rect id="Retângulo_6666" data-name="Retângulo 6666" width="7.016" height="0.277" transform="translate(281.805 370.417)" fill="#ebebeb"/>
      <rect id="Retângulo_6667" data-name="Retângulo 6667" width="47.902" height="0.277" transform="translate(363.168 377.178)" fill="#ebebeb"/>
      <path id="Caminho_8459" data-name="Caminho 8459" d="M258.536,368.437H44.528a6.329,6.329,0,0,1-6.318-6.329V61.273A6.329,6.329,0,0,1,44.528,55H258.536a6.329,6.329,0,0,1,6.329,6.329v300.78A6.329,6.329,0,0,1,258.536,368.437ZM44.528,55.222a6.052,6.052,0,0,0-6.04,6.052V362.109a6.052,6.052,0,0,0,6.04,6.052H258.536a6.063,6.063,0,0,0,6.052-6.052V61.273a6.063,6.063,0,0,0-6.052-6.052Z" transform="translate(4.14 -55)" fill="#ebebeb"/>
      <path id="Caminho_8460" data-name="Caminho 8460" d="M474.848,368.437H260.829a6.34,6.34,0,0,1-6.329-6.329V61.273A6.34,6.34,0,0,1,260.829,55h214.02a6.329,6.329,0,0,1,6.306,6.273V362.109A6.329,6.329,0,0,1,474.848,368.437ZM260.829,55.222a6.063,6.063,0,0,0-6.052,6.052V362.109a6.063,6.063,0,0,0,6.052,6.051h214.02a6.063,6.063,0,0,0,6.052-6.052V61.273a6.063,6.063,0,0,0-6.052-6.052Z" transform="translate(27.571 -55)" fill="#ebebeb"/>
      <path id="Caminho_8461" data-name="Caminho 8461" d="M140,369.6H85.54a4.888,4.888,0,0,1-4.832-4.19L67.075,272.237a4.888,4.888,0,0,1,4.843-5.6h54.453a4.877,4.877,0,0,1,4.832,4.178l13.633,93.189A4.888,4.888,0,0,1,140,369.6Z" transform="translate(7.261 -32.072)" fill="#f0f0f0"/>
      <path id="Caminho_8462" data-name="Caminho 8462" d="M93.9,369.6H68.22a4.877,4.877,0,0,1-4.832-4.19L49.755,272.237a4.888,4.888,0,0,1,4.832-5.6h25.68a4.9,4.9,0,0,1,4.843,4.178l13.621,93.189a4.888,4.888,0,0,1-4.832,5.6Z" transform="translate(5.385 -32.072)" fill="#fafafa"/>
      <path id="Caminho_8463" data-name="Caminho 8463" d="M410.639,245.33H145.946c-6.728,0-12.635,5.043-13.211,11.261l-6.65,71.942c-.576,6.218,4.433,11.261,11.083,11.261H401.838c6.728,0,12.635-5.043,13.211-11.261l6.65-71.942C422.343,250.373,417.366,245.33,410.639,245.33Z" transform="translate(13.655 -34.38)" fill="#e0e0e0"/>
      <path id="Caminho_8464" data-name="Caminho 8464" d="M394.426,245.33H129.756c-6.728,0-12.635,5.043-13.211,11.261l-6.65,71.942c-.576,6.218,4.433,11.261,11.083,11.261H385.648c6.728,0,12.646-5.043,13.211-11.261l6.65-71.942C406.13,250.373,401.154,245.33,394.426,245.33Z" transform="translate(11.901 -34.38)" fill="#e6e6e6"/>
      <rect id="Retângulo_6668" data-name="Retângulo 6668" width="41.563" height="115.633" rx="7.19" transform="translate(223.884 295.97) rotate(90)" fill="#ebebeb"/>
      <rect id="Retângulo_6669" data-name="Retângulo 6669" width="41.563" height="130.939" rx="6.58" transform="translate(383.329 295.97) rotate(90)" fill="#e0e0e0"/>
      <rect id="Retângulo_6670" data-name="Retângulo 6670" width="41.563" height="130.939" rx="6.58" transform="translate(354.812 295.959) rotate(90)" fill="#ebebeb"/>
      <path id="Caminho_8465" data-name="Caminho 8465" d="M386.555,369.6h-40.51a4.256,4.256,0,0,1-4.134-5.6L367.4,270.819a5.752,5.752,0,0,1,5.375-4.178h40.51a4.256,4.256,0,0,1,4.123,5.6l-25.492,93.178A5.73,5.73,0,0,1,386.555,369.6Z" transform="translate(37.018 -32.072)" fill="#f0f0f0"/>
      <path id="Caminho_8466" data-name="Caminho 8466" d="M354.394,369.6h-25.68a4.256,4.256,0,0,1-4.123-5.6l25.492-93.189a5.741,5.741,0,0,1,5.375-4.178H381.15a4.256,4.256,0,0,1,4.134,5.6l-25.492,93.178a5.752,5.752,0,0,1-5.4,4.189Z" transform="translate(35.141 -32.072)" fill="#fafafa"/>
      <path id="Caminho_8467" data-name="Caminho 8467" d="M333.375,384.877h-3.9L320.13,359.54h9.665Z" transform="translate(34.682 -22.007)" fill="#e0e0e0"/>
      <path id="Caminho_8468" data-name="Caminho 8468" d="M377.995,384.877h-3.9L364.75,359.54H374.4Z" transform="translate(39.516 -22.007)" fill="#e0e0e0"/>
      <path id="Caminho_8469" data-name="Caminho 8469" d="M123.07,384.877h3.9L136.3,359.54H126.65Z" transform="translate(13.333 -22.007)" fill="#e0e0e0"/>
      <path id="Caminho_8470" data-name="Caminho 8470" d="M78.45,384.877h3.9l9.332-25.337H82.041Z" transform="translate(8.499 -22.007)" fill="#e0e0e0"/>
      <rect id="Retângulo_6671" data-name="Retângulo 6671" width="295.549" height="105.414" transform="translate(129.31 47.293)" fill="#e0e0e0"/>
      <rect id="Retângulo_6672" data-name="Retângulo 6672" width="295.549" height="105.414" transform="translate(126.594 47.293)" fill="#f0f0f0"/>
      <rect id="Retângulo_6673" data-name="Retângulo 6673" width="87.68" height="277.815" transform="translate(413.287 56.159) rotate(90)" fill="#fafafa"/>
      <circle id="Elipse_639" data-name="Elipse 639" cx="26.29" cy="26.29" r="26.29" transform="translate(248.09 73.704)" fill="#f0f0f0"/>
      <path id="Caminho_8471" data-name="Caminho 8471" d="M162.91,193.35l18.421-87.68h40.632l-18.409,87.68Z" transform="translate(17.649 -49.511)" fill="#fff"/>
      <path id="Caminho_8472" data-name="Caminho 8472" d="M215.05,193.35l18.421-87.68h20.316l-18.409,87.68Z" transform="translate(23.298 -49.511)" fill="#fff"/>
      <path id="Caminho_8473" data-name="Caminho 8473" d="M326.99,193.35l18.421-87.68h20.316l-18.409,87.68Z" transform="translate(35.425 -49.511)" fill="#fff"/>
      <path id="Caminho_8474" data-name="Caminho 8474" d="M443.315,251.76c-6.894,29.925,9.975,60.759,3.07,90.64l-6.827-.288-6.827-.277C444.179,312.131,431.921,281.452,443.315,251.76Z" transform="translate(46.88 -33.684)" fill="#f0f0f0"/>
      <path id="Caminho_8475" data-name="Caminho 8475" d="M427.105,263.45c5.653,28.573-12.48,57.146-6.827,85.719h13.666C423.736,320.585,437.313,292.023,427.105,263.45Z" transform="translate(45.411 -32.417)" fill="#f0f0f0"/>
      <path id="Caminho_8476" data-name="Caminho 8476" d="M439.3,242c-9.044,30.468,7.758,63.352-1.286,93.821l-7.426-.7-7.426-.687C437.158,304.444,425.3,272.025,439.3,242Z" transform="translate(45.843 -34.741)" fill="#e6e6e6"/>
      <path id="Caminho_8477" data-name="Caminho 8477" d="M450.783,281.61c2.915,16.47-13.3,29.426-10.429,45.907l5.542,1.009,5.542,1.009C444.787,312.389,457.366,298.756,450.783,281.61Z" transform="translate(47.669 -30.45)" fill="#e6e6e6"/>
      <ellipse id="Elipse_640" data-name="Elipse 640" cx="37.296" cy="41.762" rx="37.296" ry="41.762" transform="translate(444.853 287.658)" fill="#e0e0e0"/>
    </g>
    <g id="freepik--Shadow--inject-4" transform="translate(62.189 442.829)">
      <ellipse id="freepik--path--inject-4" cx="214.895" cy="12.546" rx="214.895" ry="12.546" fill="#f5f5f5"/>
    </g>
    <g id="freepik--Board--inject-4" transform="translate(180.153 135.254)">
      <path id="Caminho_8478" data-name="Caminho 8478" d="M407.645,289.86H168.134a4.433,4.433,0,0,1-4.433-4.688l8.091-146.843a5.032,5.032,0,0,1,4.954-4.688H416.257a4.433,4.433,0,0,1,4.433,4.688l-8.069,146.843A5.01,5.01,0,0,1,407.645,289.86Z" transform="translate(-162.419 -126.734)" fill="#263238"/>
      <path id="Caminho_8479" data-name="Caminho 8479" d="M296.456,159.286H273.3a13.167,13.167,0,0,1-13.3-14.02l.233-4.278a14.564,14.564,0,0,1,14.342-13.577h23.142a13.178,13.178,0,0,1,13.3,14.02l-.233,4.278a14.586,14.586,0,0,1-14.331,13.577Z" transform="translate(-151.988 -127.409)" fill="#263238"/>
      <path id="Caminho_8480" data-name="Caminho 8480" d="M314.631,442.578h-7.415L286.79,130.36h7.426Z" transform="translate(-149.083 -127.09)" fill="#263238"/>
      <path id="Caminho_8481" data-name="Caminho 8481" d="M261.67,442.578H269.1L289.511,130.36H282.1Z" transform="translate(-151.804 -127.09)" fill="#263238"/>
      <path id="Caminho_8482" data-name="Caminho 8482" d="M406.5,289.86H166.984a4.433,4.433,0,0,1-4.433-4.688l8.058-146.843a5.032,5.032,0,0,1,4.954-4.688H415.074a4.433,4.433,0,0,1,4.433,4.688l-8.069,146.843A5.01,5.01,0,0,1,406.5,289.86Z" transform="translate(-162.543 -126.734)" fill="#407bff"/>
      <path id="Caminho_8483" data-name="Caminho 8483" d="M170.347,284.92a3.513,3.513,0,0,1-3.547-3.746l7.681-139.728a4,4,0,0,1,3.946-3.746H410.856a3.513,3.513,0,0,1,3.547,3.746l-7.681,139.728a4,4,0,0,1-3.957,3.746Z" transform="translate(-162.083 -126.294)" fill="#263238" opacity="0.4"/>
      <path id="Caminho_8484" data-name="Caminho 8484" d="M403.256,210.283H333.264a2.981,2.981,0,0,1-3.015-3.181l3.491-63.607a.432.432,0,0,0-.421-.454.488.488,0,0,0-.477.454L329.352,207.1a3.414,3.414,0,0,1-3.325,3.181H253.3a2.981,2.981,0,0,1-3.015-3.181l3.491-63.607a.432.432,0,0,0-.421-.454.488.488,0,0,0-.477.454L249.385,207.1a3.414,3.414,0,0,1-3.325,3.181H176.047a.477.477,0,0,0-.477.454.421.421,0,0,0,.421.443h69.958a2.992,2.992,0,0,1,3.015,3.192l-3.491,63.6a.41.41,0,0,0,.421.454.488.488,0,0,0,.477-.454l3.491-63.6a3.4,3.4,0,0,1,3.325-3.192h72.7A2.992,2.992,0,0,1,329,214.373l-3.491,63.6a.41.41,0,0,0,.421.454.488.488,0,0,0,.477-.454l3.491-63.6a3.4,3.4,0,0,1,3.325-3.192h69.958a.488.488,0,0,0,.477-.443.421.421,0,0,0-.4-.454Z" transform="translate(-161.132 -125.716)" fill="#fff" opacity="0.1"/>
      <path id="Caminho_8485" data-name="Caminho 8485" d="M280.95,153.44h-28.1l-1.574,28.584,28.063.754Z" transform="translate(-152.93 -124.589)" fill="#263238" opacity="0.4"/>
      <path id="Caminho_8486" data-name="Caminho 8486" d="M278.067,181.785,249.86,180.41a247.726,247.726,0,0,0,2.937-29.16l28.362,1.374A247.893,247.893,0,0,1,278.067,181.785Z" transform="translate(-153.084 -124.826)" fill="#fff"/>
      <path id="Caminho_8487" data-name="Caminho 8487" d="M311.371,170.67l-28.141,2.15.621,28.484,28.152-1.4Z" transform="translate(-149.469 -122.723)" fill="#263238" opacity="0.4"/>
      <path id="Caminho_8488" data-name="Caminho 8488" d="M310.581,198.9l-28.351.787a244.686,244.686,0,0,0,.709-29.171l28.506-.809a245.125,245.125,0,0,1-.865,29.194Z" transform="translate(-149.577 -122.827)" fill="#407bff"/>
      <path id="Caminho_8489" data-name="Caminho 8489" d="M240.006,217.753l-51.87-1.973-4.666,46.14,51.759,3.192Z" transform="translate(-160.276 -117.836)" fill="#263238" opacity="0.4"/>
      <path id="Caminho_8490" data-name="Caminho 8490" d="M232.914,263.416,181,259.193a354.48,354.48,0,0,0,7.2-46.993l52.225,4.212A351.837,351.837,0,0,1,232.914,263.416Z" transform="translate(-160.544 -118.223)" fill="#fff"/>
      <g id="Grupo_3403" data-name="Grupo 3403" transform="translate(21.47 29.46)" opacity="0.3">
        <path id="Caminho_8491" data-name="Caminho 8491" d="M186.581,159.841h0a2.76,2.76,0,0,1-2.771-2.926h0A3.148,3.148,0,0,1,186.9,154h0a2.749,2.749,0,0,1,2.76,2.926h0a3.137,3.137,0,0,1-3.081,2.915Z" transform="translate(-181.71 -153.989)" fill="#263238"/>
        <path id="Caminho_8492" data-name="Caminho 8492" d="M231.448,159.842H195.46a2.749,2.749,0,0,1-2.76-2.926h0a3.125,3.125,0,0,1,3.081-2.926h36.043a2.76,2.76,0,0,1,2.771,2.926h0a3.148,3.148,0,0,1-3.148,2.926Z" transform="translate(-180.747 -153.99)" fill="#263238" opacity="0.8"/>
        <path id="Caminho_8493" data-name="Caminho 8493" d="M185.951,171.352h0a2.749,2.749,0,0,1-2.771-2.926h0a3.137,3.137,0,0,1,3.125-2.926h0a2.749,2.749,0,0,1,2.76,2.926h0a3.137,3.137,0,0,1-3.114,2.926Z" transform="translate(-181.778 -152.743)" fill="#263238"/>
        <path id="Caminho_8494" data-name="Caminho 8494" d="M237.192,171.352H194.831a2.76,2.76,0,0,1-2.771-2.926h0a3.148,3.148,0,0,1,3.092-2.926h42.361a2.76,2.76,0,0,1,2.771,2.926h0A3.148,3.148,0,0,1,237.192,171.352Z" transform="translate(-180.816 -152.743)" fill="#263238" opacity="0.8"/>
        <path id="Caminho_8495" data-name="Caminho 8495" d="M185.27,182.851h0a2.738,2.738,0,0,1-2.76-2.915h0a3.126,3.126,0,0,1,3.081-2.926h0a2.749,2.749,0,0,1,2.771,2.926h0a3.137,3.137,0,0,1-3.092,2.915Z" transform="translate(-181.851 -151.496)" fill="#263238"/>
        <path id="Caminho_8496" data-name="Caminho 8496" d="M214.816,182.851H194.19a2.738,2.738,0,0,1-2.76-2.915h0a3.126,3.126,0,0,1,3.081-2.926h20.626a2.738,2.738,0,0,1,2.76,2.926h0a3.126,3.126,0,0,1-3.081,2.915Z" transform="translate(-180.885 -151.496)" fill="#263238" opacity="0.8"/>
        <path id="Caminho_8497" data-name="Caminho 8497" d="M232.046,194.362H211.42a2.749,2.749,0,0,1-2.76-2.926h0a3.137,3.137,0,0,1,3.081-2.926h20.626a2.749,2.749,0,0,1,2.76,2.926h0A3.137,3.137,0,0,1,232.046,194.362Z" transform="translate(-179.018 -150.25)" fill="#263238" opacity="0.8"/>
        <path id="Caminho_8498" data-name="Caminho 8498" d="M184.68,194.362h0a2.749,2.749,0,0,1-2.76-2.926h0A3.137,3.137,0,0,1,185,188.51h0a2.749,2.749,0,0,1,2.76,2.926h0a3.137,3.137,0,0,1-3.081,2.926Z" transform="translate(-181.915 -150.25)" fill="#263238"/>
        <path id="Caminho_8499" data-name="Caminho 8499" d="M203.081,194.362H193.56a2.749,2.749,0,0,1-2.76-2.926h0a3.137,3.137,0,0,1,3.081-2.926H203.4a2.749,2.749,0,0,1,2.771,2.926h0a3.137,3.137,0,0,1-3.092,2.926Z" transform="translate(-180.953 -150.25)" fill="#263238" opacity="0.8"/>
      </g>
      <path id="Caminho_8500" data-name="Caminho 8500" d="M266.691,228.03H252.737l-1.917,34.924h13.954Z" transform="translate(-152.98 -116.508)" fill="#407bff"/>
      <path id="Caminho_8501" data-name="Caminho 8501" d="M285.763,234.53H271.8L270.28,262.25h13.954Z" transform="translate(-150.872 -115.804)" fill="#407bff"/>
      <path id="Caminho_8502" data-name="Caminho 8502" d="M306.232,217.75H292.278l-2.538,46.317h13.954Z" transform="translate(-148.763 -117.622)" fill="#407bff"/>
      <path id="Caminho_8503" data-name="Caminho 8503" d="M256.647,248.517c-1.385,0-2.782,0-4.189-.111a23.729,23.729,0,0,1-8.446-1.707.909.909,0,0,1-.454-1.2.9.9,0,0,1,1.2-.443,22.166,22.166,0,0,0,7.758,1.552c16.747.864,31.41-3.5,46.173-13.721a51.671,51.671,0,0,0,12-11.638.9.9,0,1,1,1.474,1.02,52.093,52.093,0,0,1-12.424,12.048C285.885,243.973,272.086,248.517,256.647,248.517Z" transform="translate(-153.775 -117.289)" fill="#fff"/>
      <path id="Caminho_8504" data-name="Caminho 8504" d="M308.578,228.728a.9.9,0,0,1-.831-1.241,15.86,15.86,0,0,0,.776-9.7,60.413,60.413,0,0,1-11.15,5.919.9.9,0,1,1-.676-1.663,58.84,58.84,0,0,0,11.826-6.439.909.909,0,0,1,1.363.454,17.5,17.5,0,0,1-.477,12.114A.9.9,0,0,1,308.578,228.728Z" transform="translate(-148.073 -117.871)" fill="#fff"/>
      <path id="Caminho_8505" data-name="Caminho 8505" d="M379.052,201.3H327.137A3.114,3.114,0,0,1,324,197.979l2.416-43.89a3.491,3.491,0,0,1,3.436-3.258h51.926a3.114,3.114,0,0,1,3.125,3.325l-2.416,43.89a3.491,3.491,0,0,1-3.436,3.258Zm-49.2-49.565a2.571,2.571,0,0,0-2.538,2.416l-2.416,43.89a2.217,2.217,0,0,0,2.217,2.361H379.03a2.571,2.571,0,0,0,2.538-2.416l2.416-43.89a2.2,2.2,0,0,0-2.228-2.361Z" transform="translate(-145.053 -124.872)" fill="#407bff"/>
      <path id="Caminho_8506" data-name="Caminho 8506" d="M383.771,162.288H326.138a.454.454,0,0,1,0-.9h57.633a.454.454,0,1,1,0,.9Z" transform="translate(-144.862 -123.728)" fill="#407bff"/>
      <path id="Caminho_8507" data-name="Caminho 8507" d="M336.581,200.16h0a.454.454,0,0,1-.421-.477l2.039-37.872a.443.443,0,0,1,.477-.421.454.454,0,0,1,.421.477l-2.073,37.883a.454.454,0,0,1-.443.41Z" transform="translate(-143.735 -123.728)" fill="#407bff"/>
      <path id="Caminho_8508" data-name="Caminho 8508" d="M375.244,166.348H343.978a.454.454,0,0,1,0-.9h31.266a.454.454,0,1,1,0,.9Z" transform="translate(-142.929 -123.289)" fill="#407bff"/>
      <path id="Caminho_8509" data-name="Caminho 8509" d="M370.576,171.328H343.721a.454.454,0,1,1,0-.9h26.855a.454.454,0,1,1,0,.9Z" transform="translate(-142.972 -122.749)" fill="#407bff"/>
      <path id="Caminho_8510" data-name="Caminho 8510" d="M359.069,176.468H343.441a.454.454,0,1,1,0-.9h15.628a.454.454,0,1,1,0,.9Z" transform="translate(-143.003 -122.192)" fill="#407bff"/>
      <path id="Caminho_8511" data-name="Caminho 8511" d="M361.966,186.508H342.891a.454.454,0,1,1,0-.9h19.074a.454.454,0,1,1,0,.9Z" transform="translate(-143.062 -121.105)" fill="#407bff"/>
      <path id="Caminho_8512" data-name="Caminho 8512" d="M358.226,191.648H342.587a.454.454,0,0,1,0-.9h15.639a.454.454,0,0,1,0,.9Z" transform="translate(-143.08 -120.547)" fill="#407bff"/>
      <path id="Caminho_8513" data-name="Caminho 8513" d="M365.45,191.648h-5a.454.454,0,1,1,0-.9h5a.454.454,0,1,1,0,.9Z" transform="translate(-141.16 -120.548)" fill="#407bff"/>
      <path id="Caminho_8514" data-name="Caminho 8514" d="M372.437,181.459H343.154a.454.454,0,0,1,0-.909h29.282a.454.454,0,1,1,0,.909Z" transform="translate(-143.026 -121.652)" fill="#407bff"/>
      <path id="Caminho_8515" data-name="Caminho 8515" d="M346.884,258.217c-6.783,0-12.336-2.006-15.783-5.73-3.691-3.979-5.22-10.241-4.2-17.179a20.737,20.737,0,0,1,13.245-17.423,31.721,31.721,0,0,1,26.855.355c3.646,1.829,5.93,4.145,6.794,6.883a.9.9,0,0,1-1.718.543c-.709-2.217-2.693-4.212-5.885-5.819a29.925,29.925,0,0,0-25.314-.321,18.975,18.975,0,0,0-12.192,16.049c-.942,6.4.421,12.114,3.735,15.683,4.6,4.976,12.192,5.331,16.359,5.109,7.692-.432,14.3-3.114,18.62-7.559,5.054-5.209,6.473-12.99,3.325-18.11a5.675,5.675,0,0,0-3.89-2.882.9.9,0,0,1,.177-1.784,7.2,7.2,0,0,1,5.242,3.713c3.591,5.808,2.073,14.53-3.536,20.316-4.644,4.777-11.671,7.648-19.817,8.1C348.2,258.217,347.537,258.217,346.884,258.217Z" transform="translate(-144.771 -117.912)" fill="#fff"/>
    </g>
    <g id="freepik--Character--inject-4" transform="translate(105.725 119.372)">
      <path id="Caminho_8516" data-name="Caminho 8516" d="M139.838,169.974l-3.2,5.542-3.126,5.686c-2.062,3.8-4.034,7.636-5.83,11.482-.9,1.94-1.751,3.857-2.527,5.786l-.144.355v.078a.887.887,0,0,0-.1.155,2.932,2.932,0,0,0-.155.321,2.317,2.317,0,0,0,.133,1.241,12.336,12.336,0,0,0,2.671,4.045,47.658,47.658,0,0,0,4.334,4.1l-2.6,5.542a27.152,27.152,0,0,1-3.58-1.263,29.484,29.484,0,0,1-3.325-1.729,19.33,19.33,0,0,1-6.251-5.8,12.923,12.923,0,0,1-1.951-5.054,11.438,11.438,0,0,1,0-3.015,9.1,9.1,0,0,1,.255-1.474l.177-.72.133-.443c.72-2.217,1.452-4.511,2.316-6.65,1.685-4.345,3.591-8.556,5.653-12.646,1.042-2.039,2.106-4.068,3.236-6.063s2.217-3.946,3.547-5.963Z" transform="translate(-93.367 -107.619)" fill="#ffc3bd"/>
      <path id="Caminho_8517" data-name="Caminho 8517" d="M127.716,203.948l5.819-1.518.333,9.4s-4.555.676-7.337-2.106Z" transform="translate(-92.018 -103.4)" fill="#ffc3bd"/>
      <path id="Caminho_8518" data-name="Caminho 8518" d="M141.107,201l-1.319,8.257-6.606,2.727-.332-9.4Z" transform="translate(-91.333 -103.555)" fill="#ffc3bd"/>
      <path id="Caminho_8519" data-name="Caminho 8519" d="M162,129.49c.133.643.576,1.108,1,1.009s.665-.676.532-1.319-.576-1.108-1-1.009S161.913,128.847,162,129.49Z" transform="translate(-88.177 -111.447)" fill="#263238"/>
      <path id="Caminho_8520" data-name="Caminho 8520" d="M162.5,130.36a23.508,23.508,0,0,0,4.189,4.877,3.746,3.746,0,0,1-2.948,1.2Z" transform="translate(-88.121 -111.208)" fill="#ed847e"/>
      <path id="Caminho_8521" data-name="Caminho 8521" d="M159.286,126.761a.381.381,0,0,1-.255-.654,3.835,3.835,0,0,1,3.325-1.275.377.377,0,0,1,.31.443.388.388,0,0,1-.443.321h0a3.059,3.059,0,0,0-2.582,1.031.377.377,0,0,1-.355.133Z" transform="translate(-88.509 -111.81)" fill="#263238"/>
      <path id="Caminho_8522" data-name="Caminho 8522" d="M145.669,137.52c1.175,5.963,2.339,16.88-1.829,20.848,0,0,1.629,6.04,12.69,6.04,12.192,0,5.819-6.04,5.819-6.04-6.65-1.585-6.473-6.506-5.309-11.139Z" transform="translate(-90.142 -110.432)" fill="#ffc3bd"/>
      <path id="Caminho_8523" data-name="Caminho 8523" d="M141.771,157.849c-.887-1.651-1.873-3.547.155-4.145,2.217-.654,16.559-1.862,20.77-.632-1.3,2.294.887,5.12.887,5.12Z" transform="translate(-90.479 -108.805)" fill="#263238"/>
      <path id="Caminho_8524" data-name="Caminho 8524" d="M109.349,408.048a2.638,2.638,0,0,0,2.028-.111.787.787,0,0,0,.188-.9.9.9,0,0,0-.5-.565c-1.108-.521-3.624.51-3.735.554a.177.177,0,0,0-.122.166.2.2,0,0,0,.111.177,10.166,10.166,0,0,0,2.028.676Zm1.319-1.3a1.166,1.166,0,0,1,.233.067.532.532,0,0,1,.288.332c.111.355,0,.454-.066.5-.432.366-2.062,0-3.2-.432A6.284,6.284,0,0,1,110.668,406.751Z" transform="translate(-94.111 -81.311)" fill="#407bff"/>
      <path id="Caminho_8525" data-name="Caminho 8525" d="M107.366,407.61h.089c.92-.266,2.893-1.662,2.915-2.582a.632.632,0,0,0-.488-.632,1.042,1.042,0,0,0-.853.066c-1.108.565-1.784,2.815-1.807,2.915a.2.2,0,0,0,0,.188Zm2.305-2.882h.078c.244.089.244.2.244.255,0,.543-1.319,1.64-2.217,2.084a4.733,4.733,0,0,1,1.485-2.294.687.687,0,0,1,.41-.044Z" transform="translate(-94.112 -81.527)" fill="#407bff"/>
      <path id="Caminho_8526" data-name="Caminho 8526" d="M163.637,409.3c1.042,0,2.05-.144,2.394-.61a.743.743,0,0,0,0-.842.964.964,0,0,0-.61-.454c-1.352-.366-4.2,1.252-4.322,1.33a.177.177,0,0,0-.089.2.188.188,0,0,0,.144.155,14.875,14.875,0,0,0,2.483.222Zm1.286-1.574a1.352,1.352,0,0,1,.377,0,.565.565,0,0,1,.377.266c.133.244.089.366,0,.432-.377.521-2.438.532-3.946.321a8.668,8.668,0,0,1,3.192-1.02Z" transform="translate(-88.283 -81.201)" fill="#407bff"/>
      <path id="Caminho_8527" data-name="Caminho 8527" d="M161.183,409.27h.078c.986-.443,2.926-2.217,2.782-3.126,0-.222-.188-.488-.72-.543a1.474,1.474,0,0,0-1.108.333c-1.031.853-1.252,3.048-1.264,3.137a.233.233,0,0,0,.089.177.188.188,0,0,0,.144.022Zm1.984-3.325h.111c.355,0,.377.166.377.211.089.554-1.23,1.94-2.217,2.538a4.433,4.433,0,0,1,1.108-2.5,1.02,1.02,0,0,1,.676-.222Z" transform="translate(-88.289 -81.39)" fill="#407bff"/>
      <path id="Caminho_8528" data-name="Caminho 8528" d="M153.08,410.584h8.146l.809-18.864h-8.146Z" transform="translate(-89.141 -82.893)" fill="#ffc3bd"/>
      <path id="Caminho_8529" data-name="Caminho 8529" d="M99.16,407.057l7.958,1.718,7.991-17.556-7.958-1.729Z" transform="translate(-94.983 -83.135)" fill="#ffc3bd"/>
      <path id="Caminho_8530" data-name="Caminho 8530" d="M108.258,406.361l-8.867-1.94a.709.709,0,0,0-.787.4l-3.1,6.739a1.186,1.186,0,0,0,.853,1.662c3.137.621,4.688.765,8.623,1.618,2.416.521,7.88,1.851,11.216,2.582s4.433-2.494,3.192-3.081c-5.841-2.671-8.279-5.021-9.864-7.215A2,2,0,0,0,108.258,406.361Z" transform="translate(-95.391 -81.519)" fill="#263238"/>
      <path id="Caminho_8531" data-name="Caminho 8531" d="M161.474,407.89h-8.867a.7.7,0,0,0-.687.554l-1.607,7.237a1.175,1.175,0,0,0,1.164,1.441c3.214,0,7.847-.233,11.881-.233,4.71,0,8.778.255,14.309.255,3.325,0,4.278-3.38,2.871-3.691-6.362-1.385-11.571-1.541-17.068-4.932A3.813,3.813,0,0,0,161.474,407.89Z" transform="translate(-89.445 -81.141)" fill="#263238"/>
      <path id="Caminho_8532" data-name="Caminho 8532" d="M132.041,158.022c-7.625,1.751-13.921,21.236-13.921,21.236L133.5,190.928a33.516,33.516,0,0,0,8.124-15.051C144.2,165.669,139.843,156.226,132.041,158.022Z" transform="translate(-92.929 -108.235)" fill="#407bff"/>
      <path id="Caminho_8533" data-name="Caminho 8533" d="M132.041,158.022c-7.625,1.751-13.921,21.236-13.921,21.236L133.5,190.928a33.516,33.516,0,0,0,8.124-15.051C144.2,165.669,139.843,156.226,132.041,158.022Z" transform="translate(-92.929 -108.235)" fill="#fafafa" opacity="0.2"/>
      <path id="Caminho_8534" data-name="Caminho 8534" d="M137.149,170.92c-4.145,4.1-5.542,11.571-5.819,18.066l.676.521a33.472,33.472,0,0,0,8.135-15.051c.155-.61.288-1.219.4-1.818Z" transform="translate(-91.498 -106.814)" opacity="0.2"/>
      <path id="Caminho_8535" data-name="Caminho 8535" d="M176.3,158.617s8.667,9.787.477,70.379H133.249c-.3-6.65,3.9-39.3-2.549-70.8a114.008,114.008,0,0,1,14.586-1.84,161.014,161.014,0,0,1,18.509,0,81.463,81.463,0,0,1,12.5,2.261Z" transform="translate(-91.566 -108.42)" fill="#407bff"/>
      <path id="Caminho_8536" data-name="Caminho 8536" d="M176.3,158.617s8.667,9.787.477,70.379H133.249c-.3-6.65,3.9-39.3-2.549-70.8a114.008,114.008,0,0,1,14.586-1.84,161.014,161.014,0,0,1,18.509,0,81.463,81.463,0,0,1,12.5,2.261Z" transform="translate(-91.566 -108.42)" fill="#fafafa" opacity="0.2"/>
      <path id="Caminho_8537" data-name="Caminho 8537" d="M176.257,175.094l-.166-.144-9.9,2.372c-.565,6.65,6.318,14.7,9.864,18.354a190.031,190.031,0,0,0,.2-20.582Z" transform="translate(-87.724 -106.377)" opacity="0.2"/>
      <path id="Caminho_8538" data-name="Caminho 8538" d="M162,391.73l-.421,9.72H153.43l.421-9.72Z" transform="translate(-89.104 -82.892)" opacity="0.2"/>
      <path id="Caminho_8539" data-name="Caminho 8539" d="M106.763,389.49l7.969,1.729-4.123,9.055-7.969-1.729Z" transform="translate(-94.606 -83.135)" opacity="0.2"/>
      <path id="Caminho_8540" data-name="Caminho 8540" d="M142.46,133.429c2.084,7.814,2.915,12.48,7.758,15.727,7.237,4.888,16.259-.72,16.547-8.989.255-7.448-3.214-18.964-11.593-20.537a11.017,11.017,0,0,0-12.713,13.8Z" transform="translate(-90.337 -112.392)" fill="#ffc3bd"/>
      <path id="Caminho_8541" data-name="Caminho 8541" d="M146.9,146.8c3.325,1.9,15.417-4.433,12.934-14.076,0,0,4.611-5.542,4.09-11.66s-4.722-8.446-9.188-7.127c-3.935,1.108-3.824,3.325-3.824,3.325s-18.609,2.217-14.63,9.764C128.7,135.259,142.758,144.425,146.9,146.8Z" transform="translate(-91.2 -113.026)" fill="#263238"/>
      <path id="Caminho_8542" data-name="Caminho 8542" d="M137.073,126.479s-2.217-3.835-5.453-1.685C133.15,124.816,135.632,125.093,137.073,126.479Z" transform="translate(-91.466 -111.882)" fill="#263238"/>
      <path id="Caminho_8543" data-name="Caminho 8543" d="M160.687,125.183s4.057-9.155-2.217-12.1A15.65,15.65,0,0,1,160.687,125.183Z" transform="translate(-88.557 -113.08)" fill="#263238"/>
      <path id="Caminho_8544" data-name="Caminho 8544" d="M154.414,132.738a9.1,9.1,0,0,0,3.325,4.854c2.117,1.574,3.7,0,3.558-2.372-.144-2.161-1.408-5.542-3.746-6.218S153.8,130.388,154.414,132.738Z" transform="translate(-89.012 -111.369)" fill="#ffc3bd"/>
      <path id="Caminho_8545" data-name="Caminho 8545" d="M164.619,221.874s-9.244,62.211-14.32,85.486c-5.542,25.492-35.345,109.991-35.345,109.991l-14.575-3.159s20.837-68.828,25.492-104.516c3.58-27.409,10.64-87.847,10.64-87.847Z" transform="translate(-94.851 -101.298)" fill="#263238"/>
      <path id="Caminho_8546" data-name="Caminho 8546" d="M118.548,394.2c.066,0-2.715,5.276-2.715,5.276L99.44,395.921,100.814,391Z" transform="translate(-94.953 -82.971)" fill="#407bff"/>
      <path id="Caminho_8547" data-name="Caminho 8547" d="M153.957,241.879c-10.684,2.095-9.554,41.939-8.268,62.433,3.081-14.486,7.592-42.361,10.673-62.144A3.647,3.647,0,0,0,153.957,241.879Z" transform="translate(-90.029 -99.136)" opacity="0.3"/>
      <path id="Caminho_8548" data-name="Caminho 8548" d="M175.066,221.87s1.108,60.881.244,85.708c-.92,25.824-9.975,110.39-9.975,110.39H151.569s-.5-83.059-1.108-108.417c-.665-27.708-4-87.68-4-87.68Z" transform="translate(-89.859 -101.294)" fill="#263238"/>
      <path id="Caminho_8549" data-name="Caminho 8549" d="M244.26,183.15h-28.1l-1.574,28.573,28.063.754Z" transform="translate(-82.478 -105.489)" fill="#263238" opacity="0.4"/>
      <path id="Caminho_8550" data-name="Caminho 8550" d="M230.751,202.889l-28.141-3.48a242.734,242.734,0,0,0,5.065-28.739l28.307,3.48a242.971,242.971,0,0,1-5.231,28.739Z" transform="translate(-83.776 -106.841)" fill="#407bff"/>
      <path id="Caminho_8551" data-name="Caminho 8551" d="M167.67,393.84c.066,0-.776,5.73-.776,5.73h-16.78l-.454-5.109Z" transform="translate(-89.512 -82.664)" fill="#407bff"/>
      <path id="Caminho_8552" data-name="Caminho 8552" d="M176.5,165.07c1.252,1.951,2.682,4.145,4.112,6.162s2.9,4.079,4.433,6.04a82.725,82.725,0,0,0,9.709,10.828,34.067,34.067,0,0,0,2.616,2.217l.665.5a2.571,2.571,0,0,0-.388-.133h-.355a3.613,3.613,0,0,0,1.829-.421,20.681,20.681,0,0,0,2.8-1.452,97.336,97.336,0,0,0,11.748-9.044l4.755,3.835a56.158,56.158,0,0,1-10.662,13,25.2,25.2,0,0,1-3.8,2.8,14.929,14.929,0,0,1-5.6,2.084,9.886,9.886,0,0,1-4.234-.366,9.61,9.61,0,0,1-2.161-.986l-.953-.61c-1.275-.82-2.483-1.7-3.624-2.594A80.21,80.21,0,0,1,175.4,184.942c-1.74-2.15-3.425-4.323-4.988-6.584s-3.059-4.433-4.522-7Z" transform="translate(-87.754 -107.448)" fill="#ffc3bd"/>
      <path id="Caminho_8553" data-name="Caminho 8553" d="M161.023,170.714c-2.6,10.917,17.146,21.613,17.146,21.613L191,177.3a106.254,106.254,0,0,0-13.112-15.827C168.959,152.859,163.04,162.424,161.023,170.714Z" transform="translate(-88.307 -108.204)" fill="#407bff"/>
      <path id="Caminho_8554" data-name="Caminho 8554" d="M161.023,170.714c-2.6,10.917,17.146,21.613,17.146,21.613L191,177.3a106.254,106.254,0,0,0-13.112-15.827C168.959,152.859,163.04,162.424,161.023,170.714Z" transform="translate(-88.307 -108.204)" fill="#fafafa" opacity="0.2"/>
      <path id="Caminho_8555" data-name="Caminho 8555" d="M207.78,181.331l3.037-9.731,7.969,3.979s-1.164,7.093-6.971,8.324Z" transform="translate(-83.215 -106.74)" fill="#ffc3bd"/>
      <path id="Caminho_8556" data-name="Caminho 8556" d="M213.713,169.17l7.182,1.984-2.405,4.688-7.98-3.979Z" transform="translate(-82.92 -107.003)" fill="#ffc3bd"/>
    </g>
  </g>
</svg>
