<svg xmlns="http://www.w3.org/2000/svg" width="539.523" height="402.01" viewBox="0 0 539.523 402.01">
  <g id="Stay_at_home-rafiki" data-name="Stay at home-rafiki" transform="translate(0 -55)">
    <g id="freepik--background-complete--inject-2" transform="translate(0 55)">
      <rect id="Retângulo_6566" data-name="Retângulo 6566" width="539.523" height="0.27" transform="translate(0 353.28)" fill="#ebebeb"/>
      <rect id="Retângulo_6567" data-name="Retângulo 6567" width="35.738" height="0.27" transform="translate(449.725 370.642)" fill="#ebebeb"/>
      <rect id="Retângulo_6568" data-name="Retângulo 6568" width="9.377" height="0.27" transform="translate(315.891 370.782)" fill="#ebebeb"/>
      <rect id="Retângulo_6569" data-name="Retângulo 6569" width="66.297" height="0.27" transform="translate(382.339 360.628)" fill="#ebebeb"/>
      <rect id="Retângulo_6570" data-name="Retângulo 6570" width="13.693" height="0.27" transform="translate(229.243 366.995)" fill="#ebebeb"/>
      <rect id="Retângulo_6571" data-name="Retângulo 6571" width="39.741" height="0.27" transform="translate(179.899 366.995)" fill="#ebebeb"/>
      <rect id="Retângulo_6572" data-name="Retângulo 6572" width="27.44" height="0.27" transform="translate(56.607 362.441)" fill="#ebebeb"/>
      <rect id="Retângulo_6573" data-name="Retângulo 6573" width="80.81" height="0.27" transform="translate(90.521 362.441)" fill="#ebebeb"/>
      <path id="Caminho_8172" data-name="Caminho 8172" d="M252.714,360.154H44.361a6.161,6.161,0,0,1-6.151-6.161V61.107A6.161,6.161,0,0,1,44.361,55H252.714a6.161,6.161,0,0,1,6.161,6.161V353.993A6.161,6.161,0,0,1,252.714,360.154ZM44.361,55.216a5.892,5.892,0,0,0-5.881,5.892V353.993a5.892,5.892,0,0,0,5.881,5.892H252.714a5.9,5.9,0,0,0,5.892-5.892V61.107a5.9,5.9,0,0,0-5.892-5.892Z" transform="translate(3.02 -55)" fill="#ebebeb"/>
      <path id="Caminho_8173" data-name="Caminho 8173" d="M469.025,360.154H260.661a6.172,6.172,0,0,1-6.161-6.161V61.107A6.172,6.172,0,0,1,260.661,55H469.025a6.161,6.161,0,0,1,6.14,6.107V353.993A6.161,6.161,0,0,1,469.025,360.154ZM260.661,55.216a5.9,5.9,0,0,0-5.892,5.892V353.993a5.9,5.9,0,0,0,5.892,5.892H469.025a5.9,5.9,0,0,0,5.892-5.892V61.107a5.9,5.9,0,0,0-5.892-5.892Z" transform="translate(20.117 -55)" fill="#ebebeb"/>
      <path id="Caminho_8174" data-name="Caminho 8174" d="M184.1,384.074H179.26V361.22h11.308Z" transform="translate(14.17 -30.794)" fill="#f5f5f5"/>
      <path id="Caminho_8175" data-name="Caminho 8175" d="M260.493,384.074h4.834V361.22h-11.3Z" transform="translate(20.08 -30.794)" fill="#e0e0e0"/>
      <path id="Caminho_8176" data-name="Caminho 8176" d="M447.853,384.074H452.7V361.22H441.4Z" transform="translate(34.891 -30.794)" fill="#e0e0e0"/>
      <rect id="Retângulo_6574" data-name="Retângulo 6574" width="294.148" height="44.176" rx="9.32" transform="translate(487.578 341.065) rotate(180)" fill="#f5f5f5"/>
      <path id="Caminho_8177" data-name="Caminho 8177" d="M367.744,384.074H362.91V361.22h11.3Z" transform="translate(28.687 -30.794)" fill="#f5f5f5"/>
      <rect id="Retângulo_6575" data-name="Retângulo 6575" width="95.992" height="44.176" rx="9.32" transform="translate(487.578 341.065) rotate(180)" fill="#e0e0e0"/>
      <rect id="Retângulo_6576" data-name="Retângulo 6576" width="267.604" height="12.085" rx="5.6" transform="translate(474.306 296.824) rotate(180)" fill="#fafafa"/>
      <rect id="Retângulo_6577" data-name="Retângulo 6577" width="83.971" height="12.085" rx="5.6" transform="translate(474.317 296.824) rotate(180)" fill="#ebebeb"/>
      <path id="Caminho_8178" data-name="Caminho 8178" d="M47.34,397.074h6.712V145.656A3.356,3.356,0,0,0,50.7,142.3h0a3.356,3.356,0,0,0-3.356,3.356Z" transform="translate(3.742 -48.099)" fill="#f5f5f5"/>
      <path id="Caminho_8179" data-name="Caminho 8179" d="M28.71,382.833H75.627a5.913,5.913,0,0,0-5.913-5.913H34.623A5.913,5.913,0,0,0,28.71,382.833Z" transform="translate(2.269 -29.553)" fill="#f0f0f0"/>
      <path id="Caminho_8180" data-name="Caminho 8180" d="M27.76,200.8H76.727l-5.633-50.7h-37.7Z" transform="translate(2.194 -47.483)" fill="#e0e0e0"/>
    </g>
    <g id="freepik--Shadow--inject-2" transform="translate(65.941 432.58)">
      <ellipse id="freepik--path--inject-2" cx="209.216" cy="12.215" rx="209.216" ry="12.215" fill="#f5f5f5"/>
    </g>
    <g id="freepik--Window--inject-2" transform="translate(111.908 70.43)">
      <rect id="Retângulo_6578" data-name="Retângulo 6578" width="285.462" height="241.415" transform="translate(5.751 4.381)" fill="#fff"/>
      <g id="Grupo_3400" data-name="Grupo 3400" transform="translate(5.751 4.381)" opacity="0.1">
        <rect id="Retângulo_6579" data-name="Retângulo 6579" width="285.462" height="241.415" fill="#407bff"/>
      </g>
      <path id="Caminho_8181" data-name="Caminho 8181" d="M342.416,143.112c10.542-6.744,8.33-13.186-13.736-11.87s-25.66,11.341-25.66,11.341-33.45-1.219-30.613,5.9c-19.034,1.673-24.235,3.323-11.147,4.187l95.69-6.625S360.393,141.634,342.416,143.112Z" transform="translate(-91.829 -64.417)" fill="#fff"/>
      <path id="Caminho_8182" data-name="Caminho 8182" d="M167.263,176.993l43.7-3.021s16.909-5.9,6.269-5.773c8.1-4.6,13.585-11.87-3.237-10.79s-22.282,10.79-22.282,10.79-16.434-5.179-22.541,5.3C165.2,173.788,145.952,178.471,167.263,176.993Z" transform="translate(-99.466 -62.344)" fill="#fff"/>
      <path id="Caminho_8183" data-name="Caminho 8183" d="M163.039,105.7l31.94-2.212s12.355-4.316,4.575-4.208c5.924-3.367,9.938-8.632-2.363-7.909s-16.283,7.92-16.283,7.92-12.021-3.787-16.477,3.874C161.528,103.363,147.457,106.795,163.039,105.7Z" transform="translate(-99.591 -67.56)" fill="#fff"/>
      <path id="Caminho_8184" data-name="Caminho 8184" d="M389.884,80.09v228.6H114.5V80.09H389.884m10.79-10.79H103.71V319.477H400.674Z" transform="translate(-103.71 -69.3)" fill="#407bff"/>
      <path id="Caminho_8185" data-name="Caminho 8185" d="M389.884,80.09v228.6H114.5V80.09H389.884m10.79-10.79H103.71V319.477H400.674Z" transform="translate(-103.71 -69.3)" fill="#fff" opacity="0.7"/>
      <path id="Caminho_8186" data-name="Caminho 8186" d="M243.2,80.09v228.6H241.17V80.09H243.2M253.99,69.3H230.38V319.477h23.61V69.3Z" transform="translate(-93.697 -69.3)" fill="#407bff"/>
      <path id="Caminho_8187" data-name="Caminho 8187" d="M243.2,80.09v228.6H241.17V80.09H243.2M253.99,69.3H230.38V319.477h23.61V69.3Z" transform="translate(-93.697 -69.3)" fill="#fff" opacity="0.7"/>
      <path id="Caminho_8188" data-name="Caminho 8188" d="M144.863,115.925c0-.475-.173-.863-.3-.852a1.662,1.662,0,0,0-.745.529,5.728,5.728,0,0,0-.205-.874,1.2,1.2,0,0,0,.647,0c.1,0,0-.367-.162-.712s-.4-.583-.5-.529a1.338,1.338,0,0,0-.324.464,4.18,4.18,0,0,0-.291-.464.8.8,0,0,0,.367,0c.054,0,0-.248-.108-.475s-.27-.378-.335-.345a.831.831,0,0,0-.237.41c-.162-.173-.335-.345-.507-.507a1.64,1.64,0,0,0,.852-.3c.086-.108-.151-.432-.529-.734s-.755-.464-.842-.356a1.726,1.726,0,0,0-.1.95,4.478,4.478,0,0,0-.82-.41,1.079,1.079,0,0,0,.453-.356c0-.076-.183-.248-.486-.378s-.583-.151-.615-.065a1.079,1.079,0,0,0,.108.626,5.233,5.233,0,0,0-.82-.151,1.629,1.629,0,0,0,.453-.755c0-.13-.388-.237-.874-.237s-.874.108-.874.237a1.629,1.629,0,0,0,.453.755,7.406,7.406,0,0,0-.852.151,1.435,1.435,0,0,0,.065-.626c0-.1-.367-.054-.723.108s-.615.367-.572.464a1.446,1.446,0,0,0,.442.345l-.475.248a1.08,1.08,0,0,0,0-.345c0-.065-.248,0-.486.076s-.4.237-.367.3a.96.96,0,0,0,.388.27,5.394,5.394,0,0,0-.529.464,1.737,1.737,0,0,0-.248-.863c-.1-.086-.442.129-.777.486s-.507.712-.41.809a1.726,1.726,0,0,0,.939.162,4.456,4.456,0,0,0-.486.852,1.327,1.327,0,0,0-.475-.583c-.108,0-.291.237-.41.6s-.14.7,0,.734a1.316,1.316,0,0,0,.7-.162,5.394,5.394,0,0,0-.194,1.176,1.845,1.845,0,0,0-.777-.41c-.14,0-.227.41-.194.9s.162.863.291.852a1.662,1.662,0,0,0,.712-.475,3.993,3.993,0,0,0,.173.809,1.349,1.349,0,0,0-.593,0c-.1.054,0,.367.151.712s.4.593.5.54a1.079,1.079,0,0,0,.291-.388,2.7,2.7,0,0,0,.227.378.9.9,0,0,0-.27,0c-.065,0,0,.248.1.475s.27.388.335.356a.939.939,0,0,0,.216-.324,5.317,5.317,0,0,0,.421.432,1.608,1.608,0,0,0-.745.291c-.086.108.151.432.518.745s.745.464.831.367a1.683,1.683,0,0,0,.129-.842,4.994,4.994,0,0,0,.755.388,1.165,1.165,0,0,0-.442.453c0,.1.248.27.626.378s.7.1.734,0a1.553,1.553,0,0,0-.14-.583,3.453,3.453,0,0,0,.669.1,1.694,1.694,0,0,0-.378.691c0,.14.4.237.885.237s.874-.119.863-.259a1.554,1.554,0,0,0-.388-.68,5.848,5.848,0,0,0,.755-.151,1.273,1.273,0,0,0,0,.55c.054.1.378,0,.723-.119s.6-.367.561-.464a1.079,1.079,0,0,0-.378-.313c.14-.065.27-.14.4-.216a.8.8,0,0,0,0,.27c0,.065.248,0,.486-.076s.4-.248.367-.313a1.079,1.079,0,0,0-.345-.248,3.659,3.659,0,0,0,.475-.442,1.791,1.791,0,0,0,.259.82c.1.086.442-.129.766-.486s.507-.723.4-.82a1.694,1.694,0,0,0-.906-.162,5.223,5.223,0,0,0,.453-.842,1.349,1.349,0,0,0,.475.572c.108,0,.281-.237.4-.615s.14-.691,0-.734a1.338,1.338,0,0,0-.712.183,4.564,4.564,0,0,0,.173-1.219,1.727,1.727,0,0,0,.809.432C144.863,116.81,144.928,116.443,144.863,115.925Z" transform="translate(-101.388 -66.051)" fill="#407bff" opacity="0.7"/>
      <path id="Caminho_8189" data-name="Caminho 8189" d="M183.244,141.227c-.237-.119-.453-.162-.486-.1a.939.939,0,0,0,0,.5,2.3,2.3,0,0,0-.464-.14.744.744,0,0,0,.194-.3.889.889,0,0,0-.378-.119c-.205-.011-.388,0-.388.086a.82.82,0,0,0,.129.281h-.291a.485.485,0,0,0,.1-.173.477.477,0,0,0-.248-.076h-.259a.5.5,0,0,0,.129.227,2.158,2.158,0,0,0-.378.1.831.831,0,0,0,.086-.486c0-.065-.237,0-.486,0s-.421.227-.388.291a.917.917,0,0,0,.41.3,3.357,3.357,0,0,0-.41.27.625.625,0,0,0,0-.3.533.533,0,0,0-.313.119c-.14.119-.227.237-.194.27a.507.507,0,0,0,.313.119,4.472,4.472,0,0,0-.291.345.961.961,0,0,0-.227-.421c-.065,0-.216.119-.356.345s-.183.432-.119.475a.874.874,0,0,0,.475,0,3.658,3.658,0,0,0-.162.442.712.712,0,0,0-.281-.194c-.054,0-.119.151-.151.367s0,.378.065.388a.863.863,0,0,0,.281-.108,2.632,2.632,0,0,0,0,.291.485.485,0,0,0-.151-.108.587.587,0,0,0-.108.237.9.9,0,0,0,0,.259.389.389,0,0,0,.237-.108,2.16,2.16,0,0,0,.065.378.885.885,0,0,0-.464-.119c-.076,0-.065.237,0,.486s.194.442.259.421a.885.885,0,0,0,.335-.388,2.783,2.783,0,0,0,.27.453.69.69,0,0,0-.4.065.549.549,0,0,0,.162.356c.162.162.291.259.335.216a.647.647,0,0,0,.119-.367,2.287,2.287,0,0,0,.5.41,1.079,1.079,0,0,0-.41.259c0,.065.129.205.367.335s.442.162.486.1a.907.907,0,0,0,0-.464,3.236,3.236,0,0,0,.421.14.7.7,0,0,0-.162.27c0,.065.162.119.378.129s.378,0,.388-.086a.669.669,0,0,0-.108-.237h.237l-.065.119a.554.554,0,0,0,.248.086c.14.011.259,0,.259-.054a.442.442,0,0,0-.1-.194l.324-.076a.971.971,0,0,0-.076.432c0,.065.248,0,.5,0s.421-.216.388-.291a.885.885,0,0,0-.356-.291,2.329,2.329,0,0,0,.388-.237.669.669,0,0,0,.1.324.484.484,0,0,0,.345-.183c.151-.183.237-.3.194-.345a.69.69,0,0,0-.313-.1,2.962,2.962,0,0,0,.237-.281.8.8,0,0,0,.216.356c.065,0,.216-.119.345-.345s.183-.432.129-.475a.917.917,0,0,0-.432,0,1.611,1.611,0,0,1,.14-.4.853.853,0,0,0,.248.173c.054,0,.119-.162.14-.378s0-.378-.065-.388a.68.68,0,0,0-.248.1,1.919,1.919,0,0,0,0-.248l.119.076a.441.441,0,0,0,.1-.237,1.733,1.733,0,0,0,0-.259.55.55,0,0,0-.205.086.578.578,0,0,0-.076-.345.906.906,0,0,0,.453.108c.065,0,0-.237,0-.486s-.205-.442-.27-.421a.885.885,0,0,0-.324.388,2.309,2.309,0,0,0-.27-.442.755.755,0,0,0,.388-.065c.054,0,0-.205-.173-.356s-.291-.259-.335-.216a.831.831,0,0,0-.108.378,2.8,2.8,0,0,0-.518-.41.96.96,0,0,0,.421-.259A2.689,2.689,0,0,0,183.244,141.227Z" transform="translate(-97.784 -63.633)" fill="#407bff" opacity="0.5"/>
      <path id="Caminho_8190" data-name="Caminho 8190" d="M290.36,127.628c.475,0,.874-.1.874-.237a1.619,1.619,0,0,0-.464-.777,4.877,4.877,0,0,0,.885-.14,1.166,1.166,0,0,0-.076.647c0,.1.367,0,.723-.1s.615-.356.572-.464a1.424,1.424,0,0,0-.442-.356,3.441,3.441,0,0,0,.486-.248.939.939,0,0,0,0,.356c0,.065.248,0,.486-.065s.4-.237.378-.3a.939.939,0,0,0-.4-.281,4.472,4.472,0,0,0,.55-.464,1.748,1.748,0,0,0,.237.885c.1.086.442-.119.777-.475s.518-.712.421-.8a1.608,1.608,0,0,0-.939-.183,5.756,5.756,0,0,0,.475-.777,1.079,1.079,0,0,0,.313.475c.076,0,.259-.162.41-.453s.205-.572.119-.615a1.079,1.079,0,0,0-.626.065,4.945,4.945,0,0,0,.2-.809,1.672,1.672,0,0,0,.723.518c.129,0,.27-.367.313-.852s0-.885-.173-.9a1.824,1.824,0,0,0-.8.4,4.577,4.577,0,0,0-.076-.863,1.338,1.338,0,0,0,.626.108c.1,0,.076-.367-.054-.734s-.313-.637-.421-.593a1.424,1.424,0,0,0-.378.41,4.008,4.008,0,0,0-.205-.5.593.593,0,0,0,.335,0c.076,0,0-.237,0-.475s-.205-.421-.27-.4a.852.852,0,0,0-.3.367,4.313,4.313,0,0,0-.421-.572,1.7,1.7,0,0,0,.885-.173c.1-.1-.086-.453-.421-.809s-.669-.561-.766-.475a1.64,1.64,0,0,0-.248.917,5.823,5.823,0,0,0-.8-.55,1.209,1.209,0,0,0,.6-.432c0-.1-.205-.3-.561-.453s-.691-.194-.734-.1a1.414,1.414,0,0,0,.108.712,5.178,5.178,0,0,0-1.155-.291,1.662,1.662,0,0,0,.464-.745c0-.129-.388-.248-.863-.259s-.885.086-.885.216a1.608,1.608,0,0,0,.421.745,6.535,6.535,0,0,0-.82.108,1.36,1.36,0,0,0,0-.583c0-.1-.367,0-.723.086s-.615.356-.572.453a1.143,1.143,0,0,0,.367.324l-.4.194a.54.54,0,0,0,0-.27c0-.065-.237,0-.475.065s-.41.237-.378.3a1,1,0,0,0,.3.248,3.745,3.745,0,0,0-.464.378,1.629,1.629,0,0,0-.227-.766c-.1-.1-.453.108-.788.453s-.529.712-.432.8a1.608,1.608,0,0,0,.831.205,3.819,3.819,0,0,0-.442.723,1.317,1.317,0,0,0-.421-.486c-.1,0-.291.227-.421.593s-.162.691-.065.723a1.165,1.165,0,0,0,.6-.086,6.477,6.477,0,0,0-.162.658,1.5,1.5,0,0,0-.647-.421c-.14,0-.27.367-.3.852s0,.874.173.885a1.575,1.575,0,0,0,.723-.335,3.622,3.622,0,0,0,.086.766,1.36,1.36,0,0,0-.55-.076c-.1,0-.076.367.054.734s.324.637.432.593a1.176,1.176,0,0,0,.335-.356c0,.14.119.281.183.41a.906.906,0,0,0-.27,0c-.065,0,0,.237,0,.486s.216.421.281.388a.821.821,0,0,0,.281-.313,5.878,5.878,0,0,0,.4.507,1.554,1.554,0,0,0-.831.194c-.1.086.1.442.421.8s.68.561.777.464a1.6,1.6,0,0,0,.237-.9,4.488,4.488,0,0,0,.809.518,1.359,1.359,0,0,0-.6.432c0,.1.216.3.572.453s.691.183.723.086a1.327,1.327,0,0,0-.108-.723,4.866,4.866,0,0,0,1.187.27,1.694,1.694,0,0,0-.486.766C289.486,127.509,289.874,127.617,290.36,127.628Z" transform="translate(-89.409 -65.626)" fill="#407bff" opacity="0.5"/>
      <path id="Caminho_8191" data-name="Caminho 8191" d="M325.471,96.116c.14-.227.194-.432.14-.475a.96.96,0,0,0-.5,0,2.6,2.6,0,0,0,.173-.453.658.658,0,0,0,.281.205c.065,0,.129-.151.162-.356s0-.388-.065-.4a.863.863,0,0,0-.281.108,2.643,2.643,0,0,0,0-.291.4.4,0,0,0,.162.108.441.441,0,0,0,.1-.237,1.731,1.731,0,0,0,0-.259.367.367,0,0,0-.237.108.717.717,0,0,0-.076-.388.852.852,0,0,0,.475.129c.076,0,.076-.237,0-.486s-.194-.442-.259-.421a.9.9,0,0,0-.345.388,2.415,2.415,0,0,0-.237-.432.852.852,0,0,0,.313,0,.667.667,0,0,0-.1-.324c-.1-.151-.216-.248-.248-.227a.636.636,0,0,0-.151.313,4.323,4.323,0,0,0-.313-.313,1.079,1.079,0,0,0,.432-.194.686.686,0,0,0-.313-.388c-.216-.151-.421-.216-.464-.162a1,1,0,0,0,0,.486,2.513,2.513,0,0,0-.421-.205.636.636,0,0,0,.216-.259.761.761,0,0,0-.345-.183,1.078,1.078,0,0,0-.4,0,.615.615,0,0,0,.086.291,1.338,1.338,0,0,0-.291,0,.378.378,0,0,0,.119-.151.6.6,0,0,0-.237-.119.6.6,0,0,0-.259,0,.637.637,0,0,0,.086.237H322.3a.906.906,0,0,0,.162-.453c0-.076-.237-.086-.486,0s-.453.162-.442.227a.885.885,0,0,0,.367.367,3.829,3.829,0,0,0-.475.227.8.8,0,0,0,0-.4.659.659,0,0,0-.378.14c-.173.14-.27.259-.237.313a.658.658,0,0,0,.356.14,3.086,3.086,0,0,0-.453.464.907.907,0,0,0-.216-.421c-.065,0-.227.108-.367.335s-.194.432-.129.464a.777.777,0,0,0,.464,0,3.424,3.424,0,0,0-.183.41.658.658,0,0,0-.248-.183c-.065,0-.129.151-.162.367s0,.378.054.388a.593.593,0,0,0,.248-.086c0,.086,0,.162,0,.248a.312.312,0,0,0-.119-.086.5.5,0,0,0-.1.248,1.786,1.786,0,0,0,0,.259.669.669,0,0,0,.194-.076.684.684,0,0,0,.054.324.928.928,0,0,0-.421-.108c-.076,0-.076.237,0,.486s.183.442.259.421a.874.874,0,0,0,.313-.324,2.849,2.849,0,0,0,.216.4.906.906,0,0,0-.345.065.586.586,0,0,0,.162.367c.162.173.281.259.335.227a.84.84,0,0,0,.119-.313,1.955,1.955,0,0,0,.259.259,1.079,1.079,0,0,0-.378.183.681.681,0,0,0,.324.378c.216.14.421.216.464.162a.928.928,0,0,0,0-.432,2.04,2.04,0,0,0,.388.173.539.539,0,0,0-.183.237.694.694,0,0,0,.356.173,1.318,1.318,0,0,0,.388,0,.561.561,0,0,0-.076-.259h.248a.28.28,0,0,0-.086.129.509.509,0,0,0,.237.108.9.9,0,0,0,.259,0,.561.561,0,0,0-.076-.216,1.78,1.78,0,0,0,.345,0,.863.863,0,0,0-.14.442c0,.065.237.076.5,0s.442-.173.432-.237a.9.9,0,0,0-.356-.356,2.69,2.69,0,0,0,.464-.237.8.8,0,0,0,0,.4.617.617,0,0,0,.367-.14c.162-.14.281-.27.248-.313a.853.853,0,0,0-.378-.151,2.158,2.158,0,0,0,.453-.475.95.95,0,0,0,.227.432C325.179,96.494,325.341,96.375,325.471,96.116Z" transform="translate(-86.635 -67.565)" fill="#407bff" opacity="0.5"/>
      <path id="Caminho_8192" data-name="Caminho 8192" d="M193.244,239.018c-.237-.119-.453-.151-.486-.086a.906.906,0,0,0,0,.486,2.3,2.3,0,0,0-.464-.14.745.745,0,0,0,.194-.3.889.889,0,0,0-.378-.119c-.205-.011-.388,0-.388.086a.82.82,0,0,0,.129.281h-.291a.485.485,0,0,0,.1-.173.477.477,0,0,0-.248-.076h-.259a.5.5,0,0,0,.129.227,2.164,2.164,0,0,0-.378.1.809.809,0,0,0,.086-.475c0-.076-.237-.054-.486,0s-.421.227-.388.291a.777.777,0,0,0,.41.3c-.14.086-.281.173-.41.27a.626.626,0,0,0,0-.3.5.5,0,0,0-.313.129c-.14.129-.227.227-.194.259a.507.507,0,0,0,.313.119,4.472,4.472,0,0,0-.291.345.96.96,0,0,0-.227-.421c-.065,0-.216.119-.356.345s-.183.442-.119.475a.874.874,0,0,0,.475,0,3.655,3.655,0,0,0-.162.442.712.712,0,0,0-.281-.194c-.054,0-.119.151-.151.367s0,.378.065.388a.659.659,0,0,0,.281-.108,2.635,2.635,0,0,0,0,.291.486.486,0,0,0-.151-.108.587.587,0,0,0-.108.237.9.9,0,0,0,0,.259.388.388,0,0,0,.237-.108,2.159,2.159,0,0,0,.065.378,1.014,1.014,0,0,0-.464-.119c-.076,0-.065.237,0,.5s.194.432.259.41a.885.885,0,0,0,.335-.388,2.394,2.394,0,0,0,.27.453.8.8,0,0,0-.4.065.548.548,0,0,0,.162.356c.162.162.291.259.335.216a.648.648,0,0,0,.119-.367,2.7,2.7,0,0,0,.5.421.993.993,0,0,0-.41.248c0,.065.129.216.367.335s.442.162.486.1a.907.907,0,0,0,0-.464,2.158,2.158,0,0,0,.421.14.7.7,0,0,0-.162.27c0,.065.162.119.378.129s.378,0,.388-.086a.669.669,0,0,0-.108-.237h.237l-.065.119a.554.554,0,0,0,.248.086c.14.011.259,0,.259-.054a.442.442,0,0,0-.1-.194l.324-.076a.971.971,0,0,0-.076.432c0,.065.248,0,.5,0s.421-.216.388-.291a.885.885,0,0,0-.356-.291,2.334,2.334,0,0,0,.388-.237.723.723,0,0,0,.1.334.474.474,0,0,0,.345-.194c.151-.194.237-.3.194-.345a.691.691,0,0,0-.313-.1,2.967,2.967,0,0,0,.237-.281.939.939,0,0,0,.216.367c.065,0,.216-.129.345-.356s.183-.432.129-.475a.917.917,0,0,0-.432,0,1.612,1.612,0,0,1,.14-.4.852.852,0,0,0,.248.173c.054,0,.119-.162.14-.378s0-.378-.065-.388a.68.68,0,0,0-.248.1,1.911,1.911,0,0,0,0-.248l.119.076a.441.441,0,0,0,.1-.237,1.734,1.734,0,0,0,0-.259.551.551,0,0,0-.205.086.594.594,0,0,0-.076-.345.907.907,0,0,0,.453.108c.065,0,0-.237,0-.486s-.205-.442-.27-.41a.777.777,0,0,0-.324.378,2.311,2.311,0,0,0-.27-.442.755.755,0,0,0,.388-.065c.054,0,0-.205-.173-.356s-.291-.259-.335-.216a.831.831,0,0,0-.108.378,2.794,2.794,0,0,0-.518-.41.961.961,0,0,0,.421-.259A1.282,1.282,0,0,0,193.244,239.018Z" transform="translate(-96.993 -55.904)" fill="#407bff" opacity="0.3"/>
      <path id="Caminho_8193" data-name="Caminho 8193" d="M207.815,116.508c.464-.151.809-.367.766-.5a1.727,1.727,0,0,0-.691-.6,4.315,4.315,0,0,0,.809-.4,1.079,1.079,0,0,0,.129.637c.065.086.356-.054.658-.313s.475-.529.4-.6a1.209,1.209,0,0,0-.529-.205c.14-.129.259-.259.388-.388a.766.766,0,0,0,.086.345.646.646,0,0,0,.432-.205c.194-.205.313-.356.27-.41a.928.928,0,0,0-.464-.14,4.478,4.478,0,0,0,.378-.615,1.694,1.694,0,0,0,.5.766c.119,0,.388-.248.593-.68s.281-.842.151-.9a1.64,1.64,0,0,0-.95.119,4.315,4.315,0,0,0,.216-.9,1.079,1.079,0,0,0,.442.367c.1,0,.205-.237.259-.561s0-.6-.076-.626a1.3,1.3,0,0,0-.583.259,4.251,4.251,0,0,0,0-.831,1.672,1.672,0,0,0,.842.27c.13,0,.14-.442,0-.906s-.3-.831-.432-.8a1.672,1.672,0,0,0-.637.615,4.316,4.316,0,0,0-.345-.8,1.252,1.252,0,0,0,.637-.086c.086-.065,0-.367-.27-.68s-.5-.507-.583-.442a1.144,1.144,0,0,0-.237.507,3.138,3.138,0,0,0-.356-.4.863.863,0,0,0,.345-.065c.054,0,0-.248-.183-.453s-.324-.335-.378-.291a.82.82,0,0,0-.173.442,5.07,5.07,0,0,0-.572-.41,1.662,1.662,0,0,0,.777-.442c.065-.119-.216-.4-.647-.637s-.809-.335-.874-.216a1.554,1.554,0,0,0,.054.95,4.705,4.705,0,0,0-.939-.281,1.392,1.392,0,0,0,.453-.593c0-.108-.291-.227-.68-.259s-.712,0-.723.129a1.273,1.273,0,0,0,.313.637A5.536,5.536,0,0,0,205.2,106a1.705,1.705,0,0,0,.216-.842c0-.129-.442-.119-.906,0s-.809.356-.766.486a1.64,1.64,0,0,0,.626.583,4.369,4.369,0,0,0-.755.345A1.3,1.3,0,0,0,203.5,106c-.076-.076-.367,0-.669.313s-.475.518-.41.6a1.317,1.317,0,0,0,.453.194l-.324.3a.68.68,0,0,0-.076-.259c0-.054-.237,0-.432.205s-.324.345-.27.41a.9.9,0,0,0,.367.14,5.9,5.9,0,0,0-.334.507,1.726,1.726,0,0,0-.442-.669c-.129,0-.4.248-.6.68s-.291.831-.173.9a1.78,1.78,0,0,0,.852-.065,4.145,4.145,0,0,0-.205.82,1.273,1.273,0,0,0-.55-.335c-.108,0-.205.313-.216.7s.054.7.162.712a1.4,1.4,0,0,0,.54-.27,5.143,5.143,0,0,0,.065.68,1.565,1.565,0,0,0-.755-.216c-.129,0-.151.442,0,.906s.313.831.453.8a1.769,1.769,0,0,0,.572-.55,4.238,4.238,0,0,0,.324.712,1.079,1.079,0,0,0-.55.1c-.086.065,0,.367.281.68s.5.5.583.432a1.241,1.241,0,0,0,.216-.442,4.449,4.449,0,0,0,.3.335.669.669,0,0,0-.27.065.726.726,0,0,0,.183.442c.183.205.335.335.388.291a.961.961,0,0,0,.162-.388,5.812,5.812,0,0,0,.54.356,1.7,1.7,0,0,0-.734.442c-.065.119.227.4.647.637s.82.324.885.205a1.565,1.565,0,0,0-.054-.928,4.715,4.715,0,0,0,.928.248,1.4,1.4,0,0,0-.442.593c0,.108.3.227.691.259s.7,0,.712-.14a1.359,1.359,0,0,0-.324-.658,4.586,4.586,0,0,0,1.209-.108,1.78,1.78,0,0,0-.227.885C206.952,116.659,207.362,116.649,207.815,116.508Z" transform="translate(-96.069 -66.473)" fill="#407bff" opacity="0.3"/>
      <path id="Caminho_8194" data-name="Caminho 8194" d="M282.61,173.935c.065-.259.054-.475,0-.5a.96.96,0,0,0-.475.162,1.842,1.842,0,0,0,0-.486.626.626,0,0,0,.335.108.581.581,0,0,0,0-.388c-.076-.205-.119-.367-.173-.356a.722.722,0,0,0-.237.194,1.449,1.449,0,0,0-.076-.291.324.324,0,0,0,.183,0v-.259c0-.14-.076-.237-.119-.237a.68.68,0,0,0-.194.183,2.061,2.061,0,0,0-.173-.345.928.928,0,0,0,.486,0c.065,0,0-.248-.151-.464s-.324-.367-.378-.324a.884.884,0,0,0-.205.475,2.612,2.612,0,0,0-.356-.335.82.82,0,0,0,.291-.108.7.7,0,0,0-.194-.281c-.14-.119-.281-.173-.313-.129a.626.626,0,0,0,0,.335,2.319,2.319,0,0,0-.4-.205.874.874,0,0,0,.356-.313c0-.076-.162-.194-.41-.27s-.464-.086-.486,0a.842.842,0,0,0,.108.464,3.427,3.427,0,0,0-.464-.065.637.637,0,0,0,.129-.313c0-.065-.183-.086-.388-.065s-.378.1-.367.151a.669.669,0,0,0,.173.248l-.291.054a.615.615,0,0,0,.076-.173.369.369,0,0,0-.259,0c-.129.054-.248.065-.248.1a.464.464,0,0,0,.162.205l-.356.151a.82.82,0,0,0,0-.486c0-.054-.248,0-.475.13s-.378.291-.345.356a.907.907,0,0,0,.464.227,2.493,2.493,0,0,0-.388.367.7.7,0,0,0-.151-.378.835.835,0,0,0-.313.248c-.129.173-.183.335-.14.367a.669.669,0,0,0,.388,0,2.948,2.948,0,0,0-.291.583.863.863,0,0,0-.335-.335c-.065,0-.173.173-.237.421s-.054.475,0,.5a.9.9,0,0,0,.442-.14,3.246,3.246,0,0,0,0,.453.55.55,0,0,0-.3-.1c-.054,0-.065.183,0,.388s.108.367.173.356a.637.637,0,0,0,.216-.151,1.729,1.729,0,0,0,.054.227h-.14a.36.36,0,0,0,0,.259c.054.14.076.248.119.237a.356.356,0,0,0,.162-.129c0,.1.1.194.151.291a.788.788,0,0,0-.432,0c-.065,0,0,.248.151.464s.3.356.367.324a.993.993,0,0,0,.205-.421,2.3,2.3,0,0,0,.324.324.8.8,0,0,0-.3.162.816.816,0,0,0,.27.3c.183.119.345.162.378.108a.82.82,0,0,0,0-.324,1.814,1.814,0,0,0,.324.162.949.949,0,0,0-.3.291c0,.076.173.194.421.27s.464.076.486,0a.733.733,0,0,0-.1-.41h.421a.6.6,0,0,0-.1.281c0,.054.183.076.388.054s.367-.1.367-.151a.863.863,0,0,0-.151-.227h.237a.324.324,0,0,0,0,.14.36.36,0,0,0,.259,0c.14-.054.248-.065.237-.1a.431.431,0,0,0-.129-.183l.313-.151a.917.917,0,0,0,0,.464c0,.054.248,0,.475-.129s.378-.3.345-.356a.95.95,0,0,0-.453-.237,2.3,2.3,0,0,0,.367-.356.777.777,0,0,0,.162.367.762.762,0,0,0,.3-.248c.119-.173.183-.345.14-.378a.712.712,0,0,0-.4,0,2.374,2.374,0,0,0,.281-.6.28.28,0,1,0,.507-.054Z" transform="translate(-90.065 -61.337)" fill="#407bff" opacity="0.7"/>
      <path id="Caminho_8195" data-name="Caminho 8195" d="M153.854,192.862c.1-.4.076-.745,0-.777a1.327,1.327,0,0,0-.734.248,4.564,4.564,0,0,0,0-.766,1.2,1.2,0,0,0,.529.183c.086,0,.108-.291.054-.615s-.183-.583-.281-.561a1.079,1.079,0,0,0-.378.3,2.34,2.34,0,0,0-.119-.453.637.637,0,0,0,.291.086c.065,0,.076-.194,0-.41s-.129-.378-.183-.367a.777.777,0,0,0-.3.27,5.2,5.2,0,0,0-.291-.54,1.392,1.392,0,0,0,.777,0c.1-.065,0-.388-.248-.734s-.5-.561-.593-.5a1.467,1.467,0,0,0-.313.745,5.318,5.318,0,0,0-.561-.54.938.938,0,0,0,.453-.162c.054-.065-.086-.259-.3-.432s-.432-.27-.486-.216a.993.993,0,0,0-.065.54,3.53,3.53,0,0,0-.637-.324,1.381,1.381,0,0,0,.561-.507c0-.108-.248-.291-.647-.41s-.734-.14-.766,0a1.446,1.446,0,0,0,.173.723,4.133,4.133,0,0,0-.723-.086,1.381,1.381,0,0,0,.205-.5c0-.1-.291-.14-.615-.1s-.593.14-.583.237a1.306,1.306,0,0,0,.27.388,2.908,2.908,0,0,0-.442.086.637.637,0,0,0,.1-.281c0-.054-.183-.086-.4-.065s-.388.1-.388.162a.863.863,0,0,0,.248.313,3.474,3.474,0,0,0-.54.248,1.381,1.381,0,0,0,0-.766c0-.1-.388,0-.745.194s-.593.453-.54.55a1.4,1.4,0,0,0,.712.378,4.229,4.229,0,0,0-.6.561,1.079,1.079,0,0,0-.237-.583.882.882,0,0,0-.486.388c-.194.27-.291.529-.216.583a1.176,1.176,0,0,0,.6,0,4.445,4.445,0,0,0-.453.906,1.467,1.467,0,0,0-.529-.529c-.108,0-.281.281-.378.68s-.1.734,0,.766a1.349,1.349,0,0,0,.691-.205,3.852,3.852,0,0,0-.065.7,1.079,1.079,0,0,0-.475-.162c-.086,0-.108.291,0,.626s.173.572.27.561a1.165,1.165,0,0,0,.335-.248.578.578,0,0,0,.086.367.453.453,0,0,0-.216,0c-.065,0-.086.194,0,.41s.119.378.173.367a.82.82,0,0,0,.27-.205,4.432,4.432,0,0,0,.227.453,1.446,1.446,0,0,0-.68,0c-.1.065,0,.4.237.745s.486.561.583.507a1.4,1.4,0,0,0,.313-.658,4.585,4.585,0,0,0,.518.507,1.079,1.079,0,0,0-.475.259c-.054.076.129.281.41.464s.55.259.593.183a1.079,1.079,0,0,0,0-.518,2.858,2.858,0,0,0,.518.248,1.349,1.349,0,0,0-.475.475c0,.108.259.291.647.4s.745.129.777,0a1.371,1.371,0,0,0-.151-.658,3.4,3.4,0,0,0,.658.065.95.95,0,0,0-.162.442c0,.1.281.129.615.086s.583-.151.572-.237a1.079,1.079,0,0,0-.237-.345l.378-.086a.6.6,0,0,0-.065.227c0,.065.183.086.4.065s.388-.108.388-.162a.863.863,0,0,0-.216-.291,4.187,4.187,0,0,0,.5-.237,1.3,1.3,0,0,0,0,.723c.065.1.388,0,.745-.205s.593-.453.529-.55a1.316,1.316,0,0,0-.691-.367,3.58,3.58,0,0,0,.572-.572,1.187,1.187,0,0,0,.248.583c.076.054.291-.119.486-.388s.281-.54.205-.593a1.165,1.165,0,0,0-.626,0,4.025,4.025,0,0,0,.442-.95,1.338,1.338,0,0,0,.55.55C153.595,193.563,153.714,193.261,153.854,192.862Z" transform="translate(-100.527 -60.01)" fill="#407bff" opacity="0.7"/>
    </g>
    <g id="freepik--Character--inject-2" transform="translate(248.632 147.2)">
      <path id="Caminho_8196" data-name="Caminho 8196" d="M398.631,226a201.633,201.633,0,0,1,5.4,20.189c.712,3.421,1.36,6.863,1.834,10.37a87.4,87.4,0,0,1,.96,10.79v1.068a8.637,8.637,0,0,1-.086,1.295,7.91,7.91,0,0,1-1.716,3.766,11.869,11.869,0,0,1-3.528,2.913,29.9,29.9,0,0,1-5.708,2.363,81.3,81.3,0,0,1-10.521,2.417,157.877,157.877,0,0,1-20.664,2.018l-.788-6.151c6.474-1.6,13.056-3.237,19.369-5.1a94.042,94.042,0,0,0,9.075-3.108,19.164,19.164,0,0,0,3.55-1.834c.4-.259.647-.594.367-.313a2.924,2.924,0,0,0-.615,1.467,2.232,2.232,0,0,0,0,.658v-.259l-.065-.583a140.722,140.722,0,0,0-3.55-19.024c-1.565-6.388-3.345-12.884-5.179-19.142Z" transform="translate(-219.874 -133.683)" fill="#ffb573"/>
      <path id="Caminho_8197" data-name="Caminho 8197" d="M348.827,279.844l4.726,4.316a3.647,3.647,0,0,0,4.057.593l5.223-2.514s7.737-.313,8.837-5.05l-2-3.669-11.967-1.338a5.622,5.622,0,0,0-3.529.788l-4.942,3.021a2.417,2.417,0,0,0-.41,3.852Z" transform="translate(-221.12 -130.035)" fill="#ffb573"/>
      <path id="Caminho_8198" data-name="Caminho 8198" d="M376.673,180.91c-1.23,7.4-2.266,20.944,3.032,25.7,0,0-12.949,6.776-21.419,18.6-9.075-7.186-1.478-17.912-1.478-17.912,8.158-2.212,7.769-8.3,6.161-14.028Z" transform="translate(-220.663 -137.248)" fill="#ffb573"/>
      <path id="Caminho_8199" data-name="Caminho 8199" d="M352.55,207.829a8.125,8.125,0,0,1,4.111-5.277c3.431-1.748,24.2-.259,24.2-.259l4.068,4.78Z" transform="translate(-220.764 -135.604)" fill="#407bff"/>
      <path id="Caminho_8200" data-name="Caminho 8200" d="M393.8,207.823c7.855,3.108,9.291,23.922,9.215,23.361l-18.8,11.265s-4.813-13.348-4.78-20.944C379.483,213.444,387.6,205.373,393.8,207.823Z" transform="translate(-218.639 -135.156)" fill="#263238"/>
      <path id="Caminho_8201" data-name="Caminho 8201" d="M336.414,224.85c.788,10.7,3.172,28.757,9.042,59.121l50.413-1.489c-1.316-18.614.68-32.49,5.233-65.067a10.585,10.585,0,0,0-9.409-12c-3.237-.335-6.917-.6-10.618-.68-8.492-.151-15.452-.216-22.9.691-2.449.291-5,.68-7.413,1.079a17.265,17.265,0,0,0-14.351,18.344Z" transform="translate(-222.044 -135.371)" fill="#263238"/>
      <path id="Caminho_8202" data-name="Caminho 8202" d="M350.984,168.413c-.119.993-.745,1.737-1.392,1.651s-1.079-.939-.96-1.942.745-1.737,1.392-1.651S351.1,167.409,350.984,168.413Z" transform="translate(-221.075 -138.39)" fill="#263238"/>
      <path id="Caminho_8203" data-name="Caminho 8203" d="M350.349,166.621l-2.309-.971S349.076,167.657,350.349,166.621Z" transform="translate(-221.121 -138.454)" fill="#263238"/>
      <path id="Caminho_8204" data-name="Caminho 8204" d="M350.806,169.7a26.611,26.611,0,0,1-4.316,5.913c1.165,1.392,3.464,1.079,3.464,1.079Z" transform="translate(-221.243 -138.134)" fill="#ed893e"/>
      <path id="Caminho_8205" data-name="Caminho 8205" d="M350.708,160.247a.583.583,0,0,1,.745-.852,5.805,5.805,0,0,1,3.345,4.2.588.588,0,1,1-1.165.151h0a4.661,4.661,0,0,0-2.687-3.237.55.55,0,0,1-.237-.259Z" transform="translate(-220.918 -138.954)" fill="#263238"/>
      <path id="Caminho_8206" data-name="Caminho 8206" d="M385.271,169.526c-2.212,12.118-2.892,17.265-9.819,22.833-10.4,8.319-24.818,2.946-26.264-9.593-1.316-11.3,2.525-29.231,15.107-32.652a16.812,16.812,0,0,1,20.977,19.412Z" transform="translate(-221.049 -139.73)" fill="#ffb573"/>
      <path id="Caminho_8207" data-name="Caminho 8207" d="M356.93,152.723c-10.866,3.237-.971,16.984,3.69,19.995-3.108,4.316-9.388,25.368,10.65,30.213s21.667-18.236,17.2-22.843c11.934-13.5,3.313-26.534-3.151-30.872C377.065,143.7,357.879,139.861,356.93,152.723Z" transform="translate(-220.806 -140.159)" fill="#263238"/>
      <path id="Caminho_8208" data-name="Caminho 8208" d="M376.76,149.266c.637-4.37,10.726-14.028,16.283-5.266,4.759,7.478-7.273,11.87-10.618,11.7S376.76,149.266,376.76,149.266Z" transform="translate(-218.85 -140.446)" fill="#263238"/>
      <path id="Caminho_8209" data-name="Caminho 8209" d="M362.373,173.485a9.712,9.712,0,0,1-5.719,4.672c-3.237.95-4.92-1.942-4.057-5.039.788-2.784,3.421-6.625,6.7-6.226S363.84,170.669,362.373,173.485Z" transform="translate(-220.778 -138.358)" fill="#ffb573"/>
      <path id="Caminho_8210" data-name="Caminho 8210" d="M306.777,413.448l-11.967-.216,3.064-29.792,11.967.216Z" transform="translate(-225.328 -121.238)" fill="#ffb573"/>
      <path id="Caminho_8211" data-name="Caminho 8211" d="M295.972,402.44l13.941.583a.96.96,0,0,1,.939.885l.95,9.992a2.158,2.158,0,0,1-1.932,2.3c-4.1.593-6.474-.529-12.636-.788-3.777-.151-13.92.216-18.775-1.683s-3.151-6.776-.95-6.41c9.852,1.608,12.949-1.586,16.348-4.2a3.237,3.237,0,0,1,2.115-.68Z" transform="translate(-226.868 -119.737)" fill="#263238"/>
      <g id="Grupo_3401" data-name="Grupo 3401" transform="translate(70.971 262.202)" opacity="0.2">
        <path id="Caminho_8212" data-name="Caminho 8212" d="M297.765,383.44l-1.575,15.366,11.967.216,1.586-15.355Z" transform="translate(-296.19 -383.44)"/>
      </g>
      <path id="Caminho_8213" data-name="Caminho 8213" d="M263.237,387.043,252.5,381.324,263.862,354.1l8.891,15.117Z" transform="translate(-228.673 -123.558)" fill="#ffb573"/>
      <path id="Caminho_8214" data-name="Caminho 8214" d="M255.271,374.423l11.967,7.176a.982.982,0,0,1,.4,1.23l-4.478,10.186a2.039,2.039,0,0,1-2.881.853c-4.122-2.579-5.989-4.025-11.244-7.186-3.237-1.942-11.654-6.615-16.121-9.3s-1.985-7.2.129-6.474c9.442,3.237,15.776,3.744,20.049,3.1a3.237,3.237,0,0,1,2.18.421Z" transform="translate(-230.418 -122.235)" fill="#263238"/>
      <g id="Grupo_3402" data-name="Grupo 3402" transform="translate(29.33 230.553)" opacity="0.2">
        <path id="Caminho_8215" data-name="Caminho 8215" d="M263.459,354.11,257.6,368.138l11.934,6.366,2.827-5.277Z" transform="translate(-257.6 -354.11)"/>
      </g>
      <path id="Caminho_8216" data-name="Caminho 8216" d="M369.272,277.643s-86.324-13.391-90.079,8.848C272.6,325.2,257.44,369.513,257.44,369.513l14.028,9.571S294.333,338.62,307,302.051c15.107,4.888,58.269,21.969,75.835,21.969,18.819,0,26.5-16.045,19.7-42.7a5.4,5.4,0,0,0-5.223-4C385.5,277.373,369.272,277.643,369.272,277.643Z" transform="translate(-228.282 -129.917)" fill="#407bff"/>
      <path id="Caminho_8217" data-name="Caminho 8217" d="M258.111,355.44l-1.1,7.694,14.621,10.154,4.467-5.557Z" transform="translate(-228.316 -123.452)" fill="#263238"/>
      <path id="Caminho_8218" data-name="Caminho 8218" d="M292.187,305.25c-.183,4.6-2.59,20.664-3.777,33.45,2.417-5.179,4.9-10.672,7.284-16.283Z" transform="translate(-225.834 -127.419)" opacity="0.2"/>
      <path id="Caminho_8219" data-name="Caminho 8219" d="M358.843,288.021s-70.58-.388-68.379,23.243c3.647,39.094,3.712,92.2,3.712,92.2l17.373.874s9.28-41.835,10.068-80.529H373.41c19.747,0,28.282-21.689,9.064-46.992C370.669,276.777,358.843,288.021,358.843,288.021Z" transform="translate(-225.676 -129.666)" fill="#407bff"/>
      <path id="Caminho_8220" data-name="Caminho 8220" d="M293.476,394.908l-.906-6.8,20.7,1.554-1.554,6.345Z" transform="translate(-225.505 -120.869)" fill="#263238"/>
      <path id="Caminho_8221" data-name="Caminho 8221" d="M395.993,274.026l1.424,4.478c.183.345-.216.712-.8.734l-51.891,1.543c-.453,0-.842-.205-.874-.486l-.593-4.5c0-.313.345-.593.842-.6l51.061-1.521A.928.928,0,0,1,395.993,274.026Z" transform="translate(-221.498 -129.916)" fill="#fff"/>
      <path id="Caminho_8222" data-name="Caminho 8222" d="M386.029,279.964h1.37c.27,0,.475-.151.453-.324l-.82-5.838c0-.173-.259-.313-.54-.3h-1.36c-.281,0-.475.151-.453.324l.809,5.848C385.522,279.845,385.759,279.974,386.029,279.964Z" transform="translate(-218.224 -129.929)" fill="#263238"/>
      <path id="Caminho_8223" data-name="Caminho 8223" d="M348.289,281.084h1.37c.27,0,.475-.162.453-.335l-.82-5.838c0-.173-.259-.3-.54-.3h-1.36c-.281,0-.475.162-.453.324l.809,5.848C347.782,280.966,348.019,281.1,348.289,281.084Z" transform="translate(-221.208 -129.841)" fill="#263238"/>
      <path id="Caminho_8224" data-name="Caminho 8224" d="M367.158,280.527h1.37c.27,0,.475-.162.453-.335l-.809-5.87c0-.173-.259-.3-.54-.3h-1.36c-.281,0-.475.151-.453.324l.809,5.848C366.651,280.408,366.888,280.537,367.158,280.527Z" transform="translate(-219.715 -129.888)" fill="#263238"/>
      <path id="Caminho_8225" data-name="Caminho 8225" d="M351.045,229.577c0,3.5-.281,6.722-.561,10.068s-.712,6.636-1.219,9.949a88.676,88.676,0,0,1-5.309,20.006,37.771,37.771,0,0,1-2.579,5.039,12.3,12.3,0,0,1-.809,1.252l-.432.626-.108.162v.076l-.108.14-.442.55a9.528,9.528,0,0,1-2.439,1.985,9.032,9.032,0,0,1-3,1,10.585,10.585,0,0,1-4.769-.453,16.433,16.433,0,0,1-3.172-1.424,28.054,28.054,0,0,1-4.661-3.377,75.22,75.22,0,0,1-13.046-15.6l4.813-3.928,3.5,3.14,3.561,3.054a79.843,79.843,0,0,0,7.2,5.471,23.673,23.673,0,0,0,3.442,1.878,5.6,5.6,0,0,0,1.295.4c.291,0,.388-.065,0-.054a2.266,2.266,0,0,0-1.338.637.249.249,0,0,0-.076.076h0l.054-.1.227-.388c.151-.248.3-.507.442-.8a27.533,27.533,0,0,0,1.586-3.68,59.687,59.687,0,0,0,2.309-8.449c.626-2.935,1.079-5.967,1.521-9.021s.734-6.151,1.014-9.247.475-6.28.626-9.226Z" transform="translate(-224.255 -133.419)" fill="#ffb573"/>
      <path id="Caminho_8226" data-name="Caminho 8226" d="M340.785,212.737c-4.651,2.5-7.165,20.761-7.165,20.761l21.991,9.862s4.133-15.657.766-21.635C352.859,215.489,346.083,209.845,340.785,212.737Z" transform="translate(-222.26 -134.793)" fill="#263238"/>
      <rect id="Retângulo_6580" data-name="Retângulo 6580" width="18.15" height="23.717" rx="1.52" transform="translate(54.882 105.006)" fill="#263238"/>
      <path id="Caminho_8227" data-name="Caminho 8227" d="M297.167,258.547c-5.2,0-8.557-3.582-8.557-9.118s3.356-9.129,8.557-9.129,8.557,3.582,8.557,9.129S302.357,258.547,297.167,258.547Zm0-15.916c-3.841,0-6.226,2.6-6.226,6.8s2.385,6.787,6.226,6.787,6.226-2.6,6.226-6.787S301.008,242.631,297.167,242.631Z" transform="translate(-225.818 -132.553)" fill="#263238"/>
      <path id="Caminho_8228" data-name="Caminho 8228" d="M287.038,256.717l-3.8-7.424,3.8-7.413,3.787,7.413Z" transform="translate(-226.243 -132.428)" fill="#fff"/>
      <path id="Caminho_8229" data-name="Caminho 8229" d="M303.7,242.558l4.877,2.3a6.086,6.086,0,0,1,2.827,2.73l5.4,10.607-1.964,3.69c-4.554,1.683-9.086-4.608-9.086-4.608l-5.579-3.345a2.579,2.579,0,0,1-1.23-2.644l1.079-6.787a2.6,2.6,0,0,1,3.68-1.942Z" transform="translate(-225.004 -132.394)" fill="#ffb573"/>
      <path id="Caminho_8230" data-name="Caminho 8230" d="M413.071,297H382.059a20.61,20.61,0,0,0-16.423,8.158L354.252,320.2H318.374a4.316,4.316,0,0,0-4.133,2.957l-2.363,6.992a4.316,4.316,0,0,0,4.133,5.762h72.48a4.316,4.316,0,0,0,3.4-1.683l23.955-31.648A3.475,3.475,0,0,0,413.071,297Z" transform="translate(-223.999 -128.071)" fill="#263238"/>
      <path id="Caminho_8231" data-name="Caminho 8231" d="M369.891,420.669h-2.644l-40.1-87.629h2.633Z" transform="translate(-222.772 -125.222)" fill="#263238"/>
      <path id="Caminho_8232" data-name="Caminho 8232" d="M382.27,420.669h-2.633l-40.1-87.629h2.633Z" transform="translate(-221.792 -125.222)" fill="#263238"/>
      <path id="Caminho_8233" data-name="Caminho 8233" d="M335.43,420.669h2.633l40.1-87.629h-2.633Z" transform="translate(-222.117 -125.222)" fill="#263238"/>
      <path id="Caminho_8234" data-name="Caminho 8234" d="M323.04,420.669h2.633l40.1-87.629h-2.633Z" transform="translate(-223.097 -125.222)" fill="#263238"/>
    </g>
    <g id="freepik--Plant--inject-2" transform="translate(67.3 248.899)">
      <path id="Caminho_8235" data-name="Caminho 8235" d="M152.613,389.73C150,351.521,137.129,258.323,128.551,245.073s-64.851,5.05-64.851,5.05,51.729-3.626,58.484-1.673,6.474,1.079,8.708,7.284,8.967,40.68,11.438,58.355,8.449,69.275,8.319,75.641Z" transform="translate(-62.265 -234.255)" fill="#407bff"/>
      <path id="Caminho_8236" data-name="Caminho 8236" d="M130.868,252.672c2.935,1.306-4.413-7.672-10-6.474-4.1.863-43.281,12.873-58.5,33.019C81.394,267.574,125.926,250.46,130.868,252.672Z" transform="translate(-62.37 -233.795)" fill="#407bff"/>
      <path id="Caminho_8237" data-name="Caminho 8237" d="M130.686,253.767c1.521,2.072-1.867-11.308-6.075-12.949-3.1-1.2-33.958-10.219-51.471-3.9C90.146,237.646,128.128,250.26,130.686,253.767Z" transform="translate(-61.519 -234.695)" fill="#407bff"/>
      <path id="Caminho_8238" data-name="Caminho 8238" d="M148.322,387c-.885-28.659,1.856-98.582,7.316-108.531s49.032,3.8,49.032,3.8-39.083-2.719-44-1.262-4.8.788-6,5.46-3.712,30.526-4.251,43.788-1.2,51.967-.626,56.747Z" transform="translate(-55.589 -231.521)" fill="#407bff"/>
      <path id="Caminho_8239" data-name="Caminho 8239" d="M154.137,284.173c-2.093.982,2.752-5.751,7.035-4.877,3.14.647,33.45,9.647,46.323,24.764C192.4,295.384,157.687,282.511,154.137,284.173Z" transform="translate(-55.156 -231.176)" fill="#407bff"/>
      <path id="Caminho_8240" data-name="Caminho 8240" d="M153.671,284.988c-.982,1.565.572-8.481,3.6-9.711,2.234-.9,24.721-7.661,38.328-2.924C182.892,272.9,155.333,282.366,153.671,284.988Z" transform="translate(-55.176 -231.85)" fill="#407bff"/>
      <path id="Caminho_8241" data-name="Caminho 8241" d="M153.574,288.575c-.647,1,.335-8.46,2.342-7.823,1.478.464,16.348,7.553,25.4,21.063C172.889,294.348,154.664,286.86,153.574,288.575Z" transform="translate(-55.176 -231.057)" fill="#407bff"/>
      <path id="Caminho_8242" data-name="Caminho 8242" d="M152.787,291.134c-.518.8,1.133-7.553,2.342-6.679.9.658,9.711,9.355,14.028,22.887C164.527,299.356,153.672,289.785,152.787,291.134Z" transform="translate(-55.231 -230.767)" fill="#407bff"/>
      <path id="Caminho_8243" data-name="Caminho 8243" d="M157.6,285.57c0,1.543,1.975-7.553,1.079-9.172-.68-1.165-8.158-10.79-14.988-8.859C148.74,270.1,157.6,282.98,157.6,285.57Z" transform="translate(-55.942 -232.119)" fill="#407bff"/>
      <path id="Caminho_8244" data-name="Caminho 8244" d="M154.369,291.122c0,1.295,3.367-11.567,2.158-12.614-.906-.766-10.175-6.474-20.847-3.183C141.831,275.961,154.369,281.194,154.369,291.122Z" transform="translate(-56.575 -231.564)" fill="#407bff"/>
      <path id="Caminho_8245" data-name="Caminho 8245" d="M128.72,362.35h42.86l-6.874,51.47H135.594Z" transform="translate(-57.125 -224.604)" fill="#407bff"/>
      <path id="Caminho_8246" data-name="Caminho 8246" d="M128.72,362.35h42.86l-6.874,51.47H135.594Z" transform="translate(-57.125 -224.604)" fill="#fff" opacity="0.6"/>
      <path id="Caminho_8247" data-name="Caminho 8247" d="M125.59,362.35h49.625l-2.9,7.931H128.482Z" transform="translate(-57.373 -224.604)" fill="#407bff"/>
      <path id="Caminho_8248" data-name="Caminho 8248" d="M125.59,362.35h49.625l-2.9,7.931H128.482Z" transform="translate(-57.373 -224.604)" fill="#fff" opacity="0.4"/>
    </g>
  </g>
</svg>
