<svg xmlns="http://www.w3.org/2000/svg" width="527.486" height="393.041" viewBox="0 0 527.486 393.041">
  <g id="Product_iteration-rafiki" data-name="Product iteration-rafiki" transform="translate(0 -55)">
    <g id="freepik--background-complete--inject-2" transform="translate(0 55)">
      <rect id="Retângulo_6615" data-name="Retângulo 6615" width="527.486" height="0.264" transform="translate(0 345.398)" fill="#ebebeb"/>
      <rect id="Retângulo_6616" data-name="Retângulo 6616" width="34.941" height="0.264" transform="translate(138.697 361.666)" fill="#ebebeb"/>
      <rect id="Retângulo_6617" data-name="Retângulo 6617" width="9.168" height="0.264" transform="translate(263.901 358.807)" fill="#ebebeb"/>
      <rect id="Retângulo_6618" data-name="Retângulo 6618" width="20.245" height="0.264" transform="translate(55.344 354.355)" fill="#ebebeb"/>
      <rect id="Retângulo_6619" data-name="Retângulo 6619" width="27.514" height="0.264" transform="translate(411.123 352.582)" fill="#ebebeb"/>
      <rect id="Retângulo_6620" data-name="Retângulo 6620" width="24.729" height="0.264" transform="translate(376.994 352.582)" fill="#ebebeb"/>
      <rect id="Retângulo_6621" data-name="Retângulo 6621" width="98.83" height="0.264" transform="translate(375.813 365.242)" fill="#ebebeb"/>
      <path id="Caminho_8377" data-name="Caminho 8377" d="M247.928,353.346H44.223a6.024,6.024,0,0,1-6.013-6.024V60.971A6.024,6.024,0,0,1,44.223,55h203.7a6.024,6.024,0,0,1,6.024,6.024v286.3A6.024,6.024,0,0,1,247.928,353.346ZM44.223,55.211a5.76,5.76,0,0,0-5.75,5.76V347.322a5.76,5.76,0,0,0,5.75,5.76h203.7a5.771,5.771,0,0,0,5.76-5.76V60.971a5.771,5.771,0,0,0-5.76-5.76Z" transform="translate(2.101 -55)" fill="#ebebeb"/>
      <path id="Caminho_8378" data-name="Caminho 8378" d="M464.239,353.346H260.524a6.034,6.034,0,0,1-6.024-6.024V60.971A6.034,6.034,0,0,1,260.524,55H464.239a6.024,6.024,0,0,1,6,5.971V347.322A6.024,6.024,0,0,1,464.239,353.346ZM260.524,55.211a5.771,5.771,0,0,0-5.76,5.76V347.322a5.771,5.771,0,0,0,5.76,5.76H464.239a5.771,5.771,0,0,0,5.76-5.76V60.971a5.771,5.771,0,0,0-5.76-5.76Z" transform="translate(13.991 -55)" fill="#ebebeb"/>
      <rect id="Retângulo_6622" data-name="Retângulo 6622" width="11.109" height="52.728" transform="translate(88.786 178.174)" fill="#f0f0f0"/>
      <rect id="Retângulo_6623" data-name="Retângulo 6623" width="7.533" height="35.753" transform="translate(90.569 182.236)" fill="#fafafa"/>
      <rect id="Retângulo_6624" data-name="Retângulo 6624" width="23.716" height="52.728" transform="translate(123.601 230.912) rotate(180)" fill="#e0e0e0"/>
      <rect id="Retângulo_6625" data-name="Retângulo 6625" width="11.109" height="52.728" transform="translate(102.206 178.174)" fill="#f0f0f0"/>
      <rect id="Retângulo_6626" data-name="Retângulo 6626" width="7.533" height="35.753" transform="translate(103.999 182.236)" fill="#fafafa"/>
      <rect id="Retângulo_6627" data-name="Retângulo 6627" width="23.716" height="52.728" transform="translate(137.03 230.912) rotate(180)" fill="#e0e0e0"/>
      <rect id="Retângulo_6628" data-name="Retângulo 6628" width="4.019" height="187.743" transform="translate(124.856 157.645)" fill="#ebebeb"/>
      <rect id="Retângulo_6629" data-name="Retângulo 6629" width="4.019" height="187.743" transform="translate(57.475 157.645)" fill="#ebebeb"/>
      <rect id="Retângulo_6630" data-name="Retângulo 6630" width="4.019" height="187.743" transform="translate(142.168 157.645)" fill="#ebebeb"/>
      <rect id="Retângulo_6631" data-name="Retângulo 6631" width="4.019" height="187.743" transform="translate(74.787 157.645)" fill="#ebebeb"/>
      <rect id="Retângulo_6632" data-name="Retângulo 6632" width="11.109" height="52.728" transform="translate(70.208 256.664)" fill="#f0f0f0"/>
      <rect id="Retângulo_6633" data-name="Retângulo 6633" width="7.533" height="35.753" transform="translate(72.002 260.726)" fill="#fafafa"/>
      <rect id="Retângulo_6634" data-name="Retângulo 6634" width="23.716" height="52.728" transform="translate(105.033 309.402) rotate(180)" fill="#e0e0e0"/>
      <rect id="Retângulo_6635" data-name="Retângulo 6635" width="11.109" height="52.728" transform="translate(83.638 256.664)" fill="#f0f0f0"/>
      <rect id="Retângulo_6636" data-name="Retângulo 6636" width="7.533" height="35.753" transform="translate(85.421 260.726)" fill="#fafafa"/>
      <rect id="Retângulo_6637" data-name="Retângulo 6637" width="23.716" height="52.728" transform="translate(118.452 309.402) rotate(180)" fill="#e0e0e0"/>
      <rect id="Retângulo_6638" data-name="Retângulo 6638" width="90.844" height="5.233" transform="translate(55.344 152.422)" fill="#f0f0f0"/>
      <rect id="Retângulo_6639" data-name="Retângulo 6639" width="90.844" height="5.233" transform="translate(55.344 230.912)" fill="#f0f0f0"/>
      <rect id="Retângulo_6640" data-name="Retângulo 6640" width="90.844" height="5.233" transform="translate(55.344 309.402)" fill="#f0f0f0"/>
      <rect id="Retângulo_6641" data-name="Retângulo 6641" width="62.085" height="78.036" transform="translate(147.506 111.901) rotate(180)" fill="#f0f0f0"/>
      <rect id="Retângulo_6642" data-name="Retângulo 6642" width="73.416" height="78.036" transform="translate(145.122 111.901) rotate(180)" fill="#f5f5f5"/>
      <rect id="Retângulo_6643" data-name="Retângulo 6643" width="65.735" height="61.115" transform="translate(77.868 105.75) rotate(-90)" fill="#fff"/>
      <circle id="Elipse_638" data-name="Elipse 638" cx="13.799" cy="13.799" r="13.799" transform="translate(94.62 59.078)" fill="#f0f0f0"/>
      <rect id="Retângulo_6644" data-name="Retângulo 6644" width="235.016" height="136.746" transform="translate(463.587 158.963) rotate(180)" fill="#f0f0f0"/>
      <rect id="Retângulo_6645" data-name="Retângulo 6645" width="262.54" height="136.746" transform="translate(457.067 158.963) rotate(180)" fill="#f5f5f5"/>
      <rect id="Retângulo_6646" data-name="Retângulo 6646" width="115.192" height="231.988" transform="translate(209.802 148.192) rotate(-90)" fill="#fff"/>
      <rect id="Retângulo_6647" data-name="Retângulo 6647" width="36.734" height="231.988" transform="translate(209.802 69.734) rotate(-90)" fill="#fafafa"/>
      <rect id="Retângulo_6648" data-name="Retângulo 6648" width="48.581" height="231.988" transform="translate(209.802 148.192) rotate(-90)" fill="#f0f0f0"/>
      <rect id="Retângulo_6649" data-name="Retângulo 6649" width="6.931" height="104.506" transform="translate(455.316 240.882)" fill="#e6e6e6"/>
      <rect id="Retângulo_6650" data-name="Retângulo 6650" width="4.811" height="104.506" transform="translate(459.62 240.882)" fill="#f0f0f0"/>
      <rect id="Retângulo_6651" data-name="Retângulo 6651" width="182.88" height="11.784" transform="translate(465.918 252.677) rotate(180)" fill="#f0f0f0"/>
      <rect id="Retângulo_6652" data-name="Retângulo 6652" width="6.931" height="92.722" transform="translate(273.006 252.666)" fill="#e6e6e6"/>
      <rect id="Retângulo_6653" data-name="Retângulo 6653" width="4.811" height="92.722" transform="translate(277.31 252.666)" fill="#f0f0f0"/>
      <rect id="Retângulo_6654" data-name="Retângulo 6654" width="6.931" height="92.722" transform="translate(229.161 252.666)" fill="#e6e6e6"/>
      <rect id="Retângulo_6655" data-name="Retângulo 6655" width="4.811" height="92.722" transform="translate(233.465 252.666)" fill="#e6e6e6"/>
      <rect id="Retângulo_6656" data-name="Retângulo 6656" width="6.931" height="92.722" transform="translate(411.471 252.666)" fill="#e6e6e6"/>
      <rect id="Retângulo_6657" data-name="Retângulo 6657" width="4.811" height="92.722" transform="translate(415.775 252.666)" fill="#e6e6e6"/>
      <rect id="Retângulo_6658" data-name="Retângulo 6658" width="53.877" height="11.784" transform="translate(229.161 240.882)" fill="#e6e6e6"/>
      <path id="Caminho_8379" data-name="Caminho 8379" d="M400.582,262.45c-5.9,6.594-27.039,13.461-33.284-7.258-4.547-15.054,20.867-26.195,36.08-26.839,16.384-.686,26.068,5.085,26.068,5.085a362.036,362.036,0,0,0-28.864,29.012Z" transform="translate(20.162 -45.473)" fill="#e6e6e6"/>
      <path id="Caminho_8380" data-name="Caminho 8380" d="M369.168,267.106c8.3.886,22.418-5.454,16.827-22.882s-17.006-19.053-24.56-20.509c-9.632-1.857-28.885,6.013-28.885,6.013S360.876,266.23,369.168,267.106Z" transform="translate(18.281 -45.741)" fill="#e6e6e6"/>
      <path id="Caminho_8381" data-name="Caminho 8381" d="M388.668,236.44c-10.455,4.747-19.222,6.33-14.274-8.44s10.972-21.891,20.793-24.9c12.512-3.84,27.366,4.41,27.366,4.41S399.112,231.693,388.668,236.44Z" transform="translate(20.503 -46.914)" fill="#e6e6e6"/>
      <path id="Caminho_8382" data-name="Caminho 8382" d="M376.049,235.4c7.976,2.363,14.263,1.867,8.313-12.385s-9.917-16.036-16.742-18.768c-12.66-5.053-23.209,4.019-23.209,4.019S368.062,233.04,376.049,235.4Z" transform="translate(18.933 -46.88)" fill="#e6e6e6"/>
      <path id="Caminho_8383" data-name="Caminho 8383" d="M391.71,212.9c-8.672,7.6-16.658,12.406-16.3.6s6.488-22.4,15.825-27.155c6.425-3.281,20.625-1.8,20.625-1.8S400.382,205.309,391.71,212.9Z" transform="translate(20.637 -47.897)" fill="#e6e6e6"/>
      <path id="Caminho_8384" data-name="Caminho 8384" d="M370.507,210.633c5.676,4.526,10.55,6.91,8.809-2.69s-4.958-12.174-10.381-15.561a19.8,19.8,0,0,0-14.485-2.226S364.831,206.108,370.507,210.633Z" transform="translate(19.485 -47.598)" fill="#e6e6e6"/>
      <path id="Caminho_8385" data-name="Caminho 8385" d="M409.67,260.45H352.68l7.5,24.138h41.988Z" transform="translate(19.388 -43.706)" fill="#f0f0f0"/>
    </g>
    <g id="freepik--Shadow--inject-2" transform="translate(59.195 424.156)">
      <ellipse id="freepik--path--inject-2" cx="204.549" cy="11.942" rx="204.549" ry="11.942" fill="#f5f5f5"/>
    </g>
    <g id="freepik--character-2--inject-2" transform="translate(237.711 127.489)">
      <path id="Caminho_8386" data-name="Caminho 8386" d="M290.5,185.839l-1.3,1.72c-.422.549-.865,1.055-1.3,1.593-.855,1.055-1.772,2.11-2.68,3.081a80.962,80.962,0,0,1-5.9,5.823c-1.055.939-2.11,1.857-3.281,2.753s-2.363,1.751-3.65,2.6a29.254,29.254,0,0,1-9.495,4.22l-.369.084a5.369,5.369,0,0,1-1.055.137,12.333,12.333,0,0,1-5.032-.886,15.581,15.581,0,0,1-3.165-1.7,27.733,27.733,0,0,1-4.22-3.661,54.309,54.309,0,0,1-5.866-7.459,88.078,88.078,0,0,1-4.515-7.691,84.128,84.128,0,0,1-3.714-8.018,4.22,4.22,0,0,1,7.1-4.368l.095.105,5.433,6.14c1.825,2.026,3.65,4.019,5.507,5.887a55.26,55.26,0,0,0,5.507,4.979A12.944,12.944,0,0,0,261,192.686a1.234,1.234,0,0,0,.57.148,1.482,1.482,0,0,0-.9-.2l-1.445.232a21.522,21.522,0,0,0,3.988-2.616,63.115,63.115,0,0,0,4.758-4.357c1.572-1.614,3.165-3.3,4.716-5.053l2.3-2.648,2.194-2.585.264-.306a8.44,8.44,0,0,1,13.155,10.55Z" transform="translate(-224.812 -121.033)" fill="#263238"/>
      <path id="Caminho_8387" data-name="Caminho 8387" d="M237.083,176.559c-4.072.633-7.944-5.971-7.944-5.971l-3.049-3.629a3.291,3.291,0,0,1,0-4.22l2.627-3.059a3.292,3.292,0,0,1,4.684-.306l3.492,3.165a5.876,5.876,0,0,1,1.456,2.015l1.361,3.165a7.564,7.564,0,0,1-1.245,7.986l-.253.3A2.015,2.015,0,0,1,237.083,176.559Z" transform="translate(-225.325 -121.797)" fill="#ffc3bd"/>
      <path id="Caminho_8388" data-name="Caminho 8388" d="M332.843,323.028c-5.159-38.211-7.195-60.882-10.55-79.883l-32.5-.485s14.59,60.935,21.532,85.811,46.208,86.655,46.208,86.655l8.63-5.127S342.127,351.966,332.843,323.028Z" transform="translate(-221.781 -117.172)" fill="#263238"/>
      <path id="Caminho_8389" data-name="Caminho 8389" d="M348.538,416.014s6.5-7.944,6.393-10.634l7.153-4.22,3.935,7.86-3.45,2.11-1.055-.327-.749,1.393c-3.566,2.11-9.3,5.338-11.974,5.834A2.11,2.11,0,0,1,348.538,416.014Z" transform="translate(-218.559 -108.459)" fill="#263238"/>
      <path id="Caminho_8390" data-name="Caminho 8390" d="M321.907,170.25c-11.489-1.424-27.915-1.3-38.928.612a13.335,13.335,0,0,0-10.813,11.214c-2.321,16.626-.327,45.691,1.16,74.9,25.14,8.609,51.694-.116,51.694-.116.918-5.908-1.139-25.246-2.532-35.563,2.11-10.666,6.478-22.872,9.389-37.03a11.6,11.6,0,0,0-9.97-14.021Z" transform="translate(-222.808 -121.206)" fill="#263238"/>
      <path id="Caminho_8391" data-name="Caminho 8391" d="M291.348,169.79a11.8,11.8,0,0,0-2.8,6.383c-1.182,6.752.158,17.164,3.713,29.1,3.408-9.611,10.74-22.334,15.255-29.719,2.11-3.5,3.619-5.813,3.756-6.024h0A41.471,41.471,0,0,0,291.348,169.79Z" transform="translate(-221.872 -121.253)" fill="#407bff"/>
      <path id="Caminho_8392" data-name="Caminho 8392" d="M309.459,149.39l-13.082,10.729c1.688,4.5,2.226,9.189-5.169,10.993-1.846,2.448,1.414,5.275,4.473,6.52,4.937-.612,11.89-2.258,14.9-6.33C309.628,167.968,308.193,156.047,309.459,149.39Z" transform="translate(-221.732 -122.3)" fill="#ffc3bd"/>
      <path id="Caminho_8393" data-name="Caminho 8393" d="M292.46,173.692a9.864,9.864,0,0,0,2.711,4.093c1.994,0,4.916-2.247,4.916-2.247s-1.129-3.165-2.711-3.808C293.325,172.722,292.46,173.692,292.46,173.692Z" transform="translate(-221.634 -121.072)" fill="#fff"/>
      <path id="Caminho_8394" data-name="Caminho 8394" d="M297.2,176.191a2.922,2.922,0,0,0-2.2-.559c-2.616,3.724-4.283,9.495-5.9,16.162a110.906,110.906,0,0,0,3.112,13.082,105.116,105.116,0,0,1,5.085-11.6,69.216,69.216,0,0,1-.095-17.08Z" transform="translate(-221.819 -120.859)" fill="#fff"/>
      <path id="Caminho_8395" data-name="Caminho 8395" d="M303.707,153.63l-7.627,6.245A16.74,16.74,0,0,1,297,163.1c2.954.211,7.068-2.775,7.258-5.475a11.1,11.1,0,0,0-.549-4Z" transform="translate(-221.435 -122.067)" opacity="0.2"/>
      <path id="Caminho_8396" data-name="Caminho 8396" d="M290.04,132.56c-4.22,2.448-2.036,4.885-2.036,4.885s-1.8,4.853.591,8.2C299.82,132.2,290.04,132.56,290.04,132.56Z" transform="translate(-221.915 -123.225)" fill="#263238"/>
      <path id="Caminho_8397" data-name="Caminho 8397" d="M311.522,143.138c-1.192,8.208-1.477,13.071-5.992,16.932-6.815,5.792-16.69,1.055-17.935-7.385-1.16-7.575.981-19.728,9.347-22.27a11.436,11.436,0,0,1,14.58,12.723Z" transform="translate(-221.917 -123.369)" fill="#ffc3bd"/>
      <path id="Caminho_8398" data-name="Caminho 8398" d="M311.714,148.607c-5.275.549-4.294-8.134-2.49-9.843-5.148.095-4.157-3.344-3.524-4.61-8.577,1.8-14.643,2.184-18.515-2.11-2.87-3.165-5.918.38-6.826-2.933,2.11,1.129,5.918-4.515,8.493-2.173s5.138-5.845,9.031-2.342c5.275,4.695,19.116-8.092,17.85,6,7.227,6.087-2.49,9.938-1.857,16.4C311.893,149.968,311.714,148.607,311.714,148.607Z" transform="translate(-222.299 -123.711)" fill="#263238"/>
      <path id="Caminho_8399" data-name="Caminho 8399" d="M311.288,132.3a.538.538,0,0,1-.527-.454.527.527,0,0,1,.454-.591,7.522,7.522,0,0,0,4.22-2.933,3.513,3.513,0,0,0,.517-3,.538.538,0,0,1,.369-.654.517.517,0,0,1,.643.359,4.621,4.621,0,0,1-.643,3.861,8.44,8.44,0,0,1-4.979,3.408Z" transform="translate(-220.628 -123.66)" fill="#263238"/>
      <path id="Caminho_8400" data-name="Caminho 8400" d="M313.285,148.737a7.2,7.2,0,0,1-3.988,3.777c-2.363.886-3.787-1.182-3.323-3.534.422-2.11,2.11-5.106,4.621-4.979a3.26,3.26,0,0,1,2.69,4.737Z" transform="translate(-220.896 -122.596)" fill="#ffc3bd"/>
      <path id="Caminho_8401" data-name="Caminho 8401" d="M298.673,142.8c-.063.675-.464,1.192-.9,1.15s-.76-.622-.7-1.3.454-1.182.9-1.139S298.726,142.133,298.673,142.8Z" transform="translate(-221.38 -122.733)" fill="#263238"/>
      <path id="Caminho_8402" data-name="Caminho 8402" d="M291.083,142.618c-.063.675-.464,1.182-.9,1.139s-.76-.612-.7-1.287.454-1.182.9-1.15S291.083,141.943,291.083,142.618Z" transform="translate(-221.798 -122.743)" fill="#263238"/>
      <path id="Caminho_8403" data-name="Caminho 8403" d="M293.452,143.4a23.492,23.492,0,0,1-3.692,5.454,3.914,3.914,0,0,0,3.165.907Z" transform="translate(-221.782 -122.629)" fill="#ed847e"/>
      <path id="Caminho_8404" data-name="Caminho 8404" d="M301.332,140.975a.422.422,0,0,0,.2,0,.4.4,0,0,0,.222-.517,3.988,3.988,0,0,0-2.68-2.448.39.39,0,0,0-.464.306.4.4,0,0,0,.306.475h0a3.165,3.165,0,0,1,2.11,1.962.412.412,0,0,0,.306.222Z" transform="translate(-221.296 -122.926)" fill="#263238"/>
      <path id="Caminho_8405" data-name="Caminho 8405" d="M288.184,140.2a.4.4,0,0,0,.369-.063,3.091,3.091,0,0,1,2.8-.549.39.39,0,0,0,.506-.243.4.4,0,0,0-.232-.506,3.925,3.925,0,0,0-3.545.665.4.4,0,0,0-.084.559.485.485,0,0,0,.19.137Z" transform="translate(-221.884 -122.889)" fill="#263238"/>
      <path id="Caminho_8406" data-name="Caminho 8406" d="M310.791,169.46h0c-.137.211-1.635,2.521-3.756,6.024a16.679,16.679,0,0,1-7.649,4.009c.433-1.414-.833-6.182-2.237-7.649a37.409,37.409,0,0,0,13.641-2.384Z" transform="translate(-221.376 -121.196)" fill="#407bff"/>
      <path id="Caminho_8407" data-name="Caminho 8407" d="M310.791,169.46h0c-.137.211-1.635,2.521-3.756,6.024a16.679,16.679,0,0,1-7.649,4.009c.433-1.414-.833-6.182-2.237-7.649a37.409,37.409,0,0,0,13.641-2.384Z" transform="translate(-221.376 -121.196)" fill="#fff" opacity="0.3"/>
      <path id="Caminho_8408" data-name="Caminho 8408" d="M297.592,171.84a12.174,12.174,0,0,0-6.572,6.994,4.5,4.5,0,0,1-2.49-2.732,11.805,11.805,0,0,1,2.8-6.383C292.085,170.691,294.174,171.651,297.592,171.84Z" transform="translate(-221.85 -121.182)" fill="#407bff"/>
      <path id="Caminho_8409" data-name="Caminho 8409" d="M297.592,171.84a12.174,12.174,0,0,0-6.572,6.994,4.5,4.5,0,0,1-2.49-2.732,11.805,11.805,0,0,1,2.8-6.383C292.085,170.691,294.174,171.651,297.592,171.84Z" transform="translate(-221.85 -121.182)" fill="#fff" opacity="0.3"/>
      <path id="Caminho_8410" data-name="Caminho 8410" d="M327.632,175c2.11,2.405,3.914,4.716,5.75,7.174s3.566,4.937,5.212,7.564a82.094,82.094,0,0,1,4.705,8.282,49.7,49.7,0,0,1,2.057,4.705,29.359,29.359,0,0,1,1.572,5.834l.084.517a6.33,6.33,0,0,1-.306,3.165,30.867,30.867,0,0,1-5.106,8.777,39.584,39.584,0,0,1-3.049,3.4c-1.055,1.055-2.11,2.11-3.165,3.007a67.689,67.689,0,0,1-6.826,5.117,60.89,60.89,0,0,1-7.385,4.22,4.22,4.22,0,0,1-4.99-6.731l.19-.2c1.635-1.772,3.439-3.682,5.064-5.549s3.249-3.766,4.695-5.686a48.393,48.393,0,0,0,3.84-5.718,19.138,19.138,0,0,0,2.11-5.2l-.222,3.64a19.832,19.832,0,0,0-1.055-2.479,34.511,34.511,0,0,0-1.751-3.165c-.7-1.055-1.361-2.184-2.11-3.281s-1.5-2.215-2.289-3.323c-1.593-2.2-3.239-4.441-4.937-6.646l-5.064-6.53-.105-.137a8.439,8.439,0,1,1,13.02-10.741Z" transform="translate(-220.526 -121.06)" fill="#263238"/>
      <path id="Caminho_8411" data-name="Caminho 8411" d="M320.989,231.983a1.92,1.92,0,0,0-.39-1.266l-2.3-3.165a1.962,1.962,0,0,0-1.962-.781l-3.27.612a22.524,22.524,0,0,0-8.809,3.745l-.865.612a3.281,3.281,0,0,0-.738,4.631l2.395,3.239a3.281,3.281,0,0,0,4.135.971l4.22-2.173S320.746,236.1,320.989,231.983Z" transform="translate(-221.109 -118.048)" fill="#ffc3bd"/>
      <path id="Caminho_8412" data-name="Caminho 8412" d="M318.538,225.737a15.318,15.318,0,0,0-4.61.095c-.939,2.416,3.049,9.685,5.1,10.951,1.308-.306,4.283-2.859,4.283-2.859C321.555,231.592,319.74,227.52,318.538,225.737Z" transform="translate(-220.462 -118.11)" fill="#407bff"/>
      <path id="Caminho_8413" data-name="Caminho 8413" d="M242.349,174.241a15.171,15.171,0,0,0-.6-4.568c-2.5-.665-9.284,4.093-10.318,6.267.443,1.266,3.313,3.946,3.313,3.946C236.874,177.881,240.714,175.623,242.349,174.241Z" transform="translate(-224.989 -121.188)" fill="#407bff"/>
      <path id="Caminho_8414" data-name="Caminho 8414" d="M353.813,407.258l9.748-5.433-2.226-6.034L350.5,403.133Z" transform="translate(-218.443 -108.754)" fill="#407bff"/>
      <path id="Caminho_8415" data-name="Caminho 8415" d="M301.765,326.468c2.321-38.549,6.773-64.353,4.916-83.343l-32.462-.485s3.292,61.188,5.275,86.634,12.955,88.365,12.955,88.365h10.043S305.289,356.3,301.765,326.468Z" transform="translate(-222.637 -117.174)" fill="#263238"/>
      <path id="Caminho_8416" data-name="Caminho 8416" d="M276.093,413.887s16.32-3.524,17.354-5.887h8.324l.264,8.777h-6.783l-.823-.8-1.266.8c-4.146,0-15.023-.158-17.66-1.055a1.857,1.857,0,0,1,.591-1.836Z" transform="translate(-222.569 -108.083)" fill="#263238"/>
      <path id="Caminho_8417" data-name="Caminho 8417" d="M291.086,409.124l11.183.306.517-6.33-12.976.781Z" transform="translate(-221.78 -108.353)" fill="#407bff"/>
      <path id="Caminho_8418" data-name="Caminho 8418" d="M295.776,151.84a7.786,7.786,0,0,1-1.287-.063.211.211,0,0,1-.169-.264.232.232,0,0,1,.264-.19,6.53,6.53,0,0,0,5.37-1.677.222.222,0,1,1,.316.3A6.815,6.815,0,0,1,295.776,151.84Z" transform="translate(-221.532 -122.292)" fill="#263238"/>
    </g>
    <g id="freepik--Graphic--inject-2" transform="translate(108.662 65.199)">
      <rect id="Retângulo_6659" data-name="Retângulo 6659" width="8.735" height="1.055" transform="translate(258.954 259.631)" fill="#407bff"/>
      <rect id="Retângulo_6660" data-name="Retângulo 6660" width="19.622" height="1.055" transform="translate(274.156 259.631)" fill="#407bff"/>
      <path id="Caminho_8419" data-name="Caminho 8419" d="M394.94,270.25H272.563L252.835,306.7a2.426,2.426,0,0,0,2.11,3.576H394.94l10-20.044Z" transform="translate(-94.779 -53.366)" fill="#407bff"/>
      <path id="Caminho_8420" data-name="Caminho 8420" d="M258,104.932A88.618,88.618,0,0,1,338.369,188.2a2.416,2.416,0,0,0,3.5,2.047l14.865-7.385a3.893,3.893,0,0,1,3.576,0l14.59,7.29a2.426,2.426,0,0,0,3.513-2.279A128.633,128.633,0,0,0,257.7,64.79L247.81,84.56Z" transform="translate(-95.039 -64.661)" fill="#407bff"/>
      <path id="Caminho_8421" data-name="Caminho 8421" d="M258,104.932A88.618,88.618,0,0,1,338.369,188.2a2.416,2.416,0,0,0,3.5,2.047l14.865-7.385a3.893,3.893,0,0,1,3.576,0l14.59,7.29a2.426,2.426,0,0,0,3.513-2.279A128.633,128.633,0,0,0,257.7,64.79L247.81,84.56Z" transform="translate(-95.039 -64.661)" fill="#fff" opacity="0.6"/>
      <path id="Caminho_8422" data-name="Caminho 8422" d="M168.442,185.085a88.618,88.618,0,0,1,83.28-80.368,2.426,2.426,0,0,0,2.036-3.5L246.32,86.35a4.041,4.041,0,0,1,0-3.587l7.3-14.58a2.437,2.437,0,0,0-2.289-3.513A128.707,128.707,0,0,0,128.29,185.37l19.739,9.885Z" transform="translate(-101.61 -64.668)" fill="#407bff"/>
      <path id="Caminho_8423" data-name="Caminho 8423" d="M168.442,185.085a88.618,88.618,0,0,1,83.28-80.368,2.426,2.426,0,0,0,2.036-3.5L246.32,86.35a4.041,4.041,0,0,1,0-3.587l7.3-14.58a2.437,2.437,0,0,0-2.289-3.513A128.707,128.707,0,0,0,128.29,185.37l19.739,9.885Z" transform="translate(-101.61 -64.668)" fill="#fff" opacity="0.4"/>
      <path id="Caminho_8424" data-name="Caminho 8424" d="M249.979,274.378h0A88.618,88.618,0,0,1,169.6,191.12a2.416,2.416,0,0,0-3.492-2.047l-14.854,7.385a4.019,4.019,0,0,1-1.8.433,3.967,3.967,0,0,1-1.783-.433l-14.6-7.29a2.437,2.437,0,0,0-3.513,2.279,128.063,128.063,0,0,0,35.289,83.248H103l10.128,20.266-9.769,19.591H250.274l9.917-19.8Z" transform="translate(-103 -57.843)" fill="#407bff"/>
      <path id="Caminho_8425" data-name="Caminho 8425" d="M249.979,274.378h0A88.618,88.618,0,0,1,169.6,191.12a2.416,2.416,0,0,0-3.492-2.047l-14.854,7.385a4.019,4.019,0,0,1-1.8.433,3.967,3.967,0,0,1-1.783-.433l-14.6-7.29a2.437,2.437,0,0,0-3.513,2.279,128.063,128.063,0,0,0,35.289,83.248H103l10.128,20.266-9.769,19.591H250.274l9.917-19.8Z" transform="translate(-103 -57.843)" fill="#fff" opacity="0.2"/>
      <path id="Caminho_8426" data-name="Caminho 8426" d="M337.9,194.47h0a88.618,88.618,0,0,1-83.269,80.357,2.426,2.426,0,0,0-2.047,3.5l7.385,14.865a4.02,4.02,0,0,1,0,3.576l-7.29,14.59a2.426,2.426,0,0,0,2.279,3.513,128.633,128.633,0,0,0,123.084-120.7l-19.77-9.885Z" transform="translate(-94.791 -58.092)" fill="#407bff"/>
      <path id="Caminho_8427" data-name="Caminho 8427" d="M337.9,194.47h0a88.618,88.618,0,0,1-83.269,80.357,2.426,2.426,0,0,0-2.047,3.5l7.385,14.865a4.02,4.02,0,0,1,0,3.576l-7.29,14.59a2.426,2.426,0,0,0,2.279,3.513,128.633,128.633,0,0,0,123.084-120.7l-19.77-9.885Z" transform="translate(-94.791 -58.092)" fill="#fff" opacity="0.8"/>
    </g>
    <g id="freepik--character-1--inject-2" transform="translate(117.147 140.198)">
      <path id="Caminho_8428" data-name="Caminho 8428" d="M254.2,186.509,248.434,170l-8.777.812a41.765,41.765,0,0,0-7.385-8.282l1.8-8.63-15.793-7.6-5.634,6.783a41.44,41.44,0,0,0-11.1-.633l-4.821-7.385-16.51,5.771.812,8.777A41.765,41.765,0,0,0,172.75,167l-8.64-1.8-7.6,15.761,6.794,5.634a41.44,41.44,0,0,0-.633,11.1l-7.385,4.821,5.771,16.51,8.767-.812a41.915,41.915,0,0,0,7.385,8.292l-1.8,8.63,15.761,7.6,5.634-6.794a41.364,41.364,0,0,0,11.088.633l4.832,7.385,16.51-5.771-.812-8.767a42.2,42.2,0,0,0,8.282-7.385l8.63,1.8,7.6-15.761-6.783-5.623a41.461,41.461,0,0,0,.633-11.1Zm-43.085,26.206a19.264,19.264,0,1,1,11.826-24.539,19.264,19.264,0,0,1-11.826,24.539Z" transform="translate(-108.61 -135.247)" fill="#407bff"/>
      <path id="Caminho_8429" data-name="Caminho 8429" d="M149.17,194.617c-.5.781-1.055,1.8-1.677,2.722s-1.118,1.92-1.656,2.9c-1.055,1.952-2.11,3.935-3.1,5.95a120.276,120.276,0,0,0-5.275,12.364c-.665,1.667,0,.675-.77-.369-.359-.433-.591-.422-.464-.348a2.278,2.278,0,0,0,.76.264,23.209,23.209,0,0,0,5.94.211c4.378-.264,9.009-.928,13.5-1.656h.021a2.363,2.363,0,0,1,1.266,4.526,75.959,75.959,0,0,1-13.926,4.294c-1.224.232-2.479.433-3.8.559a20.466,20.466,0,0,1-4.22,0,11.456,11.456,0,0,1-2.637-.6,7.047,7.047,0,0,1-3.26-2.384,6.33,6.33,0,0,1-1.055-2.321,7.163,7.163,0,0,1-.148-2.226,8.851,8.851,0,0,1,.317-1.667l.253-.886a96.108,96.108,0,0,1,4.979-13.767c.992-2.226,2.11-4.42,3.26-6.562q.886-1.614,1.836-3.165a37.455,37.455,0,0,1,2.11-3.165,4.747,4.747,0,0,1,7.881,5.275Z" transform="translate(-110.075 -132.921)" fill="#7f3e3b"/>
      <path id="Caminho_8430" data-name="Caminho 8430" d="M165.856,220.1l-2.2,1.825a3.3,3.3,0,0,1-2.975.665l-4.863-1.277a6.214,6.214,0,0,1-4.22-3.819l-.433-1.16c3.439-3.281,9.569-4.3,9.569-4.3l1.72-.475a2.764,2.764,0,0,1,3.481,1.846l1.055,3.386a3.165,3.165,0,0,1-1.129,3.313Z" transform="translate(-108.837 -131.599)" fill="#7f3e3b"/>
      <path id="Caminho_8431" data-name="Caminho 8431" d="M153.893,161.07c1.519,5.6,3.376,15.825-.264,19.6,0,0-2.8,5.275,13.715,4.4,11.6-.591,3.682-4.4,3.682-4.4-6.33-1.5-6.541-6.129-5.771-10.476Z" transform="translate(-108.711 -134.367)" fill="#7f3e3b"/>
      <path id="Caminho_8432" data-name="Caminho 8432" d="M131.572,383.356l-10.708-3.946c-.939,8.271-4.294,20.9-4.294,20.9l7.511,3.165S129.082,388.388,131.572,383.356Z" transform="translate(-110.739 -122.365)" fill="#7f3e3b"/>
      <path id="Caminho_8433" data-name="Caminho 8433" d="M126.137,414.945c-5.728-4.22-5.275-3.988-8.44-6.456-2.69-2.11-3.576-2.247-5.76-3.924-1.825-1.393-.591-3.165,1.329-4.937.728-.665,1.646-1.4,2.69-2.363a1.709,1.709,0,0,1,2.173-.106l6.71,4.906a1.962,1.962,0,0,1,.791,1.572,12,12,0,0,0,3.924,8.619C132.4,414.945,128.426,416.622,126.137,414.945Z" transform="translate(-111.043 -121.408)" fill="#263238"/>
      <path id="Caminho_8434" data-name="Caminho 8434" d="M177.816,236s-11.278,58.076-20.044,85.136c-9.178,28.484-22.6,60.06-28.685,78.574-1.888.243-7.279-2-9.917-4.22,0,0,4.019-48.529,17.776-73.637C135.575,248.6,149.5,236,149.5,236Z" transform="translate(-110.596 -130.248)" fill="#407bff"/>
      <path id="Caminho_8435" data-name="Caminho 8435" d="M177.816,236s-11.278,58.076-20.044,85.136c-9.178,28.484-22.6,60.06-28.685,78.574-1.888.243-7.279-2-9.917-4.22,0,0,4.019-48.529,17.776-73.637C135.575,248.6,149.5,236,149.5,236Z" transform="translate(-110.596 -130.248)" opacity="0.3"/>
      <path id="Caminho_8436" data-name="Caminho 8436" d="M154.984,256.6l11.6,22.154c-2.659,11.6-5.612,23.705-8.44,33.538C149.741,288.671,154.984,256.6,154.984,256.6Z" transform="translate(-108.716 -129.116)" opacity="0.2"/>
      <path id="Caminho_8437" data-name="Caminho 8437" d="M131.472,388.185a24.266,24.266,0,0,0-.76,3.861.738.738,0,0,1-.981.622c-4.114-1.055-9.495-4.22-11.257-5.275a.949.949,0,0,1-.464-.918l.475-3.714a.749.749,0,0,1,1.055-.549l11.309,4.9a.96.96,0,0,1,.622,1.076Z" transform="translate(-110.66 -122.214)" fill="#263238"/>
      <path id="Caminho_8438" data-name="Caminho 8438" d="M184.186,387.86l-10.286.76c1.688,8.208,3.45,21.163,3.45,21.163h8.165S184.059,393.483,184.186,387.86Z" transform="translate(-107.587 -121.9)" fill="#7f3e3b"/>
      <path id="Caminho_8439" data-name="Caminho 8439" d="M194.115,416.822c-7.1,0-6.594-.105-10.55-.243-3.418-.116-4.22.306-6.984.243-2.289,0-2.2-2.237-1.488-4.768.264-.971.654-2.11,1.055-3.492a1.846,1.846,0,0,1,1.783-1.371h8.313a1.783,1.783,0,0,1,1.509.791,10.909,10.909,0,0,0,7.912,4.631C199.442,413.13,196.952,416.822,194.115,416.822Z" transform="translate(-107.546 -120.837)" fill="#263238"/>
      <path id="Caminho_8440" data-name="Caminho 8440" d="M184.8,236s1.287,50.639,2.437,82.13-1.319,87.225-1.319,87.225c-.232,1.53-8.26.918-9.621,0,0,0-15.35-45.153-9.495-84.218-20.551-50.639-14.622-83.891-14.622-83.891Z" transform="translate(-108.825 -130.248)" fill="#407bff"/>
      <path id="Caminho_8441" data-name="Caminho 8441" d="M184.8,236s1.287,50.639,2.437,82.13-1.319,87.225-1.319,87.225c-.232,1.53-8.26.918-9.621,0,0,0-15.35-45.153-9.495-84.218-20.551-50.639-14.622-83.891-14.622-83.891Z" transform="translate(-108.825 -130.248)" opacity="0.3"/>
      <path id="Caminho_8442" data-name="Caminho 8442" d="M185.818,392.514c0,1.055.095,2.9.19,4.22a.865.865,0,0,1-.76.907,57.193,57.193,0,0,1-10.624-.116.77.77,0,0,1-.7-.633l-.717-3.724a.865.865,0,0,1,.823-1.055L185,391.67a.781.781,0,0,1,.823.844Z" transform="translate(-107.626 -121.691)" fill="#263238"/>
      <path id="Caminho_8443" data-name="Caminho 8443" d="M149.855,227.627a73.953,73.953,0,0,1-1.055,8.83h35.764l.38-9.1S157.345,225.791,149.855,227.627Z" transform="translate(-108.967 -130.758)" fill="#7f3e3b"/>
      <path id="Caminho_8444" data-name="Caminho 8444" d="M188.833,193.054a151.907,151.907,0,0,1-.253,16.5c-.3,7.174,1.055,8.925,0,20.677-3.924,2.289-29.74,2.2-42.431.559.77-10.159,1.709-17.006-5.169-39.867-1.593-5.275,1.962-10.391,7.649-10.94,1.519-.137,3.165-.264,4.779-.338a129.565,129.565,0,0,1,17.418,0c1.888.158,3.851.39,5.728.633C183.284,181.164,188.622,186.7,188.833,193.054Z" transform="translate(-109.418 -133.362)" fill="#263238"/>
      <path id="Caminho_8445" data-name="Caminho 8445" d="M236.626,217.831l-1.424-2.479a3.365,3.365,0,0,0-2.574-1.646l-5-.475a6.214,6.214,0,0,0-5.275,2.11l-.812.949c2.11,4.22,7.511,7.385,7.511,7.385l1.445,1.055a2.775,2.775,0,0,0,3.9-.527l2.11-2.838a3.165,3.165,0,0,0,.116-3.534Z" transform="translate(-104.968 -131.501)" fill="#7f3e3b"/>
      <path id="Caminho_8446" data-name="Caminho 8446" d="M189.885,194.912l.464.717c.2.306.39.622.622.939.443.633.939,1.255,1.445,1.878a48.385,48.385,0,0,0,3.334,3.608c1.192,1.15,2.448,2.268,3.766,3.334s2.7,2.11,4.1,3.038l-.823-.38a61.075,61.075,0,0,0,5.929,1.815c2.11.538,4.22,1.055,6.33,1.582l6.467,1.54c2.163.527,4.336,1.055,6.488,1.572h0a2.363,2.363,0,0,1-.58,4.663c-2.289,0-4.536-.105-6.794-.211s-4.515-.306-6.783-.517-4.526-.485-6.8-.844a52.663,52.663,0,0,1-7.068-1.487,2.871,2.871,0,0,1-.612-.253l-.222-.127c-.855-.5-1.72-.971-2.574-1.477s-1.7-1.055-2.511-1.635a45.585,45.585,0,0,1-4.768-3.714,41.418,41.418,0,0,1-4.3-4.4c-.665-.8-1.308-1.625-1.92-2.511-.306-.433-.612-.9-.9-1.371-.148-.243-.285-.475-.433-.749s-.264-.464-.485-.928a4.726,4.726,0,0,1,8.25-4.589Z" transform="translate(-107.209 -132.657)" fill="#7f3e3b"/>
      <path id="Caminho_8447" data-name="Caminho 8447" d="M176.356,180.72c6.963,1.846,12.934,7.817,21.1,19.6-1.139,4.811-11.6,10.37-11.6,10.37S164.055,188.98,176.356,180.72Z" transform="translate(-107.659 -133.287)" fill="#263238"/>
      <path id="Caminho_8448" data-name="Caminho 8448" d="M171.156,151.293c.253.728.855,1.2,1.329,1.055s.644-.833.38-1.561-.855-1.213-1.329-1.055S170.893,150.565,171.156,151.293Z" transform="translate(-107.745 -134.992)" fill="#263238"/>
      <path id="Caminho_8449" data-name="Caminho 8449" d="M171.33,149.872l1.551-.992S172.48,150.494,171.33,149.872Z" transform="translate(-107.728 -135.037)" fill="#263238"/>
      <path id="Caminho_8450" data-name="Caminho 8450" d="M171.67,152.5a22.777,22.777,0,0,0,4.22,3.914,3.059,3.059,0,0,1-2.405,1.213Z" transform="translate(-107.71 -134.839)" fill="#630f0f"/>
      <path id="Caminho_8451" data-name="Caminho 8451" d="M170.325,145.56a.39.39,0,0,0,.264-.179.454.454,0,0,0-.169-.612,4.779,4.779,0,0,0-4.167-.475.411.411,0,0,0-.19.58.485.485,0,0,0,.612.222,3.787,3.787,0,0,1,3.292.411.485.485,0,0,0,.359.053Z" transform="translate(-108.021 -135.305)" fill="#263238"/>
      <path id="Caminho_8452" data-name="Caminho 8452" d="M147.512,155.982c3.481,8.524,4.768,12.2,10.7,15.413,8.915,4.832,18.673-.686,17.818-9.927-.76-8.313-6.33-20.846-16.057-21.912a11.795,11.795,0,0,0-12.459,16.426Z" transform="translate(-109.093 -135.557)" fill="#7f3e3b"/>
      <path id="Caminho_8453" data-name="Caminho 8453" d="M167.633,155.984c2.859,6.267,2.49,24.032-13.472,18.525s-14.843-14.168-10.55-21.1c-8.661-7.754,2.532-13.9,12.818-16.7S175.746,136.425,167.633,155.984Z" transform="translate(-109.422 -135.759)" fill="#263238"/>
      <path id="Caminho_8454" data-name="Caminho 8454" d="M152.1,154.692a6.815,6.815,0,1,1-8.039-5.275A6.815,6.815,0,0,1,152.1,154.692Z" transform="translate(-109.527 -135.015)" fill="#407bff"/>
      <path id="Caminho_8455" data-name="Caminho 8455" d="M148.32,166.135c3.165-6.33.591-14.2-4.315-19.285-9.284-9.632-22.154-3.3-18.568,6.224,4.22,11.362-18.019,23.041-5.053,29.771,12.66,6.594,33.759-5.032,27.83-16.479C148.246,166.261,148.288,166.261,148.32,166.135Z" transform="translate(-110.755 -135.413)" fill="#263238"/>
      <path id="Caminho_8456" data-name="Caminho 8456" d="M162.9,155.667a6.33,6.33,0,0,0,4.22,2.954c2.11.338,2.806-2.11,1.867-4.473-.855-2.11-3-4.8-4.99-4.062S161.632,153.663,162.9,155.667Z" transform="translate(-108.232 -134.978)" fill="#7f3e3b"/>
      <path id="Caminho_8457" data-name="Caminho 8457" d="M148.561,180c-6.245.96-8.746,2.859-13.841,15.4,2.31,4.674,13.145,9.157,13.145,9.157S155.06,188.355,148.561,180Z" transform="translate(-109.741 -133.327)" fill="#263238"/>
      <path id="Caminho_8458" data-name="Caminho 8458" d="M185.165,238.76a172.057,172.057,0,0,1-38.5-.084.876.876,0,0,1-.665-1.224c.316-.738.622-1.477.928-2.215a.823.823,0,0,1,.833-.506,168.89,168.89,0,0,0,37.008,0,.833.833,0,0,1,.9.77c.074.77.158,1.53.232,2.3a.865.865,0,0,1-.738.96Z" transform="translate(-109.125 -130.318)" fill="#263238"/>
    </g>
  </g>
</svg>
