<svg xmlns="http://www.w3.org/2000/svg" width="500" height="372.56" viewBox="0 0 500 372.56">
  <g id="Stay_at_home-rafiki" data-name="Stay at home-rafiki" transform="translate(0 -55)">
    <g id="freepik--background-complete--inject-2">
      <rect id="Retângulo_5665" data-name="Retângulo 5665" width="500" height="0.25" transform="translate(0 382.4)" fill="#ebebeb"/>
      <rect id="Retângulo_5666" data-name="Retângulo 5666" width="33.12" height="0.25" transform="translate(416.78 398.49)" fill="#ebebeb"/>
      <rect id="Retângulo_5667" data-name="Retângulo 5667" width="8.69" height="0.25" transform="translate(292.75 398.62)" fill="#ebebeb"/>
      <rect id="Retângulo_5668" data-name="Retângulo 5668" width="61.44" height="0.25" transform="translate(354.33 389.21)" fill="#ebebeb"/>
      <rect id="Retângulo_5669" data-name="Retângulo 5669" width="12.69" height="0.25" transform="translate(212.45 395.11)" fill="#ebebeb"/>
      <rect id="Retângulo_5670" data-name="Retângulo 5670" width="36.83" height="0.25" transform="translate(166.72 395.11)" fill="#ebebeb"/>
      <rect id="Retângulo_5671" data-name="Retângulo 5671" width="25.43" height="0.25" transform="translate(52.46 390.89)" fill="#ebebeb"/>
      <rect id="Retângulo_5672" data-name="Retângulo 5672" width="74.89" height="0.25" transform="translate(83.89 390.89)" fill="#ebebeb"/>
      <path id="Caminho_5197" data-name="Caminho 5197" d="M237,337.8H43.91a5.71,5.71,0,0,1-5.7-5.71V60.66A5.71,5.71,0,0,1,43.91,55H237a5.71,5.71,0,0,1,5.71,5.71V332.09A5.71,5.71,0,0,1,237,337.8ZM43.91,55.2a5.46,5.46,0,0,0-5.45,5.46V332.09a5.46,5.46,0,0,0,5.45,5.46H237a5.47,5.47,0,0,0,5.46-5.46V60.66A5.47,5.47,0,0,0,237,55.2Z" fill="#ebebeb"/>
      <path id="Caminho_5198" data-name="Caminho 5198" d="M453.31,337.8H260.21a5.72,5.72,0,0,1-5.71-5.71V60.66A5.72,5.72,0,0,1,260.21,55h193.1A5.71,5.71,0,0,1,459,60.66V332.09A5.71,5.71,0,0,1,453.31,337.8ZM260.21,55.2a5.47,5.47,0,0,0-5.46,5.46V332.09a5.47,5.47,0,0,0,5.46,5.46h193.1a5.47,5.47,0,0,0,5.46-5.46V60.66a5.47,5.47,0,0,0-5.46-5.46Z" fill="#ebebeb"/>
      <path id="Caminho_5199" data-name="Caminho 5199" d="M183.75,382.4h-4.49V361.22h10.48Z" fill="#f5f5f5"/>
      <path id="Caminho_5200" data-name="Caminho 5200" d="M260.02,382.4h4.48V361.22H254.03Z" fill="#e0e0e0"/>
      <path id="Caminho_5201" data-name="Caminho 5201" d="M447.38,382.4h4.49V361.22H441.4Z" fill="#e0e0e0"/>
      <rect id="Retângulo_5673" data-name="Retângulo 5673" width="272.6" height="40.94" rx="9.32" transform="translate(451.86 371.08) rotate(180)" fill="#f5f5f5"/>
      <path id="Caminho_5202" data-name="Caminho 5202" d="M367.39,382.4h-4.48V361.22h10.47Z" fill="#f5f5f5"/>
      <rect id="Retângulo_5674" data-name="Retângulo 5674" width="88.96" height="40.94" rx="9.32" transform="translate(451.86 371.08) rotate(180)" fill="#e0e0e0"/>
      <rect id="Retângulo_5675" data-name="Retângulo 5675" width="248" height="11.2" rx="5.6" transform="translate(439.56 330.08) rotate(180)" fill="#fafafa"/>
      <rect id="Retângulo_5676" data-name="Retângulo 5676" width="77.82" height="11.2" rx="5.6" transform="translate(439.57 330.08) rotate(180)" fill="#ebebeb"/>
      <path id="Caminho_5203" data-name="Caminho 5203" d="M47.34,378.41h6.22v-233a3.11,3.11,0,0,0-3.11-3.11h0a3.11,3.11,0,0,0-3.11,3.11Z" fill="#f5f5f5"/>
      <path id="Caminho_5204" data-name="Caminho 5204" d="M28.71,382.4H72.19a5.48,5.48,0,0,0-5.48-5.48H34.19A5.48,5.48,0,0,0,28.71,382.4Z" fill="#f0f0f0"/>
      <path id="Caminho_5205" data-name="Caminho 5205" d="M27.76,197.09H73.14L67.92,150.1H32.98Z" fill="#e0e0e0"/>
    </g>
    <g id="freepik--Shadow--inject-2">
      <ellipse id="freepik--path--inject-2" cx="193.89" cy="11.32" rx="193.89" ry="11.32" transform="translate(61.11 404.92)" fill="#f5f5f5"/>
    </g>
    <g id="freepik--Window--inject-2">
      <rect id="Retângulo_5677" data-name="Retângulo 5677" width="264.55" height="223.73" transform="translate(109.04 73.36)" fill="#fff"/>
      <g id="Grupo_3299" data-name="Grupo 3299" opacity="0.1">
        <rect id="Retângulo_5678" data-name="Retângulo 5678" width="264.55" height="223.73" transform="translate(109.04 73.36)" fill="#407bff"/>
      </g>
      <path id="Caminho_5206" data-name="Caminho 5206" d="M335.94,142.23c9.77-6.25,7.72-12.22-12.73-11s-23.78,10.51-23.78,10.51-31-1.13-28.37,5.47c-17.64,1.55-22.46,3.08-10.33,3.88l88.68-6.14S352.6,140.86,335.94,142.23Z" fill="#fff"/>
      <path id="Caminho_5207" data-name="Caminho 5207" d="M166.54,175.55l40.5-2.8s15.67-5.47,5.81-5.35c7.51-4.26,12.59-11-3-10s-20.65,10-20.65,10-15.23-4.8-20.89,4.91C164.63,172.58,146.79,176.92,166.54,175.55Z" fill="#fff"/>
      <path id="Caminho_5208" data-name="Caminho 5208" d="M162.51,104.65l29.6-2.05s11.45-4,4.24-3.9c5.49-3.12,9.21-8-2.19-7.33s-15.09,7.34-15.09,7.34-11.14-3.51-15.27,3.59C161.11,102.48,148.07,105.66,162.51,104.65Z" fill="#fff"/>
      <path id="Caminho_5209" data-name="Caminho 5209" d="M368.92,79.3V291.15H113.71V79.3H368.92m10-10H103.71V301.15H378.92Z" fill="#407bff"/>
      <path id="Caminho_5210" data-name="Caminho 5210" d="M368.92,79.3V291.15H113.71V79.3H368.92m10-10H103.71V301.15H378.92Z" fill="#fff" opacity="0.7"/>
      <path id="Caminho_5211" data-name="Caminho 5211" d="M242.26,79.3V291.15h-1.88V79.3h1.88m10-10H230.38V301.15h21.88V69.3Z" fill="#407bff"/>
      <path id="Caminho_5212" data-name="Caminho 5212" d="M242.26,79.3V291.15h-1.88V79.3h1.88m10-10H230.38V301.15h21.88V69.3Z" fill="#fff" opacity="0.7"/>
      <path id="Caminho_5213" data-name="Caminho 5213" d="M144,115.52c0-.44-.16-.8-.28-.79a1.54,1.54,0,0,0-.69.49,5.309,5.309,0,0,0-.19-.81,1.11,1.11,0,0,0,.6,0c.09,0,0-.34-.15-.66s-.37-.54-.46-.49a1.24,1.24,0,0,0-.3.43,3.872,3.872,0,0,0-.27-.43.74.74,0,0,0,.34,0c.05,0,0-.23-.1-.44s-.25-.35-.31-.32a.77.77,0,0,0-.22.38c-.15-.16-.31-.32-.47-.47a1.52,1.52,0,0,0,.79-.28c.08-.1-.14-.4-.49-.68s-.7-.43-.78-.33a1.6,1.6,0,0,0-.09.88,4.15,4.15,0,0,0-.76-.38,1,1,0,0,0,.42-.33c0-.07-.17-.23-.45-.35s-.54-.14-.57-.06a1,1,0,0,0,.1.58,4.849,4.849,0,0,0-.76-.14,1.51,1.51,0,0,0,.42-.7c0-.12-.36-.22-.81-.22s-.81.1-.81.22a1.51,1.51,0,0,0,.42.7,6.864,6.864,0,0,0-.79.14,1.33,1.33,0,0,0,.06-.58c0-.09-.34-.05-.67.1s-.57.34-.53.43a1.34,1.34,0,0,0,.41.32l-.44.23a1,1,0,0,0,0-.32c0-.06-.23,0-.45.07s-.37.22-.34.28a.89.89,0,0,0,.36.25,5,5,0,0,0-.49.43,1.61,1.61,0,0,0-.23-.8c-.09-.08-.41.12-.72.45s-.47.66-.38.75a1.6,1.6,0,0,0,.87.15,4.129,4.129,0,0,0-.45.79,1.23,1.23,0,0,0-.44-.54c-.1,0-.27.22-.38.56s-.13.65,0,.68a1.22,1.22,0,0,0,.65-.15,5,5,0,0,0-.18,1.09,1.71,1.71,0,0,0-.72-.38c-.13,0-.21.38-.18.83s.15.8.27.79a1.54,1.54,0,0,0,.66-.44,3.7,3.7,0,0,0,.16.75,1.25,1.25,0,0,0-.55,0c-.09.05,0,.34.14.66s.37.55.46.5a1,1,0,0,0,.27-.36,2.5,2.5,0,0,0,.21.35.831.831,0,0,0-.25,0c-.06,0,0,.23.09.44s.25.36.31.33a.87.87,0,0,0,.2-.3,4.929,4.929,0,0,0,.39.4,1.49,1.49,0,0,0-.69.27c-.08.1.14.4.48.69s.69.43.77.34a1.56,1.56,0,0,0,.12-.78,4.63,4.63,0,0,0,.7.36,1.08,1.08,0,0,0-.41.42c0,.09.23.25.58.35s.65.09.68,0a1.44,1.44,0,0,0-.13-.54,3.2,3.2,0,0,0,.62.09,1.57,1.57,0,0,0-.35.64c0,.13.37.22.82.22s.81-.11.8-.24a1.44,1.44,0,0,0-.36-.63,5.42,5.42,0,0,0,.7-.14,1.18,1.18,0,0,0,0,.51c.05.09.35,0,.67-.11s.56-.34.52-.43a1,1,0,0,0-.35-.29c.13-.06.25-.13.37-.2a.74.74,0,0,0,0,.25c0,.06.23,0,.45-.07s.37-.23.34-.29a1,1,0,0,0-.32-.23,3.39,3.39,0,0,0,.44-.41,1.66,1.66,0,0,0,.24.76c.09.08.41-.12.71-.45s.47-.67.37-.76a1.57,1.57,0,0,0-.84-.15,4.84,4.84,0,0,0,.42-.78,1.25,1.25,0,0,0,.44.53c.1,0,.26-.22.37-.57s.13-.64,0-.68a1.24,1.24,0,0,0-.66.17,4.23,4.23,0,0,0,.16-1.13,1.6,1.6,0,0,0,.75.4C144,116.34,144.06,116,144,115.52Z" fill="#407bff" opacity="0.7"/>
      <path id="Caminho_5214" data-name="Caminho 5214" d="M182.91,141.21c-.22-.11-.42-.15-.45-.09a.87.87,0,0,0,0,.46,2.13,2.13,0,0,0-.43-.13.69.69,0,0,0,.18-.28.824.824,0,0,0-.35-.11c-.19-.01-.36,0-.36.08a.76.76,0,0,0,.12.26h-.27a.45.45,0,0,0,.09-.16.442.442,0,0,0-.23-.07h-.24a.46.46,0,0,0,.12.21,2,2,0,0,0-.35.09.77.77,0,0,0,.08-.45c0-.06-.22,0-.45,0s-.39.21-.36.27a.85.85,0,0,0,.38.28,3.111,3.111,0,0,0-.38.25.58.58,0,0,0,0-.28.494.494,0,0,0-.29.11c-.13.11-.21.22-.18.25a.47.47,0,0,0,.29.11,4.145,4.145,0,0,0-.27.32.89.89,0,0,0-.21-.39c-.06,0-.2.11-.33.32s-.17.4-.11.44a.81.81,0,0,0,.44,0,3.389,3.389,0,0,0-.15.41.66.66,0,0,0-.26-.18c-.05,0-.11.14-.14.34s0,.35.06.36a.8.8,0,0,0,.26-.1,2.44,2.44,0,0,0,0,.27.45.45,0,0,0-.14-.1.544.544,0,0,0-.1.22.83.83,0,0,0,0,.24.36.36,0,0,0,.22-.1,2,2,0,0,0,.06.35.82.82,0,0,0-.43-.11c-.07,0-.06.22,0,.45s.18.41.24.39a.82.82,0,0,0,.31-.36,2.58,2.58,0,0,0,.25.42.64.64,0,0,0-.37.06.508.508,0,0,0,.15.33c.15.15.27.24.31.2a.6.6,0,0,0,.11-.34,2.12,2.12,0,0,0,.46.38,1,1,0,0,0-.38.24c0,.06.12.19.34.31s.41.15.45.09a.84.84,0,0,0,0-.43,3,3,0,0,0,.39.13.65.65,0,0,0-.15.25c0,.06.15.11.35.12s.35,0,.36-.08a.62.62,0,0,0-.1-.22h.22l-.06.11a.513.513,0,0,0,.23.08c.13.01.24,0,.24-.05a.41.41,0,0,0-.09-.18l.3-.07a.9.9,0,0,0-.07.4c0,.06.23,0,.46,0s.39-.2.36-.27a.82.82,0,0,0-.33-.27,2.159,2.159,0,0,0,.36-.22.62.62,0,0,0,.09.3.449.449,0,0,0,.32-.17c.14-.17.22-.28.18-.32a.64.64,0,0,0-.29-.09,2.747,2.747,0,0,0,.22-.26.74.74,0,0,0,.2.33c.06,0,.2-.11.32-.32s.17-.4.12-.44a.85.85,0,0,0-.4,0,1.493,1.493,0,0,1,.13-.37.79.79,0,0,0,.23.16c.05,0,.11-.15.13-.35s0-.35-.06-.36a.63.63,0,0,0-.23.09,1.774,1.774,0,0,0,0-.23l.11.07a.409.409,0,0,0,.09-.22,1.607,1.607,0,0,0,0-.24.51.51,0,0,0-.19.08.535.535,0,0,0-.07-.32.84.84,0,0,0,.42.1c.06,0,0-.22,0-.45s-.19-.41-.25-.39a.82.82,0,0,0-.3.36,2.141,2.141,0,0,0-.25-.41.7.7,0,0,0,.36-.06c.05,0,0-.19-.16-.33s-.27-.24-.31-.2a.77.77,0,0,0-.1.35,2.591,2.591,0,0,0-.48-.38.89.89,0,0,0,.39-.24A2.492,2.492,0,0,0,182.91,141.21Z" fill="#407bff" opacity="0.5"/>
      <path id="Caminho_5215" data-name="Caminho 5215" d="M289.94,126.76c.44,0,.81-.09.81-.22a1.5,1.5,0,0,0-.43-.72,4.521,4.521,0,0,0,.82-.13,1.081,1.081,0,0,0-.07.6c0,.09.34,0,.67-.09s.57-.33.53-.43a1.32,1.32,0,0,0-.41-.33,3.189,3.189,0,0,0,.45-.23.869.869,0,0,0,0,.33c0,.06.23,0,.45-.06s.37-.22.35-.28a.87.87,0,0,0-.37-.26,4.148,4.148,0,0,0,.51-.43,1.62,1.62,0,0,0,.22.82c.09.08.41-.11.72-.44s.48-.66.39-.74a1.49,1.49,0,0,0-.87-.17,5.333,5.333,0,0,0,.44-.72,1,1,0,0,0,.29.44c.07,0,.24-.15.38-.42s.19-.53.11-.57a1,1,0,0,0-.58.06,4.581,4.581,0,0,0,.19-.75,1.55,1.55,0,0,0,.67.48c.12,0,.25-.34.29-.79s0-.82-.16-.83a1.69,1.69,0,0,0-.74.37,4.244,4.244,0,0,0-.07-.8,1.24,1.24,0,0,0,.58.1c.09,0,.07-.34-.05-.68s-.29-.59-.39-.55a1.32,1.32,0,0,0-.35.38,3.714,3.714,0,0,0-.19-.46.55.55,0,0,0,.31,0c.07,0,0-.22,0-.44s-.19-.39-.25-.37a.79.79,0,0,0-.28.34,4,4,0,0,0-.39-.53,1.58,1.58,0,0,0,.82-.16c.09-.09-.08-.42-.39-.75s-.62-.52-.71-.44a1.52,1.52,0,0,0-.23.85,5.4,5.4,0,0,0-.74-.51,1.12,1.12,0,0,0,.56-.4c0-.09-.19-.28-.52-.42s-.64-.18-.68-.09a1.31,1.31,0,0,0,.1.66,4.8,4.8,0,0,0-1.07-.27,1.54,1.54,0,0,0,.43-.69c0-.12-.36-.23-.8-.24s-.82.08-.82.2a1.49,1.49,0,0,0,.39.69,6.058,6.058,0,0,0-.76.1,1.261,1.261,0,0,0,0-.54c0-.09-.34,0-.67.08s-.57.33-.53.42a1.06,1.06,0,0,0,.34.3l-.37.18a.5.5,0,0,0,0-.25c0-.06-.22,0-.44.06s-.38.22-.35.28a.93.93,0,0,0,.28.23,3.469,3.469,0,0,0-.43.35,1.51,1.51,0,0,0-.21-.71c-.09-.09-.42.1-.73.42s-.49.66-.4.74a1.49,1.49,0,0,0,.77.19,3.54,3.54,0,0,0-.41.67,1.22,1.22,0,0,0-.39-.45c-.09,0-.27.21-.39.55s-.15.64-.06.67a1.08,1.08,0,0,0,.56-.08,6,6,0,0,0-.15.61,1.39,1.39,0,0,0-.6-.39c-.13,0-.25.34-.28.79s0,.81.16.82a1.46,1.46,0,0,0,.67-.31,3.359,3.359,0,0,0,.08.71,1.26,1.26,0,0,0-.51-.07c-.09,0-.07.34.05.68s.3.59.4.55a1.09,1.09,0,0,0,.31-.33c0,.13.11.26.17.38a.84.84,0,0,0-.25,0c-.06,0,0,.22,0,.45s.2.39.26.36a.76.76,0,0,0,.26-.29,5.444,5.444,0,0,0,.37.47,1.44,1.44,0,0,0-.77.18c-.09.08.09.41.39.74s.63.52.72.43a1.48,1.48,0,0,0,.22-.83,4.16,4.16,0,0,0,.75.48,1.26,1.26,0,0,0-.56.4c0,.09.2.28.53.42s.64.17.67.08a1.23,1.23,0,0,0-.1-.67,4.51,4.51,0,0,0,1.1.25,1.57,1.57,0,0,0-.45.71C289.13,126.65,289.49,126.75,289.94,126.76Z" fill="#407bff" opacity="0.5"/>
      <path id="Caminho_5216" data-name="Caminho 5216" d="M325.05,95.76c.13-.21.18-.4.13-.44a.89.89,0,0,0-.46,0,2.411,2.411,0,0,0,.16-.42.61.61,0,0,0,.26.19c.06,0,.12-.14.15-.33s0-.36-.06-.37a.8.8,0,0,0-.26.1,2.437,2.437,0,0,0,0-.27.37.37,0,0,0,.15.1.409.409,0,0,0,.09-.22,1.6,1.6,0,0,0,0-.24.34.34,0,0,0-.22.1.665.665,0,0,0-.07-.36.79.79,0,0,0,.44.12c.07,0,.07-.22,0-.45s-.18-.41-.24-.39a.83.83,0,0,0-.32.36,2.239,2.239,0,0,0-.22-.4.79.79,0,0,0,.29,0,.618.618,0,0,0-.09-.3c-.09-.14-.2-.23-.23-.21a.59.59,0,0,0-.14.29,4.007,4.007,0,0,0-.29-.29,1,1,0,0,0,.4-.18.636.636,0,0,0-.29-.36c-.2-.14-.39-.2-.43-.15a.93.93,0,0,0,0,.45,2.329,2.329,0,0,0-.39-.19.59.59,0,0,0,.2-.24.706.706,0,0,0-.32-.17,1,1,0,0,0-.37,0,.57.57,0,0,0,.08.27,1.24,1.24,0,0,0-.27,0,.35.35,0,0,0,.11-.14.552.552,0,0,0-.22-.11.557.557,0,0,0-.24,0,.59.59,0,0,0,.08.22h-.35a.84.84,0,0,0,.15-.42c0-.07-.22-.08-.45,0s-.42.15-.41.21a.82.82,0,0,0,.34.34,3.549,3.549,0,0,0-.44.21.74.74,0,0,0,0-.37.611.611,0,0,0-.35.13c-.16.13-.25.24-.22.29a.61.61,0,0,0,.33.13,2.86,2.86,0,0,0-.42.43.84.84,0,0,0-.2-.39c-.06,0-.21.1-.34.31s-.18.4-.12.43a.72.72,0,0,0,.43,0,3.169,3.169,0,0,0-.17.38.61.61,0,0,0-.23-.17c-.06,0-.12.14-.15.34s0,.35.05.36a.55.55,0,0,0,.23-.08c0,.08,0,.15,0,.23a.289.289,0,0,0-.11-.08.467.467,0,0,0-.09.23,1.651,1.651,0,0,0,0,.24.619.619,0,0,0,.18-.07.634.634,0,0,0,.05.3.86.86,0,0,0-.39-.1c-.07,0-.07.22,0,.45s.17.41.24.39a.81.81,0,0,0,.29-.3,2.64,2.64,0,0,0,.2.37.84.84,0,0,0-.32.06.543.543,0,0,0,.15.34c.15.16.26.24.31.21a.78.78,0,0,0,.11-.29,1.81,1.81,0,0,0,.24.24,1,1,0,0,0-.35.17.631.631,0,0,0,.3.35c.2.13.39.2.43.15a.86.86,0,0,0,0-.4,1.891,1.891,0,0,0,.36.16.5.5,0,0,0-.17.22.643.643,0,0,0,.33.16,1.222,1.222,0,0,0,.36,0,.52.52,0,0,0-.07-.24h.23a.26.26,0,0,0-.08.12.472.472,0,0,0,.22.1.83.83,0,0,0,.24,0,.52.52,0,0,0-.07-.2,1.65,1.65,0,0,0,.32,0,.8.8,0,0,0-.13.41c0,.06.22.07.46,0s.41-.16.4-.22a.83.83,0,0,0-.33-.33,2.492,2.492,0,0,0,.43-.22.74.74,0,0,0,0,.37.572.572,0,0,0,.34-.13c.15-.13.26-.25.23-.29a.79.79,0,0,0-.35-.14,2,2,0,0,0,.42-.44.88.88,0,0,0,.21.4C324.78,96.11,324.93,96,325.05,95.76Z" fill="#407bff" opacity="0.5"/>
      <path id="Caminho_5217" data-name="Caminho 5217" d="M192.91,239c-.22-.11-.42-.14-.45-.08a.84.84,0,0,0,0,.45,2.13,2.13,0,0,0-.43-.13.69.69,0,0,0,.18-.28.824.824,0,0,0-.35-.11c-.19-.01-.36,0-.36.08a.76.76,0,0,0,.12.26h-.27a.45.45,0,0,0,.09-.16.442.442,0,0,0-.23-.07h-.24a.46.46,0,0,0,.12.21,2,2,0,0,0-.35.09.75.75,0,0,0,.08-.44c0-.07-.22-.05-.45,0s-.39.21-.36.27a.72.72,0,0,0,.38.28c-.13.08-.26.16-.38.25a.58.58,0,0,0,0-.28.468.468,0,0,0-.29.12c-.13.12-.21.21-.18.24a.47.47,0,0,0,.29.11,4.148,4.148,0,0,0-.27.32.89.89,0,0,0-.21-.39c-.06,0-.2.11-.33.32s-.17.41-.11.44a.81.81,0,0,0,.44,0,3.386,3.386,0,0,0-.15.41.66.66,0,0,0-.26-.18c-.05,0-.11.14-.14.34s0,.35.06.36a.61.61,0,0,0,.26-.1,2.444,2.444,0,0,0,0,.27.45.45,0,0,0-.14-.1.544.544,0,0,0-.1.22.83.83,0,0,0,0,.24.36.36,0,0,0,.22-.1,2,2,0,0,0,.06.35.94.94,0,0,0-.43-.11c-.07,0-.06.22,0,.46s.18.4.24.38a.82.82,0,0,0,.31-.36,2.22,2.22,0,0,0,.25.42.74.74,0,0,0-.37.06.508.508,0,0,0,.15.33c.15.15.27.24.31.2a.6.6,0,0,0,.11-.34,2.5,2.5,0,0,0,.46.39.92.92,0,0,0-.38.23c0,.06.12.2.34.31s.41.15.45.09a.84.84,0,0,0,0-.43,2,2,0,0,0,.39.13.65.65,0,0,0-.15.25c0,.06.15.11.35.12s.35,0,.36-.08a.62.62,0,0,0-.1-.22h.22l-.06.11a.513.513,0,0,0,.23.08c.13.01.24,0,.24-.05a.41.41,0,0,0-.09-.18l.3-.07a.9.9,0,0,0-.07.4c0,.06.23,0,.46,0s.39-.2.36-.27a.82.82,0,0,0-.33-.27,2.16,2.16,0,0,0,.36-.22.67.67,0,0,0,.09.31.439.439,0,0,0,.32-.18c.14-.18.22-.28.18-.32a.64.64,0,0,0-.29-.09,2.752,2.752,0,0,0,.22-.26.87.87,0,0,0,.2.34c.06,0,.2-.12.32-.33s.17-.4.12-.44a.85.85,0,0,0-.4,0,1.493,1.493,0,0,1,.13-.37.79.79,0,0,0,.23.16c.05,0,.11-.15.13-.35s0-.35-.06-.36a.63.63,0,0,0-.23.09,1.772,1.772,0,0,0,0-.23l.11.07a.409.409,0,0,0,.09-.22,1.607,1.607,0,0,0,0-.24.51.51,0,0,0-.19.08.551.551,0,0,0-.07-.32.84.84,0,0,0,.42.1c.06,0,0-.22,0-.45s-.19-.41-.25-.38a.72.72,0,0,0-.3.35,2.141,2.141,0,0,0-.25-.41.7.7,0,0,0,.36-.06c.05,0,0-.19-.16-.33s-.27-.24-.31-.2a.77.77,0,0,0-.1.35,2.59,2.59,0,0,0-.48-.38.89.89,0,0,0,.39-.24A1.187,1.187,0,0,0,192.91,239Z" fill="#407bff" opacity="0.3"/>
      <path id="Caminho_5218" data-name="Caminho 5218" d="M207.27,115.67c.43-.14.75-.34.71-.46a1.6,1.6,0,0,0-.64-.56,4,4,0,0,0,.75-.37,1,1,0,0,0,.12.59c.06.08.33-.05.61-.29s.44-.49.37-.56a1.12,1.12,0,0,0-.49-.19c.13-.12.24-.24.36-.36a.71.71,0,0,0,.08.32.6.6,0,0,0,.4-.19c.18-.19.29-.33.25-.38a.86.86,0,0,0-.43-.13,4.15,4.15,0,0,0,.35-.57,1.57,1.57,0,0,0,.46.71c.11,0,.36-.23.55-.63s.26-.78.14-.83a1.52,1.52,0,0,0-.88.11,4,4,0,0,0,.2-.83,1,1,0,0,0,.41.34c.09,0,.19-.22.24-.52s0-.56-.07-.58a1.2,1.2,0,0,0-.54.24,3.939,3.939,0,0,0,0-.77,1.55,1.55,0,0,0,.78.25c.12,0,.13-.41,0-.84s-.28-.77-.4-.74a1.55,1.55,0,0,0-.59.57,4,4,0,0,0-.32-.74,1.16,1.16,0,0,0,.59-.08c.08-.06,0-.34-.25-.63s-.46-.47-.54-.41a1.06,1.06,0,0,0-.22.47,2.909,2.909,0,0,0-.33-.37.8.8,0,0,0,.32-.06c.05,0,0-.23-.17-.42s-.3-.31-.35-.27a.76.76,0,0,0-.16.41,4.7,4.7,0,0,0-.53-.38,1.54,1.54,0,0,0,.72-.41c.06-.11-.2-.37-.6-.59s-.75-.31-.81-.2a1.44,1.44,0,0,0,.05.88,4.36,4.36,0,0,0-.87-.26,1.29,1.29,0,0,0,.42-.55c0-.1-.27-.21-.63-.24s-.66,0-.67.12a1.18,1.18,0,0,0,.29.59,5.131,5.131,0,0,0-1.1.07,1.58,1.58,0,0,0,.2-.78c0-.12-.41-.11-.84,0s-.75.33-.71.45a1.52,1.52,0,0,0,.58.54,4.049,4.049,0,0,0-.7.32,1.2,1.2,0,0,0-.11-.53c-.07-.07-.34,0-.62.29s-.44.48-.38.56a1.22,1.22,0,0,0,.42.18l-.3.28a.63.63,0,0,0-.07-.24c0-.05-.22,0-.4.19s-.3.32-.25.38a.83.83,0,0,0,.34.13,5.461,5.461,0,0,0-.31.47,1.6,1.6,0,0,0-.41-.62c-.12,0-.37.23-.56.63s-.27.77-.16.83a1.65,1.65,0,0,0,.79-.06,3.841,3.841,0,0,0-.19.76,1.18,1.18,0,0,0-.51-.31c-.1,0-.19.29-.2.65s.05.65.15.66a1.3,1.3,0,0,0,.5-.25,4.767,4.767,0,0,0,.06.63,1.45,1.45,0,0,0-.7-.2c-.12,0-.14.41,0,.84s.29.77.42.74a1.64,1.64,0,0,0,.53-.51,3.928,3.928,0,0,0,.3.66,1,1,0,0,0-.51.09c-.08.06,0,.34.26.63s.46.46.54.4a1.15,1.15,0,0,0,.2-.41,4.119,4.119,0,0,0,.28.31.62.62,0,0,0-.25.06.672.672,0,0,0,.17.41c.17.19.31.31.36.27a.89.89,0,0,0,.15-.36,5.387,5.387,0,0,0,.5.33,1.58,1.58,0,0,0-.68.41c-.06.11.21.37.6.59s.76.3.82.19a1.45,1.45,0,0,0-.05-.86,4.37,4.37,0,0,0,.86.23,1.3,1.3,0,0,0-.41.55c0,.1.28.21.64.24s.65,0,.66-.13a1.26,1.26,0,0,0-.3-.61,4.25,4.25,0,0,0,1.12-.1,1.65,1.65,0,0,0-.21.82C206.47,115.81,206.85,115.8,207.27,115.67Z" fill="#407bff" opacity="0.3"/>
      <path id="Caminho_5219" data-name="Caminho 5219" d="M282.15,173.65c.06-.24.05-.44,0-.46a.89.89,0,0,0-.44.15,1.709,1.709,0,0,0,0-.45.58.58,0,0,0,.31.1.539.539,0,0,0,0-.36c-.07-.19-.11-.34-.16-.33a.669.669,0,0,0-.22.18,1.342,1.342,0,0,0-.07-.27.3.3,0,0,0,.17,0v-.24c0-.13-.07-.22-.11-.22a.63.63,0,0,0-.18.17,1.911,1.911,0,0,0-.16-.32.86.86,0,0,0,.45,0c.06,0,0-.23-.14-.43s-.3-.34-.35-.3a.82.82,0,0,0-.19.44,2.42,2.42,0,0,0-.33-.31.76.76,0,0,0,.27-.1.65.65,0,0,0-.18-.26c-.13-.11-.26-.16-.29-.12a.58.58,0,0,0,0,.31,2.149,2.149,0,0,0-.37-.19.81.81,0,0,0,.33-.29c0-.07-.15-.18-.38-.25s-.43-.08-.45,0a.78.78,0,0,0,.1.43,3.175,3.175,0,0,0-.43-.06.59.59,0,0,0,.12-.29c0-.06-.17-.08-.36-.06s-.35.09-.34.14a.62.62,0,0,0,.16.23l-.27.05a.571.571,0,0,0,.07-.16.342.342,0,0,0-.24,0c-.12.05-.23.06-.23.09a.43.43,0,0,0,.15.19l-.33.14a.76.76,0,0,0,0-.45c0-.05-.23,0-.44.12s-.35.27-.32.33a.84.84,0,0,0,.43.21,2.311,2.311,0,0,0-.36.34.65.65,0,0,0-.14-.35.774.774,0,0,0-.29.23c-.12.16-.17.31-.13.34a.62.62,0,0,0,.36,0,2.731,2.731,0,0,0-.27.54.8.8,0,0,0-.31-.31c-.06,0-.16.16-.22.39s-.05.44,0,.46a.83.83,0,0,0,.41-.13,3,3,0,0,0,0,.42.51.51,0,0,0-.28-.09c-.05,0-.06.17,0,.36s.1.34.16.33a.59.59,0,0,0,.2-.14,1.6,1.6,0,0,0,.05.21h-.13a.334.334,0,0,0,0,.24c.05.13.07.23.11.22a.33.33,0,0,0,.15-.12c0,.09.09.18.14.27a.73.73,0,0,0-.4,0c-.06,0,0,.23.14.43s.28.33.34.3a.92.92,0,0,0,.19-.39,2.13,2.13,0,0,0,.3.3.74.74,0,0,0-.28.15.756.756,0,0,0,.25.28c.17.11.32.15.35.1a.76.76,0,0,0,0-.3,1.681,1.681,0,0,0,.3.15.88.88,0,0,0-.28.27c0,.07.16.18.39.25s.43.07.45,0a.68.68,0,0,0-.09-.38h.39a.56.56,0,0,0-.09.26c0,.05.17.07.36.05s.34-.09.34-.14a.8.8,0,0,0-.14-.21h.22a.3.3,0,0,0,0,.13.334.334,0,0,0,.24,0c.13-.05.23-.06.22-.09a.4.4,0,0,0-.12-.17l.29-.14a.85.85,0,0,0,0,.43c0,.05.23,0,.44-.12s.35-.28.32-.33a.88.88,0,0,0-.42-.22,2.128,2.128,0,0,0,.34-.33.72.72,0,0,0,.15.34.706.706,0,0,0,.28-.23c.11-.16.17-.32.13-.35a.66.66,0,0,0-.37,0,2.2,2.2,0,0,0,.26-.56.259.259,0,1,0,.47-.05Z" fill="#407bff" opacity="0.7"/>
      <path id="Caminho_5220" data-name="Caminho 5220" d="M153.13,192.42c.09-.37.07-.69,0-.72a1.23,1.23,0,0,0-.68.23,4.23,4.23,0,0,0,0-.71,1.11,1.11,0,0,0,.49.17c.08,0,.1-.27.05-.57s-.17-.54-.26-.52a1,1,0,0,0-.35.28,2.168,2.168,0,0,0-.11-.42.59.59,0,0,0,.27.08c.06,0,.07-.18,0-.38s-.12-.35-.17-.34a.72.72,0,0,0-.28.25,4.82,4.82,0,0,0-.27-.5,1.29,1.29,0,0,0,.72,0c.09-.06,0-.36-.23-.68s-.46-.52-.55-.46a1.36,1.36,0,0,0-.29.69,4.928,4.928,0,0,0-.52-.5.87.87,0,0,0,.42-.15c.05-.06-.08-.24-.28-.4s-.4-.25-.45-.2a.92.92,0,0,0-.06.5,3.271,3.271,0,0,0-.59-.3,1.28,1.28,0,0,0,.52-.47c0-.1-.23-.27-.6-.38s-.68-.13-.71,0a1.34,1.34,0,0,0,.16.67,3.83,3.83,0,0,0-.67-.08,1.28,1.28,0,0,0,.19-.46c0-.09-.27-.13-.57-.09s-.55.13-.54.22a1.21,1.21,0,0,0,.25.36,2.7,2.7,0,0,0-.41.08.59.59,0,0,0,.09-.26c0-.05-.17-.08-.37-.06s-.36.09-.36.15a.8.8,0,0,0,.23.29,3.22,3.22,0,0,0-.5.23,1.28,1.28,0,0,0,0-.71c0-.09-.36,0-.69.18s-.55.42-.5.51a1.3,1.3,0,0,0,.66.35,3.919,3.919,0,0,0-.56.52,1,1,0,0,0-.22-.54.817.817,0,0,0-.45.36c-.18.25-.27.49-.2.54a1.09,1.09,0,0,0,.56,0,4.119,4.119,0,0,0-.42.84,1.36,1.36,0,0,0-.49-.49c-.1,0-.26.26-.35.63s-.09.68,0,.71a1.25,1.25,0,0,0,.64-.19,3.57,3.57,0,0,0-.06.65,1,1,0,0,0-.44-.15c-.08,0-.1.27,0,.58s.16.53.25.52a1.08,1.08,0,0,0,.31-.23.536.536,0,0,0,.08.34.42.42,0,0,0-.2,0c-.06,0-.08.18,0,.38s.11.35.16.34a.76.76,0,0,0,.25-.19,4.111,4.111,0,0,0,.21.42,1.34,1.34,0,0,0-.63,0c-.09.06,0,.37.22.69s.45.52.54.47a1.3,1.3,0,0,0,.29-.61,4.25,4.25,0,0,0,.48.47,1,1,0,0,0-.44.24c-.05.07.12.26.38.43s.51.24.55.17a1,1,0,0,0,0-.48,2.648,2.648,0,0,0,.48.23,1.25,1.25,0,0,0-.44.44c0,.1.24.27.6.37s.69.12.72,0a1.27,1.27,0,0,0-.14-.61,3.15,3.15,0,0,0,.61.06.88.88,0,0,0-.15.41c0,.09.26.12.57.08s.54-.14.53-.22a1,1,0,0,0-.22-.32l.35-.08a.56.56,0,0,0-.06.21c0,.06.17.08.37.06s.36-.1.36-.15a.8.8,0,0,0-.2-.27,3.883,3.883,0,0,0,.46-.22,1.2,1.2,0,0,0,0,.67c.06.09.36,0,.69-.19s.55-.42.49-.51a1.22,1.22,0,0,0-.64-.34,3.319,3.319,0,0,0,.53-.53,1.1,1.1,0,0,0,.23.54c.07.05.27-.11.45-.36s.26-.5.19-.55a1.08,1.08,0,0,0-.58,0,3.73,3.73,0,0,0,.41-.88,1.24,1.24,0,0,0,.51.51C152.89,193.07,153,192.79,153.13,192.42Z" fill="#407bff" opacity="0.7"/>
    </g>
    <g id="freepik--Character--inject-2">
      <path id="Caminho_5221" data-name="Caminho 5221" d="M396.08,226a186.869,186.869,0,0,1,5,18.71c.66,3.17,1.26,6.36,1.7,9.61a81,81,0,0,1,.89,10v.99a8.005,8.005,0,0,1-.08,1.2A7.33,7.33,0,0,1,402,270a11,11,0,0,1-3.27,2.7,27.711,27.711,0,0,1-5.29,2.19,75.342,75.342,0,0,1-9.75,2.24A146.307,146.307,0,0,1,364.54,279l-.73-5.7c6-1.48,12.1-3,17.95-4.73a87.152,87.152,0,0,0,8.41-2.88,17.759,17.759,0,0,0,3.29-1.7c.37-.24.6-.55.34-.29a2.71,2.71,0,0,0-.57,1.36,2.068,2.068,0,0,0,0,.61v-.24l-.06-.54a130.409,130.409,0,0,0-3.29-17.63c-1.45-5.92-3.1-11.94-4.8-17.74Z" fill="#ffb573"/>
      <path id="Caminho_5222" data-name="Caminho 5222" d="M348.77,279.28l4.38,4a3.38,3.38,0,0,0,3.76.55l4.84-2.33s7.17-.29,8.19-4.68l-1.85-3.4L357,272.18a5.21,5.21,0,0,0-3.27.73l-4.58,2.8a2.24,2.24,0,0,0-.38,3.57Z" fill="#ffb573"/>
      <path id="Caminho_5223" data-name="Caminho 5223" d="M375,180.91c-1.14,6.86-2.1,19.41,2.81,23.82,0,0-12,6.28-19.85,17.24-8.41-6.66-1.37-16.6-1.37-16.6,7.56-2.05,7.2-7.69,5.71-13Z" fill="#ffb573"/>
      <path id="Caminho_5224" data-name="Caminho 5224" d="M352.55,207.38a7.53,7.53,0,0,1,3.81-4.89c3.18-1.62,22.43-.24,22.43-.24l3.77,4.43Z" fill="#407bff"/>
      <path id="Caminho_5225" data-name="Caminho 5225" d="M392.75,207.79c7.28,2.88,8.61,22.17,8.54,21.65l-17.42,10.44s-4.46-12.37-4.43-19.41C379.48,213,387,205.52,392.75,207.79Z" fill="#263238"/>
      <path id="Caminho_5226" data-name="Caminho 5226" d="M336.41,223.37c.73,9.92,2.94,26.65,8.38,54.79l46.72-1.38c-1.22-17.25.63-30.11,4.85-60.3a9.81,9.81,0,0,0-8.72-11.12c-3-.31-6.41-.56-9.84-.63-7.87-.14-14.32-.2-21.22.64-2.27.27-4.63.63-6.87,1a16,16,0,0,0-13.3,17Z" fill="#263238"/>
      <path id="Caminho_5227" data-name="Caminho 5227" d="M350.81,168.27c-.11.92-.69,1.61-1.29,1.53s-1-.87-.89-1.8.69-1.61,1.29-1.53S350.92,167.34,350.81,168.27Z" fill="#263238"/>
      <path id="Caminho_5228" data-name="Caminho 5228" d="M350.18,166.55l-2.14-.9S349,167.51,350.18,166.55Z" fill="#263238"/>
      <path id="Caminho_5229" data-name="Caminho 5229" d="M350.49,169.7a24.661,24.661,0,0,1-4,5.48c1.08,1.29,3.21,1,3.21,1Z" fill="#ed893e"/>
      <path id="Caminho_5230" data-name="Caminho 5230" d="M350.7,160.18a.54.54,0,0,1,.69-.79,5.38,5.38,0,0,1,3.1,3.89.544.544,0,1,1-1.08.14h0a4.32,4.32,0,0,0-2.49-3,.51.51,0,0,1-.22-.24Z" fill="#263238"/>
      <path id="Caminho_5231" data-name="Caminho 5231" d="M382.61,168.06c-2.05,11.23-2.68,16-9.1,21.16-9.64,7.71-23,2.73-24.34-8.89-1.22-10.47,2.34-27.09,14-30.26a15.58,15.58,0,0,1,19.44,17.99Z" fill="#ffb573"/>
      <path id="Caminho_5232" data-name="Caminho 5232" d="M356.57,152.09c-10.07,3-.9,15.74,3.42,18.53-2.88,4-8.7,23.51,9.87,28s20.08-16.9,15.94-21.17c11.06-12.51,3.07-24.59-2.92-28.61C375.23,143.73,357.45,140.17,356.57,152.09Z" fill="#263238"/>
      <path id="Caminho_5233" data-name="Caminho 5233" d="M376.76,148.62c.59-4.05,9.94-13,15.09-4.88,4.41,6.93-6.74,11-9.84,10.84S376.76,148.62,376.76,148.62Z" fill="#263238"/>
      <path id="Caminho_5234" data-name="Caminho 5234" d="M361.64,173a9,9,0,0,1-5.3,4.33c-3,.88-4.56-1.8-3.76-4.67.73-2.58,3.17-6.14,6.21-5.77S363,170.39,361.64,173Z" fill="#ffb573"/>
      <path id="Caminho_5235" data-name="Caminho 5235" d="M305.9,411.25l-11.09-.2,2.84-27.61,11.09.2Z" fill="#ffb573"/>
      <path id="Caminho_5236" data-name="Caminho 5236" d="M294.46,402.44l12.92.54a.89.89,0,0,1,.87.82l.88,9.26a2,2,0,0,1-1.79,2.13c-3.8.55-6-.49-11.71-.73-3.5-.14-12.9.2-17.4-1.56s-2.92-6.28-.88-5.94c9.13,1.49,12-1.47,15.15-3.89a3,3,0,0,1,1.96-.63Z" fill="#263238"/>
      <g id="Grupo_3300" data-name="Grupo 3300" opacity="0.2">
        <path id="Caminho_5237" data-name="Caminho 5237" d="M297.65,383.44l-1.46,14.24,11.09.2,1.47-14.23Z"/>
      </g>
      <path id="Caminho_5238" data-name="Caminho 5238" d="M262.45,384.63l-9.95-5.3,10.53-25.23,8.24,14.01Z" fill="#ffb573"/>
      <path id="Caminho_5239" data-name="Caminho 5239" d="M253.45,374.16l11.09,6.65a.91.91,0,0,1,.37,1.14l-4.15,9.44a1.89,1.89,0,0,1-2.67.79c-3.82-2.39-5.55-3.73-10.42-6.66-3-1.8-10.8-6.13-14.94-8.62s-1.84-6.67.12-6c8.75,3,14.62,3.47,18.58,2.87a3,3,0,0,1,2.02.39Z" fill="#263238"/>
      <g id="Grupo_3301" data-name="Grupo 3301" opacity="0.2">
        <path id="Caminho_5240" data-name="Caminho 5240" d="M263.03,354.11l-5.43,13,11.06,5.9,2.62-4.89Z"/>
      </g>
      <path id="Caminho_5241" data-name="Caminho 5241" d="M361.08,277.35s-80-12.41-83.48,8.2c-6.11,35.87-20.16,76.94-20.16,76.94l13,8.87s21.19-37.5,32.93-71.39c14,4.53,54,20.36,70.28,20.36,17.44,0,24.56-14.87,18.26-39.57a5,5,0,0,0-4.84-3.71C376.12,277.1,361.08,277.35,361.08,277.35Z" fill="#407bff"/>
      <path id="Caminho_5242" data-name="Caminho 5242" d="M258.03,355.44l-1.02,7.13,13.55,9.41,4.14-5.15Z" fill="#263238"/>
      <path id="Caminho_5243" data-name="Caminho 5243" d="M291.91,305.25c-.17,4.26-2.4,19.15-3.5,31,2.24-4.8,4.54-9.89,6.75-15.09Z" opacity="0.2"/>
      <path id="Caminho_5244" data-name="Caminho 5244" d="M353.83,287.2s-65.41-.36-63.37,21.54c3.38,36.23,3.44,85.45,3.44,85.45L310,395s8.6-38.77,9.33-74.63h48c18.3,0,26.21-20.1,8.4-43.55C364.79,276.78,353.83,287.2,353.83,287.2Z" fill="#407bff"/>
      <path id="Caminho_5245" data-name="Caminho 5245" d="M293.41,394.41l-.84-6.3,19.18,1.44-1.44,5.88Z" fill="#263238"/>
      <path id="Caminho_5246" data-name="Caminho 5246" d="M392.13,274l1.32,4.15c.17.32-.2.66-.74.68l-48.09,1.43c-.42,0-.78-.19-.81-.45l-.55-4.17c0-.29.32-.55.78-.56l47.32-1.41A.86.86,0,0,1,392.13,274Z" fill="#fff"/>
      <path id="Caminho_5247" data-name="Caminho 5247" d="M385.93,279.49h1.27c.25,0,.44-.14.42-.3l-.76-5.41c0-.16-.24-.29-.5-.28H385.1c-.26,0-.44.14-.42.3l.75,5.42C385.46,279.38,385.68,279.5,385.93,279.49Z" fill="#263238"/>
      <path id="Caminho_5248" data-name="Caminho 5248" d="M348.19,280.61h1.27c.25,0,.44-.15.42-.31l-.76-5.41c0-.16-.24-.28-.5-.28h-1.26c-.26,0-.44.15-.42.3l.75,5.42C347.72,280.5,347.94,280.62,348.19,280.61Z" fill="#263238"/>
      <path id="Caminho_5249" data-name="Caminho 5249" d="M367.06,280.05h1.27c.25,0,.44-.15.42-.31L368,274.3c0-.16-.24-.28-.5-.28h-1.26c-.26,0-.44.14-.42.3l.75,5.42C366.59,279.94,366.81,280.06,367.06,280.05Z" fill="#263238"/>
      <path id="Caminho_5250" data-name="Caminho 5250" d="M347.92,229.56c0,3.24-.26,6.23-.52,9.33s-.66,6.15-1.13,9.22a82.18,82.18,0,0,1-4.92,18.54,35,35,0,0,1-2.39,4.67,11.391,11.391,0,0,1-.75,1.16l-.4.58-.1.15v.07l-.1.13-.41.51a8.83,8.83,0,0,1-2.26,1.84,8.371,8.371,0,0,1-2.78.93,9.81,9.81,0,0,1-4.42-.42,15.229,15.229,0,0,1-2.94-1.32,26,26,0,0,1-4.32-3.13,69.71,69.71,0,0,1-12.09-14.46l4.46-3.64,3.24,2.91,3.3,2.83a74,74,0,0,0,6.67,5.07,21.941,21.941,0,0,0,3.19,1.74,5.19,5.19,0,0,0,1.2.37c.27,0,.36-.06,0-.05a2.1,2.1,0,0,0-1.24.59.23.23,0,0,0-.07.07h0l.05-.09.21-.36c.14-.23.28-.47.41-.74a25.518,25.518,0,0,0,1.47-3.41,55.313,55.313,0,0,0,2.14-7.83c.58-2.72,1-5.53,1.41-8.36s.68-5.7.94-8.57.44-5.82.58-8.55Z" fill="#ffb573"/>
      <path id="Caminho_5251" data-name="Caminho 5251" d="M340.26,212.68c-4.31,2.32-6.64,19.24-6.64,19.24L354,241.06s3.83-14.51.71-20.05C351.45,215.23,345.17,210,340.26,212.68Z" fill="#263238"/>
      <rect id="Retângulo_5679" data-name="Retângulo 5679" width="16.82" height="21.98" rx="1.52" transform="translate(281.28 237.76)" fill="#263238"/>
      <path id="Caminho_5252" data-name="Caminho 5252" d="M296.54,257.21c-4.82,0-7.93-3.32-7.93-8.45s3.11-8.46,7.93-8.46,7.93,3.32,7.93,8.46S301.35,257.21,296.54,257.21Zm0-14.75c-3.56,0-5.77,2.41-5.77,6.3s2.21,6.29,5.77,6.29,5.77-2.41,5.77-6.29-2.21-6.3-5.77-6.3Z" fill="#263238"/>
      <path id="Caminho_5253" data-name="Caminho 5253" d="M286.76,255.63l-3.52-6.88,3.52-6.87,3.51,6.87Z" fill="#fff"/>
      <path id="Caminho_5254" data-name="Caminho 5254" d="M303.35,242.54l4.52,2.13a5.64,5.64,0,0,1,2.62,2.53l5,9.83-1.82,3.42c-4.22,1.56-8.42-4.27-8.42-4.27l-5.17-3.1a2.39,2.39,0,0,1-1.14-2.45l1-6.29a2.41,2.41,0,0,1,3.41-1.8Z" fill="#ffb573"/>
      <path id="Caminho_5255" data-name="Caminho 5255" d="M405.64,297H376.9a19.1,19.1,0,0,0-15.22,7.56L351.13,318.5H317.88a4,4,0,0,0-3.83,2.74l-2.19,6.48a4,4,0,0,0,3.83,5.34h67.17a4,4,0,0,0,3.15-1.56l22.2-29.33a3.22,3.22,0,0,0-2.57-5.17Z" fill="#263238"/>
      <path id="Caminho_5256" data-name="Caminho 5256" d="M366.76,414.25h-2.45l-37.16-81.21h2.44Z" fill="#263238"/>
      <path id="Caminho_5257" data-name="Caminho 5257" d="M379.14,414.25H376.7l-37.16-81.21h2.44Z" fill="#263238"/>
      <path id="Caminho_5258" data-name="Caminho 5258" d="M335.43,414.25h2.44l37.16-81.21h-2.44Z" fill="#263238"/>
      <path id="Caminho_5259" data-name="Caminho 5259" d="M323.04,414.25h2.44l37.16-81.21H360.2Z" fill="#263238"/>
    </g>
    <g id="freepik--Plant--inject-2">
      <path id="Caminho_5260" data-name="Caminho 5260" d="M146.1,378.78c-2.42-35.41-14.35-121.78-22.3-134.06s-60.1,4.68-60.1,4.68,47.94-3.36,54.2-1.55,6,1,8.07,6.75,8.31,37.7,10.6,54.08,7.83,64.2,7.71,70.1Z" fill="#407bff"/>
      <path id="Caminho_5261" data-name="Caminho 5261" d="M125.85,252.19c2.72,1.21-4.09-7.11-9.27-6-3.8.8-40.11,11.93-54.21,30.6C80,266,121.27,250.14,125.85,252.19Z" fill="#407bff"/>
      <path id="Caminho_5262" data-name="Caminho 5262" d="M126.47,252.37c1.41,1.92-1.73-10.48-5.63-12-2.87-1.11-31.47-9.47-47.7-3.61C88.9,237.43,124.1,249.12,126.47,252.37Z" fill="#407bff"/>
      <path id="Caminho_5263" data-name="Caminho 5263" d="M148.31,378.78c-.82-26.56,1.72-91.36,6.78-100.58s45.44,3.52,45.44,3.52-36.22-2.52-40.78-1.17-4.45.73-5.56,5.06-3.44,28.29-3.94,40.58-1.11,48.16-.58,52.59Z" fill="#407bff"/>
      <path id="Caminho_5264" data-name="Caminho 5264" d="M154.1,283.81c-1.94.91,2.55-5.33,6.52-4.52,2.91.6,31,8.94,42.93,22.95C189.56,294.2,157.39,282.27,154.1,283.81Z" fill="#407bff"/>
      <path id="Caminho_5265" data-name="Caminho 5265" d="M153.65,283.94c-.91,1.45.53-7.86,3.34-9,2.07-.83,22.91-7.1,35.52-2.71C180.73,272.74,155.19,281.51,153.65,283.94Z" fill="#407bff"/>
      <path id="Caminho_5266" data-name="Caminho 5266" d="M153.56,288c-.6.93.31-7.84,2.17-7.25,1.37.43,15.15,7,23.54,19.52C171.46,293.35,154.57,286.41,153.56,288Z" fill="#407bff"/>
      <path id="Caminho_5267" data-name="Caminho 5267" d="M152.78,290.64c-.48.74,1.05-7,2.17-6.19.83.61,9,8.67,13,21.21C163.66,298.26,153.6,289.39,152.78,290.64Z" fill="#407bff"/>
      <path id="Caminho_5268" data-name="Caminho 5268" d="M156.58,284.23c0,1.43,1.83-7,1-8.5-.63-1.08-7.56-10-13.89-8.21C148.37,269.89,156.58,281.83,156.58,284.23Z" fill="#407bff"/>
      <path id="Caminho_5269" data-name="Caminho 5269" d="M153,289.89c0,1.2,3.12-10.72,2-11.69-.84-.71-9.43-6-19.32-2.95C141.38,275.84,153,280.69,153,289.89Z" fill="#407bff"/>
      <path id="Caminho_5270" data-name="Caminho 5270" d="M128.72,362.35h39.72l-6.37,47.7H135.09Z" fill="#407bff"/>
      <path id="Caminho_5271" data-name="Caminho 5271" d="M128.72,362.35h39.72l-6.37,47.7H135.09Z" fill="#fff" opacity="0.6"/>
      <path id="Caminho_5272" data-name="Caminho 5272" d="M125.59,362.35h45.99l-2.69,7.35H128.27Z" fill="#407bff"/>
      <path id="Caminho_5273" data-name="Caminho 5273" d="M125.59,362.35h45.99l-2.69,7.35H128.27Z" fill="#fff" opacity="0.4"/>
    </g>
  </g>
</svg>
