<svg xmlns="http://www.w3.org/2000/svg" width="557" height="415.032" viewBox="0 0 557 415.032">
  <g id="Customer_Survey-rafiki" data-name="Customer Survey-rafiki" transform="translate(0 -55)">
    <g id="freepik--background-complete--inject-1" transform="translate(0 55)">
      <rect id="Retângulo_5828" data-name="Retângulo 5828" width="557" height="0.278" transform="translate(0 364.724)" fill="#ebebeb"/>
      <rect id="Retângulo_5829" data-name="Retângulo 5829" width="36.896" height="0.278" transform="translate(464.293 382.648)" fill="#ebebeb"/>
      <rect id="Retângulo_5830" data-name="Retângulo 5830" width="9.681" height="0.278" transform="translate(359.298 385.678)" fill="#ebebeb"/>
      <rect id="Retângulo_5831" data-name="Retângulo 5831" width="21.378" height="0.278" transform="translate(441.801 372.31)" fill="#ebebeb"/>
      <rect id="Retângulo_5832" data-name="Retângulo 5832" width="48.114" height="0.278" transform="translate(58.44 374.181)" fill="#ebebeb"/>
      <rect id="Retângulo_5833" data-name="Retângulo 5833" width="7.052" height="0.278" transform="translate(116.48 374.181)" fill="#ebebeb"/>
      <rect id="Retângulo_5834" data-name="Retângulo 5834" width="104.36" height="0.278" transform="translate(146.458 378.883)" fill="#ebebeb"/>
      <path id="Caminho_5710" data-name="Caminho 5710" d="M259.662,370.039H44.56a6.361,6.361,0,0,1-6.35-6.361V61.305A6.361,6.361,0,0,1,44.56,55h215.1a6.361,6.361,0,0,1,6.361,6.361V363.678A6.361,6.361,0,0,1,259.662,370.039ZM44.56,55.223a6.082,6.082,0,0,0-6.071,6.082V363.678a6.082,6.082,0,0,0,6.071,6.082h215.1a6.094,6.094,0,0,0,6.082-6.082V61.305a6.094,6.094,0,0,0-6.082-6.082Z" transform="translate(4.356 -55)" fill="#ebebeb"/>
      <path id="Caminho_5711" data-name="Caminho 5711" d="M475.974,370.039H260.861a6.372,6.372,0,0,1-6.361-6.361V61.305A6.372,6.372,0,0,1,260.861,55H475.974a6.361,6.361,0,0,1,6.339,6.305V363.678A6.361,6.361,0,0,1,475.974,370.039ZM260.861,55.223a6.094,6.094,0,0,0-6.082,6.082V363.678a6.094,6.094,0,0,0,6.082,6.082H475.974a6.094,6.094,0,0,0,6.082-6.082V61.305a6.094,6.094,0,0,0-6.082-6.082Z" transform="translate(29.013 -55)" fill="#ebebeb"/>
      <rect id="Retângulo_5835" data-name="Retângulo 5835" width="39.101" height="145.633" transform="translate(337.408 364.724) rotate(180)" fill="#e6e6e6"/>
      <path id="Caminho_5712" data-name="Caminho 5712" d="M274.286,383.742H267.78V370.63h13.335Z" transform="translate(30.527 -19.018)" fill="#f0f0f0"/>
      <rect id="Retângulo_5836" data-name="Retângulo 5836" width="39.101" height="145.633" transform="translate(496.554 364.724) rotate(180)" fill="#e6e6e6"/>
      <rect id="Retângulo_5837" data-name="Retângulo 5837" width="164.827" height="140.598" transform="translate(463.134 359.688) rotate(180)" fill="#f0f0f0"/>
      <rect id="Retângulo_5838" data-name="Retângulo 5838" width="154.723" height="38.556" transform="translate(458.088 263.873) rotate(180)" fill="#e6e6e6"/>
      <path id="Caminho_5713" data-name="Caminho 5713" d="M336.918,269.346h14.616c6.35,0,12.421-4.757,16.788-13.156H320.13C324.5,264.612,330.568,269.346,336.918,269.346Z" transform="translate(36.495 -32.064)" fill="#f0f0f0"/>
      <path id="Caminho_5714" data-name="Caminho 5714" d="M410.6,383.742H417.1V370.63H403.77Z" transform="translate(46.03 -19.018)" fill="#f0f0f0"/>
      <rect id="Retângulo_5839" data-name="Retângulo 5839" width="154.723" height="38.556" transform="translate(458.088 308.667) rotate(180)" fill="#e6e6e6"/>
      <path id="Caminho_5715" data-name="Caminho 5715" d="M336.918,309.566h14.616c6.35,0,12.421-4.757,16.788-13.156H320.13C324.5,304.865,330.568,309.566,336.918,309.566Z" transform="translate(36.495 -27.479)" fill="#f0f0f0"/>
      <rect id="Retângulo_5840" data-name="Retângulo 5840" width="154.723" height="38.556" transform="translate(458.088 353.461) rotate(180)" fill="#e6e6e6"/>
      <path id="Caminho_5716" data-name="Caminho 5716" d="M336.918,349.776h14.616c6.35,0,12.421-4.757,16.788-13.156H320.13C324.5,345.02,330.568,349.776,336.918,349.776Z" transform="translate(36.495 -22.895)" fill="#f0f0f0"/>
      <rect id="Retângulo_5841" data-name="Retângulo 5841" width="149.321" height="151.092" transform="translate(236.201 186.06) rotate(180)" fill="#e6e6e6"/>
      <rect id="Retângulo_5842" data-name="Retângulo 5842" width="156.94" height="151.092" transform="translate(233.45 186.06) rotate(180)" fill="#f0f0f0"/>
      <rect id="Retângulo_5843" data-name="Retângulo 5843" width="124.801" height="130.639" transform="translate(220.316 48.114) rotate(90)" fill="#fff"/>
      <path id="Caminho_5717" data-name="Caminho 5717" d="M141.7,113.037l-23.973,24.018a30.98,30.98,0,0,0,0,43.758L141.7,204.8a1.259,1.259,0,0,0,1.782,0l23.984-23.984a30.98,30.98,0,0,0,0-43.758l-23.973-24.018a1.281,1.281,0,0,0-1.794,0Zm-22.191,65.949a28.452,28.452,0,0,1,0-40.182Zm46.175,0V138.849a28.452,28.452,0,0,1,0,40.182Z" transform="translate(12.389 -48.425)" fill="#f0f0f0"/>
      <path id="Caminho_5718" data-name="Caminho 5718" d="M415.874,205H332.447l-4.757,49.261h83.427Z" transform="translate(37.357 -37.9)" fill="#e6e6e6"/>
      <path id="Caminho_5719" data-name="Caminho 5719" d="M411.153,249.22l-.334,2.729H327.38l.345-2.729Z" transform="translate(37.321 -32.859)" fill="#e6e6e6"/>
      <path id="Caminho_5720" data-name="Caminho 5720" d="M413.575,205H330.148l-4.768,49.261h83.427Z" transform="translate(37.093 -37.9)" fill="#f0f0f0"/>
      <path id="Caminho_5721" data-name="Caminho 5721" d="M406.827,250.825l3.487-42.711A1.047,1.047,0,0,0,409.278,207h-76.7a1.047,1.047,0,0,0-1.047.958L328,250.658a1.047,1.047,0,0,0,1.047,1.114h76.7a1.036,1.036,0,0,0,1.081-.947Z" transform="translate(37.392 -37.672)" fill="#fff"/>
      <path id="Caminho_5722" data-name="Caminho 5722" d="M390.2,249.22l-.334,2.729H297.99l.334-2.729Z" transform="translate(33.971 -32.859)" fill="#f0f0f0"/>
      <rect id="Retângulo_5844" data-name="Retângulo 5844" width="156.662" height="104.148" transform="translate(468.682 140.765) rotate(180)" fill="#e6e6e6"/>
      <rect id="Retângulo_5845" data-name="Retângulo 5845" width="156.662" height="104.148" transform="translate(465.206 140.765) rotate(180)" fill="#f5f5f5"/>
      <rect id="Retângulo_5846" data-name="Retângulo 5846" width="90.1" height="144.163" transform="translate(458.957 43.647) rotate(90)" fill="#fff"/>
      <rect id="Retângulo_5847" data-name="Retângulo 5847" width="90.1" height="2.629" transform="translate(317.412 43.635) rotate(90)" fill="#e6e6e6"/>
      <rect id="Retângulo_5848" data-name="Retângulo 5848" width="151.493" height="9.424" transform="translate(462.622 121.794) rotate(180)" fill="#f5f5f5"/>
      <path id="Caminho_5723" data-name="Caminho 5723" d="M270.949,77.45H444.733a.969.969,0,0,1,.958.958h0a.958.958,0,0,1-.958.958H270.949a.958.958,0,0,1-.969-.958h0a.969.969,0,0,1,.969-.958Z" transform="translate(30.778 -52.441)" fill="#e6e6e6"/>
      <path id="Caminho_5724" data-name="Caminho 5724" d="M267.83,78.556a2.406,2.406,0,1,0,.709-1.705A2.406,2.406,0,0,0,267.83,78.556Z" transform="translate(30.533 -52.589)" fill="#e6e6e6"/>
      <path id="Caminho_5725" data-name="Caminho 5725" d="M419.682,83.7h0a1.3,1.3,0,0,0,1.3-1.281V79.633a1.3,1.3,0,0,0-1.3-1.3h0a1.292,1.292,0,0,0-1.292,1.3v2.785a1.3,1.3,0,0,0,1.292,1.281Z" transform="translate(47.696 -52.34)" fill="#e6e6e6"/>
      <path id="Caminho_5726" data-name="Caminho 5726" d="M284.007,83.7h0a1.315,1.315,0,0,0,1.259-1.281V79.633a1.3,1.3,0,0,0-1.3-1.3h0a1.292,1.292,0,0,0-1.292,1.3v2.785a1.3,1.3,0,0,0,1.337,1.281Z" transform="translate(32.224 -52.34)" fill="#e6e6e6"/>
      <rect id="Retângulo_5849" data-name="Retângulo 5849" width="160.583" height="101.185" transform="translate(462.622 127.152) rotate(180)" fill="#e0e0e0" opacity="0.4"/>
      <path id="Caminho_5727" data-name="Caminho 5727" d="M403.51,78.556a2.406,2.406,0,1,0,2.406-2.406A2.406,2.406,0,0,0,403.51,78.556Z" transform="translate(46 -52.589)" fill="#e6e6e6"/>
      <rect id="Retângulo_5850" data-name="Retângulo 5850" width="12.878" height="111.701" transform="translate(235.121 357.505) rotate(180)" fill="#f0f0f0"/>
      <rect id="Retângulo_5851" data-name="Retângulo 5851" width="147.627" height="7.074" transform="translate(230.175 364.579) rotate(180)" fill="#f0f0f0"/>
      <rect id="Retângulo_5852" data-name="Retângulo 5852" width="144.642" height="111.701" transform="translate(77.601 245.804)" fill="#f5f5f5"/>
      <rect id="Retângulo_5853" data-name="Retângulo 5853" width="124.389" height="36.628" rx="7.12" transform="translate(87.728 259.551)" fill="#f0f0f0"/>
      <rect id="Retângulo_5854" data-name="Retângulo 5854" width="124.389" height="36.628" rx="7.12" transform="translate(87.728 307.119)" fill="#f0f0f0"/>
      <path id="Caminho_5728" data-name="Caminho 5728" d="M110.648,307.2h53.9a2.518,2.518,0,0,0,2.518-2.507h0a2.529,2.529,0,0,0-2.518-2.518h-53.9a2.529,2.529,0,0,0-2.518,2.518h0a2.518,2.518,0,0,0,2.518,2.507Z" transform="translate(12.327 -26.821)" fill="#f5f5f5"/>
      <path id="Caminho_5729" data-name="Caminho 5729" d="M110.648,349.9h53.9a2.518,2.518,0,0,0,2.518-2.507h0a2.529,2.529,0,0,0-2.518-2.518h-53.9a2.529,2.529,0,0,0-2.518,2.518h0a2.518,2.518,0,0,0,2.518,2.507Z" transform="translate(12.327 -21.954)" fill="#f5f5f5"/>
    </g>
    <g id="freepik--Shadow--inject-1" transform="translate(62.507 444.811)">
      <ellipse id="freepik--path--inject-1" cx="215.993" cy="12.61" rx="215.993" ry="12.61" fill="#f5f5f5"/>
    </g>
    <g id="freepik--Survey--inject-1" transform="translate(120.368 93.522)">
      <path id="Caminho_5730" data-name="Caminho 5730" d="M313.917,101.45H108.05l16,280.36H329.9Z" transform="translate(-108.05 -88.227)" fill="#263238"/>
      <path id="Caminho_5731" data-name="Caminho 5731" d="M317.507,101.45H111.64l16,280.36H333.5Z" transform="translate(-107.641 -88.227)" fill="#407bff"/>
      <path id="Caminho_5732" data-name="Caminho 5732" d="M302.363,109.91H120.09l13.067,253.78H320.164Z" transform="translate(-106.677 -87.262)" opacity="0.5"/>
      <path id="Caminho_5733" data-name="Caminho 5733" d="M120.09,109.91c13.546,84.6,4.255,169.194,17.824,253.78H324.9c-13.546-84.586-4.255-169.183-17.824-253.78Z" transform="translate(-106.677 -87.262)" fill="#fff"/>
      <g id="Grupo_3323" data-name="Grupo 3323" transform="translate(33.766 95.536)" opacity="0.3">
        <path id="Caminho_5734" data-name="Caminho 5734" d="M156.24,178.493A16.12,16.12,0,0,1,172.214,193.9a14.638,14.638,0,0,1-14.772,15.251,15.975,15.975,0,0,1-15.83-15.34,14.738,14.738,0,0,1,4.044-10.795,14.538,14.538,0,0,1,10.583-4.456m-.111-3.219a17.657,17.657,0,0,0-17.746,18.526,19.283,19.283,0,0,0,19.105,18.526,17.824,17.824,0,0,0,17.958-18.526A19.462,19.462,0,0,0,156.128,175.34Z" transform="translate(-138.361 -175.34)" fill="#407bff"/>
      </g>
      <path id="Caminho_5735" data-name="Caminho 5735" d="M253.585,302.92H194.543a3.108,3.108,0,0,0-3.141,3.453h0a3.91,3.91,0,0,0,3.8,3.465h59.042a3.086,3.086,0,0,0,3.119-3.465h0a3.888,3.888,0,0,0-3.776-3.453Z" transform="translate(-98.55 -65.259)" fill="#e0e0e0"/>
      <path id="Caminho_5736" data-name="Caminho 5736" d="M285.295,289.87H193.479a3.153,3.153,0,0,0-3.2,3.453h0A3.788,3.788,0,0,0,194,296.788h91.771A3.153,3.153,0,0,0,289,293.357h0a3.777,3.777,0,0,0-3.71-3.487Z" transform="translate(-98.677 -66.747)" fill="#e0e0e0"/>
      <g id="Grupo_3324" data-name="Grupo 3324" transform="translate(35.493 155.425)" opacity="0.3">
        <path id="Caminho_5737" data-name="Caminho 5737" d="M157.946,232.331a15.886,15.886,0,0,1,15.763,15.34,14.772,14.772,0,0,1-4.111,10.795,14.593,14.593,0,0,1-10.628,4.456,15.986,15.986,0,0,1-15.863-15.34,14.749,14.749,0,0,1,14.838-15.251m0-3.231h0a17.924,17.924,0,0,0-18.025,18.526A19.306,19.306,0,0,0,159.1,266.163a17.824,17.824,0,0,0,17.88-18.537A19.172,19.172,0,0,0,157.946,229.1Z" transform="translate(-139.911 -229.1)" fill="#407bff"/>
      </g>
      <path id="Caminho_5738" data-name="Caminho 5738" d="M221.4,189.2H189.817a3.621,3.621,0,0,1-3.587-3.465h0a3.342,3.342,0,0,1,3.342-3.453h31.571a3.643,3.643,0,0,1,3.609,3.453h0A3.342,3.342,0,0,1,221.4,189.2Z" transform="translate(-99.138 -79.012)" fill="#e0e0e0"/>
      <path id="Caminho_5739" data-name="Caminho 5739" d="M253.077,189.2H231.688a3.632,3.632,0,0,1-3.6-3.465h0a3.342,3.342,0,0,1,3.342-3.453h21.4a3.632,3.632,0,0,1,3.6,3.453h0a3.342,3.342,0,0,1-3.353,3.465Z" transform="translate(-94.366 -79.012)" fill="#e0e0e0"/>
      <path id="Caminho_5740" data-name="Caminho 5740" d="M275.042,202.248H190.266a3.6,3.6,0,0,1-3.576-3.465h0a3.342,3.342,0,0,1,3.342-3.453H274.8a3.587,3.587,0,0,1,3.565,3.453h0a3.342,3.342,0,0,1-3.32,3.465Z" transform="translate(-99.085 -77.524)" fill="#e0e0e0"/>
      <g id="Grupo_3325" data-name="Grupo 3325" transform="translate(38.525 215.322)" opacity="0.3">
        <path id="Caminho_5741" data-name="Caminho 5741" d="M160.053,286.09a16.888,16.888,0,0,1,16.487,15.351,14.092,14.092,0,0,1-3.465,10.784,13.6,13.6,0,0,1-10.316,4.456,17.2,17.2,0,0,1-16.821-15.34,13.9,13.9,0,0,1,3.632-10.795,14.1,14.1,0,0,1,10.483-4.456m-.156-3.219A16.933,16.933,0,0,0,142.708,301.4c.858,10.226,10.137,18.526,20.364,18.526s17.557-8.3,16.71-18.526a20.319,20.319,0,0,0-19.874-18.526Z" transform="translate(-142.632 -282.867)" fill="#407bff"/>
      </g>
      <path id="Caminho_5742" data-name="Caminho 5742" d="M289.353,249.13h-97.82a3.342,3.342,0,0,0-3.342,3.453h0a3.609,3.609,0,0,0,3.576,3.453h97.865a3.342,3.342,0,0,0,3.342-3.453h0a3.587,3.587,0,0,0-3.62-3.453Z" transform="translate(-98.914 -71.391)" fill="#e0e0e0"/>
      <path id="Caminho_5743" data-name="Caminho 5743" d="M266.214,236.07H191.152a3.342,3.342,0,0,0-3.342,3.465h0a3.576,3.576,0,0,0,3.554,3.453h75.072a3.342,3.342,0,0,0,3.342-3.453h0a3.565,3.565,0,0,0-3.565-3.465Z" transform="translate(-98.958 -72.88)" fill="#e0e0e0"/>
      <path id="Caminho_5744" data-name="Caminho 5744" d="M157.189,204.352l-1.315-2.161c-2.885-4.712-8.912-8.912-10.984-10.149l1.56-2.763a42.6,42.6,0,0,1,10.784,9.313c4.734-6.361,11.652-12.9,21.021-19.963l2.016,2.607c-10.026,7.542-17.133,14.482-21.69,21.088C158.124,203,157.656,203.684,157.189,204.352Z" transform="translate(-103.85 -79.428)" fill="#407bff"/>
      <path id="Caminho_5745" data-name="Caminho 5745" d="M158.687,258.153c-.434-.724-.88-1.448-1.326-2.161-2.9-4.712-8.912-8.912-10.962-10.16l1.582-2.763a42.711,42.711,0,0,1,10.728,9.313c4.746-6.35,11.719-12.9,21.233-19.963l1.972,2.607c-10.16,7.542-17.312,14.482-21.846,21.088Z" transform="translate(-103.678 -73.296)" fill="#407bff"/>
      <path id="Caminho_5746" data-name="Caminho 5746" d="M162.194,312.072l-1.47-2.161C157.515,305.2,151.3,301,149.16,299.763L150.608,297a46.843,46.843,0,0,1,11.24,9.3c4.367-6.35,11.006-12.9,20.23-19.952l2.083,2.607c-9.848,7.542-16.61,14.482-20.72,21.088Z" transform="translate(-103.363 -67.148)" fill="#407bff"/>
      <path id="Caminho_5747" data-name="Caminho 5747" d="M224.717,129q-2.941,6.417-6.027,12.822a27.572,27.572,0,0,1,15.195,22.369H248.69C247.71,149.052,237.973,135.873,224.717,129Z" transform="translate(-95.437 -85.086)" fill="#407bff"/>
      <path id="Caminho_5748" data-name="Caminho 5748" d="M173.479,164.131h14.805a23.583,23.583,0,0,1,10.293-21.578q-4.322-6.417-8.778-12.833C178.994,136.716,172.532,149.538,173.479,164.131Z" transform="translate(-100.601 -85.004)" fill="#263238"/>
      <path id="Caminho_5749" data-name="Caminho 5749" d="M208.172,124.54a36.473,36.473,0,0,0-20.052,5.771q4.456,6.417,8.778,12.833a23.394,23.394,0,0,1,12.989-3.81,27.014,27.014,0,0,1,12.254,3.019q3.075-6.417,6.027-12.822a43.669,43.669,0,0,0-20-4.991Z" transform="translate(-98.922 -85.595)" fill="#407bff"/>
      <path id="Caminho_5750" data-name="Caminho 5750" d="M208.172,124.54a36.473,36.473,0,0,0-20.052,5.771q4.456,6.417,8.778,12.833a23.394,23.394,0,0,1,12.989-3.81,27.014,27.014,0,0,1,12.254,3.019q3.075-6.417,6.027-12.822a43.669,43.669,0,0,0-20-4.991Z" transform="translate(-98.922 -85.595)" fill="#263238" opacity="0.5"/>
      <path id="Caminho_5751" data-name="Caminho 5751" d="M224.2,151.51s-14.95,6.116-16.532,7.23a3.554,3.554,0,0,0-.635,5.046,3.732,3.732,0,0,0,5.1.969C213.769,163.575,224.218,151.51,224.2,151.51Zm-15.707,11.14a1.749,1.749,0,0,1,.312-2.484,1.86,1.86,0,0,1,2.518.479,1.749,1.749,0,0,1-.312,2.484,1.86,1.86,0,0,1-2.518-.434Z" transform="translate(-96.855 -82.52)" fill="#263238"/>
      <path id="Caminho_5752" data-name="Caminho 5752" d="M239.349,145.7a4.746,4.746,0,0,1-4.812,5.258,5.849,5.849,0,0,1-5.7-5.258,4.712,4.712,0,0,1,4.768-5.247,5.882,5.882,0,0,1,5.748,5.247Z" transform="translate(-94.284 -83.781)" fill="#fff"/>
      <path id="Caminho_5753" data-name="Caminho 5753" d="M232.592,144.166a.758.758,0,0,1-.758.836.925.925,0,0,1-.913-.836.746.746,0,0,1,.758-.835.925.925,0,0,1,.913.835Z" transform="translate(-94.043 -83.453)" fill="#263238"/>
      <path id="Caminho_5754" data-name="Caminho 5754" d="M236.173,144.166a.758.758,0,0,1-.769.836.947.947,0,0,1-.913-.836.746.746,0,0,1,.769-.835A.925.925,0,0,1,236.173,144.166Z" transform="translate(-93.636 -83.453)" fill="#263238"/>
      <path id="Caminho_5755" data-name="Caminho 5755" d="M234.087,148.192h0a4.456,4.456,0,0,1-2.974-1.17.412.412,0,0,1,0-.579.4.4,0,0,1,.579,0,3.62,3.62,0,0,0,2.417.958h0a2.963,2.963,0,0,0,2.228-.936.414.414,0,1,1,.6.568A3.766,3.766,0,0,1,234.087,148.192Z" transform="translate(-94.034 -83.112)" fill="#263238"/>
      <path id="Caminho_5756" data-name="Caminho 5756" d="M212.7,131.637a4.623,4.623,0,0,1-4.679,5.258,6.027,6.027,0,0,1-5.837-5.258,4.567,4.567,0,0,1,4.634-5.247,6.082,6.082,0,0,1,5.882,5.247Z" transform="translate(-97.324 -85.384)" fill="#fff"/>
      <path id="Caminho_5757" data-name="Caminho 5757" d="M205.912,130.086a.735.735,0,0,1-.735.836.969.969,0,0,1-.936-.836.724.724,0,0,1,.735-.835A.958.958,0,0,1,205.912,130.086Z" transform="translate(-97.085 -85.058)" fill="#263238"/>
      <path id="Caminho_5758" data-name="Caminho 5758" d="M209.483,130.086a.735.735,0,0,1-.746.836.98.98,0,0,1-.936-.836.735.735,0,0,1,.746-.835A.969.969,0,0,1,209.483,130.086Z" transform="translate(-96.679 -85.058)" fill="#263238"/>
      <path id="Caminho_5759" data-name="Caminho 5759" d="M209.98,133.086h-5.214a.423.423,0,0,1,0-.836h5.214a.423.423,0,0,1,0,.836Z" transform="translate(-97.065 -84.716)" fill="#263238"/>
      <path id="Caminho_5760" data-name="Caminho 5760" d="M188.949,145.7a4.746,4.746,0,0,1-4.812,5.258,5.848,5.848,0,0,1-5.7-5.258,4.712,4.712,0,0,1,4.768-5.247A5.893,5.893,0,0,1,188.949,145.7Z" transform="translate(-100.03 -83.781)" fill="#fff"/>
      <path id="Caminho_5761" data-name="Caminho 5761" d="M182.172,144.166a.758.758,0,0,1-.758.836.925.925,0,0,1-.913-.836.746.746,0,0,1,.757-.835A.925.925,0,0,1,182.172,144.166Z" transform="translate(-99.791 -83.453)" fill="#263238"/>
      <path id="Caminho_5762" data-name="Caminho 5762" d="M185.752,144.166a.746.746,0,0,1-.758.835.947.947,0,0,1-.913-.836.746.746,0,0,1,.758-.835.913.913,0,0,1,.913.835Z" transform="translate(-99.383 -83.453)" fill="#263238"/>
      <path id="Caminho_5763" data-name="Caminho 5763" d="M181.041,148.194a.39.39,0,0,1-.278-.111.412.412,0,0,1,0-.579,3.821,3.821,0,0,1,2.818-1.2,4.456,4.456,0,0,1,2.974,1.181.4.4,0,0,1,0,.579.434.434,0,0,1-.59,0,3.565,3.565,0,0,0-2.428-.958,2.986,2.986,0,0,0-2.228.925A.435.435,0,0,1,181.041,148.194Z" transform="translate(-99.774 -83.114)" fill="#263238"/>
      <path id="Caminho_5764" data-name="Caminho 5764" d="M268.65,112.952c-3.476-7.319-11.586-12.165-20.331-12.165H230.5a6.951,6.951,0,0,1-6.183-3.231c-2.484-4.657-8.411-7.976-15.139-7.976s-12.254,3.342-14.215,7.976c-.813,1.961-3.141,3.231-5.815,3.231H171.32c-8.745,0-16.309,4.846-18.938,12.165a1.8,1.8,0,0,0-.111.8,2.228,2.228,0,0,0,2.228,2.117h112.38a1.994,1.994,0,0,0,1.771-2.919ZM209.9,102.8a5.325,5.325,0,0,1-5.2-4.957,4.634,4.634,0,0,1,4.679-4.957,5.314,5.314,0,0,1,5.247,4.957A4.634,4.634,0,0,1,209.9,102.8Z" transform="translate(-103.01 -89.58)" fill="#263238"/>
    </g>
    <g id="freepik--Character--inject-1" transform="translate(309.569 119.478)">
      <path id="Caminho_5765" data-name="Caminho 5765" d="M360.69,409.312a3.565,3.565,0,0,1-2.473-.613.769.769,0,0,1-.078-.847.825.825,0,0,1,.568-.457c1.314-.368,4.356,1.259,4.456,1.337a.189.189,0,0,1,.111.2.167.167,0,0,1-.134.156A14.392,14.392,0,0,1,360.69,409.312Zm-1.47-1.582a1.237,1.237,0,0,0-.368,0,.5.5,0,0,0-.357.267.537.537,0,0,0,0,.435c.446.524,2.518.535,4.01.323a9.637,9.637,0,0,0-3.286-1.025Z" transform="translate(-268.752 -79.311)" fill="#407bff"/>
      <path id="Caminho_5766" data-name="Caminho 5766" d="M362.951,409.288h-.078c-1.036-.446-3.2-2.228-3.153-3.141,0-.223.134-.49.668-.546a1.582,1.582,0,0,1,1.114.334,6.294,6.294,0,0,1,1.626,3.153.2.2,0,0,1,0,.178.19.19,0,0,1-.178.022Zm-2.373-3.342h-.111c-.345,0-.357.167-.357.212,0,.557,1.459,1.949,2.54,2.551a5.191,5.191,0,0,0-1.37-2.518,1.114,1.114,0,0,0-.7-.223Z" transform="translate(-268.561 -79.51)" fill="#407bff"/>
      <path id="Caminho_5767" data-name="Caminho 5767" d="M371.818,410.68H363.63l-2.93-18.96h8.188Z" transform="translate(-268.45 -81.092)" fill="#ffc3bd"/>
      <path id="Caminho_5768" data-name="Caminho 5768" d="M364.774,407.89h8.912a.824.824,0,0,1,.758.557l2.429,7.274a1.114,1.114,0,0,1-1.014,1.448c-3.231,0-7.909-.234-11.964-.234-4.734,0-4.311.256-9.87.256-3.342,0-4.668-3.4-3.342-3.71,6.25-1.392,6.974-1.548,12.12-4.957a3.442,3.442,0,0,1,1.972-.635Z" transform="translate(-269.65 -79.249)" fill="#263238"/>
      <path id="Caminho_5769" data-name="Caminho 5769" d="M360.7,391.73l1.515,9.77H370.4l-1.515-9.77Z" transform="translate(-268.45 -81.091)" opacity="0.2"/>
      <path id="Caminho_5770" data-name="Caminho 5770" d="M370.41,225.45l-5.57,5.626,8.533,3.019s3.342-4.59.991-7.731Z" transform="translate(-267.978 -100.047)" fill="#ffc3bd"/>
      <path id="Caminho_5771" data-name="Caminho 5771" d="M363.16,238.365l8.522,1.248,1.9-6.094-8.533-3.019Z" transform="translate(-268.169 -99.471)" fill="#ffc3bd"/>
      <path id="Caminho_5772" data-name="Caminho 5772" d="M374.612,163.27c.724,1.56,1.3,2.885,1.883,4.333s1.114,2.841,1.671,4.267c1.058,2.863,2.005,5.782,2.885,8.734a92.233,92.233,0,0,1,2.228,9.079l.423,2.339.345,2.384c.123.791.2,1.615.267,2.429s.178,1.548.178,2.573v2.729l-.067,1.259-.123,1.192c-.145,1.6-.356,3.108-.557,4.634-.446,3.008-.958,5.949-1.526,8.912-1.181,5.826-2.473,11.519-4.033,17.256l-10.149-2.005c.646-5.659,1.315-11.407,1.849-17.066.256-2.83.535-5.648.691-8.411.067-1.359.145-2.74.145-4.044v-2.785l-.078-.735a16.7,16.7,0,0,0-.245-1.749c-.1-.624-.189-1.248-.334-1.883l-.412-1.9-.479-1.916c-.691-2.562-1.47-5.136-2.362-7.709s-1.883-5.136-2.93-7.675c-.512-1.281-1.047-2.551-1.6-3.8s-1.114-2.551-1.66-3.632Z" transform="translate(-268.459 -107.136)" fill="#263238"/>
      <path id="Caminho_5773" data-name="Caminho 5773" d="M338.65,221.87s1.359,62.651,5.035,87.6c3.832,25.956,17.824,109.5,17.824,109.5h13.858s-4.968-79.506-6.55-105.05c-1.727-27.85-1.348-92.05-1.348-92.05Z" transform="translate(-270.963 -100.455)" fill="#407bff"/>
      <path id="Caminho_5774" data-name="Caminho 5774" d="M356.18,393.84c-.067,0,1.426,5.759,1.426,5.759h16.866l-.123-5.136Z" transform="translate(-268.965 -80.851)" fill="#263238"/>
      <ellipse id="Elipse_584" data-name="Elipse 584" cx="1.259" cy="0.824" rx="1.259" ry="0.824" transform="matrix(0.061, -0.998, 0.998, 0.061, 62.842, 21.007)" fill="#263238"/>
      <path id="Caminho_5775" data-name="Caminho 5775" d="M335.9,131.78a25.846,25.846,0,0,1-3.52,5.926,3.921,3.921,0,0,0,3.286.624Z" transform="translate(-271.678 -110.725)" fill="#ed847e"/>
      <path id="Caminho_5776" data-name="Caminho 5776" d="M338.554,127.359a.479.479,0,0,1-.245-.067,3.141,3.141,0,0,0-2.863-.535.4.4,0,0,1-.524-.234.412.412,0,0,1,.256-.524,3.955,3.955,0,0,1,3.632.624.412.412,0,0,1,.078.568A.423.423,0,0,1,338.554,127.359Z" transform="translate(-271.391 -111.406)" fill="#263238"/>
      <path id="Caminho_5777" data-name="Caminho 5777" d="M357.273,137.52c-1.381,5.993-2.941,16.966,1.114,20.954,0,0-1.849,6.071-12.978,6.071-12.254,0-5.626-6.071-5.626-6.071,6.684-1.593,6.74-6.539,5.737-11.2Z" transform="translate(-271.038 -110.071)" fill="#ffc3bd"/>
      <path id="Caminho_5778" data-name="Caminho 5778" d="M362.993,159.594c1.2-2.44,2.529-5.247,0-6.116-2.763-.969-18.036-1.949-23.394-.145a5.57,5.57,0,0,0-4.022,6.773Z" transform="translate(-271.333 -108.383)" fill="#407bff"/>
      <path id="Caminho_5779" data-name="Caminho 5779" d="M371.74,158.54c7.052,3.253,10.639,27.917,10.639,27.917l-14.2,4.456a144.251,144.251,0,0,1-6.16-20.052C359.832,160.568,364.522,155.221,371.74,158.54Z" transform="translate(-268.361 -107.787)" fill="#263238"/>
      <path id="Caminho_5780" data-name="Caminho 5780" d="M293.6,193.467l-6.55-5.637-5.893,8.578s5.292,4.244,11.14,2.507Z" transform="translate(-277.517 -104.336)" fill="#ffc3bd"/>
      <path id="Caminho_5781" data-name="Caminho 5781" d="M278.792,185.38l-.9,8.478,3.643,2.83,5.893-8.578Z" transform="translate(-277.89 -104.615)" fill="#ffc3bd"/>
      <path id="Caminho_5782" data-name="Caminho 5782" d="M359.173,130.611c-.824,8.511-.88,13.524-5.336,17.891a11.14,11.14,0,0,1-18.782-5.826c-1.56-7.642,0-20.275,8.5-23.661a11.24,11.24,0,0,1,15.618,11.6Z" transform="translate(-271.434 -112.285)" fill="#ffc3bd"/>
      <path id="Caminho_5783" data-name="Caminho 5783" d="M341.585,133.935c-.746-5.882-.624-8.11,2.518-9.413-3.264-.646-6.094-.735-7.441-2.64s-1.671-6.773,4.879-9c-.6,1.114,1.3,3.431,7.33,1.337s14.805-2.317,15.6,3.81c3.186-1.114,8.522,8.723,2.228,15.908-5.247,6.016-8.745,10.171-9.781,13.368a1.114,1.114,0,0,1-1.526.668c-2.172-1.014-6.06-.145-7.8.323a1.114,1.114,0,0,1-1.27-.568C345.194,145.409,342.153,138.792,341.585,133.935Z" transform="translate(-271.28 -112.88)" fill="#263238"/>
      <path id="Caminho_5784" data-name="Caminho 5784" d="M360.48,118.368s2.585-3.643,7.542-.936a22.458,22.458,0,0,0-7.542.936Z" transform="translate(-268.475 -112.475)" fill="#263238"/>
      <path id="Caminho_5785" data-name="Caminho 5785" d="M360.86,119.528s3.6-2.228.791-6.428A16.186,16.186,0,0,1,360.86,119.528Z" transform="translate(-268.431 -112.855)" fill="#263238"/>
      <path id="Caminho_5786" data-name="Caminho 5786" d="M345.445,132.378a10.193,10.193,0,0,1-2.985,5.514c-2.061,1.95-3.843.568-3.9-1.938-.056-2.228.947-5.993,3.342-7S345.868,129.86,345.445,132.378Z" transform="translate(-270.974 -111.078)" fill="#ffc3bd"/>
      <path id="Caminho_5787" data-name="Caminho 5787" d="M339.68,253.12c.8,18.693,2.061,40.394,3.888,52.792.7,4.723,1.727,11.341,2.952,19.016C351.444,298.059,354.385,263.436,339.68,253.12Z" transform="translate(-270.846 -96.893)" opacity="0.3"/>
      <path id="Caminho_5788" data-name="Caminho 5788" d="M334.427,409.312c-1.047,0-2.061-.145-2.384-.613a.758.758,0,0,1,0-.847,1.114,1.114,0,0,1,.635-.457c1.37-.368,4.178,1.259,4.3,1.337a.167.167,0,0,1,.078.2.2.2,0,0,1-.156.156,14.964,14.964,0,0,1-2.473.223Zm-1.237-1.582a1.313,1.313,0,0,0-.379,0,.59.59,0,0,0-.39.267c-.145.245-.1.368-.056.434.368.524,2.429.535,3.966.323a8.478,8.478,0,0,0-3.142-1.025Z" transform="translate(-271.731 -79.311)" fill="#407bff"/>
      <path id="Caminho_5789" data-name="Caminho 5789" d="M336.684,409.288h-.078c-.969-.446-2.874-2.228-2.685-3.141,0-.223.2-.49.735-.546a1.437,1.437,0,0,1,1.114.334c1.014.858,1.114,3.064,1.114,3.153a.234.234,0,0,1-.089.178A.212.212,0,0,1,336.684,409.288Zm-1.883-3.342h-.111c-.357,0-.379.167-.39.212-.111.557,1.17,1.949,2.161,2.551a4.456,4.456,0,0,0-.992-2.518,1.025,1.025,0,0,0-.668-.223Z" transform="translate(-271.504 -79.511)" fill="#407bff"/>
      <path id="Caminho_5790" data-name="Caminho 5790" d="M345.333,410.68h-8.177L337,391.72h8.188Z" transform="translate(-271.151 -81.092)" fill="#ffc3bd"/>
      <path id="Caminho_5791" data-name="Caminho 5791" d="M339.259,407.89h8.912a.668.668,0,0,1,.668.557l1.37,7.274a1.237,1.237,0,0,1-1.237,1.448c-3.22,0-7.876-.234-11.92-.234-4.746,0-8.845.256-14.4.256-3.342,0-4.166-3.4-2.752-3.71,6.45-1.392,11.686-1.548,17.334-4.957a3.977,3.977,0,0,1,2.027-.635Z" transform="translate(-273.177 -79.249)" fill="#263238"/>
      <path id="Caminho_5792" data-name="Caminho 5792" d="M337.01,391.73l.067,9.77h8.188l-.067-9.77Z" transform="translate(-271.15 -81.091)" opacity="0.2"/>
      <path id="Caminho_5793" data-name="Caminho 5793" d="M325.875,221.87s-3.342,61.192-3.275,86.146c0,25.956,13.145,110.954,13.145,110.954H349.6s-3.609-83.483-2.05-108.949c1.66-27.85,9.7-88.129,9.7-88.129Z" transform="translate(-272.793 -100.455)" fill="#407bff"/>
      <path id="Caminho_5794" data-name="Caminho 5794" d="M332.18,393.84c-.067,0,.568,5.759.568,5.759h16.866l.646-5.136Z" transform="translate(-271.701 -80.851)" fill="#263238"/>
      <path id="Caminho_5795" data-name="Caminho 5795" d="M329.183,158.63s-13.947,35.236-7.876,96.138h50.932c.535-6.684-4.79-64.9,2.807-96.562a112.925,112.925,0,0,0-14.593-1.849,161.852,161.852,0,0,0-18.6,0,83.374,83.374,0,0,0-12.666,2.273Z" transform="translate(-273.115 -107.954)" fill="#263238"/>
      <path id="Caminho_5796" data-name="Caminho 5796" d="M321.932,188.31c-.758,5.57-1.381,11.931-1.782,18.938,9.892-9.09,13.279-31.738,13.279-31.738Z" transform="translate(-273.072 -105.74)" opacity="0.2"/>
      <path id="Caminho_5797" data-name="Caminho 5797" d="M338.069,173.966c-2.005,5.214-4.033,10.238-6.261,15.284s-4.534,10.026-7.13,15.017l-1.014,1.86-.512.936c-.212.379-.189.4-.769,1.37a10.9,10.9,0,0,1-4.022,3.743,11.988,11.988,0,0,1-4.356,1.315,18.337,18.337,0,0,1-6.238-.5,34.539,34.539,0,0,1-4.723-1.537,61.44,61.44,0,0,1-7.987-4.01c-1.259-.724-2.462-1.5-3.654-2.228s-2.273-1.649-3.554-2.54l6.016-9.224A78.274,78.274,0,0,0,307.4,199.32a20.433,20.433,0,0,0,3.041.691,4.278,4.278,0,0,0,1.782,0c.067,0-.145-.067-.512.122a3,3,0,0,0-1.114.98c-.234.39.067-.189.167-.412l.4-.88.8-1.749c2.117-4.723,4.077-9.614,5.982-14.482s3.754-9.948,5.459-14.861Z" transform="translate(-276.755 -106.513)" fill="#263238"/>
      <path id="Caminho_5798" data-name="Caminho 5798" d="M340.641,162.122c2.607,7.286-15.841,36.617-15.841,36.617L313.86,187.9s2.8-9.213,6.483-20.308C323.975,156.686,338.156,155.16,340.641,162.122Z" transform="translate(-273.789 -107.748)" fill="#263238"/>
    </g>
  </g>
</svg>
