<svg xmlns="http://www.w3.org/2000/svg" width="595.243" height="443.528" viewBox="0 0 595.243 443.528">
  <g id="Customer_Survey-rafiki" data-name="Customer Survey-rafiki" transform="translate(0 -55)">
    <g id="freepik--background-complete--inject-1" transform="translate(0 55)">
      <rect id="Retângulo_4303" data-name="Retângulo 4303" width="595.243" height="0.298" transform="translate(0 389.765)" fill="#ebebeb"/>
      <rect id="Retângulo_4304" data-name="Retângulo 4304" width="39.429" height="0.298" transform="translate(496.171 408.92)" fill="#ebebeb"/>
      <rect id="Retângulo_4305" data-name="Retângulo 4305" width="10.345" height="0.298" transform="translate(383.968 412.158)" fill="#ebebeb"/>
      <rect id="Retângulo_4306" data-name="Retângulo 4306" width="22.845" height="0.298" transform="translate(472.135 397.873)" fill="#ebebeb"/>
      <rect id="Retângulo_4307" data-name="Retângulo 4307" width="51.417" height="0.298" transform="translate(62.453 399.873)" fill="#ebebeb"/>
      <rect id="Retângulo_4308" data-name="Retângulo 4308" width="7.536" height="0.298" transform="translate(124.477 399.873)" fill="#ebebeb"/>
      <rect id="Retângulo_4309" data-name="Retângulo 4309" width="111.525" height="0.298" transform="translate(156.513 404.896)" fill="#ebebeb"/>
      <path id="Caminho_3776" data-name="Caminho 3776" d="M274.867,391.67H45a6.8,6.8,0,0,1-6.786-6.8V61.738A6.8,6.8,0,0,1,45,55H274.867a6.8,6.8,0,0,1,6.8,6.8V384.872A6.8,6.8,0,0,1,274.867,391.67ZM45,55.238a6.5,6.5,0,0,0-6.488,6.5V384.872a6.5,6.5,0,0,0,6.488,6.5H274.867a6.512,6.512,0,0,0,6.5-6.5V61.738a6.512,6.512,0,0,0-6.5-6.5Z" transform="translate(7.278 -55)" fill="#ebebeb"/>
      <path id="Caminho_3777" data-name="Caminho 3777" d="M491.181,391.67H261.3a6.81,6.81,0,0,1-6.8-6.8V61.738A6.81,6.81,0,0,1,261.3,55H491.181a6.8,6.8,0,0,1,6.774,6.738V384.872A6.8,6.8,0,0,1,491.181,391.67ZM261.3,55.238a6.512,6.512,0,0,0-6.5,6.5V384.872a6.512,6.512,0,0,0,6.5,6.5H491.181a6.512,6.512,0,0,0,6.5-6.5V61.738a6.512,6.512,0,0,0-6.5-6.5Z" transform="translate(48.479 -55)" fill="#ebebeb"/>
      <rect id="Retângulo_4310" data-name="Retângulo 4310" width="41.786" height="155.632" transform="translate(360.575 389.765) rotate(180)" fill="#e6e6e6"/>
      <path id="Caminho_3778" data-name="Caminho 3778" d="M274.732,384.642H267.78V370.63h14.25Z" transform="translate(51.009 5.123)" fill="#f0f0f0"/>
      <rect id="Retângulo_4311" data-name="Retângulo 4311" width="41.786" height="155.632" transform="translate(530.648 389.765) rotate(180)" fill="#e6e6e6"/>
      <rect id="Retângulo_4312" data-name="Retângulo 4312" width="176.144" height="150.251" transform="translate(494.933 384.384) rotate(180)" fill="#f0f0f0"/>
      <rect id="Retângulo_4313" data-name="Retângulo 4313" width="165.347" height="41.203" transform="translate(489.54 281.991) rotate(180)" fill="#e6e6e6"/>
      <path id="Caminho_3779" data-name="Caminho 3779" d="M338.071,270.25H353.69c6.786,0,13.274-5.083,17.941-14.06h-51.5C324.8,265.19,331.285,270.25,338.071,270.25Z" transform="translate(60.98 -16.676)" fill="#f0f0f0"/>
      <path id="Caminho_3780" data-name="Caminho 3780" d="M411.068,384.642h6.953V370.63H403.77Z" transform="translate(76.913 5.123)" fill="#f0f0f0"/>
      <rect id="Retângulo_4314" data-name="Retângulo 4314" width="165.347" height="41.203" transform="translate(489.54 329.86) rotate(180)" fill="#e6e6e6"/>
      <path id="Caminho_3781" data-name="Caminho 3781" d="M338.071,310.47H353.69c6.786,0,13.274-5.083,17.941-14.06h-51.5C324.8,305.446,331.285,310.47,338.071,310.47Z" transform="translate(60.98 -9.015)" fill="#f0f0f0"/>
      <rect id="Retângulo_4315" data-name="Retângulo 4315" width="165.347" height="41.203" transform="translate(489.54 377.73) rotate(180)" fill="#e6e6e6"/>
      <path id="Caminho_3782" data-name="Caminho 3782" d="M338.071,350.68H353.69c6.786,0,13.274-5.083,17.941-14.06h-51.5C324.8,345.6,331.285,350.68,338.071,350.68Z" transform="translate(60.98 -1.355)" fill="#f0f0f0"/>
      <rect id="Retângulo_4316" data-name="Retângulo 4316" width="159.573" height="161.466" transform="translate(252.419 198.835) rotate(180)" fill="#e6e6e6"/>
      <rect id="Retângulo_4317" data-name="Retângulo 4317" width="167.716" height="161.466" transform="translate(249.478 198.835) rotate(180)" fill="#f0f0f0"/>
      <rect id="Retângulo_4318" data-name="Retângulo 4318" width="133.37" height="139.608" transform="translate(235.443 51.417) rotate(90)" fill="#fff"/>
      <path id="Caminho_3783" data-name="Caminho 3783" d="M143.966,113.063,118.347,138.73a33.107,33.107,0,0,0,0,46.762l25.619,25.631a1.345,1.345,0,0,0,1.9,0L171.5,185.492a33.107,33.107,0,0,0,0-46.762l-25.619-25.667a1.369,1.369,0,0,0-1.917,0Zm-23.714,70.477a30.4,30.4,0,0,1,0-42.941Zm49.346,0V140.646a30.405,30.405,0,0,1,0,42.941Z" transform="translate(20.702 -44.014)" fill="#f0f0f0"/>
      <path id="Caminho_3784" data-name="Caminho 3784" d="M421.929,205H332.773l-5.083,52.643h89.156Z" transform="translate(62.421 -26.427)" fill="#e6e6e6"/>
      <path id="Caminho_3785" data-name="Caminho 3785" d="M416.9,249.22l-.357,2.917H327.38l.369-2.917Z" transform="translate(62.362 -18.004)" fill="#e6e6e6"/>
      <path id="Caminho_3786" data-name="Caminho 3786" d="M419.631,205H330.475l-5.1,52.643h89.155Z" transform="translate(61.98 -26.427)" fill="#f0f0f0"/>
      <path id="Caminho_3787" data-name="Caminho 3787" d="M412.239,253.834l3.726-45.643a1.119,1.119,0,0,0-1.107-1.19H332.893a1.119,1.119,0,0,0-1.119,1.024L328,253.655a1.119,1.119,0,0,0,1.119,1.19h81.965A1.107,1.107,0,0,0,412.239,253.834Z" transform="translate(62.479 -26.046)" fill="#fff"/>
      <path id="Caminho_3788" data-name="Caminho 3788" d="M396.527,249.22l-.357,2.917H297.99l.357-2.917Z" transform="translate(56.763 -18.004)" fill="#f0f0f0"/>
      <rect id="Retângulo_4319" data-name="Retângulo 4319" width="167.418" height="111.299" transform="translate(500.862 150.43) rotate(180)" fill="#e6e6e6"/>
      <rect id="Retângulo_4320" data-name="Retângulo 4320" width="167.418" height="111.299" transform="translate(497.147 150.43) rotate(180)" fill="#f5f5f5"/>
      <rect id="Retângulo_4321" data-name="Retângulo 4321" width="96.287" height="154.061" transform="translate(490.469 46.643) rotate(90)" fill="#fff"/>
      <rect id="Retângulo_4322" data-name="Retângulo 4322" width="96.287" height="2.81" transform="translate(339.205 46.631) rotate(90)" fill="#e6e6e6"/>
      <rect id="Retângulo_4323" data-name="Retângulo 4323" width="161.894" height="10.072" transform="translate(494.385 130.156) rotate(180)" fill="#f5f5f5"/>
      <path id="Caminho_3789" data-name="Caminho 3789" d="M271.016,77.45H456.732a1.036,1.036,0,0,1,1.024,1.024h0a1.024,1.024,0,0,1-1.024,1.024H271.016a1.024,1.024,0,0,1-1.036-1.024h0A1.036,1.036,0,0,1,271.016,77.45Z" transform="translate(51.428 -50.724)" fill="#e6e6e6"/>
      <path id="Caminho_3790" data-name="Caminho 3790" d="M267.83,78.721a2.572,2.572,0,1,0,.757-1.822A2.572,2.572,0,0,0,267.83,78.721Z" transform="translate(51.018 -50.971)" fill="#e6e6e6"/>
      <path id="Caminho_3791" data-name="Caminho 3791" d="M419.771,84.068h0a1.393,1.393,0,0,0,1.393-1.369V79.723a1.393,1.393,0,0,0-1.393-1.393h0a1.381,1.381,0,0,0-1.381,1.393V82.7a1.393,1.393,0,0,0,1.381,1.369Z" transform="translate(79.698 -50.556)" fill="#e6e6e6"/>
      <path id="Caminho_3792" data-name="Caminho 3792" d="M284.1,84.068h0a1.4,1.4,0,0,0,1.345-1.369V79.723a1.393,1.393,0,0,0-1.393-1.393h0a1.381,1.381,0,0,0-1.381,1.393V82.7a1.393,1.393,0,0,0,1.429,1.369Z" transform="translate(53.845 -50.556)" fill="#e6e6e6"/>
      <rect id="Retângulo_4324" data-name="Retângulo 4324" width="171.609" height="108.132" transform="translate(494.385 135.882) rotate(180)" fill="#e0e0e0" opacity="0.4"/>
      <path id="Caminho_3793" data-name="Caminho 3793" d="M403.51,78.721a2.571,2.571,0,1,0,2.572-2.571A2.571,2.571,0,0,0,403.51,78.721Z" transform="translate(76.863 -50.971)" fill="#e6e6e6"/>
      <rect id="Retângulo_4325" data-name="Retângulo 4325" width="13.762" height="119.37" transform="translate(251.264 382.051) rotate(180)" fill="#f0f0f0"/>
      <rect id="Retângulo_4326" data-name="Retângulo 4326" width="157.763" height="7.56" transform="translate(245.978 389.611) rotate(180)" fill="#f0f0f0"/>
      <rect id="Retângulo_4327" data-name="Retângulo 4327" width="154.573" height="119.37" transform="translate(82.929 262.681)" fill="#f5f5f5"/>
      <rect id="Retângulo_4328" data-name="Retângulo 4328" width="132.93" height="39.143" rx="7.12" transform="translate(93.751 277.371)" fill="#f0f0f0"/>
      <rect id="Retângulo_4329" data-name="Retângulo 4329" width="132.93" height="39.143" rx="7.12" transform="translate(93.751 328.205)" fill="#f0f0f0"/>
      <path id="Caminho_3794" data-name="Caminho 3794" d="M110.82,307.549h57.6a2.691,2.691,0,0,0,2.691-2.678h0a2.7,2.7,0,0,0-2.691-2.691h-57.6a2.7,2.7,0,0,0-2.691,2.69h0A2.691,2.691,0,0,0,110.82,307.549Z" transform="translate(20.597 -7.916)" fill="#f5f5f5"/>
      <path id="Caminho_3795" data-name="Caminho 3795" d="M110.82,350.249h57.6a2.691,2.691,0,0,0,2.691-2.679h0a2.7,2.7,0,0,0-2.691-2.691h-57.6a2.7,2.7,0,0,0-2.691,2.69h0A2.691,2.691,0,0,0,110.82,350.249Z" transform="translate(20.597 0.218)" fill="#f5f5f5"/>
    </g>
    <g id="freepik--Shadow--inject-1" transform="translate(66.798 471.575)">
      <ellipse id="freepik--path--inject-1" cx="230.823" cy="13.476" rx="230.823" ry="13.476" fill="#f5f5f5"/>
    </g>
    <g id="freepik--Survey--inject-1" transform="translate(128.632 96.167)">
      <path id="Caminho_3796" data-name="Caminho 3796" d="M328.052,101.45h-220l17.1,299.61h219.99Z" transform="translate(-108.05 -87.319)" fill="#263238"/>
      <path id="Caminho_3797" data-name="Caminho 3797" d="M331.642,101.45h-220l17.1,299.61h220Z" transform="translate(-107.366 -87.319)" fill="#407bff"/>
      <path id="Caminho_3798" data-name="Caminho 3798" d="M314.877,109.91H120.09l13.964,271.2H333.9Z" transform="translate(-105.757 -85.707)" opacity="0.5"/>
      <path id="Caminho_3799" data-name="Caminho 3799" d="M120.09,109.91c14.476,90.406,4.548,180.811,19.048,271.2H338.961c-14.476-90.394-4.548-180.8-19.048-271.2Z" transform="translate(-105.757 -85.707)" fill="#fff"/>
      <g id="Grupo_2274" data-name="Grupo 2274" transform="translate(36.085 102.096)" opacity="0.3">
        <path id="Caminho_3800" data-name="Caminho 3800" d="M157.467,178.709a17.226,17.226,0,0,1,17.072,16.464,15.643,15.643,0,0,1-15.786,16.3,17.072,17.072,0,0,1-16.917-16.393,15.75,15.75,0,0,1,4.321-11.536,15.536,15.536,0,0,1,11.31-4.762m-.119-3.44a18.869,18.869,0,0,0-18.964,19.8,20.607,20.607,0,0,0,20.417,19.8,19.048,19.048,0,0,0,19.191-19.8A20.8,20.8,0,0,0,157.348,175.34Z" transform="translate(-138.361 -175.34)" fill="#407bff"/>
      </g>
      <path id="Caminho_3801" data-name="Caminho 3801" d="M257.856,302.92h-63.1a3.322,3.322,0,0,0-3.357,3.691h0a4.179,4.179,0,0,0,4.06,3.7h63.1a3.3,3.3,0,0,0,3.333-3.7h0A4.155,4.155,0,0,0,257.856,302.92Z" transform="translate(-92.176 -48.942)" fill="#e0e0e0"/>
      <path id="Caminho_3802" data-name="Caminho 3802" d="M291.819,289.87H193.7a3.369,3.369,0,0,0-3.417,3.69h0a4.048,4.048,0,0,0,3.976,3.7h98.072a3.369,3.369,0,0,0,3.453-3.667h0A4.036,4.036,0,0,0,291.819,289.87Z" transform="translate(-92.389 -51.428)" fill="#e0e0e0"/>
      <g id="Grupo_2275" data-name="Grupo 2275" transform="translate(37.93 166.096)" opacity="0.3">
        <path id="Caminho_3803" data-name="Caminho 3803" d="M159.184,232.552a16.977,16.977,0,0,1,16.845,16.393,15.786,15.786,0,0,1-4.393,11.536,15.6,15.6,0,0,1-11.357,4.762,17.083,17.083,0,0,1-16.953-16.393,15.762,15.762,0,0,1,15.857-16.3m0-3.452h0a19.155,19.155,0,0,0-19.262,19.8,20.631,20.631,0,0,0,20.5,19.81,19.048,19.048,0,0,0,19.107-19.81A20.488,20.488,0,0,0,159.184,229.1Z" transform="translate(-139.911 -229.1)" fill="#407bff"/>
      </g>
      <path id="Caminho_3804" data-name="Caminho 3804" d="M223.814,189.673h-33.75a3.869,3.869,0,0,1-3.833-3.7h0a3.571,3.571,0,0,1,3.571-3.691H223.54a3.893,3.893,0,0,1,3.857,3.691h0a3.571,3.571,0,0,1-3.583,3.7Z" transform="translate(-93.158 -71.922)" fill="#e0e0e0"/>
      <path id="Caminho_3805" data-name="Caminho 3805" d="M254.793,189.673H231.936a3.881,3.881,0,0,1-3.845-3.7h0a3.572,3.572,0,0,1,3.571-3.691h22.869a3.881,3.881,0,0,1,3.845,3.691h0a3.571,3.571,0,0,1-3.583,3.7Z" transform="translate(-85.184 -71.922)" fill="#e0e0e0"/>
      <path id="Caminho_3806" data-name="Caminho 3806" d="M281.108,202.723h-90.6a3.845,3.845,0,0,1-3.822-3.7h0a3.572,3.572,0,0,1,3.571-3.691h90.584a3.833,3.833,0,0,1,3.81,3.691h0a3.572,3.572,0,0,1-3.548,3.7Z" transform="translate(-93.07 -69.436)" fill="#e0e0e0"/>
      <g id="Grupo_2276" data-name="Grupo 2276" transform="translate(41.17 230.106)" opacity="0.3">
        <path id="Caminho_3807" data-name="Caminho 3807" d="M161.249,286.311a18.048,18.048,0,0,1,17.619,16.4,15.06,15.06,0,0,1-3.7,11.524A14.536,14.536,0,0,1,164.142,319a18.381,18.381,0,0,1-17.976-16.393,14.857,14.857,0,0,1,3.881-11.536,15.071,15.071,0,0,1,11.2-4.762m-.167-3.441a18.1,18.1,0,0,0-18.369,19.8c.917,10.929,10.833,19.8,21.762,19.8s18.762-8.869,17.857-19.8a21.714,21.714,0,0,0-21.238-19.8Z" transform="translate(-142.632 -282.867)" fill="#407bff"/>
      </g>
      <path id="Caminho_3808" data-name="Caminho 3808" d="M296.3,249.13H191.762a3.572,3.572,0,0,0-3.571,3.691h0a3.857,3.857,0,0,0,3.821,3.691H296.6a3.572,3.572,0,0,0,3.571-3.691h0a3.833,3.833,0,0,0-3.869-3.69Z" transform="translate(-92.785 -59.188)" fill="#e0e0e0"/>
      <path id="Caminho_3809" data-name="Caminho 3809" d="M271.6,236.07H191.382a3.572,3.572,0,0,0-3.571,3.7h0a3.822,3.822,0,0,0,3.8,3.691h80.227a3.571,3.571,0,0,0,3.572-3.691h0A3.81,3.81,0,0,0,271.6,236.07Z" transform="translate(-92.857 -61.676)" fill="#e0e0e0"/>
      <path id="Caminho_3810" data-name="Caminho 3810" d="M158.033,206.118l-1.4-2.31c-3.083-5.036-9.524-9.524-11.738-10.845l1.667-2.952a45.523,45.523,0,0,1,11.524,9.952c5.06-6.8,12.452-13.786,22.464-21.334l2.155,2.786c-10.714,8.06-18.31,15.476-23.179,22.536C159.033,204.678,158.533,205.4,158.033,206.118Z" transform="translate(-101.032 -72.617)" fill="#407bff"/>
      <path id="Caminho_3811" data-name="Caminho 3811" d="M159.531,259.92c-.464-.774-.941-1.548-1.417-2.31-3.1-5.036-9.524-9.524-11.714-10.857l1.69-2.952a45.644,45.644,0,0,1,11.464,9.952c5.071-6.786,12.524-13.786,22.691-21.333l2.107,2.786c-10.857,8.06-18.5,15.476-23.345,22.536Z" transform="translate(-100.745 -62.371)" fill="#407bff"/>
      <path id="Caminho_3812" data-name="Caminho 3812" d="M163.089,313.838l-1.571-2.31c-3.429-5.036-10.072-9.524-12.357-10.845l1.548-2.952a50.06,50.06,0,0,1,12.012,9.941c4.667-6.786,11.762-13.786,21.619-21.322l2.226,2.786c-10.524,8.06-17.75,15.476-22.143,22.536Z" transform="translate(-100.219 -52.098)" fill="#407bff"/>
      <path id="Caminho_3813" data-name="Caminho 3813" d="M225.131,129q-3.143,6.857-6.441,13.7a29.465,29.465,0,0,1,16.238,23.9H250.75C249.7,150.429,239.3,136.345,225.131,129Z" transform="translate(-86.975 -82.071)" fill="#407bff"/>
      <path id="Caminho_3814" data-name="Caminho 3814" d="M173.486,166.494h15.821a25.2,25.2,0,0,1,11-23.06q-4.619-6.857-9.381-13.714C179.379,137.2,172.474,150.9,173.486,166.494Z" transform="translate(-95.604 -81.934)" fill="#263238"/>
      <path id="Caminho_3815" data-name="Caminho 3815" d="M209.549,124.54a38.976,38.976,0,0,0-21.429,6.167q4.762,6.857,9.381,13.714a25,25,0,0,1,13.881-4.071,28.868,28.868,0,0,1,13.1,3.226q3.286-6.857,6.44-13.7A46.667,46.667,0,0,0,209.549,124.54Z" transform="translate(-92.798 -82.921)" fill="#407bff"/>
      <path id="Caminho_3816" data-name="Caminho 3816" d="M209.549,124.54a38.976,38.976,0,0,0-21.429,6.167q4.762,6.857,9.381,13.714a25,25,0,0,1,13.881-4.071,28.868,28.868,0,0,1,13.1,3.226q3.286-6.857,6.44-13.7A46.667,46.667,0,0,0,209.549,124.54Z" transform="translate(-92.798 -82.921)" fill="#263238" opacity="0.5"/>
      <path id="Caminho_3817" data-name="Caminho 3817" d="M225.428,151.51s-15.976,6.536-17.667,7.726a3.8,3.8,0,0,0-.679,5.393,3.988,3.988,0,0,0,5.452,1.036C214.285,164.4,225.452,151.51,225.428,151.51Zm-16.786,11.9a1.869,1.869,0,0,1,.333-2.655,1.988,1.988,0,0,1,2.69.512,1.869,1.869,0,0,1-.333,2.655,1.988,1.988,0,0,1-2.691-.464Z" transform="translate(-89.343 -77.783)" fill="#263238"/>
      <path id="Caminho_3818" data-name="Caminho 3818" d="M240.073,146.057a5.071,5.071,0,0,1-5.143,5.619,6.25,6.25,0,0,1-6.1-5.619,5.036,5.036,0,0,1,5.1-5.607,6.286,6.286,0,0,1,6.143,5.607Z" transform="translate(-85.048 -79.89)" fill="#fff"/>
      <path id="Caminho_3819" data-name="Caminho 3819" d="M232.707,144.223a.81.81,0,0,1-.81.893.988.988,0,0,1-.976-.893.8.8,0,0,1,.81-.893A.988.988,0,0,1,232.707,144.223Z" transform="translate(-84.646 -79.341)" fill="#263238"/>
      <path id="Caminho_3820" data-name="Caminho 3820" d="M236.289,144.223a.81.81,0,0,1-.821.893,1.012,1.012,0,0,1-.976-.893.8.8,0,0,1,.821-.893A.988.988,0,0,1,236.289,144.223Z" transform="translate(-83.966 -79.341)" fill="#263238"/>
      <path id="Caminho_3821" data-name="Caminho 3821" d="M234.3,148.32h0a4.762,4.762,0,0,1-3.179-1.25.44.44,0,0,1,0-.619.428.428,0,0,1,.619,0,3.87,3.87,0,0,0,2.583,1.024h0a3.167,3.167,0,0,0,2.381-1,.442.442,0,0,1,.643.607A4.024,4.024,0,0,1,234.3,148.32Z" transform="translate(-84.631 -78.772)" fill="#263238"/>
      <path id="Caminho_3822" data-name="Caminho 3822" d="M213.427,132a4.941,4.941,0,0,1-5,5.619A6.441,6.441,0,0,1,202.189,132a4.881,4.881,0,0,1,4.952-5.607A6.5,6.5,0,0,1,213.427,132Z" transform="translate(-90.128 -82.568)" fill="#fff"/>
      <path id="Caminho_3823" data-name="Caminho 3823" d="M206.027,130.143a.786.786,0,0,1-.786.893,1.036,1.036,0,0,1-1-.893.774.774,0,0,1,.786-.893A1.024,1.024,0,0,1,206.027,130.143Z" transform="translate(-89.729 -82.023)" fill="#263238"/>
      <path id="Caminho_3824" data-name="Caminho 3824" d="M209.6,130.143a.786.786,0,0,1-.8.893,1.048,1.048,0,0,1-1-.893.786.786,0,0,1,.8-.893A1.036,1.036,0,0,1,209.6,130.143Z" transform="translate(-89.05 -82.023)" fill="#263238"/>
      <path id="Caminho_3825" data-name="Caminho 3825" d="M210.362,133.143h-5.571a.452.452,0,0,1,0-.893h5.571a.452.452,0,0,1,0,.893Z" transform="translate(-89.694 -81.452)" fill="#263238"/>
      <path id="Caminho_3826" data-name="Caminho 3826" d="M189.673,146.057a5.072,5.072,0,0,1-5.143,5.619,6.25,6.25,0,0,1-6.1-5.619,5.036,5.036,0,0,1,5.1-5.607A6.3,6.3,0,0,1,189.673,146.057Z" transform="translate(-94.649 -79.89)" fill="#fff"/>
      <path id="Caminho_3827" data-name="Caminho 3827" d="M182.287,144.223a.809.809,0,0,1-.809.893.988.988,0,0,1-.976-.893.8.8,0,0,1,.809-.893A.988.988,0,0,1,182.287,144.223Z" transform="translate(-94.25 -79.341)" fill="#263238"/>
      <path id="Caminho_3828" data-name="Caminho 3828" d="M185.867,144.223a.8.8,0,0,1-.81.893,1.012,1.012,0,0,1-.976-.893.8.8,0,0,1,.81-.893.976.976,0,0,1,.976.893Z" transform="translate(-93.568 -79.341)" fill="#263238"/>
      <path id="Caminho_3829" data-name="Caminho 3829" d="M181.068,148.324a.416.416,0,0,1-.3-.119.44.44,0,0,1,0-.619,4.083,4.083,0,0,1,3.012-1.286,4.762,4.762,0,0,1,3.179,1.262.429.429,0,0,1,0,.619.464.464,0,0,1-.631,0,3.81,3.81,0,0,0-2.6-1.024,3.19,3.19,0,0,0-2.381.988A.465.465,0,0,1,181.068,148.324Z" transform="translate(-94.222 -78.776)" fill="#263238"/>
      <path id="Caminho_3830" data-name="Caminho 3830" d="M276.641,114.556c-3.714-7.822-12.381-13-21.726-13H235.867A7.429,7.429,0,0,1,229.26,98.1c-2.655-4.976-8.988-8.524-16.179-8.524s-13.1,3.571-15.191,8.524c-.869,2.1-3.357,3.452-6.214,3.452H172.629c-9.345,0-17.429,5.179-20.238,13a1.929,1.929,0,0,0-.119.857,2.381,2.381,0,0,0,2.381,2.262h120.1a2.131,2.131,0,0,0,1.893-3.119Zm-62.786-10.845a5.691,5.691,0,0,1-5.56-5.3,4.952,4.952,0,0,1,5-5.3,5.679,5.679,0,0,1,5.607,5.3,4.952,4.952,0,0,1-5.048,5.3Z" transform="translate(-99.628 -89.58)" fill="#263238"/>
    </g>
    <g id="freepik--Character--inject-1" transform="translate(330.824 123.905)">
      <path id="Caminho_3831" data-name="Caminho 3831" d="M360.872,409.447a3.81,3.81,0,0,1-2.643-.655.821.821,0,0,1-.084-.9.882.882,0,0,1,.607-.488c1.4-.393,4.655,1.345,4.762,1.428a.2.2,0,0,1,.119.214.179.179,0,0,1-.143.167A15.383,15.383,0,0,1,360.872,409.447Zm-1.572-1.691a1.316,1.316,0,0,0-.393,0,.536.536,0,0,0-.381.286.573.573,0,0,0,0,.464c.476.56,2.691.572,4.286.345A10.3,10.3,0,0,0,359.3,407.756Z" transform="translate(-262.621 -56.789)" fill="#407bff"/>
      <path id="Caminho_3832" data-name="Caminho 3832" d="M363.173,409.542h-.083c-1.107-.476-3.417-2.381-3.369-3.357,0-.238.143-.524.714-.583a1.691,1.691,0,0,1,1.19.357,6.728,6.728,0,0,1,1.738,3.369.214.214,0,0,1,0,.19A.2.2,0,0,1,363.173,409.542Zm-2.536-3.572h-.119c-.369,0-.381.179-.381.226,0,.6,1.56,2.083,2.714,2.726a5.548,5.548,0,0,0-1.464-2.691,1.189,1.189,0,0,0-.75-.238Z" transform="translate(-262.303 -57.122)" fill="#407bff"/>
      <path id="Caminho_3833" data-name="Caminho 3833" d="M372.581,411.982h-8.75L360.7,391.72h8.75Z" transform="translate(-262.116 -59.765)" fill="#ffc3bd"/>
      <path id="Caminho_3834" data-name="Caminho 3834" d="M365.776,407.89H375.3a.881.881,0,0,1,.81.6l2.6,7.774a1.19,1.19,0,0,1-1.083,1.548c-3.452,0-8.452-.25-12.786-.25-5.059,0-4.607.274-10.548.274-3.571,0-4.988-3.631-3.571-3.964,6.679-1.488,7.452-1.655,12.952-5.3A3.678,3.678,0,0,1,365.776,407.89Z" transform="translate(-264.121 -56.685)" fill="#263238"/>
      <path id="Caminho_3835" data-name="Caminho 3835" d="M360.7,391.73l1.619,10.441h8.75L369.45,391.73Z" transform="translate(-262.116 -59.763)" opacity="0.2"/>
      <path id="Caminho_3836" data-name="Caminho 3836" d="M370.792,225.45l-5.952,6.012,9.119,3.226s3.571-4.9,1.059-8.262Z" transform="translate(-261.327 -91.437)" fill="#ffc3bd"/>
      <path id="Caminho_3837" data-name="Caminho 3837" d="M363.16,238.9l9.107,1.333,2.036-6.512-9.119-3.226Z" transform="translate(-261.647 -90.475)" fill="#ffc3bd"/>
      <path id="Caminho_3838" data-name="Caminho 3838" d="M375.573,163.27c.774,1.667,1.393,3.083,2.012,4.631s1.19,3.036,1.786,4.56c1.131,3.06,2.143,6.179,3.083,9.333a98.556,98.556,0,0,1,2.381,9.7l.452,2.5.369,2.548c.131.845.214,1.726.286,2.6s.19,1.655.19,2.75v2.917l-.071,1.345-.131,1.274c-.155,1.714-.381,3.321-.6,4.952-.476,3.214-1.024,6.357-1.631,9.524-1.262,6.226-2.643,12.31-4.31,18.441L368.549,238.2c.69-6.048,1.4-12.191,1.976-18.238.274-3.024.571-6.036.738-8.988.071-1.452.155-2.929.155-4.321v-2.976l-.083-.786a17.82,17.82,0,0,0-.262-1.869c-.107-.667-.2-1.333-.357-2.012l-.44-2.036-.512-2.048c-.738-2.738-1.571-5.488-2.524-8.238s-2.012-5.488-3.131-8.2c-.548-1.369-1.119-2.726-1.714-4.06s-1.19-2.726-1.774-3.881Z" transform="translate(-262.131 -103.281)" fill="#263238"/>
      <path id="Caminho_3839" data-name="Caminho 3839" d="M338.65,221.87s1.452,66.953,5.381,93.62c4.1,27.738,19.048,117.013,19.048,117.013h14.81s-5.31-84.965-7-112.263c-1.845-29.762-1.44-98.37-1.44-98.37Z" transform="translate(-266.316 -92.119)" fill="#407bff"/>
      <path id="Caminho_3840" data-name="Caminho 3840" d="M356.18,393.84c-.072,0,1.524,6.155,1.524,6.155h18.024l-.131-5.488Z" transform="translate(-262.977 -59.361)" fill="#263238"/>
      <ellipse id="Elipse_145" data-name="Elipse 145" cx="1.345" cy="0.881" rx="1.345" ry="0.881" transform="matrix(0.061, -0.998, 0.998, 0.061, 67.156, 22.45)" fill="#263238"/>
      <path id="Caminho_3841" data-name="Caminho 3841" d="M336.142,131.78a27.62,27.62,0,0,1-3.762,6.333,4.191,4.191,0,0,0,3.512.667Z" transform="translate(-267.51 -109.28)" fill="#ed847e"/>
      <path id="Caminho_3842" data-name="Caminho 3842" d="M338.8,127.466a.512.512,0,0,1-.262-.071,3.357,3.357,0,0,0-3.059-.571.429.429,0,0,1-.56-.25.44.44,0,0,1,.274-.56,4.226,4.226,0,0,1,3.881.667.441.441,0,0,1,.083.607A.453.453,0,0,1,338.8,127.466Z" transform="translate(-267.03 -110.418)" fill="#263238"/>
      <path id="Caminho_3843" data-name="Caminho 3843" d="M358.6,137.52c-1.476,6.4-3.143,18.131,1.191,22.393,0,0-1.976,6.488-13.869,6.488-13.1,0-6.012-6.488-6.012-6.488,7.143-1.7,7.2-6.988,6.131-11.964Z" transform="translate(-266.441 -108.186)" fill="#ffc3bd"/>
      <path id="Caminho_3844" data-name="Caminho 3844" d="M364.888,160.093c1.286-2.607,2.7-5.607,0-6.536-2.953-1.036-19.274-2.083-25-.155a5.952,5.952,0,0,0-4.3,7.238Z" transform="translate(-266.934 -105.366)" fill="#407bff"/>
      <path id="Caminho_3845" data-name="Caminho 3845" d="M372.445,158.608c7.536,3.476,11.369,29.834,11.369,29.834L368.636,193.2a154.161,154.161,0,0,1-6.583-21.429C359.719,160.775,364.731,155.06,372.445,158.608Z" transform="translate(-261.968 -104.369)" fill="#263238"/>
      <path id="Caminho_3846" data-name="Caminho 3846" d="M294.458,193.854l-7-6.024L281.16,197s5.655,4.536,11.9,2.679Z" transform="translate(-277.267 -98.603)" fill="#ffc3bd"/>
      <path id="Caminho_3847" data-name="Caminho 3847" d="M278.854,185.38l-.964,9.06,3.893,3.024,6.3-9.167Z" transform="translate(-277.89 -99.07)" fill="#ffc3bd"/>
      <path id="Caminho_3848" data-name="Caminho 3848" d="M360.866,131.47c-.881,9.1-.941,14.452-5.7,19.119a11.9,11.9,0,0,1-20.072-6.226c-1.667-8.167,0-21.667,9.083-25.286a12.012,12.012,0,0,1,16.691,12.393Z" transform="translate(-267.103 -111.887)" fill="#ffc3bd"/>
      <path id="Caminho_3849" data-name="Caminho 3849" d="M341.977,135.38c-.8-6.286-.667-8.667,2.69-10.06-3.488-.69-6.512-.786-7.952-2.821s-1.786-7.238,5.214-9.619c-.643,1.191,1.393,3.667,7.833,1.429s15.821-2.476,16.667,4.071c3.4-1.19,9.107,9.321,2.381,17-5.607,6.429-9.345,10.869-10.453,14.286a1.19,1.19,0,0,1-1.631.714c-2.322-1.083-6.476-.155-8.334.345a1.191,1.191,0,0,1-1.357-.607C345.834,147.642,342.584,140.571,341.977,135.38Z" transform="translate(-266.845 -112.88)" fill="#263238"/>
      <path id="Caminho_3850" data-name="Caminho 3850" d="M360.48,118.5s2.762-3.893,8.06-1a24,24,0,0,0-8.06,1Z" transform="translate(-262.158 -112.203)" fill="#263238"/>
      <path id="Caminho_3851" data-name="Caminho 3851" d="M360.86,119.969s3.845-2.381.845-6.869A17.3,17.3,0,0,1,360.86,119.969Z" transform="translate(-262.085 -112.838)" fill="#263238"/>
      <path id="Caminho_3852" data-name="Caminho 3852" d="M345.918,132.631a10.892,10.892,0,0,1-3.19,5.893c-2.2,2.083-4.107.607-4.167-2.071-.059-2.381,1.012-6.4,3.571-7.476S346.37,129.941,345.918,132.631Z" transform="translate(-266.334 -109.869)" fill="#ffc3bd"/>
      <path id="Caminho_3853" data-name="Caminho 3853" d="M339.68,253.12c.857,19.976,2.2,43.167,4.155,56.417.75,5.047,1.845,12.119,3.155,20.321C352.252,301.144,355.394,264.144,339.68,253.12Z" transform="translate(-266.12 -86.166)" opacity="0.3"/>
      <path id="Caminho_3854" data-name="Caminho 3854" d="M334.6,409.447c-1.119,0-2.2-.155-2.548-.655a.81.81,0,0,1,0-.9,1.191,1.191,0,0,1,.679-.488c1.464-.393,4.464,1.345,4.6,1.429a.178.178,0,0,1,.083.214.213.213,0,0,1-.166.167A15.994,15.994,0,0,1,334.6,409.447Zm-1.321-1.691a1.412,1.412,0,0,0-.4,0,.632.632,0,0,0-.417.286c-.155.262-.107.393-.06.464.393.559,2.6.571,4.238.345a9.056,9.056,0,0,0-3.357-1.1Z" transform="translate(-267.599 -56.789)" fill="#407bff"/>
      <path id="Caminho_3855" data-name="Caminho 3855" d="M336.875,409.543h-.084c-1.035-.476-3.071-2.381-2.869-3.357,0-.238.214-.524.786-.583a1.536,1.536,0,0,1,1.191.357c1.083.917,1.19,3.274,1.19,3.369a.25.25,0,0,1-.1.19.226.226,0,0,1-.119.024Zm-2.012-3.571h-.119c-.381,0-.4.178-.417.226-.119.6,1.25,2.083,2.31,2.726a4.763,4.763,0,0,0-1.06-2.691,1.1,1.1,0,0,0-.714-.238Z" transform="translate(-267.219 -57.123)" fill="#407bff"/>
      <path id="Caminho_3856" data-name="Caminho 3856" d="M345.9,411.982h-8.738L337,391.72h8.75Z" transform="translate(-266.63 -59.765)" fill="#ffc3bd"/>
      <path id="Caminho_3857" data-name="Caminho 3857" d="M340.634,407.89h9.524a.715.715,0,0,1,.714.6l1.464,7.774a1.322,1.322,0,0,1-1.322,1.548c-3.441,0-8.417-.25-12.738-.25-5.072,0-9.452.274-15.393.274-3.571,0-4.452-3.631-2.94-3.964,6.893-1.488,12.488-1.655,18.524-5.3a4.251,4.251,0,0,1,2.167-.679Z" transform="translate(-270.014 -56.684)" fill="#263238"/>
      <path id="Caminho_3858" data-name="Caminho 3858" d="M337.01,391.73l.071,10.441h8.75l-.071-10.441Z" transform="translate(-266.628 -59.763)" opacity="0.2"/>
      <path id="Caminho_3859" data-name="Caminho 3859" d="M326.1,221.87s-3.571,65.393-3.5,92.06c0,27.738,14.048,118.573,14.048,118.573h14.81s-3.857-89.215-2.191-116.43c1.774-29.762,10.369-94.18,10.369-94.18Z" transform="translate(-269.374 -92.119)" fill="#407bff"/>
      <path id="Caminho_3860" data-name="Caminho 3860" d="M332.181,393.84c-.071,0,.607,6.155.607,6.155h18.024l.69-5.488Z" transform="translate(-267.549 -59.361)" fill="#263238"/>
      <path id="Caminho_3861" data-name="Caminho 3861" d="M329.829,158.8s-14.9,37.655-8.417,102.739h54.429c.571-7.143-5.119-69.358,3-103.191a120.693,120.693,0,0,0-15.6-1.976,172.972,172.972,0,0,0-19.881,0A89.092,89.092,0,0,0,329.829,158.8Z" transform="translate(-269.911 -104.649)" fill="#263238"/>
      <path id="Caminho_3862" data-name="Caminho 3862" d="M322.055,189.189c-.81,5.952-1.476,12.75-1.9,20.238,10.572-9.714,14.191-33.917,14.191-33.917Z" transform="translate(-269.84 -100.95)" opacity="0.2"/>
      <path id="Caminho_3863" data-name="Caminho 3863" d="M341.517,174.325c-2.143,5.571-4.31,10.941-6.69,16.333s-4.845,10.714-7.619,16.048l-1.083,1.988-.548,1c-.226.4-.2.429-.822,1.464a11.643,11.643,0,0,1-4.3,4,12.81,12.81,0,0,1-4.655,1.4,19.6,19.6,0,0,1-6.667-.536,36.914,36.914,0,0,1-5.048-1.643,65.653,65.653,0,0,1-8.536-4.286c-1.345-.774-2.631-1.607-3.9-2.381s-2.429-1.762-3.8-2.714l6.429-9.857a83.645,83.645,0,0,0,14.464,6.274,21.837,21.837,0,0,0,3.25.738,4.573,4.573,0,0,0,1.9,0c.071,0-.155-.071-.548.131a3.2,3.2,0,0,0-1.19,1.048c-.25.417.071-.2.179-.44l.429-.94.857-1.869c2.262-5.048,4.357-10.274,6.393-15.476s4.012-10.631,5.833-15.881Z" transform="translate(-275.993 -102.241)" fill="#263238"/>
      <path id="Caminho_3864" data-name="Caminho 3864" d="M342.479,162.412c2.786,7.786-16.929,39.131-16.929,39.131L313.86,189.96s2.988-9.845,6.929-21.7C324.67,156.6,339.825,154.972,342.479,162.412Z" transform="translate(-271.038 -104.305)" fill="#263238"/>
    </g>
  </g>
</svg>
