<svg id="_Fácil_-_Copy" data-name="_Fácil - Copy" xmlns="http://www.w3.org/2000/svg" width="20" height="20" viewBox="0 0 20 20">
  <path id="Caminho_655" data-name="Caminho 655" d="M18.433,30H7.776A1.781,1.781,0,0,0,6,31.776V42.433A1.781,1.781,0,0,0,7.776,44.21H18.433a1.781,1.781,0,0,0,1.776-1.776V31.776A1.781,1.781,0,0,0,18.433,30Zm0,12.433H7.776V31.776H18.433Z" transform="translate(-6 -24.21)" fill="#009cde"/>
  <path id="Caminho_656" data-name="Caminho 656" d="M79.776,57.552a1.781,1.781,0,0,0,1.776-1.776V54H79.776v1.776H78v1.776Z" transform="translate(-61.552 -43.035)" fill="#009cde"/>
  <path id="Caminho_657" data-name="Caminho 657" d="M81.552,7.776A1.781,1.781,0,0,0,79.776,6H78V7.776h1.776V9.552h1.776V7.776Z" transform="translate(-61.552 -6)" fill="#009cde"/>
  <path id="Caminho_658" data-name="Caminho 658" d="M31.776,6A1.781,1.781,0,0,0,30,7.776V9.552h1.776V7.776h1.776V6Z" transform="translate(-24.517 -6)" fill="#009cde"/>
  <path id="Caminho_659" data-name="Caminho 659" d="M54,6h3.552V7.776H54V6Z" transform="translate(-43.035 -6)" fill="#009cde"/>
  <path id="Caminho_660" data-name="Caminho 660" d="M86,30h1.776v3.552H86V30Z" transform="translate(-67.776 -24.517)" fill="#009cde"/>
</svg>
