<svg xmlns="http://www.w3.org/2000/svg" width="40.542" height="27.385" viewBox="0 0 40.542 27.385">
  <g id="Grupo_2272" data-name="Grupo 2272" transform="translate(-9.927 -15.568)">
    <g id="Grupo_2262" data-name="Grupo 2262" transform="translate(16.102 16.48)">
      <g id="Componente_5_31" data-name="Componente 5 – 31">
        <g id="Retângulo_3231" data-name="Retângulo 3231" transform="translate(0.473)" fill="#54189e" stroke="#e5f7ff" stroke-width="1">
          <rect width="32.674" height="20.694" rx="2.5" stroke="none"/>
          <rect x="0.5" y="0.5" width="31.674" height="19.694" rx="2" fill="none"/>
        </g>
        <g id="Grupo_1835" data-name="Grupo 1835" transform="translate(0 0.088)">
          <g id="Grupo_1833" data-name="Grupo 1833" transform="translate(0 0)">
            <g id="Grupo_1832" data-name="Grupo 1832">
              <path id="Caminho_3049" data-name="Caminho 3049" d="M38.718,38.462a3.4,3.4,0,0,1-3.382,3.406H8.736a3.406,3.406,0,0,1-3.385-3.406V24.6A3.406,3.406,0,0,1,8.736,21.2h26.6A3.4,3.4,0,0,1,38.718,24.6Z" transform="translate(-5.351 -21.195)" fill="#54189e" stroke="#e5f7ff" stroke-linecap="round" stroke-linejoin="round" stroke-width="2"/>
            </g>
          </g>
          <line id="Linha_984" data-name="Linha 984" x2="33.221" transform="translate(0.415 7.494)" fill="none" stroke="#e5f7ff" stroke-width="1.5"/>
          <line id="Linha_985" data-name="Linha 985" x2="14.551" transform="translate(4.534 12.545)" fill="none" stroke="#e5f7ff" stroke-linecap="round" stroke-width="1.5"/>
          <line id="Linha_986" data-name="Linha 986" x2="6.366" transform="translate(4.534 15.273)" fill="none" stroke="#e5f7ff" stroke-linecap="round" stroke-width="1.5"/>
        </g>
      </g>
    </g>
    <g id="Grupo_2261" data-name="Grupo 2261" transform="translate(10.928 21.191)">
      <g id="Componente_5_32" data-name="Componente 5 – 32">
        <g id="Retângulo_3231-2" data-name="Retângulo 3231" transform="translate(0.473)" fill="#54189e" stroke="#e5f7ff" stroke-width="1">
          <rect width="32.674" height="20.694" rx="2.5" stroke="none"/>
          <rect x="0.5" y="0.5" width="31.674" height="19.694" rx="2" fill="none"/>
        </g>
        <g id="Grupo_1835-2" data-name="Grupo 1835" transform="translate(0 0.088)">
          <g id="Grupo_1833-2" data-name="Grupo 1833" transform="translate(0 0)">
            <g id="Grupo_1832-2" data-name="Grupo 1832">
              <path id="Caminho_3049-2" data-name="Caminho 3049" d="M38.718,38.462a3.4,3.4,0,0,1-3.382,3.406H8.736a3.406,3.406,0,0,1-3.385-3.406V24.6A3.406,3.406,0,0,1,8.736,21.2h26.6A3.4,3.4,0,0,1,38.718,24.6Z" transform="translate(-5.351 -21.195)" fill="#54189e" stroke="#e5f7ff" stroke-linecap="round" stroke-linejoin="round" stroke-width="2"/>
            </g>
          </g>
          <line id="Linha_984-2" data-name="Linha 984" x2="33.221" transform="translate(0.415 7.494)" fill="none" stroke="#e5f7ff" stroke-width="1.5"/>
          <line id="Linha_985-2" data-name="Linha 985" x2="14.551" transform="translate(4.534 12.545)" fill="none" stroke="#e5f7ff" stroke-linecap="round" stroke-width="1.5"/>
          <line id="Linha_986-2" data-name="Linha 986" x2="6.366" transform="translate(4.534 15.273)" fill="none" stroke="#e5f7ff" stroke-linecap="round" stroke-width="1.5"/>
        </g>
      </g>
    </g>
  </g>
</svg>
