<svg xmlns="http://www.w3.org/2000/svg" xmlns:xlink="http://www.w3.org/1999/xlink" width="88" height="88" viewBox="0 0 88 88">
  <defs>
    <filter id="Elipse_143" x="0" y="0" width="88" height="88" filterUnits="userSpaceOnUse">
      <feOffset dx="1" dy="3" input="SourceAlpha"/>
      <feGaussianBlur stdDeviation="2.5" result="blur"/>
      <feFlood flood-opacity="0.161"/>
      <feComposite operator="in" in2="blur"/>
      <feComposite in="SourceGraphic"/>
    </filter>
  </defs>
  <g id="Grupo_2269" data-name="Grupo 2269" transform="translate(6.5 4.924)">
    <g id="Grupo_2253" data-name="Grupo 2253">
      <g transform="matrix(1, 0, 0, 1, -6.5, -4.92)" filter="url(#Elipse_143)">
        <circle id="Elipse_143-2" data-name="Elipse 143" cx="36.5" cy="36.5" r="36.5" transform="translate(6.5 4.5)" fill="#fff"/>
      </g>
    </g>
    <g id="Grupo_2262" data-name="Grupo 2262" transform="translate(20 21.233)">
      <g id="Componente_5_14" data-name="Componente 5 – 14">
        <g id="Retângulo_3231" data-name="Retângulo 3231" transform="translate(0.549)" fill="#54189e" stroke="#fff" stroke-width="1">
          <rect width="37.885" height="23.994" rx="2.5" stroke="none"/>
          <rect x="0.5" y="0.5" width="36.885" height="22.994" rx="2" fill="none"/>
        </g>
        <g id="Grupo_1835" data-name="Grupo 1835" transform="translate(0 0.102)">
          <g id="Grupo_1833" data-name="Grupo 1833" transform="translate(0 0)">
            <g id="Grupo_1832" data-name="Grupo 1832">
              <path id="Caminho_3049" data-name="Caminho 3049" d="M44.039,41.215a3.947,3.947,0,0,1-3.922,3.95H9.276a3.95,3.95,0,0,1-3.925-3.95V25.145A3.949,3.949,0,0,1,9.276,21.2H40.118a3.944,3.944,0,0,1,3.921,3.95Z" transform="translate(-5.351 -21.195)" fill="#54189e" stroke="#fff" stroke-linecap="round" stroke-linejoin="round" stroke-width="2"/>
            </g>
          </g>
          <line id="Linha_984" data-name="Linha 984" x2="38.518" transform="translate(0.481 8.69)" fill="none" stroke="#fff" stroke-width="1.5"/>
          <line id="Linha_985" data-name="Linha 985" x2="16.871" transform="translate(5.257 14.546)" fill="none" stroke="#fff" stroke-linecap="round" stroke-width="1.5"/>
          <line id="Linha_986" data-name="Linha 986" x2="7.381" transform="translate(5.257 17.709)" fill="none" stroke="#fff" stroke-linecap="round" stroke-width="1.5"/>
        </g>
      </g>
    </g>
    <g id="Grupo_2261" data-name="Grupo 2261" transform="translate(14 26.696)">
      <g id="Componente_5_15" data-name="Componente 5 – 15">
        <g id="Retângulo_3231-2" data-name="Retângulo 3231" transform="translate(0.549)" fill="#54189e" stroke="#fff" stroke-width="1">
          <rect width="37.885" height="23.994" rx="2.5" stroke="none"/>
          <rect x="0.5" y="0.5" width="36.885" height="22.994" rx="2" fill="none"/>
        </g>
        <g id="Grupo_1835-2" data-name="Grupo 1835" transform="translate(0 0.102)">
          <g id="Grupo_1833-2" data-name="Grupo 1833" transform="translate(0 0)">
            <g id="Grupo_1832-2" data-name="Grupo 1832">
              <path id="Caminho_3049-2" data-name="Caminho 3049" d="M44.039,41.215a3.947,3.947,0,0,1-3.922,3.95H9.276a3.95,3.95,0,0,1-3.925-3.95V25.145A3.949,3.949,0,0,1,9.276,21.2H40.118a3.944,3.944,0,0,1,3.921,3.95Z" transform="translate(-5.351 -21.195)" fill="#54189e" stroke="#fff" stroke-linecap="round" stroke-linejoin="round" stroke-width="2"/>
            </g>
          </g>
          <line id="Linha_984-2" data-name="Linha 984" x2="38.518" transform="translate(0.481 8.69)" fill="none" stroke="#fff" stroke-width="1.5"/>
          <line id="Linha_985-2" data-name="Linha 985" x2="16.871" transform="translate(5.257 14.546)" fill="none" stroke="#fff" stroke-linecap="round" stroke-width="1.5"/>
          <line id="Linha_986-2" data-name="Linha 986" x2="7.381" transform="translate(5.257 17.709)" fill="none" stroke="#fff" stroke-linecap="round" stroke-width="1.5"/>
        </g>
      </g>
    </g>
  </g>
</svg>
