<svg id="_Fácil_-_Details" data-name="_Fácil - Details" xmlns="http://www.w3.org/2000/svg" width="20" height="20" viewBox="0 0 20 20">
  <path id="Caminho_688" data-name="Caminho 688" d="M15.563,12.456,12.625,9.517a5.165,5.165,0,0,0-.762-5.962V-.862h-.031a.549.549,0,0,0-.134-.215L7.943-4.831a.525.525,0,0,0-.161-.111L7.8-5H-2.659A1.342,1.342,0,0,0-4-3.659V13.659A1.342,1.342,0,0,0-2.659,15h13.18a1.342,1.342,0,0,0,1.341-1.341v-.69l1.594,1.594A1.484,1.484,0,0,0,14.51,15a1.468,1.468,0,0,0,1.054-.437A1.489,1.489,0,0,0,15.563,12.456Zm-3.605-1.981,2.793,2.793a.342.342,0,0,1,0,.483h0a.342.342,0,0,1-.483,0l-2.793-2.793A4.785,4.785,0,0,0,11.958,10.475ZM3.54,9.563a5.172,5.172,0,0,0,3.943,2.644,5.013,5.013,0,0,0,.586.034,5.193,5.193,0,0,0,2.448-.617l.2.2v1.839a.19.19,0,0,1-.192.192H-2.659a.19.19,0,0,1-.192-.192V-3.659a.19.19,0,0,1,.192-.192H6.958v2.414A1.342,1.342,0,0,0,8.3-.1h2.414v2.72A5.169,5.169,0,0,0,3.54,9.563ZM8.069,3.046A4.023,4.023,0,1,1,4.046,7.069,4.027,4.027,0,0,1,8.069,3.046ZM8.3-1.245a.19.19,0,0,1-.192-.192v-1.6L9.9-1.245Z" transform="translate(4 5)" fill="#009cde"/>
</svg>
