<svg xmlns="http://www.w3.org/2000/svg" width="15.013" height="19.997" viewBox="0 0 15.013 19.997">
  <g id="_Fácil_-_Download" data-name="_Fácil - Download" transform="translate(0)">
    <path id="Caminho_664" data-name="Caminho 664" d="M6.732,16.43a1.32,1.32,0,0,0,1.791,0L14.754,10.2a1.267,1.267,0,0,0-1.791-1.791l-4.05,4.05V1.477a1.286,1.286,0,0,0-2.57,0V12.458l-4.05-4.05A1.267,1.267,0,0,0,.5,10.2Z" transform="translate(-0.121 -0.25)" fill="#009cde"/>
    <path id="Caminho_665" data-name="Caminho 665" d="M14.016,225H1.477a1.246,1.246,0,0,0,0,2.492H14.016A1.246,1.246,0,0,0,14.016,225Z" transform="translate(-0.24 -207.496)" fill="#009cde"/>
  </g>
</svg>
