<svg xmlns="http://www.w3.org/2000/svg" width="19.824" height="20" viewBox="0 0 19.824 20">
  <path id="_Fácil_-_Arroba" data-name="_Fácil - Arroba" d="M25.7,9.019h0A9.681,9.681,0,0,0,18.9,6.5a10.2,10.2,0,0,0-7.288,2.871A9.5,9.5,0,0,0,8.6,16.508a9.819,9.819,0,0,0,2.863,7.045A10.331,10.331,0,0,0,19.2,26.5a14.58,14.58,0,0,0,5.788-1.215.977.977,0,0,0,0-1.806,1,1,0,0,0-.771,0,12.7,12.7,0,0,1-5.025,1.1,7.836,7.836,0,0,1-6.123-2.422A8.2,8.2,0,0,1,10.9,16.517a8.1,8.1,0,0,1,2.326-5.88,7.771,7.771,0,0,1,5.712-2.355,7.612,7.612,0,0,1,5.272,1.945,6.36,6.36,0,0,1,2.163,4.916,5.6,5.6,0,0,1-1.006,3.4,2.831,2.831,0,0,1-2.192,1.4.771.771,0,0,1-.826-.868c0-.319.025-.7.071-1.165v0l.742-6.069H20.993l-.226.826-.323-.264a3.225,3.225,0,0,0-2.075-.775,4.07,4.07,0,0,0-3.114,1.45,5.485,5.485,0,0,0-1.308,3.789,5.479,5.479,0,0,0,1.161,3.65,3.436,3.436,0,0,0,2.737,1.358,3.049,3.049,0,0,0,2.422-1.194L20.5,20.4l.2.3a2.451,2.451,0,0,0,2.2,1.115,4.86,4.86,0,0,0,3.864-1.957,7.223,7.223,0,0,0,1.655-4.774A7.975,7.975,0,0,0,25.7,9.019Zm-5.771,9.606h0a2.338,2.338,0,0,1-1.915,1.069,1.479,1.479,0,0,1-1.316-.838,3.7,3.7,0,0,1-.453-1.89,3.724,3.724,0,0,1,.633-2.246,1.991,1.991,0,0,1,1.651-.909,2.054,2.054,0,0,1,1.517.679,2.452,2.452,0,0,1,.654,1.777A3.947,3.947,0,0,1,19.924,18.625Z" transform="translate(-8.6 -6.5)" fill="#009cde"/>
</svg>
