<svg xmlns="http://www.w3.org/2000/svg" width="575.479" height="428.801" viewBox="0 0 575.479 428.801">
  <g id="File_searching-rafiki" data-name="File searching-rafiki" transform="translate(0 -55)">
    <g id="freepik--background-complete--inject-2" transform="translate(0 55)">
      <rect id="Retângulo_4397" data-name="Retângulo 4397" width="575.479" height="0.288" transform="translate(0 376.824)" fill="#ebebeb"/>
      <rect id="Retângulo_4398" data-name="Retângulo 4398" width="38.12" height="0.288" transform="translate(479.696 395.342)" fill="#ebebeb"/>
      <rect id="Retângulo_4399" data-name="Retângulo 4399" width="81.499" height="0.288" transform="translate(383.706 395.342)" fill="#ebebeb"/>
      <rect id="Retângulo_4400" data-name="Retângulo 4400" width="22.087" height="0.288" transform="translate(316.674 384.662)" fill="#ebebeb"/>
      <rect id="Retângulo_4401" data-name="Retângulo 4401" width="39.466" height="0.288" transform="translate(60.379 386.595)" fill="#ebebeb"/>
      <rect id="Retângulo_4402" data-name="Retângulo 4402" width="71.762" height="0.288" transform="translate(110.089 386.595)" fill="#ebebeb"/>
      <rect id="Retângulo_4403" data-name="Retângulo 4403" width="42.367" height="0.288" transform="translate(216.76 391.452)" fill="#ebebeb"/>
      <path id="Caminho_4526" data-name="Caminho 4526" d="M267.009,380.491H44.77a6.572,6.572,0,0,1-6.56-6.572V61.514A6.572,6.572,0,0,1,44.77,55H267.009a6.572,6.572,0,0,1,6.572,6.572V373.919A6.572,6.572,0,0,1,267.009,380.491ZM44.77,55.23A6.284,6.284,0,0,0,38.5,61.514v312.4A6.284,6.284,0,0,0,44.77,380.2H267.009a6.3,6.3,0,0,0,6.284-6.284V61.514a6.3,6.3,0,0,0-6.284-6.284Z" transform="translate(5.768 -55)" fill="#ebebeb"/>
      <path id="Caminho_4527" data-name="Caminho 4527" d="M483.322,380.491H261.072a6.583,6.583,0,0,1-6.572-6.572V61.514A6.583,6.583,0,0,1,261.072,55h222.25a6.572,6.572,0,0,1,6.549,6.514v312.4A6.572,6.572,0,0,1,483.322,380.491ZM261.072,55.23a6.3,6.3,0,0,0-6.284,6.284v312.4a6.3,6.3,0,0,0,6.284,6.284h222.25a6.3,6.3,0,0,0,6.284-6.284V61.514a6.3,6.3,0,0,0-6.284-6.284Z" transform="translate(38.419 -55)" fill="#ebebeb"/>
      <rect id="Retângulo_4404" data-name="Retângulo 4404" width="156.185" height="135.318" transform="translate(243.474 159.085) rotate(180)" fill="#e6e6e6"/>
      <rect id="Retângulo_4405" data-name="Retângulo 4405" width="156.185" height="135.318" transform="translate(239.986 159.085) rotate(180)" fill="#f5f5f5"/>
      <rect id="Retângulo_4406" data-name="Retângulo 4406" width="125.65" height="143.72" transform="translate(233.76 28.601) rotate(90)" fill="#fafafa"/>
      <path id="Caminho_4528" data-name="Caminho 4528" d="M160.165,205.5,186.211,79.85H131.725L105.69,205.5Z" transform="translate(15.955 -51.249)" fill="#fff"/>
      <rect id="Retângulo_4407" data-name="Retângulo 4407" width="125.65" height="2.624" transform="translate(92.664 28.613) rotate(90)" fill="#e6e6e6"/>
      <rect id="Retângulo_4408" data-name="Retângulo 4408" width="151.029" height="6.491" transform="translate(237.408 131.727) rotate(180)" fill="#f5f5f5"/>
      <rect id="Retângulo_4409" data-name="Retângulo 4409" width="24.941" height="108.155" transform="translate(261.164 369.975) rotate(180)" fill="#f0f0f0"/>
      <rect id="Retângulo_4410" data-name="Retângulo 4410" width="183.037" height="6.848" transform="translate(256.387 376.824) rotate(180)" fill="#f0f0f0"/>
      <rect id="Retângulo_4411" data-name="Retângulo 4411" width="167.671" height="108.155" transform="translate(68.551 261.808)" fill="#f5f5f5"/>
      <rect id="Retângulo_4412" data-name="Retângulo 4412" width="148.071" height="35.473" transform="translate(78.357 275.125)" fill="#f0f0f0"/>
      <rect id="Retângulo_4413" data-name="Retângulo 4413" width="148.071" height="35.473" transform="translate(78.357 321.186)" fill="#f0f0f0"/>
      <path id="Caminho_4529" data-name="Caminho 4529" d="M98.049,312.2h79.819a2.44,2.44,0,0,0,2.429-2.429h0a2.452,2.452,0,0,0-2.428-2.44H98.049a2.452,2.452,0,0,0-2.429,2.44h0a2.44,2.44,0,0,0,2.429,2.428Z" transform="translate(14.435 -16.909)" fill="#f5f5f5"/>
      <path id="Caminho_4530" data-name="Caminho 4530" d="M98.049,352.219h79.819a2.44,2.44,0,0,0,2.429-2.428h0a2.44,2.44,0,0,0-2.429-2.44H98.049a2.44,2.44,0,0,0-2.429,2.44h0a2.44,2.44,0,0,0,2.429,2.428Z" transform="translate(14.435 -10.868)" fill="#f5f5f5"/>
      <path id="Caminho_4531" data-name="Caminho 4531" d="M433.827,142.373c14.2-3.913,19.06-29.683-16.827-40.2C424.919,128.09,409.07,149.164,433.827,142.373Z" transform="translate(62.949 -47.879)" fill="#ebebeb"/>
      <path id="Caminho_4532" data-name="Caminho 4532" d="M439.56,150.874c11.2-12.1.61-39.466-39.72-28.279C422.652,142.553,420.051,171.971,439.56,150.874Z" transform="translate(60.359 -45.193)" fill="#e0e0e0"/>
      <path id="Caminho_4533" data-name="Caminho 4533" d="M425.135,153.52c-9.369-9.277,4.051-41.561,34.989-26.6C442.6,143.714,441.536,169.691,425.135,153.52Z" transform="translate(63.734 -44.731)" fill="#fafafa"/>
      <path id="Caminho_4534" data-name="Caminho 4534" d="M416.9,167.64h27.266l2.06-18.45H414.85Z" transform="translate(62.625 -40.781)" fill="#e6e6e6"/>
      <path id="Caminho_4535" data-name="Caminho 4535" d="M414.847,152.594h32a2.037,2.037,0,0,0,2.037-2.037h0a2.037,2.037,0,0,0-2.037-2.037h-32a2.037,2.037,0,0,0-2.037,2.037h0A2.037,2.037,0,0,0,414.847,152.594Z" transform="translate(62.317 -40.882)" fill="#e6e6e6"/>
      <path id="Caminho_4536" data-name="Caminho 4536" d="M220.725,383.936h0V352.688h26.023V321.451h26.035V290.2h26.023V258.954H324.84V227.717h26.023V196.468H376.9V165.22H546.089V415.185H194.69V383.936Z" transform="translate(29.39 -38.361)" fill="#fafafa"/>
      <path id="Caminho_4537" data-name="Caminho 4537" d="M345.1,383.936h0V352.688h26.035V321.451h26.023V290.2H423.2V258.954h26.023V227.717h26.035V196.468h26.023V165.22h26.035V415.185H319.08V383.936Z" transform="translate(48.168 -38.361)" fill="#e0e0e0"/>
      <rect id="Retângulo_4414" data-name="Retângulo 4414" width="144.698" height="9.369" transform="translate(222.549 345.575)" fill="#ebebeb"/>
      <rect id="Retângulo_4415" data-name="Retângulo 4415" width="144.698" height="9.369" transform="translate(248.584 314.327)" fill="#ebebeb"/>
      <rect id="Retângulo_4416" data-name="Retângulo 4416" width="144.698" height="9.369" transform="translate(274.607 283.09)" fill="#ebebeb"/>
      <rect id="Retângulo_4417" data-name="Retângulo 4417" width="144.698" height="9.369" transform="translate(300.642 251.841)" fill="#ebebeb"/>
      <rect id="Retângulo_4418" data-name="Retângulo 4418" width="144.698" height="9.369" transform="translate(326.665 220.593)" fill="#ebebeb"/>
      <rect id="Retângulo_4419" data-name="Retângulo 4419" width="144.698" height="9.369" transform="translate(352.699 189.356)" fill="#ebebeb"/>
      <rect id="Retângulo_4420" data-name="Retângulo 4420" width="144.698" height="9.369" transform="translate(378.723 158.107)" fill="#ebebeb"/>
      <rect id="Retângulo_4421" data-name="Retângulo 4421" width="144.698" height="9.369" transform="translate(404.757 126.859)" fill="#ebebeb"/>
    </g>
    <g id="freepik--Shadow--inject-2" transform="translate(64.58 457.743)">
      <ellipse id="freepik--path--inject-2" cx="223.159" cy="13.029" rx="223.159" ry="13.029" fill="#f5f5f5"/>
    </g>
    <g id="freepik--Character--inject-2" transform="translate(209.216 61.298)">
      <path id="Caminho_4538" data-name="Caminho 4538" d="M340.335,158.718c-.207,3.453-.61,6.618-1.059,9.9s-1.059,6.491-1.749,9.714a108.189,108.189,0,0,1-5.812,19.071l-1.047,2.3-.253.575-.092.3-.184.368a9.209,9.209,0,0,1-1.324,2,7.952,7.952,0,0,1-2.21,1.738,7.8,7.8,0,0,1-2.624.829,10.036,10.036,0,0,1-4.178-.437,20.337,20.337,0,0,1-5.34-2.762,42.067,42.067,0,0,1-4.086-3.28,94.381,94.381,0,0,1-13.006-14.882l3.81-3.234c2.3,2.129,4.6,4.282,6.906,6.319a91.639,91.639,0,0,0,7.159,5.755,37.987,37.987,0,0,0,3.637,2.3,12.662,12.662,0,0,0,3.246,1.393c.391.081.668,0,.541,0a1.266,1.266,0,0,0-.725.334q-.1,0,0,0l.368-.955.806-2.095a121.235,121.235,0,0,0,4.661-17.679c.61-3.016,1.036-6.089,1.5-9.139s.783-6.192,1.047-9.1Z" transform="translate(-164.325 -45.742)" fill="#ffc3bd"/>
      <path id="Caminho_4539" data-name="Caminho 4539" d="M329.6,147.713c-4.293,1.093-7.3,18.749-7.3,18.749l11.82,8.057s11.337-17.805,8.057-22.524C338.724,147.057,335.858,146.125,329.6,147.713Z" transform="translate(-160.562 -47.41)" fill="#407bff"/>
      <path id="Caminho_4540" data-name="Caminho 4540" d="M329.6,147.713c-4.293,1.093-7.3,18.749-7.3,18.749l11.82,8.057s11.337-17.805,8.057-22.524C338.724,147.057,335.858,146.125,329.6,147.713Z" transform="translate(-160.562 -47.41)" fill="#407bff"/>
      <path id="Caminho_4541" data-name="Caminho 4541" d="M329.6,147.713c-4.293,1.093-7.3,18.749-7.3,18.749l11.82,8.057s11.337-17.805,8.057-22.524C338.724,147.057,335.858,146.125,329.6,147.713Z" transform="translate(-160.562 -47.41)" opacity="0.4"/>
      <path id="Caminho_4542" data-name="Caminho 4542" d="M329.4,151.05l-3.292,17.782,6.641,4.512Z" transform="translate(-159.987 -46.799)" opacity="0.3"/>
      <path id="Caminho_4543" data-name="Caminho 4543" d="M302,178.455l-5.582-8.885-3.188,10.094s4.6,4.834,8.782,3.683Z" transform="translate(-164.95 -44.003)" fill="#ffc3bd"/>
      <path id="Caminho_4544" data-name="Caminho 4544" d="M289.09,167.02l-2.21,8.586,7.263,4.443,3.188-10.094Z" transform="translate(-165.909 -44.388)" fill="#ffc3bd"/>
      <path id="Caminho_4545" data-name="Caminho 4545" d="M350.257,408.911h-10.4l-.7-24.1h10.416Z" transform="translate(-158.018 -11.511)" fill="#ffc3bd"/>
      <path id="Caminho_4546" data-name="Caminho 4546" d="M432.011,365.874l-7.93,6.745L405.93,356.413l7.93-6.733Z" transform="translate(-147.937 -16.814)" fill="#ffc3bd"/>
      <path id="Caminho_4547" data-name="Caminho 4547" d="M420.328,370.1l7.7-8.816a.829.829,0,0,1,1.082-.15l7.838,5.076a1.669,1.669,0,0,1,.3,2.475c-2.739,3.027-4.212,4.351-7.6,8.218-2.072,2.383-4.869,6.089-7.746,9.369s-6.284.633-5.375-1c4.04-7.3,3.073-9.852,3.142-13.443a2.716,2.716,0,0,1,.656-1.727Z" transform="translate(-146.36 -15.105)" fill="#263238"/>
      <path id="Caminho_4548" data-name="Caminho 4548" d="M341.676,404.71H353.37a.829.829,0,0,1,.829.714l1.335,9.208a1.669,1.669,0,0,1-1.715,1.922c-4.074-.069-6.042-.311-11.187-.311-3.165,0-9.7.334-14.076.334s-4.6-4.328-2.774-4.707c8.149-1.761,11.36-4.178,14.111-6.491a2.716,2.716,0,0,1,1.784-.668Z" transform="translate(-160.199 -8.507)" fill="#263238"/>
      <path id="Caminho_4549" data-name="Caminho 4549" d="M339.16,384.82l.357,12.419h10.4l-.357-12.419Z" transform="translate(-158.017 -11.509)" opacity="0.2"/>
      <path id="Caminho_4550" data-name="Caminho 4550" d="M413.872,349.68l-7.942,6.733,9.369,8.356,7.93-6.745Z" transform="translate(-147.937 -16.814)" opacity="0.2"/>
      <path id="Caminho_4551" data-name="Caminho 4551" d="M328.8,148.015s-4.961,1.749,4.972,62.819h42.263c-.7-17.207-.725-27.819,7.493-63.118a125.857,125.857,0,0,0-17.943-2.371,135.059,135.059,0,0,0-19.2,0C338.148,146.15,328.8,148.015,328.8,148.015Z" transform="translate(-159.767 -47.712)" fill="#407bff"/>
      <path id="Caminho_4552" data-name="Caminho 4552" d="M328.8,148.015s-4.961,1.749,4.972,62.819h42.263c-.7-17.207-.725-27.819,7.493-63.118a125.857,125.857,0,0,0-17.943-2.371,135.059,135.059,0,0,0-19.2,0C338.148,146.15,328.8,148.015,328.8,148.015Z" transform="translate(-159.767 -47.712)" opacity="0.4"/>
      <path id="Caminho_4553" data-name="Caminho 4553" d="M363.642,145.345a135.059,135.059,0,0,0-19.2,0c-1.036.092-2.095.207-3.142.334a5.122,5.122,0,0,0-.575,4.489c1.347,3.349,6.2,3.741,9.749,3.741,13.086,0,15.3-7.642,15.388-7.965l.127-.46C365.253,145.437,364.424,145.379,363.642,145.345Z" transform="translate(-157.822 -47.712)" fill="#fff"/>
      <path id="Caminho_4554" data-name="Caminho 4554" d="M361.5,126.53c-1.22,6.169-2.417,17.483,1.9,21.6,0,0-1.692,6.273-13.167,6.273-12.661,0-6.031-6.261-6.031-6.261,6.906-1.646,6.71-6.756,5.513-11.51Z" transform="translate(-157.518 -50.5)" fill="#ffc3bd"/>
      <path id="Caminho_4555" data-name="Caminho 4555" d="M355.685,130.09l-6.975,5.95a19.961,19.961,0,0,1,.6,3.453c2.624-.38,6.238-3.269,6.526-6.02A9.14,9.14,0,0,0,355.685,130.09Z" transform="translate(-156.575 -49.963)" opacity="0.2"/>
      <path id="Caminho_4556" data-name="Caminho 4556" d="M352.809,101.744c-1.07-3.626-1.968-9.334,4.477-11.912-2.521-3.085-3.131-8.885,0-12.327s7.826-2.175,7.826-2.175,1.381-8.413,11.613-6.906,5.674,8.241,5.674,8.241,13.961-2.762,14.893,10.359-7.078,11.51-7.078,11.51,6.227,5.225,2.774,10.969-11.429,3.764-11.429,3.764-3.752,10.151-12.591,4.374S352.809,101.744,352.809,101.744Z" transform="translate(-156.07 -59.299)" fill="#263238"/>
      <path id="Caminho_4557" data-name="Caminho 4557" d="M334.959,104.884c-3.453,4.466-1.934,9.518,1.151,11.51,7.424,4.742,18.162-15.147,15.365-17.529S338.412,100.407,334.959,104.884Z" transform="translate(-158.949 -54.785)" fill="#263238"/>
      <path id="Caminho_4558" data-name="Caminho 4558" d="M363.352,94.862c-4.88-1.968-9.829.092-11.372,3.062-3.764,7.24,13.328,20.28,18.277,11.233C373.193,103.782,368.382,96.887,363.352,94.862Z" transform="translate(-156.162 -55.398)" fill="#407bff"/>
      <path id="Caminho_4559" data-name="Caminho 4559" d="M363.807,115.806c.357,10.359.725,14.686-3.959,20.453-7.032,8.667-19.8,6.848-23.226-3.165-3.085-9.012-3.142-24.377,6.514-29.418a14.088,14.088,0,0,1,20.671,12.131Z" transform="translate(-158.678 -54.197)" fill="#ffc3bd"/>
      <path id="Caminho_4560" data-name="Caminho 4560" d="M362.094,122.213c-4.6-1.715-5.755-7.09-5.018-9.208-2.3-.092-7.332-.921-9.208-3.775-3.591,2.3-11.176,4.6-11.993.771S346.5,96.317,355.154,95.557c10.29-.9,20.441,9.208,17.828,18.887S362.094,122.213,362.094,122.213Z" transform="translate(-158.519 -55.184)" fill="#263238"/>
      <path id="Caminho_4561" data-name="Caminho 4561" d="M333.992,202.2s-8.206,80.164-7.527,111.908c.714,33.009,12.81,108.294,12.81,108.294H353.34s-2.221-73.362-.978-105.773c1.358-35.346,12.58-114.428,12.58-114.428Z" transform="translate(-159.939 -39.077)" fill="#263238"/>
      <path id="Caminho_4562" data-name="Caminho 4562" d="M353.155,394.734h-16.5l-1.22-5.26,18.5-.645Z" transform="translate(-158.58 -10.904)" fill="#407bff"/>
      <path id="Caminho_4563" data-name="Caminho 4563" d="M349.459,220.18c-10.359,20.878-2.083,58.975,1.588,73.155,1.876-21.293,5.053-47.316,7.527-66.422C357.01,216.117,354.293,210.547,349.459,220.18Z" transform="translate(-157.221 -37.111)" opacity="0.2"/>
      <path id="Caminho_4564" data-name="Caminho 4564" d="M342.66,202.2s9.576,83.341,16.8,110.1c8.586,31.766,61.91,74.525,61.91,74.525l10.819-9.208s-38.649-46.453-45.221-63.188c-14.007-35.68-2.014-88.946-13.213-112.253Z" transform="translate(-157.488 -39.08)" fill="#263238"/>
      <path id="Caminho_4565" data-name="Caminho 4565" d="M424.368,354.952l-13.42,11.394-5.018-3,15.181-14.122Z" transform="translate(-147.937 -16.883)" fill="#407bff"/>
      <path id="Caminho_4566" data-name="Caminho 4566" d="M346.953,117.946c.081.84-.3,1.554-.84,1.611s-1.059-.587-1.151-1.416.3-1.565.852-1.611S346.872,117.071,346.953,117.946Z" transform="translate(-157.143 -52.01)" fill="#263238"/>
      <path id="Caminho_4567" data-name="Caminho 4567" d="M338.755,118.736c.081.829-.3,1.554-.852,1.611s-1.047-.587-1.151-1.427.3-1.554.84-1.6S338.674,117.9,338.755,118.736Z" transform="translate(-158.383 -51.891)" fill="#263238"/>
      <path id="Caminho_4568" data-name="Caminho 4568" d="M337.98,117.391,335.92,117S337.163,118.473,337.98,117.391Z" transform="translate(-158.506 -51.939)" fill="#263238"/>
      <path id="Caminho_4569" data-name="Caminho 4569" d="M341.093,119.59a22.455,22.455,0,0,1-2.463,5.617,3.649,3.649,0,0,0,3.039.276Z" transform="translate(-158.097 -51.548)" fill="#ed847e"/>
      <path id="Caminho_4570" data-name="Caminho 4570" d="M345.518,127.556a8.114,8.114,0,0,1-1.393.253.242.242,0,0,1-.265-.219.253.253,0,0,1,.219-.276,6.676,6.676,0,0,0,5.156-3.1.23.23,0,0,1,.334-.1.253.253,0,0,1,.1.334A6.906,6.906,0,0,1,345.518,127.556Z" transform="translate(-157.307 -50.87)" fill="#263238"/>
      <path id="Caminho_4571" data-name="Caminho 4571" d="M363.052,120.735a7.55,7.55,0,0,1-2.854,5.007c-2.106,1.611-4.132,0-4.374-2.521-.207-2.3.622-5.755,3.131-6.422a3.453,3.453,0,0,1,4.1,3.936Z" transform="translate(-155.506 -51.98)" fill="#ffc3bd"/>
      <path id="Caminho_4572" data-name="Caminho 4572" d="M348.179,112.838a.5.5,0,0,1-.38-.058,3.925,3.925,0,0,0-3.545-.345.518.518,0,0,1-.667-.23.5.5,0,0,1,.23-.656,4.892,4.892,0,0,1,4.489.391.483.483,0,0,1,.161.668A.506.506,0,0,1,348.179,112.838Z" transform="translate(-157.356 -52.818)" fill="#263238"/>
      <path id="Caminho_4573" data-name="Caminho 4573" d="M334.551,115.544a.518.518,0,0,1-.368,0,.506.506,0,0,1-.2-.668,4.869,4.869,0,0,1,3.649-2.636.483.483,0,0,1,.529.449.5.5,0,0,1-.449.529,3.936,3.936,0,0,0-2.866,2.118A.449.449,0,0,1,334.551,115.544Z" transform="translate(-158.806 -52.658)" fill="#263238"/>
      <path id="Caminho_4574" data-name="Caminho 4574" d="M381.828,157.11a166.879,166.879,0,0,1,6.065,17.575,110.378,110.378,0,0,1,3.821,18.415c.2,1.588.253,3.257.322,4.9v.932a6.533,6.533,0,0,1-.1.978,14.408,14.408,0,0,1-.391,1.7,16.757,16.757,0,0,1-1.151,2.774,40.5,40.5,0,0,1-5.824,8.16,100,100,0,0,1-13.811,12.58l-3.326-3.695a173.883,173.883,0,0,0,10.98-13.811,37.531,37.531,0,0,0,4.028-6.906,10.76,10.76,0,0,0,.46-1.45,3.555,3.555,0,0,0,.058-.506.623.623,0,0,0,0-.15h0v-.161c-.15-1.358-.253-2.716-.506-4.109a125.734,125.734,0,0,0-4.132-16.792c-1.761-5.571-3.729-11.222-5.755-16.608Z" transform="translate(-153.749 -45.884)" fill="#ffc3bd"/>
      <path id="Caminho_4575" data-name="Caminho 4575" d="M377.72,147.391c4.236,1.289,9.323,15.872,9.323,15.872L370.6,175s-6-12.166-4.213-17.644C368.294,151.661,372.9,145.917,377.72,147.391Z" transform="translate(-153.957 -47.386)" fill="#407bff"/>
      <path id="Caminho_4576" data-name="Caminho 4576" d="M377.72,147.391c4.236,1.289,9.323,15.872,9.323,15.872L370.6,175s-6-12.166-4.213-17.644C368.294,151.661,372.9,145.917,377.72,147.391Z" transform="translate(-153.957 -47.386)" opacity="0.4"/>
      <path id="Caminho_4577" data-name="Caminho 4577" d="M417.515,373.771a1.416,1.416,0,0,1-1.093-.564.852.852,0,0,1-.207-.829c.391-1.266,4.005-2.3,4.42-2.417a.219.219,0,0,1,.253.081.242.242,0,0,1,0,.265c-.645,1.232-1.922,3.3-3.234,3.453Zm2.67-3.165c-1.427.46-3.292,1.255-3.453,1.922a.357.357,0,0,0,.1.357.921.921,0,0,0,.829.391C418.332,373.2,419.264,372.206,420.185,370.606Z" transform="translate(-146.39 -13.754)" fill="#407bff"/>
      <path id="Caminho_4578" data-name="Caminho 4578" d="M419.09,370.889a4.259,4.259,0,0,1-3.016-.852.863.863,0,0,1,0-1.07,1.266,1.266,0,0,1,.932-.575c1.5-.184,3.764,1.772,3.856,1.853a.253.253,0,0,1-.081.426A5.754,5.754,0,0,1,419.09,370.889Zm-1.83-2.014H417.1a.817.817,0,0,0-.587.357c-.173.265-.115.4,0,.495.449.587,2.5.806,3.741.575a6.25,6.25,0,0,0-2.992-1.427Z" transform="translate(-146.434 -13.991)" fill="#407bff"/>
      <path id="Caminho_4579" data-name="Caminho 4579" d="M336.44,406.63a3.89,3.89,0,0,1-2.521-.645,1.393,1.393,0,0,1-.449-1.151.806.806,0,0,1,.426-.656c1.278-.7,5.421,1.416,5.893,1.669a.253.253,0,0,1,.127.253.242.242,0,0,1-.2.207,18.039,18.039,0,0,1-3.28.322Zm-1.853-2.152a.91.91,0,0,0-.46.092.288.288,0,0,0-.161.265.9.9,0,0,0,.288.783c.633.576,2.3.668,4.6.288A13.248,13.248,0,0,0,334.587,404.478Z" transform="translate(-158.876 -8.608)" fill="#407bff"/>
      <path id="Caminho_4580" data-name="Caminho 4580" d="M339.329,406.616h-.1c-1.243-.564-3.695-2.808-3.453-3.982,0-.276.242-.633.921-.7a1.819,1.819,0,0,1,1.37.426c1.3,1.093,1.542,3.89,1.554,4.017a.241.241,0,0,1-.1.219.219.219,0,0,1-.184.023Zm-2.486-4.224H336.7c-.46,0-.483.23-.495.288-.115.7,1.554,2.475,2.82,3.234a5.755,5.755,0,0,0-1.335-3.211,1.312,1.312,0,0,0-.852-.345Z" transform="translate(-158.531 -8.928)" fill="#407bff"/>
      <path id="Caminho_4581" data-name="Caminho 4581" d="M376.028,200.041l1.082,3.787c.15.288-.2.587-.691.587H332.925c-.38,0-.7-.184-.725-.426l-.38-3.775c0-.265.3-.483.725-.483h42.8a.76.76,0,0,1,.679.311Z" transform="translate(-159.125 -39.45)" fill="#407bff"/>
      <path id="Caminho_4582" data-name="Caminho 4582" d="M376.028,200.041l1.082,3.787c.15.288-.2.587-.691.587H332.925c-.38,0-.7-.184-.725-.426l-.38-3.775c0-.265.3-.483.725-.483h42.8a.76.76,0,0,1,.679.311Z" transform="translate(-159.125 -39.45)" fill="#fff" opacity="0.3"/>
      <path id="Caminho_4583" data-name="Caminho 4583" d="M365.369,204.914h1.151c.219,0,.391-.115.38-.265l-.541-4.915c0-.138-.207-.265-.437-.265H364.77c-.23,0-.4.127-.38.265l.529,4.915C364.943,204.8,365.092,204.914,365.369,204.914Z" transform="translate(-154.208 -39.489)" fill="#263238"/>
      <path id="Caminho_4584" data-name="Caminho 4584" d="M335.708,204.914h1.151c.23,0,.4-.115.391-.265l-.541-4.915c0-.138-.219-.265-.437-.265h-1.151c-.23,0-.4.127-.391.265l.541,4.915C335.283,204.8,335.478,204.914,335.708,204.914Z" transform="translate(-158.686 -39.489)" fill="#263238"/>
      <path id="Caminho_4585" data-name="Caminho 4585" d="M350.537,204.914h1.151c.23,0,.4-.115.391-.265l-.541-4.915c0-.138-.207-.265-.437-.265H349.95c-.23,0-.4.127-.38.265l.495,4.949C350.065,204.8,350.307,204.914,350.537,204.914Z" transform="translate(-156.446 -39.489)" fill="#263238"/>
      <path id="Caminho_4586" data-name="Caminho 4586" d="M346.19,116.6l-2.06-.391S345.3,117.683,346.19,116.6Z" transform="translate(-157.266 -52.058)" fill="#263238"/>
      <path id="Caminho_4587" data-name="Caminho 4587" d="M331.721,270.7a105.773,105.773,0,1,1,60.287-136.906A105.773,105.773,0,0,1,331.721,270.7Z" transform="translate(-180.894 -59.592)" fill="#407bff" opacity="0.2"/>
      <path id="Caminho_4588" data-name="Caminho 4588" d="M310.285,68.082,227.324,256.494c-1.278-.967-2.544-1.968-3.787-2.981A104.517,104.517,0,0,1,202.82,230.39h0L274.479,67.645a104.668,104.668,0,0,1,35.806.437Z" transform="translate(-178.598 -59.59)" fill="#fff" opacity="0.1"/>
      <path id="Caminho_4589" data-name="Caminho 4589" d="M363.789,99.81l-78,177.144a105.635,105.635,0,0,1-46.729-10.842L324.231,72.67a105.888,105.888,0,0,1,39.558,27.14Z" transform="translate(-173.128 -58.631)" fill="#fff" opacity="0.1"/>
      <path id="Caminho_4590" data-name="Caminho 4590" d="M207.217,101.732a112.518,112.518,0,1,1,15.814,158.337,112.518,112.518,0,0,1-15.814-158.337ZM374.244,238.419a103.31,103.31,0,1,0-145.389,14.537,103.31,103.31,0,0,0,145.389-14.537Z" transform="translate(-181.775 -60.472)" fill="#407bff"/>
      <path id="Caminho_4591" data-name="Caminho 4591" d="M358.959,214.866c11.084,6.618,21.626,13.892,31.985,21.4S411.4,251.581,421.329,259.6s19.681,16.275,29.085,24.941q7.067,6.491,13.811,13.328c4.512,4.6,8.943,9.208,13.121,14.2a6.48,6.48,0,0,1-8.057,9.852c-5.755-3.108-11.141-6.537-16.516-10.048s-10.623-7.17-15.8-10.934c-10.359-7.5-20.383-15.411-30.2-23.572s-19.486-16.5-28.889-25.183-18.622-17.564-27.3-27.117a6.664,6.664,0,0,1,8.356-10.209Z" transform="translate(-156.557 -37.31)" fill="#407bff"/>
      <path id="Caminho_4592" data-name="Caminho 4592" d="M369.848,212l-11.118,1.692,7.953,6.975s6.284-2.3,6.906-6.56Z" transform="translate(-155.063 -37.598)" fill="#ffc3bd"/>
      <path id="Caminho_4593" data-name="Caminho 4593" d="M353.51,219.855l6.986,5.479,8.529-5.571-9.507-6.273Z" transform="translate(-155.851 -37.373)" fill="#ffc3bd"/>
    </g>
    <g id="freepik--Folder--inject-2" transform="translate(94.047 243.757)">
      <path id="Caminho_4594" data-name="Caminho 4594" d="M337.317,230.808h0a14.617,14.617,0,0,1,13.478-9.588h92.134a10.888,10.888,0,0,1,11.187,12.407l-23.8,199.7a14.479,14.479,0,0,1-14.122,12.35H123.849a10.865,10.865,0,0,1-11.176-12.35l19.958-167.787a14.479,14.479,0,0,1,14.122-12.35H305.839A34.149,34.149,0,0,0,337.317,230.808Z" transform="translate(-77.054 -218.666)" fill="#407bff"/>
      <path id="Caminho_4595" data-name="Caminho 4595" d="M117.23,435.208H422.706l17.4-205.538H134.644Z" transform="translate(-76.35 -217.389)" fill="#f0f0f0"/>
      <path id="Caminho_4596" data-name="Caminho 4596" d="M117.23,435.208H422.706L435.3,229.67H134.644Z" transform="translate(-76.35 -217.389)" fill="#e0e0e0"/>
      <path id="Caminho_4597" data-name="Caminho 4597" d="M117.23,436.064H422.706L433.2,224H127.738Z" transform="translate(-76.35 -218.245)" fill="#f0f0f0"/>
      <path id="Caminho_4598" data-name="Caminho 4598" d="M117.23,436.064H422.706L426.861,224H127.738Z" transform="translate(-76.35 -218.245)" fill="#e0e0e0"/>
      <path id="Caminho_4599" data-name="Caminho 4599" d="M117.23,436.819H422.706L424.524,219H119.06Z" transform="translate(-76.35 -219)" fill="#f0f0f0"/>
      <path id="Caminho_4600" data-name="Caminho 4600" d="M117.793,436.278H423.269L417,222.58H113.5Z" transform="translate(-76.913 -218.46)" fill="#e0e0e0"/>
      <path id="Caminho_4601" data-name="Caminho 4601" d="M118.418,436.064H423.894L414.824,224H109.36Z" transform="translate(-77.538 -218.245)" fill="#f0f0f0"/>
      <path id="Caminho_4602" data-name="Caminho 4602" d="M119.123,435.644H424.6L410.154,226.78H104.69Z" transform="translate(-78.243 -217.826)" fill="#e0e0e0"/>
      <path id="Caminho_4603" data-name="Caminho 4603" d="M119.425,435.41H424.9L408.154,228.33H102.69Z" transform="translate(-78.545 -217.592)" fill="#f0f0f0"/>
      <path id="Caminho_4604" data-name="Caminho 4604" d="M275.565,242.109h0a9.956,9.956,0,0,1,10.416-9.818h92.134a16.113,16.113,0,0,1,15.124,12.661l36.4,186.455c1.358,6.986-3.2,12.661-10.186,12.661H127.115c-7,0-13.811-5.674-15.135-12.661L81.951,277.7c-1.358-6.986,3.2-12.661,10.186-12.661h159.1C265.046,265.036,275.094,255.529,275.565,242.109Z" transform="translate(-81.712 -216.995)" fill="#407bff"/>
      <path id="Caminho_4605" data-name="Caminho 4605" d="M275.565,242.109h0a9.956,9.956,0,0,1,10.416-9.818h92.134a16.113,16.113,0,0,1,15.124,12.661l36.4,186.455c1.358,6.986-3.2,12.661-10.186,12.661H127.115c-7,0-13.811-5.674-15.135-12.661L81.951,277.7c-1.358-6.986,3.2-12.661,10.186-12.661h159.1C265.046,265.036,275.094,255.529,275.565,242.109Z" transform="translate(-81.712 -216.995)" opacity="0.2"/>
    </g>
  </g>
</svg>
