<svg xmlns="http://www.w3.org/2000/svg" width="44.185" height="44.186" viewBox="0 0 44.185 44.186">
  <g id="ball" transform="translate(0.25 0.25)">
    <path id="Caminho_2587" data-name="Caminho 2587" d="M40.32,9.434A21.809,21.809,0,0,0,22.342,0Q21.3,0,20.274.1a21.584,21.584,0,0,0-4.684.968c-.435.142-.866.3-1.291.464A21.85,21.85,0,0,0,.5,21.842c0,.348.009.7.026,1.059a21.868,21.868,0,0,0,.6,4.148c.084.342.177.681.277,1.018q.187.632.411,1.251a21.793,21.793,0,0,0,5.047,7.934,22.065,22.065,0,0,0,2.267,1.983h0a21.848,21.848,0,0,0,26.366.05q.717-.542,1.383-1.135a21.8,21.8,0,0,0,7.267-14.932h0c.028-.452.043-.915.043-1.374A21.712,21.712,0,0,0,40.32,9.434ZM42.4,23.583a20.031,20.031,0,0,1-.521,3.131,20.864,20.864,0,0,1-1.061,3.134,20.233,20.233,0,0,1-1.467,2.77,19.359,19.359,0,0,1-2,2.644,20.079,20.079,0,0,1-2.289,2.187q-.15.122-.3.242L25.2,35.775a2.694,2.694,0,0,1-2.159-2.634V24.959a4.574,4.574,0,0,1,2.085-3.846l.526-.342h0l4.364-2.842,2.2-1.434a2.672,2.672,0,0,1,3.341.327L42.409,23.5c0,.029,0,.057-.006.086ZM21.336,33.141h0a2.694,2.694,0,0,1-2.159,2.634L9.86,37.643A20.6,20.6,0,0,1,5.7,33.178c-.332-.48-.638-.979-.924-1.488q-.121-.216-.237-.435l-.018-.033q-.124-.236-.242-.475A20.09,20.09,0,0,1,2.44,24.912q-.131-.854-.188-1.717L8.8,16.717a2.7,2.7,0,0,1,3.375-.328l7.106,4.717a4.578,4.578,0,0,1,2.051,3.823ZM22.811,1.711a20.292,20.292,0,0,1,5.163.793c.483.139.961.3,1.432.476l.828,2.438a.853.853,0,1,0,1.616-.549l-.324-.954A20.139,20.139,0,0,1,42.467,21.17L36.752,15.6a4.381,4.381,0,0,0-2.764-1.243,4.386,4.386,0,0,0,.064-3l-.149-.439a.853.853,0,1,0-1.616.549l.149.439a2.685,2.685,0,0,1-1.078,3.115L29.086,16.5l-4.364,2.842a4.587,4.587,0,0,1-5.042-.022l-6.62-4.394a2.676,2.676,0,0,1-1.033-3.173L15.28,2.98a19.835,19.835,0,0,1,5.788-1.233c.58-.034,1.161-.048,1.742-.035ZM5.772,10.4A20.13,20.13,0,0,1,13.1,3.946l-2.675,7.214a4.381,4.381,0,0,0,.008,3.088A4.39,4.39,0,0,0,7.6,15.5L2.232,20.816A20,20,0,0,1,5.772,10.4ZM11.788,39l7.724-1.548a4.39,4.39,0,0,0,2.677-1.713,4.389,4.389,0,0,0,2.677,1.713l7.956,1.594A20.164,20.164,0,0,1,11.788,39Zm0,0" transform="translate(-0.499 0)" fill="#009cde" stroke="#009cde" stroke-width="0.5"/>
    <path id="Caminho_2588" data-name="Caminho 2588" d="M361.575,88.139a.853.853,0,1,0-.831-.663A.868.868,0,0,0,361.575,88.139Zm0,0" transform="translate(-329.987 -79.062)" fill="#009cde" stroke="#009cde" stroke-width="0.5"/>
  </g>
</svg>
