<svg xmlns="http://www.w3.org/2000/svg" width="47.232" height="49.682" viewBox="0 0 47.232 49.682">
  <g id="iconfinder_balloons__celebrations__balloon__3653408" transform="translate(0.5 0.5)">
    <g id="Grupo_905" data-name="Grupo 905" transform="translate(0 0)">
      <g id="Grupo_898" data-name="Grupo 898" transform="translate(17.25 0)">
        <path id="Caminho_2518" data-name="Caminho 2518" d="M211.8,45.257c-7.99,0-14.491-7.52-14.491-16.764s6.5-16.766,14.491-16.766a13.486,13.486,0,0,1,10.246,4.949A18.048,18.048,0,0,1,226.3,28.493a18.045,18.045,0,0,1-4.245,11.816A13.486,13.486,0,0,1,211.8,45.257Zm0-32.634c-7.5,0-13.6,7.119-13.6,15.87s6.1,15.868,13.6,15.868,13.6-7.118,13.6-15.868S219.3,12.623,211.8,12.623Z" transform="translate(-197.313 -11.727)" fill="#009cde" stroke="#009cde" stroke-width="1"/>
      </g>
      <g id="Grupo_899" data-name="Grupo 899" transform="translate(27.737 32.576)">
        <path id="Caminho_2519" data-name="Caminho 2519" d="M310.161,343.571h-7.053a.448.448,0,0,1-.388-.672l2.157-3.731a.448.448,0,0,1,.442-.219,10.846,10.846,0,0,0,1.344.055,9.687,9.687,0,0,0,1.278-.054.447.447,0,0,1,.45.218l.408.7,1.749,3.031a.448.448,0,0,1-.388.672Zm-6.277-.9h5.5l-1.621-2.805c-.356.029-.733.029-1.1.029s-.764,0-1.157-.031l-.262.451Z" transform="translate(-302.66 -338.944)" fill="#009cde" stroke="#009cde" stroke-width="1"/>
      </g>
      <g id="Grupo_900" data-name="Grupo 900" transform="translate(31.293 3.032)">
        <path id="Caminho_2520" data-name="Caminho 2520" d="M350.186,56.361a.448.448,0,0,1-.448-.448c0-7.079-4.9-12.838-10.915-12.838a.448.448,0,0,1,0-.9,10.973,10.973,0,0,1,8.382,4.046,14.868,14.868,0,0,1,3.429,9.688A.448.448,0,0,1,350.186,56.361Z" transform="translate(-338.375 -42.179)" fill="#009cde" stroke="#009cde" stroke-width="1"/>
      </g>
      <g id="Grupo_901" data-name="Grupo 901" transform="translate(0 0)">
        <path id="Caminho_2521" data-name="Caminho 2521" d="M38.477,45.258a13.414,13.414,0,0,1-10.24-4.927,18.134,18.134,0,0,1-4.194-11.837,18.138,18.138,0,0,1,4.194-11.838A13.114,13.114,0,0,1,47.46,15.282a.448.448,0,0,1,0,.667A16.723,16.723,0,0,0,42.19,28.494a16.73,16.73,0,0,0,5.269,12.545.448.448,0,0,1,0,.666A13.443,13.443,0,0,1,38.477,45.258Zm0-32.634c-7.464,0-13.537,7.119-13.537,15.87s6.073,15.868,13.537,15.868a12.492,12.492,0,0,0,8.013-3,17.724,17.724,0,0,1-5.2-12.869,17.719,17.719,0,0,1,5.2-12.869A12.491,12.491,0,0,0,38.477,12.624Z" transform="translate(-24.044 -11.728)" fill="#009cde" stroke="#009cde" stroke-width="1"/>
      </g>
      <g id="Grupo_902" data-name="Grupo 902" transform="translate(10.488 32.576)">
        <path id="Caminho_2522" data-name="Caminho 2522" d="M136.893,343.571H129.84a.448.448,0,0,1-.388-.672l2.157-3.731a.447.447,0,0,1,.443-.219,10,10,0,0,0,1.286.055,10.812,10.812,0,0,0,1.344-.055.449.449,0,0,1,.443.219l.407.7,1.749,3.031a.448.448,0,0,1-.388.672Zm-6.277-.9h5.5l-1.622-2.807c-.392.031-.78.031-1.157.031s-.726,0-1.1-.031l-.262.45Z" transform="translate(-129.392 -338.945)" fill="#009cde" stroke="#009cde" stroke-width="1"/>
      </g>
      <g id="Grupo_903" data-name="Grupo 903" transform="translate(12.987 38.812)">
        <path id="Caminho_2523" data-name="Caminho 2523" d="M158.275,411.453l-.052,0a.448.448,0,0,1-.393-.5,9.416,9.416,0,0,1,.383-1.692c.383-1.281.541-1.812-1.68-3.113-1.324-.786-2.007-1.646-2.034-2.559a2.484,2.484,0,0,1,1.078-1.929.448.448,0,0,1,.5.742,1.6,1.6,0,0,0-.685,1.166c.019.576.57,1.2,1.593,1.808,2.689,1.576,2.543,2.6,2.083,4.142a8.694,8.694,0,0,0-.351,1.539A.448.448,0,0,1,158.275,411.453Z" transform="translate(-154.497 -401.583)" fill="#009cde" stroke="#009cde" stroke-width="1"/>
      </g>
      <g id="Grupo_904" data-name="Grupo 904" transform="translate(29.68 38.812)">
        <path id="Caminho_2524" data-name="Caminho 2524" d="M325.921,411.454l-.052,0a.448.448,0,0,1-.393-.5,9.413,9.413,0,0,1,.383-1.692c.383-1.281.541-1.812-1.68-3.113-1.307-.789-1.981-1.65-2.009-2.562a2.48,2.48,0,0,1,1.049-1.924.448.448,0,0,1,.511.736,1.591,1.591,0,0,0-.664,1.165c.021.579.564,1.206,1.571,1.814,2.686,1.574,2.541,2.6,2.08,4.14a8.676,8.676,0,0,0-.351,1.539A.448.448,0,0,1,325.921,411.454Z" transform="translate(-322.169 -401.584)" fill="#009cde" stroke="#009cde" stroke-width="1"/>
      </g>
    </g>
  </g>
</svg>
