<svg xmlns="http://www.w3.org/2000/svg" width="44.119" height="44.561" viewBox="0 0 44.119 44.561">
  <g id="barbell" transform="translate(0.25 0.471)">
    <g id="Grupo_893" data-name="Grupo 893" transform="translate(25.607 16.308)">
      <g id="Grupo_892" data-name="Grupo 892">
        <path id="Caminho_2503" data-name="Caminho 2503" d="M302.03,191.677a.852.852,0,1,0,0,1.2A.853.853,0,0,0,302.03,191.677Z" transform="translate(-300.575 -191.428)" fill="#009cde" stroke="#009cde" stroke-width="0.5"/>
      </g>
    </g>
    <g id="Grupo_895" data-name="Grupo 895" transform="translate(0 0)">
      <g id="Grupo_894" data-name="Grupo 894" transform="translate(0 0)">
        <path id="Caminho_2504" data-name="Caminho 2504" d="M42.62,16.662l-1.2-1.2a4.263,4.263,0,0,0,.1-6.127l-.6-.6.6-.6A4.259,4.259,0,1,0,35.5,2.1l-.6.6-.6-.6a4.256,4.256,0,0,0-6.024,0l-.1.1L26.958,1a3.408,3.408,0,1,0-4.819,4.819l4.819,4.819L10.637,26.959,5.818,22.141A3.408,3.408,0,1,0,1,26.96l1.2,1.2-.1.1a4.256,4.256,0,0,0,0,6.024l.6.6-.6.6A4.259,4.259,0,1,0,8.124,41.52l.6-.6.6.6a4.256,4.256,0,0,0,6.024,0l.1-.1,1.2,1.2A3.408,3.408,0,0,0,21.48,37.8l-4.819-4.819L32.982,16.662,37.8,21.481a3.408,3.408,0,1,0,4.819-4.819ZM36.7,3.306A2.555,2.555,0,0,1,40.313,6.92l-.6.6L36.1,3.909Zm-7.229,0a2.553,2.553,0,0,1,3.614,0l7.229,7.229a2.553,2.553,0,0,1,0,3.614l-.1.1L29.368,3.409ZM6.919,40.315A2.555,2.555,0,1,1,3.305,36.7l.6-.6,3.614,3.614Zm7.229,0a2.553,2.553,0,0,1-3.614,0L3.305,33.086a2.553,2.553,0,0,1,0-3.614l.1-.1L14.251,40.212Zm6.127-1.307a1.7,1.7,0,0,1-2.41,2.409L2.2,25.755a1.7,1.7,0,1,1,2.409-2.41Zm-4.819-7.229-3.614-3.614L28.163,11.843l3.614,3.614Zm25.959-11.5a1.7,1.7,0,0,1-2.408,0L23.344,4.614A1.7,1.7,0,0,1,25.754,2.2L41.415,17.866A1.7,1.7,0,0,1,41.415,20.277Z" transform="translate(0 -0.001)" fill="#009cde" stroke="#009cde" stroke-width="0.5"/>
      </g>
    </g>
    <g id="Grupo_897" data-name="Grupo 897" transform="translate(16.308 18.718)">
      <g id="Grupo_896" data-name="Grupo 896">
        <path id="Caminho_2505" data-name="Caminho 2505" d="M199.766,219.961a.852.852,0,0,0-1.2,0l-6.889,6.889a.852.852,0,0,0,1.2,1.2l6.889-6.889A.852.852,0,0,0,199.766,219.961Z" transform="translate(-191.422 -219.711)" fill="#009cde" stroke="#009cde" stroke-width="0.5"/>
      </g>
    </g>
  </g>
</svg>
