<svg xmlns="http://www.w3.org/2000/svg" width="51.484" height="53.527" viewBox="0 0 51.484 53.527">
  <g id="iconfinder_basketballsporteducationplayground_4332306" transform="translate(0.097 0.252)">
    <g id="Grupo_907" data-name="Grupo 907" transform="translate(4.5 23.227)">
      <g id="Grupo_906" data-name="Grupo 906">
        <path id="Caminho_2525" data-name="Caminho 2525" d="M148.545,285.9H103.691c-1.288,0-1.288,1.459,0,1.459h44.855c1.288,0,1.288-1.459,0-1.459Z" transform="translate(-102.725 -285.9)" fill="#009cde" stroke="#009cde" stroke-width="0.2"/>
      </g>
    </g>
    <g id="Grupo_910" data-name="Grupo 910" transform="translate(16 25.696)">
      <g id="Grupo_909" data-name="Grupo 909">
        <g id="Grupo_908" data-name="Grupo 908">
          <path id="Caminho_2526" data-name="Caminho 2526" d="M177.362,287.484c.593,1.644,1.235,3.288,1.751,4.961a20.642,20.642,0,0,1,.895,6.012v5.01a.73.73,0,0,0,1.459,0v-4.942a22.288,22.288,0,0,0-.681-5.506c-.282-1.089-.671-2.15-1.051-3.21-.321-.9-.652-1.809-.973-2.714-.311-.875-1.722-.5-1.4.389Z" transform="translate(-177.315 -286.599)" fill="#009cde" stroke="#009cde" stroke-width="0.2"/>
        </g>
      </g>
    </g>
    <g id="Grupo_913" data-name="Grupo 913" transform="translate(36.968 25.66)">
      <g id="Grupo_912" data-name="Grupo 912">
        <g id="Grupo_911" data-name="Grupo 911">
          <path id="Caminho_2527" data-name="Caminho 2527" d="M338.4,286.73c-.6,1.673-1.265,3.337-1.78,5.049a22.313,22.313,0,0,0-.924,6.3V303.1a.73.73,0,0,0,1.459,0v-4.922a20.813,20.813,0,0,1,.671-5.311c.272-1.051.652-2.062,1.021-3.074.321-.895.642-1.78.953-2.675s-1.09-1.274-1.4-.389Z" transform="translate(-335.7 -286.227)" fill="#009cde" stroke="#009cde" stroke-width="0.2"/>
        </g>
      </g>
    </g>
    <g id="Grupo_915" data-name="Grupo 915" transform="translate(0 0)">
      <g id="Grupo_914" data-name="Grupo 914">
        <path id="Caminho_2528" data-name="Caminho 2528" d="M59.724,55.871a1.694,1.694,0,0,1-1.44-.391,1.415,1.415,0,0,1-.36-.951c-.01-.18,0-.359,0-.539V8.606c0-.507-.049-1.036,0-1.543A1.272,1.272,0,0,1,59.15,5.89a1.674,1.674,0,0,1,1.43.391,1.643,1.643,0,0,1,.36,1.141V48.071c0,2.124.019,4.259,0,6.384a1.309,1.309,0,0,1-1.216,1.416c-.934.032-.944,1.617,0,1.585A2.853,2.853,0,0,0,62.4,54.539V7.3a3,3,0,0,0-1.488-2.674A3.111,3.111,0,0,0,56.9,5.647a3.413,3.413,0,0,0-.428,1.776V53.186a10.611,10.611,0,0,0,.068,2.008,2.886,2.886,0,0,0,1.372,1.934,3.5,3.5,0,0,0,1.819.328C60.668,57.456,60.668,55.871,59.724,55.871Z" transform="translate(-56.462 -4.281)" fill="#009cde" stroke="#009cde" stroke-width="0.2"/>
      </g>
    </g>
    <g id="Grupo_917" data-name="Grupo 917" transform="translate(29.559 25.643)">
      <g id="Grupo_916" data-name="Grupo 916">
        <path id="Caminho_2529" data-name="Caminho 2529" d="M275.775,286.4l-3.181,5.136q-2.539,4.1-5.078,8.191c-.389.632-.778,1.255-1.167,1.887-.5.8.768,1.537,1.265.739l3.181-5.136q2.539-4.1,5.078-8.191c.389-.632.778-1.255,1.167-1.887.486-.807-.778-1.537-1.265-.739Z" transform="translate(-266.235 -286.056)" fill="#009cde" stroke="#009cde" stroke-width="0.2"/>
      </g>
    </g>
    <g id="Grupo_919" data-name="Grupo 919" transform="translate(17.469 26.95)">
      <g id="Grupo_918" data-name="Grupo 918">
        <path id="Caminho_2530" data-name="Caminho 2530" d="M191.666,313.744q-3.575-6.085-7.16-12.169c-.34-.574-.681-1.158-1.021-1.732a.733.733,0,0,0-1.265.739q3.575,6.085,7.16,12.169c.34.574.681,1.158,1.021,1.732a.733.733,0,0,0,1.265-.739Z" transform="translate(-182.115 -299.492)" fill="#009cde" stroke="#009cde" stroke-width="0.2"/>
      </g>
    </g>
    <g id="Grupo_921" data-name="Grupo 921" transform="translate(29.213 25.21)">
      <g id="Grupo_920" data-name="Grupo 920">
        <path id="Caminho_2531" data-name="Caminho 2531" d="M278.112,333.694l-5.545-7.617c-.263-.36-.535-.73-.8-1.089a.761.761,0,0,0-1-.263.733.733,0,0,0-.263,1l5.545,7.617c.263.36.535.73.8,1.09a.761.761,0,0,0,1,.263.731.731,0,0,0,.263-1Z" transform="translate(-270.398 -324.631)" fill="#009cde" stroke="#009cde" stroke-width="0.2"/>
      </g>
    </g>
    <g id="Grupo_923" data-name="Grupo 923" transform="translate(20.272 26.01)">
      <g id="Grupo_922" data-name="Grupo 922" transform="translate(0)">
        <path id="Caminho_2532" data-name="Caminho 2532" d="M206.249,336.394q2.787-4.625,5.584-9.251c.263-.438.525-.875.788-1.3.486-.807-.778-1.537-1.265-.739q-2.787,4.625-5.584,9.251c-.263.438-.525.875-.788,1.3a.733.733,0,0,0,1.265.739Z" transform="translate(-204.875 -324.756)" fill="#009cde" stroke="#009cde" stroke-width="0.2"/>
      </g>
    </g>
  </g>
</svg>
