<svg xmlns="http://www.w3.org/2000/svg" width="48.229" height="39.46" viewBox="0 0 48.229 39.46">
  <g id="noun-computer-1041184" transform="translate(-3.237)">
    <path id="Caminho_4122" data-name="Caminho 4122" d="M104.6,78.4a1.1,1.1,0,0,0-.993,1.1v29.629a1.1,1.1,0,0,0,1.1,1.1h46.037a1.1,1.1,0,0,0,1.1-1.1V79.5a1.1,1.1,0,0,0-1.1-1.1H104.7a.921.921,0,0,0-.1,0Zm1.2,2.192h43.845v23.7H105.794Zm0,25.9h43.845v1.541H105.794Z" transform="translate(-100.365 -78.399)" fill="#009cde"/>
    <path id="Caminho_4123" data-name="Caminho 4123" d="M259.071,413.354a1.074,1.074,0,0,0-.188.052,1.093,1.093,0,0,0-.274.12l-.034.017-.017.017c-.023.016-.046.034-.068.052l-.017.017c-.023.016-.046.034-.068.052v.017c-.024.022-.047.045-.068.069a.129.129,0,0,0,0,.017c-.024.022-.047.045-.069.068v.017c-.018.028-.036.056-.051.086v.017c-.018.028-.036.056-.051.086v.017a1.064,1.064,0,0,0-.052.188v.017a1.084,1.084,0,0,0-.017.343.818.818,0,0,1-.24.6,3.841,3.841,0,0,1-.925.617,5.765,5.765,0,0,0-1.456.976,2.974,2.974,0,0,0-.856,2.141h0a1.1,1.1,0,0,0,1.1,1.079h16.494a1.1,1.1,0,0,0,1.1-1.079,2.98,2.98,0,0,0-.856-2.141,5.792,5.792,0,0,0-1.456-.976,3.818,3.818,0,0,1-.925-.617.812.812,0,0,1-.257-.617h0a1.1,1.1,0,0,0-.034-.463v-.017c-.01-.029-.021-.058-.034-.086v-.017c-.016-.029-.033-.058-.052-.085v-.017c-.016-.023-.033-.046-.051-.068v-.017c-.022-.024-.045-.047-.069-.068a.119.119,0,0,0,0-.017.965.965,0,0,0-.068-.068l-.017-.017c-.022-.024-.044-.047-.068-.068H269.4l-.052-.034-.034-.034c-.022-.018-.045-.035-.068-.052h-.017c-.028-.012-.057-.024-.086-.034a1.214,1.214,0,0,0-.651-.069H259.4a1.085,1.085,0,0,0-.223-.017.918.918,0,0,0-.1,0Zm1.062,2.209h7.656a3.094,3.094,0,0,0,.668,1.148,5.312,5.312,0,0,0,1.507,1.062c.044.023.078.046.12.068H257.839c.042-.023.076-.046.12-.068a5.315,5.315,0,0,0,1.507-1.062,3.1,3.1,0,0,0,.668-1.148Z" transform="translate(-236.602 -380.572)" fill="#009cde"/>
  </g>
</svg>
