<svg xmlns="http://www.w3.org/2000/svg" width="57.737" height="48.425" viewBox="0 0 57.737 48.425">
  <path id="costume-clothes" d="M55.46,42.889l-4.241-5.939V5.587h1.1a2.794,2.794,0,1,0,0-1.862H40.044a3.725,3.725,0,1,0-7.45,0H20.487a3.725,3.725,0,1,0-7.45,0H5.416a2.794,2.794,0,1,0,0,1.862h1.1V36.951L2.278,42.889A2.8,2.8,0,0,0,0,45.631v2.794H57.737V45.631a2.8,2.8,0,0,0-2.278-2.741ZM54.944,3.724a.931.931,0,1,1-.931.931A.932.932,0,0,1,54.944,3.724ZM36.319,1.862a1.864,1.864,0,0,1,1.862,1.862H34.456A1.864,1.864,0,0,1,36.319,1.862Zm0,27.006V14.9h5.587V28.868Zm5.587-15.831H36.319A1.864,1.864,0,0,0,34.456,14.9H32.594V11.174h2.023a7.231,7.231,0,0,0,4.5-1.551,7.231,7.231,0,0,0,4.5,1.551h2.023V14.9H43.769A1.864,1.864,0,0,0,41.906,13.037ZM16.763,1.862a1.864,1.864,0,0,1,1.863,1.862H14.9A1.864,1.864,0,0,1,16.763,1.862ZM15.571,21.418h7.97l3.345,10.037a10,10,0,0,1-7.33,3,10.006,10.006,0,0,1-7.331-3Zm7.764-1.863H15.779a8.425,8.425,0,0,0-3.3-5.774l-.373-.279V11.174h2.888a4.656,4.656,0,0,0,9.124,0h2.888V13.5l-.371.279a8.42,8.42,0,0,0-3.3,5.774Zm-3.778-6.519a2.79,2.79,0,0,1-2.7-2.11,7.189,7.189,0,0,0,2.7-1.3,7.176,7.176,0,0,0,2.7,1.3A2.79,2.79,0,0,1,19.556,13.037ZM2.794,5.587a.931.931,0,1,1,.931-.931A.932.932,0,0,1,2.794,5.587Zm15.831,0V7.97A5.389,5.389,0,0,1,15.06,9.312H10.244v5.122l1.118.838a6.549,6.549,0,0,1,2.6,5.087L10.138,31.83l.292.391a11.673,11.673,0,0,0,9.126,4.1,11.673,11.673,0,0,0,9.126-4.1l.292-.39L25.151,20.36a6.547,6.547,0,0,1,2.6-5.087l1.117-.839V9.312H24.052A5.387,5.387,0,0,1,20.488,7.97V5.587H38.181V7.97a5.389,5.389,0,0,1-3.565,1.342H30.731v7.45h3.725V34.456h1.862V30.731h1.862v3.725h1.862V30.731h1.862v3.725h1.862V16.762h3.725V9.312H43.609A5.387,5.387,0,0,1,40.044,7.97V5.587h9.312V36.951l-4.241,5.939a2.8,2.8,0,0,0-2.278,2.741v.931H14.9v-.931a2.8,2.8,0,0,0-2.278-2.741L8.381,36.951V5.587ZM46.562,46.562H44.7v-.931a.931.931,0,1,1,1.862,0ZM12.106,44.7a.932.932,0,0,1,.931.931v.931H11.175v-.931A.932.932,0,0,1,12.106,44.7ZM3.725,46.562H1.863v-.931a.931.931,0,1,1,1.862,0Zm.562-3.283L7.45,38.852l3.163,4.426a2.786,2.786,0,0,0-1.3,2.352v.931H5.588v-.931A2.786,2.786,0,0,0,4.288,43.278ZM52.15,45.631v.931H48.425v-.931a2.786,2.786,0,0,0-1.3-2.352l3.163-4.426,3.163,4.426A2.786,2.786,0,0,0,52.15,45.631Zm3.725.931H54.012v-.931a.931.931,0,1,1,1.862,0Zm0,0" transform="translate(0 0.001)" fill="#009cde"/>
</svg>
