<svg id="elevator" xmlns="http://www.w3.org/2000/svg" width="40.722" height="54.296" viewBox="0 0 40.722 54.296">
  <g id="Grupo_1014" data-name="Grupo 1014" transform="translate(1.697 10.181)">
    <g id="Grupo_1013" data-name="Grupo 1013">
      <path id="Caminho_2589" data-name="Caminho 2589" d="M111.389,96H80.847a.848.848,0,0,0-.848.848v42.419a.848.848,0,1,0,1.7,0V97.7H110.54v41.57a.848.848,0,1,0,1.7,0V96.848A.848.848,0,0,0,111.389,96Z" transform="translate(-79.999 -96)" fill="#009cde"/>
    </g>
  </g>
  <g id="Grupo_1016" data-name="Grupo 1016" transform="translate(4.242 12.726)">
    <g id="Grupo_1015" data-name="Grupo 1015">
      <path id="Caminho_2590" data-name="Caminho 2590" d="M130.3,120H104.847a.848.848,0,0,0-.848.848v39.874a.848.848,0,1,0,1.7,0V121.7H129.45v39.025a.848.848,0,0,0,1.7,0V120.848A.848.848,0,0,0,130.3,120Z" transform="translate(-103.999 -120)" fill="#009cde"/>
    </g>
  </g>
  <g id="Grupo_1018" data-name="Grupo 1018" transform="translate(35.632 27.148)">
    <g id="Grupo_1017" data-name="Grupo 1017">
      <path id="Caminho_2591" data-name="Caminho 2591" d="M403.142,256.247a.848.848,0,0,0-1.2,0l-1.7,1.7a.848.848,0,1,0,1.2,1.2l1.7-1.7A.847.847,0,0,0,403.142,256.247Z" transform="translate(-399.997 -255.998)" fill="#009cde"/>
    </g>
  </g>
  <g id="Grupo_1020" data-name="Grupo 1020" transform="translate(37.328 27.148)">
    <g id="Grupo_1019" data-name="Grupo 1019">
      <path id="Caminho_2592" data-name="Caminho 2592" d="M419.142,257.944l-1.7-1.7a.848.848,0,0,0-1.2,1.2l1.7,1.7a.848.848,0,1,0,1.2-1.2Z" transform="translate(-415.997 -255.998)" fill="#009cde"/>
    </g>
  </g>
  <g id="Grupo_1022" data-name="Grupo 1022" transform="translate(37.328 33.935)">
    <g id="Grupo_1021" data-name="Grupo 1021">
      <path id="Caminho_2593" data-name="Caminho 2593" d="M419.142,320.247a.847.847,0,0,0-1.2,0l-1.7,1.7a.848.848,0,1,0,1.2,1.2l1.7-1.7A.847.847,0,0,0,419.142,320.247Z" transform="translate(-415.997 -319.998)" fill="#009cde"/>
    </g>
  </g>
  <g id="Grupo_1024" data-name="Grupo 1024" transform="translate(35.632 33.935)">
    <g id="Grupo_1023" data-name="Grupo 1023">
      <path id="Caminho_2594" data-name="Caminho 2594" d="M403.142,321.944l-1.7-1.7a.848.848,0,0,0-1.2,1.2l1.7,1.7a.848.848,0,1,0,1.2-1.2Z" transform="translate(-399.997 -319.998)" fill="#009cde"/>
    </g>
  </g>
  <g id="Grupo_1026" data-name="Grupo 1026" transform="translate(16.968 12.726)">
    <g id="Grupo_1025" data-name="Grupo 1025">
      <path id="Caminho_2595" data-name="Caminho 2595" d="M224.847,120a.848.848,0,0,0-.848.848v39.874a.848.848,0,0,0,1.7,0V120.848A.848.848,0,0,0,224.847,120Z" transform="translate(-223.999 -120)" fill="#009cde"/>
    </g>
  </g>
  <g id="Grupo_1028" data-name="Grupo 1028" transform="translate(0 52.599)">
    <g id="Grupo_1027" data-name="Grupo 1027">
      <path id="Caminho_2596" data-name="Caminho 2596" d="M98.782,496H64.847a.848.848,0,0,0,0,1.7H98.782a.848.848,0,0,0,0-1.7Z" transform="translate(-63.999 -496)" fill="#009cde"/>
    </g>
  </g>
  <g id="Grupo_1030" data-name="Grupo 1030" transform="translate(10.18)">
    <g id="Grupo_1029" data-name="Grupo 1029">
      <path id="Caminho_2597" data-name="Caminho 2597" d="M167.634,0A7.644,7.644,0,0,0,160,7.635a.848.848,0,0,0,1.7,0,5.939,5.939,0,1,1,11.877,0,.848.848,0,1,0,1.7,0A7.644,7.644,0,0,0,167.634,0Z" transform="translate(-159.999)" fill="#009cde"/>
    </g>
  </g>
  <g id="Grupo_1032" data-name="Grupo 1032" transform="translate(10.18 6.787)">
    <g id="Grupo_1031" data-name="Grupo 1031">
      <path id="Caminho_2598" data-name="Caminho 2598" d="M174.421,64H160.847a.848.848,0,1,0,0,1.7h13.574a.848.848,0,0,0,0-1.7Z" transform="translate(-159.999 -64)" fill="#009cde"/>
    </g>
  </g>
  <g id="Grupo_1034" data-name="Grupo 1034" transform="translate(16.968 3.394)">
    <g id="Grupo_1033" data-name="Grupo 1033">
      <path id="Caminho_2599" data-name="Caminho 2599" d="M224.847,32a.848.848,0,0,0-.848.848v3.394a.848.848,0,0,0,1.7,0V32.848A.848.848,0,0,0,224.847,32Z" transform="translate(-223.999 -32)" fill="#009cde"/>
    </g>
  </g>
</svg>
