<svg xmlns="http://www.w3.org/2000/svg" width="47.908" height="38.101" viewBox="0 0 47.908 38.101">
  <g id="noun-nvidia-shield-gamepad-942065" transform="translate(-11.073 0.25)">
    <path id="Caminho_4162" data-name="Caminho 4162" d="M233.651,174.4,228.9,159.378a.9.9,0,0,0-.192-.332l-1.267-1.381-.89-1.378a.887.887,0,0,0-.472-.363,38.365,38.365,0,0,0-5.891-1.554,7.993,7.993,0,0,0-2.767.795H204.441a7.4,7.4,0,0,0-2.773-.795,36.646,36.646,0,0,0-5.9,1.556.882.882,0,0,0-.467.36l-.887,1.378-1.27,1.381a.893.893,0,0,0-.192.332L188.207,174.4a1.007,1.007,0,0,0-.03.122c-.219,1.319-2.056,13,.83,16.4a2.81,2.81,0,0,0,2.189,1.045c.621,0,2.688-.084,3.215-1.165l.047-.095c3.4-7,6.053-12.13,6.668-12.911a3.312,3.312,0,0,1,1-.1,23.108,23.108,0,0,1,3.386.357.811.811,0,0,0,.162.015h10.5a.861.861,0,0,0,.16-.015,21.838,21.838,0,0,1,3.282-.332,3.986,3.986,0,0,1,1.174.123c.668.8,3.257,5.8,6.521,12.6l.04.083c.586,1.218,3.277,1.439,3.3,1.439A2.977,2.977,0,0,0,233,190.848c2.93-3.517.913-15.038.674-16.339a.781.781,0,0,0-.026-.106Zm-2.982,15.8a5.3,5.3,0,0,1-1.748-.507l-.005-.009c-6.164-12.843-6.864-13.2-7.239-13.384a4.7,4.7,0,0,0-2.056-.346,19.859,19.859,0,0,0-2.523.2l-1.624-2.3a.885.885,0,0,0-.722-.375h-7.528a.888.888,0,0,0-.724.375l-1.631,2.311a20.143,20.143,0,0,0-2.739-.233,3.571,3.571,0,0,0-2.064.443c-.278.2-.93.668-7.2,13.557a5.24,5.24,0,0,1-1.672.271,1.032,1.032,0,0,1-.838-.421c-1.986-2.342-1-11.491-.444-14.905l4.669-14.776,1.189-1.292a.928.928,0,0,0,.092-.119l.758-1.177a34.045,34.045,0,0,1,5.046-1.37,6.129,6.129,0,0,1,2.155.695.885.885,0,0,0,.41.1h.03l3.911,9.639a.886.886,0,0,0,.821.553h3.986a.887.887,0,0,0,.821-.553l3.917-9.65a.893.893,0,0,0,.3-.081,7.038,7.038,0,0,1,2.174-.7,38.243,38.243,0,0,1,5.047,1.372l.757,1.174a1.053,1.053,0,0,0,.092.119l1.186,1.292,4.672,14.784c.61,3.354,1.723,12.4-.3,14.831a1.193,1.193,0,0,1-.973.486Zm-23.729-13.9.744-1.055h6.61l.744,1.055Zm8.859-19.357-3.416,8.414h-2.792l-3.414-8.414Z" transform="translate(-175.962 -154.371)" fill="#009cde" stroke="#009cde" stroke-width="0.5"/>
    <path id="Caminho_4163" data-name="Caminho 4163" d="M245.773,196.093a1.063,1.063,0,0,0-1.063-1.063H243.2v-1.515a1.063,1.063,0,0,0-2.126,0v1.515h-1.514a1.063,1.063,0,1,0,0,2.126h1.515v1.514a1.063,1.063,0,1,0,2.126,0v-1.514h1.514a1.063,1.063,0,0,0,1.062-1.063Z" transform="translate(-219.61 -186.903)" fill="#009cde" stroke="#009cde" stroke-width="0.5"/>
    <path id="Caminho_4164" data-name="Caminho 4164" d="M274.709,243.72A3.283,3.283,0,1,0,277.992,247,3.286,3.286,0,0,0,274.709,243.72Zm0,4.794A1.511,1.511,0,1,1,276.221,247,1.513,1.513,0,0,1,274.709,248.514Z" transform="translate(-247.744 -230.699)" fill="#009cde" stroke="#009cde" stroke-width="0.5"/>
    <path id="Caminho_4165" data-name="Caminho 4165" d="M384.862,243.88a3.283,3.283,0,1,0,3.283,3.283A3.287,3.287,0,0,0,384.862,243.88Zm0,4.794a1.512,1.512,0,1,1,1.513-1.511A1.513,1.513,0,0,1,384.862,248.674Z" transform="translate(-341.844 -230.836)" fill="#009cde" stroke="#009cde" stroke-width="0.5"/>
    <path id="Caminho_4166" data-name="Caminho 4166" d="M425.939,191.461a1.411,1.411,0,1,1-1.411-1.411,1.411,1.411,0,0,1,1.411,1.411" transform="translate(-377.328 -184.851)" fill="#009cde" stroke="#009cde" stroke-width="0.5"/>
    <path id="Caminho_4167" data-name="Caminho 4167" d="M425.939,227.228a1.411,1.411,0,1,1-1.411-1.411,1.41,1.41,0,0,1,1.411,1.411" transform="translate(-377.328 -215.405)" fill="#009cde" stroke="#009cde" stroke-width="0.5"/>
    <path id="Caminho_4168" data-name="Caminho 4168" d="M408.049,209.348a1.411,1.411,0,1,1-1.411-1.411,1.411,1.411,0,0,1,1.411,1.411" transform="translate(-362.045 -200.13)" fill="#009cde" stroke="#009cde" stroke-width="0.5"/>
    <path id="Caminho_4169" data-name="Caminho 4169" d="M443.819,209.348a1.411,1.411,0,1,1-1.411-1.411,1.41,1.41,0,0,1,1.411,1.411" transform="translate(-392.602 -200.13)" fill="#009cde" stroke="#009cde" stroke-width="0.5"/>
    <path id="Caminho_4170" data-name="Caminho 4170" d="M335.951,188.154a.294.294,0,0,0,.27-.175l1.972-4.446a.3.3,0,0,0-.269-.416h-3.947a.3.3,0,0,0-.27.416l1.974,4.446A.3.3,0,0,0,335.951,188.154Z" transform="translate(-300.927 -178.928)" fill="#009cde" stroke="#009cde" stroke-width="0.5"/>
  </g>
</svg>
