<svg id="noun_car_shed_1694450" data-name="noun_car shed_1694450" xmlns="http://www.w3.org/2000/svg" width="52.768" height="48.079" viewBox="0 0 52.768 48.079">
  <g id="Grupo_953" data-name="Grupo 953" transform="translate(0 0)">
    <g id="Grupo_952" data-name="Grupo 952" transform="translate(0 0)">
      <path id="Caminho_2553" data-name="Caminho 2553" d="M56.758,81.246v-3.41h.81V66.882A3.279,3.279,0,0,0,55.692,63.9l-2.557-7.885A3.977,3.977,0,0,0,49.3,53.2H28.669a3.991,3.991,0,0,0-3.836,2.813l-2.557,7.928A3.326,3.326,0,0,0,20.4,66.925V77.836h.81v3.41h4.859v-3.41H51.813v3.41Zm-1.7-1.7H53.6v-1.7h1.449ZM26.5,56.525a2.289,2.289,0,0,1,2.216-1.62H49.3a2.289,2.289,0,0,1,2.216,1.62L53.774,63.6H24.193ZM24.407,79.541H22.957v-1.7h1.449Zm1.7-3.41H22.148V66.882a1.619,1.619,0,0,1,1.62-1.62H54.2a1.619,1.619,0,0,1,1.62,1.62v9.249H26.112Z" transform="translate(-12.6 -33.721)" fill="#009cde"/>
      <path id="Caminho_2554" data-name="Caminho 2554" d="M29.4,93.22h5.456V89H29.4ZM31.1,90.7h2.046v.81H31.1Z" transform="translate(-17.764 -54.262)" fill="#009cde"/>
      <path id="Caminho_2555" data-name="Caminho 2555" d="M85.8,93.22h5.456V89H85.8ZM87.5,90.7h2.046v.81H87.5Z" transform="translate(-50.124 -54.262)" fill="#009cde"/>
      <path id="Caminho_2556" data-name="Caminho 2556" d="M60.226,91.9H45.052a.852.852,0,0,0,0,1.7H60.226a.852.852,0,0,0,0-1.7Z" transform="translate(-26.256 -55.926)" fill="#009cde"/>
      <path id="Caminho_2557" data-name="Caminho 2557" d="M5.68,54.727a.852.852,0,0,0,1.7,0v-34.1h42.2v34.1a.852.852,0,0,0,1.7,0v-34.1h3.58V17.346L28.527,7.5,2.1,17.389v3.282H5.68V54.727ZM3.8,18.582,28.527,9.333l24.636,9.207v.426H3.8Z" transform="translate(-2.1 -7.5)" fill="#009cde"/>
    </g>
  </g>
</svg>
