<svg xmlns="http://www.w3.org/2000/svg" width="48.34" height="54.43" viewBox="0 0 48.34 54.43">
  <g id="noun_Garden_1398492" transform="translate(0.387 0.364)">
    <path id="Caminho_2586" data-name="Caminho 2586" d="M11.774,19.217l-.674.061c.061.123,1.532,6.8,7.294,10.665,7.784,5.21,12.381,4.107,12.443,4.107L33.779,36.2c-1.594.736-1.9,2.7-3.432,2.7-.8,0-1.226-.49-1.839-1.287a3.357,3.357,0,0,0-2.82-1.716c-1.348,0-2.023.736-2.82,1.716-.613.8-1.042,1.287-1.839,1.287a1.2,1.2,0,0,1-.49-.061.636.636,0,0,0-.8.8l4.536,16.059c.674,2.39,3.371,4.107,6.5,4.229H39.3c3.187,0,5.7-1.594,6.375-4.045,4.352-15.814,4.536-16.243,4.413-16.549a.666.666,0,0,0-.736-.429.909.909,0,0,1-.429.061c-1.839,0-2.023-3-4.658-3s-2.819,3-4.658,3c-.8,0-1.226-.49-1.839-1.287a7.766,7.766,0,0,0-.674-.8,2.763,2.763,0,0,0-.858-.613l3.126-2.145c4.168.429,8.336-1.287,11.523-3.432a19.911,19.911,0,0,0,7.662-9.93l.184-.674c-.245,0-4.781-1.226-11.707,3.31a19.5,19.5,0,0,0,2.7-13.975l-.674.245C44.75,11.187,40.827,16.52,39.3,20.749a17.686,17.686,0,0,0-3.616-14.1l-.49-.552a18.43,18.43,0,0,0-4.413,11.768,6.662,6.662,0,0,0,.061,1.1c-1.594-3.678-5.394-8.091-9.255-9.5l-.736-.184c0,.429-2.145,6.313,3.371,14.465C21.275,21.24,15.881,18.726,11.774,19.217ZM28.385,30.74,14.471,20.5A19.743,19.743,0,0,1,28.385,30.74ZM33.227,34.3l-2.758-2.023A22.441,22.441,0,0,0,27.956,27.8a12.49,12.49,0,0,0,2.636,1.471Zm5.884-4.229L39.3,30a14.761,14.761,0,0,0,2.023-.919,18.207,18.207,0,0,0-1.9,3.494l-2.636,1.839ZM19.068,28.9a17.044,17.044,0,0,1-6.191-8.029L29.3,32.885C26.607,32.824,22.562,31.23,19.068,28.9ZM44.5,55.5c-.552,1.961-2.7,3.187-5.394,3.126H30.775c-2.574-.061-4.781-1.471-5.333-3.31L22.255,44.041c1.165-.919,1.532-2.39,2.881-2.39,1.839,0,2.023,3,4.658,3s2.758-3,4.658-3c1.839,0,2.023,3,4.658,3s2.758-3,4.658-3c.8,0,1.226.49,1.839,1.287a4.437,4.437,0,0,0,1.9,1.594ZM39.6,40.118c2.636,0,2.758-3,4.658-3,1.778,0,1.961,2.82,4.474,3l-.919,3.187c-1.287-.49-1.716-2.881-4.045-2.881-2.636,0-2.758,3-4.658,3-1.839,0-2.023-3-4.658-3s-2.758,3-4.658,3c-1.839,0-2.023-3-4.658-3-1.839,0-2.513,1.471-3.31,2.329l-.736-2.574c2.513-.123,2.7-3,4.536-3,1.9,0,2.023,3,4.658,3a3.562,3.562,0,0,0,2.82-1.716c.552-.736.981-1.287,1.839-1.287a1.633,1.633,0,0,1,1.226.552c.184.184.368.429.613.674A3.511,3.511,0,0,0,39.6,40.118ZM50.267,29.575a18.7,18.7,0,0,1-9.255,3.31l15.814-10.91A19.433,19.433,0,0,1,50.267,29.575Zm5.578-8.459L41.44,31.169a21.213,21.213,0,0,1,6.191-6.742A19.819,19.819,0,0,1,55.844,21.117ZM40.031,28.35l8.888-16.611C49.347,18.91,45.241,25.714,40.031,28.35ZM47.508,11.8,39.479,26.756A19.549,19.549,0,0,1,47.508,11.8ZM38.376,28.84l-2.758,5.087v-4.72l.061-.061A17.243,17.243,0,0,0,38.5,24.12,15.524,15.524,0,0,0,38.376,28.84Zm-2.758-1.655V8.613A17.01,17.01,0,0,1,35.617,27.185Zm-1.226-17.9V26.633A17.554,17.554,0,0,1,32,17.93,17.128,17.128,0,0,1,34.392,9.287Zm0,19.491v5.087l-2.819-5.333A17.816,17.816,0,0,0,31.94,24.3,16.844,16.844,0,0,0,34.392,28.779Zm-5.333-10.6a13.933,13.933,0,0,1,1.594,8.459L22.623,11.371A18.247,18.247,0,0,1,29.059,18.175ZM21.7,12.291l7.968,15.2C25.994,25.224,21.581,18.726,21.7,12.291Z" transform="translate(-11.1 -6.1)" fill="#009cde" stroke="#009cde" stroke-width="0.5"/>
  </g>
</svg>
