<svg xmlns="http://www.w3.org/2000/svg" width="35.843" height="51.22" viewBox="0 0 35.843 51.22">
  <g id="Grupo_2362" data-name="Grupo 2362" transform="translate(0.5 0.5)">
    <g id="noun_barbecue_1915564" transform="translate(0)">
      <path id="Caminho_2562" data-name="Caminho 2562" d="M23.785,31.548h.105a15.8,15.8,0,0,0,9.047,14.078L28.37,60.173a3.034,3.034,0,1,0,1.259.181l2.707-8.622h6.705v5.084a3.043,3.043,0,1,0,1.256,0V51.732h6.975l2.683,8.546a3.036,3.036,0,1,0,1.292-.077L46.635,45.512a15.8,15.8,0,0,0,8.814-13.964h.105a1.539,1.539,0,0,0,1.537-1.537V27.7a1.539,1.539,0,0,0-1.537-1.537H23.785A1.539,1.539,0,0,0,22.248,27.7v2.307A1.539,1.539,0,0,0,23.785,31.548ZM41.457,59.792A1.787,1.787,0,1,1,39.67,58,1.789,1.789,0,0,1,41.457,59.792Zm-11.1,3.4a1.787,1.787,0,1,1-1.787-1.787A1.789,1.789,0,0,1,30.356,63.2Zm2.375-12.719L34.1,46.119a15.681,15.681,0,0,0,4.943,1v3.356ZM52.558,63.2a1.787,1.787,0,1,1-1.789-1.787h0A1.789,1.789,0,0,1,52.558,63.2Zm-5.68-12.719H40.3V47.121a15.677,15.677,0,0,0,5.182-1.1Zm-7.208-4.6A14.543,14.543,0,0,1,25.146,31.548H54.193A14.543,14.543,0,0,1,39.67,45.881ZM23.5,27.7a.282.282,0,0,1,.281-.282H55.554a.282.282,0,0,1,.281.282v2.307a.282.282,0,0,1-.281.281H23.785a.282.282,0,0,1-.281-.281V27.7Z" transform="translate(-22.248 -16.018)" fill="#009cde" stroke="#009cde" stroke-width="1"/>
      <path id="Caminho_2563" data-name="Caminho 2563" d="M44.162,18.527a.628.628,0,0,0,0-1.256,1.19,1.19,0,0,1,0-2.38,2.446,2.446,0,1,0,0-4.891.628.628,0,1,0,0,1.256,1.19,1.19,0,1,1,0,2.38,2.446,2.446,0,1,0,0,4.891Z" transform="translate(-29.495 -10)" fill="#009cde" stroke="#009cde" stroke-width="1"/>
      <path id="Caminho_2564" data-name="Caminho 2564" d="M53.938,18.527a.628.628,0,0,0,0-1.256,1.19,1.19,0,0,1,0-2.38,2.446,2.446,0,1,0,0-4.891.628.628,0,0,0,0,1.256,1.19,1.19,0,1,1,0,2.38,2.446,2.446,0,1,0,0,4.891Z" transform="translate(-33.134 -10)" fill="#009cde" stroke="#009cde" stroke-width="1"/>
    </g>
  </g>
</svg>
