<svg id="noun_room_3213596" xmlns="http://www.w3.org/2000/svg" width="28.332" height="43.194" viewBox="0 0 28.332 43.194">
  <path id="Caminho_3464" data-name="Caminho 3464" d="M128.991,52.536l-.327-3.751a.637.637,0,0,0-.184-.4l-1.074-1.074a.638.638,0,0,0-.47-.187l-.775.023-.037-.878a.638.638,0,0,0-.638-.612h-.009l-.8.01.094-.617a.637.637,0,0,0-.18-.547l-4.219-4.216.047-.047a.638.638,0,0,0,0-.9L118.7,37.621a7.925,7.925,0,0,0-2-7.776,7.835,7.835,0,0,0-3.579-2.055c-.289-4.936-2.146-8.468-4.5-8.468-1.313,0-2.5,1.088-3.343,3.064a17.628,17.628,0,0,0-1.193,6.713c0,.636.027,1.263.08,1.874a7.878,7.878,0,0,0,.593,13.456v2.436a.638.638,0,0,0,.638.638h.063v3.7l-.366.223a.638.638,0,0,0-.306.545v1.869a.638.638,0,0,0,.169.432l.5.547v4.131a.638.638,0,0,0,.149.41l2.454,2.924a.638.638,0,0,0,.978,0l2.455-2.924a.638.638,0,0,0,.149-.41V57.436a.638.638,0,0,0-.2-.465l-.563-.53.6-.648a.638.638,0,0,0-.024-.889l-.57-.556.5-.369a.638.638,0,0,0,.26-.515V47.5h.063a.638.638,0,0,0,.638-.638V44.429a7.96,7.96,0,0,0,1.429-1l1.277,1.277a.639.639,0,0,0,.9,0l.046-.045,2.622,2.619-.1.416a.638.638,0,0,0,.169.6l1.323,1.324a.639.639,0,0,0,.425.186l.745.031,2.922,2.921a.637.637,0,0,0,.4.184l3.8.331c.018,0,.037,0,.055,0h0A.638.638,0,0,0,129,52.64.686.686,0,0,0,128.991,52.536ZM108.623,20.6c1.351,0,2.893,2.768,3.2,6.968-.232-.02-.466-.032-.7-.032a7.831,7.831,0,0,0-5.574,2.309c-.057.057-.113.114-.168.172q-.019-.449-.02-.916C105.363,24.09,107.081,20.6,108.623,20.6Zm-3.183,15.57c.83,1.75,1.951,2.708,3.183,2.708a.638.638,0,1,0,0-1.277c-.814,0-1.676-.973-2.309-2.626a3.383,3.383,0,1,1-.874,1.2Zm7.883,5.922a.624.624,0,0,0-.051.061,6.677,6.677,0,0,1-1.841,1.315.638.638,0,0,0-.36.574v2.186h-.063a.638.638,0,0,0-.638.638v6.278l-.849.624a.638.638,0,0,0-.067.972l.665.648-.6.656a.638.638,0,0,0,.033.9l.822.773v1.01l-1.816,2.163-1.816-2.163V54.575a.638.638,0,0,0-.169-.432l-.5-.547V52.334l.366-.223a.639.639,0,0,0,.306-.545v-4.7a.638.638,0,0,0-.638-.638h-.063V44.041a.638.638,0,0,0-.36-.575,6.6,6.6,0,0,1-1.33-11.036,16.219,16.219,0,0,0,.516,2.234,4.674,4.674,0,1,0,1.042-.987,16.3,16.3,0,0,1-.383-2.024,6.56,6.56,0,0,1,2.353-.7h.01q.161-.016.325-.025h.015c.109-.005.219-.008.329-.008a6.613,6.613,0,0,1,6.609,6.6c0,.1,0,.2-.007.3,0,.019,0,.038,0,.057,0,.088-.011.175-.019.263l0,.031A6.558,6.558,0,0,1,113.323,42.09Zm11.521,9.6-2.934-2.933a.639.639,0,0,0-.425-.186l-.744-.031-.893-.894.1-.416a.638.638,0,0,0-.169-.6l-3.327-3.323a.639.639,0,0,0-.9,0l-.045.045-.841-.842a7.815,7.815,0,0,0,1.742-4.286c0-.018,0-.036,0-.053.007-.089.013-.179.017-.269,0-.021,0-.042,0-.063,0-.107.007-.214.007-.322a7.892,7.892,0,0,0-7.886-7.881h-.016c-.094,0-.188,0-.282.006l-.077,0q-.134.006-.267.017l-.045,0a6.569,6.569,0,0,1,3.258-.856,6.687,6.687,0,0,1,1.192.108.635.635,0,0,0,.152.029,6.563,6.563,0,0,1,3.33,1.8,6.639,6.639,0,0,1,1.57,6.84.639.639,0,0,0,.152.661l1.548,1.545-.047.046a.638.638,0,0,0,0,.9l4.442,4.438-.158,1.042a.638.638,0,0,0,.631.734h.008l.929-.012.037.888a.64.64,0,0,0,.656.611l1.129-.033.715.715.245,2.811Z" transform="translate(-100.668 -19.322)" fill="#005385"/>
</svg>
