<svg xmlns="http://www.w3.org/2000/svg" width="52.615" height="51.722" viewBox="0 0 52.615 51.722">
  <g id="noun_maintenance_2134094" transform="translate(0.25 0.25)">
    <g id="Grupo_1036" data-name="Grupo 1036" transform="translate(0 0)">
      <path id="Caminho_2608" data-name="Caminho 2608" d="M1.693,29l5.682.568a18.459,18.459,0,0,0,1.3,3.166L5.021,37.117A.759.759,0,0,0,5.1,38.173l5.2,5.2a.765.765,0,0,0,1.055.081L15.736,39.8a22.936,22.936,0,0,0,3.247,1.38l.568,5.682a.863.863,0,0,0,.812.731h7.306a.863.863,0,0,0,.812-.731l.568-5.682a27.564,27.564,0,0,0,4.059-2.111L37,42.881a7.41,7.41,0,0,0,1.867,7.468,8.258,8.258,0,0,0,5.682,2.273h.081a1.665,1.665,0,0,0,1.542-1.055,1.766,1.766,0,0,0-.406-1.867L42.93,46.94a1.326,1.326,0,0,1,0-1.948L45.2,42.637a1.326,1.326,0,0,1,1.948,0l2.841,2.76a1.766,1.766,0,0,0,2.435,0,1.652,1.652,0,0,0,.487-1.218A8.192,8.192,0,0,0,50.4,38.416a6.965,6.965,0,0,0-7.387-1.624L39.277,33.14a19.774,19.774,0,0,0,1.542-3.572L46.5,29a.863.863,0,0,0,.731-.812V20.882a.863.863,0,0,0-.731-.812L40.82,19.5a22.571,22.571,0,0,0-1.3-3.247l3.572-4.384a.759.759,0,0,0-.081-1.055l-5.2-5.2a.765.765,0,0,0-1.055-.081L32.3,9.193a22.936,22.936,0,0,0-3.247-1.38l-.568-5.682a.863.863,0,0,0-.812-.731H20.363a.863.863,0,0,0-.812.731l-.568,5.682a16.263,16.263,0,0,0-3.247,1.38L11.353,5.54a.759.759,0,0,0-1.055.081l-5.2,5.2a.765.765,0,0,0-.081,1.055l3.572,4.384A16.263,16.263,0,0,0,7.213,19.5l-5.682.568a.863.863,0,0,0-.731.812v7.306A1.018,1.018,0,0,0,1.693,29Zm41.481,9.5a5.437,5.437,0,0,1,6.169,1.055,6.845,6.845,0,0,1,1.948,4.708H51.21L48.369,41.5a2.964,2.964,0,0,0-4.221.081l-2.273,2.354a2.964,2.964,0,0,0,.081,4.221L44.8,51l-.081.081h-.081a6.385,6.385,0,0,1-4.546-1.867,5.735,5.735,0,0,1-1.3-6.169,1.127,1.127,0,0,0-.162-.893L26.939,30.786a.741.741,0,0,0-.893-.162A5.73,5.73,0,0,1,19.8,29.487a6.863,6.863,0,0,1-1.948-4.627h.162l2.841,2.76a2.964,2.964,0,0,0,4.221-.081l2.273-2.354a2.941,2.941,0,0,0,0-4.221L24.5,18.2s-.081-.081,0-.081a.08.08,0,0,1,.081-.081,6.766,6.766,0,0,1,4.708,1.867A5.332,5.332,0,0,1,30.51,26a.741.741,0,0,0,.162.893l2.435,2.435h0l9.173,8.929A.769.769,0,0,0,43.174,38.5ZM33.352,27.376l-1.218-1.218a6.993,6.993,0,0,0-1.786-7.387A8.223,8.223,0,0,0,24.5,16.418a1.587,1.587,0,0,0-1.542,1.055,1.766,1.766,0,0,0,.406,1.867l2.841,2.76a1.372,1.372,0,0,1,0,1.948L23.935,26.4a1.4,1.4,0,0,1-1.948,0l-2.841-2.76a1.852,1.852,0,0,0-2.435,0,1.652,1.652,0,0,0-.487,1.218,8.424,8.424,0,0,0,2.435,5.682,7.3,7.3,0,0,0,7.468,1.7l1.38,1.3a9.4,9.4,0,0,1-3.409.568,9.619,9.619,0,1,1,9.66-9.579A10.917,10.917,0,0,1,33.352,27.376ZM2.586,21.613l5.52-.568a.78.78,0,0,0,.731-.568,15.911,15.911,0,0,1,1.624-3.9.728.728,0,0,0-.081-.893l-3.491-4.3,4.14-4.14,4.3,3.491a.738.738,0,0,0,.893.081,16.467,16.467,0,0,1,3.9-1.624.78.78,0,0,0,.568-.731l.568-5.52H27.1l.568,5.52a.78.78,0,0,0,.568.731,13.67,13.67,0,0,1,3.9,1.624.728.728,0,0,0,.893-.081l4.3-3.491,4.14,4.14-3.653,4.3a.738.738,0,0,0-.081.893A17.4,17.4,0,0,1,39.359,20.4a.78.78,0,0,0,.731.568l5.439.568v5.845l-5.439.568a.78.78,0,0,0-.731.568,16.643,16.643,0,0,1-1.3,3.328L34.65,28.513a11.575,11.575,0,0,0,.731-4.059,11.232,11.232,0,1,0-6.656,10.309l3.247,3.166A20.5,20.5,0,0,1,28.156,39.8a.78.78,0,0,0-.568.731l-.568,5.52H21.175l-.568-5.52a.78.78,0,0,0-.568-.731,16.467,16.467,0,0,1-3.9-1.624.728.728,0,0,0-.893.081l-4.3,3.491L6.807,37.6,10.3,33.3a.738.738,0,0,0,.081-.893,17.4,17.4,0,0,1-1.624-3.815.78.78,0,0,0-.731-.568l-5.439-.568Z" transform="translate(-0.8 -1.4)" fill="#009cde" stroke="#009cde" stroke-width="0.5"/>
    </g>
  </g>
</svg>
