<svg id="new-file" xmlns="http://www.w3.org/2000/svg" width="37.843" height="49.182" viewBox="0 0 37.843 49.182">
  <path id="Caminho_2634" data-name="Caminho 2634" d="M105,3.73,88.034,20.7a1.068,1.068,0,0,0-.279.487L86.3,26.793a1.07,1.07,0,0,0,1.3,1.3l5.608-1.456a1.071,1.071,0,0,0,.487-.279L110.665,9.4h0l3.416-3.416a1.069,1.069,0,0,0,0-1.513L109.93.313a1.069,1.069,0,0,0-1.513,0L105,3.729h0ZM92.392,24.643l-3.565.926L89.753,22l16-16L108.4,8.638Zm16.782-22.06,2.639,2.639-1.9,1.9-2.639-2.639Z" transform="translate(-76.553 0)" fill="#009cde"/>
  <path id="Caminho_2635" data-name="Caminho 2635" d="M68.572,30.014a1.07,1.07,0,0,0-1.07,1.07V65.462H33.939V24.557h19.8a1.07,1.07,0,0,0,0-2.14H32.869a1.07,1.07,0,0,0-1.07,1.07V66.532a1.07,1.07,0,0,0,1.07,1.07h35.7a1.07,1.07,0,0,0,1.07-1.07V31.083A1.07,1.07,0,0,0,68.572,30.014Z" transform="translate(-31.799 -18.42)" fill="#009cde"/>
</svg>
