<svg xmlns="http://www.w3.org/2000/svg" width="55.409" height="48.181" viewBox="0 0 55.409 48.181">
  <g id="parking" transform="translate(0.1 0.105)">
    <g id="Grupo_960" data-name="Grupo 960" transform="translate(2.743 0)">
      <g id="Grupo_959" data-name="Grupo 959">
        <path id="Caminho_2565" data-name="Caminho 2565" d="M77.175,56.614a9.273,9.273,0,0,0-8.543-5.666h0A9.213,9.213,0,0,0,63.081,52.8L30.293,33.869a2.426,2.426,0,0,0-3.314.888l-1.213,2.1a2.426,2.426,0,0,0,.888,3.314L66.785,63.345a.808.808,0,0,0,.81-1.4h0l-5.008-2.891,5.523-1.48,1.506.87a2.021,2.021,0,0,1,.163,3.4.809.809,0,0,0,.936,1.32h0a3.639,3.639,0,0,0-.292-6.116L64.635,53.7a7.654,7.654,0,0,1,11.653,6.522V79.9H60.976V61.693a.809.809,0,0,0-1.617,0V80.709a.81.81,0,0,0,.809.809H77.1a.81.81,0,0,0,.809-.809V60.221A9.194,9.194,0,0,0,77.175,56.614ZM27.462,38.772a.808.808,0,0,1-.3-1.1l1.213-2.1a.809.809,0,0,1,1.1-.3l5.126,2.96-5.524,1.48Zm3.606,2.082,5.524-1.48,4.323,2.5L35.39,43.35Zm6.3,3.64,5.524-1.48,4.323,2.5-5.524,1.48Zm6.3,3.64,5.524-1.48,4.323,2.5L48,50.629Zm6.3,3.64,5.524-1.48,4.323,2.5L54.3,54.269Zm16.15,4.656L60.6,57.909l-4.323-2.5,5.524-1.48.926.535.013.007Z" transform="translate(-25.439 -33.543)" fill="#009cde" stroke="#009cde" stroke-width="0.2"/>
      </g>
    </g>
    <g id="Grupo_962" data-name="Grupo 962" transform="translate(0 25.87)">
      <g id="Grupo_961" data-name="Grupo 961">
        <path id="Caminho_2566" data-name="Caminho 2566" d="M6.955,273.457H4.044A4.048,4.048,0,0,0,0,277.5v17.253a.809.809,0,0,0,.809.809H10.19a.809.809,0,0,0,.809-.809V277.5A4.048,4.048,0,0,0,6.955,273.457Zm2.426,20.488H1.617V277.5a2.429,2.429,0,0,1,2.426-2.426H6.955A2.429,2.429,0,0,1,9.381,277.5Z" transform="translate(0 -273.457)" fill="#009cde" stroke="#009cde" stroke-width="0.2"/>
      </g>
    </g>
    <g id="Grupo_964" data-name="Grupo 964" transform="translate(3.235 29.21)">
      <g id="Grupo_963" data-name="Grupo 963">
        <path id="Caminho_2567" data-name="Caminho 2567" d="M33.72,304.432H30.809a.809.809,0,0,0-.809.809v2.911a.809.809,0,0,0,1.617,0v-2.1h1.294v2.1a.809.809,0,0,0,1.617,0v-2.911A.809.809,0,0,0,33.72,304.432Z" transform="translate(-30 -304.432)" fill="#009cde" stroke="#009cde" stroke-width="0.2"/>
      </g>
    </g>
    <g id="Grupo_966" data-name="Grupo 966" transform="translate(42.431 31.386)">
      <g id="Grupo_965" data-name="Grupo 965">
        <path id="Caminho_2568" data-name="Caminho 2568" d="M397,324.611a3.5,3.5,0,1,0,3.5,3.5A3.508,3.508,0,0,0,397,324.611ZM397,330a1.887,1.887,0,1,1,1.887-1.887A1.889,1.889,0,0,1,397,330Z" transform="translate(-393.5 -324.611)" fill="#009cde" stroke="#009cde" stroke-width="0.2"/>
      </g>
    </g>
  </g>
</svg>
