<svg xmlns="http://www.w3.org/2000/svg" width="29.005" height="53.666" viewBox="0 0 29.005 53.666">
  <g id="pedestrian-walking" transform="translate(1 1)">
    <g id="Grupo_924" data-name="Grupo 924" transform="translate(0 0)">
      <path id="Caminho_2533" data-name="Caminho 2533" d="M189.547,8.346A3.891,3.891,0,0,0,192.4,7.028a4.048,4.048,0,0,0,1.1-2.964,4.166,4.166,0,0,0-1.262-2.909A3.781,3.781,0,0,0,189.328,0a3.891,3.891,0,0,0-2.854,1.317,4.254,4.254,0,0,0-1.153,2.964,3.881,3.881,0,0,0,1.262,2.909A3.953,3.953,0,0,0,189.547,8.346Z" transform="translate(-177.307 0)" fill="none" stroke="#009cde" stroke-width="2"/>
      <path id="Caminho_2534" data-name="Caminho 2534" d="M138.448,97.476l-6.038-3.293-4.94-7.9a4.365,4.365,0,0,0-3.513-1.756,4.039,4.039,0,0,0-2.744,1.208L113.748,93.3a2.415,2.415,0,0,0-.439.988l-.988,8.453v.22a1.874,1.874,0,0,0,1.866,1.866,1.623,1.623,0,0,0,1.262-.549,2.369,2.369,0,0,0,.6-1.208l.768-7.245,2.635-2.635-2.415,20.2-4.281,9.551a3.843,3.843,0,0,0-.22,1.208,2.761,2.761,0,0,0,.823,2.031,2.426,2.426,0,0,0,2.031.714,2.54,2.54,0,0,0,2.415-1.537l4.611-10.319a1.253,1.253,0,0,1,.11-.384q.11-.275.22-.494a.976.976,0,0,0,.11-.439l.549-4.94,4.72,16.247a2.59,2.59,0,0,0,2.744,1.866,2.633,2.633,0,0,0,1.921-.823,2.762,2.762,0,0,0,.823-2.031.9.9,0,0,0-.055-.274.905.905,0,0,1-.055-.275l-6.587-22.5.768-7.355,1.866,2.964a1.959,1.959,0,0,0,.549.549l6.477,3.623a3.6,3.6,0,0,0,.878.22,1.719,1.719,0,0,0,1.317-.6,1.985,1.985,0,0,0,.549-1.372A1.72,1.72,0,0,0,138.448,97.476Z" transform="translate(-112.321 -75.244)" fill="none" stroke="#009cde" stroke-width="2"/>
    </g>
  </g>
</svg>
