<svg xmlns="http://www.w3.org/2000/svg" width="69.307" height="57.202" viewBox="0 0 69.307 57.202">
  <g id="Grupo_2361" data-name="Grupo 2361" transform="translate(0.5 0.516)">
    <g id="noun_Key_781205" transform="translate(46.116 0)">
      <g id="Grupo_954" data-name="Grupo 954" transform="translate(0 0)">
        <path id="Caminho_2560" data-name="Caminho 2560" d="M5.1,959.547a4.322,4.322,0,0,0,.189,3.547,4.555,4.555,0,0,0,4.287,7.374l8.339,8.339c.654-.161,1.432-.412,2.189-.612.05-.766.117-1.677.181-2.551q-.548-.173-1.094-.355c-.114-.34-.233-.681-.332-1.026-.343-.107-.691-.221-1.034-.332-.1-.318-.205-.631-.3-.951-.347-.344-.775-.762-1.177-1.162a3.351,3.351,0,0,1-1.14.189l-.2-.2a3,3,0,0,1,.211-1.1c-.347-.377-.718-.738-1.072-1.109a4.421,4.421,0,0,0,.483-1.125.765.765,0,0,0-.2-.634,1.455,1.455,0,0,0-.974-.363,1.164,1.164,0,0,1-.453-.106,4.457,4.457,0,0,0-.966-4.611,4.563,4.563,0,0,0-6.4-.045A3.86,3.86,0,1,1,13.014,961a4.089,4.089,0,0,0-1.343-.641A4.542,4.542,0,0,0,7.429,961.4a4.789,4.789,0,0,1,1.049-.189,4.071,4.071,0,0,1,3.072-.385,4.014,4.014,0,0,1,2.853,3.351c.053.146,0,.156.174.2a1.255,1.255,0,0,0,.891-.2.965.965,0,0,1,.687-.136.242.242,0,0,1,.181.174,4.067,4.067,0,0,1,.091.936.574.574,0,0,0,.2.491c.421.156.927.275,1.374.408a5.329,5.329,0,0,0,.445,1.094c.219.056.411.11.649.174a4.116,4.116,0,0,0,.966-.717l1.23.324c.277.25.551.5.83.747.353-.075.7-.146,1.057-.219l.808.709c.329-.063.66-.136.989-.2l.808,1.668-1.155,1.177-9.766-2.626a1.183,1.183,0,0,1-.015.5q4.963,1.332,9.924,2.664c.491-.495,1.047-1.064,1.585-1.622-.337-.68-.738-1.507-1.117-2.3-.369.086-.739.156-1.109.234-.27-.239-.537-.478-.808-.717l-1.057.227c-.246-.224-.486-.457-.74-.672-.472-.127-1.048-.284-1.6-.415a3.547,3.547,0,0,1-.891.732l-.264-.068a2.789,2.789,0,0,1-.377-1.079c-.493-.141-.986-.275-1.479-.415a4.809,4.809,0,0,0-.136-1.223.774.774,0,0,0-.506-.438,1.439,1.439,0,0,0-1.019.166,1.16,1.16,0,0,1-.445.136,4.852,4.852,0,0,0-1.313-2.46A4.349,4.349,0,0,0,5.1,959.547Zm3.713,2.362A4.063,4.063,0,0,1,11.7,963.1a4.007,4.007,0,0,1,.8,4.324l-.06.143.113.113a1.247,1.247,0,0,0,.868.272.991.991,0,0,1,.672.226.242.242,0,0,1,.068.241,4.223,4.223,0,0,1-.392.853.576.576,0,0,0-.068.528c.291.321.628.677.981,1.034a4.941,4.941,0,0,0-.143,1.177l.468.468a4.043,4.043,0,0,0,1.208-.121l.891.875c.117.359.228.716.355,1.072.341.113.678.228,1.019.34.115.341.233.677.347,1.019l.951.317-.128,1.842-1.585.445-8.309-8.309-.128.023a4.082,4.082,0,0,1-4.068-6.438,4.308,4.308,0,0,0,.958,1.019.951.951,0,0,0,.272.74.958.958,0,1,0,0-1.359,1.02,1.02,0,0,0-.113.129,3.875,3.875,0,0,1-.792-.913c.019-.019.034-.041.053-.06a4.059,4.059,0,0,1,2.883-1.192Zm5.57,4.656a.252.252,0,0,0-.2.174.259.259,0,0,0,.174.3l9.962,2.664c.183-.016.209.008.294-.158a.252.252,0,0,0-.166-.3l-9.962-2.672a.254.254,0,0,0-.1-.007ZM11.2,969.479a.238.238,0,0,0-.174.408l7.306,7.291c.089.026.224.108.347.007a.253.253,0,0,0-.007-.347l-7.306-7.291a.231.231,0,0,0-.166-.068Z" transform="translate(-4.267 -956.8)" fill="#009cde" stroke="#009cde" stroke-width="1"/>
      </g>
    </g>
    <g id="noun_Telephone_2365091" transform="translate(0 12.717)">
      <g id="Grupo_955" data-name="Grupo 955" transform="translate(0 0)">
        <path id="Caminho_2561" data-name="Caminho 2561" d="M8.578,272.51a5.4,5.4,0,0,0-5.34,4.569,5.387,5.387,0,0,0-2.577,4.6v25.128a5.387,5.387,0,0,0,2.577,4.6,5.4,5.4,0,0,0,10.491.8H43.756a5.4,5.4,0,0,0,5.4-5.4V281.681a5.4,5.4,0,0,0-5.4-5.4H13.729a5.4,5.4,0,0,0-5.151-3.769Zm0,.753a4.624,4.624,0,0,1,4.492,3.461c0,.008,0,.016,0,.025a5.019,5.019,0,0,1,.1.514c0,.025.008.05.011.076.008.061.013.124.019.186.01.128.02.257.02.388v32.667c0,.131-.009.26-.02.388-.006.062-.011.125-.019.187,0,.023-.007.047-.01.07a5.006,5.006,0,0,1-.1.518c0,.009,0,.019-.006.029A4.646,4.646,0,0,1,3.96,311.1c0-.033-.006-.066-.009-.1-.012-.138-.021-.277-.021-.418V277.912c0-.141.009-.28.021-.418,0-.033.005-.066.009-.1a4.627,4.627,0,0,1,4.619-4.131Zm-.19,2.68a3.205,3.205,0,0,0-2.654,1.786.377.377,0,0,0,.661.365,2.353,2.353,0,0,1,2.168-1.4,2.82,2.82,0,0,1,2.209,1.417.377.377,0,1,0,.637-.4,3.57,3.57,0,0,0-2.818-1.768q-.1,0-.2,0Zm5.52,1.089H43.758a4.629,4.629,0,0,1,4.648,4.648v25.128a4.63,4.63,0,0,1-4.648,4.649H13.908a5.453,5.453,0,0,0,.072-.88V277.911a5.452,5.452,0,0,0-.072-.879ZM3.175,278.221v32.049a4.5,4.5,0,0,1-1.758-3.462V281.681A4.5,4.5,0,0,1,3.175,278.221Zm14.951.822a.377.377,0,0,0-.376.376v7.538a.377.377,0,0,0,.376.377h25.13a.377.377,0,0,0,.376-.377V279.42a.377.377,0,0,0-.376-.376Zm.379.753H42.878v6.786H18.5Zm2.68,9.623a1.633,1.633,0,1,0,1.634,1.632A1.639,1.639,0,0,0,21.184,289.419Zm6.533,0a1.633,1.633,0,1,0,1.634,1.632A1.637,1.637,0,0,0,27.717,289.419Zm6.533,0a1.633,1.633,0,1,0,1.634,1.632A1.637,1.637,0,0,0,34.25,289.419Zm6.03,0a1.633,1.633,0,1,0,1.634,1.632A1.637,1.637,0,0,0,40.28,289.419Zm-19.1.753a.879.879,0,1,1-.879.879A.873.873,0,0,1,21.184,290.173Zm6.533,0a.879.879,0,1,1-.879.879A.873.873,0,0,1,27.717,290.173Zm6.533,0a.879.879,0,1,1-.879.879A.873.873,0,0,1,34.25,290.173Zm6.03,0a.879.879,0,1,1-.879.879A.875.875,0,0,1,40.28,290.173Zm-19.1,4.774a1.633,1.633,0,1,0,1.634,1.632A1.639,1.639,0,0,0,21.184,294.947Zm6.533,0a1.633,1.633,0,1,0,1.634,1.632A1.637,1.637,0,0,0,27.717,294.947Zm6.533,0a1.633,1.633,0,1,0,1.634,1.632A1.637,1.637,0,0,0,34.25,294.947Zm6.03,0a1.633,1.633,0,1,0,1.634,1.632A1.637,1.637,0,0,0,40.28,294.947Zm-19.1.753a.88.88,0,1,1-.879.879A.873.873,0,0,1,21.184,295.7Zm6.533,0a.88.88,0,1,1-.879.879A.873.873,0,0,1,27.717,295.7Zm6.533,0a.88.88,0,1,1-.879.879A.873.873,0,0,1,34.25,295.7Zm6.03,0a.88.88,0,1,1-.879.879A.875.875,0,0,1,40.28,295.7Zm-19.1,4.774a1.633,1.633,0,1,0,1.634,1.634A1.641,1.641,0,0,0,21.184,300.475Zm6.533,0a1.633,1.633,0,1,0,1.634,1.634A1.639,1.639,0,0,0,27.717,300.475Zm6.533,0a1.633,1.633,0,1,0,1.634,1.634A1.639,1.639,0,0,0,34.25,300.475Zm6.03,0a1.633,1.633,0,1,0,1.634,1.634A1.639,1.639,0,0,0,40.28,300.475Zm-19.1.755a.879.879,0,1,1-.879.879A.873.873,0,0,1,21.184,301.23Zm6.533,0a.879.879,0,1,1-.879.879A.873.873,0,0,1,27.717,301.23Zm6.533,0a.879.879,0,1,1-.879.879A.873.873,0,0,1,34.25,301.23Zm6.03,0a.879.879,0,1,1-.879.879A.875.875,0,0,1,40.28,301.23ZM21.184,306a1.633,1.633,0,1,0,1.634,1.634A1.641,1.641,0,0,0,21.184,306Zm6.533,0a1.633,1.633,0,1,0,1.634,1.634A1.639,1.639,0,0,0,27.717,306Zm6.533,0a1.633,1.633,0,1,0,1.634,1.634A1.639,1.639,0,0,0,34.25,306Zm6.03,0a1.633,1.633,0,1,0,1.634,1.634A1.639,1.639,0,0,0,40.28,306Zm-19.1.755a.879.879,0,1,1-.879.879A.873.873,0,0,1,21.184,306.758Zm6.533,0a.879.879,0,1,1-.879.879A.873.873,0,0,1,27.717,306.758Zm6.533,0a.879.879,0,1,1-.879.879A.873.873,0,0,1,34.25,306.758Zm6.03,0a.879.879,0,1,1-.879.879A.875.875,0,0,1,40.28,306.758ZM6.053,311.121a.377.377,0,0,0-.319.566,3.162,3.162,0,0,0,2.857,1.785,3.568,3.568,0,0,0,2.818-1.766.377.377,0,0,0-.637-.4,2.819,2.819,0,0,1-2.209,1.417,2.353,2.353,0,0,1-2.168-1.4.377.377,0,0,0-.342-.2Z" transform="translate(-0.661 -272.51)" fill="#009cde" stroke="#009cde" stroke-width="1"/>
      </g>
    </g>
  </g>
</svg>
