<svg xmlns="http://www.w3.org/2000/svg" width="57.56" height="51.263" viewBox="0 0 57.56 51.263">
  <g id="noun-pool-1208996" transform="translate(-2.335)">
    <path id="Caminho_4208" data-name="Caminho 4208" d="M104.458,83.737a8.244,8.244,0,0,1,9.67,0,12.033,12.033,0,0,0,1.046.618,1.2,1.2,0,0,0,.182.108,10.6,10.6,0,0,0,4.968,1.282,10.867,10.867,0,0,0,6.2-2.007,8.246,8.246,0,0,1,9.672,0,10.57,10.57,0,0,0,12.393,0,1.2,1.2,0,1,0-1.361-1.974,8.249,8.249,0,0,1-9.672,0,11.48,11.48,0,0,0-3.2-1.547V55.6a5.8,5.8,0,0,0-5.8-5.8h-3.7a1.2,1.2,0,0,0,0,2.4h3.7a3.4,3.4,0,0,1,3.4,3.4v1.946H116.99V55.6a5.8,5.8,0,0,0-5.8-5.8h-3.7a1.2,1.2,0,1,0,0,2.4h3.7a3.4,3.4,0,0,1,3.4,3.4V81.234a10.5,10.5,0,0,0-11.5.53,8.249,8.249,0,0,1-9.672,0,1.2,1.2,0,1,0-1.361,1.974,10.572,10.572,0,0,0,12.394,0Zm27.5-10.868H116.99V67.606h14.966Zm-6.8,8.894a8.184,8.184,0,0,1-8.169.824v-7.32h14.966V79.8a10.741,10.741,0,0,0-6.8,1.961Zm6.8-21.819v5.263H116.99V59.945Z" transform="translate(-89.209 -49.805)" fill="#009cde"/>
    <path id="Caminho_4209" data-name="Caminho 4209" d="M147.214,389.6a8.246,8.246,0,0,1-9.672,0,10.569,10.569,0,0,0-12.394,0,8.242,8.242,0,0,1-9.669,0,10.57,10.57,0,0,0-12.393,0,8.246,8.246,0,0,1-9.672,0,1.2,1.2,0,1,0-1.361,1.974,10.568,10.568,0,0,0,12.393,0,8.246,8.246,0,0,1,9.67,0,10.566,10.566,0,0,0,12.393,0,8.25,8.25,0,0,1,9.672,0,10.568,10.568,0,0,0,12.393,0,1.2,1.2,0,1,0-1.361-1.974Z" transform="translate(-89.2 -349.98)" fill="#009cde"/>
    <path id="Caminho_4210" data-name="Caminho 4210" d="M147.212,458.406a8.249,8.249,0,0,1-9.672,0,10.566,10.566,0,0,0-12.393,0,8.244,8.244,0,0,1-9.67,0,10.566,10.566,0,0,0-12.393,0,8.249,8.249,0,0,1-9.672,0,1.2,1.2,0,1,0-1.361,1.974,10.573,10.573,0,0,0,12.394,0,8.244,8.244,0,0,1,9.67,0,10.567,10.567,0,0,0,12.393,0,8.246,8.246,0,0,1,9.672,0,10.57,10.57,0,0,0,12.393,0,1.2,1.2,0,1,0-1.361-1.974Z" transform="translate(-89.198 -411.124)" fill="#009cde"/>
  </g>
</svg>
