<svg xmlns="http://www.w3.org/2000/svg" width="42.76" height="56.151" viewBox="0 0 42.76 56.151">
  <g id="Grupo_2182" data-name="Grupo 2182" transform="translate(0.516 0.506)">
    <path id="Caminho_3134" data-name="Caminho 3134" d="M86.621,48.192,90.466,83.57h27.568l4.172-35.2a5.07,5.07,0,0,0,3.36-4.184c0-.109.109-2.765-2.05-3.76a3.71,3.71,0,0,0-2.038-.291,5.731,5.731,0,0,0,.061-1.213,3.6,3.6,0,0,0-1.395-2.826,4.492,4.492,0,0,0-4.463-.133,4.728,4.728,0,0,0-1.71-3.675,5.422,5.422,0,0,0-5.628-.7,4.723,4.723,0,0,0-4.682-3.153,4.592,4.592,0,0,0-3.651,2.329,6.055,6.055,0,0,0-4.827-1.928,5.876,5.876,0,0,0-5.227,4.378,5.007,5.007,0,0,0-3.833.776,4.513,4.513,0,0,0-1.807,3.639,5.3,5.3,0,0,0,.958,3.287,3.95,3.95,0,0,0-1.286,1.88,4.3,4.3,0,0,0,.509,3.469A5.237,5.237,0,0,0,86.621,48.192Zm1.3.667h6.889l.934,11.68.267-.024a.012.012,0,0,0-.012.012c-2.353,1.371-3.663,3.226-3.663,5.239s1.3,3.869,3.663,5.239q.291.164.619.327L97.5,82.37H91.557Zm15.391,33.5h-4.6l-.837-10.467a17.876,17.876,0,0,0,5.434,1.116Zm1.213-9.327a18.641,18.641,0,0,0,5.506-.825l-.667,10.152h-4.839Zm-.109-1.213a15.815,15.815,0,0,1-7.8-1.868c-1.965-1.14-3.056-2.632-3.056-4.184s1.079-3.044,3.056-4.184a17.215,17.215,0,0,1,15.6,0c1.965,1.14,3.056,2.632,3.056,4.184s-1.079,3.044-3.056,4.184A15.882,15.882,0,0,1,104.413,71.818Zm.109-13.329v-9.63h7.047l-.7,10.746A18.267,18.267,0,0,0,104.523,58.489Zm-1.213.036a17.252,17.252,0,0,0-6.392,1.516l-.9-11.182h7.289Zm13.644,23.832h-6.367l.691-10.612a11.921,11.921,0,0,0,1.528-.752c2.353-1.371,3.663-3.226,3.663-5.24s-1.3-3.869-3.663-5.239c-.243-.146-.5-.279-.764-.412l.74-11.255h8.138Zm-31.789-39.2A3.277,3.277,0,0,1,88.4,41.072h.012a.606.606,0,0,0,.606-.594.616.616,0,0,0-.594-.619h-.085a5.131,5.131,0,0,0-2.025.424,4.087,4.087,0,0,1-.788-2.583,3.436,3.436,0,0,1,1.3-2.717,4.1,4.1,0,0,1,3.408-.449.58.58,0,0,0,.509-.061.6.6,0,0,0,.279-.437,4.635,4.635,0,0,1,4.245-3.978,4.821,4.821,0,0,1,4.378,2.232.608.608,0,0,0,.606.279.6.6,0,0,0,.5-.437,3.406,3.406,0,0,1,2.984-2.474,3.447,3.447,0,0,1,3.59,2.923.576.576,0,0,0,.352.461.622.622,0,0,0,.582-.036,4.3,4.3,0,0,1,4.936.218,3.5,3.5,0,0,1,1.079,3.845.608.608,0,0,0,.995.631,3.519,3.519,0,0,1,4.184-.606,2.534,2.534,0,0,1,.873,1.9,3.384,3.384,0,0,1-.934,2.7,2.519,2.519,0,0,1-1.71.582.608.608,0,0,0-.606.606.6.6,0,0,0,.606.606h0a3.749,3.749,0,0,0,2.523-.9,3.83,3.83,0,0,0,.861-1.164c.036,0,.061-.012.1-.012a2.7,2.7,0,0,1,1.831.1c1.407.655,1.346,2.583,1.346,2.608a4.042,4.042,0,0,1-3.093,3.3.614.614,0,0,0-.3.218H88.465a.562.562,0,0,0-.364-.23,3.821,3.821,0,0,1-2.535-1.771A3.15,3.15,0,0,1,85.166,43.158Z" transform="translate(-83.822 -28.426)" fill="#009cde" stroke="#009cde" stroke-width="1"/>
    <path id="Caminho_3135" data-name="Caminho 3135" d="M160.308,88.161a.605.605,0,1,0,.5-1.1,3.01,3.01,0,0,1-1.953-3.081c.255-1.395,1.928-1.965,2.438-2.11a4.38,4.38,0,0,1,3.639.764.585.585,0,0,0,.594.073.608.608,0,0,0,.364-.473,3.178,3.178,0,0,1,.946-1.928,3.215,3.215,0,0,1,2.353-.691,4.148,4.148,0,0,1,2.826,1.346,4.047,4.047,0,0,1,.861,2.874.619.619,0,0,0,.34.582.591.591,0,0,0,.667-.1,3.67,3.67,0,0,1,2.571-.995,3.927,3.927,0,0,1,2.632,1.346,2.082,2.082,0,0,1,.534,1.565,2.9,2.9,0,0,1-2.05,2.1.6.6,0,0,0-.364.776.605.605,0,0,0,.776.364,4,4,0,0,0,2.838-3.081A3.2,3.2,0,0,0,180,83.9a5.143,5.143,0,0,0-3.493-1.783,4.523,4.523,0,0,0-2.486.606,4.875,4.875,0,0,0-1.116-2.559,5.356,5.356,0,0,0-3.663-1.759,4.437,4.437,0,0,0-3.238.982,3.987,3.987,0,0,0-1.152,1.8,5.358,5.358,0,0,0-3.93-.485c-.679.194-2.935.97-3.311,3.069A4.316,4.316,0,0,0,160.308,88.161Z" transform="translate(-148.631 -72.337)" fill="#009cde" stroke="#009cde" stroke-width="1"/>
    <path id="Caminho_3136" data-name="Caminho 3136" d="M226.911,135.6a2.556,2.556,0,0,0-2.814-.109,2.709,2.709,0,0,0-1.831-.558,2.749,2.749,0,0,0-2.5,2.377,2.829,2.829,0,0,0,.934,2.365.578.578,0,0,0,.4.158.6.6,0,0,0,.449-.206.612.612,0,0,0-.048-.861,1.691,1.691,0,0,1-.546-1.322,1.546,1.546,0,0,1,1.383-1.31,1.6,1.6,0,0,1,1.261.546.6.6,0,0,0,.861.024,1.351,1.351,0,0,1,2.171,1.528.605.605,0,1,0,1.1.5A2.506,2.506,0,0,0,226.911,135.6Z" transform="translate(-203.264 -122.012)" fill="#009cde" stroke="#009cde" stroke-width="1"/>
  </g>
</svg>
