<svg id="Grupo_2360" data-name="Grupo 2360" xmlns="http://www.w3.org/2000/svg" width="65.46" height="46.034" viewBox="0 0 65.46 46.034">
  <g id="noun_dinner_162945" transform="translate(0 0)">
    <g id="Grupo_979" data-name="Grupo 979" transform="translate(0 0)">
      <path id="Caminho_2577" data-name="Caminho 2577" d="M76.434,66.252a1.08,1.08,0,0,0-1-.665H72.113V64.174A2.917,2.917,0,0,0,69.288,61.1H48.681a2.866,2.866,0,0,0-2.825,3.074v1.413H14.28a1.08,1.08,0,0,0-1,.665,1.029,1.029,0,0,0,.249,1.163c.748.665,7.229,6.731,10.719,6.731h41.3c3.49,0,9.971-5.983,10.719-6.731A1.136,1.136,0,0,0,76.434,66.252Zm-28.5-2.077c0-.083,0-.914.748-.914H69.288c.582,0,.748.582.748.914v1.413h-22.1Zm17.533,7.811h-41.3c-1.5,0-4.653-2.16-7.146-4.238h55.59C70.119,69.825,66.962,71.985,65.466,71.985Z" transform="translate(-11.06 -28.112)" fill="#009cde"/>
      <path id="Caminho_2578" data-name="Caminho 2578" d="M54.172,48.331l2.659-1.911,3.739,1.994a1.233,1.233,0,0,0,1.08,0l3.49-2.077L69.3,48.414a1.059,1.059,0,0,0,1,0l3.49-1.994,3.324,1.994a1.2,1.2,0,0,0,.582.166,1.043,1.043,0,0,0,.914-.5,1.082,1.082,0,0,0-.332-1.5L74.364,44.26a1.233,1.233,0,0,0-1.08,0l-3.49,2.077L65.639,44.26a1.059,1.059,0,0,0-1,0l-3.49,1.994L57.33,44.176a1.171,1.171,0,0,0-1.163.083l-3.158,2.327a1.064,1.064,0,0,0-.249,1.5A.956.956,0,0,0,54.172,48.331Z" transform="translate(-17.715 -25.231)" fill="#009cde"/>
      <path id="Caminho_2579" data-name="Caminho 2579" d="M54.974,57.349H76A3.074,3.074,0,1,0,76,51.2H54.974a3.074,3.074,0,1,0,0,6.149Zm0-4.072H76a.922.922,0,0,1,.914.914,1,1,0,0,1-.914,1H54.974a.922.922,0,0,1-.914-.914A1,1,0,0,1,54.974,53.277Z" transform="translate(-17.603 -26.438)" fill="#009cde"/>
      <path id="Caminho_2580" data-name="Caminho 2580" d="M53.5,38.963h24.18a1.1,1.1,0,0,0,1.08-1.08C78.756,33.312,75.183,26,65.627,26S52.5,33.312,52.5,37.882A.981.981,0,0,0,53.5,38.963Zm12.132-10.8C73.6,28.16,76.1,33.645,76.6,36.8H54.659C55.157,33.645,57.567,28.16,65.627,28.16Z" transform="translate(-17.703 -22.178)" fill="#009cde"/>
      <path id="Caminho_2581" data-name="Caminho 2581" d="M28.684,41.509v7.312a1.08,1.08,0,0,0,2.16,0V41.509c3.49-.5,11.3-3.49,11.3-13.794V22.48a1.1,1.1,0,0,0-1.08-1.08H18.38a1.1,1.1,0,0,0-1.08,1.08v5.235C17.3,38.019,25.111,41.01,28.684,41.509Zm1.08-1.994A10.915,10.915,0,0,1,19.544,28.8H39.985A10.991,10.991,0,0,1,29.764,39.514ZM39.985,23.477v3.158H19.46V23.477Z" transform="translate(-11.753 -21.4)" fill="#009cde"/>
      <ellipse id="Elipse_213" data-name="Elipse 213" cx="0.997" cy="0.997" rx="0.997" ry="0.997" transform="translate(40.197 10.802)" fill="#009cde"/>
      <ellipse id="Elipse_214" data-name="Elipse 214" cx="0.997" cy="0.997" rx="0.997" ry="0.997" transform="translate(43.354 8.309)" fill="#009cde"/>
      <ellipse id="Elipse_215" data-name="Elipse 215" cx="0.997" cy="0.997" rx="0.997" ry="0.997" transform="translate(46.761 10.802)" fill="#009cde"/>
      <ellipse id="Elipse_216" data-name="Elipse 216" cx="0.997" cy="0.997" rx="0.997" ry="0.997" transform="translate(50.002 8.309)" fill="#009cde"/>
      <ellipse id="Elipse_217" data-name="Elipse 217" cx="0.997" cy="0.997" rx="0.997" ry="0.997" transform="translate(53.242 10.802)" fill="#009cde"/>
      <path id="Caminho_2582" data-name="Caminho 2582" d="M16.338,62.488a1.34,1.34,0,0,0,.748-.249,1.057,1.057,0,0,0,.083-1.5L13.18,56.422l1.163-1.246,5.65,6.066a1.059,1.059,0,0,0,1.579-1.413l-6.4-6.9a.9.9,0,0,0-.748-.332.81.81,0,0,0-.748.332l-2.742,2.659a1.053,1.053,0,0,0,0,1.5l4.653,5.069A1.237,1.237,0,0,0,16.338,62.488Z" transform="translate(-10.625 -26.675)" fill="#009cde"/>
      <path id="Caminho_2583" data-name="Caminho 2583" d="M21.514,50.3a1.067,1.067,0,0,0-.831.332l-1.246,1.329a1.058,1.058,0,0,0,1.5,1.5l.415-.415L26.5,59.607a1.154,1.154,0,0,0,.831.415A.944.944,0,0,0,28,59.773a.988.988,0,0,0,.166-1.5l-5.9-7.478A.727.727,0,0,0,21.514,50.3Z" transform="translate(-12.062 -26.286)" fill="#009cde"/>
      <path id="Caminho_2584" data-name="Caminho 2584" d="M44.578,56.266a1.367,1.367,0,0,0-.831-.166l-8.808,2.16a1.079,1.079,0,0,0,.582,2.077l7.728-1.911.332,1.5a30.84,30.84,0,0,0-3.158.914,1.054,1.054,0,0,0-.665,1.329,1.164,1.164,0,0,0,1,.748.5.5,0,0,0,.332-.083c.249-.083,2.576-.748,3.988-1.08a.984.984,0,0,0,.748-1.246l-.748-3.573A2,2,0,0,0,44.578,56.266Z" transform="translate(-14.602 -27.266)" fill="#009cde"/>
    </g>
  </g>
</svg>
