<svg id="road" xmlns="http://www.w3.org/2000/svg" width="64.34" height="41.495" viewBox="0 0 64.34 41.495">
  <path id="Caminho_2612" data-name="Caminho 2612" d="M50.832,26.523a13.416,13.416,0,0,0-4.4.753L42.04,17.187h6.2a1.556,1.556,0,0,1,0,3.112H45.645v2.075h2.593a3.631,3.631,0,1,0,0-7.262h-7.78a1.037,1.037,0,0,0-.951,1.452l2.075,4.772H24.2l-1.217-3.8,3.49-1.164A2.243,2.243,0,0,0,25.767,12h-7.7a2.5,2.5,0,0,0-1.771,4.275l.59.59A4.564,4.564,0,0,0,21,18.141l1.114,3.481a1.014,1.014,0,0,0-.207.266l-3.048,5.757A13.486,13.486,0,1,0,26.191,44.5a4.135,4.135,0,0,0,3.686,2.752l.779,2.337a1.037,1.037,0,0,0,.96.71l3.631.086.048-2.075-2.9-.068-.473-1.417a4.1,4.1,0,0,0,1.349-6.328L43.654,26.108l.868,2a13.472,13.472,0,1,0,6.309-1.581ZM20.976,16.018a2.586,2.586,0,0,1-2.625-.622l-.59-.59a.429.429,0,0,1,.3-.73h7.7a.168.168,0,0,1,.053.328Zm-7.49,35.4a11.411,11.411,0,1,1,4.4-21.938L12.569,39.523a1.037,1.037,0,0,0,.726,1.5l11.16,2.093a11.424,11.424,0,0,1-10.969,8.3ZM24.842,41.086,15.063,39.25l4.653-8.784A11.411,11.411,0,0,1,24.9,40.009c0,.363-.021.726-.055,1.077Zm2.108-.655c.005-.141.022-.28.022-.422a13.476,13.476,0,0,0-6.285-11.383L22.974,24.3l4.9,15.317A4.135,4.135,0,0,0,26.95,40.431Zm4.307,4.4-.709-2.124-1.971.656.525,1.577a2.066,2.066,0,1,1,2.15-.11Zm.337-5.563a4.114,4.114,0,0,0-1.51-.295c-.079,0-.152.019-.23.023L24.866,23.411H42.484l.207.48ZM50.832,51.42A11.411,11.411,0,0,1,45.351,30L49.88,40.424l1.9-.83L47.255,29.179A11.411,11.411,0,1,1,50.832,51.42Z" transform="translate(0.012 -12)" fill="#009cde"/>
</svg>
