<svg id="spa" xmlns="http://www.w3.org/2000/svg" width="54.952" height="50.372" viewBox="0 0 54.952 50.372">
  <g id="Grupo_936" data-name="Grupo 936" transform="translate(0 0)">
    <g id="Grupo_935" data-name="Grupo 935" transform="translate(0 0)">
      <path id="Caminho_2549" data-name="Caminho 2549" d="M54.035,61.217H53.018a6.392,6.392,0,0,0-1.191-10.074A6.405,6.405,0,0,0,48.54,39.236H40.3V32.826a.916.916,0,0,0-1.055-.9L28.391,33.589v-.855a4.587,4.587,0,0,0,3.663-4.488c0-4-3.771-7.814-3.932-7.974a.916.916,0,0,0-1.3,0c-.161.16-3.932,3.978-3.932,7.974a4.587,4.587,0,0,0,3.663,4.488v1.138L15.43,35.585a.916.916,0,0,0-.777.9v10.2a10.021,10.021,0,0,0-2.29-1.837.916.916,0,0,0-.916,0A10.119,10.119,0,0,0,6.5,52.261a9.942,9.942,0,0,0-1.923-.2,10,10,0,0,0-1.209.079.916.916,0,0,0-.733.55A10.066,10.066,0,0,0,6.124,64.88H0v1.832H2.182L3.76,69.869a.916.916,0,0,0,.82.506h34.8a.916.916,0,0,0,.916-.916V66.712h5.845l1.578,3.157a.916.916,0,0,0,.82.506H52.2a.916.916,0,0,0,.916-.916V66.712h.916a.916.916,0,0,0,.916-.916V62.133A.916.916,0,0,0,54.035,61.217Zm-.916-4.579a4.585,4.585,0,0,1-4.579,4.579H32.055a4.579,4.579,0,0,1,0-9.159H43.961a2.748,2.748,0,0,1,0,5.5H34.8a.916.916,0,1,1,0-1.832h6.411V53.89H34.8a2.748,2.748,0,1,0,0,5.5h9.159a4.585,4.585,0,0,0,4.579-4.579,4.532,4.532,0,0,0-.94-2.748h.94A4.585,4.585,0,0,1,53.119,56.638Zm-7.327-15.57a2.748,2.748,0,1,1,0,5.5H36.634a.916.916,0,0,1,0-1.832h6.411V42.9H36.634a2.748,2.748,0,1,0,0,5.5h9.159a4.585,4.585,0,0,0,4.579-4.579,4.536,4.536,0,0,0-.846-2.634,4.579,4.579,0,0,1-.985,9.045H35.718a4.579,4.579,0,0,1,0-9.159ZM24.728,28.246c0-2.342,1.763-4.777,2.748-5.953.985,1.175,2.748,3.606,2.748,5.953a2.748,2.748,0,0,1-1.832,2.579V29.162H26.56v1.663A2.748,2.748,0,0,1,24.728,28.246ZM11.906,46.726a8.271,8.271,0,0,1,3.613,6.05,10.1,10.1,0,0,0-3.6,2.454,10.136,10.136,0,0,0-3.622-2.439A8.269,8.269,0,0,1,11.906,46.726Zm4.594,7.63a8.246,8.246,0,0,1,2.733-.466c.144,0,.294.005.451.016A8.243,8.243,0,0,1,11.906,64.88c-.144,0-.294-.005-.451-.016A8.243,8.243,0,0,1,16.5,54.356ZM3.663,56.638a8.193,8.193,0,0,1,.465-2.732c.157-.01.307-.016.451-.016A8.157,8.157,0,0,1,10.763,56.7a9.918,9.918,0,0,0-1.31,7.809A8.243,8.243,0,0,1,3.663,56.638Zm15,11.906H5.145l-.916-1.832H19.583Zm8.809,0H20.715l.916-1.832h2.182V64.88H17.681a10.06,10.06,0,0,0,3.494-12.193.916.916,0,0,0-.733-.55,9.652,9.652,0,0,0-3.129.11,10.031,10.031,0,0,0-.886-2.937h.059V37.275l21.98-3.381v5.343H35.718a6.4,6.4,0,0,0-4.424,11.04,6.4,6.4,0,0,0-3.717,10.941H26.56a.916.916,0,0,0-.916.916V65.8a.916.916,0,0,0,.916.916h.916Zm4.013,0H29.307V66.712h3.1Zm6.977,0H33.537l.916-1.832h4.013Zm12.822,0H49.106l-.916-1.832h3.1Zm1.832-3.663H27.476V63.049H53.119Z" transform="translate(0 -20.004)" fill="#009cde"/>
    </g>
  </g>
  <g id="Grupo_938" data-name="Grupo 938" transform="translate(18.317 19.233)">
    <g id="Grupo_937" data-name="Grupo 937" transform="translate(0 0)">
      <rect id="Ret창ngulo_1532" data-name="Ret창ngulo 1532" width="1.832" height="7.327" fill="#009cde"/>
    </g>
  </g>
  <g id="Grupo_940" data-name="Grupo 940" transform="translate(18.317 28.391)">
    <g id="Grupo_939" data-name="Grupo 939" transform="translate(0 0)">
      <rect id="Ret창ngulo_1533" data-name="Ret창ngulo 1533" width="1.832" height="1.832" fill="#009cde"/>
    </g>
  </g>
</svg>
