<svg xmlns="http://www.w3.org/2000/svg" width="558.65" height="416.261" viewBox="0 0 558.65 416.261">
  <g id="Startup_life-rafiki" data-name="Startup life-rafiki" transform="translate(0 -55)">
    <g id="freepik--background-complete--inject-2" transform="translate(0 55)">
      <rect id="Retângulo_4329" data-name="Retângulo 4329" width="558.65" height="0.279" transform="translate(0 365.804)" fill="#ebebeb"/>
      <rect id="Retângulo_4330" data-name="Retângulo 4330" width="37.005" height="0.279" transform="translate(465.668 383.781)" fill="#ebebeb"/>
      <rect id="Retângulo_4331" data-name="Retângulo 4331" width="9.709" height="0.279" transform="translate(360.363 386.821)" fill="#ebebeb"/>
      <rect id="Retângulo_4332" data-name="Retângulo 4332" width="21.441" height="0.279" transform="translate(443.11 373.413)" fill="#ebebeb"/>
      <rect id="Retângulo_4333" data-name="Retângulo 4333" width="48.256" height="0.279" transform="translate(58.614 375.29)" fill="#ebebeb"/>
      <rect id="Retângulo_4334" data-name="Retângulo 4334" width="7.073" height="0.279" transform="translate(116.825 375.29)" fill="#ebebeb"/>
      <rect id="Retângulo_4335" data-name="Retângulo 4335" width="104.669" height="0.279" transform="translate(146.891 380.005)" fill="#ebebeb"/>
      <path id="Caminho_4061" data-name="Caminho 4061" d="M260.318,370.973H44.579a6.38,6.38,0,0,1-6.369-6.38V61.324A6.38,6.38,0,0,1,44.579,55h215.74a6.38,6.38,0,0,1,6.38,6.38V364.593A6.38,6.38,0,0,1,260.318,370.973ZM44.579,55.223a6.1,6.1,0,0,0-6.089,6.1V364.593a6.1,6.1,0,0,0,6.089,6.1h215.74a6.112,6.112,0,0,0,6.1-6.1V61.324a6.112,6.112,0,0,0-6.1-6.1Z" transform="translate(4.482 -55)" fill="#ebebeb"/>
      <path id="Caminho_4062" data-name="Caminho 4062" d="M476.63,370.973H260.88a6.391,6.391,0,0,1-6.38-6.38V61.324A6.391,6.391,0,0,1,260.88,55H476.63a6.38,6.38,0,0,1,6.357,6.324V364.593A6.38,6.38,0,0,1,476.63,370.973ZM260.88,55.223a6.112,6.112,0,0,0-6.1,6.1V364.593a6.112,6.112,0,0,0,6.1,6.1H476.63a6.112,6.112,0,0,0,6.1-6.1V61.324a6.112,6.112,0,0,0-6.1-6.1Z" transform="translate(29.853 -55)" fill="#ebebeb"/>
      <circle id="Elipse_417" data-name="Elipse 417" cx="42.357" cy="42.357" r="42.357" transform="translate(341.578 215.403) rotate(-45)" fill="#f0f0f0"/>
      <path id="Caminho_4063" data-name="Caminho 4063" d="M71.9,184.913H187.885s-1.676-9.184-23.139-8.659c4.257-13.408-7.754-28.044-34.849-28.6s-17.575,21.229-17.575,21.229-45.541-7.821-31.765,8.4C57.988,178.142,53.53,181.025,71.9,184.913Z" transform="translate(7.095 -44.133)" fill="#f0f0f0"/>
      <path id="Caminho_4064" data-name="Caminho 4064" d="M356.748,235.373c2.637-13.2-19.91-27.653-61.452-28.212s-20.7,20.972-20.7,20.972-71.742-7.821-46.033,8.279c-34.212.771-40.223,3.62-11.028,7.508H394.546S389.34,234.915,356.748,235.373Z" transform="translate(23.324 -37.153)" fill="#fafafa"/>
      <path id="Caminho_4065" data-name="Caminho 4065" d="M322.88,149.535H443.057s26.815-15.4-4.972-17.385c5.464-13.162-7.955-35.485-54.871-36s-22.592,30.29-22.592,30.29-71.507-20.614-46.424,12.167C303.249,138.608,264.289,149.535,322.88,149.535Z" transform="translate(34.176 -50.174)" fill="#f5f5f5"/>
      <path id="Caminho_4066" data-name="Caminho 4066" d="M95.8,289.15h54s12.056-6.916-2.235-7.821c2.458-5.911-3.575-15.944-24.659-16.179s-10.145,13.609-10.145,13.609-32.134-9.251-20.871,5.475C86.982,284.245,69.463,289.15,95.8,289.15Z" transform="translate(9.575 -30.35)" fill="#f5f5f5"/>
      <path id="Caminho_4067" data-name="Caminho 4067" d="M94.843,98.27S79.6,88.5,69,102.393c8.7-8.626,25.251.067,25.251.067s18.994-8.6,25.251,0C112.765,88.594,94.843,98.27,94.843,98.27Z" transform="translate(8.094 -50.316)" fill="#f0f0f0"/>
      <path id="Caminho_4068" data-name="Caminho 4068" d="M166.883,213.211s-9.162-5.877-15.553,2.48c5.251-5.2,15.206,0,15.206,0s11.4-5.184,15.206,0C177.676,207.423,166.883,213.211,166.883,213.211Z" transform="translate(17.751 -36.677)" fill="#f0f0f0"/>
      <path id="Caminho_4069" data-name="Caminho 4069" d="M315.591,91.245s-4.581-2.938-7.821,1.24c2.626-2.6,7.609,0,7.609,0s5.7-2.581,7.6,0C320.988,88.329,315.591,91.245,315.591,91.245Z" transform="translate(36.102 -50.866)" fill="#f5f5f5"/>
      <path id="Caminho_4070" data-name="Caminho 4070" d="M415.891,181.025s-4.592-2.939-7.821,1.24c2.614-2.592,7.6,0,7.6,0s5.7-2.592,7.6,0C421.276,178.109,415.891,181.025,415.891,181.025Z" transform="translate(47.867 -40.335)" fill="#f5f5f5"/>
    </g>
    <g id="freepik--Shadow--inject-2" transform="translate(62.692 445.966)">
      <ellipse id="freepik--path--inject-2" cx="216.633" cy="12.648" rx="216.633" ry="12.648" fill="#f5f5f5"/>
    </g>
    <g id="freepik--Rocket--inject-2" transform="translate(116.314 340.734)">
      <path id="Caminho_4071" data-name="Caminho 4071" d="M193.774,358.938c3.81,22.056-13.977,32.916-31.284,27.441-11.788-3.743-23.463-.871-31.374,2.9a1.52,1.52,0,0,1-1.8-2.346,54.636,54.636,0,0,1,4.257-4.547,1.5,1.5,0,0,0-1.486-2.514c-6.883,2.1-17.028,4.067-26.815,1.765a1.508,1.508,0,0,1-.425-2.771c9.776-5.788,24.692-20.994,38.67-25.933a1.508,1.508,0,0,0-.592-2.927,50.972,50.972,0,0,0-6.57.8,1.508,1.508,0,0,1-1.117-2.771C154.836,335.877,188.9,330.771,193.774,358.938Z" transform="translate(-104.103 -307.504)" fill="#407bff"/>
      <path id="Caminho_4072" data-name="Caminho 4072" d="M193.774,358.938c3.81,22.056-13.977,32.916-31.284,27.441-11.788-3.743-23.463-.871-31.374,2.9a1.52,1.52,0,0,1-1.8-2.346,54.636,54.636,0,0,1,4.257-4.547,1.5,1.5,0,0,0-1.486-2.514c-6.883,2.1-17.028,4.067-26.815,1.765a1.508,1.508,0,0,1-.425-2.771c9.776-5.788,24.692-20.994,38.67-25.933a1.508,1.508,0,0,0-.592-2.927,50.972,50.972,0,0,0-6.57.8,1.508,1.508,0,0,1-1.117-2.771C154.836,335.877,188.9,330.771,193.774,358.938Z" transform="translate(-104.103 -307.504)" fill="#fff" opacity="0.7"/>
      <path id="Caminho_4073" data-name="Caminho 4073" d="M163.628,391.882l-7.486-57.63a2.134,2.134,0,0,1,2.235-2.391l36.312,2.592a2.123,2.123,0,0,1,1.955,1.844l5.587,43.34a2.123,2.123,0,0,1-1.43,2.235l-34.446,11.765a2.123,2.123,0,0,1-2.726-1.754Z" transform="translate(-98.001 -308.258)"/>
      <path id="Caminho_4074" data-name="Caminho 4074" d="M156.841,379.862l-4.469-34.569a2.123,2.123,0,0,1,2.067-2.391l41.7-.782a2.123,2.123,0,0,1,2.145,1.855l3.352,25.463a2.134,2.134,0,0,1-1.609,2.335l-40.513,9.877a2.134,2.134,0,0,1-2.67-1.788Z" transform="translate(-98.443 -307.054)" fill="#263238"/>
      <rect id="Retângulo_4336" data-name="Retângulo 4336" width="22.078" height="1.14" transform="translate(218.411 70.205) rotate(-9.35)" fill="#407bff"/>
      <rect id="Retângulo_4337" data-name="Retângulo 4337" width="6.492" height="1.14" transform="translate(206.341 72.197) rotate(-9.35)" fill="#407bff"/>
      <path id="Caminho_4075" data-name="Caminho 4075" d="M400.5,334.036s-30.044-28.145-73.083-22.569L191.859,324.282a18.592,18.592,0,0,0-16.692,20.9l4.6,35.53a18.592,18.592,0,0,0,21.475,15.955L335.6,374.494C378.627,368.918,400.5,334.036,400.5,334.036Z" transform="translate(-95.785 -310.736)" fill="#407bff"/>
      <path id="Caminho_4076" data-name="Caminho 4076" d="M381.088,333.473a96.86,96.86,0,0,1-24.29,24.391,8.067,8.067,0,0,1-12.625-5.587L340.6,324.624a8.056,8.056,0,0,1,10.8-8.581A96.456,96.456,0,0,1,381.088,333.473Z" transform="translate(-76.37 -310.173)" fill="#fff" opacity="0.3"/>
      <circle id="Elipse_418" data-name="Elipse 418" cx="23.083" cy="23.083" r="23.083" transform="translate(185.73 57.649) rotate(-87.44)" fill="#fff"/>
      <path id="Caminho_4077" data-name="Caminho 4077" d="M309.068,345.429a15.642,15.642,0,0,1-13.542,14.223c-.223,0-.458.056-.693.067a15.507,15.507,0,0,1-2.972,0,6.451,6.451,0,0,1-1.039-.134l-.749-.145a15.642,15.642,0,0,1-12.011-13.218,16.754,16.754,0,0,1-.123-2.235,15.642,15.642,0,0,1,31.05-1.777,15.107,15.107,0,0,1,.078,3.218Z" transform="translate(-83.712 -308.576)" fill="#407bff" opacity="0.3"/>
      <path id="Caminho_4078" data-name="Caminho 4078" d="M309.068,345.281A15.642,15.642,0,0,1,295.526,359.5c-.223,0-.458.056-.693.067a16.469,16.469,0,0,1-2.972,0,6.451,6.451,0,0,1-1.039-.134l-.749-.145a15.642,15.642,0,0,1-12.011-13.218,16.754,16.754,0,0,1-.123-2.235,14.916,14.916,0,0,1,13.475-13.307c8.547-1.017,16.38,4.648,17.519,12.648a14.918,14.918,0,0,1,.134,2.1Z" transform="translate(-83.712 -308.427)" fill="#407bff" opacity="0.3"/>
    </g>
    <g id="freepik--Character--inject-2" transform="translate(230.352 77.933)">
      <path id="Caminho_4079" data-name="Caminho 4079" d="M262.87,313.128l6.983-.693.983-15.955-6.983.693Z" transform="translate(-199.517 -49.607)" fill="#cf7a64"/>
      <path id="Caminho_4080" data-name="Caminho 4080" d="M226.99,316.866l6.871-.682,1.464-16.234-6.871.682Z" transform="translate(-203.726 -49.2)" fill="#cf7a64"/>
      <path id="Caminho_4081" data-name="Caminho 4081" d="M234.419,313.1l-7.732.771a.592.592,0,0,0-.525.525l-.592,6.235a1.039,1.039,0,0,0,1.117,1.117c2.693-.313,3.978-.6,7.374-.939,2.089-.212,4.894-.4,7.821-.693s2.916-3.173,1.7-3.352c-5.441-.626-6.112-2.056-8-3.408A1.709,1.709,0,0,0,234.419,313.1Z" transform="translate(-203.893 -47.66)" fill="#263238"/>
      <path id="Caminho_4082" data-name="Caminho 4082" d="M270.206,309.47l-7.508.76a.57.57,0,0,0-.525.525l-.592,6.234a1.028,1.028,0,0,0,1.117,1.117c2.7-.313,6.592-.871,10-1.207,3.989-.4,4.011-.19,8.681-.659,2.816-.29,3.24-3.218,2.034-3.352-5.531-.637-6.492-.659-11.508-3.05A3.352,3.352,0,0,0,270.206,309.47Z" transform="translate(-199.669 -48.084)" fill="#263238"/>
      <path id="Caminho_4083" data-name="Caminho 4083" d="M245.479,113.162c1.743.156,3.709.346,5.587.436s3.754.156,5.587.156a46.683,46.683,0,0,0,5.285-.313,14.156,14.156,0,0,0,4.045-1.039l-2.056,3.151c0,.369.078.369,0,.145a4.466,4.466,0,0,0-.4-.983,16.3,16.3,0,0,0-1.844-2.682,60.161,60.161,0,0,0-5.173-5.464c-1.877-1.8-3.855-3.542-5.855-5.274s-4.078-3.452-6.089-5.117L247.244,92c2.492,1.274,4.838,2.659,7.207,4.1s4.648,3.006,6.9,4.681a57.52,57.52,0,0,1,6.581,5.586,26.075,26.075,0,0,1,3.073,3.743,12.713,12.713,0,0,1,1.363,2.648,8.558,8.558,0,0,1,.514,4.112l-.246,1.966-1.832,1.218a20.111,20.111,0,0,1-7.24,2.827,42.536,42.536,0,0,1-6.7.827,69.462,69.462,0,0,1-12.8-.592Z" transform="translate(-201.724 -73.593)" fill="#ce7a63"/>
      <path id="Caminho_4084" data-name="Caminho 4084" d="M249.755,94.541l-4.112-5.151-3.084,7.385s3.732,4.391,7.687,2.235Z" transform="translate(-201.9 -73.899)" fill="#cf7a64"/>
      <path id="Caminho_4085" data-name="Caminho 4085" d="M240.513,86.97l-.693,8.38L242.881,97l3.073-7.352Z" transform="translate(-202.221 -74.183)" fill="#cf7a64"/>
      <path id="Caminho_4086" data-name="Caminho 4086" d="M236,88.212l6.257-2.592a.793.793,0,0,1,1.117.447l4.033,12.86a.983.983,0,0,1-.592,1.117l-6.257,2.592a.793.793,0,0,1-1.117-.447L235.4,89.407a.983.983,0,0,1,.592-1.2Z" transform="translate(-202.744 -74.352)" fill="#263238"/>
      <path id="Caminho_4087" data-name="Caminho 4087" d="M239.48,123.38c4.547,5.5,23.184.346,23.184.346l-1.575-12.547s-4.7-1.408-14.033-1.7C237.491,109.135,234.5,117.358,239.48,123.38Z" transform="translate(-202.54 -71.544)" fill="#407bff"/>
      <path id="Caminho_4088" data-name="Caminho 4088" d="M270.786,296.49l-.514,8.223-6.972.693.5-8.223Z" transform="translate(-199.467 -49.606)" opacity="0.2"/>
      <path id="Caminho_4089" data-name="Caminho 4089" d="M228.369,300.643l6.883-.693-.76,8.369-6.871.693Z" transform="translate(-203.652 -49.2)" opacity="0.2"/>
      <path id="Caminho_4090" data-name="Caminho 4090" d="M256.215,112.932c2.7,7.017,9.341,27.933,7.028,59.507l-36.782,3.7c-.961-5.587-1.117-36.3-9.922-62.3a96.757,96.757,0,0,1,12.123-2.782A135.825,135.825,0,0,1,244.3,109.48a68.588,68.588,0,0,1,8.011.458A4.737,4.737,0,0,1,256.215,112.932Z" transform="translate(-204.952 -71.543)" fill="#407bff"/>
      <path id="Caminho_4091" data-name="Caminho 4091" d="M241.252,117.7l-1.441.19c.145,12.29.324,15.642-10.771,27.128a47.977,47.977,0,0,0-5.43,6.614c.145,1.452.29,2.86.425,4.223,2.871-2.626,6.7-6.067,9.564-8.458C246.5,136.627,241.621,117.544,241.252,117.7Z" transform="translate(-204.122 -70.578)" opacity="0.2"/>
      <path id="Caminho_4092" data-name="Caminho 4092" d="M225.266,118.9c1.117,4.3,1.117,14.894-1.564,27.385a178.366,178.366,0,0,0-6.4-30.547h0C219.68,115.186,224.171,114.862,225.266,118.9Z" transform="translate(-204.863 -70.847)" opacity="0.2"/>
      <path id="Caminho_4093" data-name="Caminho 4093" d="M227.6,97.65c1.62,4.916,2.894,11.084-.212,14.793,0,0,2.659,4.883,12.011,3.944,8.536-.86,3.631-5.519,3.631-5.519-5.788-.771-6.357-7.721-5.866-11.72Z" transform="translate(-203.679 -72.93)" fill="#cf7a64"/>
      <path id="Caminho_4094" data-name="Caminho 4094" d="M238.8,114.016l2.235,2.033a.615.615,0,0,1,.19.57l-.458,2.045a.548.548,0,0,1-.469.436l-2.179.324a.6.6,0,0,1-.547-.2l-1.5-1.788a.592.592,0,0,1,0-.726l1.866-2.614a.592.592,0,0,1,.86-.078Z" transform="translate(-202.675 -71.028)" fill="#263238"/>
      <path id="Caminho_4095" data-name="Caminho 4095" d="M239.277,114.48a31.855,31.855,0,0,1-3.676,6.894s-9.084-4.134-9.631-10.056a.648.648,0,0,1,.246-.57c.346-.268.972-.76,1.564-1.251a.626.626,0,0,1,.961.145C229.467,110.927,231.814,113.43,239.277,114.48Z" transform="translate(-203.846 -71.56)" fill="#fff"/>
      <path id="Caminho_4096" data-name="Caminho 4096" d="M238.17,114.466a17.453,17.453,0,0,1,4.659,5.307,11.821,11.821,0,0,0,.8-10.056.693.693,0,0,0-.447-.4c-.391-.1-1.117-.279-1.866-.425a.648.648,0,0,0-.749.715A4.469,4.469,0,0,1,238.17,114.466Z" transform="translate(-202.415 -71.613)" fill="#fff"/>
      <path id="Caminho_4097" data-name="Caminho 4097" d="M241.627,117.63c.358-.156,3.978,16.938-8.514,27.318-5.095,4.235-13.285,11.8-13.274,11.788.76-3.006,3.151-7.642,9.151-13.72,10.849-10.983,10.838-13.966,11.285-25.139Z" transform="translate(-204.565 -70.587)" fill="#263238"/>
      <path id="Caminho_4098" data-name="Caminho 4098" d="M237.138,99.162a15.206,15.206,0,0,0,1.117,8.235,8.939,8.939,0,0,1-2.6-.514c-3.352-1.117-5.2-3.352-7.262-6.7-.235-.883-.492-1.732-.76-2.559Z" transform="translate(-203.651 -72.934)" opacity="0.2"/>
      <path id="Caminho_4099" data-name="Caminho 4099" d="M232.771,84.458c1.33-10.514,9.061.615,6.916,5.843C238.369,93.5,232.447,86.994,232.771,84.458Z" transform="translate(-203.049 -74.989)" fill="#263238"/>
      <path id="Caminho_4100" data-name="Caminho 4100" d="M223.334,93.892c2.648,6.391,3.877,10.268,8.3,12.547,6.648,3.452,13.586-2.134,12.871-9.151-.637-6.313-4.86-15.709-12.078-16.246a9.14,9.14,0,0,0-9.095,12.849Z" transform="translate(-204.249 -74.882)" fill="#cf7a64"/>
      <path id="Caminho_4101" data-name="Caminho 4101" d="M227.5,100.714a4.469,4.469,0,0,0,3.553-3.274,10.972,10.972,0,0,1-4.771-3.709s2.838-4.078,2.536-6.436c3.642,0,12.179-3.52,10.246-7.408s-9.6-5.821-14.067-3.073a16.67,16.67,0,0,1-9.564,2.894,11.173,11.173,0,0,0,3.274,1.3,12.547,12.547,0,0,0-3.765,9.5c.212,4.994-2.5,7.005-2.5,7.005s3.352.5,4.38-.972c-.458,1.631,2.3,7.352,8.369,8.145C231.982,105.564,227.5,100.714,227.5,100.714Z" transform="translate(-205.433 -75.525)" fill="#263238"/>
      <path id="Caminho_4102" data-name="Caminho 4102" d="M223.659,101.425c2.514,1.117,4.469,1.5,5.765.737s.927-3.352-.726-4.838c-1.486-1.307-4.413-2.547-6.112-1.117S221.067,100.24,223.659,101.425Z" transform="translate(-204.372 -73.174)" fill="#cf7a64"/>
      <path id="Caminho_4103" data-name="Caminho 4103" d="M260.8,165.83s15.821,52.021,16.938,71.7c1.229,21.53-1.877,78.747-1.877,78.747l-12.436,1.263s-2.324-54.48-5.475-75.552c-3.419-22.871-20.592-73.742-20.592-73.742Z" transform="translate(-202.51 -64.933)" fill="#263238"/>
      <path id="Caminho_4104" data-name="Caminho 4104" d="M248.8,187.78,246.84,199.2c2.737,9.24,5.475,19.083,7.475,27.631A106.9,106.9,0,0,0,248.8,187.78Z" transform="translate(-201.398 -62.358)" opacity="0.2"/>
      <path id="Caminho_4105" data-name="Caminho 4105" d="M259.77,299.04l.4,4.592,13.91-1.4.4-5.2Z" transform="translate(-199.881 -49.542)" fill="#407bff"/>
      <path id="Caminho_4106" data-name="Caminho 4106" d="M249.176,167s5.151,46.513,3.352,66.591c-2,21.977-14.726,87.719-14.726,87.719l-12.592,1.263s6.927-63.4,6.927-84.915c0-23.407-6.7-68.222-6.7-68.222Z" transform="translate(-203.935 -64.795)" fill="#263238"/>
      <path id="Caminho_4107" data-name="Caminho 4107" d="M224.839,302.846l-.179,4.324,13.843-1.4,1.408-4.894Z" transform="translate(-203.999 -49.091)" fill="#407bff"/>
      <path id="Caminho_4108" data-name="Caminho 4108" d="M232.589,91.439c.179.536.615.871.95.76s.48-.637.29-1.117-.6-.871-.95-.76S232.4,90.9,232.589,91.439Z" transform="translate(-203.079 -73.792)" fill="#263238"/>
      <path id="Caminho_4109" data-name="Caminho 4109" d="M237.909,89.709c.179.536.615.871.95.76s.48-.637.29-1.117-.6-.871-.95-.76S237.73,89.184,237.909,89.709Z" transform="translate(-202.455 -73.995)" fill="#263238"/>
      <path id="Caminho_4110" data-name="Caminho 4110" d="M236.29,90.38a20.837,20.837,0,0,0,4.078,3.721,3.106,3.106,0,0,1-2.346,1.3Z" transform="translate(-202.635 -73.783)" fill="#ba4d3c"/>
      <path id="Caminho_4111" data-name="Caminho 4111" d="M237.12,96.9a.168.168,0,0,0,.089-.212.179.179,0,0,0-.212-.1,4.469,4.469,0,0,1-3.978-.413.168.168,0,0,0-.235,0,.179.179,0,0,0,0,.235A4.693,4.693,0,0,0,237.12,96.9Z" transform="translate(-203.051 -73.109)" fill="#263238"/>
      <path id="Caminho_4112" data-name="Caminho 4112" d="M230.426,90.376a.324.324,0,0,0,.2-.2,2.5,2.5,0,0,1,1.609-1.687.313.313,0,0,0,.223-.4.335.335,0,0,0-.4-.235,3.14,3.14,0,0,0-2.056,2.1.335.335,0,0,0,.425.425Z" transform="translate(-203.375 -74.081)" fill="#263238"/>
      <path id="Caminho_4113" data-name="Caminho 4113" d="M239.945,87.063a.313.313,0,0,0,.123-.089.335.335,0,0,0,0-.458,3.352,3.352,0,0,0-2.883-.86.331.331,0,0,0,.179.637h0a2.648,2.648,0,0,1,2.235.7A.335.335,0,0,0,239.945,87.063Z" transform="translate(-202.558 -74.343)" fill="#263238"/>
      <path id="Caminho_4114" data-name="Caminho 4114" d="M213.377,123.53l9.363,3.788s-7.709,22.927-6.045,26.033c2.235,4.223,8.279,10.961,11.866,15.441a9.7,9.7,0,0,1-2.235,4.547c-7.531-3.575-19.4-14.8-20.011-19.106C204.964,144.424,213.377,123.53,213.377,123.53Z" transform="translate(-206.168 -69.894)" fill="#cf7a64"/>
      <path id="Caminho_4115" data-name="Caminho 4115" d="M217.456,113.432c-7.654,2.48-8.726,19.5-8.726,19.5l11.843,6.078a35.117,35.117,0,0,0,7.151-13.955C229.791,116.416,224.182,111.254,217.456,113.432Z" transform="translate(-205.868 -71.137)" fill="#407bff"/>
      <path id="Caminho_4116" data-name="Caminho 4116" d="M235.864,314.193a2,2,0,0,0,1.274-.48.961.961,0,0,0,.235-.894.536.536,0,0,0-.335-.425c-.8-.313-2.86,1.263-3.095,1.441a.179.179,0,0,0,0,.179.145.145,0,0,0,.134.112A7.453,7.453,0,0,0,235.864,314.193Zm.838-1.52a.481.481,0,0,1,.223,0,.212.212,0,0,1,.123.179.67.67,0,0,1-.145.615,3.352,3.352,0,0,1-2.425.369,6.491,6.491,0,0,1,2.223-1.207Z" transform="translate(-202.913 -47.745)" fill="#407bff"/>
      <path id="Caminho_4117" data-name="Caminho 4117" d="M234.069,314.248h.078c.67-.458,1.855-2.1,1.609-2.849a.547.547,0,0,0-.57-.369.871.871,0,0,0-.67.279c-.715.726-.626,2.726-.626,2.8a.145.145,0,0,0,.089.145Zm1.039-2.927h.078c.212,0,.246.1.257.134.145.447-.592,1.676-1.229,2.235a3.81,3.81,0,0,1,.547-2.235.548.548,0,0,1,.369-.134Z" transform="translate(-202.917 -47.901)" fill="#407bff"/>
      <path id="Caminho_4118" data-name="Caminho 4118" d="M272.247,310.487a2.5,2.5,0,0,0,1.609-.592.86.86,0,0,0,.212-.816.57.57,0,0,0-.324-.413c-.894-.38-3.486,1.3-3.776,1.486a.19.19,0,0,0-.067.179.168.168,0,0,0,.145.123,11.828,11.828,0,0,0,2.2.034Zm1.061-1.553a.671.671,0,0,1,.313,0,.2.2,0,0,1,.123.168.57.57,0,0,1-.134.536c-.369.425-1.5.592-3.05.5a8.939,8.939,0,0,1,2.8-1.207Z" transform="translate(-198.693 -48.185)" fill="#407bff"/>
      <path id="Caminho_4119" data-name="Caminho 4119" d="M270.08,310.6h.067c.782-.447,2.235-2.1,2.022-2.86-.056-.179-.212-.391-.67-.391a1.118,1.118,0,0,0-.86.369,4.469,4.469,0,0,0-.737,2.749.156.156,0,0,0,.078.134A.112.112,0,0,0,270.08,310.6Zm1.33-2.95h.1c.3,0,.335.112.346.145.134.458-.838,1.743-1.631,2.335a3.81,3.81,0,0,1,.648-2.235A.882.882,0,0,1,271.409,307.652Z" transform="translate(-198.693 -48.332)" fill="#407bff"/>
      <path id="Caminho_4120" data-name="Caminho 4120" d="M225.1,163.18l6.581.223-4.011,6.86s-5.754-.391-6.335-4.883Z" transform="translate(-204.39 -65.244)" fill="#cf7a64"/>
      <path id="Caminho_4121" data-name="Caminho 4121" d="M234.1,165.67l-3.989,6.033-3.162-1.464,4.067-6.86Z" transform="translate(-203.731 -65.22)" fill="#cf7a64"/>
    </g>
  </g>
</svg>
