<svg id="stairs_1_" data-name="stairs (1)" xmlns="http://www.w3.org/2000/svg" width="56.556" height="50.272" viewBox="0 0 56.556 50.272">
  <g id="Grupo_1038" data-name="Grupo 1038" transform="translate(0 0)">
    <g id="Grupo_1037" data-name="Grupo 1037">
      <path id="Caminho_2613" data-name="Caminho 2613" d="M47.009,28.444a.943.943,0,0,0-.926,1.038v9.435h-7.4a1.028,1.028,0,0,0-.978,1.09v8.336H29.2a.937.937,0,0,0-.926,1.032v8.394H19.836a.987.987,0,0,0-.984,1.039V67.2h-8.5a.989.989,0,0,0-.926,1.09v8.336H0v2.095H10.352a1.123,1.123,0,0,0,1.169-1V69.29h8.315a1.068,1.068,0,0,0,1.111-1V59.864H29.2a1.165,1.165,0,0,0,1.169-1.056v-8.37h8.309A1.122,1.122,0,0,0,39.8,49.375V41.012h7.21a1.123,1.123,0,0,0,1.169-1V30.539h8.379V28.444Z" transform="translate(0 -28.444)" fill="#009cde"/>
    </g>
  </g>
  <g id="Grupo_1040" data-name="Grupo 1040" transform="translate(37.583 29.326)">
    <g id="Grupo_1039" data-name="Grupo 1039">
      <path id="Caminho_2614" data-name="Caminho 2614" d="M349.66,293.926h-6.284a1.047,1.047,0,0,0,0,2.095h3.249l-6.084,6.08a1.045,1.045,0,0,0,.74,1.784,1.189,1.189,0,0,0,.8-.307l6.652-6.591v4.262a1.047,1.047,0,1,0,2.095,0v-6.284A1.15,1.15,0,0,0,349.66,293.926Z" transform="translate(-340.234 -293.926)" fill="#009cde"/>
    </g>
  </g>
</svg>
