<svg xmlns="http://www.w3.org/2000/svg" width="51.22" height="49.086" viewBox="0 0 51.22 49.086">
  <g id="noun-tennis-1340253" transform="translate(0.1 0.1)">
    <path id="Caminho_4229" data-name="Caminho 4229" d="M86.741,158.9a6.856,6.856,0,1,0-6.855,6.855A6.864,6.864,0,0,0,86.741,158.9Zm-6.857-4.708a4.661,4.661,0,0,1,2.8.943,4.968,4.968,0,0,1-5.466-.105,4.675,4.675,0,0,1,2.671-.838ZM75.176,158.9a4.651,4.651,0,0,1,.6-2.256,6.806,6.806,0,0,0,8.3.155,4.525,4.525,0,0,1-.041,4.281,6.8,6.8,0,0,0-8.3,0,4.646,4.646,0,0,1-.561-2.179Zm7.444,3.816a4.642,4.642,0,0,1-5.469,0A4.963,4.963,0,0,1,82.62,162.716Z" transform="translate(-73.029 -139.384)" fill="#009cde" stroke="#fff" stroke-width="0.2"/>
    <path id="Caminho_4230" data-name="Caminho 4230" d="M142.117,18.128a12.378,12.378,0,0,0-8.847-3.546,15.858,15.858,0,0,0-11.064,4.758,19.561,19.561,0,0,0-5.381,10.708,15.816,15.816,0,0,0-.133,3.563c0,.011-.006.019,0,.032,0,.056.168,5.686-5.162,11.161a1.066,1.066,0,0,0-.737.153l-3.12,2.056a1.159,1.159,0,0,0-.168.137L97.146,57.505a1.067,1.067,0,0,0-.316.758,1.084,1.084,0,0,0,.314.761l4.13,4.13a1.08,1.08,0,0,0,1.522,0L113.149,52.8a1.061,1.061,0,0,0,.178-.234l1.854-3.322a1.062,1.062,0,0,0,.122-.679,17.8,17.8,0,0,1,12.326-4.947.586.586,0,0,0,.105-.013l.022,0a19.316,19.316,0,0,0,13.149-5.566c5.823-5.827,6.366-14.76,1.211-19.915ZM102.035,60.874l-2.611-2.611.591-.591,2.611,2.611Zm9.489-9.489-7.379,7.379-2.609-2.611,7.4-7.4,2.3-1.515,1.67,1.67Zm2.415-4.491-.737-.737a20.565,20.565,0,0,0,4.8-7.835,8.94,8.94,0,0,0,4.023,3.919,19.626,19.626,0,0,0-8.09,4.653Zm11.862-5.6a8.309,8.309,0,0,1-4.611-2.239,8.417,8.417,0,0,1-2.3-4.936H125.8v7.175Zm0-9.322h-7a14.48,14.48,0,0,1,.146-1.6,17.259,17.259,0,0,1,1.925-5.6H125.8Zm0-9.356H122.24a15.75,15.75,0,0,1,1.485-1.755,14.6,14.6,0,0,1,2.078-1.724v3.479Zm11.505-5.125a9.762,9.762,0,0,1,3.29,2.157,9.6,9.6,0,0,1,1.96,2.968H137.3V17.489Zm-2.149,22.075a17.014,17.014,0,0,1-5.578,1.762h-1.631V34.119h7.207v5.445Zm0-7.594H127.95V24.763h7.207Zm0-9.356H127.95V17.928a12.869,12.869,0,0,1,5.32-1.2,11.158,11.158,0,0,1,1.889.174v5.709Zm4.229,13.907a16.161,16.161,0,0,1-2.08,1.73V34.119h3.984A14.515,14.515,0,0,1,139.386,36.522Zm-2.08-4.551V24.763h5.935a12.288,12.288,0,0,1-.806,7.207Z" transform="translate(-94.638 -14.582)" fill="#009cde" stroke="#fff" stroke-width="0.2"/>
  </g>
</svg>
