<svg xmlns="http://www.w3.org/2000/svg" width="47.557" height="49.319" viewBox="0 0 47.557 49.319">
  <g id="noun_Terrace_Garden_148534" data-name="noun_Terrace Garden_148534" transform="translate(0.25 0.25)">
    <g id="Grupo_1035" data-name="Grupo 1035" transform="translate(0 0)">
      <path id="Caminho_2601" data-name="Caminho 2601" d="M63.769,29.409H57.58V28.168l1.352-1.338a2.4,2.4,0,0,0,2.983-.333c.83-.83,1.069-3.426,1.108-3.938a.538.538,0,0,0-.156-.422.525.525,0,0,0-.422-.156c-.512.039-3.108.278-3.938,1.107a2.4,2.4,0,0,0-.336,2.979l-.591.585V22.126a2.411,2.411,0,0,0,1.872-2.345c0-1.173-1.667-3.178-2-3.568a.556.556,0,0,0-.818,0c-.334.39-2,2.394-2,3.568A2.411,2.411,0,0,0,56.5,22.126v4.526l-.591-.585a2.4,2.4,0,0,0-.336-2.979c-.83-.83-3.426-1.068-3.938-1.107a.527.527,0,0,0-.422.156.538.538,0,0,0-.156.422c.039.512.278,3.108,1.108,3.938a2.4,2.4,0,0,0,2.983.333L56.5,28.168v1.241H41.318V28.168L42.67,26.83a2.4,2.4,0,0,0,2.983-.333c.83-.83,1.068-3.426,1.107-3.938a.538.538,0,0,0-.156-.422.522.522,0,0,0-.422-.156c-.512.039-3.108.278-3.938,1.107a2.411,2.411,0,0,0-.336,2.979l-.591.585V22.126a2.411,2.411,0,0,0,1.872-2.345c0-1.173-1.667-3.178-2-3.568a.557.557,0,0,0-.818,0c-.334.39-2,2.395-2,3.568a2.411,2.411,0,0,0,1.872,2.345v4.526l-.591-.584a2.411,2.411,0,0,0-.336-2.979c-.83-.83-3.426-1.068-3.938-1.107a.529.529,0,0,0-.422.156.538.538,0,0,0-.156.422c.039.512.278,3.108,1.107,3.938a2.4,2.4,0,0,0,2.983.333l1.352,1.338v1.241H25.057V28.168l1.352-1.338a2.4,2.4,0,0,0,2.983-.333c.83-.83,1.069-3.426,1.108-3.938a.538.538,0,0,0-.156-.422.525.525,0,0,0-.422-.156c-.512.039-3.108.278-3.938,1.107a2.4,2.4,0,0,0-.336,2.979l-.591.585V22.126a2.411,2.411,0,0,0,1.871-2.345c0-1.173-1.667-3.178-2-3.568a.539.539,0,0,0-.818,0c-.334.39-2,2.395-2,3.568a2.411,2.411,0,0,0,1.872,2.345v4.526l-.591-.585a2.4,2.4,0,0,0-.336-2.979c-.83-.83-3.426-1.068-3.938-1.107a.527.527,0,0,0-.422.156.538.538,0,0,0-.156.422c.039.512.278,3.108,1.108,3.938a2.4,2.4,0,0,0,2.983.333l1.352,1.338v1.241H17.79a.539.539,0,0,0-.539.539V64.3a.539.539,0,0,0,.539.539H63.769a.539.539,0,0,0,.539-.539V29.948A.539.539,0,0,0,63.769,29.409Zm-4.5-5.559a6.364,6.364,0,0,1,2.613-.728,6.346,6.346,0,0,1-.728,2.613,1.365,1.365,0,0,1-1.885,0,1.333,1.333,0,0,1,0-1.885Zm-6.339,1.885a6.357,6.357,0,0,1-.728-2.613,6.347,6.347,0,0,1,2.613.728,1.333,1.333,0,0,1,0,1.885A1.365,1.365,0,0,1,52.929,25.735Zm2.779-5.954a6.36,6.36,0,0,1,1.332-2.362,6.357,6.357,0,0,1,1.333,2.362,1.333,1.333,0,1,1-2.665,0Zm-12.7,4.069a6.365,6.365,0,0,1,2.613-.728,6.347,6.347,0,0,1-.728,2.613,1.365,1.365,0,0,1-1.885,0A1.335,1.335,0,0,1,43.007,23.85Zm-6.339,1.885a6.364,6.364,0,0,1-.728-2.613,6.347,6.347,0,0,1,2.613.728,1.335,1.335,0,0,1,0,1.885A1.365,1.365,0,0,1,36.667,25.735Zm2.779-5.954a6.363,6.363,0,0,1,1.333-2.362,6.363,6.363,0,0,1,1.333,2.362,1.333,1.333,0,1,1-2.665,0Zm-12.7,4.069a6.364,6.364,0,0,1,2.613-.728,6.346,6.346,0,0,1-.728,2.613,1.365,1.365,0,0,1-1.885,0,1.333,1.333,0,0,1,0-1.885Zm-6.339,1.885a6.357,6.357,0,0,1-.728-2.613,6.347,6.347,0,0,1,2.613.728,1.333,1.333,0,0,1,0,1.885A1.365,1.365,0,0,1,20.406,25.735Zm2.779-5.954a6.357,6.357,0,0,1,1.333-2.362,6.36,6.36,0,0,1,1.332,2.362,1.333,1.333,0,1,1-2.665,0ZM63.23,63.766h-44.9V30.487h44.9Z" transform="translate(-17.251 -16.025)" fill="#009cde" stroke="#009cde" stroke-width="0.5"/>
      <path id="Caminho_2602" data-name="Caminho 2602" d="M40.505,40.409H23.129a.539.539,0,0,0-.539.539v6.681a.539.539,0,0,0,.539.539H40.505a.539.539,0,0,0,.539-.539V40.948A.539.539,0,0,0,40.505,40.409Zm-.539,6.681h-16.3v-5.6h16.3v5.6Z" transform="translate(-18.754 -22.89)" fill="#009cde" stroke="#009cde" stroke-width="0.5"/>
      <path id="Caminho_2603" data-name="Caminho 2603" d="M51.724,40.948v6.681a.539.539,0,0,0,.539.539H69.639a.539.539,0,0,0,.539-.539V40.948a.539.539,0,0,0-.539-.539H52.262A.539.539,0,0,0,51.724,40.948Zm1.078.539H69.1v5.6H52.8Z" transform="translate(-26.957 -22.89)" fill="#009cde" stroke="#009cde" stroke-width="0.5"/>
      <path id="Caminho_2604" data-name="Caminho 2604" d="M40.505,54.251H23.129a.539.539,0,0,0-.539.539v6.681a.539.539,0,0,0,.539.539H40.505a.539.539,0,0,0,.539-.539V54.79A.539.539,0,0,0,40.505,54.251Zm-.539,6.681h-16.3v-5.6h16.3v5.6Z" transform="translate(-18.754 -26.788)" fill="#009cde" stroke="#009cde" stroke-width="0.5"/>
      <path id="Caminho_2605" data-name="Caminho 2605" d="M69.639,54.251H52.262a.539.539,0,0,0-.539.539v6.681a.539.539,0,0,0,.539.539H69.639a.539.539,0,0,0,.539-.539V54.79A.539.539,0,0,0,69.639,54.251ZM69.1,60.932H52.8v-5.6H69.1v5.6Z" transform="translate(-26.957 -26.788)" fill="#009cde" stroke="#009cde" stroke-width="0.5"/>
      <path id="Caminho_2606" data-name="Caminho 2606" d="M40.505,68.093H23.129a.539.539,0,0,0-.539.539v6.681a.539.539,0,0,0,.539.539H40.505a.539.539,0,0,0,.539-.539V68.632A.539.539,0,0,0,40.505,68.093Zm-.539,6.681h-16.3v-5.6h16.3v5.6Z" transform="translate(-18.754 -30.685)" fill="#009cde" stroke="#009cde" stroke-width="0.5"/>
      <path id="Caminho_2607" data-name="Caminho 2607" d="M69.639,68.093H52.262a.539.539,0,0,0-.539.539v6.681a.539.539,0,0,0,.539.539H69.639a.539.539,0,0,0,.539-.539V68.632A.539.539,0,0,0,69.639,68.093ZM69.1,74.774H52.8v-5.6H69.1v5.6Z" transform="translate(-26.957 -30.685)" fill="#009cde" stroke="#009cde" stroke-width="0.5"/>
    </g>
  </g>
</svg>
