<svg xmlns="http://www.w3.org/2000/svg" width="62.841" height="58.705" viewBox="0 0 62.841 58.705">
  <g id="noun_water_well_1857126" data-name="noun_water well_1857126" transform="translate(0.582 0.557)">
    <path id="Caminho_2609" data-name="Caminho 2609" d="M2.609,63.023,3.86,73.71,1.5,76.068a.856.856,0,0,0,1.211,1.209l1.4-1.4.375,3.2H17.637l1.88-16.058H2.609Zm14.268,15.2H5.248l-.365-3.118,4.934-4.934a2.067,2.067,0,0,0,.733.148,2.091,2.091,0,1,0-2.091-2.091,2.066,2.066,0,0,0,.148.734L4.63,72.94,3.569,63.879H18.556Z" transform="translate(-1.252 -21.491)" fill="#009cde" stroke="#009cde" stroke-width="1"/>
    <path id="Caminho_2610" data-name="Caminho 2610" d="M17.747,55.965a2.062,2.062,0,0,1-4.125,0c0-1.139,1.98-4.862,2.062-4.862S17.747,54.826,17.747,55.965Z" transform="translate(-4.9 -17.976)" fill="#009cde" stroke="#009cde" stroke-width="1"/>
    <path id="Caminho_2611" data-name="Caminho 2611" d="M66.266,24.612a1.971,1.971,0,0,0-2.487-1.272,5.578,5.578,0,0,1-5.233-1.152A91.5,91.5,0,0,1,47.923,11.868c-2.813-3.069-5.035-5.492-7.142-6.7-2.955-1.692-6.162-1.331-9.039,1.024a15.1,15.1,0,0,0-3.185,3.723,1.98,1.98,0,0,0,.733,2.695,1.906,1.906,0,0,0,.466.153v3.6H23.5V17.2a2.2,2.2,0,0,0,1.829,2.15v8.561H20.257a7.433,7.433,0,0,0-7.423,7.424v.428h5.237v-.428a2.189,2.189,0,0,1,2.186-2.185h5.068V36.3h1.148V57.169h-.547a.982.982,0,0,0-.981.98v.709A2.221,2.221,0,0,0,23.5,60.932v.836H37.048v-.836A2.221,2.221,0,0,0,35.6,58.859V58.15a.982.982,0,0,0-.979-.98H34.07V36.3H35.2V19.358A2.2,2.2,0,0,0,37.048,17.2v-.561a1.475,1.475,0,0,0,1.723-.576l1.969-3.191a5.977,5.977,0,0,1,1.282-1.532c.9.919,1.865,1.965,3.009,3.214A93.8,93.8,0,0,0,55.983,25.192,9.865,9.865,0,0,0,62.2,27.546a9.068,9.068,0,0,0,2.79-.447A1.979,1.979,0,0,0,66.266,24.612Zm-30.074,36.3H24.352a1.376,1.376,0,0,1,1.374-1.355h9.092A1.376,1.376,0,0,1,36.192,60.912Zm-1.574-2.887a.122.122,0,0,1,.123.124V58.7H25.8V58.15a.125.125,0,0,1,.125-.124h8.691Zm-1.4-.856H27.33V36.3h5.884ZM34.34,35.446H26.182V32.3H20.257a3.044,3.044,0,0,0-3.011,2.613H13.7a6.579,6.579,0,0,1,6.555-6.14h5.924V19.435H34.34V35.446Zm.478-16.868H25.726a1.376,1.376,0,0,1-1.374-1.356h11.84A1.376,1.376,0,0,1,34.818,18.579Zm-4.03-2.212V12.8a1.965,1.965,0,0,0,1.2-.923,11.174,11.174,0,0,1,2.26-2.629c1.6-1.314,3.055-1.52,4.573-.653a8.29,8.29,0,0,1,1.065.755,8.668,8.668,0,0,0-1.668,2.064L36.29,14.534a1.4,1.4,0,0,0,.285,1.832H30.788Zm33.943,9.919a8.209,8.209,0,0,1-2.527.4,8.946,8.946,0,0,1-5.665-2.149A93.027,93.027,0,0,1,45.662,13.979c-1.261-1.376-2.305-2.507-3.291-3.5l-.244-.247-.292.19A6.464,6.464,0,0,0,40,12.441l-1.959,3.176a.609.609,0,0,1-.831.2.6.6,0,0,1-.269-.372.608.608,0,0,1,.073-.458l1.942-3.148a7.923,7.923,0,0,1,1.852-2.147l.411-.321-.395-.34a10.621,10.621,0,0,0-1.583-1.172c-1.815-1.041-3.679-.794-5.542.732a12.091,12.091,0,0,0-2.46,2.866,1.084,1.084,0,0,1-.455.413V11.8H29.756v.086c-.013-.007-.027-.006-.04-.013a1.12,1.12,0,0,1-.415-1.528,14.086,14.086,0,0,1,2.984-3.486c2.575-2.112,5.442-2.452,8.071-.944,1.992,1.139,4.174,3.52,6.962,6.562A91.969,91.969,0,0,0,58,22.85a6.439,6.439,0,0,0,6.037,1.306,1.119,1.119,0,1,1,.691,2.129Z" transform="translate(-4.667 -4.121)" fill="#009cde" stroke="#009cde" stroke-width="1"/>
  </g>
</svg>
