<svg xmlns="http://www.w3.org/2000/svg" width="56.785" height="48.582" viewBox="0 0 56.785 48.582">
  <g id="noun-work-1041330" transform="translate(0.5 0.5)">
    <path id="Caminho_4207" data-name="Caminho 4207" d="M38.132,9.841V4.915A4.915,4.915,0,0,1,43.046,0H56.187A4.92,4.92,0,0,1,61.1,4.915V9.841h9.851A6.561,6.561,0,0,1,77.509,16.4V41.019a6.561,6.561,0,0,1-6.557,6.559H28.281a6.562,6.562,0,0,1-6.557-6.559V16.4a6.561,6.561,0,0,1,6.557-6.559Zm4.1,22.97H34.855a6.563,6.563,0,0,1-6.568-6.558V13.121h-.006A3.279,3.279,0,0,0,25.006,16.4V41.018A3.28,3.28,0,0,0,28.281,44.3H70.953a3.279,3.279,0,0,0,3.275-3.277V16.4a3.28,3.28,0,0,0-3.275-3.277h-.006V26.252a6.56,6.56,0,0,1-6.568,6.558H57v.821a3.284,3.284,0,0,1-3.287,3.281H45.52a3.28,3.28,0,0,1-3.286-3.281ZM57,29.529h7.378a3.279,3.279,0,0,0,3.287-3.277V13.121h-36.1V26.252a3.282,3.282,0,0,0,3.287,3.277h7.378v-.821a3.283,3.283,0,0,1,3.286-3.281h8.194A3.28,3.28,0,0,1,57,28.708Zm-11.486,4.1s8.2,0,8.2,0,0-4.923,0-4.923-8.2,0-8.2,0S45.515,33.631,45.515,33.631ZM57.82,4.914a1.639,1.639,0,0,0-1.633-1.637H43.046a1.634,1.634,0,0,0-1.633,1.637V9.84H57.82Z" transform="translate(-21.724 0.004)" fill="#009cde" stroke="#fff" stroke-width="1"/>
  </g>
</svg>
