<svg xmlns="http://www.w3.org/2000/svg" width="50.002" height="37.44" viewBox="0 0 50.002 37.44">
  <g id="noun_accounting_980991" transform="translate(0.25 -8.15)">
    <g id="Grupo_1799" data-name="Grupo 1799" transform="translate(0 8.4)">
      <path id="Caminho_2574" data-name="Caminho 2574" d="M35.9,14.3H14.5v8.149H35.9Zm-1.142,7.006H15.642V15.442H34.834v5.864Z" transform="translate(-3.457 -9.807)" fill="#fff" stroke="#fff" stroke-width="0.5"/>
      <rect id="Retângulo_3137" data-name="Retângulo 3137" width="6.016" height="1.142" transform="translate(12.566 28.559)" fill="#fff" stroke="#fff" stroke-width="0.5"/>
      <rect id="Retângulo_3138" data-name="Retângulo 3138" width="1.219" height="1.142" transform="translate(27.34 31.148)" fill="#fff" stroke="#fff" stroke-width="0.5"/>
      <rect id="Retângulo_3139" data-name="Retângulo 3139" width="6.016" height="1.142" transform="translate(24.979 28.559)" fill="#fff" stroke="#fff" stroke-width="0.5"/>
      <rect id="Retângulo_3140" data-name="Retângulo 3140" width="1.219" height="1.142" transform="translate(27.34 25.893)" fill="#fff" stroke="#fff" stroke-width="0.5"/>
      <path id="Caminho_2575" data-name="Caminho 2575" d="M20.079,29.4H18.937v2.437H16.5V32.9h2.437V35.34h1.142V32.9H22.44V31.837H20.079Z" transform="translate(-3.934 -13.407)" fill="#fff" stroke="#fff" stroke-width="0.5"/>
      <path id="Caminho_2576" data-name="Caminho 2576" d="M37.665,30l-1.752,1.752L34.238,30l-.838.838,1.752,1.675L33.4,34.265l.838.762,1.675-1.675,1.752,1.675.762-.762-1.675-1.752,1.675-1.675Z" transform="translate(-7.964 -13.55)" fill="#fff" stroke="#fff" stroke-width="0.5"/>
      <rect id="Retângulo_3141" data-name="Retângulo 3141" width="10.814" height="1.142" transform="translate(36.299 26.897) rotate(-45)" fill="#fff" stroke="#fff" stroke-width="0.5"/>
      <path id="Caminho_2577" data-name="Caminho 2577" d="M55.656,39.9a2.056,2.056,0,1,0,2.056,2.056A2.048,2.048,0,0,0,55.656,39.9Zm0,2.894a.914.914,0,1,1,.914-.914A.926.926,0,0,1,55.656,42.794Z" transform="translate(-12.78 -15.911)" fill="#fff" stroke="#fff" stroke-width="0.5"/>
      <path id="Caminho_2578" data-name="Caminho 2578" d="M49.256,37.512A2.056,2.056,0,1,0,47.2,35.456,2.048,2.048,0,0,0,49.256,37.512Zm0-2.97a.914.914,0,1,1-.914.914A.88.88,0,0,1,49.256,34.542Z" transform="translate(-11.254 -14.361)" fill="#fff" stroke="#fff" stroke-width="0.5"/>
      <path id="Caminho_2579" data-name="Caminho 2579" d="M49.054,25.535A8.789,8.789,0,0,0,42.58,22.87a9.465,9.465,0,0,0-3.96.914V8.4H9.3V45.107H38.62V40.081a8.655,8.655,0,0,0,3.96.914h.076a9.047,9.047,0,0,0,6.4-15.46ZM37.478,43.965H10.442V9.542H37.554V24.469a9.085,9.085,0,0,0,0,15v4.493Zm5.179-4.036h0a7.93,7.93,0,0,1-7.92-8,7.98,7.98,0,0,1,8-7.92,7.93,7.93,0,0,1,7.92,8A8.08,8.08,0,0,1,42.657,39.929Z" transform="translate(-2.217 -8.4)" fill="#fff" stroke="#fff" stroke-width="0.5"/>
      <path id="Caminho_2580" data-name="Caminho 2580" d="M2.132,19.7A2.179,2.179,0,0,0,0,21.832V43.461l2.132,4.265,2.132-4.265V21.832A2.129,2.129,0,0,0,2.132,19.7Zm0,1.142a1.008,1.008,0,0,1,.99.99v2.742H1.142V21.832A1.008,1.008,0,0,1,2.132,20.842Zm.99,4.874V41.1H1.142V25.716Zm-.99,19.5-.99-2.056v-.99H3.2v.99Z" transform="translate(0 -11.094)" fill="#fff" stroke="#fff" stroke-width="0.5"/>
    </g>
  </g>
</svg>
