<svg xmlns="http://www.w3.org/2000/svg" width="59.789" height="33.071" viewBox="0 0 59.789 33.071">
  <g id="noun_partnership_981006" transform="translate(0.291 0.321)">
    <path id="Caminho_3437" data-name="Caminho 3437" d="M58.628,23.895c-3.915,1.548-7.01,4.916-8.193,6.282a.918.918,0,0,1-.728.273.826.826,0,0,1-.637-.273L41.513,19.252a.682.682,0,0,1-.091-.455,1.368,1.368,0,0,1,.637-.819c.273-.182.728-.364,1.275-.637.728-.364,1.639-.728,2.731-1.275l-.637-1.183c-1,.546-1.912.91-2.64,1.275-.637.273-1.092.546-1.457.728a2.667,2.667,0,0,0-1.275,1.73v.546H19.027v-.546a3.326,3.326,0,0,0-1.275-1.73c-.364-.182-.819-.455-1.457-.728-.819-.364-1.821-.819-3.1-1.457l-.819,1.183a32.057,32.057,0,0,0,3.186,1.548,8.019,8.019,0,0,1,1.275.637,1.1,1.1,0,0,1,.637.819.821.821,0,0,1-.091.455L9.832,30.267a.709.709,0,0,1-.637.273.918.918,0,0,1-.728-.273C7.283,28.9,4.188,25.533.273,23.986L0,25.169a22.38,22.38,0,0,1,7.647,5.917,2.114,2.114,0,0,0,1.73.819h.091a1.945,1.945,0,0,0,1.548-.728,6.692,6.692,0,0,1,1.457,1.73,3.031,3.031,0,0,0,.273.546c0,.091.091.182.091.273a2.454,2.454,0,0,0-.728.637,2.842,2.842,0,0,0,.637,4.1l.091.091a3,3,0,0,0,1.73.546,1.155,1.155,0,0,0,.546-.091v.455a2.875,2.875,0,0,0,1.183,2,3.388,3.388,0,0,0,1.821.637,1.775,1.775,0,0,0,.728-.091v.273a2.875,2.875,0,0,0,1.183,2,3.388,3.388,0,0,0,1.821.637,2.658,2.658,0,0,0,.819-.182,2.764,2.764,0,0,0,1.092,1.912A2.542,2.542,0,0,0,25.4,47.2a2.722,2.722,0,0,0,2.094-1,3.71,3.71,0,0,0,1.639.455,1.155,1.155,0,0,0,.546-.091,3.349,3.349,0,0,0,2-1.275,3.217,3.217,0,0,0,.546-1.73l.728.546a3.217,3.217,0,0,0,1.73.546,2.93,2.93,0,0,0,2.549-1.366,3.217,3.217,0,0,0,.546-1.73l.182.091a3.217,3.217,0,0,0,1.73.546,1.155,1.155,0,0,0,.546-.091,3.349,3.349,0,0,0,2-1.275,3.283,3.283,0,0,0,.546-1.821l.364.273a3.217,3.217,0,0,0,1.73.546,2.93,2.93,0,0,0,2.549-1.366,3.1,3.1,0,0,0-.819-4.37l-10.2-6.919h-2c-3.277,0-3.733-2.458-3.733-2.731l.273-.546H24.034l-.091.546c-.273,1.639-.819,2.731-1.639,3.186a2.489,2.489,0,0,1-1.275.364V23.44l5.28-2.913H40.876l7.192,10.56a2.307,2.307,0,0,0,1.639.91H49.8a2.242,2.242,0,0,0,1.73-.819,22.38,22.38,0,0,1,7.647-5.917ZM13.656,37.459l-.091-.091a1.731,1.731,0,0,1-.637-1,1.381,1.381,0,0,1,.273-1.183,1.593,1.593,0,0,1,1.275-.637,1.538,1.538,0,0,1,.91.273l.091.091a1.731,1.731,0,0,1,.637,1,2.52,2.52,0,0,1-.091.819l-.364.455v.091A1.645,1.645,0,0,1,13.656,37.459Zm3.459,2.913a1.617,1.617,0,0,1-.364-2.276c.091-.091.182-.182.182-.273.091-.091.182-.273.273-.364l.637-.819A1.532,1.532,0,0,1,19.209,36a1.369,1.369,0,0,1,1,.364,1.617,1.617,0,0,1,.364,2.276l-1,1.366A1.853,1.853,0,0,1,17.115,40.372Zm3.824,2.822A1.689,1.689,0,0,1,20.3,42.1a1.313,1.313,0,0,1,.273-1.183l1-1.366h0l.91-1.275a1.532,1.532,0,0,1,1.366-.637,1.369,1.369,0,0,1,1,.364A1.689,1.689,0,0,1,25.49,39.1a1.313,1.313,0,0,1-.273,1.183l-1.912,2.64A1.945,1.945,0,0,1,20.938,43.195Zm5.826,1.73-.273.364a1.413,1.413,0,0,1-1.912.273,1.33,1.33,0,0,1-.273-1.912l.273-.364a1.3,1.3,0,0,1,1.092-.546,1.468,1.468,0,0,1,.819.273A1.33,1.33,0,0,1,26.765,44.924Zm-7.192-22.3v6.464l.455.182A3.772,3.772,0,0,0,22.85,28.9a5.048,5.048,0,0,0,2.185-3.641h4.643a4.939,4.939,0,0,0,5.007,3.368h1.548l9.832,6.646a1.768,1.768,0,1,1-2,2.913L41.6,36.458h0l-7.01-4.825-.819,1.092,7.01,4.825a1.812,1.812,0,0,1,.728,1.092,1.58,1.58,0,0,1-.273,1.275,1.812,1.812,0,0,1-1.092.728,1.875,1.875,0,0,1-1.366-.273l-2.094-1.366-.182-.182h0l-3.459-2.367-.637,1.275,3.641,2.458a1.688,1.688,0,0,1,.273,2.276,1.757,1.757,0,0,1-2.458.455l-4.552-3.186-.819,1.092,1.639,1.183V42.1a1.812,1.812,0,0,1,.728,1.092,1.58,1.58,0,0,1-.273,1.275A1.812,1.812,0,0,1,29.5,45.2a1.58,1.58,0,0,1-1.275-.273,2.721,2.721,0,0,0-.91-3.1,2.453,2.453,0,0,0-1.366-.455l.273-.364a3.29,3.29,0,0,0,.546-2.276,2.875,2.875,0,0,0-1.183-2,3.388,3.388,0,0,0-1.821-.637,2.783,2.783,0,0,0-1.821.637,2.714,2.714,0,0,0-1.092-1.548,3.388,3.388,0,0,0-1.821-.637,2.8,2.8,0,0,0-1.73.546,3.235,3.235,0,0,0-1-1.457l-.091-.091A2.933,2.933,0,0,0,14.111,33c-.091-.091-.091-.182-.182-.364A4.438,4.438,0,0,1,13.656,32a7.659,7.659,0,0,0-1.912-2.185L18.3,20.435h5.1Z" transform="translate(0 -14.7)" fill="#005385" stroke="#005385" stroke-width="0.5"/>
  </g>
</svg>
