<svg id="ball" xmlns="http://www.w3.org/2000/svg" width="31.891" height="31.892" viewBox="0 0 31.891 31.892">
  <path id="Caminho_2587" data-name="Caminho 2587" d="M29.569,6.887A15.921,15.921,0,0,0,16.445,0q-.76,0-1.509.07a15.757,15.757,0,0,0-3.419.707c-.317.1-.632.216-.942.338A15.951,15.951,0,0,0,.5,15.945c0,.254.006.514.019.773a15.964,15.964,0,0,0,.437,3.028c.061.25.129.5.2.743q.137.462.3.913a15.909,15.909,0,0,0,3.685,5.792A16.108,16.108,0,0,0,6.8,28.642h0a15.949,15.949,0,0,0,19.247.036q.524-.4,1.01-.829a15.914,15.914,0,0,0,5.3-10.9h0c.021-.33.031-.668.031-1a15.85,15.85,0,0,0-2.821-9.059Zm1.52,10.329a14.623,14.623,0,0,1-.38,2.286,15.231,15.231,0,0,1-.774,2.288,14.77,14.77,0,0,1-1.071,2.022,14.132,14.132,0,0,1-1.46,1.93,14.657,14.657,0,0,1-1.671,1.6q-.109.089-.221.177l-6.98-1.4a1.967,1.967,0,0,1-1.576-1.923V18.22a3.339,3.339,0,0,1,1.522-2.807l.384-.25h0l3.186-2.075,1.607-1.047a1.951,1.951,0,0,1,2.439.239l5,4.873c0,.021,0,.042,0,.063ZM15.71,24.193h0a1.967,1.967,0,0,1-1.576,1.923l-6.8,1.363a15.034,15.034,0,0,1-3.04-3.26c-.242-.35-.466-.715-.674-1.086q-.088-.158-.173-.318l-.013-.024q-.091-.172-.177-.347a14.666,14.666,0,0,1-1.34-4.259q-.1-.623-.137-1.253L6.562,12.2a1.97,1.97,0,0,1,2.464-.24l5.187,3.443a3.342,3.342,0,0,1,1.5,2.791ZM16.787,1.249a14.813,14.813,0,0,1,3.769.579c.353.1.7.219,1.045.348l.6,1.78a.623.623,0,0,0,1.18-.4l-.236-.7a14.7,14.7,0,0,1,7.987,12.6l-4.172-4.066a3.2,3.2,0,0,0-2.018-.907,3.2,3.2,0,0,0,.047-2.191l-.109-.32a.623.623,0,0,0-1.18.4l.109.32a1.96,1.96,0,0,1-.787,2.274l-1.658,1.08-3.186,2.075A3.348,3.348,0,0,1,14.5,14.1L9.669,10.9a1.954,1.954,0,0,1-.754-2.316l2.375-6.4a14.48,14.48,0,0,1,4.226-.9c.424-.025.847-.035,1.272-.026ZM4.348,7.59A14.7,14.7,0,0,1,9.7,2.88L7.746,8.146A3.2,3.2,0,0,0,7.752,10.4a3.2,3.2,0,0,0-2.066.917L1.764,15.2A14.6,14.6,0,0,1,4.348,7.59ZM8.74,28.468l5.639-1.13a3.205,3.205,0,0,0,1.954-1.251,3.2,3.2,0,0,0,1.954,1.251L24.095,28.5A14.72,14.72,0,0,1,8.74,28.468Zm0,0" transform="translate(-0.499 0)" fill="#545454"/>
  <path id="Caminho_2588" data-name="Caminho 2588" d="M361.345,87.68a.623.623,0,1,0-.607-.484A.634.634,0,0,0,361.345,87.68Zm0,0" transform="translate(-338.285 -81.053)" fill="#545454"/>
</svg>
