<svg xmlns="http://www.w3.org/2000/svg" width="33.529" height="41.471" viewBox="0 0 33.529 41.471">
  <g id="noun_bank_statement_981231" data-name="noun_bank statement_981231" transform="translate(-6.05 0.25)">
    <g id="Grupo_2152" data-name="Grupo 2152" transform="translate(6.3)">
      <path id="Caminho_3454" data-name="Caminho 3454" d="M39.329,5.106,34.223,0H9.136V3.908H6.3V40.971H35.295v-2.71h4.034Zm-4.854-3.53L37.69,4.79H34.476Zm-.126,38.45H7.245V4.854H9.136V38.261H34.35Zm-24.268-2.71V.945H33.593v4.79h4.79V37.252h-28.3Z" transform="translate(-6.3)" fill="#005385" stroke="#005385" stroke-width="0.5"/>
      <rect id="Retângulo_3873" data-name="Retângulo 3873" width="14.939" height="0.945" transform="translate(6.303 25.591)" fill="#005385" stroke="#005385" stroke-width="0.5"/>
      <rect id="Retângulo_3874" data-name="Retângulo 3874" width="6.24" height="0.945" transform="translate(23.07 25.591)" fill="#005385" stroke="#005385" stroke-width="0.5"/>
      <rect id="Retângulo_3875" data-name="Retângulo 3875" width="14.939" height="0.945" transform="translate(6.303 21.053)" fill="#005385" stroke="#005385" stroke-width="0.5"/>
      <rect id="Retângulo_3876" data-name="Retângulo 3876" width="6.24" height="0.945" transform="translate(23.07 21.053)" fill="#005385" stroke="#005385" stroke-width="0.5"/>
      <rect id="Retângulo_3877" data-name="Retângulo 3877" width="8.383" height="0.945" transform="translate(15.632 10.589)" fill="#005385" stroke="#005385" stroke-width="0.5"/>
      <rect id="Retângulo_3878" data-name="Retângulo 3878" width="13.615" height="0.945" transform="translate(15.632 14.119)" fill="#005385" stroke="#005385" stroke-width="0.5"/>
      <rect id="Retângulo_3879" data-name="Retângulo 3879" width="14.939" height="0.945" transform="translate(6.303 30.13)" fill="#005385" stroke="#005385" stroke-width="0.5"/>
      <rect id="Retângulo_3880" data-name="Retângulo 3880" width="1.009" height="0.945" transform="translate(28.239 30.13)" fill="#005385" stroke="#005385" stroke-width="0.5"/>
      <rect id="Retângulo_3881" data-name="Retângulo 3881" width="1.009" height="0.945" transform="translate(25.654 30.13)" fill="#005385" stroke="#005385" stroke-width="0.5"/>
      <rect id="Retângulo_3882" data-name="Retângulo 3882" width="1.009" height="0.945" transform="translate(23.07 30.13)" fill="#005385" stroke="#005385" stroke-width="0.5"/>
      <path id="Caminho_3455" data-name="Caminho 3455" d="M18.313,17.07a1.432,1.432,0,0,1-.567-1.135H16.8a2.553,2.553,0,0,0,.882,1.891,2.976,2.976,0,0,0,1.576.693v1.828H20.2V18.457a2.976,2.976,0,0,0,1.576-.693,2.455,2.455,0,0,0,.882-1.891,2.553,2.553,0,0,0-.882-1.891,3.019,3.019,0,0,0-2.08-.756,2.247,2.247,0,0,1-1.45-.5,1.418,1.418,0,0,1,0-2.269,2.459,2.459,0,0,1,2.9,0,1.432,1.432,0,0,1,.567,1.135h.945A2.553,2.553,0,0,0,21.78,9.7,2.976,2.976,0,0,0,20.2,9V7.3h-.945V9.128a2.976,2.976,0,0,0-1.576.693,2.455,2.455,0,0,0-.882,1.891,2.553,2.553,0,0,0,.882,1.891,3.019,3.019,0,0,0,2.08.756,2.247,2.247,0,0,1,1.45.5,1.418,1.418,0,0,1,0,2.269A2.564,2.564,0,0,1,18.313,17.07Z" transform="translate(-10.182 -2.699)" fill="#005385" stroke="#005385" stroke-width="0.5"/>
    </g>
  </g>
</svg>
