<svg xmlns="http://www.w3.org/2000/svg" width="764.981" height="504.98" viewBox="0 0 764.981 504.98">
  <g id="Building_safety-rafiki" data-name="Building safety-rafiki" transform="translate(0 -112.849)">
    <g id="freepik--background-complete--inject-2" transform="translate(0 112.849)">
      <rect id="Retângulo_6093" data-name="Retângulo 6093" width="50.672" height="0.382" transform="translate(637.658 466.394)" fill="#ebebeb"/>
      <rect id="Retângulo_6094" data-name="Retângulo 6094" width="13.295" height="0.382" transform="translate(493.459 470.555)" fill="#ebebeb"/>
      <rect id="Retângulo_6095" data-name="Retângulo 6095" width="29.36" height="0.382" transform="translate(606.768 452.196)" fill="#ebebeb"/>
      <rect id="Retângulo_6096" data-name="Retângulo 6096" width="66.079" height="0.382" transform="translate(80.262 454.766)" fill="#ebebeb"/>
      <rect id="Retângulo_6097" data-name="Retângulo 6097" width="9.685" height="0.382" transform="translate(159.973 454.766)" fill="#ebebeb"/>
      <rect id="Retângulo_6098" data-name="Retângulo 6098" width="143.327" height="0.382" transform="translate(201.144 461.223)" fill="#ebebeb"/>
      <rect id="Retângulo_6099" data-name="Retângulo 6099" width="764.981" height="0.382" transform="translate(0 441.777)" fill="#ebebeb"/>
      <path id="Caminho_9291" data-name="Caminho 9291" d="M233.123,119.454a6.839,6.839,0,0,0-4.422,1.53,11.672,11.672,0,0,0,0-4.192,15.009,15.009,0,0,0-14.152-11.98,10.5,10.5,0,0,0-5.385,1.408,14.948,14.948,0,0,0-12.607-7.788,9.746,9.746,0,0,0-9.822,11.995,14.225,14.225,0,0,0,.4,1.53,12.714,12.714,0,0,0-3.228-.428,9.746,9.746,0,0,0-9.822,11.995,14.994,14.994,0,0,0,14.152,11.98h47.781a6.548,6.548,0,0,0,6.609-8.048A10.082,10.082,0,0,0,233.123,119.454Z" transform="translate(92.117 -91.119)" fill="#f5f5f5"/>
      <path id="Caminho_9292" data-name="Caminho 9292" d="M198.537,131.868a12.392,12.392,0,0,0-8.032,2.769,20.471,20.471,0,0,0,0-7.65c-2.173-12.026-13.663-21.771-25.688-21.771a19.109,19.109,0,0,0-9.761,2.555c-4.59-8.247-13.571-14.122-22.949-14.122-12.026,0-20.012,9.746-17.839,21.771a23.555,23.555,0,0,0,.734,2.892,23.607,23.607,0,0,0-5.86-.78c-12.026,0-20,9.746-17.839,21.756S104.98,161.06,116.99,161.06h86.749c8.078,0,13.433-6.548,11.98-14.626a18.36,18.36,0,0,0-17.182-14.565Z" transform="translate(48.2 -93.65)" fill="#f5f5f5"/>
      <path id="Caminho_9293" data-name="Caminho 9293" d="M427.648,135.1a12.377,12.377,0,0,0-8.032,2.784,20.549,20.549,0,0,0,0-7.65c-2.157-12.01-13.663-21.756-25.688-21.756a19.063,19.063,0,0,0-9.746,2.555c-4.59-8.246-13.586-14.122-22.949-14.122-12.025,0-20.012,9.746-17.839,21.756a26.005,26.005,0,0,0,.734,2.907,22.949,22.949,0,0,0-5.86-.8c-12.01,0-20,9.746-17.824,21.771s13.724,21.817,25.749,21.817h86.734c8.078,0,13.433-6.548,11.98-14.611A18.36,18.36,0,0,0,427.648,135.1Z" transform="translate(169.634 -91.922)" fill="#f5f5f5"/>
      <path id="Caminho_9294" data-name="Caminho 9294" d="M436.54,114.728a5.11,5.11,0,0,0-3.351,1.163,8.461,8.461,0,0,0,0-3.167,11.337,11.337,0,0,0-10.71-9.073,7.833,7.833,0,0,0-4.07,1.071,11.322,11.322,0,0,0-9.532-5.89,7.374,7.374,0,0,0-7.436,9.073,10.717,10.717,0,0,0,.306,1.209,9.334,9.334,0,0,0-2.433-.337,7.359,7.359,0,0,0-7.436,9.073,11.337,11.337,0,0,0,10.71,9.057h36.138a4.957,4.957,0,0,0,4.988-6.12,7.65,7.65,0,0,0-7.175-6.059Z" transform="translate(207.574 -90.906)" fill="#f0f0f0"/>
      <path id="Caminho_9295" data-name="Caminho 9295" d="M303.1,162.349V147.57H273.23v14.779H223.69v347.7h86.626v-347.7Z" transform="translate(118.547 -65.074)" fill="#f0f0f0"/>
      <rect id="Retângulo_6100" data-name="Retângulo 6100" width="12.79" height="12.79" transform="translate(370.22 115.941)" fill="#fafafa"/>
      <rect id="Retângulo_6101" data-name="Retângulo 6101" width="12.79" height="12.79" transform="translate(388.09 115.941)" fill="#fafafa"/>
      <rect id="Retângulo_6102" data-name="Retângulo 6102" width="12.79" height="12.79" transform="translate(352.35 135.233)" fill="#fafafa"/>
      <rect id="Retângulo_6103" data-name="Retângulo 6103" width="12.79" height="12.79" transform="translate(370.22 135.233)" fill="#fafafa"/>
      <rect id="Retângulo_6104" data-name="Retângulo 6104" width="12.79" height="12.79" transform="translate(405.96 135.233)" fill="#fafafa"/>
      <rect id="Retângulo_6105" data-name="Retângulo 6105" width="12.79" height="12.79" transform="translate(352.35 154.542)" fill="#fafafa"/>
      <rect id="Retângulo_6106" data-name="Retângulo 6106" width="12.79" height="12.79" transform="translate(388.09 154.542)" fill="#fafafa"/>
      <rect id="Retângulo_6107" data-name="Retângulo 6107" width="12.79" height="12.79" transform="translate(405.96 154.542)" fill="#fafafa"/>
      <rect id="Retângulo_6108" data-name="Retângulo 6108" width="12.79" height="12.79" transform="translate(352.35 193.127)" fill="#fafafa"/>
      <rect id="Retângulo_6109" data-name="Retângulo 6109" width="12.79" height="12.79" transform="translate(388.09 193.127)" fill="#fafafa"/>
      <rect id="Retângulo_6110" data-name="Retângulo 6110" width="12.79" height="12.79" transform="translate(352.35 212.42)" fill="#fafafa"/>
      <rect id="Retângulo_6111" data-name="Retângulo 6111" width="12.79" height="12.79" transform="translate(370.22 212.42)" fill="#fafafa"/>
      <rect id="Retângulo_6112" data-name="Retângulo 6112" width="12.79" height="12.79" transform="translate(405.96 212.42)" fill="#fafafa"/>
      <rect id="Retângulo_6113" data-name="Retângulo 6113" width="12.79" height="12.79" transform="translate(352.35 308.777)" fill="#fafafa"/>
      <rect id="Retângulo_6114" data-name="Retângulo 6114" width="12.79" height="12.79" transform="translate(370.22 308.777)" fill="#fafafa"/>
      <rect id="Retângulo_6115" data-name="Retângulo 6115" width="12.79" height="12.79" transform="translate(405.96 308.777)" fill="#fafafa"/>
      <rect id="Retângulo_6116" data-name="Retângulo 6116" width="12.79" height="12.79" transform="translate(352.35 328.07)" fill="#fafafa"/>
      <rect id="Retângulo_6117" data-name="Retângulo 6117" width="12.79" height="12.79" transform="translate(388.09 328.07)" fill="#fafafa"/>
      <rect id="Retângulo_6118" data-name="Retângulo 6118" width="12.79" height="12.79" transform="translate(405.96 328.07)" fill="#fafafa"/>
      <rect id="Retângulo_6119" data-name="Retângulo 6119" width="12.79" height="12.79" transform="translate(352.35 366.671)" fill="#fafafa"/>
      <rect id="Retângulo_6120" data-name="Retângulo 6120" width="12.79" height="12.79" transform="translate(388.09 366.671)" fill="#fafafa"/>
      <rect id="Retângulo_6121" data-name="Retângulo 6121" width="12.79" height="12.79" transform="translate(352.35 385.964)" fill="#fafafa"/>
      <rect id="Retângulo_6122" data-name="Retângulo 6122" width="12.79" height="12.79" transform="translate(370.22 385.964)" fill="#fafafa"/>
      <rect id="Retângulo_6123" data-name="Retângulo 6123" width="12.79" height="12.79" transform="translate(405.96 385.964)" fill="#fafafa"/>
      <rect id="Retângulo_6124" data-name="Retângulo 6124" width="12.79" height="12.79" transform="translate(405.96 231.728)" fill="#fafafa"/>
      <rect id="Retângulo_6125" data-name="Retângulo 6125" width="12.79" height="12.79" transform="translate(352.35 251.021)" fill="#fafafa"/>
      <rect id="Retângulo_6126" data-name="Retângulo 6126" width="12.79" height="12.79" transform="translate(370.22 251.021)" fill="#fafafa"/>
      <rect id="Retângulo_6127" data-name="Retângulo 6127" width="12.79" height="12.79" transform="matrix(1, 0.014, -0.014, 1, 388.19, 270.349)" fill="#fafafa"/>
      <rect id="Retângulo_6128" data-name="Retângulo 6128" width="12.79" height="12.79" transform="matrix(1, 0.014, -0.014, 1, 406.054, 270.604)" fill="#fafafa"/>
      <rect id="Retângulo_6129" data-name="Retângulo 6129" width="12.79" height="12.79" transform="translate(352.35 289.607)" fill="#fafafa"/>
      <path id="Caminho_9296" data-name="Caminho 9296" d="M386.264,204.679V192.73h24.158v11.949h40.116V486.116H380.42V204.679Z" transform="translate(201.608 -41.141)" fill="#f0f0f0"/>
      <rect id="Retângulo_6130" data-name="Retângulo 6130" width="10.358" height="10.358" transform="translate(629.503 189.012) rotate(180)" fill="#fafafa"/>
      <rect id="Retângulo_6131" data-name="Retângulo 6131" width="10.358" height="10.358" transform="translate(615.03 189.012) rotate(180)" fill="#fafafa"/>
      <rect id="Retângulo_6132" data-name="Retângulo 6132" width="10.358" height="10.358" transform="translate(643.961 204.633) rotate(180)" fill="#fafafa"/>
      <rect id="Retângulo_6133" data-name="Retângulo 6133" width="10.358" height="10.358" transform="translate(629.503 204.633) rotate(180)" fill="#fafafa"/>
      <rect id="Retângulo_6134" data-name="Retângulo 6134" width="10.358" height="10.358" transform="translate(600.556 204.633) rotate(180)" fill="#fafafa"/>
      <rect id="Retângulo_6135" data-name="Retângulo 6135" width="10.358" height="10.358" transform="translate(643.961 220.254) rotate(180)" fill="#fafafa"/>
      <rect id="Retângulo_6136" data-name="Retângulo 6136" width="10.358" height="10.358" transform="translate(615.03 220.254) rotate(180)" fill="#fafafa"/>
      <rect id="Retângulo_6137" data-name="Retângulo 6137" width="10.358" height="10.358" transform="translate(600.556 220.254) rotate(180)" fill="#fafafa"/>
      <rect id="Retângulo_6138" data-name="Retângulo 6138" width="10.358" height="10.358" transform="translate(643.961 251.48) rotate(180)" fill="#fafafa"/>
      <rect id="Retângulo_6139" data-name="Retângulo 6139" width="10.358" height="10.358" transform="translate(615.03 251.48) rotate(180)" fill="#fafafa"/>
      <rect id="Retângulo_6140" data-name="Retângulo 6140" width="10.358" height="10.358" transform="translate(643.961 267.116) rotate(180)" fill="#fafafa"/>
      <rect id="Retângulo_6141" data-name="Retângulo 6141" width="10.358" height="10.358" transform="translate(629.503 267.116) rotate(180)" fill="#fafafa"/>
      <rect id="Retângulo_6142" data-name="Retângulo 6142" width="10.358" height="10.358" transform="translate(600.556 267.116) rotate(180)" fill="#fafafa"/>
      <rect id="Retângulo_6143" data-name="Retângulo 6143" width="10.358" height="10.358" transform="translate(643.961 345.098) rotate(180)" fill="#fafafa"/>
      <rect id="Retângulo_6144" data-name="Retângulo 6144" width="10.358" height="10.358" transform="translate(629.503 345.098) rotate(180)" fill="#fafafa"/>
      <rect id="Retângulo_6145" data-name="Retângulo 6145" width="10.358" height="10.358" transform="translate(600.556 345.098) rotate(180)" fill="#fafafa"/>
      <rect id="Retângulo_6146" data-name="Retângulo 6146" width="10.358" height="10.358" transform="translate(643.961 360.704) rotate(180)" fill="#fafafa"/>
      <rect id="Retângulo_6147" data-name="Retângulo 6147" width="10.358" height="10.358" transform="translate(615.03 360.704) rotate(180)" fill="#fafafa"/>
      <rect id="Retângulo_6148" data-name="Retângulo 6148" width="10.358" height="10.358" transform="translate(600.556 360.704) rotate(180)" fill="#fafafa"/>
      <rect id="Retângulo_6149" data-name="Retângulo 6149" width="10.358" height="10.358" transform="translate(643.961 391.961) rotate(180)" fill="#fafafa"/>
      <rect id="Retângulo_6150" data-name="Retângulo 6150" width="10.358" height="10.358" transform="translate(615.03 391.961) rotate(180)" fill="#fafafa"/>
      <rect id="Retângulo_6151" data-name="Retângulo 6151" width="10.358" height="10.358" transform="translate(643.961 407.582) rotate(180)" fill="#fafafa"/>
      <rect id="Retângulo_6152" data-name="Retângulo 6152" width="10.358" height="10.358" transform="translate(629.503 407.582) rotate(180)" fill="#fafafa"/>
      <rect id="Retângulo_6153" data-name="Retângulo 6153" width="10.358" height="10.358" transform="translate(600.556 407.582) rotate(180)" fill="#fafafa"/>
      <rect id="Retângulo_6154" data-name="Retângulo 6154" width="10.358" height="10.358" transform="translate(600.556 282.737) rotate(180)" fill="#fafafa"/>
      <rect id="Retângulo_6155" data-name="Retângulo 6155" width="10.358" height="10.358" transform="translate(643.961 298.343) rotate(180)" fill="#fafafa"/>
      <rect id="Retângulo_6156" data-name="Retângulo 6156" width="10.358" height="10.358" transform="translate(629.503 298.343) rotate(180)" fill="#fafafa"/>
      <rect id="Retângulo_6157" data-name="Retângulo 6157" width="10.358" height="10.358" transform="matrix(-1, 0.014, -0.014, -1, 615.12, 313.971)" fill="#fafafa"/>
      <rect id="Retângulo_6158" data-name="Retângulo 6158" width="10.358" height="10.358" transform="matrix(-1, 0.014, -0.014, -1, 600.627, 314.208)" fill="#fafafa"/>
      <rect id="Retângulo_6159" data-name="Retângulo 6159" width="10.358" height="10.358" transform="translate(643.961 329.585) rotate(180)" fill="#fafafa"/>
      <path id="Caminho_9297" data-name="Caminho 9297" d="M290.9,202.39h63.631V481H285.12V202.39Z" transform="translate(151.103 -36.022)" fill="#ebebeb"/>
      <rect id="Retângulo_6160" data-name="Retângulo 6160" width="10.251" height="10.251" transform="translate(483.223 191.582) rotate(180)" fill="#fafafa"/>
      <rect id="Retângulo_6161" data-name="Retângulo 6161" width="10.251" height="10.251" transform="translate(468.903 191.582) rotate(180)" fill="#fafafa"/>
      <rect id="Retângulo_6162" data-name="Retângulo 6162" width="10.251" height="10.251" transform="translate(497.529 207.05) rotate(180)" fill="#fafafa"/>
      <rect id="Retângulo_6163" data-name="Retângulo 6163" width="10.251" height="10.251" transform="translate(483.223 207.05) rotate(180)" fill="#fafafa"/>
      <rect id="Retângulo_6164" data-name="Retângulo 6164" width="10.251" height="10.251" transform="translate(454.583 207.05) rotate(180)" fill="#fafafa"/>
      <rect id="Retângulo_6165" data-name="Retângulo 6165" width="10.251" height="10.251" transform="translate(497.529 222.502) rotate(180)" fill="#fafafa"/>
      <rect id="Retângulo_6166" data-name="Retângulo 6166" width="10.251" height="10.251" transform="translate(468.903 222.502) rotate(180)" fill="#fafafa"/>
      <rect id="Retângulo_6167" data-name="Retângulo 6167" width="10.251" height="10.251" transform="translate(454.583 222.502) rotate(180)" fill="#fafafa"/>
      <rect id="Retângulo_6168" data-name="Retângulo 6168" width="10.251" height="10.251" transform="translate(497.529 253.438) rotate(180)" fill="#fafafa"/>
      <rect id="Retângulo_6169" data-name="Retângulo 6169" width="10.251" height="10.251" transform="translate(468.903 253.438) rotate(180)" fill="#fafafa"/>
      <rect id="Retângulo_6170" data-name="Retângulo 6170" width="10.251" height="10.251" transform="translate(497.529 268.891) rotate(180)" fill="#fafafa"/>
      <rect id="Retângulo_6171" data-name="Retângulo 6171" width="10.251" height="10.251" transform="translate(483.223 268.891) rotate(180)" fill="#fafafa"/>
      <rect id="Retângulo_6172" data-name="Retângulo 6172" width="10.251" height="10.251" transform="translate(454.583 268.891) rotate(180)" fill="#fafafa"/>
      <rect id="Retângulo_6173" data-name="Retângulo 6173" width="10.251" height="10.251" transform="translate(497.529 346.093) rotate(180)" fill="#fafafa"/>
      <rect id="Retângulo_6174" data-name="Retângulo 6174" width="10.251" height="10.251" transform="translate(483.223 346.093) rotate(180)" fill="#fafafa"/>
      <rect id="Retângulo_6175" data-name="Retângulo 6175" width="10.251" height="10.251" transform="translate(454.583 346.093) rotate(180)" fill="#fafafa"/>
      <rect id="Retângulo_6176" data-name="Retângulo 6176" width="10.251" height="10.251" transform="translate(497.529 361.561) rotate(180)" fill="#fafafa"/>
      <rect id="Retângulo_6177" data-name="Retângulo 6177" width="10.251" height="10.251" transform="translate(468.903 361.561) rotate(180)" fill="#fafafa"/>
      <rect id="Retângulo_6178" data-name="Retângulo 6178" width="10.251" height="10.251" transform="translate(454.583 361.561) rotate(180)" fill="#fafafa"/>
      <rect id="Retângulo_6179" data-name="Retângulo 6179" width="10.251" height="10.251" transform="translate(497.529 392.481) rotate(180)" fill="#fafafa"/>
      <rect id="Retângulo_6180" data-name="Retângulo 6180" width="10.251" height="10.251" transform="translate(468.903 392.481) rotate(180)" fill="#fafafa"/>
      <rect id="Retângulo_6181" data-name="Retângulo 6181" width="10.251" height="10.251" transform="translate(497.529 407.934) rotate(180)" fill="#fafafa"/>
      <rect id="Retângulo_6182" data-name="Retângulo 6182" width="10.251" height="10.251" transform="translate(483.223 407.934) rotate(180)" fill="#fafafa"/>
      <rect id="Retângulo_6183" data-name="Retângulo 6183" width="10.251" height="10.251" transform="translate(454.583 407.934) rotate(180)" fill="#fafafa"/>
      <rect id="Retângulo_6184" data-name="Retângulo 6184" width="10.251" height="10.251" transform="translate(454.583 284.359) rotate(180)" fill="#fafafa"/>
      <rect id="Retângulo_6185" data-name="Retângulo 6185" width="10.251" height="10.251" transform="translate(497.529 299.812) rotate(180)" fill="#fafafa"/>
      <rect id="Retângulo_6186" data-name="Retângulo 6186" width="10.251" height="10.251" transform="translate(483.223 299.812) rotate(180)" fill="#fafafa"/>
      <rect id="Retângulo_6187" data-name="Retângulo 6187" width="10.251" height="10.251" transform="matrix(-1, 0.014, -0.014, -1, 468.989, 315.309)" fill="#fafafa"/>
      <rect id="Retângulo_6188" data-name="Retângulo 6188" width="10.251" height="10.251" transform="matrix(-1, 0.014, -0.014, -1, 454.648, 315.502)" fill="#fafafa"/>
      <rect id="Retângulo_6189" data-name="Retângulo 6189" width="10.251" height="10.251" transform="translate(497.529 330.747) rotate(180)" fill="#fafafa"/>
      <path id="Caminho_9298" data-name="Caminho 9298" d="M81.549,202.39H145.18V481H75.75V202.39Z" transform="translate(40.145 -36.022)" fill="#f0f0f0"/>
      <rect id="Retângulo_6190" data-name="Retângulo 6190" width="10.251" height="10.251" transform="translate(162.895 191.582) rotate(180)" fill="#fafafa"/>
      <rect id="Retângulo_6191" data-name="Retângulo 6191" width="10.251" height="10.251" transform="translate(148.575 191.582) rotate(180)" fill="#fafafa"/>
      <rect id="Retângulo_6192" data-name="Retângulo 6192" width="10.251" height="10.251" transform="translate(177.2 207.05) rotate(180)" fill="#fafafa"/>
      <rect id="Retângulo_6193" data-name="Retângulo 6193" width="10.251" height="10.251" transform="translate(162.895 207.05) rotate(180)" fill="#fafafa"/>
      <rect id="Retângulo_6194" data-name="Retângulo 6194" width="10.251" height="10.251" transform="translate(134.254 207.05) rotate(180)" fill="#fafafa"/>
      <rect id="Retângulo_6195" data-name="Retângulo 6195" width="10.251" height="10.251" transform="translate(177.2 222.502) rotate(180)" fill="#fafafa"/>
      <rect id="Retângulo_6196" data-name="Retângulo 6196" width="10.251" height="10.251" transform="translate(148.575 222.502) rotate(180)" fill="#fafafa"/>
      <rect id="Retângulo_6197" data-name="Retângulo 6197" width="10.251" height="10.251" transform="translate(134.254 222.502) rotate(180)" fill="#fafafa"/>
      <rect id="Retângulo_6198" data-name="Retângulo 6198" width="10.251" height="10.251" transform="translate(177.2 253.438) rotate(180)" fill="#fafafa"/>
      <rect id="Retângulo_6199" data-name="Retângulo 6199" width="10.251" height="10.251" transform="translate(148.575 253.438) rotate(180)" fill="#fafafa"/>
      <rect id="Retângulo_6200" data-name="Retângulo 6200" width="10.251" height="10.251" transform="translate(177.2 268.891) rotate(180)" fill="#fafafa"/>
      <rect id="Retângulo_6201" data-name="Retângulo 6201" width="10.251" height="10.251" transform="translate(162.895 268.891) rotate(180)" fill="#fafafa"/>
      <rect id="Retângulo_6202" data-name="Retângulo 6202" width="10.251" height="10.251" transform="translate(134.254 268.891) rotate(180)" fill="#fafafa"/>
      <rect id="Retângulo_6203" data-name="Retângulo 6203" width="10.251" height="10.251" transform="translate(177.2 346.093) rotate(180)" fill="#fafafa"/>
      <rect id="Retângulo_6204" data-name="Retângulo 6204" width="10.251" height="10.251" transform="translate(162.895 346.093) rotate(180)" fill="#fafafa"/>
      <rect id="Retângulo_6205" data-name="Retângulo 6205" width="10.251" height="10.251" transform="translate(134.254 346.093) rotate(180)" fill="#fafafa"/>
      <rect id="Retângulo_6206" data-name="Retângulo 6206" width="10.251" height="10.251" transform="translate(177.2 361.561) rotate(180)" fill="#fafafa"/>
      <rect id="Retângulo_6207" data-name="Retângulo 6207" width="10.251" height="10.251" transform="translate(148.575 361.561) rotate(180)" fill="#fafafa"/>
      <rect id="Retângulo_6208" data-name="Retângulo 6208" width="10.251" height="10.251" transform="translate(134.254 361.561) rotate(180)" fill="#fafafa"/>
      <rect id="Retângulo_6209" data-name="Retângulo 6209" width="10.251" height="10.251" transform="translate(177.2 392.481) rotate(180)" fill="#fafafa"/>
      <rect id="Retângulo_6210" data-name="Retângulo 6210" width="10.251" height="10.251" transform="translate(148.575 392.481) rotate(180)" fill="#fafafa"/>
      <rect id="Retângulo_6211" data-name="Retângulo 6211" width="10.251" height="10.251" transform="translate(177.2 407.934) rotate(180)" fill="#fafafa"/>
      <rect id="Retângulo_6212" data-name="Retângulo 6212" width="10.251" height="10.251" transform="translate(162.895 407.934) rotate(180)" fill="#fafafa"/>
      <rect id="Retângulo_6213" data-name="Retângulo 6213" width="10.251" height="10.251" transform="translate(134.254 407.934) rotate(180)" fill="#fafafa"/>
      <rect id="Retângulo_6214" data-name="Retângulo 6214" width="10.251" height="10.251" transform="translate(134.254 284.359) rotate(180)" fill="#fafafa"/>
      <rect id="Retângulo_6215" data-name="Retângulo 6215" width="10.251" height="10.251" transform="translate(177.2 299.812) rotate(180)" fill="#fafafa"/>
      <rect id="Retângulo_6216" data-name="Retângulo 6216" width="10.251" height="10.251" transform="translate(162.895 299.812) rotate(180)" fill="#fafafa"/>
      <rect id="Retângulo_6217" data-name="Retângulo 6217" width="10.251" height="10.251" transform="matrix(-1, 0.014, -0.014, -1, 148.659, 315.315)" fill="#fafafa"/>
      <rect id="Retângulo_6218" data-name="Retângulo 6218" width="10.251" height="10.251" transform="matrix(-1, 0.014, -0.014, -1, 134.334, 315.508)" fill="#fafafa"/>
      <rect id="Retângulo_6219" data-name="Retângulo 6219" width="10.251" height="10.251" transform="translate(177.2 330.747) rotate(180)" fill="#fafafa"/>
      <path id="Caminho_9299" data-name="Caminho 9299" d="M169.04,496.264h76.253V173.58l-76.253,8.155Z" transform="translate(89.585 -51.29)" fill="#f0f0f0"/>
      <rect id="Retângulo_6220" data-name="Retângulo 6220" width="20.838" height="20.838" transform="translate(330.763 156.714) rotate(180)" fill="#fafafa"/>
      <rect id="Retângulo_6221" data-name="Retângulo 6221" width="20.838" height="20.838" transform="translate(307.171 156.714) rotate(180)" fill="#f0f0f0"/>
      <rect id="Retângulo_6222" data-name="Retângulo 6222" width="20.838" height="20.838" transform="translate(283.563 156.714) rotate(180)" fill="#fafafa"/>
      <rect id="Retângulo_6223" data-name="Retângulo 6223" width="20.838" height="20.838" transform="translate(330.763 180) rotate(180)" fill="#fafafa"/>
      <rect id="Retângulo_6224" data-name="Retângulo 6224" width="20.838" height="20.838" transform="translate(307.171 180) rotate(180)" fill="#fafafa"/>
      <rect id="Retângulo_6225" data-name="Retângulo 6225" width="20.838" height="20.838" transform="translate(283.563 180) rotate(180)" fill="#fafafa"/>
      <rect id="Retângulo_6226" data-name="Retângulo 6226" width="20.838" height="20.838" transform="translate(330.763 203.286) rotate(180)" fill="#fafafa"/>
      <rect id="Retângulo_6227" data-name="Retângulo 6227" width="20.838" height="20.838" transform="translate(307.171 203.286) rotate(180)" fill="#f0f0f0"/>
      <rect id="Retângulo_6228" data-name="Retângulo 6228" width="20.838" height="20.838" transform="translate(283.563 203.286) rotate(180)" fill="#fafafa"/>
      <rect id="Retângulo_6229" data-name="Retângulo 6229" width="20.838" height="20.838" transform="translate(330.763 226.557) rotate(180)" fill="#f0f0f0"/>
      <rect id="Retângulo_6230" data-name="Retângulo 6230" width="20.838" height="20.838" transform="translate(307.171 226.557) rotate(180)" fill="#fafafa"/>
      <rect id="Retângulo_6231" data-name="Retângulo 6231" width="20.838" height="20.838" transform="translate(283.563 226.557) rotate(180)" fill="#fafafa"/>
      <rect id="Retângulo_6232" data-name="Retângulo 6232" width="20.838" height="20.838" transform="translate(330.763 249.843) rotate(180)" fill="#fafafa"/>
      <rect id="Retângulo_6233" data-name="Retângulo 6233" width="20.838" height="20.838" transform="translate(307.171 249.843) rotate(180)" fill="#fafafa"/>
      <rect id="Retângulo_6234" data-name="Retângulo 6234" width="20.838" height="20.838" transform="translate(283.563 249.843) rotate(180)" fill="#f0f0f0"/>
      <rect id="Retângulo_6235" data-name="Retângulo 6235" width="20.838" height="20.838" transform="translate(330.763 273.098) rotate(180)" fill="#fafafa"/>
      <rect id="Retângulo_6236" data-name="Retângulo 6236" width="20.838" height="20.838" transform="translate(307.171 273.098) rotate(180)" fill="#f0f0f0"/>
      <rect id="Retângulo_6237" data-name="Retângulo 6237" width="20.838" height="20.838" transform="translate(283.563 273.098) rotate(180)" fill="#fafafa"/>
      <rect id="Retângulo_6238" data-name="Retângulo 6238" width="20.838" height="20.838" transform="translate(330.763 296.384) rotate(180)" fill="#f0f0f0"/>
      <rect id="Retângulo_6239" data-name="Retângulo 6239" width="20.838" height="20.838" transform="translate(307.171 296.384) rotate(180)" fill="#f0f0f0"/>
      <rect id="Retângulo_6240" data-name="Retângulo 6240" width="20.838" height="20.838" transform="translate(283.563 296.384) rotate(180)" fill="#fafafa"/>
      <rect id="Retângulo_6241" data-name="Retângulo 6241" width="20.838" height="20.838" transform="translate(330.763 319.67) rotate(180)" fill="#fafafa"/>
      <rect id="Retângulo_6242" data-name="Retângulo 6242" width="20.838" height="20.838" transform="translate(307.171 319.67) rotate(180)" fill="#f0f0f0"/>
      <rect id="Retângulo_6243" data-name="Retângulo 6243" width="20.838" height="20.838" transform="translate(283.563 319.67) rotate(180)" fill="#fafafa"/>
      <rect id="Retângulo_6244" data-name="Retângulo 6244" width="20.838" height="20.838" transform="translate(330.763 342.941) rotate(180)" fill="#fafafa"/>
      <rect id="Retângulo_6245" data-name="Retângulo 6245" width="20.838" height="20.838" transform="translate(307.171 342.941) rotate(180)" fill="#fafafa"/>
      <rect id="Retângulo_6246" data-name="Retângulo 6246" width="20.838" height="20.838" transform="translate(283.563 342.941) rotate(180)" fill="#fafafa"/>
      <rect id="Retângulo_6247" data-name="Retângulo 6247" width="20.838" height="20.838" transform="translate(330.763 366.212) rotate(180)" fill="#f0f0f0"/>
      <rect id="Retângulo_6248" data-name="Retângulo 6248" width="20.838" height="20.838" transform="translate(307.171 366.212) rotate(180)" fill="#fafafa"/>
      <rect id="Retângulo_6249" data-name="Retângulo 6249" width="20.838" height="20.838" transform="translate(283.563 366.212) rotate(180)" fill="#f0f0f0"/>
      <rect id="Retângulo_6250" data-name="Retângulo 6250" width="20.838" height="20.838" transform="translate(330.763 389.498) rotate(180)" fill="#fafafa"/>
      <rect id="Retângulo_6251" data-name="Retângulo 6251" width="20.838" height="20.838" transform="translate(307.171 389.498) rotate(180)" fill="#f0f0f0"/>
      <rect id="Retângulo_6252" data-name="Retângulo 6252" width="20.838" height="20.838" transform="translate(283.563 389.498) rotate(180)" fill="#fafafa"/>
      <rect id="Retângulo_6253" data-name="Retângulo 6253" width="20.838" height="20.838" transform="translate(330.763 412.769) rotate(180)" fill="#f0f0f0"/>
      <rect id="Retângulo_6254" data-name="Retângulo 6254" width="20.838" height="20.838" transform="translate(307.171 412.769) rotate(180)" fill="#fafafa"/>
      <rect id="Retângulo_6255" data-name="Retângulo 6255" width="20.838" height="20.838" transform="translate(283.563 412.769) rotate(180)" fill="#fafafa"/>
      <path id="Caminho_9300" data-name="Caminho 9300" d="M335.3,474.971h61.719V213.76L335.3,220.369Z" transform="translate(177.697 -29.996)" fill="#f0f0f0"/>
      <rect id="Retângulo_6256" data-name="Retângulo 6256" width="16.875" height="16.875" transform="translate(571.395 211.64) rotate(180)" fill="#fafafa"/>
      <rect id="Retângulo_6257" data-name="Retângulo 6257" width="16.875" height="16.875" transform="translate(552.286 211.64) rotate(180)" fill="#f0f0f0"/>
      <rect id="Retângulo_6258" data-name="Retângulo 6258" width="16.875" height="16.875" transform="translate(533.177 211.64) rotate(180)" fill="#fafafa"/>
      <rect id="Retângulo_6259" data-name="Retângulo 6259" width="16.875" height="16.875" transform="translate(571.395 230.474) rotate(180)" fill="#fafafa"/>
      <rect id="Retângulo_6260" data-name="Retângulo 6260" width="16.875" height="16.875" transform="translate(552.286 230.474) rotate(180)" fill="#fafafa"/>
      <rect id="Retângulo_6261" data-name="Retângulo 6261" width="16.875" height="16.875" transform="translate(533.177 230.474) rotate(180)" fill="#fafafa"/>
      <rect id="Retângulo_6262" data-name="Retângulo 6262" width="16.875" height="16.875" transform="translate(571.395 249.338) rotate(180)" fill="#fafafa"/>
      <rect id="Retângulo_6263" data-name="Retângulo 6263" width="16.875" height="16.875" transform="translate(552.286 249.338) rotate(180)" fill="#f0f0f0"/>
      <rect id="Retângulo_6264" data-name="Retângulo 6264" width="16.875" height="16.875" transform="translate(533.177 249.338) rotate(180)" fill="#fafafa"/>
      <rect id="Retângulo_6265" data-name="Retângulo 6265" width="16.875" height="16.875" transform="translate(571.395 268.172) rotate(180)" fill="#f0f0f0"/>
      <rect id="Retângulo_6266" data-name="Retângulo 6266" width="16.875" height="16.875" transform="translate(552.286 268.172) rotate(180)" fill="#fafafa"/>
      <rect id="Retângulo_6267" data-name="Retângulo 6267" width="16.875" height="16.875" transform="translate(533.177 268.172) rotate(180)" fill="#fafafa"/>
      <rect id="Retângulo_6268" data-name="Retângulo 6268" width="16.875" height="16.875" transform="translate(571.395 287.006) rotate(180)" fill="#fafafa"/>
      <rect id="Retângulo_6269" data-name="Retângulo 6269" width="16.875" height="16.875" transform="translate(552.286 287.006) rotate(180)" fill="#fafafa"/>
      <rect id="Retângulo_6270" data-name="Retângulo 6270" width="16.875" height="16.875" transform="translate(533.177 287.006) rotate(180)" fill="#f0f0f0"/>
      <rect id="Retângulo_6271" data-name="Retângulo 6271" width="16.875" height="16.875" transform="translate(571.395 305.855) rotate(180)" fill="#fafafa"/>
      <rect id="Retângulo_6272" data-name="Retângulo 6272" width="16.875" height="16.875" transform="translate(552.286 305.855) rotate(180)" fill="#f0f0f0"/>
      <rect id="Retângulo_6273" data-name="Retângulo 6273" width="16.875" height="16.875" transform="translate(533.177 305.855) rotate(180)" fill="#fafafa"/>
      <rect id="Retângulo_6274" data-name="Retângulo 6274" width="16.875" height="16.875" transform="translate(571.395 324.689) rotate(180)" fill="#f0f0f0"/>
      <rect id="Retângulo_6275" data-name="Retângulo 6275" width="16.875" height="16.875" transform="translate(552.286 324.689) rotate(180)" fill="#f0f0f0"/>
      <rect id="Retângulo_6276" data-name="Retângulo 6276" width="16.875" height="16.875" transform="translate(533.177 324.689) rotate(180)" fill="#fafafa"/>
      <rect id="Retângulo_6277" data-name="Retângulo 6277" width="16.875" height="16.875" transform="translate(571.395 343.538) rotate(180)" fill="#fafafa"/>
      <rect id="Retângulo_6278" data-name="Retângulo 6278" width="16.875" height="16.875" transform="translate(552.286 343.538) rotate(180)" fill="#f0f0f0"/>
      <rect id="Retângulo_6279" data-name="Retângulo 6279" width="16.875" height="16.875" transform="translate(533.177 343.538) rotate(180)" fill="#fafafa"/>
      <rect id="Retângulo_6280" data-name="Retângulo 6280" width="16.875" height="16.875" transform="translate(571.395 362.372) rotate(180)" fill="#fafafa"/>
      <rect id="Retângulo_6281" data-name="Retângulo 6281" width="16.875" height="16.875" transform="translate(552.286 362.372) rotate(180)" fill="#fafafa"/>
      <rect id="Retângulo_6282" data-name="Retângulo 6282" width="16.875" height="16.875" transform="translate(533.177 362.372) rotate(180)" fill="#fafafa"/>
      <rect id="Retângulo_6283" data-name="Retângulo 6283" width="16.875" height="16.875" transform="translate(571.395 381.221) rotate(180)" fill="#f0f0f0"/>
      <rect id="Retângulo_6284" data-name="Retângulo 6284" width="16.875" height="16.875" transform="translate(552.286 381.221) rotate(180)" fill="#fafafa"/>
      <rect id="Retângulo_6285" data-name="Retângulo 6285" width="16.875" height="16.875" transform="translate(533.177 381.221) rotate(180)" fill="#f0f0f0"/>
      <rect id="Retângulo_6286" data-name="Retângulo 6286" width="16.875" height="16.875" transform="translate(571.395 400.055) rotate(180)" fill="#fafafa"/>
      <rect id="Retângulo_6287" data-name="Retângulo 6287" width="16.875" height="16.875" transform="translate(552.286 400.055) rotate(180)" fill="#f0f0f0"/>
      <rect id="Retângulo_6288" data-name="Retângulo 6288" width="16.875" height="16.875" transform="translate(533.177 400.055) rotate(180)" fill="#fafafa"/>
      <rect id="Retângulo_6289" data-name="Retângulo 6289" width="16.875" height="16.875" transform="translate(571.395 418.904) rotate(180)" fill="#f0f0f0"/>
      <rect id="Retângulo_6290" data-name="Retângulo 6290" width="16.875" height="16.875" transform="translate(552.286 418.904) rotate(180)" fill="#fafafa"/>
      <rect id="Retângulo_6291" data-name="Retângulo 6291" width="16.875" height="16.875" transform="translate(533.177 418.904) rotate(180)" fill="#fafafa"/>
      <path id="Caminho_9301" data-name="Caminho 9301" d="M124.36,475.371h61.734V214.16l-61.734,6.609Z" transform="translate(65.906 -29.784)" fill="#f5f5f5"/>
      <rect id="Retângulo_6292" data-name="Retângulo 6292" width="16.875" height="16.875" transform="translate(248.665 212.252) rotate(180)" fill="#fafafa"/>
      <rect id="Retângulo_6293" data-name="Retângulo 6293" width="16.875" height="16.875" transform="translate(229.571 212.252) rotate(180)" fill="#f0f0f0"/>
      <rect id="Retângulo_6294" data-name="Retângulo 6294" width="16.875" height="16.875" transform="translate(210.462 212.252) rotate(180)" fill="#fafafa"/>
      <rect id="Retângulo_6295" data-name="Retângulo 6295" width="16.875" height="16.875" transform="translate(248.665 231.086) rotate(180)" fill="#fafafa"/>
      <rect id="Retângulo_6296" data-name="Retângulo 6296" width="16.875" height="16.875" transform="translate(229.571 231.086) rotate(180)" fill="#fafafa"/>
      <rect id="Retângulo_6297" data-name="Retângulo 6297" width="16.875" height="16.875" transform="translate(210.462 231.086) rotate(180)" fill="#fafafa"/>
      <rect id="Retângulo_6298" data-name="Retângulo 6298" width="16.875" height="16.875" transform="translate(248.665 249.935) rotate(180)" fill="#fafafa"/>
      <rect id="Retângulo_6299" data-name="Retângulo 6299" width="16.875" height="16.875" transform="translate(229.571 249.935) rotate(180)" fill="#f0f0f0"/>
      <rect id="Retângulo_6300" data-name="Retângulo 6300" width="16.875" height="16.875" transform="translate(210.462 249.935) rotate(180)" fill="#fafafa"/>
      <rect id="Retângulo_6301" data-name="Retângulo 6301" width="16.875" height="16.875" transform="translate(248.665 268.784) rotate(180)" fill="#f0f0f0"/>
      <rect id="Retângulo_6302" data-name="Retângulo 6302" width="16.875" height="16.875" transform="translate(229.571 268.784) rotate(180)" fill="#fafafa"/>
      <rect id="Retângulo_6303" data-name="Retângulo 6303" width="16.875" height="16.875" transform="translate(210.462 268.784) rotate(180)" fill="#fafafa"/>
      <rect id="Retângulo_6304" data-name="Retângulo 6304" width="16.875" height="16.875" transform="translate(248.665 287.633) rotate(180)" fill="#fafafa"/>
      <rect id="Retângulo_6305" data-name="Retângulo 6305" width="16.875" height="16.875" transform="translate(229.571 287.633) rotate(180)" fill="#fafafa"/>
      <rect id="Retângulo_6306" data-name="Retângulo 6306" width="16.875" height="16.875" transform="translate(210.462 287.633) rotate(180)" fill="#f0f0f0"/>
      <rect id="Retângulo_6307" data-name="Retângulo 6307" width="16.875" height="16.875" transform="translate(248.665 306.467) rotate(180)" fill="#fafafa"/>
      <rect id="Retângulo_6308" data-name="Retângulo 6308" width="16.875" height="16.875" transform="translate(229.571 306.467) rotate(180)" fill="#f0f0f0"/>
      <rect id="Retângulo_6309" data-name="Retângulo 6309" width="16.875" height="16.875" transform="translate(210.462 306.467) rotate(180)" fill="#fafafa"/>
      <rect id="Retângulo_6310" data-name="Retângulo 6310" width="16.875" height="16.875" transform="translate(248.665 325.301) rotate(180)" fill="#f0f0f0"/>
      <rect id="Retângulo_6311" data-name="Retângulo 6311" width="16.875" height="16.875" transform="translate(229.571 325.301) rotate(180)" fill="#f0f0f0"/>
      <rect id="Retângulo_6312" data-name="Retângulo 6312" width="16.875" height="16.875" transform="translate(210.462 325.301) rotate(180)" fill="#fafafa"/>
      <rect id="Retângulo_6313" data-name="Retângulo 6313" width="16.875" height="16.875" transform="translate(248.665 344.15) rotate(180)" fill="#fafafa"/>
      <rect id="Retângulo_6314" data-name="Retângulo 6314" width="16.875" height="16.875" transform="translate(229.571 344.15) rotate(180)" fill="#f0f0f0"/>
      <rect id="Retângulo_6315" data-name="Retângulo 6315" width="16.875" height="16.875" transform="translate(210.462 344.15) rotate(180)" fill="#fafafa"/>
      <rect id="Retângulo_6316" data-name="Retângulo 6316" width="16.875" height="16.875" transform="translate(248.665 362.984) rotate(180)" fill="#fafafa"/>
      <rect id="Retângulo_6317" data-name="Retângulo 6317" width="16.875" height="16.875" transform="translate(229.571 362.984) rotate(180)" fill="#fafafa"/>
      <rect id="Retângulo_6318" data-name="Retângulo 6318" width="16.875" height="16.875" transform="translate(210.462 362.984) rotate(180)" fill="#fafafa"/>
      <rect id="Retângulo_6319" data-name="Retângulo 6319" width="16.875" height="16.875" transform="translate(248.665 381.833) rotate(180)" fill="#f0f0f0"/>
      <rect id="Retângulo_6320" data-name="Retângulo 6320" width="16.875" height="16.875" transform="translate(229.571 381.833) rotate(180)" fill="#fafafa"/>
      <rect id="Retângulo_6321" data-name="Retângulo 6321" width="16.875" height="16.875" transform="translate(210.462 381.833) rotate(180)" fill="#f0f0f0"/>
      <rect id="Retângulo_6322" data-name="Retângulo 6322" width="16.875" height="16.875" transform="translate(248.665 400.667) rotate(180)" fill="#fafafa"/>
      <rect id="Retângulo_6323" data-name="Retângulo 6323" width="16.875" height="16.875" transform="translate(229.571 400.667) rotate(180)" fill="#f0f0f0"/>
      <rect id="Retângulo_6324" data-name="Retângulo 6324" width="16.875" height="16.875" transform="translate(210.462 400.667) rotate(180)" fill="#fafafa"/>
      <rect id="Retângulo_6325" data-name="Retângulo 6325" width="16.875" height="16.875" transform="translate(248.665 419.516) rotate(180)" fill="#f0f0f0"/>
      <rect id="Retângulo_6326" data-name="Retângulo 6326" width="16.875" height="16.875" transform="translate(229.571 419.516) rotate(180)" fill="#fafafa"/>
      <rect id="Retângulo_6327" data-name="Retângulo 6327" width="16.875" height="16.875" transform="translate(210.462 419.516) rotate(180)" fill="#fafafa"/>
      <path id="Caminho_9302" data-name="Caminho 9302" d="M353.633,126.573a8.338,8.338,0,0,0-5.4,1.867,13.417,13.417,0,0,0,0-5.125A18.36,18.36,0,0,0,330.913,108.7a12.913,12.913,0,0,0-6.579,1.714A18.359,18.359,0,0,0,308.9,100.9c-8.109,0-13.479,6.579-12.025,14.672a14.721,14.721,0,0,0,.5,1.958,15.759,15.759,0,0,0-3.963-.535c-8.094,0-13.479,6.564-12.01,14.672a18.36,18.36,0,0,0,17.3,14.672h58.475a8.017,8.017,0,0,0,8.078-9.853A12.331,12.331,0,0,0,353.633,126.573Z" transform="translate(149.006 -89.808)" fill="#fafafa"/>
    </g>
    <g id="freepik--Shadow--inject-2" transform="translate(85.846 583.19)">
      <ellipse id="freepik--path--inject-2" cx="296.645" cy="17.319" rx="296.645" ry="17.319" fill="#f5f5f5"/>
    </g>
    <g id="freepik--Icons--inject-2" transform="translate(244.427 160.661)">
      <path id="Caminho_9303" data-name="Caminho 9303" d="M375.452,262.089H362.233a13.938,13.938,0,0,1-13.923-13.923V234.933a13.938,13.938,0,0,1,13.923-13.923h13.219a13.953,13.953,0,0,1,13.938,13.923v13.234a13.953,13.953,0,0,1-13.938,13.923Zm-13.219-37.025a9.884,9.884,0,0,0-9.868,9.868v13.234a9.868,9.868,0,0,0,9.868,9.868h13.219a9.868,9.868,0,0,0,9.868-9.868V234.933a9.884,9.884,0,0,0-9.868-9.868Z" transform="translate(-59.835 -73.965)" fill="#407bff"/>
      <g id="Grupo_3471" data-name="Grupo 3471" transform="translate(288.474 147.045)" opacity="0.6">
        <path id="Caminho_9304" data-name="Caminho 9304" d="M375.452,262.089H362.233a13.938,13.938,0,0,1-13.923-13.923V234.933a13.938,13.938,0,0,1,13.923-13.923h13.219a13.953,13.953,0,0,1,13.938,13.923v13.234a13.953,13.953,0,0,1-13.938,13.923Zm-13.219-37.025a9.884,9.884,0,0,0-9.868,9.868v13.234a9.868,9.868,0,0,0,9.868,9.868h13.219a9.868,9.868,0,0,0,9.868-9.868V234.933a9.884,9.884,0,0,0-9.868-9.868Z" transform="translate(-348.31 -221.01)" fill="#fff"/>
      </g>
      <path id="Caminho_9305" data-name="Caminho 9305" d="M367.473,254.3,348.18,235.023l5.737-5.753,13.555,13.555,24.556-24.556,5.737,5.737Z" transform="translate(-59.904 -75.417)" fill="#407bff"/>
      <path id="Caminho_9306" data-name="Caminho 9306" d="M183.849,163.63H172.16a12.332,12.332,0,0,1-12.24-12.24v-11.7a12.331,12.331,0,0,1,12.24-12.316h11.689a12.332,12.332,0,0,1,12.316,12.316v11.6a12.331,12.331,0,0,1-12.316,12.347ZM172.16,130.889a8.736,8.736,0,0,0-8.736,8.721v11.674A8.736,8.736,0,0,0,172.16,160h11.689a8.721,8.721,0,0,0,8.721-8.721v-11.7a8.721,8.721,0,0,0-8.721-8.721Z" transform="translate(-159.675 -123.591)" fill="#407bff"/>
      <g id="Grupo_3472" data-name="Grupo 3472" transform="translate(0.245 3.779)" opacity="0.6">
        <path id="Caminho_9307" data-name="Caminho 9307" d="M183.849,163.63H172.16a12.332,12.332,0,0,1-12.24-12.24v-11.7a12.331,12.331,0,0,1,12.24-12.316h11.689a12.332,12.332,0,0,1,12.316,12.316v11.6a12.331,12.331,0,0,1-12.316,12.347ZM172.16,130.889a8.736,8.736,0,0,0-8.736,8.721v11.674A8.736,8.736,0,0,0,172.16,160h11.689a8.721,8.721,0,0,0,8.721-8.721v-11.7a8.721,8.721,0,0,0-8.721-8.721Z" transform="translate(-159.92 -127.37)" fill="#fff"/>
      </g>
      <path id="Caminho_9308" data-name="Caminho 9308" d="M176.8,156.754,159.76,139.71l5.064-5.079,11.98,11.98,21.71-21.71,5.079,5.079Z" transform="translate(-159.76 -124.9)" fill="#407bff"/>
    </g>
    <g id="freepik--Shield--inject-2" transform="translate(531.326 168.341)">
      <path id="Caminho_9309" data-name="Caminho 9309" d="M427.94,144.73a101.68,101.68,0,0,1-33.659-14.81,101.544,101.544,0,0,1-33.659,14.81,109.258,109.258,0,0,1-13.341,2.31v.612c0,41.309,18.543,70.149,47.016,92.7,28.473-22.552,47.016-51.376,47.016-92.7v-.612A109.5,109.5,0,0,1,427.94,144.73Z" transform="translate(-347.28 -129.92)" fill="#407bff"/>
      <path id="Caminho_9310" data-name="Caminho 9310" d="M394.28,129.92a101.546,101.546,0,0,1-33.659,14.81,109.265,109.265,0,0,1-13.341,2.31v.612c0,41.309,18.543,70.149,47.016,92.7Z" transform="translate(-347.28 -129.92)" opacity="0.1"/>
      <g id="Grupo_3473" data-name="Grupo 3473" transform="translate(5.89 6.915)" opacity="0.5">
        <path id="Caminho_9311" data-name="Caminho 9311" d="M392.24,230.46l-1.255-1.071c-25.657-21.97-38.249-46.725-39.779-77.936l-.076-1.714,1.683-.291c2.417-.413,4.835-.9,7.16-1.53a107.893,107.893,0,0,0,31.272-12.852l1.01-.627,1.01.627a108.077,108.077,0,0,0,31.272,12.852h0c2.356.566,4.758,1.056,7.16,1.53l1.7.291-.092,1.714c-1.53,31.211-14.137,55.981-39.779,77.936Zm-37.086-77.493c1.775,28.763,13.6,51.835,37.086,72.383,23.485-20.532,35.312-43.619,37.086-72.383-1.912-.352-3.825-.765-5.707-1.224h0a111.962,111.962,0,0,1-31.38-12.7,111.779,111.779,0,0,1-31.38,12.7c-1.867.459-3.81.857-5.707,1.224Z" transform="translate(-351.13 -134.44)" fill="#fff"/>
      </g>
      <path id="Caminho_9312" data-name="Caminho 9312" d="M392.245,225.345h0c-23.485-20.547-35.312-43.619-37.086-72.383,1.928-.367,3.84-.765,5.707-1.224a111.778,111.778,0,0,0,31.38-12.7h0v-4.59h0l-1.01.627a107.892,107.892,0,0,1-31.272,12.852c-2.326.566-4.743,1.056-7.16,1.53l-1.683.291.076,1.714c1.53,31.211,14.137,55.966,39.779,77.936l1.255,1.071h0Z" transform="translate(-345.245 -127.519)" fill="#f0f0f0" opacity="0.9"/>
      <g id="Grupo_3474" data-name="Grupo 3474" transform="translate(23.76 34.547)" opacity="0.2">
        <path id="Caminho_9313" data-name="Caminho 9313" d="M383.388,190.963,362.81,170.37l6.12-6.12,14.458,14.458L409.6,152.5l6.135,6.12Z" transform="translate(-362.81 -152.5)" fill="#407bff"/>
      </g>
      <g id="Grupo_3475" data-name="Grupo 3475" transform="translate(23.76 34.547)" opacity="0.9">
        <path id="Caminho_9314" data-name="Caminho 9314" d="M383.388,190.963,362.81,170.37l6.12-6.12,14.458,14.458L409.6,152.5l6.135,6.12Z" transform="translate(-362.81 -152.5)" fill="#fff"/>
      </g>
    </g>
    <g id="freepik--Building--inject-2" transform="translate(298.098 166.842)">
      <rect id="Retângulo_6328" data-name="Retângulo 6328" width="53.442" height="49.678" transform="translate(138.11)" fill="#407bff"/>
      <rect id="Retângulo_6329" data-name="Retângulo 6329" width="53.442" height="49.678" transform="translate(138.11)" fill="#fff" opacity="0.3"/>
      <rect id="Retângulo_6330" data-name="Retângulo 6330" width="26.713" height="49.678" transform="translate(188.553)" fill="#407bff"/>
      <rect id="Retângulo_6331" data-name="Retângulo 6331" width="16.784" height="39.932" transform="translate(156.423 9.746)" fill="#263238"/>
      <rect id="Retângulo_6332" data-name="Retângulo 6332" width="4.192" height="39.932" transform="translate(156.423 9.746)" fill="#407bff"/>
      <rect id="Retângulo_6333" data-name="Retângulo 6333" width="139.181" height="395.342" transform="translate(19.492 43.053)" fill="#407bff"/>
      <rect id="Retângulo_6334" data-name="Retângulo 6334" width="139.181" height="395.342" transform="translate(19.492 43.053)" fill="#fff" opacity="0.6"/>
      <path id="Caminho_9315" data-name="Caminho 9315" d="M307.826,157.08v58.46H277.12V228.5h30.706V278.6H277.12v12.959h30.706V341.67H277.12v12.959h30.706v50.106H277.12v12.959h30.706V467.8H277.12v12.959h30.706v71.663h65.8V157.08Z" transform="translate(-151.235 -114.027)" fill="#407bff"/>
      <path id="Caminho_9316" data-name="Caminho 9316" d="M307.826,157.08v58.46H277.12V228.5h30.706V278.6H277.12v12.959h30.706V341.67H277.12v12.959h30.706v50.106H277.12v12.959h30.706V467.8H277.12v12.959h30.706v71.663h65.8V157.08Z" transform="translate(-151.235 -114.027)" fill="#fff" opacity="0.2"/>
      <rect id="Retângulo_6335" data-name="Retângulo 6335" width="127.614" height="12.959" transform="translate(0 353.773)" fill="#407bff"/>
      <rect id="Retângulo_6336" data-name="Retângulo 6336" width="127.614" height="12.959" transform="translate(0 290.708)" fill="#407bff"/>
      <rect id="Retângulo_6337" data-name="Retângulo 6337" width="127.614" height="12.959" transform="translate(0 227.643)" fill="#407bff"/>
      <rect id="Retângulo_6338" data-name="Retângulo 6338" width="127.614" height="12.959" transform="translate(0 164.578)" fill="#407bff"/>
      <rect id="Retângulo_6339" data-name="Retângulo 6339" width="127.614" height="12.959" transform="translate(0 101.513)" fill="#407bff"/>
      <g id="Grupo_3476" data-name="Grupo 3476" transform="translate(0 101.513)" opacity="0.4">
        <rect id="Retângulo_6340" data-name="Retângulo 6340" width="127.614" height="12.959" transform="translate(0 252.26)" fill="#fff"/>
        <rect id="Retângulo_6341" data-name="Retângulo 6341" width="127.614" height="12.959" transform="translate(0 189.195)" fill="#fff"/>
        <rect id="Retângulo_6342" data-name="Retângulo 6342" width="127.614" height="12.959" transform="translate(0 126.13)" fill="#fff"/>
        <rect id="Retângulo_6343" data-name="Retângulo 6343" width="127.614" height="12.959" transform="translate(0 63.065)" fill="#fff"/>
        <rect id="Retângulo_6344" data-name="Retângulo 6344" width="127.614" height="12.959" fill="#fff"/>
      </g>
      <rect id="Retângulo_6345" data-name="Retângulo 6345" width="81.302" height="57.496" transform="translate(48.439 380.9)" fill="#407bff"/>
      <rect id="Retângulo_6346" data-name="Retângulo 6346" width="33.69" height="33.69" transform="translate(31.272 58.307)" fill="#407bff"/>
      <rect id="Retângulo_6347" data-name="Retângulo 6347" width="33.69" height="33.69" transform="translate(71.449 58.307)" fill="#407bff"/>
      <rect id="Retângulo_6348" data-name="Retângulo 6348" width="33.69" height="33.69" transform="translate(111.626 58.307)" fill="#fff" opacity="0.7"/>
      <rect id="Retângulo_6349" data-name="Retângulo 6349" width="33.69" height="33.69" transform="translate(31.272 122.672)" fill="#fff" opacity="0.7"/>
      <rect id="Retângulo_6350" data-name="Retângulo 6350" width="33.69" height="33.69" transform="translate(71.449 122.672)" fill="#407bff"/>
      <rect id="Retângulo_6351" data-name="Retângulo 6351" width="33.69" height="33.69" transform="translate(111.626 122.672)" fill="#fff" opacity="0.7"/>
      <rect id="Retângulo_6352" data-name="Retângulo 6352" width="33.69" height="33.69" transform="translate(31.272 185.737)" fill="#fff" opacity="0.7"/>
      <rect id="Retângulo_6353" data-name="Retângulo 6353" width="33.69" height="33.69" transform="translate(71.449 185.737)" fill="#fff" opacity="0.7"/>
      <rect id="Retângulo_6354" data-name="Retângulo 6354" width="33.69" height="33.69" transform="translate(111.626 185.737)" fill="#407bff"/>
      <rect id="Retângulo_6355" data-name="Retângulo 6355" width="33.69" height="33.69" transform="translate(31.272 248.803)" fill="#fff" opacity="0.7"/>
      <rect id="Retângulo_6356" data-name="Retângulo 6356" width="33.69" height="33.69" transform="translate(71.449 248.803)" fill="#407bff"/>
      <rect id="Retângulo_6357" data-name="Retângulo 6357" width="33.69" height="33.69" transform="translate(111.626 248.803)" fill="#fff" opacity="0.7"/>
      <rect id="Retângulo_6358" data-name="Retângulo 6358" width="33.69" height="33.69" transform="translate(31.272 311.883)" fill="#407bff"/>
      <rect id="Retângulo_6359" data-name="Retângulo 6359" width="33.69" height="33.69" transform="translate(71.449 311.883)" fill="#407bff"/>
      <rect id="Retângulo_6360" data-name="Retângulo 6360" width="33.69" height="33.69" transform="translate(111.626 311.883)" fill="#fff" opacity="0.7"/>
      <rect id="Retângulo_6361" data-name="Retângulo 6361" width="3.55" height="33.69" transform="translate(31.272 58.307)" fill="#407bff"/>
      <rect id="Retângulo_6362" data-name="Retângulo 6362" width="3.55" height="33.69" transform="translate(71.449 58.307)" fill="#407bff"/>
      <rect id="Retângulo_6363" data-name="Retângulo 6363" width="3.55" height="33.69" transform="translate(111.626 58.307)" fill="#407bff"/>
      <rect id="Retângulo_6364" data-name="Retângulo 6364" width="3.55" height="33.69" transform="translate(31.272 122.672)" fill="#407bff"/>
      <rect id="Retângulo_6365" data-name="Retângulo 6365" width="3.55" height="33.69" transform="translate(71.449 122.672)" fill="#407bff"/>
      <rect id="Retângulo_6366" data-name="Retângulo 6366" width="3.55" height="33.69" transform="translate(111.626 122.672)" fill="#407bff"/>
      <rect id="Retângulo_6367" data-name="Retângulo 6367" width="3.55" height="33.69" transform="translate(31.272 185.737)" fill="#407bff"/>
      <rect id="Retângulo_6368" data-name="Retângulo 6368" width="3.55" height="33.69" transform="translate(71.449 185.737)" fill="#407bff"/>
      <rect id="Retângulo_6369" data-name="Retângulo 6369" width="3.55" height="33.69" transform="translate(111.626 185.737)" fill="#407bff"/>
      <rect id="Retângulo_6370" data-name="Retângulo 6370" width="3.55" height="33.69" transform="translate(31.272 248.803)" fill="#407bff"/>
      <rect id="Retângulo_6371" data-name="Retângulo 6371" width="3.55" height="33.69" transform="translate(71.449 248.803)" fill="#407bff"/>
      <rect id="Retângulo_6372" data-name="Retângulo 6372" width="3.55" height="33.69" transform="translate(111.626 248.803)" fill="#407bff"/>
      <rect id="Retângulo_6373" data-name="Retângulo 6373" width="3.55" height="33.69" transform="translate(31.272 311.883)" fill="#407bff"/>
      <rect id="Retângulo_6374" data-name="Retângulo 6374" width="3.55" height="33.69" transform="translate(71.449 311.883)" fill="#407bff"/>
      <rect id="Retângulo_6375" data-name="Retângulo 6375" width="3.55" height="33.69" transform="translate(111.626 311.883)" fill="#407bff"/>
      <g id="Grupo_3477" data-name="Grupo 3477" transform="translate(31.272 58.307)" opacity="0.2">
        <rect id="Retângulo_6376" data-name="Retângulo 6376" width="3.55" height="33.69"/>
        <rect id="Retângulo_6377" data-name="Retângulo 6377" width="3.55" height="33.69" transform="translate(40.177)"/>
        <rect id="Retângulo_6378" data-name="Retângulo 6378" width="3.55" height="33.69" transform="translate(80.354)"/>
        <rect id="Retângulo_6379" data-name="Retângulo 6379" width="3.55" height="33.69" transform="translate(0 64.366)"/>
        <rect id="Retângulo_6380" data-name="Retângulo 6380" width="3.55" height="33.69" transform="translate(40.177 64.366)"/>
        <rect id="Retângulo_6381" data-name="Retângulo 6381" width="3.55" height="33.69" transform="translate(80.354 64.366)"/>
        <rect id="Retângulo_6382" data-name="Retângulo 6382" width="3.55" height="33.69" transform="translate(0 127.431)"/>
        <rect id="Retângulo_6383" data-name="Retângulo 6383" width="3.55" height="33.69" transform="translate(40.177 127.431)"/>
        <rect id="Retângulo_6384" data-name="Retângulo 6384" width="3.55" height="33.69" transform="translate(80.354 127.431)"/>
        <rect id="Retângulo_6385" data-name="Retângulo 6385" width="3.55" height="33.69" transform="translate(0 190.496)"/>
        <rect id="Retângulo_6386" data-name="Retângulo 6386" width="3.55" height="33.69" transform="translate(40.177 190.496)"/>
        <rect id="Retângulo_6387" data-name="Retângulo 6387" width="3.55" height="33.69" transform="translate(80.354 190.496)"/>
        <rect id="Retângulo_6388" data-name="Retângulo 6388" width="3.55" height="33.69" transform="translate(0 253.576)"/>
        <rect id="Retângulo_6389" data-name="Retângulo 6389" width="3.55" height="33.69" transform="translate(40.177 253.576)"/>
        <rect id="Retângulo_6390" data-name="Retângulo 6390" width="3.55" height="33.69" transform="translate(80.354 253.576)"/>
      </g>
      <rect id="Retângulo_6391" data-name="Retângulo 6391" width="36.765" height="53.61" transform="translate(89.09 384.786)" fill="#fff" opacity="0.4"/>
      <rect id="Retângulo_6392" data-name="Retângulo 6392" width="36.765" height="53.61" transform="translate(52.325 384.786)" fill="#fff" opacity="0.7"/>
      <rect id="Retângulo_6393" data-name="Retângulo 6393" width="3.886" height="53.61" transform="translate(52.325 384.786)" fill="#407bff"/>
      <rect id="Retângulo_6394" data-name="Retângulo 6394" width="3.886" height="53.61" transform="translate(52.325 384.786)" opacity="0.2"/>
    </g>
    <g id="freepik--Character--inject-2" transform="translate(139.561 174.339)">
      <path id="Caminho_9317" data-name="Caminho 9317" d="M106.184,224.583a45.394,45.394,0,0,1,2.769-8.629c1.27-3.06,2.708-6.12,4.284-9.18s3.228-6.12,4.911-9.18,3.534-6.12,5.248-8.966L109.871,180c-2.142,3.259-3.963,6.411-5.814,9.7s-3.55,6.609-5.187,10.021-3.06,6.961-4.452,10.71a56.259,56.259,0,0,0-3.06,12.24,30.127,30.127,0,0,0-.107,4.3h14.6a13.479,13.479,0,0,1,.337-2.387Z" transform="translate(-91.219 -109.378)" fill="#ce7a63"/>
      <path id="Caminho_9318" data-name="Caminho 9318" d="M191.679,191.467a149.521,149.521,0,0,1-11.368,17.059,35.889,35.889,0,0,1-3.06,3.412,12.377,12.377,0,0,1-2.861,2.188h-.168a7.212,7.212,0,0,1-1.193-.979,35.465,35.465,0,0,1-5.309-6.655c-1.7-2.723-3.351-5.661-4.9-8.69s-3.06-6.12-4.467-9.272-2.83-6.411-4.1-9.44l-14.887,5.722c1.362,3.672,2.83,6.977,4.376,10.4s3.243,6.747,5.064,10.067a106.3,106.3,0,0,0,6.12,9.853c1.163,1.622,2.4,3.228,3.779,4.835a34.226,34.226,0,0,0,4.942,4.743,21.584,21.584,0,0,0,3.473,2.218,15.3,15.3,0,0,0,4.972,1.53,13.234,13.234,0,0,0,5.768-.643,15.3,15.3,0,0,0,4.085-2.157,26.01,26.01,0,0,0,5.141-5.018,44.37,44.37,0,0,0,3.458-5.125,74.646,74.646,0,0,0,5-10.434,87.114,87.114,0,0,0,3.473-10.71Z" transform="translate(-65.7 -109.86)" fill="#ce7a63"/>
      <path id="Caminho_9319" data-name="Caminho 9319" d="M172.984,206.332,156.368,218.74s-.643-.7-1.7-1.928c-.765-.887-1.759-2.081-2.907-3.473-6.456-7.864-15.9-22.23-15.973-29.253-.122-10.5,10.71-12.041,22.949-1.316,5.263,4.59,8.017,12.316,10.71,17.074.887,1.53,1.637,2.938,2.218,4.008C172.525,205.369,172.984,206.332,172.984,206.332Z" transform="translate(-67.598 -111.797)" fill="#263238"/>
      <path id="Caminho_9320" data-name="Caminho 9320" d="M172.984,206.332,156.368,218.74s-.643-.7-1.7-1.928c-.765-.887-1.759-2.081-2.907-3.473-6.456-7.864-15.9-22.23-15.973-29.253-.122-10.5,10.71-12.041,22.949-1.316,5.263,4.59,8.017,12.316,10.71,17.074.887,1.53,1.637,2.938,2.218,4.008C172.525,205.369,172.984,206.332,172.984,206.332Z" transform="translate(-67.598 -111.797)" fill="#fff" opacity="0.5"/>
      <path id="Caminho_9321" data-name="Caminho 9321" d="M135.72,182.072c3.748-2.494,6.487,3.932,13.923,9.363,3.3,2.433,10.557,18.207,9.96,21.695l-3.2,2.387S135.628,192.521,135.72,182.072Z" transform="translate(-67.635 -108.573)" opacity="0.2"/>
      <path id="Caminho_9322" data-name="Caminho 9322" d="M172.72,192.54l5.921-10.71,5.416,14.091s-6.7,5.6-10.128,1.836Z" transform="translate(-48.026 -108.408)" fill="#ce7a63"/>
      <path id="Caminho_9323" data-name="Caminho 9323" d="M183.46,181.75l2.387,10.541-3.84,3.611-5.416-14.091Z" transform="translate(-45.975 -108.451)" fill="#ce7a63"/>
      <path id="Caminho_9324" data-name="Caminho 9324" d="M174.722,192.2a17.5,17.5,0,0,0-1.285-5.646c-.918-2.081-3.06-3.825-2.616-4.972.214-.5,1.53-.75,2.065-.627a7.053,7.053,0,0,1,3.06,2.739c.719,1.255,2.723,5.646,2.723,5.646Z" transform="translate(-49.064 -108.891)" fill="#ce7a63"/>
      <path id="Caminho_9325" data-name="Caminho 9325" d="M136.835,143.49s4.59,2.142,2.463,5.569a4.59,4.59,0,0,1,.994,6.671s.26,6.3-3.458,2.647S132,144.454,132,144.454Z" transform="translate(-69.606 -128.727)" fill="#263238"/>
      <path id="Caminho_9326" data-name="Caminho 9326" d="M126.483,194.851a197.972,197.972,0,0,1-9.18,21.419c-.75,1.53-1.53,2.953-2.02,4.085-.994,1.958-1.622,3.152-1.622,3.152l-21.312-11.8s.275-.9.75-2.4c.382-1.132.857-2.632,1.53-4.345,3.55-10.113,10.8-28.167,17.9-29.192C123.148,174.151,130.8,182.091,126.483,194.851Z" transform="translate(-90.619 -111.729)" fill="#263238"/>
      <path id="Caminho_9327" data-name="Caminho 9327" d="M126.483,194.851a197.972,197.972,0,0,1-9.18,21.419c-.75,1.53-1.53,2.953-2.02,4.085-.994,1.958-1.622,3.152-1.622,3.152l-21.312-11.8s.275-.9.75-2.4c.382-1.132.857-2.632,1.53-4.345,3.55-10.113,10.8-28.167,17.9-29.192C123.148,174.151,130.8,182.091,126.483,194.851Z" transform="translate(-90.619 -111.729)" fill="#fff" opacity="0.5"/>
      <path id="Caminho_9328" data-name="Caminho 9328" d="M168.692,416.255l10.006-3.243-6.212-23.592-10.006,3.244Z" transform="translate(-53.453 1.607)" fill="#ce7a63"/>
      <path id="Caminho_9329" data-name="Caminho 9329" d="M177.266,404.151l-11.245,3.641a.75.75,0,0,0-.52.933l2.341,9.073a1.867,1.867,0,0,0,2.326,1.209c3.9-1.346,5.691-2.173,10.71-3.779,3.06-.995,16.08-4.865,20.272-6.227s2.739-5.477.826-5.278c-8.522.9-19.17,1.79-22.7.474A3.06,3.06,0,0,0,177.266,404.151Z" transform="translate(-51.868 9.183)" fill="#263238"/>
      <path id="Caminho_9330" data-name="Caminho 9330" d="M162.48,392.664l10.006-3.244,3.2,12.163-10.006,3.244Z" transform="translate(-53.453 1.607)" opacity="0.2"/>
      <path id="Caminho_9331" data-name="Caminho 9331" d="M159.545,235.43s14.2,85.678,18.36,115.5c4.59,32.711,22.72,128.379,22.72,128.379l-18.574,5.125s-26.392-92.7-34.042-124.508C139.9,325.422,122,235.43,122,235.43Z" transform="translate(-74.906 -80.002)" fill="#263238"/>
      <path id="Caminho_9332" data-name="Caminho 9332" d="M134.524,261.024c7.267,18.145,8.093,48.959,5.141,61.642-4.452-20.762-9.562-45.593-13.494-64.9C127.578,252.792,130.117,249.993,134.524,261.024Z" transform="translate(-72.696 -70.483)" opacity="0.4"/>
      <path id="Caminho_9333" data-name="Caminho 9333" d="M161.982,403.126l19.89-5.477-.382-8.109-22.4,7.742Z" transform="translate(-55.249 1.67)" fill="#263238"/>
      <path id="Caminho_9334" data-name="Caminho 9334" d="M176.933,405.384a14.769,14.769,0,0,1-2.785.5.276.276,0,0,1-.245-.122.26.26,0,0,1,0-.275c.245-.321,2.448-3.182,3.825-3.06a.887.887,0,0,1,.75.474,1.347,1.347,0,0,1,.122,1.362A2.877,2.877,0,0,1,176.933,405.384Zm-2.264,0c1.912-.23,3.213-.7,3.534-1.316a.918.918,0,0,0-.107-.887.4.4,0,0,0-.367-.245c-.734-.092-2.127,1.285-3.06,2.4Z" transform="translate(-47.42 8.5)" fill="#407bff"/>
      <path id="Caminho_9335" data-name="Caminho 9335" d="M174.44,406.433h-.122a.23.23,0,0,1-.184-.153c0-.122-1.209-2.922-.52-4.223a1.209,1.209,0,0,1,.887-.643.9.9,0,0,1,1.071.428c.581,1.01-.229,3.58-1.04,4.5a.183.183,0,0,1-.092.092Zm0-4.5a.749.749,0,0,0-.444.367,5.477,5.477,0,0,0,.382,3.4,4.987,4.987,0,0,0,.719-3.6c-.076-.138-.2-.275-.551-.2Z" transform="translate(-47.665 7.941)" fill="#407bff"/>
      <path id="Caminho_9336" data-name="Caminho 9336" d="M100.74,418.407h10.511l3.5-24.357H104.244Z" transform="translate(-86.173 4.061)" fill="#ce7a63"/>
      <path id="Caminho_9337" data-name="Caminho 9337" d="M112.925,409.17H101.1a.841.841,0,0,0-.841.719l-1.392,9.348a1.7,1.7,0,0,0,1.744,1.913c4.116-.077,6.12-.321,11.306-.321,3.2,0,16.83.337,21.175.337s4.59-4.376,2.83-4.758c-8.231-1.775-18.36-4.223-21.19-6.564A2.723,2.723,0,0,0,112.925,409.17Z" transform="translate(-87.174 12.074)" fill="#263238"/>
      <path id="Caminho_9338" data-name="Caminho 9338" d="M103.645,394.05h10.526l-1.805,12.561H101.84Z" transform="translate(-85.59 4.061)" opacity="0.2"/>
      <path id="Caminho_9339" data-name="Caminho 9339" d="M152.554,235.08s-6.028,80.384-10.373,110.509c-4.743,32.971-23.669,142.287-23.669,142.287H99.25s9.9-106.608,11.6-139.227c1.836-35.434,5.4-113.493,5.4-113.493Z" transform="translate(-86.962 -80.188)" fill="#263238"/>
      <path id="Caminho_9340" data-name="Caminho 9340" d="M98.9,402.813h20.823l1.79-7.313L98.44,396.632Z" transform="translate(-87.392 4.829)" fill="#263238"/>
      <path id="Caminho_9341" data-name="Caminho 9341" d="M111.4,411.293a12.1,12.1,0,0,1-2.769-.383.2.2,0,0,1-.168-.184.23.23,0,0,1,.122-.245c.352-.245,3.5-2.28,4.743-1.775a.841.841,0,0,1,.52.7,1.53,1.53,0,0,1-.428,1.331A3.06,3.06,0,0,1,111.4,411.293Zm-2.065-.734c1.851.383,3.244.321,3.764-.168a.933.933,0,0,0,.26-.872.413.413,0,0,0-.245-.352c-.673-.275-2.494.612-3.825,1.392Z" transform="translate(-82.083 11.786)" fill="#407bff"/>
      <path id="Caminho_9342" data-name="Caminho 9342" d="M108.674,411.767h-.107a.214.214,0,0,1-.107-.2c0-.122,0-3.152,1.178-4.177a1.316,1.316,0,0,1,1.071-.337.857.857,0,0,1,.826.734c.138,1.147-1.622,3.351-2.723,3.978Zm1.821-4.269a.826.826,0,0,0-.551.214,5.814,5.814,0,0,0-.979,3.351c.979-.78,2.173-2.448,2.081-3.2,0-.153-.092-.321-.444-.352Z" transform="translate(-82.082 10.946)" fill="#407bff"/>
      <path id="Caminho_9343" data-name="Caminho 9343" d="M168.274,268.055H112c-.4-5.034.765-21.419-.092-42.181a266.016,266.016,0,0,0-5.6-45.9c-.245-1.132-.5-2.249-.78-3.381,0,0,2.861-.581,6.946-1.178,3.4-.5,7.65-1.01,11.827-1.209a210.923,210.923,0,0,1,23.9,0,96.06,96.06,0,0,1,10.128,1.53c3.672.734,5.829,1.377,5.829,1.377S178.02,208.892,168.274,268.055Z" transform="translate(-83.634 -112.627)" fill="#263238"/>
      <path id="Caminho_9344" data-name="Caminho 9344" d="M168.274,268.055H112c-.4-5.034.765-21.419-.092-42.181a266.016,266.016,0,0,0-5.6-45.9c-.245-1.132-.5-2.249-.78-3.381,0,0,2.861-.581,6.946-1.178,3.4-.5,7.65-1.01,11.827-1.209a210.923,210.923,0,0,1,23.9,0,96.06,96.06,0,0,1,10.128,1.53c3.672.734,5.829,1.377,5.829,1.377S178.02,208.892,168.274,268.055Z" transform="translate(-83.634 -112.627)" fill="#fff" opacity="0.5"/>
      <path id="Caminho_9345" data-name="Caminho 9345" d="M127.93,188.13l5.906-7.436,1.392-1.805,3.152,1.683,7.543,5.737c6.12-5.141,3.06-9.746,1.821-11.582-1.377-.2-2.8-.382-4.253-.52a211.14,211.14,0,0,0-23.913,0c-1.729,0-3.488.214-5.187.382a24.265,24.265,0,0,0,13.54,13.54Z" transform="translate(-78.939 -112.627)" fill="#263238"/>
      <path id="Caminho_9346" data-name="Caminho 9346" d="M127.93,188.13l5.906-7.436,1.392-1.805,3.152,1.683,7.543,5.737c6.12-5.141,3.06-9.746,1.821-11.582-1.377-.2-2.8-.382-4.253-.52a211.14,211.14,0,0,0-23.913,0c-1.729,0-3.488.214-5.187.382a24.265,24.265,0,0,0,13.54,13.54Z" transform="translate(-78.939 -112.627)" fill="#fff" opacity="0.7"/>
      <path id="Caminho_9347" data-name="Caminho 9347" d="M118.649,156.56l6.4,5.309,8.721,7.237a29.071,29.071,0,0,0-.566,3.519c-.459,4.728.765,9.027,7.65,10.71,0,0,8.247,5.462-3.993,6.456a15.956,15.956,0,0,1-.612,3.932,15.591,15.591,0,0,0-3.932-3.81c-13.387-.229-15.162-6.426-15.162-6.426C122.428,178.3,120.424,164.271,118.649,156.56Z" transform="translate(-77.476 -121.8)" fill="#ce7a63"/>
      <path id="Caminho_9348" data-name="Caminho 9348" d="M131.035,167.267a29.062,29.062,0,0,0-.566,3.519c-3.244-.658-7.65-4.116-8.032-7.436a14.916,14.916,0,0,1-.122-3.32Z" transform="translate(-74.761 -119.961)" opacity="0.2"/>
      <path id="Caminho_9349" data-name="Caminho 9349" d="M116.527,155.181c2.234,10.22,3.06,16.309,9.057,20.976a13.617,13.617,0,0,0,22.016-9.792c.8-9.532-3.06-24.663-13.77-27.539a13.77,13.77,0,0,0-17.3,16.355Z" transform="translate(-78 -131.498)" fill="#ce7a63"/>
      <path id="Caminho_9350" data-name="Caminho 9350" d="M125.219,152.292c.122.842.688,1.53,1.239,1.408s.887-.8.75-1.637-.673-1.53-1.224-1.408S125.1,151.45,125.219,152.292Z" transform="translate(-73.213 -124.937)" fill="#263238"/>
      <path id="Caminho_9351" data-name="Caminho 9351" d="M131.439,151.572c.138.841.688,1.53,1.239,1.408s.887-.8.765-1.637-.688-1.53-1.239-1.408S131.316,150.7,131.439,151.572Z" transform="translate(-69.917 -125.319)" fill="#263238"/>
      <path id="Caminho_9352" data-name="Caminho 9352" d="M130.37,151.49a31.73,31.73,0,0,0,5.125,6.7,4.8,4.8,0,0,1-3.9,1.224Z" transform="translate(-70.47 -124.487)" fill="#ba4d3c"/>
      <path id="Caminho_9353" data-name="Caminho 9353" d="M131.759,159.574a7.206,7.206,0,0,1-5.294-2.188.245.245,0,1,1,.367-.321,6.992,6.992,0,0,0,5.844,1.958.245.245,0,0,1,0,.49,7.317,7.317,0,0,1-.918.061Z" transform="translate(-72.578 -121.586)" fill="#263238"/>
      <path id="Caminho_9354" data-name="Caminho 9354" d="M124.024,151.108a.444.444,0,0,1-.245,0,.5.5,0,0,1-.2-.673,4.789,4.789,0,0,1,3.733-2.524.5.5,0,1,1,.046.994,3.779,3.779,0,0,0-2.907,2A.49.49,0,0,1,124.024,151.108Z" transform="translate(-74.099 -126.385)" fill="#263238"/>
      <path id="Caminho_9355" data-name="Caminho 9355" d="M136.028,149.611a.535.535,0,0,1-.413-.214,4.146,4.146,0,0,0-3.06-1.9.52.52,0,0,1-.5-.5.5.5,0,0,1,.5-.5h0a5.156,5.156,0,0,1,3.963,2.341.52.52,0,0,1-.122.7.49.49,0,0,1-.367.076Z" transform="translate(-69.58 -127.137)" fill="#263238"/>
      <path id="Caminho_9356" data-name="Caminho 9356" d="M118.375,173.945a1.408,1.408,0,0,1,1.362.612c4.116,6.3,33.078,51.254,34.5,69.4.551,7.023-5.477,22.842-9.317,32.129a9.792,9.792,0,0,1-10.541,5.906l-22.46-3.519a3.7,3.7,0,0,1-3.06-4.376,70.374,70.374,0,0,0,1.163-13.6c0-11.781-.658-43.405-.658-43.405s9.18-17.732-1.775-39.779a1.392,1.392,0,0,1,1.071-1.989Z" transform="translate(-82.617 -112.594)" fill="#407bff"/>
      <path id="Caminho_9357" data-name="Caminho 9357" d="M145.173,232.451c-.673-8.583-7.512-23.164-14.963-36.811-3.488,14.366-6.441,29.742-5.6,37.943.673,6.594,7.252,20.287,11.918,29.329C140.4,253.534,145.739,239.03,145.173,232.451Z" transform="translate(-73.599 -101.089)" opacity="0.1"/>
      <path id="Caminho_9358" data-name="Caminho 9358" d="M147.545,224.89c-.964-2.142-2-4.345-3.06-6.579-4.911.153-9.731.184-14.244.138a167.149,167.149,0,0,0-14.152-44.369l-7.007.979a161.472,161.472,0,0,1,14.229,43.267c-6.12-.153-11.337-.4-14.581-.581,0,1.163.076,3.565.138,6.686,3.565.214,9.027.474,15.529.612a165.1,165.1,0,0,1-1.316,55.079l6.594,1.04a171.829,171.829,0,0,0,1.53-56.088h2.417C138.105,225.165,142.8,225.089,147.545,224.89Z" transform="translate(-81.938 -112.515)" fill="#fff" opacity="0.6"/>
      <path id="Caminho_9359" data-name="Caminho 9359" d="M142.945,174.069a1.163,1.163,0,0,0-1.408,1.193,73.7,73.7,0,0,1-2.509,20.823c-4.483,16.83-13.479,38.586-12.408,48.959.7,6.946,7.971,21.771,12.637,30.722a9.746,9.746,0,0,0,11.72,4.743l6.441-2.142a3.718,3.718,0,0,0,2.494-4.116c-.536-3.611-.949-10.71.7-23.271,2.632-20,0-45.9,0-45.9a105.86,105.86,0,0,1-7.359-28.044,1.209,1.209,0,0,0-.933-1.01Z" transform="translate(-72.504 -112.535)" fill="#407bff"/>
      <path id="Caminho_9360" data-name="Caminho 9360" d="M160.423,222.572c0-1.79-.122-3.5-.2-5.11h0a9.75,9.75,0,0,0-.077-1.53c-2.02.352-4.146.658-6.319.918a402.906,402.906,0,0,0-4.177-41.217l-7.022-1.423a375.445,375.445,0,0,1,4.59,43.329c-5.355.444-10.878.7-16.279.811-.719,2.295-1.408,4.59-2.05,6.747,6.12-.107,12.484-.367,18.666-.887.168,3.611.321,7.39.444,11.368.673,23.148.643,37.163.444,45.2a9.688,9.688,0,0,0,1.316-.321l5.4-1.79c.153-8.445.122-22.031-.5-43.283-.122-4.161-.275-8.093-.444-11.842,2.127-.26,4.223-.551,6.242-.887Z" transform="translate(-71.254 -112.446)" fill="#fff" opacity="0.6"/>
      <path id="Caminho_9361" data-name="Caminho 9361" d="M126.349,223.24c-2.769-1.974-12.867-.092-17.258.857,0,4.207.092,7.986.092,10.71,0,1.928,0,3.672-.153,5.263,4.3.872,14.275,2.647,17.319.9C130.939,238.341,130.541,226.239,126.349,223.24Z" transform="translate(-81.779 -86.922)" fill="#407bff"/>
      <path id="Caminho_9362" data-name="Caminho 9362" d="M126.349,223.24c-2.769-1.974-12.867-.092-17.258.857,0,4.207.092,7.986.092,10.71,0,1.928,0,3.672-.153,5.263,4.3.872,14.275,2.647,17.319.9C130.939,238.341,130.541,226.239,126.349,223.24Z" transform="translate(-81.779 -86.922)" opacity="0.2"/>
      <path id="Caminho_9363" data-name="Caminho 9363" d="M139.2,233.595a110.71,110.71,0,0,1-18.757-1.377l.964-5.248a128.978,128.978,0,0,0,36.933,0l.719,5.278a145.221,145.221,0,0,1-19.859,1.346Z" transform="translate(-75.732 -84.486)" fill="#407bff"/>
      <g id="Grupo_3478" data-name="Grupo 3478" transform="translate(44.708 142.484)" opacity="0.2">
        <path id="Caminho_9364" data-name="Caminho 9364" d="M139.2,233.595a110.71,110.71,0,0,1-18.757-1.377l.964-5.248a128.978,128.978,0,0,0,36.933,0l.719,5.278a145.221,145.221,0,0,1-19.859,1.346Z" transform="translate(-120.44 -226.97)"/>
      </g>
      <path id="Caminho_9365" data-name="Caminho 9365" d="M152.164,222.627c-2.785-.4-5.447-.413-6.564.612-3.274,3.06-3.58,15.1,0,17.717a8.308,8.308,0,0,0,5.034.734,117.1,117.1,0,0,1,1.178-16.264Z" transform="translate(-63.761 -86.921)" fill="#407bff"/>
      <path id="Caminho_9366" data-name="Caminho 9366" d="M152.164,222.627c-2.785-.4-5.447-.413-6.564.612-3.274,3.06-3.58,15.1,0,17.717a8.308,8.308,0,0,0,5.034.734,117.1,117.1,0,0,1,1.178-16.264Z" transform="translate(-63.761 -86.921)" opacity="0.2"/>
      <path id="Caminho_9367" data-name="Caminho 9367" d="M119.082,147.5s-9.333,2.815-5.783,6.579c0,0-3.427,2.83-.107,5.538,0,0-1.882,4.865,3.565,4.59,0,0-.26,5.753,3.9,3.764,0,0,1.1,2.142,3.366.413s-.52-7.65-.52-7.65,3.978-1.729,2.662-5.385c0,0,3.488-1.53,1.7-6.12,0,0,2.892-2.524,1.9-4.3Z" transform="translate(-80.341 -127.964)" fill="#263238"/>
      <path id="Caminho_9368" data-name="Caminho 9368" d="M115.341,158.653a11.245,11.245,0,0,0,6.5,3.871c3.228.551,3.947-2.448,2.31-5.324-1.53-2.6-4.942-6.013-7.818-5.263S113.26,156.144,115.341,158.653Z" transform="translate(-79.171 -124.306)" fill="#ce7a63"/>
      <path id="Caminho_9369" data-name="Caminho 9369" d="M146.323,144.926l-31.41,8.981s-5.064-15.391,10.021-19C139.3,131.463,146.323,144.926,146.323,144.926Z" transform="translate(-79.095 -133.575)" fill="#407bff"/>
      <path id="Caminho_9370" data-name="Caminho 9370" d="M127.242,141.013,114.7,144.624a1.025,1.025,0,0,1-1.255-1.255l.826-3.06a1.025,1.025,0,0,1,.887-.75l11.765-1.178a.826.826,0,0,1,.918.826v.979a.826.826,0,0,1-.6.826Z" transform="translate(-79.459 -131.437)" fill="#407bff"/>
      <path id="Caminho_9371" data-name="Caminho 9371" d="M127.242,141.013,114.7,144.624a1.025,1.025,0,0,1-1.255-1.255l.826-3.06a1.025,1.025,0,0,1,.887-.75l11.765-1.178a.826.826,0,0,1,.918.826v.979a.826.826,0,0,1-.6.826Z" transform="translate(-79.459 -131.437)" fill="#fff" opacity="0.2"/>
      <path id="Caminho_9372" data-name="Caminho 9372" d="M139.642,140.1l-3.3.5a2.739,2.739,0,0,1-2.035-.459,16.462,16.462,0,0,0-16.906-1.53.278.278,0,0,1-.291-.474c3.611-2.953,12.454-8.155,22.949.352a.887.887,0,0,1-.413,1.606Z" transform="translate(-77.57 -133.841)" fill="#407bff"/>
      <path id="Caminho_9373" data-name="Caminho 9373" d="M139.642,140.1l-3.3.5a2.739,2.739,0,0,1-2.035-.459,16.462,16.462,0,0,0-16.906-1.53.278.278,0,0,1-.291-.474c3.611-2.953,12.454-8.155,22.949.352a.887.887,0,0,1-.413,1.606Z" transform="translate(-77.57 -133.841)" fill="#fff" opacity="0.2"/>
      <path id="Caminho_9374" data-name="Caminho 9374" d="M137.377,140.5l-7.65,1.836a.78.78,0,0,1-.872-.367l-.581-1.01a.811.811,0,0,1,.535-1.178l6.717-1.392A24.069,24.069,0,0,1,137.377,140.5Z" transform="translate(-71.633 -131.43)" fill="#fff" opacity="0.6"/>
      <path id="Caminho_9375" data-name="Caminho 9375" d="M145.948,140.73s11.934,3.06.474,5.6a176.168,176.168,0,0,1-26.009,3.289l-5.187,1.53a1.025,1.025,0,0,1-1.27-.688v-.168a1.04,1.04,0,0,1,.734-1.316Z" transform="translate(-79.193 -130.19)" fill="#407bff"/>
      <path id="Caminho_9376" data-name="Caminho 9376" d="M145.948,140.73s11.934,3.06.474,5.6a176.168,176.168,0,0,1-26.009,3.289l-5.187,1.53a1.025,1.025,0,0,1-1.27-.688v-.168a1.04,1.04,0,0,1,.734-1.316Z" transform="translate(-79.193 -130.19)" fill="#fff" opacity="0.2"/>
      <path id="Caminho_9377" data-name="Caminho 9377" d="M164.953,201.08H133.895l-15.8,38.02.979.841h31.058l15.789-38.02Z" transform="translate(-76.978 -98.206)" fill="#263238"/>
      <path id="Caminho_9378" data-name="Caminho 9378" d="M164.953,201.08H133.895l-15.8,38.02.979.841h31.058l15.789-38.02Z" transform="translate(-76.978 -98.206)" fill="#fff" opacity="0.4"/>
      <path id="Caminho_9379" data-name="Caminho 9379" d="M149.788,239.65H118.73l15.8-38.02h31.043Z" transform="translate(-76.639 -97.915)" fill="#263238"/>
      <path id="Caminho_9380" data-name="Caminho 9380" d="M148.182,200.72H136.355l-1.805,4.36.4.352h11.827l1.821-4.36Z" transform="translate(-68.255 -98.397)" fill="#407bff"/>
      <path id="Caminho_9381" data-name="Caminho 9381" d="M148.182,200.72H136.355l-1.805,4.36.4.352h11.827l1.821-4.36Z" transform="translate(-68.255 -98.397)" fill="#fff" opacity="0.5"/>
      <path id="Caminho_9382" data-name="Caminho 9382" d="M146.637,205.31l1.821-4.36H136.631l-1.821,4.36Z" transform="translate(-68.117 -98.275)" fill="#407bff"/>
      <path id="Caminho_9383" data-name="Caminho 9383" d="M146.637,205.31l1.821-4.36H136.631l-1.821,4.36Z" transform="translate(-68.117 -98.275)" fill="#fff" opacity="0.2"/>
      <path id="Caminho_9384" data-name="Caminho 9384" d="M117.535,215.574l10.037-4.284-2.524,13.326s-9.562,2.188-10.3-2.83Z" transform="translate(-78.748 -92.795)" fill="#ce7a63"/>
      <path id="Caminho_9385" data-name="Caminho 9385" d="M133.245,215.543,127.462,226.5l-5.982-1.821L124,211.29Z" transform="translate(-75.181 -92.795)" fill="#ce7a63"/>
      <path id="Caminho_9386" data-name="Caminho 9386" d="M106.178,209.11H91.26a20.042,20.042,0,0,0,.673,6.365c.122.413.26.826.428,1.27a11.11,11.11,0,0,0,.719,1.53,11.919,11.919,0,0,0,1.805,2.463,14.444,14.444,0,0,0,3.963,2.953,24.878,24.878,0,0,0,6.946,2.295,43.024,43.024,0,0,0,6.12.673,87.116,87.116,0,0,0,22.873-2.417l-.826-7.849a159.122,159.122,0,0,1-20.532-2.2,41.8,41.8,0,0,1-4.5-1.163,19.884,19.884,0,0,1-3.06-1.362,13.036,13.036,0,0,1,.229-2.555Z" transform="translate(-91.213 -93.951)" fill="#ce7a63"/>
    </g>
  </g>
</svg>
