<svg xmlns="http://www.w3.org/2000/svg" width="52.327" height="45.924" viewBox="0 0 52.327 45.924">
  <g id="noun_Businessman_980958" transform="translate(0.45 -3.55)">
    <g id="Grupo_2156" data-name="Grupo 2156" transform="translate(-0.2 3.8)">
      <path id="Caminho_3465" data-name="Caminho 3465" d="M21.232,20.864A8.532,8.532,0,1,0,12.7,12.332,8.5,8.5,0,0,0,21.232,20.864Zm0-15.879a7.347,7.347,0,1,1-7.347,7.347A7.384,7.384,0,0,1,21.232,4.985Z" transform="translate(-2.509 -3.8)" fill="#005385" stroke="#005385" stroke-width="0.5"/>
      <path id="Caminho_3466" data-name="Caminho 3466" d="M49.591,39.5v1.58a2.926,2.926,0,0,0-1.422.632,2.334,2.334,0,0,0,0,3.634,3.034,3.034,0,0,0,1.975.711,2.387,2.387,0,0,1,1.264.395,1.185,1.185,0,0,1,0,1.9,2.015,2.015,0,0,1-2.449,0,1.235,1.235,0,0,1-.474-.948H47.3a2.362,2.362,0,0,0,.869,1.817,2.926,2.926,0,0,0,1.422.632v1.5h1.185v-1.5a2.926,2.926,0,0,0,1.422-.632,2.334,2.334,0,0,0,0-3.634,3.034,3.034,0,0,0-1.975-.711,2.387,2.387,0,0,1-1.264-.395,1.185,1.185,0,0,1,0-1.9,2.015,2.015,0,0,1,2.449,0,1.235,1.235,0,0,1,.474.948h1.185a2.362,2.362,0,0,0-.869-1.817,2.926,2.926,0,0,0-1.422-.632V39.5Z" transform="translate(-9.776 -11.298)" fill="#005385" stroke="#005385" stroke-width="0.5"/>
      <path id="Caminho_3467" data-name="Caminho 3467" d="M46.039,24.941l1.185.158c.158-.948-.553-1.975-1.185-3a4.619,4.619,0,0,1-.79-1.5c.158-.079.395.079.711.316a1.754,1.754,0,0,0,.869.395,2.05,2.05,0,0,0,1.5-.632c.237-.237.316-.316.395-.316l.079.079a1.761,1.761,0,0,0,.79.711,2.469,2.469,0,0,0,2.449-.711,1.915,1.915,0,0,1,.869-.474h.158c-.079.158-.316.395-.395.553l-.158.158a9.67,9.67,0,0,0-1.659,4.266l1.185.158a8.127,8.127,0,0,1,1.422-3.713l.158-.158a1.876,1.876,0,0,0,.553-1.9,1.4,1.4,0,0,0-1.343-.632h0a2.73,2.73,0,0,0-1.659.79c-.553.395-.869.632-1.264.553-.079,0-.158-.158-.237-.237a1.062,1.062,0,0,0-.553-.474,1.62,1.62,0,0,0-1.659.553c-.316.237-.395.395-.632.395-.079,0-.237-.158-.316-.158a1.9,1.9,0,0,0-1.9-.395,1.086,1.086,0,0,0-.632.711c-.237.711.316,1.58.948,2.528C45.486,23.519,46.118,24.467,46.039,24.941Z" transform="translate(-9.068 -6.929)" fill="#005385" stroke="#005385" stroke-width="0.5"/>
      <path id="Caminho_3468" data-name="Caminho 3468" d="M49.569,38.882a54.622,54.622,0,0,0-3.476-4.9,36.054,36.054,0,0,1-3.16-4.345l-1.027.632a45.421,45.421,0,0,0,3.239,4.424,39.873,39.873,0,0,1,3.4,4.74c.869,1.422,3.318,6.4.395,9.954-2.528,3-7.9,4.108-12.561,2.607-3.792-1.264-6-3.871-6.162-7.189-.158-3.555,1.817-6.083,3.871-8.769a21.331,21.331,0,0,0,3.634-5.846L36.613,29.8a14.366,14.366,0,0,1-1.264,2.449,1.98,1.98,0,0,0-.316-.553.077.077,0,0,0-.079-.079,7.488,7.488,0,0,0-2.607-2.607,4.128,4.128,0,0,0-1.185-.553L25.237,26.4,19.629,36.749H17.338L11.729,26.4l-6,2.133a7.694,7.694,0,0,0-3.871,3.16A8.842,8.842,0,0,0,.59,35.959,57.048,57.048,0,0,0-.2,44.57V45.2H29.108c.237,3.634,2.844,6.636,6.952,7.979a16.2,16.2,0,0,0,4.819.79c3.4,0,6.873-1.106,9.006-3.713C53.282,46.071,50.517,40.541,49.569,38.882Zm-20.54,5.135H.985a55.952,55.952,0,0,1,.79-7.821v-.158a7.7,7.7,0,0,1,1.106-3.713A6.449,6.449,0,0,1,6.12,29.639l5.056-1.817,5.451,10.112H20.34L25.79,27.822l5.056,1.817c.395.158.711.316,1.027.474a6.367,6.367,0,0,1,2.212,2.133v.079a7.973,7.973,0,0,1,.553,1.185l-1.422,1.9C31.241,37.934,29.266,40.541,29.029,44.017Z" transform="translate(0.2 -8.546)" fill="#005385" stroke="#005385" stroke-width="0.5"/>
      <path id="Caminho_3469" data-name="Caminho 3469" d="M53.964,28.732a.623.623,0,0,0-.632-.632h-7.9a.632.632,0,0,0,0,1.264h7.979A.611.611,0,0,0,53.964,28.732Z" transform="translate(-9.251 -8.903)" fill="#005385" stroke="#005385" stroke-width="0.5"/>
    </g>
  </g>
</svg>
