<?xml version="1.0" encoding="utf-8"?>
<!-- Generator: Adobe Illustrator 22.1.0, SVG Export Plug-In . SVG Version: 6.00 Build 0)  -->
<svg version="1.1" id="Camada_1" xmlns="http://www.w3.org/2000/svg" xmlns:xlink="http://www.w3.org/1999/xlink" x="0px" y="0px"
	 viewBox="0 0 36 26.2" style="enable-background:new 0 0 36 26.2;" xml:space="preserve">
<style type="text/css">
	.st0{fill:#FFFFFF;}
</style>
<path class="st0" d="M35.7,4.1c0-1.1-0.9-2-2-2c-1.1,0-2,0.9-2,2c0,0.6,0.2,1,0.6,1.4l-4.5,8.9l0-8.6c0.6-0.3,1-1,1-1.7
	c0-1.1-0.9-2-2-2c-1.1,0-2,0.9-2,2c0,0.7,0.3,1.2,0.8,1.6l-3.2,9.7l-3.3-9.7C19.7,5.4,20,4.8,20,4.1c0-1.1-0.9-2-2-2
	c-1.1,0-2,0.9-2,2c0,0.7,0.3,1.3,0.8,1.6l-3.3,9.7l-3.2-9.7c0.5-0.4,0.8-0.9,0.8-1.6c0-1.1-0.9-2-2-2s-2,0.9-2,2
	c0,0.7,0.4,1.4,1,1.7l0,8.6L3.7,5.5c0.3-0.4,0.5-0.8,0.5-1.4c0-1.1-0.9-2-2-2s-2,0.9-2,2C0.3,5,0.9,5.8,1.8,6l6.5,17.4
	c0.1,0.4,0.5,0.6,0.9,0.6h17.6c0.4,0,0.8-0.3,0.9-0.7L34.3,6C35.1,5.7,35.7,5,35.7,4.1z"/>
</svg>
