<?xml version="1.0" standalone="no"?>
<svg xmlns:xlink="http://www.w3.org/1999/xlink" width="128" height="128" viewBox="0 0 16 17" fill="none" xmlns="http://www.w3.org/2000/svg">
<path d="M7 3.03125V4.53125L7.90625 5.46875C7.6875 4.375 8.03125 3.28125 8.8125 2.5C9.4375 1.84375 10.2812 1.53125 11.1562 1.53125H11.1875L9.40625 3.3125L9.875 6.125L12.6875 6.59375L14.5 4.8125C14.5 5.6875 14.1562 6.5625 13.5 7.1875C13.2188 7.5 12.875 7.71875 12.5312 7.875C12.5625 7.90625 12.625 7.96875 12.6875 8L13.6562 8.96875C13.9688 8.78125 14.2812 8.53125 14.5625 8.25C15.75 7.0625 16.25 5.3125 15.8438 3.6875C15.75 3.28125 15.4688 3 15.0938 2.875C14.6875 2.78125 14.2812 2.90625 14.0312 3.15625L12.1875 5L11.1562 4.84375L11 3.8125L12.8438 2C13.125 1.71875 13.2188 1.3125 13.125 0.9375C13 0.5625 12.7188 0.25 12.3125 0.15625C10.6562 -0.25 8.9375 0.21875 7.75 1.4375C7.4375 1.75 7.15625 2.09375 6.9375 2.5H7V3.03125ZM3.3125 14.1875C2.90625 14.5938 2.1875 14.5938 1.78125 14.1875C1.59375 14 1.46875 13.7188 1.46875 13.4375C1.46875 13.1562 1.59375 12.9062 1.78125 12.6875L6 8.5L4.9375 7.4375L0.75 11.625C0.25 12.125 0 12.7812 0 13.4375C0 14.125 0.25 14.7812 0.75 15.25C1.21875 15.75 1.875 16 2.5625 16C3.21875 16 3.875 15.75 4.375 15.25L7.5 12.125C7.21875 11.625 7.03125 11.0625 7.03125 10.4688L3.3125 14.1875ZM15.6562 12.375L12 8.71875C11.25 8 10.1875 7.84375 9.3125 8.28125L6 4.96875V3L2 0L0 2L3 6H4.9375L8.25 9.34375C7.84375 10.2188 7.96875 11.2812 8.6875 12L12.3438 15.6875C12.8125 16.125 13.5312 16.125 14 15.6875L15.6562 14.0312C16.0938 13.5625 16.0938 12.8438 15.6562 12.375Z" fill="#e89c54" style=""/>
</svg>