<svg id="_Fácil_-_Details" data-name="_Fácil - Details" xmlns="http://www.w3.org/2000/svg" width="25.098" height="25.098" viewBox="0 0 25.098 25.098">
  <path id="Caminho_688" data-name="Caminho 688" d="M20.55,16.905l-3.688-3.688a6.482,6.482,0,0,0-.957-7.481V.193h-.038A.689.689,0,0,0,15.7-.077L10.987-4.788a.659.659,0,0,0-.2-.139L10.809-5H-2.317A1.685,1.685,0,0,0-4-3.317V18.415A1.685,1.685,0,0,0-2.317,20.1h16.54a1.685,1.685,0,0,0,1.683-1.683V17.55l2,2a1.862,1.862,0,0,0,1.322.548,1.843,1.843,0,0,0,1.322-.548A1.869,1.869,0,0,0,20.55,16.905ZM16.026,14.42l3.505,3.505a.429.429,0,0,1,0,.606h0a.429.429,0,0,1-.606,0L15.42,15.026A6,6,0,0,0,16.026,14.42ZM5.462,13.275a6.49,6.49,0,0,0,4.947,3.318,6.291,6.291,0,0,0,.736.043,6.517,6.517,0,0,0,3.072-.774l.245.245v2.308a.238.238,0,0,1-.24.24H-2.317a.238.238,0,0,1-.24-.24V-3.317a.238.238,0,0,1,.24-.24H9.751V-.529a1.685,1.685,0,0,0,1.683,1.683h3.029V4.568a6.487,6.487,0,0,0-9,8.707ZM11.145,5.1A5.048,5.048,0,1,1,6.1,10.145,5.054,5.054,0,0,1,11.145,5.1Zm.288-5.385a.238.238,0,0,1-.24-.24v-2.01l2.25,2.25Z" transform="translate(4 5)" fill="#009cde"/>
</svg>
