<svg xmlns="http://www.w3.org/2000/svg" width="70" height="71" viewBox="0 0 70 71">
  <g id="_3319641_calandar_date_event_schedule_icon" data-name="3319641_calandar_date_event_schedule_icon" transform="translate(0.497)">
    <ellipse id="Elipse_70" data-name="Elipse 70" cx="35" cy="35.5" rx="35" ry="35.5" transform="translate(-0.497)" fill="#9ccb5b"/>
    <g id="Grupo_3058" data-name="Grupo 3058" transform="translate(12.402 12.042)">
      <path id="Caminho_4044" data-name="Caminho 4044" d="M55.161,11.1H13.083A1.974,1.974,0,0,0,11.1,13.083v7.38H57.143v-7.38A1.974,1.974,0,0,0,55.161,11.1ZM24.649,17.489a1.762,1.762,0,1,1,1.762-1.762A1.74,1.74,0,0,1,24.649,17.489Zm18.946,0a1.762,1.762,0,1,1,1.762-1.762A1.74,1.74,0,0,1,43.595,17.489Z" transform="translate(-11.1 -11.1)" fill="#eb5151"/>
      <rect id="Retângulo_5125" data-name="Retângulo 5125" width="46.043" height="18.285" transform="translate(0 9.363)" fill="#2e3545"/>
      <path id="Caminho_4045" data-name="Caminho 4045" d="M11.1,52.6a1.974,1.974,0,0,0,1.983,1.983H55.161A1.974,1.974,0,0,0,57.143,52.6V36.3H11.1Z" transform="translate(-11.1 -8.542)" fill="#474e5e"/>
      <path id="Caminho_4046" data-name="Caminho 4046" d="M55.161,11.1H13.083A1.974,1.974,0,0,0,11.1,13.083V14.4a1.974,1.974,0,0,1,1.983-1.983H55.161A1.974,1.974,0,0,1,57.143,14.4V13.083A1.974,1.974,0,0,0,55.161,11.1Z" transform="translate(-11.1 -11.1)" fill="#fff" opacity="0.3"/>
      <path id="Caminho_4047" data-name="Caminho 4047" d="M13.083,53.2H55.161a1.974,1.974,0,0,0,1.983-1.983V49.9a1.974,1.974,0,0,1-1.983,1.983H13.083A1.974,1.974,0,0,1,11.1,49.9v1.322A1.974,1.974,0,0,0,13.083,53.2Z" transform="translate(-11.1 -7.161)" fill="#231f20" opacity="0.1"/>
      <g id="Grupo_3056" data-name="Grupo 3056" transform="translate(8.041 16.963)">
        <path id="Caminho_4048" data-name="Caminho 4048" d="M32.279,47.649H18.4a7.939,7.939,0,0,1,1.1-4.406q.661-.826,1.652-1.983a27.624,27.624,0,0,1,2.533-2.313,20.927,20.927,0,0,0,2.2-1.983,8.756,8.756,0,0,0,1.432-1.542,4.572,4.572,0,0,0,.771-1.432,6.5,6.5,0,0,0,.22-1.542,2.742,2.742,0,0,0-.771-2.093,3.016,3.016,0,0,0-2.093-.771,3.914,3.914,0,0,0-1.1.22,1.713,1.713,0,0,0-.881.661,9.688,9.688,0,0,0-.661,1.1,3.518,3.518,0,0,0-.33,1.542H18.73a10.1,10.1,0,0,1,.661-2.754,7.056,7.056,0,0,1,1.432-2.093,6.775,6.775,0,0,1,2.093-1.322A6.665,6.665,0,0,1,25.56,26.5a7.233,7.233,0,0,1,2.754.441,9.5,9.5,0,0,1,2.093,1.212,7.237,7.237,0,0,1,1.322,1.873,5.418,5.418,0,0,1,.441,2.313,7.1,7.1,0,0,1-.33,2.2,6.123,6.123,0,0,1-.991,1.873c-.441.551-.991,1.212-1.762,2.093a35.256,35.256,0,0,1-2.864,2.644c-.33.33-.771.661-1.322,1.1a12.593,12.593,0,0,0-1.542,1.762h8.812v3.635Z" transform="translate(-18.4 -26.5)"/>
        <path id="Caminho_4049" data-name="Caminho 4049" d="M37.526,33.84a6.8,6.8,0,0,1,2.754-.551,5.928,5.928,0,0,1,2.423.441A6.458,6.458,0,0,1,44.8,35.161a5.5,5.5,0,0,1,1.432,2.313,9.043,9.043,0,0,1,.551,3.084,9.444,9.444,0,0,1-.551,2.974A6.29,6.29,0,0,1,44.8,45.846a6.145,6.145,0,0,1-2.2,1.542,7.368,7.368,0,0,1-2.864.551,5.928,5.928,0,0,1-2.423-.441,5.775,5.775,0,0,1-2.093-1.212,7.94,7.94,0,0,1-1.542-2.093A7.854,7.854,0,0,1,32.9,41.33h3.745c.11.551.22,1.1.33,1.542a9.69,9.69,0,0,0,.661,1.1,2.651,2.651,0,0,0,.881.661,1.812,1.812,0,0,0,1.1.22,2.349,2.349,0,0,0,1.322-.33,4.313,4.313,0,0,0,1.1-.881,2.513,2.513,0,0,0,.661-1.322,7.438,7.438,0,0,0,.22-1.542,9.7,9.7,0,0,0-.22-1.873,3.711,3.711,0,0,0-.661-1.322,2.02,2.02,0,0,0-1.1-.771,5.528,5.528,0,0,0-1.322-.22,4.419,4.419,0,0,0-3.194,1.542H33.561L34.442,26.9H45.9v3.415H37.747Z" transform="translate(-16.928 -26.459)"/>
      </g>
      <g id="Grupo_3057" data-name="Grupo 3057" transform="translate(8.151 17.074)">
        <path id="Caminho_4050" data-name="Caminho 4050" d="M23.457,44.114A12.592,12.592,0,0,1,25,42.352c.551-.441.991-.881,1.322-1.1,1.1-.991,2.093-1.873,2.864-2.644A13.2,13.2,0,0,0,30.4,37.285a3.347,3.347,0,0,0,.551-.771,6.123,6.123,0,0,0,.991-1.873,7.1,7.1,0,0,0,.33-2.2,5.109,5.109,0,0,0-.441-2.313,5.76,5.76,0,0,0-1.322-1.873,4.4,4.4,0,0,0-2.093-1.212A7.233,7.233,0,0,0,25.66,26.6a6.665,6.665,0,0,0-2.644.441,6.775,6.775,0,0,0-2.093,1.322,7.055,7.055,0,0,0-1.432,2.093,11.185,11.185,0,0,0-.661,2.754h3.745a3.518,3.518,0,0,1,.33-1.542,9.687,9.687,0,0,1,.661-1.1,1.713,1.713,0,0,1,.881-.661,3.259,3.259,0,0,1,1.1-.22,2.591,2.591,0,0,1,2.093.771,3.016,3.016,0,0,1,.771,2.093,6.5,6.5,0,0,1-.22,1.542,9.1,9.1,0,0,1-.771,1.432,9.149,9.149,0,0,1-1.432,1.542l-.22.22c-.551.551-1.212,1.1-1.983,1.762a17.6,17.6,0,0,0-2.533,2.313A22.414,22.414,0,0,0,19.6,43.343a7.468,7.468,0,0,0-1.1,4.406H32.269V44.334H23.457Z" transform="translate(-18.5 -26.6)" fill="#fff"/>
        <path id="Caminho_4051" data-name="Caminho 4051" d="M46.328,37.375c0-.11,0-.11-.11-.22A6.775,6.775,0,0,0,44.9,35.061,6.458,6.458,0,0,0,42.8,33.629a6.279,6.279,0,0,0-2.423-.441,6.8,6.8,0,0,0-2.754.551l.22-3.525H46V26.8H34.542l-.881,10.354-.11.881h2.864a7.127,7.127,0,0,1,.991-.881,3.893,3.893,0,0,1,2.093-.661,4.108,4.108,0,0,1,1.322.22,2.3,2.3,0,0,1,.661.441c.11.11.33.22.441.441a2.513,2.513,0,0,1,.661,1.322,4.864,4.864,0,0,1,.22,1.873,6.5,6.5,0,0,1-.22,1.542,7.4,7.4,0,0,1-.661,1.322,4.313,4.313,0,0,1-1.1.881,2.933,2.933,0,0,1-1.322.33,3.914,3.914,0,0,1-1.1-.22,1.713,1.713,0,0,1-.881-.661,9.686,9.686,0,0,1-.661-1.1,3.2,3.2,0,0,1-.33-1.542H33a7.291,7.291,0,0,0,.771,2.864A7.37,7.37,0,0,0,35.313,46.3a4.992,4.992,0,0,0,2.093,1.212,9.369,9.369,0,0,0,2.423.441A8.41,8.41,0,0,0,42.8,47.4a5.321,5.321,0,0,0,2.2-1.542,6.29,6.29,0,0,0,1.432-2.313,8.41,8.41,0,0,0,.551-2.974A9.69,9.69,0,0,0,46.328,37.375Z" transform="translate(-17.028 -26.58)" fill="#fff"/>
      </g>
      <path id="Caminho_4052" data-name="Caminho 4052" d="M31.7,30.125a5.752,5.752,0,0,1,.441,2.313,7.1,7.1,0,0,1-.33,2.2,6.123,6.123,0,0,1-.991,1.873c-.11.22-.33.441-.551.771H25.64l.22-.22a8.757,8.757,0,0,0,1.432-1.542,4.572,4.572,0,0,0,.771-1.432,6.5,6.5,0,0,0,.22-1.542,2.742,2.742,0,0,0-.771-2.093,3.016,3.016,0,0,0-2.093-.771,3.914,3.914,0,0,0-1.1.22,1.713,1.713,0,0,0-.881.661,9.687,9.687,0,0,0-.661,1.1,3.518,3.518,0,0,0-.33,1.542H18.7a10.1,10.1,0,0,1,.661-2.754,5.876,5.876,0,0,1,1.432-2.093,6.775,6.775,0,0,1,2.093-1.322,6.665,6.665,0,0,1,2.644-.441,7.233,7.233,0,0,1,2.754.441,9.5,9.5,0,0,1,2.093,1.212A4.2,4.2,0,0,1,31.7,30.125Z" transform="translate(-10.328 -9.526)" fill="#231f20" opacity="0.1"/>
      <path id="Caminho_4053" data-name="Caminho 4053" d="M46.257,37.254H33.7L34.581,26.9H46.037v3.415H37.886l-.22,3.525a6.8,6.8,0,0,1,2.754-.551,5.928,5.928,0,0,1,2.423.441,6.458,6.458,0,0,1,2.093,1.432A7.593,7.593,0,0,1,46.257,37.254Z" transform="translate(-8.806 -9.496)" fill="#231f20" opacity="0.1"/>
    </g>
  </g>
</svg>
