<svg xmlns="http://www.w3.org/2000/svg" width="1087.272" height="474.764" viewBox="0 0 1087.272 474.764">
    <path id="Path_42" data-name="Path 42" d="M173.88,3.864q-39.284,0-70.518-13.846T53.774-54.418Q35.42-85.008,35.42-136.528V-330.372q0-51.52,18.354-82.11t49.588-44.436q31.234-13.846,70.518-13.846,38.64,0,70.2,13.846t50.232,44.436q18.676,30.59,18.676,82.11v193.844q0,51.52-18.676,82.11T244.076-9.982Q212.52,3.864,173.88,3.864Zm0-48.944q39.284,0,62.146-22.218t22.862-69.23V-330.372q0-47.012-22.54-69.23T173.88-421.82q-39.928,0-62.146,22.218t-22.218,69.23v193.844q0,47.012,22.218,69.23T173.88-45.08Z" transform="translate(348.999 470.764)" fill="#707070"/>
    <path id="Path_41" data-name="Path 41" d="M212.544,0a36.922,36.922,0,0,1-18.792-4.86,15.793,15.793,0,0,1-8.424-14.58v-89.424h-162q-9.72,0-14.9-5.832T3.24-130.248a32.967,32.967,0,0,1,.648-6.48A14.25,14.25,0,0,1,6.48-142.56L165.888-458.136q4.536-8.424,11.34-11.988a28.529,28.529,0,0,1,13.284-3.564,28.513,28.513,0,0,1,11.664,2.592,35.434,35.434,0,0,1,10.692,7.452,15.542,15.542,0,0,1,4.86,11.34,20.884,20.884,0,0,1-2.592,9.072L72.576-160.7H185.328V-269.568q0-9.72,8.424-14.256a39,39,0,0,1,18.792-4.536,39,39,0,0,1,18.792,4.536q8.424,4.536,8.424,14.256V-160.7h33.7q9.72,0,14.58,8.1a33.988,33.988,0,0,1,4.86,17.82,31.018,31.018,0,0,1-5.508,17.82q-5.508,8.1-13.932,8.1h-33.7V-19.44a15.793,15.793,0,0,1-8.424,14.58A36.922,36.922,0,0,1,212.544,0Z" transform="translate(50.999 474.764)" fill="#3f9cde"/>
    <g id="Group_1" data-name="Group 1" transform="translate(-0.001 -162.236)">
        <path id="Path_22" data-name="Path 22" d="M1006.86,419.55a20.813,20.813,0,1,0,2.78-39.916l.52,10.713-5.07-9.181A20.719,20.719,0,0,0,994.4,392.889a20.4,20.4,0,0,0-1.2,5.63,20.815,20.815,0,0,0,13.653,21.031Z" transform="translate(5.71 53.391)" fill="#57b894"/>
        <path id="Path_23" data-name="Path 23" d="M1031.94,543.793c-1.79-9.11,5.96-17.187,13.62-22.436s16.61-10.408,19.22-19.317c3.75-12.8-7.43-24.53-16.14-34.642a125.762,125.762,0,0,1-16.52-24.557c-1.81-3.533-3.48-7.226-3.95-11.167-.69-5.675,1.14-11.323,2.97-16.736q9.18-27.052,19.63-53.65" transform="translate(11.469 69.805)" fill="none" stroke="#000" stroke-miterlimit="10" stroke-width="1"/>
        <path id="Path_24" data-name="Path 24" d="M1007.72,416.792a20.813,20.813,0,1,0,2.77-39.916l.52,10.713-5.06-9.181a20.719,20.719,0,0,0-10.688,11.723,20.435,20.435,0,0,0-1.2,5.63,20.812,20.812,0,0,0,13.656,21.031Z" transform="translate(5.866 53.175)" fill="none" stroke="#000" stroke-miterlimit="10" stroke-width="1"/>
        <path id="Path_25" data-name="Path 25" d="M1029.4,357.588a20.775,20.775,0,0,1,14.98-13.2l1.71,10.183,3.18-10.7a20.806,20.806,0,1,1-19.87,13.709Z" transform="translate(12.089 50.637)" fill="#57b894"/>
        <path id="Path_26" data-name="Path 26" d="M1030.54,353.911a20.779,20.779,0,0,1,14.98-13.2l1.71,10.184,3.18-10.7a20.807,20.807,0,1,1-19.87,13.71Z" transform="translate(12.298 50.35)" fill="none" stroke="#000" stroke-miterlimit="10" stroke-width="1"/>
        <path id="Path_27" data-name="Path 27" d="M1044.99,467.6a20.81,20.81,0,0,0,18.42-37.022l-2.44,8.219-1.73-10.3a.476.476,0,0,0-.06-.02,20.81,20.81,0,1,0-14.19,39.127Z" transform="translate(12.66 57.139)" fill="#57b894"/>
        <path id="Path_28" data-name="Path 28" d="M1045.98,463.88a20.81,20.81,0,0,0,18.42-37.023l-2.44,8.219-1.73-10.3c-.02-.008-.04-.014-.06-.02a20.811,20.811,0,1,0-14.19,39.128Z" transform="translate(12.841 56.848)" fill="none" stroke="#000" stroke-miterlimit="10" stroke-width="1"/>
        <path id="Path_29" data-name="Path 29" d="M1023.32,502.167a20.8,20.8,0,1,0,4.01-16.3l9.28,13.956-12.67-7.408a20.516,20.516,0,0,0-.62,9.749Z" transform="translate(11.15 61.079)" fill="#57b894"/>
        <path id="Path_30" data-name="Path 30" d="M1024.18,499.409a20.8,20.8,0,1,0,4.01-16.3l9.27,13.956-12.67-7.407a20.634,20.634,0,0,0-.61,9.748Z" transform="translate(11.306 60.864)" fill="none" stroke="#000" stroke-miterlimit="10" stroke-width="1"/>
        <path id="Path_31" data-name="Path 31" d="M9.007,470.249a13.674,13.674,0,1,0,1.821-26.225l.342,7.038-3.33-6.032a13.624,13.624,0,0,0-7.019,7.7,13.412,13.412,0,0,0-.787,3.7,13.673,13.673,0,0,0,8.973,13.818Z" fill="#57b894"/>
        <path id="Path_32" data-name="Path 32" d="M25.484,551.879c-1.175-5.986,3.918-11.292,8.949-14.741s10.91-6.838,12.626-12.692c2.467-8.412-4.882-16.116-10.6-22.76A82.293,82.293,0,0,1,25.6,485.551a22.2,22.2,0,0,1-2.6-7.336c-.451-3.729.747-7.44,1.954-11q6.031-17.773,12.9-35.249" fill="none" stroke="#000" stroke-miterlimit="10" stroke-width="1"/>
        <path id="Path_33" data-name="Path 33" d="M9.571,468.437a13.674,13.674,0,1,0,1.821-26.225l.342,7.038L8.4,443.218a13.624,13.624,0,0,0-7.019,7.7,13.412,13.412,0,0,0-.787,3.7,13.673,13.673,0,0,0,8.973,13.818Z" fill="none" stroke="#000" stroke-miterlimit="10" stroke-width="1"/>
        <path id="Path_34" data-name="Path 34" d="M23.812,429.539a13.66,13.66,0,0,1,9.842-8.671l1.126,6.691,2.087-7.027a13.672,13.672,0,1,1-13.055,9.007Z" fill="#57b894"/>
        <path id="Path_35" data-name="Path 35" d="M24.563,427.123a13.66,13.66,0,0,1,9.842-8.671l1.126,6.691,2.087-7.027a13.672,13.672,0,1,1-13.055,9.007Z" fill="none" stroke="#000" stroke-miterlimit="10" stroke-width="1"/>
        <path id="Path_36" data-name="Path 36" d="M34.058,501.822a13.673,13.673,0,0,0,12.1-24.325l-1.6,5.4-1.137-6.77-.035-.013a13.674,13.674,0,1,0-9.326,25.708Z" fill="#57b894"/>
        <path id="Path_37" data-name="Path 37" d="M34.708,499.374a13.672,13.672,0,0,0,12.1-24.324l-1.6,5.4-1.137-6.77a.216.216,0,0,0-.035-.013,13.673,13.673,0,1,0-9.326,25.707Z" fill="none" stroke="#000" stroke-miterlimit="10" stroke-width="1"/>
        <path id="Path_38" data-name="Path 38" d="M19.822,524.53a13.666,13.666,0,1,0,2.635-10.708l6.092,9.17-8.324-4.867a13.546,13.546,0,0,0-.4,6.405Z" fill="#57b894"/>
        <path id="Path_39" data-name="Path 39" d="M20.385,522.718A13.666,13.666,0,1,0,23.02,512.01l6.092,9.17-8.324-4.867a13.546,13.546,0,0,0-.4,6.405Z" fill="none" stroke="#000" stroke-miterlimit="10" stroke-width="1"/>
    </g>
    <path id="Path_43" data-name="Path 43" d="M212.544,0a36.922,36.922,0,0,1-18.792-4.86,15.793,15.793,0,0,1-8.424-14.58v-89.424h-162q-9.72,0-14.9-5.832T3.24-130.248a32.967,32.967,0,0,1,.648-6.48A14.25,14.25,0,0,1,6.48-142.56L165.888-458.136q4.536-8.424,11.34-11.988a28.529,28.529,0,0,1,13.284-3.564,28.513,28.513,0,0,1,11.664,2.592,35.434,35.434,0,0,1,10.692,7.452,15.542,15.542,0,0,1,4.86,11.34,20.884,20.884,0,0,1-2.592,9.072L72.576-160.7H185.328V-269.568q0-9.72,8.424-14.256a39,39,0,0,1,18.792-4.536,39,39,0,0,1,18.792,4.536q8.424,4.536,8.424,14.256V-160.7h33.7q9.72,0,14.58,8.1a33.988,33.988,0,0,1,4.86,17.82,31.018,31.018,0,0,1-5.508,17.82q-5.508,8.1-13.932,8.1h-33.7V-19.44a15.793,15.793,0,0,1-8.424,14.58A36.922,36.922,0,0,1,212.544,0Z" transform="translate(699.267 474.764)" fill="#3f9cde"/>
</svg>
