<svg xmlns="http://www.w3.org/2000/svg" width="40.087" height="37.772" viewBox="0 0 40.087 37.772">
  <g id="noun_growth_980981" transform="translate(0.25 0.25)">
    <g id="Grupo_1796" data-name="Grupo 1796" transform="translate(0 0)">
      <g id="Grupo_1789" data-name="Grupo 1789" transform="translate(32.887 9.379)">
        <path id="Caminho_2562" data-name="Caminho 2562" d="M60.7,45.193H54V17.3h6.7Zm-5.786-.914h4.872V18.214H54.914Z" transform="translate(-54 -17.3)" fill="#fff" stroke="#fff" stroke-width="0.5"/>
      </g>
      <g id="Grupo_1790" data-name="Grupo 1790" transform="translate(24.666 14.617)">
        <path id="Caminho_2563" data-name="Caminho 2563" d="M47.2,48.556H40.5V25.9h6.7Zm-5.786-.914h4.872V26.814H41.414Z" transform="translate(-40.5 -25.9)" fill="#fff" stroke="#fff" stroke-width="0.5"/>
      </g>
      <g id="Grupo_1791" data-name="Grupo 1791" transform="translate(16.444 18.271)">
        <path id="Caminho_2564" data-name="Caminho 2564" d="M33.7,50.9H27v-19h6.7Zm-5.786-.914h4.872V32.814H27.914Z" transform="translate(-27 -31.9)" fill="#fff" stroke="#fff" stroke-width="0.5"/>
      </g>
      <g id="Grupo_1792" data-name="Grupo 1792" transform="translate(8.222 21.438)">
        <path id="Caminho_2565" data-name="Caminho 2565" d="M20.2,52.935H13.5V37.1h6.7Zm-5.786-.914h4.872V38.014H14.414Z" transform="translate(-13.5 -37.1)" fill="#fff" stroke="#fff" stroke-width="0.5"/>
      </g>
      <g id="Grupo_1793" data-name="Grupo 1793" transform="translate(0 25.518)">
        <path id="Caminho_2566" data-name="Caminho 2566" d="M6.7,55.554H0V43.8H6.7ZM.914,54.641H5.786V44.714H.914Z" transform="translate(0 -43.8)" fill="#fff" stroke="#fff" stroke-width="0.5"/>
      </g>
      <g id="Grupo_1794" data-name="Grupo 1794" transform="translate(33.557)">
        <path id="Caminho_2567" data-name="Caminho 2567" d="M59.18,5.98h-.914V2.814H55.1V1.9h4.08Z" transform="translate(-55.1 -1.9)" fill="#fff" stroke="#fff" stroke-width="0.5"/>
      </g>
      <g id="Grupo_1795" data-name="Grupo 1795" transform="translate(3.045 0.122)">
        <path id="Caminho_2568" data-name="Caminho 2568" d="M5.609,24.817,5,24.208l7.978-7.978h8.587l7.917-7.978h3.228L38.862,2.1l.609.67L33.076,9.165H29.909l-7.978,7.978H13.344Z" transform="translate(-5 -2.1)" fill="#fff" stroke="#fff" stroke-width="0.5"/>
      </g>
    </g>
  </g>
</svg>
