<svg xmlns="http://www.w3.org/2000/svg" width="26" height="26" viewBox="0 0 26 26">
  <g id="Grupo_3706" data-name="Grupo 3706" transform="translate(-209 -222)">
    <rect id="Retângulo_7071" data-name="Retângulo 7071" width="26" height="26" rx="5" transform="translate(209 222)" fill="#3faf73"/>
    <g id="Grupo_3691" data-name="Grupo 3691" transform="translate(213.948 226.669)">
      <path id="Caminho_4392" data-name="Caminho 4392" d="M341.654,95.441a5.577,5.577,0,0,1-5.032-5.032.392.392,0,0,0-.388-.359H336.1a.392.392,0,0,0-.388.359,5.577,5.577,0,0,1-5.032,5.032.392.392,0,0,0-.359.388v.133a.392.392,0,0,0,.359.388,5.577,5.577,0,0,1,5.032,5.032.392.392,0,0,0,.388.359h.133a.392.392,0,0,0,.388-.359,5.577,5.577,0,0,1,5.032-5.032.392.392,0,0,0,.359-.388V95.83A.393.393,0,0,0,341.654,95.441Z" transform="translate(-325.909 -85.08)" fill="#fff"/>
      <path id="Caminho_4393" data-name="Caminho 4393" d="M263.384,19.922a3.481,3.481,0,0,1,3.152,3.152.242.242,0,0,0,.236.214h.094a.242.242,0,0,0,.236-.214,3.481,3.481,0,0,1,3.152-3.152.242.242,0,0,0,.214-.236v-.094a.242.242,0,0,0-.214-.236A3.481,3.481,0,0,1,267.1,16.2a.242.242,0,0,0-.236-.214h-.094a.242.242,0,0,0-.236.214,3.481,3.481,0,0,1-3.152,3.152.242.242,0,0,0-.214.236v.094A.24.24,0,0,0,263.384,19.922Z" transform="translate(-263.17 -15.99)" fill="#fff"/>
    </g>
  </g>
</svg>
