<svg xmlns="http://www.w3.org/2000/svg" width="43.534" height="37.908" viewBox="0 0 43.534 37.908">
  <g id="Grupo_1940" data-name="Grupo 1940" transform="translate(-1306.83 -1143.547)">
    <g id="noun_File_Settings_981123" data-name="noun_File Settings_981123" transform="translate(1307.08 1143.797)">
      <g id="Grupo_1788" data-name="Grupo 1788" transform="translate(0 0)">
        <path id="Caminho_2560" data-name="Caminho 2560" d="M39.957,24.825l1.92.4,1.192-2.979-1.655-1.059a11.318,11.318,0,0,0,0-2.119l1.655-1.126-1.324-2.913-1.92.463A7.847,7.847,0,0,0,38.3,14.033l.4-1.92L35.72,10.921l-1.059,1.655c-.132,0-.331-.066-.463-.066V8.272A3.928,3.928,0,0,0,30.291,4.3H4.072A3.984,3.984,0,0,0,.1,8.272v1.39H7.118V37.735a3.984,3.984,0,0,0,3.972,3.972H36.846A3.487,3.487,0,0,0,40.288,38V36.279H34.2V28c.265,0,.463-.066.662-.066l1.126,1.655L38.9,28.334l-.463-1.92A6.913,6.913,0,0,0,39.957,24.825ZM7.052,8.67H1.027v-.4a2.979,2.979,0,1,1,5.959,0v.4ZM39.3,38a2.526,2.526,0,0,1-2.516,2.715H13.606A3.911,3.911,0,0,0,15,37.669v-.4H39.3C39.3,37.537,39.3,37.868,39.3,38ZM14.533,36.279l-.728.132.132.53a3.323,3.323,0,0,1,.132.794,2.979,2.979,0,1,1-5.959,0V8.272a4.119,4.119,0,0,0-1.39-3.046h23.57A2.967,2.967,0,0,1,33.27,8.206v4.237c-.2,0-.463.066-.662.066l-1.126-1.655L28.5,12.179l.463,1.92a6.34,6.34,0,0,0-1.457,1.523l-1.92-.4L24.4,18.2l1.655,1.059a11.319,11.319,0,0,0,0,2.119L24.4,22.507l1.258,2.913,1.92-.463A6.34,6.34,0,0,0,29.1,26.414l-.4,1.92,2.979,1.192,1.059-1.655a1.127,1.127,0,0,1,.463.066v8.276H14.533ZM37.64,25.751l-.265.2.4,1.721-1.457.6-.993-1.523-.331.066a7.611,7.611,0,0,1-2.45.066l-.331-.066-.993,1.523-1.39-.463.331-1.788-.265-.2a7.086,7.086,0,0,1-1.721-1.721l-.2-.265-1.788.4-.6-1.457,1.523-.993-.066-.331a7.611,7.611,0,0,1-.066-2.45l.066-.331-1.523-.993.6-1.457,1.788.331.2-.265a7.086,7.086,0,0,1,1.721-1.721l.265-.2-.4-1.788,1.457-.6.993,1.523.331-.066a6.1,6.1,0,0,1,2.45,0l.331.066.993-1.523,1.457.6-.331,1.788.265.2a6.088,6.088,0,0,1,1.721,1.721l.2.265,1.721-.4.6,1.457-1.523.993.066.331a6.1,6.1,0,0,1,0,2.45l-.066.331,1.523.993-.6,1.457L39.494,23.9l-.2.265A7.618,7.618,0,0,1,37.64,25.751Z" transform="translate(-0.1 -4.3)" fill="#005385" stroke="#005385" stroke-width="0.5"/>
        <path id="Caminho_2561" data-name="Caminho 2561" d="M48.6,21.9a4.973,4.973,0,0,0-1.721.331,4.352,4.352,0,0,0-2.251,5.694A4.276,4.276,0,0,0,48.6,30.507a4.973,4.973,0,0,0,1.721-.331,4.352,4.352,0,0,0,2.251-5.694A4.21,4.21,0,0,0,48.6,21.9Zm1.324,7.349a2.964,2.964,0,0,1-1.324.265,3.314,3.314,0,0,1-1.324-6.356,2.964,2.964,0,0,1,1.324-.265,3.345,3.345,0,0,1,3.046,1.986A3.225,3.225,0,0,1,49.92,29.249Z" transform="translate(-15.028 -10.247)" fill="#005385" stroke="#005385" stroke-width="0.5"/>
        <rect id="Retângulo_3129" data-name="Retângulo 3129" width="12.712" height="0.993" transform="translate(10.196 9.6)" fill="#005385" stroke="#005385" stroke-width="0.5"/>
        <rect id="Retângulo_3130" data-name="Retângulo 3130" width="10.328" height="0.993" transform="translate(10.196 14.036)" fill="#005385" stroke="#005385" stroke-width="0.5"/>
        <rect id="Retângulo_3131" data-name="Retângulo 3131" width="11.719" height="0.993" transform="translate(10.196 18.472)" fill="#005385" stroke="#005385" stroke-width="0.5"/>
        <rect id="Retângulo_3132" data-name="Retângulo 3132" width="13.374" height="0.993" transform="translate(10.196 22.908)" fill="#005385" stroke="#005385" stroke-width="0.5"/>
        <rect id="Retângulo_3133" data-name="Retângulo 3133" width="17.479" height="0.993" transform="translate(10.196 27.344)" fill="#005385" stroke="#005385" stroke-width="0.5"/>
        <rect id="Retângulo_3134" data-name="Retângulo 3134" width="15.89" height="0.993" transform="translate(10.196 5.164)" fill="#005385" stroke="#005385" stroke-width="0.5"/>
      </g>
    </g>
  </g>
</svg>
