<svg xmlns="http://www.w3.org/2000/svg" width="39.865" height="34.714" viewBox="0 0 39.865 34.714">
  <g id="noun_File_Settings_981123" data-name="noun_File Settings_981123" transform="translate(0.25 0.25)">
    <g id="Grupo_1788" data-name="Grupo 1788" transform="translate(0 0)">
      <path id="Caminho_2560" data-name="Caminho 2560" d="M36.554,23.072l1.756.363,1.09-2.725-1.514-.969a10.352,10.352,0,0,0,0-1.938L39.4,16.774,38.189,14.11l-1.756.424A7.177,7.177,0,0,0,35.041,13.2l.363-1.756-2.725-1.09-.969,1.514c-.121,0-.3-.061-.424-.061V7.933A3.593,3.593,0,0,0,27.713,4.3H3.733A3.644,3.644,0,0,0,.1,7.933V9.2H6.519V34.881a3.644,3.644,0,0,0,3.633,3.633H33.708a3.189,3.189,0,0,0,3.149-3.391V33.548H31.286V25.979c.242,0,.424-.061.606-.061l1.029,1.514,2.664-1.151-.424-1.756A6.322,6.322,0,0,0,36.554,23.072ZM6.458,8.3H.948V7.933a2.725,2.725,0,0,1,5.45,0V8.3ZM35.949,35.123a2.311,2.311,0,0,1-2.3,2.483H12.453a3.577,3.577,0,0,0,1.272-2.786v-.363H35.949C35.949,34.7,35.949,35,35.949,35.123ZM13.3,33.548l-.666.121.121.484a3.039,3.039,0,0,1,.121.727,2.725,2.725,0,1,1-5.45,0V7.933A3.767,3.767,0,0,0,6.156,5.148H27.713a2.714,2.714,0,0,1,2.725,2.725v3.876c-.182,0-.424.061-.606.061L28.8,10.295l-2.725,1.211.424,1.756a5.8,5.8,0,0,0-1.332,1.393l-1.756-.363-1.09,2.725,1.514.969a10.352,10.352,0,0,0,0,1.938l-1.514,1.029,1.151,2.664,1.756-.424a5.8,5.8,0,0,0,1.393,1.332l-.363,1.756,2.725,1.09.969-1.514a1.031,1.031,0,0,1,.424.061v7.569H13.3ZM34.435,23.92l-.242.182.363,1.574-1.332.545-.908-1.393-.3.061a6.961,6.961,0,0,1-2.241.061l-.3-.061-.908,1.393-1.272-.424.3-1.635-.242-.182a6.481,6.481,0,0,1-1.574-1.574l-.182-.242-1.635.363-.545-1.332,1.393-.908-.061-.3a6.961,6.961,0,0,1-.061-2.241l.061-.3-1.393-.908.545-1.332,1.635.3.182-.242a6.481,6.481,0,0,1,1.574-1.574l.242-.182-.363-1.635,1.332-.545.908,1.393.3-.061a5.583,5.583,0,0,1,2.241,0l.3.061.908-1.393,1.332.545-.3,1.635.242.182a5.568,5.568,0,0,1,1.574,1.574l.182.242,1.574-.363.545,1.332-1.393.908.061.3a5.581,5.581,0,0,1,0,2.241l-.061.3,1.393.908-.545,1.332-1.635-.3-.182.242A6.967,6.967,0,0,1,34.435,23.92Z" transform="translate(-0.1 -4.3)" fill="#fff" stroke="#fff" stroke-width="0.5"/>
      <path id="Caminho_2561" data-name="Caminho 2561" d="M48.227,21.9a4.549,4.549,0,0,0-1.574.3,3.981,3.981,0,0,0-2.059,5.208,3.911,3.911,0,0,0,3.633,2.362,4.549,4.549,0,0,0,1.574-.3,3.981,3.981,0,0,0,2.059-5.208A3.851,3.851,0,0,0,48.227,21.9Zm1.211,6.722a2.711,2.711,0,0,1-1.211.242,3.031,3.031,0,0,1-1.211-5.813,2.711,2.711,0,0,1,1.211-.242,3.06,3.06,0,0,1,2.786,1.817A2.95,2.95,0,0,1,49.438,28.622Z" transform="translate(-17.525 -11.242)" fill="#fff" stroke="#fff" stroke-width="0.5"/>
      <rect id="Retângulo_3129" data-name="Retângulo 3129" width="11.627" height="0.908" transform="translate(9.326 8.781)" fill="#fff" stroke="#fff" stroke-width="0.5"/>
      <rect id="Retângulo_3130" data-name="Retângulo 3130" width="9.447" height="0.908" transform="translate(9.326 12.838)" fill="#fff" stroke="#fff" stroke-width="0.5"/>
      <rect id="Retângulo_3131" data-name="Retângulo 3131" width="10.718" height="0.908" transform="translate(9.326 16.895)" fill="#fff" stroke="#fff" stroke-width="0.5"/>
      <rect id="Retângulo_3132" data-name="Retângulo 3132" width="12.232" height="0.908" transform="translate(9.326 20.952)" fill="#fff" stroke="#fff" stroke-width="0.5"/>
      <rect id="Retângulo_3133" data-name="Retângulo 3133" width="15.987" height="0.908" transform="translate(9.326 25.009)" fill="#fff" stroke="#fff" stroke-width="0.5"/>
      <rect id="Retângulo_3134" data-name="Retângulo 3134" width="14.533" height="0.908" transform="translate(9.326 4.723)" fill="#fff" stroke="#fff" stroke-width="0.5"/>
    </g>
  </g>
</svg>
