<svg id="SvgjsSvg1001" width="288" height="288" xmlns="http://www.w3.org/2000/svg" version="1.1" xmlns:xlink="http://www.w3.org/1999/xlink" xmlns:svgjs="http://svgjs.com/svgjs"><defs id="SvgjsDefs1002"></defs><g id="SvgjsG1008"><svg xmlns="http://www.w3.org/2000/svg" viewBox="0 0 576 512" width="288" height="288"><!--! Font Awesome Pro 6.1.1 by @fontawesome - https://fontawesome.com License - https://fontawesome.com/license (Commercial License) Copyright 2022 Fonticons, Inc.--><path d="M572.6 270.3l-96 192C471.2 473.2 460.1 480 447.1 480H64c-35.35 0-64-28.66-64-64V96c0-35.34 28.65-64 64-64h117.5c16.97 0 33.25 6.742 45.26 18.75L275.9 96H416c35.35 0 64 28.66 64 64v32h-48V160c0-8.824-7.178-16-16-16H256L192.8 84.69C189.8 81.66 185.8 80 181.5 80H64C55.18 80 48 87.18 48 96v288l71.16-142.3C124.6 230.8 135.7 224 147.8 224h396.2C567.7 224 583.2 249 572.6 270.3z" fill="#ffffff" class="color000 svgShape"></path></svg></g></svg>