<svg xmlns="http://www.w3.org/2000/svg" width="43.222" height="40.725" viewBox="0 0 43.222 40.725">
  <g id="noun_growth_980981" transform="translate(0.25 0.25)">
    <g id="Grupo_1796" data-name="Grupo 1796" transform="translate(0 0)">
      <g id="Grupo_1789" data-name="Grupo 1789" transform="translate(35.492 10.122)">
        <path id="Caminho_2562" data-name="Caminho 2562" d="M61.23,47.4H54V17.3h7.23Zm-6.244-.986h5.258V18.286H54.986Z" transform="translate(-54 -17.3)" fill="#005385" stroke="#005385" stroke-width="0.5"/>
      </g>
      <g id="Grupo_1790" data-name="Grupo 1790" transform="translate(26.619 15.774)">
        <path id="Caminho_2563" data-name="Caminho 2563" d="M47.73,50.35H40.5V25.9h7.23Zm-6.244-.986h5.258V26.886H41.486Z" transform="translate(-40.5 -25.9)" fill="#005385" stroke="#005385" stroke-width="0.5"/>
      </g>
      <g id="Grupo_1791" data-name="Grupo 1791" transform="translate(17.746 19.718)">
        <path id="Caminho_2564" data-name="Caminho 2564" d="M34.23,52.407H27V31.9h7.23Zm-6.244-.986h5.258V32.886H27.986Z" transform="translate(-27 -31.9)" fill="#005385" stroke="#005385" stroke-width="0.5"/>
      </g>
      <g id="Grupo_1792" data-name="Grupo 1792" transform="translate(8.873 23.136)">
        <path id="Caminho_2565" data-name="Caminho 2565" d="M20.73,54.189H13.5V37.1h7.23ZM14.486,53.2h5.258V38.086H14.486Z" transform="translate(-13.5 -37.1)" fill="#005385" stroke="#005385" stroke-width="0.5"/>
      </g>
      <g id="Grupo_1793" data-name="Grupo 1793" transform="translate(0 27.539)">
        <path id="Caminho_2566" data-name="Caminho 2566" d="M7.23,56.485H0V43.8H7.23ZM.986,55.5H6.244V44.786H.986Z" transform="translate(0 -43.8)" fill="#005385" stroke="#005385" stroke-width="0.5"/>
      </g>
      <g id="Grupo_1794" data-name="Grupo 1794" transform="translate(36.215)">
        <path id="Caminho_2567" data-name="Caminho 2567" d="M59.5,6.3h-.986V2.886H55.1V1.9h4.4Z" transform="translate(-55.1 -1.9)" fill="#005385" stroke="#005385" stroke-width="0.5"/>
      </g>
      <g id="Grupo_1795" data-name="Grupo 1795" transform="translate(3.286 0.131)">
        <path id="Caminho_2568" data-name="Caminho 2568" d="M5.657,26.616,5,25.959l8.61-8.61h9.267l8.544-8.61h3.484L41.544,2.1l.657.723-6.9,6.9H31.882l-8.61,8.61H14Z" transform="translate(-5 -2.1)" fill="#005385" stroke="#005385" stroke-width="0.5"/>
      </g>
    </g>
  </g>
</svg>
