<svg xmlns="http://www.w3.org/2000/svg" width="70.306" height="70" viewBox="0 0 70.306 70">
    <defs>
        <style>
            .cls-1{fill:#ffc000}
        </style>
    </defs>
    <g id="_Fácil_-_ContasReceber" data-name="_Fácil - ContasReceber" transform="translate(-2.1 -1.1)">
        <path id="Caminho_704" d="M71.928 31.277a4.854 4.854 0 0 0-6.161-2.4l-11.809 4.796a4.709 4.709 0 0 0-1.369-2.567 6.336 6.336 0 0 0-3.765-2.054h-7.873a23.174 23.174 0 0 1-5.306-.513c-1.027-.171-2.225-.342-4.108-.685a18.978 18.978 0 0 1-4.963-1.2 16.011 16.011 0 0 0-5.819-.856H19.9a25.4 25.4 0 0 0-7.017 2.054 2.9 2.9 0 0 0-2.4-1.54H5.01a3 3 0 0 0-2.91 2.91v21.394a3 3 0 0 0 2.91 2.91h5.477a3 3 0 0 0 2.91-2.91v-.171c.685-.342 1.369-.685 2.225-1.027a16 16 0 0 1 5.648-.685h.342a31.513 31.513 0 0 1 5.648.513 17.463 17.463 0 0 1 2.567.685 18.391 18.391 0 0 0 3.594.856 2.29 2.29 0 0 1 .856.171c.685.171 1.711.171 3.081.342h4.108a19.58 19.58 0 0 0 9.242-2.91l19.68-10.781a5.241 5.241 0 0 0 1.54-6.332zm-23.447 4.45H31.537a2.427 2.427 0 0 0-2.567 2.053 2.891 2.891 0 0 0 .513 1.711 1.8 1.8 0 0 0 1.54.856h18.314a5.27 5.27 0 0 0 2.225-.513l15.917-6.675a.368.368 0 0 1 .342.342c0 .171 0 .171-.171.171L48.31 44.455a15.607 15.607 0 0 1-7.188 2.4h-3.765c-1.54-.171-2.91-.342-3.594-.342a12.821 12.821 0 0 1-2.738-.685c-1.027-.342-2.054-.513-3.081-.856a29.476 29.476 0 0 0-6.675-.685H21.1a20.714 20.714 0 0 0-7.188.856 1.3 1.3 0 0 0-.685.342V32.988a12.531 12.531 0 0 1 6.846-2.225h.685a12.762 12.762 0 0 1 4.45.685 33.9 33.9 0 0 0 5.648 1.369 38.116 38.116 0 0 1 3.936.513 36.948 36.948 0 0 0 5.99.513h7.7a.958.958 0 0 1 .856 1.027c.17.514-.343.857-.857.857zM8.775 49.076H6.721V30.934h2.054z" class="cls-1" data-name="Caminho 704" transform="translate(0 17.574)"/>
        <path id="Caminho_705" d="M25.546 21.684a3.685 3.685 0 0 1-1.883-.342 5.141 5.141 0 0 1-1.883-1.027h-1.2a2.113 2.113 0 0 0-1.367.685 1.943 1.943 0 0 0-.513 1.369 2.171 2.171 0 0 0 .171 1.027c.171.171.342.513.513.513a7.1 7.1 0 0 0 2.225 1.2c.685.171 1.2.342 1.883.513v.513a2.761 2.761 0 0 0 .513 1.54 1.943 1.943 0 0 0 1.369.513 2.091 2.091 0 0 0 1.54-.685 1.943 1.943 0 0 0 .513-1.369v-.685a6.845 6.845 0 0 0 3.081-1.711 4.926 4.926 0 0 0 1.54-3.594 5.77 5.77 0 0 0-.856-2.91 4.672 4.672 0 0 0-2.054-1.54 16.823 16.823 0 0 0-2.738-.856 13.884 13.884 0 0 1-1.883-.513 3.741 3.741 0 0 1-.856-.513c-.171-.171-.171-.342-.171-.685a1.479 1.479 0 0 1 .513-1.027 2.891 2.891 0 0 1 1.711-.513 2.543 2.543 0 0 1 1.54.342 6.937 6.937 0 0 1 1.54.856 1.3 1.3 0 0 0 .685.342h.685a2.113 2.113 0 0 0 1.369-.685 1.943 1.943 0 0 0 .513-1.369 2.106 2.106 0 0 0-.856-1.711 7.046 7.046 0 0 0-3.59-1.713v-.342a2.761 2.761 0 0 0-.513-1.54 1.97 1.97 0 0 0-2.91 0 1.943 1.943 0 0 0-.513 1.369v.685a6.845 6.845 0 0 0-3.081 1.711 5.219 5.219 0 0 0-1.54 3.594 5.127 5.127 0 0 0 1.027 3.081 5.212 5.212 0 0 0 2.225 1.54 14.457 14.457 0 0 0 2.91.856h.342a7.957 7.957 0 0 1 1.54.513c.342.171.513.342.856.513a1.294 1.294 0 0 0-.171.685 1.307 1.307 0 0 1-.342.856 1.931 1.931 0 0 1-1.884.514z" class="cls-1" data-name="Caminho 705" transform="translate(11.811 2.864)"/>
        <path id="Caminho_706" d="M30.284 38.068A18.484 18.484 0 1 0 11.8 19.584a18.627 18.627 0 0 0 18.484 18.484zM16.421 19.584A13.805 13.805 0 0 1 30.284 5.721h.516a13.868 13.868 0 1 1-14.379 13.863z" class="cls-1" data-name="Caminho 706" transform="translate(6.901)"/>
    </g>
</svg>
