<svg xmlns="http://www.w3.org/2000/svg" width="70.111" height="70" viewBox="0 0 70.111 70">
    <defs>
        <style>
            .cls-1{fill:#003581}
        </style>
    </defs>
    <g id="_Fácil_-_Diferença2" data-name="_Fácil - Diferença2" transform="translate(-.5 -.5)">
        <path id="Caminho_719" d="M62.6 24.538l-3.674-12.909h10.016a1.843 1.843 0 0 0 1.335-.556 1.866 1.866 0 0 0 .334-1.335L69.5 5.174a1.772 1.772 0 0 0-1.669-1.335H41.676a7.28 7.28 0 0 0-12.242 0H3.282a1.772 1.772 0 0 0-1.669 1.335L.5 9.626v.111a1.722 1.722 0 0 0 .334 1.224 1.586 1.586 0 0 0 1.335.668h10.016L8.513 24.538A14.9 14.9 0 0 0 .5 37.781a15.1 15.1 0 0 0 15.024 15.024 14.937 14.937 0 0 0 8.68-2.782 11.97 11.97 0 0 0 3.561-3.561 14.684 14.684 0 0 0 2.782-8.68 14.9 14.9 0 0 0-8.013-13.243l-3.672-12.91h10.573a7.083 7.083 0 0 0 2.226 2.226v37.837h-2.783a1.577 1.577 0 0 0-1.669 1.669V60.6h-2.782a1.437 1.437 0 0 0-1.447 1l-3.339 6.566c-.445.556-.111 1.335-.111 1.558a1.684 1.684 0 0 0 1.558.779h28.935a1.9 1.9 0 0 0 1.447-.779 1.513 1.513 0 0 0 0-1.669l-3.339-6.789a1.622 1.622 0 0 0-1.447-.779H43.9v-7.125a1.577 1.577 0 0 0-1.669-1.669h-2.78V13.855a7.083 7.083 0 0 0 2.226-2.226h10.572l-3.673 12.909a14.973 14.973 0 1 0 15.58 25.485 12.069 12.069 0 0 0 3.561-3.561v-.111c.111-.223.223-.334.334-.556l.111-.111a18.105 18.105 0 0 0 1.224-2.56 20.3 20.3 0 0 0 .779-2.782v-.223a16.6 16.6 0 0 0 .223-2.337A14.289 14.289 0 0 0 62.6 24.538zM42.789 7.177h23.7l.334 1.113H42.789V7.177zm14.468 42.178a8.423 8.423 0 0 1-1.669.111 11.685 11.685 0 1 1 11.685-11.685 12.912 12.912 0 0 1-1.224 5.342 11.456 11.456 0 0 1-3.784 4.229 10.832 10.832 0 0 1-5.008 2.003zm-1.669-26.6a15.653 15.653 0 0 0-3.116.334l3.116-11.017L58.7 23.091a15.653 15.653 0 0 0-3.113-.333zM23.759 67.273l1.669-3.339h20.255l1.669 3.339zm11.8-55.644a3.943 3.943 0 0 1-3.9-3.9 3.9 3.9 0 1 1 7.79 0 3.943 3.943 0 0 1-3.893 3.9zm.556 3.339v36.724H35V14.967zm-.556 41.176h-5.011v-1.113h10.016v1.113h-.556a1.669 1.669 0 1 0 0 3.339h.556V60.6H30.548v-1.117h5.008a1.669 1.669 0 1 0 0-3.339zM15.524 22.758a15.653 15.653 0 0 0-3.116.334l3.116-10.906 3 11.017a9.373 9.373 0 0 0-3-.445zm0 26.709a11.685 11.685 0 1 1 11.685-11.686 12.237 12.237 0 0 1-2.114 6.789 27.842 27.842 0 0 1-2.782 2.782 12.237 12.237 0 0 1-6.789 2.115zM28.322 8.29H4.284l.334-1.113h23.7V8.29z" class="cls-1" data-name="Caminho 719"/>
        <path id="Caminho_720" d="M15.119 33.522c-1.335-.556-2.226-1-2.226-1.781s.779-1.335 1.781-1.335a4.912 4.912 0 0 1 2.448.89l.445.334 1.225-2.23-.223-.223a4.978 4.978 0 0 0-2.669-1.219V26.4h-2.673v1.781a3.878 3.878 0 0 0-2.893 3.672c0 2.337 2 3.227 3.672 3.9 1.447.668 2.337 1.113 2.337 1.892 0 1.113-.89 1.447-1.669 1.447a4.45 4.45 0 0 1-2.782-1.224l-.334-.334-1.558 2 .223.223a6.336 6.336 0 0 0 3 1.669v1.669H15.9v-1.671a3.714 3.714 0 0 0 3-3.784c0-2.56-2.111-3.34-3.781-4.118z" class="cls-1" data-name="Caminho 720" transform="translate(1.072 2.924)"/>
        <path id="Caminho_721" d="M51.119 33.522c-1.335-.556-2.226-1-2.226-1.781s.779-1.335 1.781-1.335a4.912 4.912 0 0 1 2.448.89l.445.334 1.225-2.23-.223-.223a4.978 4.978 0 0 0-2.669-1.219V26.4h-2.673v1.781a3.878 3.878 0 0 0-2.893 3.672c0 2.337 2 3.227 3.672 3.9 1.447.668 2.337 1.113 2.337 1.892 0 1.113-.89 1.447-1.669 1.447a4.45 4.45 0 0 1-2.782-1.224l-.334-.334-1.558 2 .223.223a6.336 6.336 0 0 0 3 1.669v1.669H51.9v-1.671a3.714 3.714 0 0 0 3-3.784c0-2.56-2.111-3.34-3.781-4.118z" class="cls-1" data-name="Caminho 721" transform="translate(5.136 2.924)"/>
    </g>
</svg>
