<svg xmlns="http://www.w3.org/2000/svg" width="69.997" height="69.997" viewBox="0 0 69.997 69.997">
    <defs>
        <style>
            .cls-1{fill:#3bb750}
        </style>
    </defs>
    <g id="_Fácil_-_ContasRecebidas" data-name="_Fácil - ContasRecebidas" transform="translate(-1.7 -1.7)">
        <path id="Caminho_713" d="M60.145 40.1a34.162 34.162 0 0 0 1.355-8.5 29.9 29.9 0 1 0-29.9 29.9 24.693 24.693 0 0 0 8.5-1.355A16 16 0 0 0 55.387 71.7 16.314 16.314 0 0 0 71.7 55.387 16 16 0 0 0 60.145 40.1zm-4.758 26.5a11.248 11.248 0 0 1-10.873-8.835c0-.68-.34-1.359-.34-2.379a11.313 11.313 0 0 1 11.213-11.212 6.634 6.634 0 0 1 2.379.34A10.968 10.968 0 0 1 66.6 55.387 11.313 11.313 0 0 1 55.387 66.6zM31.6 7.137a24.944 24.944 0 0 1 24.8 24.8 21.068 21.068 0 0 1-1.359 7.815 16.285 16.285 0 0 0-15.624 15.635 28.946 28.946 0 0 1-7.817 1.36 24.8 24.8 0 1 1 0-49.61z" class="cls-1" data-name="Caminho 713"/>
        <path id="Caminho_714" d="M16.974 29.925a8.669 8.669 0 0 1-5.437-2.379l-.68-.68L7.8 30.6l.68.68a10.563 10.563 0 0 0 5.776 3.058v3.4h5.1v-3.4c3.738-1.019 5.776-3.738 5.776-7.136 0-4.757-4.078-6.456-7.136-7.815-2.718-1.019-4.417-2.039-4.417-3.4s1.359-2.718 3.4-2.718a7.8 7.8 0 0 1 5.1 2.039l.68.68 2.379-4.417-.34-.34a7.92 7.92 0 0 0-5.1-2.379V5.8H14.6v3.4A7.19 7.19 0 0 0 8.824 16c0 4.417 3.738 6.116 7.136 7.475 2.718 1.359 4.417 2.039 4.417 3.738-.005 2.033-1.704 2.712-3.403 2.712z" class="cls-1" data-name="Caminho 714" transform="translate(14.627 9.832)"/>
        <path id="Caminho_715" d="M27.772 15.5l-6.8 6.8-2.372-2.722-3.4 3.4 5.776 5.776L31.17 18.9z" class="cls-1" data-name="Caminho 715" transform="translate(32.372 33.092)"/>
    </g>
</svg>
