<svg xmlns="http://www.w3.org/2000/svg" width="106.127" height="106.043" viewBox="0 0 106.127 106.043">
    <defs>
        <style>
            .cls-1{fill:#fff}.cls-2,.cls-3{fill:none;stroke-linecap:round;stroke-linejoin:round;stroke-width:6px}.cls-2{stroke:#a7d5f7}.cls-3{stroke:#2e98e8}
        </style>
    </defs>
    <g id="_Fácil_-_Suggestions_2" data-name="_Fácil - Suggestions 2" transform="translate(-15.172 -13)">
        <path id="Caminho_737" d="M91.263 86.975a31.8 31.8 0 1 0-54.2-20.383 27.7 27.7 0 0 1-7.995 21.46L20.62 96.5a8.354 8.354 0 0 0 0 11.818l4.341 4.341a8.354 8.354 0 0 0 11.818 0l8.005-8.005A28.187 28.187 0 0 1 66.539 96.2a31.683 31.683 0 0 0 24.723-9.23z" class="cls-1" data-name="Caminho 737" transform="translate(0 .935)"/>
        <path id="Linha_51" d="M0 0l18.133 13.867" class="cls-2" data-name="Linha 51" transform="translate(30.917 87.815)"/>
        <path id="Linha_52" d="M0 0l17.077 12.8" class="cls-2" data-name="Linha 52" transform="translate(25.172 93.56)"/>
        <path id="Linha_53" d="M0 0l16.021 11.744" class="cls-2" data-name="Linha 53" transform="translate(20.483 100.361)"/>
        <path id="Linha_54" d="M0 0l6.379 6.389" class="cls-2" data-name="Linha 54" transform="translate(33.747 30.078)"/>
        <path id="Linha_55" d="M0 0l6.389 6.389" class="cls-2" data-name="Linha 55" transform="translate(97.737 94.067)"/>
        <path id="Linha_56" d="M0 0h8.818" class="cls-2" data-name="Linha 56" transform="translate(19.12 65.595)"/>
        <path id="Linha_57" d="M0 0h8.808" class="cls-2" data-name="Linha 57" transform="translate(109.491 65.595)"/>
        <path id="Linha_58" d="M0 6.389L6.389 0" class="cls-2" data-name="Linha 58" transform="translate(97.737 30.078)"/>
        <path id="Linha_59" d="M0 8.818V0" class="cls-2" data-name="Linha 59" transform="translate(68.715 106.36)"/>
        <path id="Linha_60" d="M0 8.818V0" class="cls-2" data-name="Linha 60" transform="translate(68.715 16)"/>
        <path id="Caminho_738" d="M46 64.122A21.122 21.122 0 0 1 67.122 43" class="cls-2" data-name="Caminho 738" transform="translate(1.561 1.515)"/>
        <path id="Caminho_739" d="M91.263 86.975a31.8 31.8 0 1 0-54.2-20.383 27.7 27.7 0 0 1-7.995 21.46L20.62 96.5a8.354 8.354 0 0 0 0 11.818l4.341 4.341a8.354 8.354 0 0 0 11.818 0l8.005-8.005A28.187 28.187 0 0 1 66.539 96.2a31.683 31.683 0 0 0 24.723-9.23z" class="cls-3" data-name="Caminho 739" transform="translate(0 .935)"/>
    </g>
</svg>
