<svg xmlns="http://www.w3.org/2000/svg" width="70" height="70" viewBox="0 0 70 70">
    <defs>
        <style>
            .cls-1{fill:#ff293e}
        </style>
    </defs>
    <g id="_Fácil_-_Inadimplência" data-name="_Fácil - Inadimplência" transform="translate(-1.7 -1.7)">
        <path id="Caminho_722" d="M60.147 40.1a34.164 34.164 0 0 0 1.359-8.5 29.9 29.9 0 1 0-29.9 29.9 24.694 24.694 0 0 0 8.5-1.359A16.005 16.005 0 0 0 55.389 71.7 16.314 16.314 0 0 0 71.7 55.389 16.005 16.005 0 0 0 60.147 40.1zm-4.758 26.5a11.248 11.248 0 0 1-10.874-8.835c0-.68-.34-1.359-.34-2.379a11.313 11.313 0 0 1 11.214-11.21 6.634 6.634 0 0 1 2.379.34A10.969 10.969 0 0 1 66.6 55.389 11.313 11.313 0 0 1 55.389 66.6zM31.6 7.137a24.945 24.945 0 0 1 24.809 24.806 21.069 21.069 0 0 1-1.359 7.816 16.286 16.286 0 0 0-15.632 15.63 28.947 28.947 0 0 1-7.818 1.36 24.806 24.806 0 1 1 0-49.612z" class="cls-1" data-name="Caminho 722"/>
        <path id="Caminho_723" d="M16.975 29.926a8.67 8.67 0 0 1-5.437-2.379l-.68-.68L7.8 30.606l.68.68a10.564 10.564 0 0 0 5.777 3.058v3.4h5.1v-3.4c3.738-1.019 5.777-3.738 5.777-7.136 0-4.757-4.078-6.456-7.136-7.816-2.718-1.019-4.417-2.039-4.417-3.4s1.359-2.718 3.4-2.718a7.8 7.8 0 0 1 5.1 2.039l.68.68 2.379-4.417-.34-.34a7.92 7.92 0 0 0-5.1-2.379V5.8h-5.1v3.4A7.191 7.191 0 0 0 8.823 16c0 4.417 3.738 6.117 7.136 7.476 2.718 1.359 4.417 2.039 4.417 3.738-.003 2.033-1.702 2.712-3.401 2.712z" class="cls-1" data-name="Caminho 723" transform="translate(14.628 9.832)"/>
        <g id="Agrupar_366" data-name="Agrupar 366" transform="translate(49.035 49.119)">
            <path id="Retângulo_495" d="M0 0h4.417v13.592H0z" class="cls-1" data-name="Retângulo 495" transform="rotate(45 4.886 11.797)"/>
            <path id="Retângulo_496" d="M0 0h4.417v13.592H0z" class="cls-1" data-name="Retângulo 496" transform="rotate(135 4.36 7.482)"/>
        </g>
    </g>
</svg>
