<svg xmlns="http://www.w3.org/2000/svg" width="46.843" height="35.103" viewBox="0 0 46.843 35.103">
  <g id="noun_accounting_980991" transform="translate(0.25 0.25)">
    <g id="Grupo_1799" data-name="Grupo 1799">
      <path id="Caminho_2574" data-name="Caminho 2574" d="M34.534,14.3H14.5v7.629H34.534Zm-1.069,6.559h-17.9v-5.49H33.536v5.49Z" transform="translate(-4.162 -10.094)" fill="#005385" stroke="#005385" stroke-width="0.5"/>
      <rect id="Retângulo_3137" data-name="Retângulo 3137" width="5.632" height="1.069" transform="translate(11.764 26.736)" fill="#005385" stroke="#005385" stroke-width="0.5"/>
      <rect id="Retângulo_3138" data-name="Retângulo 3138" width="1.141" height="1.069" transform="translate(25.595 29.16)" fill="#005385" stroke="#005385" stroke-width="0.5"/>
      <rect id="Retângulo_3139" data-name="Retângulo 3139" width="5.632" height="1.069" transform="translate(23.385 26.736)" fill="#005385" stroke="#005385" stroke-width="0.5"/>
      <rect id="Retângulo_3140" data-name="Retângulo 3140" width="1.141" height="1.069" transform="translate(25.595 24.241)" fill="#005385" stroke="#005385" stroke-width="0.5"/>
      <path id="Caminho_2575" data-name="Caminho 2575" d="M19.851,29.4H18.781v2.281H16.5v1h2.281v2.281h1.069V32.68h2.21v-1h-2.21Z" transform="translate(-4.736 -14.428)" fill="#005385" stroke="#005385" stroke-width="0.5"/>
      <path id="Caminho_2576" data-name="Caminho 2576" d="M37.393,30l-1.64,1.64L34.184,30l-.784.784,1.64,1.569-1.64,1.64.784.713,1.569-1.569,1.64,1.569.713-.713-1.569-1.64,1.569-1.569Z" transform="translate(-9.587 -14.6)" fill="#005385" stroke="#005385" stroke-width="0.5"/>
      <rect id="Retângulo_3141" data-name="Retângulo 3141" width="10.124" height="1.069" transform="translate(33.983 25.18) rotate(-45)" fill="#005385" stroke="#005385" stroke-width="0.5"/>
      <path id="Caminho_2577" data-name="Caminho 2577" d="M55.525,39.9a1.925,1.925,0,1,0,1.925,1.925A1.917,1.917,0,0,0,55.525,39.9Zm0,2.709a.856.856,0,1,1,.856-.856A.867.867,0,0,1,55.525,42.609Z" transform="translate(-15.385 -17.442)" fill="#005385" stroke="#005385" stroke-width="0.5"/>
      <path id="Caminho_2578" data-name="Caminho 2578" d="M49.125,37.25A1.925,1.925,0,1,0,47.2,35.325,1.917,1.917,0,0,0,49.125,37.25Zm0-2.781a.856.856,0,1,1-.856.856A.824.824,0,0,1,49.125,34.469Z" transform="translate(-13.548 -15.576)" fill="#005385" stroke="#005385" stroke-width="0.5"/>
      <path id="Caminho_2579" data-name="Caminho 2579" d="M46.517,24.442a8.228,8.228,0,0,0-6.06-2.5,8.861,8.861,0,0,0-3.707.856V8.4H9.3V42.765H36.749V38.059a8.1,8.1,0,0,0,3.707.856h.071a8.47,8.47,0,0,0,5.989-14.473ZM35.68,41.7H10.369V9.469H35.751V23.444a8.5,8.5,0,0,0,0,14.045V41.7Zm4.848-3.779h0a7.424,7.424,0,0,1-7.415-7.486A7.47,7.47,0,0,1,40.6,23.016,7.424,7.424,0,0,1,48.014,30.5,7.564,7.564,0,0,1,40.528,37.917Z" transform="translate(-2.669 -8.4)" fill="#005385" stroke="#005385" stroke-width="0.5"/>
      <path id="Caminho_2580" data-name="Caminho 2580" d="M2,19.7a2.04,2.04,0,0,0-2,2V41.945l2,3.993,2-3.993V21.7A1.993,1.993,0,0,0,2,19.7Zm0,1.069a.944.944,0,0,1,.927.927v2.567H1.069V21.7A.944.944,0,0,1,2,20.769Zm.927,4.563v14.4H1.069v-14.4ZM2,43.584l-.927-1.925v-.927H2.994v.927Z" transform="translate(0 -11.643)" fill="#005385" stroke="#005385" stroke-width="0.5"/>
    </g>
  </g>
</svg>
