<svg id="noun-target-5468849" xmlns="http://www.w3.org/2000/svg" width="44.093" height="43.622" viewBox="0 0 44.093 43.622">
  <path id="Caminho_9020" data-name="Caminho 9020" d="M131.578,25.594a.728.728,0,0,0-.419-.536l-2.947-1.36-1.367-2.94a.75.75,0,0,0-.536-.411.73.73,0,0,0-.647.206l-3.8,3.778a.73.73,0,0,0-.147.83l1.264,2.7-2.234,2.22a19.643,19.643,0,1,0,1.029,1.058l2.242-2.234,2.726,1.264a.747.747,0,0,0,.83-.147l3.8-3.778a.728.728,0,0,0,.206-.654Zm-6.217,18.7a18.23,18.23,0,1,1-5.652-13.162L117.1,33.722a14.615,14.615,0,1,0,1.014,1.058l2.616-2.6a18.093,18.093,0,0,1,4.63,12.112Zm-15.433,0a2.77,2.77,0,1,1-1.183-2.263l-2.095,2.087a.731.731,0,0,0,0,1.036.722.722,0,0,0,.522.213.765.765,0,0,0,.522-.213l2-1.992a2.884,2.884,0,0,1,.235,1.132Zm-.132-3.315a4.182,4.182,0,0,0-2.631-.926,4.245,4.245,0,1,0,3.608,2.028l2.638-2.624a8.039,8.039,0,1,1-1.007-1.065Zm3.652-3.63a9.31,9.31,0,1,0,1.014,1.066l2.609-2.594a13.1,13.1,0,1,1-1.014-1.058ZM126.9,28.614l-2.484-1.146-1.154-2.462,2.69-2.675L127,24.558a.7.7,0,0,0,.36.353l2.234,1.029Z" transform="translate(-87.498 -20.335)" fill="#e23232"/>
</svg>
