<svg xmlns="http://www.w3.org/2000/svg" width="51.623" height="37.273" viewBox="0 0 51.623 37.273">
  <g id="noun_paper_plane_981383" data-name="noun_paper plane_981383" transform="translate(0.25 -8.784)">
    <g id="Grupo_2227" data-name="Grupo 2227" transform="translate(0 9.1)">
      <path id="Caminho_3764" data-name="Caminho 3764" d="M25.694,33.63a1.251,1.251,0,0,1,.393.786h1.179a2.524,2.524,0,0,0-.786-1.729,2.3,2.3,0,0,0-1.258-.55V30.8H24.044v1.336a3.067,3.067,0,0,0-1.258.55A2.122,2.122,0,0,0,22,34.416a2.524,2.524,0,0,0,.786,1.729,2.967,2.967,0,0,0,1.808.629,1.878,1.878,0,0,1,1.1.393,1.251,1.251,0,0,1,.393.786.967.967,0,0,1-.393.786,1.769,1.769,0,0,1-2.122,0,1.251,1.251,0,0,1-.393-.786H22a2.524,2.524,0,0,0,.786,1.729,3.16,3.16,0,0,0,1.258.629v1.336h1.179V40.311a2.4,2.4,0,0,0,1.258-.629,2.122,2.122,0,0,0,.786-1.729,2.524,2.524,0,0,0-.786-1.729,2.967,2.967,0,0,0-1.808-.629,1.878,1.878,0,0,1-1.1-.393,1.251,1.251,0,0,1-.393-.786.967.967,0,0,1,.393-.786A1.769,1.769,0,0,1,25.694,33.63Z" transform="translate(-4.707 -13.743)" fill="#fff" stroke="#fff" stroke-width="0.5"/>
      <path id="Caminho_3765" data-name="Caminho 3765" d="M50.934,26.943a.512.512,0,0,0-.707-.157L39.773,30.951V19.476h-2.83l-1.022-6.131-3.694.629L30.419,9.1.393,19.4v.079H0V43.764H29v1.493a.591.591,0,0,0,.393.55h.157a.679.679,0,0,0,.472-.236l2.437-3.065,4.48,2.672a.626.626,0,0,0,.786-.157l13.284-17.45A.416.416,0,0,0,50.934,26.943Zm-15.17-7.467H7.389L34.9,14.759Zm-4.716-5.266L7.153,18.3l22.559-7.7ZM1.179,42.585V20.655H38.672V31.423l-2.751,1.1V26.55h-.55a2.449,2.449,0,0,1-2.437-2.437v-.55H7v.55A2.449,2.449,0,0,1,4.559,26.55H3.93v10.3h.55a2.449,2.449,0,0,1,2.437,2.437v.55h20.83l1.179.707v2.122H1.179ZM24.76,37.947l1.1.707H8.1a3.586,3.586,0,0,0-2.987-2.987v-8.1A3.586,3.586,0,0,0,8.1,24.585H31.677a3.586,3.586,0,0,0,2.987,2.987v5.345l-9.9,3.93c-.236.079-.314.236-.393.472A.97.97,0,0,0,24.76,37.947Zm7.153,3.459h0l-1.729,2.2V40.541l5.031-2.672ZM37.1,44,33.327,41.72l5.188-5.5a.723.723,0,0,0,.079-.786.512.512,0,0,0-.707-.157l-8.175,4.245-3.223-1.965,22.245-8.961Z" transform="translate(0 -9.1)" fill="#fff" stroke="#fff" stroke-width="0.5"/>
    </g>
  </g>
</svg>
