<svg xmlns="http://www.w3.org/2000/svg" xmlns:xlink="http://www.w3.org/1999/xlink" width="88" height="88" viewBox="0 0 88 88">
  <defs>
    <clipPath id="clip-path">
      <circle id="Elipse_562" data-name="Elipse 562" cx="44" cy="44" r="44" transform="translate(1277 850)" fill="#fff"/>
    </clipPath>
  </defs>
  <g id="Grupo_de_máscara_13" data-name="Grupo de máscara 13" transform="translate(-1277 -850)" clip-path="url(#clip-path)">
    <g id="noun-debt-3012454" transform="translate(1276.627 862.402)">
      <path id="Caminho_9072" data-name="Caminho 9072" d="M134.645,181.655a3.847,3.847,0,0,0-3.823-3.823h-7.556l-6.1-6.737a9.309,9.309,0,0,0-7.01-3.095h-6.918a9.38,9.38,0,0,0-7.738,4.1l-9.922,14.566a3.993,3.993,0,0,0-.182,4.461,3.944,3.944,0,0,0,6.464.092l5.189-7.556v35.776a4.028,4.028,0,0,0,3.186,4.006,3.821,3.821,0,0,0,4.461-3.823V195.673h3.733v23.76a4.028,4.028,0,0,0,3.186,4.006,3.821,3.821,0,0,0,4.461-3.823V181.29l2.64,2.913a3.928,3.928,0,0,0,2.913,1.274h9.286a3.83,3.83,0,0,0,3.732-3.824Z" transform="translate(-84.797 -148.61)" fill="#fff"/>
      <path id="Caminho_9073" data-name="Caminho 9073" d="M182.313,57.276a8.557,8.557,0,1,1-8.557-8.557,8.557,8.557,0,0,1,8.557,8.557" transform="translate(-152.128 -48.719)" fill="#fff"/>
      <path id="Caminho_9074" data-name="Caminho 9074" d="M561.953,241.118a1.169,1.169,0,0,0,.911-.364l3.368-3.368a1.288,1.288,0,0,0-1.821-1.821l-3.367,3.368a1.383,1.383,0,0,0,0,1.82,1.616,1.616,0,0,0,.91.364Z" transform="translate(-483.339 -204.887)" fill="#fff"/>
      <path id="Caminho_9075" data-name="Caminho 9075" d="M536.635,223.442a1.244,1.244,0,0,0,1.274-1.274v-4.734a1.274,1.274,0,0,0-2.549,0v4.734A1.3,1.3,0,0,0,536.635,223.442Z" transform="translate(-462.117 -188.94)" fill="#fff"/>
      <path id="Caminho_9076" data-name="Caminho 9076" d="M493.178,240.871a1.321,1.321,0,0,0,1.821,0,1.383,1.383,0,0,0,0-1.82l-3.368-3.368a1.383,1.383,0,0,0-1.821,0,1.321,1.321,0,0,0,0,1.821Z" transform="translate(-423.667 -205.004)" fill="#fff"/>
      <path id="Caminho_9077" data-name="Caminho 9077" d="M562.862,306.8a1.287,1.287,0,0,0-1.821,1.821l3.368,3.368a1.321,1.321,0,0,0,1.821,0,1.383,1.383,0,0,0,0-1.821Z" transform="translate(-483.338 -264.561)" fill="#fff"/>
      <path id="Caminho_9078" data-name="Caminho 9078" d="M577.207,281.12h-4.734a1.274,1.274,0,0,0,0,2.549h4.734a1.274,1.274,0,1,0,0-2.549Z" transform="translate(-492.13 -243.341)" fill="#fff"/>
      <path id="Caminho_9079" data-name="Caminho 9079" d="M351.144,279.275c-3,2.913-4.915,4.461-5.917,5.28l-1-1a2.473,2.473,0,0,0-3.55,0l-1.457,1.457a16.647,16.647,0,0,0-19.026,26.764,16.758,16.758,0,0,0,23.578,0,16.588,16.588,0,0,0,3.186-19.026l1.457-1.457a2.473,2.473,0,0,0,0-3.55l-.819-.819a62.433,62.433,0,0,0,5.917-5.28,1.593,1.593,0,0,0,0-2.276,1.623,1.623,0,0,0-2.367-.091Zm-17.66,28.584v1.82a.587.587,0,0,1-.546.546h-1.912a.587.587,0,0,1-.546-.546v-1.73a4.09,4.09,0,0,1-3.733-3.732.5.5,0,0,1,.182-.455.7.7,0,0,1,.455-.182H329.3a.577.577,0,0,1,.546.455,1.081,1.081,0,0,0,1.092.911h1.73a1.784,1.784,0,0,0,1.82-1.547,1.583,1.583,0,0,0-.455-1.365,1.8,1.8,0,0,0-1.274-.546h-1.274a4.863,4.863,0,0,1-4.915-4.279,4.738,4.738,0,0,1,3.914-5.189v-1.73a.587.587,0,0,1,.546-.546h1.912a.587.587,0,0,1,.546.546v1.73a4.09,4.09,0,0,1,3.732,3.733.5.5,0,0,1-.182.455c-.091.091-.182.091-.364.091h-1.912a.51.51,0,0,1-.546-.455,1.081,1.081,0,0,0-1.092-.911h-1.73a1.784,1.784,0,0,0-1.821,1.548,1.583,1.583,0,0,0,.455,1.365,1.8,1.8,0,0,0,1.274.546h1.457a4.753,4.753,0,0,1,3.55,1.547,4.46,4.46,0,0,1,1.184,3.641,5.024,5.024,0,0,1-4.006,4.28Z" transform="translate(-277.81 -241.405)" fill="#fff"/>
    </g>
  </g>
</svg>
