<svg xmlns="http://www.w3.org/2000/svg" xmlns:xlink="http://www.w3.org/1999/xlink" width="88" height="88" viewBox="0 0 88 88">
  <defs>
    <clipPath id="clip-path">
      <circle id="Elipse_580" data-name="Elipse 580" cx="44" cy="44" r="44" transform="translate(924 839)" fill="#fff"/>
    </clipPath>
  </defs>
  <g id="Grupo_de_máscara_20" data-name="Grupo de máscara 20" transform="translate(-924 -839)" clip-path="url(#clip-path)">
    <g id="noun-budget-5461606" transform="translate(929.818 850.975)">
      <path id="Caminho_9424" data-name="Caminho 9424" d="M135.9,66.792v1.389a.942.942,0,1,1-1.883,0V66.792c-2.3-.324-4.46-1.914-4.46-4.275a.957.957,0,1,1,1.914,0,2.089,2.089,0,0,0,.942,1.652,4.539,4.539,0,0,0,5.155,0,2.16,2.16,0,0,0,.926-1.652c0-4.028-8.9-.648-8.92-6.791,0-2.346,2.145-3.966,4.445-4.291V50.046a.942.942,0,0,1,1.883,0v1.389c2.3.324,4.46,1.929,4.46,4.275a.942.942,0,1,1-1.883,0c0-2.13-3.843-3.349-6.081-1.636a2.113,2.113,0,0,0-.926,1.652c.015,4.028,8.9.648,8.92,6.791-.031,2.331-2.192,3.951-4.491,4.275ZM125.655,28.563v4.244H133.6a2.117,2.117,0,0,0,1.5-3.612,2.14,2.14,0,0,0-1.5-.633Zm-5.9-3.087h2.763a3.125,3.125,0,0,1,2.454,1.188h8.5l3.735-5.973c.185-.293.031-.556-.339-.8-1.806-1.127-6.421-1.59-10.958-1.559-4.306.015-8.442.463-9.893,1.188ZM105.576,46.111a1.579,1.579,0,1,0,0,2.223,1.565,1.565,0,0,0,0-2.222Zm-1.111-2.377a3.472,3.472,0,1,1-3.473,3.473A3.473,3.473,0,0,1,104.464,43.735Zm12.686,2.377a1.579,1.579,0,1,0,0,2.223,1.564,1.564,0,0,0,0-2.222Zm-1.111-2.377a3.472,3.472,0,1,1-3.473,3.473A3.473,3.473,0,0,1,116.04,43.735ZM93.985,55.65a1.573,1.573,0,1,0,0,2.223,1.576,1.576,0,0,0,0-2.223Zm-1.111-2.361A3.472,3.472,0,1,1,89.4,56.761,3.473,3.473,0,0,1,92.874,53.288Zm12.7,2.361a1.579,1.579,0,1,0,0,2.223,1.565,1.565,0,0,0,0-2.222Zm-1.111-2.361a3.472,3.472,0,1,1-3.473,3.473A3.473,3.473,0,0,1,104.464,53.288ZM93.985,65.2a1.573,1.573,0,1,0,0,2.223,1.576,1.576,0,0,0,0-2.223Zm0-19.092a1.573,1.573,0,1,0,0,2.223,1.573,1.573,0,0,0,0-2.223Zm-1.111-2.377A3.472,3.472,0,1,1,89.4,47.207,3.473,3.473,0,0,1,92.874,43.734Zm24.786-11.56H91.438c-.571,0-1.25.339-1.25.833v4.167c0,.51.664.849,1.25.849H117.66c.571,0,1.25-.339,1.25-.849V33.008C118.91,32.514,118.231,32.175,117.66,32.175Zm-26.222-1.9H117.66a2.971,2.971,0,0,1,3.148,2.732v4.167a2.973,2.973,0,0,1-3.148,2.747H91.438a2.972,2.972,0,0,1-3.148-2.747V33.008A2.981,2.981,0,0,1,91.438,30.276Zm9.121,35.73c-1.713,1.235-3.473,2.5-5.2,3.55-4.646,2.84-7.732,3.5-11.915,4.383-2.053.432-4.322.91-7.192,1.775l5.016,16.2c1.157-.4,2.377-.957,3.673-1.528a36.535,36.535,0,0,1,9.029-3.056c4.707-.756,9.908-.648,15.51-.525,3.812.077,7.825.17,11.976-.015,1.76-.417,5.032-1.5,8.257-2.624,4.2-1.482,8.272-3.025,8.813-3.365l12.995-8.118c1.728-1.081,2.408-2.423.648-3.334a6.122,6.122,0,0,0-5.062.154L131.888,76.02c-1.528.648-9.646-.031-10.6-.232-1.3-.278-2.716-.54-4.044-.8l-1.034-.2c-4.738-.942-8.226-1.713-8.751-3.256-.463-1.374,1.2-2.824,6-4.646l2.269-.818a5.4,5.4,0,0,0,3.519-4.4,2.16,2.16,0,0,0-1.852-2.423,8.5,8.5,0,0,0-3.256.293,53.037,53.037,0,0,0-6.189,1.929c-2.13.757-4.723,2.609-7.394,4.538Zm23.784,8.18c1.312.093,6.1.371,6.791.077l15.079-6.451a13.849,13.849,0,0,0,1.559-3.4c2.685-9.013-4.445-17.069-11.251-24.909-1.374-1.59-2.763-3.18-4.09-4.8h-6.775V71.655a3.1,3.1,0,0,1-1.312,2.531Zm-7.331-6.621-.849.339A1.864,1.864,0,0,0,117.012,67.564ZM114.45,57.5a9.668,9.668,0,0,1,3.164-.185,1.63,1.63,0,0,0-.463-1.343,1.587,1.587,0,0,0-2.7,1.111ZM96.331,66.669c3.4-2.3,7.732-5.818,10.943-7.007,1.652-.617,3.519-1.25,5.279-1.713V57.1a3.472,3.472,0,0,1,6.945,0v1.018c2.114,1.513,1.976,4.275.741,6.421-.849,1.482-.741.54-.741,1.79a3.483,3.483,0,0,1-5.926,2.47c-3.195,1.157-4.445,1.79-4.337,2.1.185.571,3.18,1.188,7.269,2.006h5.988a1.255,1.255,0,0,0,1.25-1.25V28.609a1.242,1.242,0,0,0-1.25-1.235h-35.9a1.252,1.252,0,0,0-1.25,1.235V71.577a27.685,27.685,0,0,0,6.143-2.068,3.476,3.476,0,1,1,4.846-2.84Z" transform="translate(-76.251 -18.329)" fill="#fff"/>
    </g>
  </g>
</svg>
