<svg xmlns="http://www.w3.org/2000/svg" xmlns:xlink="http://www.w3.org/1999/xlink" width="88" height="88" viewBox="0 0 88 88">
  <defs>
    <clipPath id="clip-path">
      <circle id="Elipse_563" data-name="Elipse 563" cx="44" cy="44" r="44" transform="translate(1626 841)" fill="#fff"/>
    </clipPath>
  </defs>
  <g id="Grupo_de_máscara_12" data-name="Grupo de máscara 12" transform="translate(-1626 -841)" clip-path="url(#clip-path)">
    <g id="noun-earn-5427128" transform="translate(1624.697 841.313)">
      <path id="Caminho_9119" data-name="Caminho 9119" d="M120.815,35.083a9.711,9.711,0,1,0-2.835-6.858,9.689,9.689,0,0,0,2.835,6.858Zm2.786-3.942a.957.957,0,0,1,1.906-.163c.13,1.434,2.46,2.118,3.779,1.01a1.475,1.475,0,0,0,.57-1.14c0-2.851-6.256-.358-6.256-5.278a3.71,3.71,0,0,1,3.112-3.486v-.912a.96.96,0,0,1,.994-.961.943.943,0,0,1,.945.977l-.016.88a3.713,3.713,0,0,1,3.128,3.5.953.953,0,0,1-1.906,0c0-1.515-2.427-2.264-3.779-1.14a1.475,1.475,0,0,0-.57,1.14c0,2.851,6.256.342,6.256,5.278a3.757,3.757,0,0,1-3.128,3.5l-.016.9a.953.953,0,0,1-1.906,0v-.9a3.766,3.766,0,0,1-3.112-3.209ZM95.678,72.389c-.081,5.571-.2,11.126-.293,16.681,3.5-.277,9.155-.163,14.824-.065,5.9.114,11.843.228,15.345-.1,4.007-1.157,15.329-8.927,22.611-13.912,1.792-1.238,3.356-2.3,4.5-3.063,1.564-1.043,2.183-2.264.505-3.03a6.052,6.052,0,0,0-4.92.342l-14.14,6.614c-1.385.652-8.992.5-10.068.277l-15.313-3.274a.849.849,0,0,1,.147-1.678l9.709-.244a4.4,4.4,0,0,0,3.779-1.857,1.947,1.947,0,0,0,.163-1.922,2.915,2.915,0,0,0-2.574-1.189c-2.509-.13-4.529-.293-6.272-.424-7.51-.6-9.693-.766-15.508,4.594ZM83.917,70.955H71.1V89.038H83.607c.1-6.027.212-12.055.31-18.083Zm1.71-.88v.13L85.3,89.445a.832.832,0,0,0,.749.831l6.858.049a.763.763,0,0,0,.8-.717l.326-19.321a.832.832,0,0,0-.749-.831l-6.842-.049a.75.75,0,0,0-.815.668Zm17.04-14.45a10,10,0,1,0-2.916-7.07A9.97,9.97,0,0,0,102.667,55.626Zm2.867-4.04a.982.982,0,0,1,1.955-.179c.13,1.482,2.525,2.183,3.877,1.043a1.557,1.557,0,0,0,.586-1.173c0-2.932-6.435-.358-6.435-5.425a3.83,3.83,0,0,1,3.193-3.584v-.929a1,1,0,0,1,2,.016l-.016.912a3.848,3.848,0,0,1,3.225,3.6.986.986,0,0,1-1.971,0c0-1.564-2.492-2.33-3.877-1.173a1.557,1.557,0,0,0-.586,1.173c0,2.932,6.435.342,6.435,5.425a3.846,3.846,0,0,1-3.225,3.6l-.016.9a.986.986,0,0,1-1.971,0V54.86a3.872,3.872,0,0,1-3.177-3.274Zm21.976,9.921a10.114,10.114,0,1,0-2.965-7.151,10.015,10.015,0,0,0,2.965,7.152Zm2.9-4.089a1,1,0,0,1,1.987-.179c.13,1.5,2.558,2.2,3.926,1.059a1.554,1.554,0,0,0,.6-1.189c0-1.287-1.222-1.531-2.46-1.776-2.036-.407-4.056-.815-4.056-3.714a3.865,3.865,0,0,1,3.242-3.633v-.945a1,1,0,0,1,1.026-.994.981.981,0,0,1,.994,1.01l-.016.912A3.9,3.9,0,0,1,138.93,51.6a.994.994,0,0,1-1.987,0c0-1.58-2.525-2.362-3.926-1.189a1.607,1.607,0,0,0-.6,1.189c0,1.271,1.222,1.515,2.46,1.776,2.036.407,4.056.815,4.056,3.714a3.881,3.881,0,0,1-3.258,3.633l-.016.945a.994.994,0,0,1-1.987,0v-.945a3.9,3.9,0,0,1-3.258-3.307Zm11.924-39.1a.847.847,0,0,1,1.694,0V34.35a.847.847,0,0,1-1.694,0Zm-25.689-7.64a.847.847,0,0,1,1.694,0v6.744a.847.847,0,0,1-1.694,0Zm-6.353,8.65a.847.847,0,0,1,1.694,0V29.822a.847.847,0,0,1-1.694,0Z" transform="translate(-71.096 -9.85)" fill="#fff"/>
    </g>
  </g>
</svg>
