<svg xmlns="http://www.w3.org/2000/svg" width="71" height="70" viewBox="0 0 71 70">
  <g id="_3319626_coin_dollar_house_investment_icon" data-name="3319626_coin_dollar_house_investment_icon" transform="translate(-0.116 -0.334)">
    <ellipse id="Elipse_54" data-name="Elipse 54" cx="35.5" cy="35" rx="35.5" ry="35" transform="translate(0.116 0.334)" fill="#00a8ea"/>
    <g id="Grupo_3043" data-name="Grupo 3043" transform="translate(10.046 7.23)">
      <g id="Grupo_3014" data-name="Grupo 3014" transform="translate(22.251 25.555)">
        <g id="Grupo_3013" data-name="Grupo 3013">
          <rect id="Retângulo_5057" data-name="Retângulo 5057" width="26.436" height="18.175" fill="#baca5b"/>
        </g>
      </g>
      <g id="Grupo_3015" data-name="Grupo 3015" transform="translate(4.076 12.447)">
        <path id="Caminho_4023" data-name="Caminho 4023" d="M30.675,31.308,21.643,18.2,12.5,31.308V49.483H30.675Z" transform="translate(-12.5 -18.2)" fill="#fff"/>
      </g>
      <g id="Grupo_3016" data-name="Grupo 3016" transform="translate(9.032 30.512)">
        <rect id="Retângulo_5058" data-name="Retângulo 5058" width="8.261" height="13.218" fill="#695652"/>
      </g>
      <g id="Grupo_3017" data-name="Grupo 3017" transform="translate(20.598)">
        <path id="Caminho_4024" data-name="Caminho 4024" d="M45.675,15.932a8.972,8.972,0,0,1-2.864,6.609H30.364A9.04,9.04,0,0,1,36.532,6.9,9.1,9.1,0,0,1,45.675,15.932Z" transform="translate(-27.5 -6.9)" fill="#fdef34"/>
      </g>
      <path id="Caminho_4025" data-name="Caminho 4025" d="M59.91,31.47,49.776,16.6H47.463a9.092,9.092,0,0,1-2.644,4.957H32.262A8.44,8.44,0,0,1,29.619,16.6H19.264L8.8,31.47h4.186l9.032-13.108L31.051,31.47H59.91Z" transform="translate(-8.8 -5.915)" fill="#c64444"/>
      <path id="Caminho_4026" data-name="Caminho 4026" d="M31.559,31.47,20.985,16.6,10.3,31.47h2.423l8.261-11.9,8.151,11.9Z" transform="translate(-8.648 -5.915)" fill="#eb5151"/>
      <g id="Grupo_3018" data-name="Grupo 3018" transform="translate(0 43.73)">
        <rect id="Retângulo_5059" data-name="Retângulo 5059" width="51.221" height="2.864" fill="#f3eee4"/>
      </g>
      <path id="Caminho_4027" data-name="Caminho 4027" d="M33.245,21.788h6.168A6.816,6.816,0,1,0,29.5,15.729,7.009,7.009,0,0,0,33.245,21.788Z" transform="translate(-6.699 -6.697)" fill="#facc20"/>
      <g id="Grupo_3019" data-name="Grupo 3019" transform="translate(26.987 4.296)">
        <path id="Caminho_4028" data-name="Caminho 4028" d="M38.587,16.418c-.11-.33-.441-1.1-2.2-1.432v-2.2a1.2,1.2,0,0,1,.881.881.7.7,0,0,0,.661.551c.22,0,1.322-.33.11-1.762a2.228,2.228,0,0,0-1.652-.771V10.8h-.661v.881c-2.093.22-2.313,1.542-2.313,2.2,0,1.873,1.762,2.093,2.313,2.313v2.423c-.881-.22-.991-1.1-1.1-1.432a.565.565,0,0,0-.661-.441.682.682,0,0,0-.661.661,2.347,2.347,0,0,0,1.432,1.983c.33.11.661.22,1.1.33V20.6h.661v-.881a2.7,2.7,0,0,0,1.322-.441A2.328,2.328,0,0,0,38.587,16.418Zm-2.864-1.652c-.551-.22-.881-.33-.991-.991,0-.33.11-.771.991-.991Zm.661,3.965V16.418c1.1.33,1.1.881,1.1,1.1S37.376,18.4,36.384,18.731Z" transform="translate(-33.3 -10.8)" fill="#ff6a52"/>
      </g>
      <g id="Grupo_3029" data-name="Grupo 3029" transform="translate(22.251 26.877)">
        <g id="Grupo_3020" data-name="Grupo 3020">
          <rect id="Retângulo_5060" data-name="Retângulo 5060" width="1.652" height="0.661" fill="#b7c156"/>
          <rect id="Retângulo_5061" data-name="Retângulo 5061" width="3.525" height="0.661" transform="translate(3.525)" fill="#b7c156"/>
          <rect id="Retângulo_5062" data-name="Retângulo 5062" width="3.525" height="0.661" transform="translate(8.812)" fill="#b7c156"/>
          <rect id="Retângulo_5063" data-name="Retângulo 5063" width="3.525" height="0.661" transform="translate(14.099)" fill="#b7c156"/>
          <rect id="Retângulo_5064" data-name="Retângulo 5064" width="3.525" height="0.661" transform="translate(19.387)" fill="#b7c156"/>
          <rect id="Retângulo_5065" data-name="Retângulo 5065" width="1.652" height="0.661" transform="translate(24.784)" fill="#b7c156"/>
        </g>
        <g id="Grupo_3021" data-name="Grupo 3021" transform="translate(0.881 1.873)">
          <rect id="Retângulo_5066" data-name="Retângulo 5066" width="3.525" height="0.661" fill="#b7c156"/>
          <rect id="Retângulo_5067" data-name="Retângulo 5067" width="3.525" height="0.661" transform="translate(5.287)" fill="#b7c156"/>
          <rect id="Retângulo_5068" data-name="Retângulo 5068" width="3.525" height="0.661" transform="translate(10.575)" fill="#b7c156"/>
          <rect id="Retângulo_5069" data-name="Retângulo 5069" width="3.525" height="0.661" transform="translate(15.862)" fill="#b7c156"/>
          <rect id="Retângulo_5070" data-name="Retângulo 5070" width="3.525" height="0.661" transform="translate(21.259)" fill="#b7c156"/>
        </g>
        <g id="Grupo_3022" data-name="Grupo 3022" transform="translate(0 3.745)">
          <rect id="Retângulo_5071" data-name="Retângulo 5071" width="1.652" height="0.661" fill="#b7c156"/>
          <rect id="Retângulo_5072" data-name="Retângulo 5072" width="3.525" height="0.661" transform="translate(3.525)" fill="#b7c156"/>
          <rect id="Retângulo_5073" data-name="Retângulo 5073" width="3.525" height="0.661" transform="translate(8.812)" fill="#b7c156"/>
          <rect id="Retângulo_5074" data-name="Retângulo 5074" width="3.525" height="0.661" transform="translate(14.099)" fill="#b7c156"/>
          <rect id="Retângulo_5075" data-name="Retângulo 5075" width="3.525" height="0.661" transform="translate(19.387)" fill="#b7c156"/>
          <rect id="Retângulo_5076" data-name="Retângulo 5076" width="1.652" height="0.661" transform="translate(24.784)" fill="#b7c156"/>
        </g>
        <g id="Grupo_3023" data-name="Grupo 3023" transform="translate(0.881 5.618)">
          <rect id="Retângulo_5077" data-name="Retângulo 5077" width="3.525" height="0.661" fill="#b7c156"/>
          <rect id="Retângulo_5078" data-name="Retângulo 5078" width="3.525" height="0.661" transform="translate(5.287)" fill="#b7c156"/>
          <rect id="Retângulo_5079" data-name="Retângulo 5079" width="3.525" height="0.661" transform="translate(10.575)" fill="#b7c156"/>
          <rect id="Retângulo_5080" data-name="Retângulo 5080" width="3.525" height="0.661" transform="translate(15.862)" fill="#b7c156"/>
          <rect id="Retângulo_5081" data-name="Retângulo 5081" width="3.525" height="0.661" transform="translate(21.259)" fill="#b7c156"/>
        </g>
        <g id="Grupo_3024" data-name="Grupo 3024" transform="translate(0 7.38)">
          <rect id="Retângulo_5082" data-name="Retângulo 5082" width="1.652" height="0.661" fill="#b7c156"/>
          <rect id="Retângulo_5083" data-name="Retângulo 5083" width="3.525" height="0.661" transform="translate(3.525)" fill="#b7c156"/>
          <rect id="Retângulo_5084" data-name="Retângulo 5084" width="3.525" height="0.661" transform="translate(8.812)" fill="#b7c156"/>
          <rect id="Retângulo_5085" data-name="Retângulo 5085" width="3.525" height="0.661" transform="translate(14.099)" fill="#b7c156"/>
          <rect id="Retângulo_5086" data-name="Retângulo 5086" width="3.525" height="0.661" transform="translate(19.387)" fill="#b7c156"/>
          <rect id="Retângulo_5087" data-name="Retângulo 5087" width="1.652" height="0.661" transform="translate(24.784)" fill="#b7c156"/>
        </g>
        <g id="Grupo_3025" data-name="Grupo 3025" transform="translate(0.881 9.253)">
          <rect id="Retângulo_5088" data-name="Retângulo 5088" width="3.525" height="0.661" fill="#b7c156"/>
          <rect id="Retângulo_5089" data-name="Retângulo 5089" width="3.525" height="0.661" transform="translate(5.287)" fill="#b7c156"/>
          <rect id="Retângulo_5090" data-name="Retângulo 5090" width="3.525" height="0.661" transform="translate(10.575)" fill="#b7c156"/>
          <rect id="Retângulo_5091" data-name="Retângulo 5091" width="3.525" height="0.661" transform="translate(15.862)" fill="#b7c156"/>
          <rect id="Retângulo_5092" data-name="Retângulo 5092" width="3.525" height="0.661" transform="translate(21.259)" fill="#b7c156"/>
        </g>
        <g id="Grupo_3026" data-name="Grupo 3026" transform="translate(0 11.125)">
          <rect id="Retângulo_5093" data-name="Retângulo 5093" width="1.652" height="0.661" fill="#b7c156"/>
          <rect id="Retângulo_5094" data-name="Retângulo 5094" width="3.525" height="0.661" transform="translate(3.525)" fill="#b7c156"/>
          <rect id="Retângulo_5095" data-name="Retângulo 5095" width="3.525" height="0.661" transform="translate(8.812)" fill="#b7c156"/>
          <rect id="Retângulo_5096" data-name="Retângulo 5096" width="3.525" height="0.661" transform="translate(14.099)" fill="#b7c156"/>
          <rect id="Retângulo_5097" data-name="Retângulo 5097" width="3.525" height="0.661" transform="translate(19.387)" fill="#b7c156"/>
          <rect id="Retângulo_5098" data-name="Retângulo 5098" width="1.652" height="0.661" transform="translate(24.784)" fill="#b7c156"/>
        </g>
        <g id="Grupo_3027" data-name="Grupo 3027" transform="translate(0.881 12.998)">
          <rect id="Retângulo_5099" data-name="Retângulo 5099" width="3.525" height="0.661" fill="#b7c156"/>
          <rect id="Retângulo_5100" data-name="Retângulo 5100" width="3.525" height="0.661" transform="translate(5.287)" fill="#b7c156"/>
          <rect id="Retângulo_5101" data-name="Retângulo 5101" width="3.525" height="0.661" transform="translate(10.575)" fill="#b7c156"/>
          <rect id="Retângulo_5102" data-name="Retângulo 5102" width="3.525" height="0.661" transform="translate(15.862)" fill="#b7c156"/>
          <rect id="Retângulo_5103" data-name="Retângulo 5103" width="3.525" height="0.661" transform="translate(21.259)" fill="#b7c156"/>
        </g>
        <g id="Grupo_3028" data-name="Grupo 3028" transform="translate(0 14.87)">
          <rect id="Retângulo_5104" data-name="Retângulo 5104" width="1.652" height="0.661" fill="#b7c156"/>
          <rect id="Retângulo_5105" data-name="Retângulo 5105" width="3.525" height="0.661" transform="translate(3.525)" fill="#b7c156"/>
          <rect id="Retângulo_5106" data-name="Retângulo 5106" width="3.525" height="0.661" transform="translate(8.812)" fill="#b7c156"/>
          <rect id="Retângulo_5107" data-name="Retângulo 5107" width="3.525" height="0.661" transform="translate(14.099)" fill="#b7c156"/>
          <rect id="Retângulo_5108" data-name="Retângulo 5108" width="3.525" height="0.661" transform="translate(19.387)" fill="#b7c156"/>
          <rect id="Retângulo_5109" data-name="Retângulo 5109" width="1.652" height="0.661" transform="translate(24.784)" fill="#b7c156"/>
        </g>
      </g>
      <g id="Grupo_3030" data-name="Grupo 3030" transform="translate(29.08 30.292)">
        <rect id="Retângulo_5110" data-name="Retângulo 5110" width="14.32" height="8.812" fill="#fff"/>
        <rect id="Retângulo_5111" data-name="Retângulo 5111" width="11.456" height="5.948" transform="translate(1.432 1.432)" fill="#40eeff"/>
        <path id="Caminho_4029" data-name="Caminho 4029" d="M36.5,41.538,48.066,35.7v5.838Z" transform="translate(-35.068 -34.268)" fill="#33d3f4"/>
      </g>
      <rect id="Retângulo_5112" data-name="Retângulo 5112" width="16.082" height="0.881" transform="translate(28.199 38.773)" fill="#eb5151"/>
      <g id="Grupo_3040" data-name="Grupo 3040" transform="translate(21.59 0.881)">
        <g id="Grupo_3031" data-name="Grupo 3031" transform="translate(0 7.6)">
          <ellipse id="Elipse_55" data-name="Elipse 55" cx="0.33" cy="0.33" rx="0.33" ry="0.33" fill="#dba92c"/>
          <ellipse id="Elipse_56" data-name="Elipse 56" cx="0.33" cy="0.33" rx="0.33" ry="0.33" transform="translate(15.531)" fill="#dba92c"/>
        </g>
        <g id="Grupo_3032" data-name="Grupo 3032" transform="translate(0.441 4.957)">
          <ellipse id="Elipse_57" data-name="Elipse 57" cx="0.33" cy="0.33" rx="0.33" ry="0.33" transform="translate(0 5.287)" fill="#dba92c"/>
          <ellipse id="Elipse_58" data-name="Elipse 58" cx="0.33" cy="0.33" rx="0.33" ry="0.33" transform="translate(14.65)" fill="#dba92c"/>
        </g>
        <g id="Grupo_3033" data-name="Grupo 3033" transform="translate(1.873 2.644)">
          <ellipse id="Elipse_59" data-name="Elipse 59" cx="0.33" cy="0.33" rx="0.33" ry="0.33" transform="translate(0 10.024)" fill="#dba92c"/>
          <ellipse id="Elipse_60" data-name="Elipse 60" cx="0.33" cy="0.33" rx="0.33" ry="0.33" transform="translate(11.786)" fill="#dba92c"/>
        </g>
        <g id="Grupo_3034" data-name="Grupo 3034" transform="translate(11.676 0.881)">
          <ellipse id="Elipse_61" data-name="Elipse 61" cx="0.33" cy="0.33" rx="0.33" ry="0.33" fill="#dba92c"/>
        </g>
        <g id="Grupo_3035" data-name="Grupo 3035" transform="translate(9.143)">
          <ellipse id="Elipse_62" data-name="Elipse 62" cx="0.33" cy="0.33" rx="0.33" ry="0.33" fill="#dba92c"/>
        </g>
        <g id="Grupo_3036" data-name="Grupo 3036" transform="translate(6.389)">
          <ellipse id="Elipse_63" data-name="Elipse 63" cx="0.33" cy="0.33" rx="0.33" ry="0.33" fill="#dba92c"/>
        </g>
        <g id="Grupo_3037" data-name="Grupo 3037" transform="translate(3.855 0.881)">
          <ellipse id="Elipse_64" data-name="Elipse 64" cx="0.33" cy="0.33" rx="0.33" ry="0.33" fill="#dba92c"/>
        </g>
        <g id="Grupo_3038" data-name="Grupo 3038" transform="translate(1.873 2.644)">
          <ellipse id="Elipse_65" data-name="Elipse 65" cx="0.33" cy="0.33" rx="0.33" ry="0.33" transform="translate(11.786 10.024)" fill="#dba92c"/>
          <ellipse id="Elipse_66" data-name="Elipse 66" cx="0.33" cy="0.33" rx="0.33" ry="0.33" fill="#dba92c"/>
        </g>
        <g id="Grupo_3039" data-name="Grupo 3039" transform="translate(0.441 4.957)">
          <ellipse id="Elipse_67" data-name="Elipse 67" cx="0.33" cy="0.33" rx="0.33" ry="0.33" transform="translate(14.65 5.287)" fill="#dba92c"/>
          <ellipse id="Elipse_68" data-name="Elipse 68" cx="0.33" cy="0.33" rx="0.33" ry="0.33" fill="#dba92c"/>
        </g>
      </g>
      <g id="Grupo_3041" data-name="Grupo 3041" transform="translate(20.598)" opacity="0.25">
        <path id="Caminho_4030" data-name="Caminho 4030" d="M40.278,7.671,28.271,19.678A8.449,8.449,0,0,1,27.5,16.7l9.8-9.8A8.449,8.449,0,0,1,40.278,7.671Z" transform="translate(-27.5 -6.9)" fill="#fff"/>
        <path id="Caminho_4031" data-name="Caminho 4031" d="M45.031,12.976l-9.473,9.363h-5.4l-.661-.661L42.278,8.9A8.691,8.691,0,0,1,45.031,12.976Z" transform="translate(-27.297 -6.697)" fill="#fff"/>
      </g>
      <g id="Grupo_3042" data-name="Grupo 3042" transform="translate(18.836 14.76)">
        <path id="Caminho_4032" data-name="Caminho 4032" d="M46.609,22.062H26.781a.881.881,0,0,1,0-1.762H46.609a.881.881,0,1,1,0,1.762Z" transform="translate(-25.9 -20.3)" fill="#eb5151"/>
      </g>
    </g>
  </g>
</svg>
