<svg xmlns="http://www.w3.org/2000/svg" width="71" height="71" viewBox="0 0 71 71">
  <g id="_3319600_clip_board_graph_pie_chart_report_icon" data-name="3319600_clip board_graph_pie chart_report_icon" transform="translate(0.271)">
    <circle id="Elipse_48" data-name="Elipse 48" cx="35.5" cy="35.5" r="35.5" transform="translate(-0.271)" fill="#eb5151"/>
    <g id="Grupo_3002" data-name="Grupo 3002" transform="translate(13.103 8.92)">
      <g id="Grupo_2985" data-name="Grupo 2985" transform="translate(0 5.067)">
        <path id="Caminho_3997" data-name="Caminho 3997" d="M40.1,40.8a10.323,10.323,0,0,0,5.067,8.812,9.8,9.8,0,0,0,4.3,1.322v7.16a2.327,2.327,0,0,1-2.313,2.313H14.213A2.327,2.327,0,0,1,11.9,58.093V14.913A2.327,2.327,0,0,1,14.213,12.6h7.05v5.948H39.989V12.6h7.16a2.327,2.327,0,0,1,2.313,2.313V30.665a9.8,9.8,0,0,0-4.3,1.322A10.323,10.323,0,0,0,40.1,40.8Z" transform="translate(-11.9 -12.6)" fill="#facc20"/>
      </g>
      <path id="Caminho_3998" data-name="Caminho 3998" d="M38.006,16.9A41.563,41.563,0,0,1,11.9,40.909v-26A2.327,2.327,0,0,1,14.213,12.6h7.931v4.3Z" transform="translate(-11.9 -7.533)" fill="#fdef34"/>
      <path id="Caminho_3999" data-name="Caminho 3999" d="M47.858,32.2V56.1a2.259,2.259,0,0,1-2.313,2.313H27.7A29.755,29.755,0,0,1,47.858,32.2Z" transform="translate(-10.296 -5.543)" fill="#f7a90b"/>
      <g id="Grupo_2986" data-name="Grupo 2986" transform="translate(9.473)">
        <path id="Caminho_4000" data-name="Caminho 4000" d="M33.278,11.415a2.425,2.425,0,0,0-.11-.881A3.538,3.538,0,0,0,29.863,8a3.432,3.432,0,0,0-3.415,3.415H20.5v7.711H39.226V11.415ZM29.863,9.322a1.929,1.929,0,0,1,1.873,1.212,2.075,2.075,0,0,1,.22.881A2.02,2.02,0,0,1,30.3,13.4h-.661a.833.833,0,0,1-.441-.11,2.026,2.026,0,0,1-1.322-1.873A1.935,1.935,0,0,1,29.863,9.322Z" transform="translate(-20.5 -8)" fill="#695652"/>
      </g>
      <g id="Grupo_2987" data-name="Grupo 2987" transform="translate(4.296 9.363)">
        <path id="Caminho_4001" data-name="Caminho 4001" d="M39.7,40.4a10.323,10.323,0,0,0,5.067,8.812v6.5H15.8V16.5h5.067v1.652H39.593V16.5H44.66V31.591A10.47,10.47,0,0,0,39.7,40.4Z" transform="translate(-15.8 -16.5)" fill="#fff"/>
      </g>
      <path id="Caminho_4002" data-name="Caminho 4002" d="M57.978,39.144A10.146,10.146,0,0,1,55,46.414h0c-.33.33-.771.661-1.1.991a10.244,10.244,0,1,1,0-16.523,9.934,9.934,0,0,1,1.1.991A10.62,10.62,0,0,1,57.978,39.144Z" transform="translate(-9.291 -5.878)" fill="#00a8ea"/>
      <g id="Grupo_2988" data-name="Grupo 2988" transform="translate(7.27 29.741)">
        <rect id="Retângulo_5038" data-name="Retângulo 5038" width="1.652" height="12.337" transform="translate(0 4.626)" fill="#b3b4b7"/>
        <rect id="Retângulo_5039" data-name="Retângulo 5039" width="1.652" height="17.074" transform="translate(2.864)" fill="#b3b4b7"/>
        <rect id="Retângulo_5040" data-name="Retângulo 5040" width="1.652" height="6.499" transform="translate(5.728 10.464)" fill="#b3b4b7"/>
        <rect id="Retângulo_5041" data-name="Retângulo 5041" width="1.652" height="10.575" transform="translate(8.592 6.499)" fill="#b3b4b7"/>
        <rect id="Retângulo_5042" data-name="Retângulo 5042" width="1.652" height="13.108" transform="translate(11.456 3.965)" fill="#b3b4b7"/>
        <rect id="Retângulo_5043" data-name="Retângulo 5043" width="1.652" height="15.201" transform="translate(14.32 1.762)" fill="#b3b4b7"/>
        <rect id="Retângulo_5044" data-name="Retângulo 5044" width="1.652" height="9.803" transform="translate(17.294 7.27)" fill="#b3b4b7"/>
      </g>
      <g id="Grupo_2989" data-name="Grupo 2989" transform="translate(7.27 43.4)">
        <rect id="Retângulo_5045" data-name="Retângulo 5045" width="1.652" height="3.305" fill="#9d9ea0"/>
        <rect id="Retângulo_5046" data-name="Retângulo 5046" width="1.652" height="3.305" transform="translate(2.864)" fill="#9d9ea0"/>
        <rect id="Retângulo_5047" data-name="Retângulo 5047" width="1.652" height="3.305" transform="translate(5.728)" fill="#9d9ea0"/>
        <rect id="Retângulo_5048" data-name="Retângulo 5048" width="1.652" height="3.305" transform="translate(8.592)" fill="#9d9ea0"/>
        <rect id="Retângulo_5049" data-name="Retângulo 5049" width="1.652" height="3.305" transform="translate(11.456)" fill="#9d9ea0"/>
        <rect id="Retângulo_5050" data-name="Retângulo 5050" width="1.652" height="3.305" transform="translate(14.32)" fill="#9d9ea0"/>
        <rect id="Retângulo_5051" data-name="Retângulo 5051" width="1.652" height="3.305" transform="translate(17.294)" fill="#9d9ea0"/>
      </g>
      <g id="Grupo_3000" data-name="Grupo 3000" transform="translate(6.94 13.218)">
        <g id="Grupo_2994" data-name="Grupo 2994" transform="translate(2.313 1.983)">
          <g id="Grupo_2990" data-name="Grupo 2990" transform="translate(3.415 6.94)">
            <path id="Caminho_4003" data-name="Caminho 4003" d="M25.162,28.1,23.4,29.862a1.327,1.327,0,0,1,.551.551L25.6,28.651A.775.775,0,0,1,25.162,28.1Z" transform="translate(-23.4 -28.1)" fill="#9eca5b"/>
          </g>
          <g id="Grupo_2991" data-name="Grupo 2991" transform="translate(7.27 6.499)">
            <path id="Caminho_4004" data-name="Caminho 4004" d="M30.645,29.352h0a.931.931,0,0,1,.22-.661L27.01,27.7v.11a4.771,4.771,0,0,1-.11.551Z" transform="translate(-26.9 -27.7)" fill="#9eca5b"/>
          </g>
          <g id="Grupo_2992" data-name="Grupo 2992" transform="translate(12.447)">
            <path id="Caminho_4005" data-name="Caminho 4005" d="M38.209,21.8h0L31.6,28.85a1.327,1.327,0,0,1,.551.551l6.609-7.05v-.11C38.54,22.241,38.429,22.02,38.209,21.8Z" transform="translate(-31.6 -21.8)" fill="#9eca5b"/>
          </g>
          <g id="Grupo_2993" data-name="Grupo 2993" transform="translate(0 8.482)">
            <path id="Caminho_4006" data-name="Caminho 4006" d="M22.173,30.822a1.566,1.566,0,0,1,.22-.661L20.52,29.5h0a1.566,1.566,0,0,1-.22.661h.11l1.762.661Z" transform="translate(-20.3 -29.5)" fill="#9eca5b"/>
          </g>
        </g>
        <g id="Grupo_2995" data-name="Grupo 2995" transform="translate(0 8.922)">
          <path id="Caminho_4007" data-name="Caminho 4007" d="M19.632,30.964a1.432,1.432,0,1,1,1.432-1.432A1.458,1.458,0,0,1,19.632,30.964Zm0-2.093a.771.771,0,1,0,.771.771A.928.928,0,0,0,19.632,28.871Z" transform="translate(-18.2 -28.1)" fill="#98ba56"/>
        </g>
        <g id="Grupo_2996" data-name="Grupo 2996" transform="translate(3.855 10.354)">
          <path id="Caminho_4008" data-name="Caminho 4008" d="M23.132,32.264a1.432,1.432,0,1,1,1.432-1.432A1.458,1.458,0,0,1,23.132,32.264Zm0-2.2a.771.771,0,1,0,.771.771A.753.753,0,0,0,23.132,30.061Z" transform="translate(-21.7 -29.4)" fill="#98ba56"/>
        </g>
        <g id="Grupo_2997" data-name="Grupo 2997" transform="translate(7.05 7.16)">
          <path id="Caminho_4009" data-name="Caminho 4009" d="M26.032,29.364a1.432,1.432,0,1,1,1.432-1.432A1.458,1.458,0,0,1,26.032,29.364Zm0-2.2a.771.771,0,1,0,.771.771A.753.753,0,0,0,26.032,27.161Z" transform="translate(-24.6 -26.5)" fill="#98ba56"/>
        </g>
        <g id="Grupo_2998" data-name="Grupo 2998" transform="translate(12.888 8.592)">
          <path id="Caminho_4010" data-name="Caminho 4010" d="M31.332,30.664a1.432,1.432,0,1,1,1.432-1.432A1.328,1.328,0,0,1,31.332,30.664Zm0-2.093a.771.771,0,1,0,.771.771A.753.753,0,0,0,31.332,28.571Z" transform="translate(-29.9 -27.8)" fill="#98ba56"/>
        </g>
        <g id="Grupo_2999" data-name="Grupo 2999" transform="translate(20.929)">
          <path id="Caminho_4011" data-name="Caminho 4011" d="M38.632,22.864a1.432,1.432,0,1,1,1.432-1.432A1.458,1.458,0,0,1,38.632,22.864Zm0-2.093a.771.771,0,1,0,.771.771A.828.828,0,0,0,38.632,20.771Z" transform="translate(-37.2 -20)" fill="#98ba56"/>
        </g>
      </g>
      <path id="Caminho_4012" data-name="Caminho 4012" d="M57.044,38.87A10.146,10.146,0,0,0,54.07,31.6L46.8,38.87l7.27,7.27A10.62,10.62,0,0,0,57.044,38.87Z" transform="translate(-8.357 -5.604)" fill="#40eeff"/>
      <g id="Grupo_3001" data-name="Grupo 3001" transform="translate(37.011 25.335)" opacity="0.1">
        <path id="Caminho_4013" data-name="Caminho 4013" d="M53.63,44.4l-.33.33h0c.11,0,.22-.22.33-.33Z" transform="translate(-44.708 -29.64)" fill="#231f20"/>
        <path id="Caminho_4014" data-name="Caminho 4014" d="M54.092,31.661,53.431,31,45.5,38.931l7.821,7.821.661-.661-7.27-7.27,7.38-7.16a1.521,1.521,0,0,1,.33.441h0C54.422,31.991,54.312,31.881,54.092,31.661Z" transform="translate(-45.5 -31)" fill="#231f20"/>
      </g>
    </g>
  </g>
</svg>
