<?xml version="1.0" encoding="utf-8"?>
<!-- Generator: Adobe Illustrator 22.1.0, SVG Export Plug-In . SVG Version: 6.00 Build 0)  -->
<svg version="1.1" id="Camada_1" xmlns="http://www.w3.org/2000/svg" xmlns:xlink="http://www.w3.org/1999/xlink" x="0px" y="0px"
	 viewBox="0 0 36.5 26.1" style="enable-background:new 0 0 36.5 26.1;" xml:space="preserve">
<style type="text/css">
	.st0{fill:#FFFFFF;}
</style>
<path class="st0" d="M36.1,10.3c0,2.1-1.7,3.8-3.8,3.9l-3.5,8.1v2.6c0,0.4-0.3,0.7-0.7,0.7H8.7c-0.4,0-0.7-0.3-0.7-0.7v-2.6
	l-3.5-8.1c-0.1,0-0.2,0-0.3,0c-2.1,0-3.9-1.7-3.9-3.9s1.7-3.9,3.9-3.9c2.1,0,3.9,1.7,3.9,3.9c0,0.6-0.1,1.1-0.4,1.7l4.5,2l4-6.4
	c-1-0.7-1.7-1.9-1.7-3.2c0-2.1,1.7-3.9,3.9-3.9s3.9,1.7,3.9,3.9c0,1.3-0.7,2.5-1.7,3.2l4,6.3l4.2-1.9c-0.3-0.5-0.4-1.2-0.4-1.8
	c0-2.1,1.7-3.9,3.9-3.9C34.4,6.4,36.1,8.1,36.1,10.3z"/>
</svg>
