<svg xmlns="http://www.w3.org/2000/svg" width="500" height="344.354" viewBox="0 0 500 344.354">
  <g id="Wallet-rafiki" transform="translate(0 -55)">
    <g id="freepik--background-complete--inject-66" transform="translate(0 55)">
      <rect id="Retângulo_3323" data-name="Retângulo 3323" width="500" height="0.231" transform="translate(0 302.613)" fill="#ebebeb"/>
      <rect id="Retângulo_3324" data-name="Retângulo 3324" width="23.18" height="0.231" transform="translate(150.04 308.51)" fill="#ebebeb"/>
      <rect id="Retângulo_3325" data-name="Retângulo 3325" width="56.67" height="0.231" transform="translate(402.1 313.464)" fill="#ebebeb"/>
      <rect id="Retângulo_3326" data-name="Retângulo 3326" width="56.67" height="0.231" transform="translate(42.72 313.464)" fill="#ebebeb"/>
      <path id="Caminho_3631" data-name="Caminho 3631" d="M237,316.389H43.91a5.506,5.506,0,0,1-5.7-5.278V60.231A5.51,5.51,0,0,1,43.91,55H237a5.507,5.507,0,0,1,5.71,5.278h0V311.112A5.507,5.507,0,0,1,237,316.389ZM43.91,55.185a5.265,5.265,0,0,0-5.45,5.047v250.88a5.265,5.265,0,0,0,5.45,5.047H237a5.285,5.285,0,0,0,5.46-5.047V60.231A5.285,5.285,0,0,0,237,55.185Z" transform="translate(0 -55)" fill="#ebebeb"/>
      <path id="Caminho_3632" data-name="Caminho 3632" d="M453.31,316.389H260.21a5.526,5.526,0,0,1-5.71-5.278V60.231A5.521,5.521,0,0,1,260.21,55h193.1A5.51,5.51,0,0,1,459,60.231v250.88a5.5,5.5,0,0,1-5.69,5.278Zm-193.1-261.2a5.285,5.285,0,0,0-5.46,5.047v250.88a5.285,5.285,0,0,0,5.46,5.047h193.1a5.285,5.285,0,0,0,5.46-5.047V60.231a5.285,5.285,0,0,0-5.46-5.047Z" transform="translate(0 -55)" fill="#ebebeb"/>
      <rect id="Retângulo_3327" data-name="Retângulo 3327" width="23.09" height="73.86" transform="translate(291.98 229.252)" fill="#e6e6e6"/>
      <rect id="Retângulo_3328" data-name="Retângulo 3328" width="23.09" height="73.86" transform="translate(275.63 229.252)" fill="#e6e6e6"/>
      <path id="Caminho_3633" data-name="Caminho 3633" d="M294.34,382h4.38V370.46h-8.99Z" transform="translate(0 -78.883)" fill="#f0f0f0"/>
      <rect id="Retângulo_3329" data-name="Retângulo 3329" width="23.09" height="73.86" transform="translate(159.56 229.252)" fill="#e6e6e6"/>
      <rect id="Retângulo_3330" data-name="Retângulo 3330" width="119.9" height="68.185" transform="translate(178.83 229.252)" fill="#f0f0f0"/>
      <path id="Caminho_3634" data-name="Caminho 3634" d="M291.26,356.109h-47a4.427,4.427,0,0,1-4.57-4.224v-41.51a4.408,4.408,0,0,1,4.57-4.215h46.95a4.408,4.408,0,0,1,4.57,4.215v41.51a4.422,4.422,0,0,1-4.52,4.224Zm-47-48.987a3.435,3.435,0,0,0-3.56,3.272V351.9a3.426,3.426,0,0,0,3.52,3.327h47a3.438,3.438,0,0,0,3.58-3.263V310.375a3.152,3.152,0,0,0-1.04-2.317,3.694,3.694,0,0,0-2.51-.955Z" transform="translate(0 -74.015)" fill="#e0e0e0"/>
      <path id="Caminho_3635" data-name="Caminho 3635" d="M233.24,356.109h-47a4.427,4.427,0,0,1-4.57-4.224v-41.51a4.408,4.408,0,0,1,4.57-4.215h47a4.408,4.408,0,0,1,4.57,4.215h0v41.51A4.417,4.417,0,0,1,233.24,356.109Zm-47-48.987a3.693,3.693,0,0,0-2.51.955,3.152,3.152,0,0,0-1.04,2.317V351.9a3.424,3.424,0,0,0,3.55,3.281h47a3.444,3.444,0,0,0,3.56-3.281V310.375a3.435,3.435,0,0,0-3.56-3.272Z" transform="translate(0 -74.015)" fill="#e0e0e0"/>
      <path id="Caminho_3636" data-name="Caminho 3636" d="M228.88,319.682a4.089,4.089,0,1,1,4.41-4.085h0a4.262,4.262,0,0,1-4.41,4.085Z" transform="translate(0 -74.422)" fill="#fafafa"/>
      <path id="Caminho_3637" data-name="Caminho 3637" d="M248.66,319.682a4.089,4.089,0,1,1,4.38-4.1v.083a4.246,4.246,0,0,1-4.38,4.021Z" transform="translate(0 -74.422)" fill="#fafafa"/>
      <path id="Caminho_3638" data-name="Caminho 3638" d="M183.21,382h-4.39V370.46h8.99Z" transform="translate(0 -78.883)" fill="#f0f0f0"/>
      <rect id="Retângulo_3331" data-name="Retângulo 3331" width="23.09" height="73.86" transform="translate(152.21 229.252)" fill="#e6e6e6"/>
      <path id="Caminho_3639" data-name="Caminho 3639" d="M170.91,382h4.39V370.46h-8.99Z" transform="translate(0 -78.883)" fill="#f0f0f0"/>
      <rect id="Retângulo_3332" data-name="Retângulo 3332" width="119.9" height="68.185" transform="translate(55.4 229.252)" fill="#f0f0f0"/>
      <path id="Caminho_3640" data-name="Caminho 3640" d="M167.83,356.109h-47a4.407,4.407,0,0,1-4.57-4.224v-41.51a4.408,4.408,0,0,1,4.57-4.215h46.95a4.408,4.408,0,0,1,4.57,4.215v41.51a4.4,4.4,0,0,1-4.52,4.224Zm-47-48.987a3.694,3.694,0,0,0-2.51.955,3.152,3.152,0,0,0-1.04,2.317V351.9a3.426,3.426,0,0,0,3.52,3.327h47a3.448,3.448,0,0,0,3.59-3.263V310.375a3.434,3.434,0,0,0-3.55-3.272Z" transform="translate(0 -74.015)" fill="#e0e0e0"/>
      <path id="Caminho_3641" data-name="Caminho 3641" d="M109.81,356.109H62.87a4.407,4.407,0,0,1-4.57-4.224h0v-41.51a4.06,4.06,0,0,1,1.339-2.984,4.757,4.757,0,0,1,3.231-1.231h46.94a4.757,4.757,0,0,1,3.231,1.231,4.06,4.06,0,0,1,1.339,2.984v41.51A4.417,4.417,0,0,1,109.81,356.109ZM62.87,307.121a3.7,3.7,0,0,0-2.516.952,3.152,3.152,0,0,0-1.044,2.32V351.9a3.426,3.426,0,0,0,3.52,3.327h47a3.7,3.7,0,0,0,2.517-.958,3.161,3.161,0,0,0,1.043-2.323V310.356a3.152,3.152,0,0,0-1.044-2.32,3.7,3.7,0,0,0-2.516-.952Z" transform="translate(0 -74.015)" fill="#e0e0e0"/>
      <path id="Caminho_3642" data-name="Caminho 3642" d="M105.46,319.682a4.089,4.089,0,1,1,4.4-4.085h0a3.915,3.915,0,0,1-1.282,2.888,4.589,4.589,0,0,1-3.118,1.2Z" transform="translate(0 -74.422)" fill="#fafafa"/>
      <path id="Caminho_3643" data-name="Caminho 3643" d="M125.24,319.682a4.089,4.089,0,1,1,4.38-4.1v.083a4.246,4.246,0,0,1-4.38,4.021Z" transform="translate(0 -74.422)" fill="#fafafa"/>
      <path id="Caminho_3644" data-name="Caminho 3644" d="M59.78,382H55.4V370.46h8.98Z" transform="translate(0 -78.883)" fill="#f0f0f0"/>
      <rect id="Retângulo_3333" data-name="Retângulo 3333" width="42.96" height="39.708" transform="translate(224.32 24.512)" fill="#ebebeb"/>
      <rect id="Retângulo_3334" data-name="Retângulo 3334" width="1.9" height="39.708" transform="translate(267.29 24.521)" fill="#e0e0e0"/>
      <rect id="Retângulo_3335" data-name="Retângulo 3335" width="31.32" height="28.949" transform="translate(230.15 29.901)" fill="#fff"/>
      <path id="Caminho_3645" data-name="Caminho 3645" d="M251.05,107.282h0a7.845,7.845,0,0,1-10.49,0h0a6.5,6.5,0,0,1,0-9.687h0a7.868,7.868,0,0,1,10.49,0h0a6.5,6.5,0,0,1,0,9.687Z" transform="translate(0 -58.073)" fill="#f5f5f5"/>
      <rect id="Retângulo_3336" data-name="Retângulo 3336" width="50.37" height="46.556" transform="translate(174.83 75.57)" fill="#ebebeb"/>
      <rect id="Retângulo_3337" data-name="Retângulo 3337" width="2.23" height="46.556" transform="translate(225.2 75.579)" fill="#e0e0e0"/>
      <rect id="Retângulo_3338" data-name="Retângulo 3338" width="36.72" height="33.94" transform="translate(181.66 81.883)" fill="#fff"/>
      <rect id="Retângulo_3339" data-name="Retângulo 3339" width="15.66" height="14.474" transform="translate(192.18 91.606)" fill="#f5f5f5"/>
      <rect id="Retângulo_3340" data-name="Retângulo 3340" width="27.27" height="5.888" transform="translate(423.23 60.596)" fill="#e6e6e6"/>
      <rect id="Retângulo_3341" data-name="Retângulo 3341" width="112.88" height="5.888" transform="translate(310.35 60.596)" fill="#f5f5f5"/>
      <rect id="Retângulo_3342" data-name="Retângulo 3342" width="31.78" height="31.269" transform="translate(342.71 29.337)" fill="#e0e0e0"/>
      <rect id="Retângulo_3343" data-name="Retângulo 3343" width="8.14" height="31.269" transform="translate(334.57 29.337)" fill="#f0f0f0"/>
      <rect id="Retângulo_3344" data-name="Retângulo 3344" width="23.87" height="36.084" transform="translate(358.95 24.512)" fill="#e6e6e6"/>
      <rect id="Retângulo_3345" data-name="Retângulo 3345" width="6.9" height="36.084" transform="translate(352.06 24.512)" fill="#f0f0f0"/>
      <rect id="Retângulo_3346" data-name="Retângulo 3346" width="20.13" height="31.269" transform="translate(365.99 29.337)" fill="#f0f0f0"/>
      <rect id="Retângulo_3347" data-name="Retângulo 3347" width="4.6" height="31.269" transform="translate(361.39 29.337)" fill="#fafafa"/>
      <rect id="Retângulo_3348" data-name="Retângulo 3348" width="26.4" height="25.973" transform="translate(382.46 34.624)" fill="#e6e6e6"/>
      <rect id="Retângulo_3349" data-name="Retângulo 3349" width="6.76" height="25.973" transform="translate(375.7 34.624)" fill="#fafafa"/>
      <rect id="Retângulo_3350" data-name="Retângulo 3350" width="19.83" height="29.984" transform="translate(395.95 30.622)" fill="#e6e6e6"/>
      <rect id="Retângulo_3351" data-name="Retângulo 3351" width="5.73" height="29.984" transform="translate(390.22 30.622)" fill="#f0f0f0"/>
      <rect id="Retângulo_3352" data-name="Retângulo 3352" width="19.26" height="25.973" transform="translate(401.79 34.624)" fill="#f0f0f0"/>
      <rect id="Retângulo_3353" data-name="Retângulo 3353" width="3.82" height="25.973" transform="translate(397.97 34.624)" fill="#fafafa"/>
      <path id="Caminho_3646" data-name="Caminho 3646" d="M407.09,303.677c8.54-10.315,28.87-14.151,35.9-20.658,9.2-8.531,9.16-21.333,1.32-25.954-6.8-4.011-29.36,23.107-31.89,26.157-8.75,10.435-11.28,18.172-12.92,25.668.19-6.368.37-12.228.52-16.739.47-14.724,1.06-19.466,1.34-20.917,1-.721,2.06-1.544,2.7-1.987,5.46-3.762,17.56-8.245,23.61-13.707,8.84-7.986,7.41-17.562,1.21-21.1-6.47-3.7-17.93,5.074-24,13.79s-3.48,17.072-5.18,24.253c-.36,1.423-.73,6.812-1.07,14.29a29.36,29.36,0,0,0-12.34-18.44c-8.37-6.174-15.6-13.7-22.5-12.727s-3.15,10.925,2.27,17.913c4.86,6.22,28.85,12.432,32.38,17.432-.42,10.167-.79,22.969-1.05,34.929-1.89-6.174-.59-6.692-8.34-16.175-4.6-5.62-23.5-12.57-25.74-8.688s1.17,11.165,8.3,16.277c5.75,4.122,18.46,4.113,21.47,6.673.69.592,3,2.884,4.26,4.206-.31,14.585-.44,27.461-.29,31.86l1.24.046c-.06-1.137.08-8.559.33-18.384,3.1-5.222,24-8.319,30.41-13.716,6.74-5.684,11.58-12.321,8.69-16.767-2.41-3.7-21.38,1.331-29.15,7.468-5.14,4.085-8.28,8.457-9.72,14.317.17-6.692.38-13.864.57-20.658C401,310.684,404.53,306.774,407.09,303.677Z" transform="translate(0 -68.52)" fill="#e6e6e6"/>
      <path id="Caminho_3647" data-name="Caminho 3647" d="M408.91,381.391H387.25c-1.19,0-2.21-1.423-2.44-3.4l-1.54-12.94h29.61l-1.53,12.94C411.1,379.968,410.09,381.391,408.91,381.391Z" transform="translate(0 -78.474)" fill="#f0f0f0"/>
      <path id="Caminho_3648" data-name="Caminho 3648" d="M413.5,369.268H382.65c-.74,0-1.36-.924-1.44-2.2l-.63-9.576c-.1-1.47.57-2.773,1.44-2.773h32.12c.86,0,1.53,1.285,1.43,2.773l-.63,9.576C414.87,368.326,414.24,369.268,413.5,369.268Z" transform="translate(0 -77.692)" fill="#f0f0f0"/>
      <g id="freepik--Shadow--inject-62--inject-66" transform="translate(56.11 323.428)">
        <ellipse id="freepik--path--inject-62--inject-66" cx="193.89" cy="10.463" rx="193.89" ry="10.463" fill="#f5f5f5"/>
      </g>
    </g>
    <g id="freepik--Coins--inject-66" transform="translate(164.605 57.038)">
      <path id="Caminho_3649" data-name="Caminho 3649" d="M214.49,153.592c-2.21,4.963-15.22,4.621-28.85-.573s-22.9-13.43-20.69-18.393c.52-1.146,2-5.444,3.48-6.036,5.08-1.987,14.75,2.477,25.22,6.47,9.75,3.7,20.9,6.11,22.63,11C217.32,149.035,215.12,152.178,214.49,153.592Z" transform="translate(-164.605 -62.572)" fill="#437cfd"/>
      <path id="Caminho_3650" data-name="Caminho 3650" d="M216.28,146.064c.83,3.891-1,5.758-1.79,7.533s-3.1,2.939-6.33,3.346a12.249,12.249,0,0,1-1.22.129,36.1,36.1,0,0,1-7.41-.36,7.181,7.181,0,0,1-1.06-.157A62.863,62.863,0,0,1,190,154.54l-1-.314c-1.11-.36-2.25-.758-3.39-1.192s-2.22-.924-3.29-1.359l-.92-.407a60.865,60.865,0,0,1-7.27-3.937l-.82-.536a31.951,31.951,0,0,1-5.53-4.566c-.25-.259-.48-.508-.7-.767-2.15-2.514-3-4.917-2.15-6.83.56-1.229,1.76-5.435,3.48-6.045a12.872,12.872,0,0,1,6.47,0l1,.222c5,1.183,11.3,3.817,17.73,6.267,7.58,2.893,16.55,5.9,20.95,9.363a9.739,9.739,0,0,1,.75.647A8.6,8.6,0,0,1,216.28,146.064Z" transform="translate(-164.605 -62.578)" opacity="0.2"/>
      <g id="Grupo_2000" data-name="Grupo 2000" transform="translate(2.495 64.992)" opacity="0.2">
        <path id="Caminho_3651" data-name="Caminho 3651" d="M176.38,127.964l-.46.776-8.12,13.43c-.25-.259-.48-.508-.7-.767l7.8-12.885.61-1Z" transform="translate(-167.1 -127.52)"/>
      </g>
      <g id="Grupo_2001" data-name="Grupo 2001" transform="translate(8.725 70.491)" opacity="0.2">
        <path id="Caminho_3652" data-name="Caminho 3652" d="M182.52,133.9l-8.37,13.864-.82-.536,8.32-13.753Z" transform="translate(-173.33 -133.47)"/>
      </g>
      <g id="Grupo_2002" data-name="Grupo 2002" transform="translate(24.395 78.375)" opacity="0.2">
        <path id="Caminho_3653" data-name="Caminho 3653" d="M197.91,142.49l-7.91,13.1-1-.314L197,142Z" transform="translate(-189 -142)"/>
      </g>
      <g id="Grupo_2003" data-name="Grupo 2003" transform="translate(16.815 74.678)" opacity="0.2">
        <path id="Caminho_3654" data-name="Caminho 3654" d="M190.75,138.49l-8.41,13.929-.92-.407L189.88,138Z" transform="translate(-181.42 -138)"/>
      </g>
      <g id="Grupo_2004" data-name="Grupo 2004" transform="translate(33.865 80.936)" opacity="0.2">
        <path id="Caminho_3655" data-name="Caminho 3655" d="M207.24,145.232l-7.71,12.737a7.177,7.177,0,0,1-1.06-.157l7.89-13.042Z" transform="translate(-198.47 -144.77)"/>
      </g>
      <path id="Caminho_3656" data-name="Caminho 3656" d="M216.22,149.163c-2.21,4.963-15.06,4.769-28.7-.434s-22.9-13.43-20.68-18.393,15.06-4.76,28.7.434S218.43,144.172,216.22,149.163Z" transform="translate(-164.605 -62.469)" fill="#437cfd"/>
      <path id="Caminho_3657" data-name="Caminho 3657" d="M211.58,147.638c-1.56,3.5-11.58,3.013-22.37-1.1s-18.27-10.3-16.71-13.8,11.58-3.013,22.38,1.1S213.15,144.135,211.58,147.638Z" transform="translate(-164.605 -62.746)" fill="#fff" opacity="0.2"/>
      <path id="Caminho_3658" data-name="Caminho 3658" d="M283.41,106.705c3.56,4.242-3.22,14.511-14.89,22.858s-24,11.674-27.55,7.394c-.82-.98-4.14-4.261-3.94-5.8.67-5.056,9.66-10.583,18.62-17,8.34-5.971,16.13-13.716,21.58-12.672C280.54,102.167,282.4,105.5,283.41,106.705Z" transform="translate(-164.605 -60.551)" fill="#437cfd"/>
      <path id="Caminho_3659" data-name="Caminho 3659" d="M277.23,101.54c4.07,1.276,4.91,3.7,6.18,5.176s1.22,3.947,0,6.747c-.14.342-.31.684-.49,1.035a30.434,30.434,0,0,1-4,5.768c-.21.259-.44.508-.67.767a56.556,56.556,0,0,1-6.12,5.8l-.77.619c-.89.712-1.83,1.423-2.8,2.117s-1.94,1.349-2.92,1.969c-.27.185-.56.36-.83.536a59.988,59.988,0,0,1-7.32,3.863c-.31.148-.61.268-.9.4a34.917,34.917,0,0,1-7.05,2.163c-.36.074-.71.129-1.06.176-3.43.471-6.11,0-7.48-1.673-.88-1.054-4.23-4.113-3.94-5.786a10.726,10.726,0,0,1,3.21-5.2c.22-.231.46-.462.71-.7,3.61-3.457,9.2-7.163,14.7-11.091,6.49-4.621,13.77-10.343,19.2-12.136q.492-.167,1-.287a10.109,10.109,0,0,1,1.35-.259Z" transform="translate(-164.605 -60.561)" opacity="0.2"/>
      <g id="Grupo_2005" data-name="Grupo 2005" transform="translate(74.995 63.993)" opacity="0.2">
        <path id="Caminho_3660" data-name="Caminho 3660" d="M240.45,126.44l.5.758,8.56,13.19c-.36.074-.71.129-1.06.176l-8.21-12.681-.64-.924Z" transform="translate(-239.6 -126.44)"/>
      </g>
      <g id="Grupo_2006" data-name="Grupo 2006" transform="translate(83.175 61.794)" opacity="0.2">
        <path id="Caminho_3661" data-name="Caminho 3661" d="M248.64,124.06l8.82,13.587c-.31.148-.61.268-.9.4l-8.78-13.513Z" transform="translate(-247.78 -124.06)"/>
      </g>
      <g id="Grupo_2007" data-name="Grupo 2007" transform="translate(98.285 53.42)" opacity="0.2">
        <path id="Caminho_3662" data-name="Caminho 3662" d="M263.75,115l8.35,12.866-.77.619-8.44-13.014Z" transform="translate(-262.89 -115)"/>
      </g>
      <g id="Grupo_2008" data-name="Grupo 2008" transform="translate(91.255 57.311)" opacity="0.2">
        <path id="Caminho_3663" data-name="Caminho 3663" d="M256.73,119.21l8.88,13.67c-.27.185-.56.36-.83.536l-8.92-13.735Z" transform="translate(-255.86 -119.21)"/>
      </g>
      <g id="Grupo_2009" data-name="Grupo 2009" transform="translate(105.305 47.181)" opacity="0.2">
        <path id="Caminho_3664" data-name="Caminho 3664" d="M270.77,108.25l8.12,12.524c-.21.259-.44.508-.67.767l-8.31-12.811Z" transform="translate(-269.91 -108.25)"/>
      </g>
      <path id="Caminho_3712" data-name="Caminho 3712" d="M25.952.979c14.333.541,26.124,5.462,26.337,10.992S41.055,21.545,26.722,21,.6,15.543.385,10.013,11.619.438,25.952.979Z" transform="translate(66.9 65.141) rotate(-37.76)" fill="#437cfd"/>
      <path id="Caminho_3713" data-name="Caminho 3713" d="M20.54.775C31.884,1.2,41.2,4.719,41.352,8.628s-8.924,6.732-20.268,6.3S.423,10.988.272,7.078,9.2.347,20.54.775Z" transform="translate(73.629 63.918) rotate(-37.76)" fill="#fff" opacity="0.2"/>
      <path id="Caminho_3665" data-name="Caminho 3665" d="M235.14,84.061c-1.14,6.082-15.9,8.651-32.62,5.878s-29.33-9.918-28.16-16c.27-1.414.74-6.562,2.31-7.588,5.19-3.383,17.25-.555,30.09,1.553,12,1.969,25.13,2.126,28.38,7.237C237.11,78.284,235.47,82.323,235.14,84.061Z" transform="translate(-164.605 -57.778)" fill="#437cfd"/>
      <path id="Caminho_3666" data-name="Caminho 3666" d="M235.14,75.16c2,4.2.41,6.7,0,8.882s-2.7,4-6.22,5.2c-.43.157-.88.287-1.34.416a41.6,41.6,0,0,1-8.44,1.285,7.9,7.9,0,0,0-1.23.065,74.324,74.324,0,0,1-10.08-.342l-1.17-.139c-1.35-.157-2.74-.342-4.13-.573s-2.74-.49-4.07-.776c-.38-.074-.76-.166-1.14-.25a70.9,70.9,0,0,1-9.22-2.773c-.37-.129-.72-.277-1.07-.407a39.014,39.014,0,0,1-7.44-3.891c-.35-.231-.67-.462-1-.7-3.1-2.338-4.69-4.853-4.24-7.191.3-1.516.54-6.47,2.3-7.588s4.28-1.47,7.28-1.479h1.2c6,.185,13.73,1.728,21.62,3.022,9.3,1.534,20.19,2.875,26.05,5.777a11.218,11.218,0,0,1,1,.555,10.649,10.649,0,0,1,1.34.906Z" transform="translate(-164.605 -57.787)" opacity="0.2"/>
      <g id="Grupo_2010" data-name="Grupo 2010" transform="translate(13.975 5.865)" opacity="0.2">
        <path id="Caminho_3667" data-name="Caminho 3667" d="M185.46,63.855l-.32.971-5.56,16.951c-.35-.231-.67-.462-1-.7l5.34-16.258.42-1.266Z" transform="translate(-178.58 -63.55)"/>
      </g>
      <g id="Grupo_2011" data-name="Grupo 2011" transform="translate(22.415 10.579)" opacity="0.2">
        <path id="Caminho_3668" data-name="Caminho 3668" d="M193.82,68.974l-5.73,17.46c-.37-.129-.72-.277-1.07-.407l5.7-17.377Z" transform="translate(-187.02 -68.65)"/>
      </g>
      <g id="Grupo_2012" data-name="Grupo 2012" transform="translate(42.045 16.06)" opacity="0.2">
        <path id="Caminho_3669" data-name="Caminho 3669" d="M213.25,74.894,207.82,91.43l-1.17-.139,5.49-16.711Z" transform="translate(-206.65 -74.58)"/>
      </g>
      <g id="Grupo_2013" data-name="Grupo 2013" transform="translate(32.705 13.509)" opacity="0.2">
        <path id="Caminho_3670" data-name="Caminho 3670" d="M204.22,72.153l-5.77,17.562c-.38-.074-.76-.166-1.14-.25l5.8-17.645Z" transform="translate(-197.31 -71.82)"/>
      </g>
      <g id="Grupo_2014" data-name="Grupo 2014" transform="translate(53.295 16.79)" opacity="0.2">
        <path id="Caminho_3671" data-name="Caminho 3671" d="M224.42,75.675l-5.29,16.092a7.9,7.9,0,0,0-1.23.065l5.41-16.462Z" transform="translate(-217.9 -75.37)"/>
      </g>
      <path id="Caminho_3714" data-name="Caminho 3714" d="M11.212.158C17.4.245,22.6,14.056,22.826,31s-4.618,30.618-10.81,30.531S.624,47.637.4,30.689,5.02.071,11.212.158Z" transform="translate(8.625 22.022) rotate(-79.91)" fill="#437cfd"/>
      <path id="Caminho_3715" data-name="Caminho 3715" d="M7.923.112c4.376.062,8.065,10.984,8.24,24.4s-3.229,24.233-7.6,24.172S.493,37.695.318,24.283,3.547.05,7.923.112Z" transform="translate(16.196 19.941) rotate(-79.91)" fill="#fff" opacity="0.2"/>
    </g>
    <g id="freepik--Wallet--inject-66" transform="translate(61.87 147.952)">
      <path id="Caminho_3672" data-name="Caminho 3672" d="M322.44,253.63l-102.91,5.546A32.37,32.37,0,0,0,209,261.542L97.22,307.756a8.513,8.513,0,0,0-5.4,9.668l18.47,80.737a8.9,8.9,0,0,0,5.188,6,10.148,10.148,0,0,0,8.312-.107l110.33-50.91L336,350a9.118,9.118,0,0,0,6.546-2.931,7.73,7.73,0,0,0,1.944-6.478l-13.63-77.308C330.15,259.287,326.87,253.51,322.44,253.63Z" transform="translate(-61.87 -162.99)" fill="#437cfd"/>
      <path id="Caminho_3673" data-name="Caminho 3673" d="M322.44,253.63l-102.91,5.546A32.37,32.37,0,0,0,209,261.542L97.22,307.756a8.513,8.513,0,0,0-5.4,9.668l18.47,80.737a8.9,8.9,0,0,0,5.188,6,10.148,10.148,0,0,0,8.312-.107l110.33-50.91L336,350a9.118,9.118,0,0,0,6.546-2.931,7.73,7.73,0,0,0,1.944-6.478l-13.63-77.308C330.15,259.287,326.87,253.51,322.44,253.63Z" transform="translate(-61.87 -162.99)" opacity="0.1"/>
      <path id="Caminho_3716" data-name="Caminho 3716" d="M0,0,70.9,2.771,76.29,139.909l-70.9-2.771Z" transform="matrix(0.735, -0.678, 0.678, 0.735, 0.002, 84.085)" fill="#437cfd"/>
      <path id="Caminho_3674" data-name="Caminho 3674" d="M212.78,293.94l-54.01,46.011L61.87,242.78l35.44-30.2,18.57-15.824,3.09,3.106Z" transform="translate(-61.87 -158.684)" fill="#fafafa" opacity="0.5"/>
      <path id="Caminho_3717" data-name="Caminho 3717" d="M0,0,62.556,2.445,67.6,130.721,5.046,128.276Z" transform="matrix(0.735, -0.678, 0.678, 0.735, 6.702, 84.613)" fill="none" stroke="#437cfd" stroke-width="1"/>
      <path id="Caminho_3718" data-name="Caminho 3718" d="M12.992.508c7.175.28,13.277,7.756,13.629,16.7s-5.18,15.962-12.355,15.681S.989,25.13.637,16.189,5.817.227,12.992.508Z" transform="matrix(0.735, -0.678, 0.678, 0.735, 53.798, 106.011)" fill="#437cfd"/>
      <path id="Caminho_3675" data-name="Caminho 3675" d="M158.2,300.512l-19.19,6.128-41.7-94.056,18.57-15.824,3.09,3.106Z" transform="translate(-61.87 -158.684)" opacity="0.1"/>
      <path id="Caminho_3719" data-name="Caminho 3719" d="M0,0,72.8,1.782,76.273,135.2l-72.8-1.782Z" transform="translate(31.018 23.141) rotate(-19.93)" fill="#437cfd"/>
      <path id="Caminho_3720" data-name="Caminho 3720" d="M0,0,72.8,1.782,76.273,135.2l-72.8-1.782Z" transform="translate(31.018 23.141) rotate(-19.93)" fill="#fafafa" opacity="0.5"/>
      <path id="Caminho_3721" data-name="Caminho 3721" d="M0,0,64.24,1.572l3.245,124.8L3.245,124.8Z" transform="translate(36.97 26.022) rotate(-19.93)" fill="none" stroke="#437cfd" stroke-width="1"/>
      <path id="Caminho_3722" data-name="Caminho 3722" d="M13.342.327C20.71.507,26.867,7.7,27.093,16.4s-5.564,15.6-12.932,15.424S.636,24.449.41,15.751,5.973.146,13.342.327Z" transform="translate(71.469 62.576) rotate(-19.93)" fill="#437cfd"/>
      <path id="Caminho_3676" data-name="Caminho 3676" d="M323.11,257.18l-101.5,5.287a31.016,31.016,0,0,0-10.41,2.357L101.06,310.779a8.493,8.493,0,0,0-5.3,9.65L114.23,401.2a8.793,8.793,0,0,0,5.1,5.991,10.04,10.04,0,0,0,8.244-.066L236.27,356.5l100.48-2.939a9.028,9.028,0,0,0,6.477-2.942,7.654,7.654,0,0,0,1.883-6.44l-13.67-77.3C330.73,262.855,327.49,257.069,323.11,257.18Z" transform="translate(-61.87 -163.259)" fill="#437cfd"/>
      <line id="Linha_974" data-name="Linha 974" y1="4.954" x2="87.09" transform="translate(163.87 108.396)" fill="none" stroke="#000" stroke-linecap="round" stroke-linejoin="round" stroke-width="2" opacity="0.2"/>
      <line id="Linha_975" data-name="Linha 975" x2="15.91" y2="67.547" transform="translate(153.44 115.43)" fill="none" stroke="#000" stroke-linecap="round" stroke-linejoin="round" stroke-width="2" opacity="0.2"/>
      <path id="Caminho_3677" data-name="Caminho 3677" d="M109.23,346.43l11.22,51.954S129.05,377.773,109.23,346.43Z" transform="translate(-61.87 -170.016)" fill="#fafafa" opacity="0.2"/>
      <path id="Caminho_3678" data-name="Caminho 3678" d="M110.7,343.94c.39.924,99.66-38.45,99.66-38.45.548,18.2-10.031,35.145-27.36,43.811C153.12,364.783,110.7,343.94,110.7,343.94Z" transform="translate(-61.87 -166.916)" fill="#fafafa" opacity="0.2"/>
      <ellipse id="Elipse_376" data-name="Elipse 376" cx="4.3" cy="3.974" rx="4.3" ry="3.974" transform="translate(110.47 170.61)" fill="#437cfd"/>
      <path id="Caminho_3679" data-name="Caminho 3679" d="M210.41,305.49s12.31,17.127,9.33,46.3" transform="translate(-61.87 -166.916)" opacity="0.2"/>
      <g id="Grupo_2015" data-name="Grupo 2015" transform="translate(42.61 113.35)" opacity="0.2">
        <line id="Linha_976" data-name="Linha 976" y1="0.934" x2="2.29" transform="translate(0 41.722)" fill="none" stroke="#fafafa" stroke-linecap="round" stroke-linejoin="round" stroke-width="1"/>
        <line id="Linha_977" data-name="Linha 977" y1="37.877" x2="92.7" transform="translate(7.04 1.904)" fill="none" stroke="#fafafa" stroke-linecap="round" stroke-linejoin="round" stroke-width="1" stroke-dasharray="5.198 5.198"/>
        <line id="Linha_978" data-name="Linha 978" y1="0.934" x2="2.28" transform="translate(102.12)" fill="none" stroke="#fafafa" stroke-linecap="round" stroke-linejoin="round" stroke-width="1"/>
      </g>
      <line id="Linha_979" data-name="Linha 979" y1="4.963" x2="87.09" transform="translate(166.79 123.573)" fill="none" stroke="#000" stroke-linecap="round" stroke-linejoin="round" stroke-width="2" opacity="0.2"/>
      <line id="Linha_980" data-name="Linha 980" y1="4.963" x2="87.09" transform="translate(170.71 142.511)" fill="none" stroke="#000" stroke-linecap="round" stroke-linejoin="round" stroke-width="2" opacity="0.2"/>
    </g>
    <g id="freepik--Character--inject-66" transform="translate(263.23 105.182)">
      <path id="Caminho_3680" data-name="Caminho 3680" d="M300.58,169.56s-2.19,21.564-10.86,23.422a28.144,28.144,0,0,1-16-1.479l-7.05-5.01-3.44,11.091s3.76,4.723,11.61,1.451c0,0,14,5.694,21.74,0s10.22-21.314,10.22-21.314Z" transform="translate(-263.23 -113.855)" fill="#b97964"/>
      <path id="Caminho_3681" data-name="Caminho 3681" d="M307.55,154.553s-6.05-9.529-3.3-26.8,18.42-19.41,24.47-18.162,11,6.618,15.12,16.841,5.64,12.885,12.51,11.091,25.15-7.394,30.24-2.412a11.117,11.117,0,0,1,3.43,10.537s25.43-5.712,23.23,15.251-38.9,40.53-73.81,19.817S307.55,154.553,307.55,154.553Z" transform="translate(-263.23 -109.292)" fill="#263238"/>
      <path id="Caminho_3682" data-name="Caminho 3682" d="M307.27,213.149s-6.91,54.931-6.68,80.691,10.13,86.467,10.13,86.467h12.21s-1.61-48.544-1.38-65.153S325,271.065,325,271.065s3.91,24.7,8.52,33.422,30.18,39.606,47.92,49.191l8.29-7.034s-18.43-21.074-25.34-31.509-13.12-13.393-15.66-32.8,1.85-50.457-5.52-69.192Z" transform="translate(-263.23 -117.155)" fill="#263238"/>
      <path id="Caminho_3683" data-name="Caminho 3683" d="M325,272.958l-5.31-34.818s-4.19,20.926,4.06,46.483Z" transform="translate(-263.23 -119.047)" opacity="0.2"/>
      <path id="Caminho_3684" data-name="Caminho 3684" d="M313.23,397.268l.41,10.786,8.19.629.41-1.007V396.51Z" transform="translate(-263.23 -131.038)" fill="#b97964"/>
      <path id="Caminho_3685" data-name="Caminho 3685" d="M309.34,392.849l.75,4.039,14.06.314.89-4.853Z" transform="translate(-263.23 -130.723)" fill="#437cfd"/>
      <path id="Caminho_3686" data-name="Caminho 3686" d="M377.59,365.081l13.03-11.221,2.87,4.224-11.19,9.465Z" transform="translate(-263.23 -127.809)" fill="#437cfd"/>
      <path id="Caminho_3687" data-name="Caminho 3687" d="M383.87,365.5l8.6,6.692,5.52-6-7.06-6.747Z" transform="translate(-263.23 -128.232)" fill="#b97964"/>
      <path id="Caminho_3688" data-name="Caminho 3688" d="M399.66,366.227l5.2,2.958a1.764,1.764,0,0,1,.887,1.243,1.676,1.676,0,0,1-.457,1.428c-3.77,3.937-13.4,13.938-14.36,14.641-1.19.924-2.63-.629-3-2.015,0,0,2.73-3.346,3-5.49a36.3,36.3,0,0,0,0-4.973,1.56,1.56,0,0,1,.42-1.137l5.81-6.3a2.031,2.031,0,0,1,2.5-.351Z" transform="translate(-263.23 -128.724)" fill="#263238"/>
      <path id="Caminho_3689" data-name="Caminho 3689" d="M323.83,409.88l1.08,5.546a1.67,1.67,0,0,1-.411,1.443,1.975,1.975,0,0,1-1.459.637c-5.69,0-20.17.055-21.38-.129-1.51-.231-1.24-2.228-.35-3.392,0,0,4.51-.351,6.4-1.618a42.287,42.287,0,0,0,4-3.29,1.865,1.865,0,0,1,1.2-.471l8.95-.194A1.9,1.9,0,0,1,323.83,409.88Z" transform="translate(-263.23 -131.938)" fill="#263238"/>
      <path id="Caminho_3690" data-name="Caminho 3690" d="M344.52,178.281l12.48-8.1s-3.32-12.275-8.24-12.885-29.34-4.908-44.87,0c0,0-5.58,1.47-7.3,15.953l6.64,1.959s2.38,27.119,3.85,31.3h35.44S342.92,183.189,344.52,178.281Z" transform="translate(-263.23 -112.751)" fill="#437cfd"/>
      <path id="Caminho_3691" data-name="Caminho 3691" d="M347.21,177.882s4.73,12.478,5.57,19.188c0,0-11.24-4.141-14.14-6.036l-2.2-7.3L329,180.378l-2.21,5.546L333,193.04s16.93,14.641,25.51,11.295-3.39-31.555-3.39-31.555Z" transform="translate(-263.23 -114.099)" fill="#b97964"/>
      <path id="Caminho_3692" data-name="Caminho 3692" d="M315.46,118.91s-4.33,7.986-4,14.484,3.88,9.15,10.63,10.066c0,0,2.88,8.319-4.68,9.16-.58.065-.78,2.181-.74,2.523.2,1.349,1.65,2.089,3,2.4a21.9,21.9,0,0,0,4.33.444,10.469,10.469,0,0,0,8.07-3.318c.16-.176,1.68-1.969,1.68-1.969s-3.61-1.654-2.34-12.487a9.171,9.171,0,0,0,3.78-4.326,5.552,5.552,0,0,0,2.88-3.254c.54-2.163-1.53-5.158-5.31-2.163,0,0-7.12-3.327-9.82-14.983a13.046,13.046,0,0,1-7.48,3.42Z" transform="translate(-263.23 -109.762)" fill="#b97964"/>
      <path id="Caminho_3693" data-name="Caminho 3693" d="M317.49,132.59l.61-4.27-3.27,3.346a3.37,3.37,0,0,0,2.66.924Z" transform="translate(-263.23 -110.733)" fill="#a24e3f"/>
      <path id="Caminho_3694" data-name="Caminho 3694" d="M319.39,136.193s3.45.49,5.11-1.553" transform="translate(-263.23 -111.211)" fill="none" stroke="#222221" stroke-linecap="round" stroke-linejoin="round" stroke-width="0.75"/>
      <path id="Caminho_3695" data-name="Caminho 3695" d="M322.84,121.837a4.776,4.776,0,0,1,4.47,1.1" transform="translate(-263.23 -110.23)" fill="none" stroke="#222221" stroke-linecap="round" stroke-linejoin="round" stroke-width="1"/>
      <path id="Caminho_3696" data-name="Caminho 3696" d="M316.87,120.847s-2-.287-2.89.758" transform="translate(-263.23 -110.164)" fill="none" stroke="#222221" stroke-linecap="round" stroke-linejoin="round" stroke-width="1"/>
      <path id="Caminho_3697" data-name="Caminho 3697" d="M324.23,127.826c-.09.647-.54,1.118-1,1.063s-.77-.619-.68-1.266.54-1.118,1-1.063S324.32,127.179,324.23,127.826Z" transform="translate(-263.23 -110.599)" fill="#222221"/>
      <path id="Caminho_3723" data-name="Caminho 3723" d="M1.175.012C1.825.019,2.355.4,2.359.873s-.518.843-1.167.837S.013,1.318.008.849.526.005,1.175.012Z" transform="matrix(0.129, -0.992, 0.992, 0.129, 51.169, 16.759)" fill="#222221"/>
      <path id="Caminho_3698" data-name="Caminho 3698" d="M323.56,126.508l-1.58-.638a.936.936,0,0,0,.593.737,1.069,1.069,0,0,0,.987-.1Z" transform="translate(-263.23 -110.547)" fill="#222221"/>
      <path id="Caminho_3699" data-name="Caminho 3699" d="M315.72,125.028l-1.58-.638a.935.935,0,0,0,.593.737A1.069,1.069,0,0,0,315.72,125.028Z" transform="translate(-263.23 -110.435)" fill="#222221"/>
      <path id="Caminho_3700" data-name="Caminho 3700" d="M305.84,209.134v3.854l38.4.3-1.03-4.584Z" transform="translate(-263.23 -116.818)" fill="#437cfd"/>
      <path id="Caminho_3701" data-name="Caminho 3701" d="M305.84,209.134v3.854l38.4.3-1.03-4.584Z" transform="translate(-263.23 -116.818)" fill="#fff" opacity="0.4"/>
    </g>
    <g id="freepik--Card--inject-66" transform="translate(219.724 152.949)">
      <path id="Caminho_3702" data-name="Caminho 3702" d="M306.31,186.813l-21.12,67.9a12.578,12.578,0,0,1-11,8.522,14.088,14.088,0,0,1-4.82-.407L229,252.1c-6.795-1.812-10.722-8.365-8.78-14.65l21.13-67.917c1.965-6.272,9.048-9.893,15.84-8.1l40.4,10.722C304.369,173.986,308.269,180.541,306.31,186.813Z" transform="translate(-219.724 -160.972)" fill="#437cfd"/>
      <path id="Caminho_3703" data-name="Caminho 3703" d="M306.31,186.813l-21.12,67.9a12.578,12.578,0,0,1-11,8.522,14.088,14.088,0,0,1-4.82-.407L229,252.1c-6.795-1.812-10.722-8.365-8.78-14.65l21.13-67.917c1.965-6.272,9.048-9.893,15.84-8.1l40.4,10.722C304.369,173.986,308.269,180.541,306.31,186.813Z" transform="translate(-219.724 -160.972)" opacity="0.2"/>
      <path id="Caminho_3704" data-name="Caminho 3704" d="M302.8,187.684l-21.12,67.908a12.186,12.186,0,0,1-7.51,7.709,14.086,14.086,0,0,1-4.82-.407L229,252.162c-6.795-1.812-10.722-8.365-8.78-14.65L241.35,169.6a12.16,12.16,0,0,1,7.51-7.69,13.643,13.643,0,0,1,4.82.407L294,173.08C300.781,174.88,304.714,181.407,302.8,187.684Z" transform="translate(-219.724 -161.038)" fill="#437cfd"/>
      <path id="Caminho_3705" data-name="Caminho 3705" d="M302.8,187.684l-21.12,67.908a12.186,12.186,0,0,1-7.51,7.709,14.086,14.086,0,0,1-4.82-.407L229,252.162c-6.795-1.812-10.722-8.365-8.78-14.65L241.35,169.6a12.16,12.16,0,0,1,7.51-7.69,13.643,13.643,0,0,1,4.82.407L294,173.08C300.781,174.88,304.714,181.407,302.8,187.684Z" transform="translate(-219.724 -161.038)" fill="#fafafa" opacity="0.5"/>
      <path id="Caminho_3724" data-name="Caminho 3724" d="M0,0,4.465-.089,3.331,53.229l-4.465.089Z" transform="translate(21.976 31.293) rotate(15.74)" fill="#fafafa"/>
      <path id="Caminho_3706" data-name="Caminho 3706" d="M236.67,248.718l-4.32-1.155L247.9,196.57l4.31,1.146Z" transform="translate(-219.724 -163.667)" fill="#fafafa"/>
      <path id="Caminho_3707" data-name="Caminho 3707" d="M242.95,250.519l-4.32-1.146,15.55-50.993,4.32,1.146Z" transform="translate(-219.724 -163.804)" fill="#fafafa"/>
      <path id="Caminho_3725" data-name="Caminho 3725" d="M0,0,4.465-.089,3.331,53.229l-4.465.089Z" transform="translate(59.602 41.277) rotate(15.74)" opacity="0.5"/>
      <path id="Caminho_3708" data-name="Caminho 3708" d="M283.1,190.93l-2.1,6.923-2.56-.665a4.467,4.467,0,0,1-3.36-5.546l1.4-4.621,5.17,1.368a2.01,2.01,0,0,1,1.45,2.542Z" transform="translate(-219.724 -162.944)" fill="#fafafa"/>
      <path id="Caminho_3709" data-name="Caminho 3709" d="M281.87,186.785l-5.17-1.368,1.55-5.065a4.57,4.57,0,0,1,2.3-2.7,5.214,5.214,0,0,1,3.7-.4l2.66.693-2.32,7.459a2.041,2.041,0,0,1-1.044,1.223,2.329,2.329,0,0,1-1.676.163Z" transform="translate(-219.724 -162.192)" fill="#fafafa"/>
      <path id="Caminho_3710" data-name="Caminho 3710" d="M286.77,189.993l5.2,1.377-1.38,4.52a4.549,4.549,0,0,1-2.3,2.709,5.193,5.193,0,0,1-3.7.4l-2.7-.7,2.15-6.914a2.062,2.062,0,0,1,1.052-1.22A2.35,2.35,0,0,1,286.77,189.993Z" transform="translate(-219.724 -163.163)" fill="#fafafa"/>
      <path id="Caminho_3711" data-name="Caminho 3711" d="M293.81,184.492l-1.57,5.139-5.2-1.377a2.016,2.016,0,0,1-1.5-2.5l2.32-7.459,2.59.675a4.45,4.45,0,0,1,3.36,5.527Z" transform="translate(-219.724 -162.283)" fill="#fafafa"/>
    </g>
  </g>
</svg>
