<?xml version="1.0" encoding="utf-8"?>
<!-- Generator: Adobe Illustrator 22.1.0, SVG Export Plug-In . SVG Version: 6.00 Build 0)  -->
<svg version="1.1" id="Camada_1" xmlns="http://www.w3.org/2000/svg" xmlns:xlink="http://www.w3.org/1999/xlink" x="0px" y="0px"
	 viewBox="0 0 33 25" style="enable-background:new 0 0 33 25;" xml:space="preserve">
<style type="text/css">
	.st0{fill:#FFFFFF;}
</style>
<path class="st0" d="M29.5,6.3c-0.1,0-0.1,0-0.2,0c-1.7,0-3.1,1.4-3.1,3.1c0,0.1,0,0.2,0,0.3l-3.2,2.9L19,5c0.8-1.2,0.7-2.9-0.3-4
	c-0.6-0.6-1.4-0.9-2.2-0.9h0c-0.8,0-1.6,0.3-2.2,0.9c-0.6,0.6-0.9,1.4-0.9,2.2c0,0.7,0.2,1.3,0.6,1.8l-4,7.6L6.7,9.7
	c0-0.1,0-0.2,0-0.3c0-1.7-1.4-3.1-3.1-3.1S0.5,7.7,0.5,9.4c0,1.7,1.3,3,3,3.1l1.3,4.9v6.3c0,0.7,0.5,1.2,1.2,1.2h21
	c0.7,0,1.2-0.5,1.2-1.2v-6.3l1.3-4.9c1.6-0.1,3-1.4,3-3.1C32.5,7.8,31.2,6.4,29.5,6.3z M21.1,17.3l-3.9,5.1
	c-0.1,0.1-0.1,0.1-0.2,0.2c-0.4,0.3-1,0.2-1.4-0.2l-3.9-5.1c-0.3-0.4-0.3-0.8,0-1.2l3.9-5.1c0.2-0.2,0.5-0.4,0.8-0.4
	c0.3,0,0.6,0.1,0.8,0.4l3.9,5.1C21.4,16.4,21.4,16.9,21.1,17.3z"/>
</svg>
