<svg xmlns="http://www.w3.org/2000/svg" width="50" height="50" viewBox="0 0 50 50"><defs><style>.a{fill:none;}.b{fill:#009cde;}.c,.d{stroke:none;}.d{fill:#009cde;}</style></defs><g transform="translate(-1849.026 -27.006)"><g class="a" transform="translate(1849.026 27.006)"><path class="c" d="M25,0A25,25,0,1,1,0,25,25,25,0,0,1,25,0Z"/><path class="d" d="M 25 3 C 22.02869987487793 3 19.14785957336426 3.581260681152344 16.43753051757812 4.727638244628906 C 13.81813812255859 5.835540771484375 11.46506118774414 7.4222412109375 9.443649291992188 9.443649291992188 C 7.4222412109375 11.46506118774414 5.835540771484375 13.81813812255859 4.727638244628906 16.43753051757812 C 3.581260681152344 19.14785957336426 3 22.02869987487793 3 25 C 3 27.97130012512207 3.581260681152344 30.85214042663574 4.727638244628906 33.56246948242188 C 5.835540771484375 36.18186187744141 7.4222412109375 38.53493881225586 9.443649291992188 40.55635070800781 C 11.46506118774414 42.5777587890625 13.81813812255859 44.16445922851562 16.43753051757812 45.27236175537109 C 19.14785957336426 46.41873931884766 22.02869987487793 47 25 47 C 27.97130012512207 47 30.85214042663574 46.41873931884766 33.56246948242188 45.27236175537109 C 36.18186187744141 44.16445922851562 38.53493881225586 42.5777587890625 40.55635070800781 40.55635070800781 C 42.5777587890625 38.53493881225586 44.16445922851562 36.18186187744141 45.27236175537109 33.56246948242188 C 46.41873931884766 30.85214042663574 47 27.97130012512207 47 25 C 47 22.02869987487793 46.41873931884766 19.14785957336426 45.27236175537109 16.43753051757812 C 44.16445922851562 13.81813812255859 42.5777587890625 11.46506118774414 40.55635070800781 9.443649291992188 C 38.53493881225586 7.4222412109375 36.18186187744141 5.835540771484375 33.56246948242188 4.727638244628906 C 30.85214042663574 3.581260681152344 27.97130012512207 3 25 3 M 25 0 C 38.80712127685547 0 50 11.19287872314453 50 25 C 50 38.80712127685547 38.80712127685547 50 25 50 C 11.19287872314453 50 0 38.80712127685547 0 25 C 0 11.19287872314453 11.19287872314453 0 25 0 Z"/></g><path class="b" d="M42.414,26.2A4.941,4.941,0,0,1,47.6,31.449c0,3.383-2.333,6.182-5.191,6.182s-5.191-2.741-5.191-6.182A4.91,4.91,0,0,1,42.414,26.2ZM52.97,50.17s-10.031,8.456-21.17,0V45.1a4.493,4.493,0,0,1,4.491-4.491H48.421A4.493,4.493,0,0,1,52.912,45.1l.058,5.074Z" transform="translate(1831.791 12.714)"/></g></svg>