<svg xmlns="http://www.w3.org/2000/svg" width="603.393" height="449.6" viewBox="0 0 603.393 449.6">
  <g id="Taking_notes-rafiki" data-name="Taking notes-rafiki" transform="translate(0 -55)">
    <g id="freepik--background-complete--inject-2" transform="translate(0 55)">
      <rect id="Retângulo_4598" data-name="Retângulo 4598" width="603.393" height="0.302" transform="translate(0 395.101)" fill="#ebebeb"/>
      <rect id="Retângulo_4599" data-name="Retângulo 4599" width="24.22" height="0.302" transform="translate(518.712 414.519)" fill="#ebebeb"/>
      <rect id="Retângulo_4600" data-name="Retângulo 4600" width="38.641" height="0.302" transform="translate(431.402 410.295)" fill="#ebebeb"/>
      <rect id="Retângulo_4601" data-name="Retângulo 4601" width="44.627" height="0.302" transform="translate(330.888 403.32)" fill="#ebebeb"/>
      <rect id="Retângulo_4602" data-name="Retângulo 4602" width="52.121" height="0.302" transform="translate(91.064 412.202)" fill="#ebebeb"/>
      <rect id="Retângulo_4603" data-name="Retângulo 4603" width="7.639" height="0.302" transform="translate(72.673 412.202)" fill="#ebebeb"/>
      <rect id="Retângulo_4604" data-name="Retângulo 4604" width="45.23" height="0.302" transform="translate(158.994 403.163)" fill="#ebebeb"/>
      <path id="Caminho_5036" data-name="Caminho 5036" d="M278.107,396.279H45.089a6.891,6.891,0,0,1-6.879-6.891V61.83A6.891,6.891,0,0,1,45.089,55H278.107A6.891,6.891,0,0,1,285,61.891v327.5A6.891,6.891,0,0,1,278.107,396.279ZM45.089,55.241a6.589,6.589,0,0,0-6.577,6.589V389.388a6.589,6.589,0,0,0,6.577,6.589H278.107a6.6,6.6,0,0,0,6.589-6.589V61.83a6.6,6.6,0,0,0-6.589-6.589Z" transform="translate(7.901 -55)" fill="#ebebeb"/>
      <path id="Caminho_5037" data-name="Caminho 5037" d="M494.421,396.279H261.391a6.9,6.9,0,0,1-6.891-6.891V61.83A6.9,6.9,0,0,1,261.391,55h233.03a6.891,6.891,0,0,1,6.867,6.83V389.388A6.891,6.891,0,0,1,494.421,396.279ZM261.391,55.241A6.6,6.6,0,0,0,254.8,61.83V389.388a6.6,6.6,0,0,0,6.589,6.589h233.03a6.6,6.6,0,0,0,6.589-6.589V61.83a6.6,6.6,0,0,0-6.589-6.589Z" transform="translate(52.627 -55)" fill="#ebebeb"/>
      <path id="Caminho_5038" data-name="Caminho 5038" d="M141.3,332.016c-11.839-38.231-39.824-146.431-11.609-240.464a1.125,1.125,0,0,0-2.1-.809,100.534,100.534,0,0,0-5.008,13.118,1.122,1.122,0,0,1-2.184-.205,236.962,236.962,0,0,1-1.207-32.849,1.134,1.134,0,0,0-2.233-.3A116.394,116.394,0,0,0,113.63,100.4a1.122,1.122,0,1,1-2.233.229c-.772-4.188-1.472-8.677-2.063-13.432a1.134,1.134,0,0,0-2.245,0,119.472,119.472,0,0,0,8.049,53.835v.169a280.711,280.711,0,0,1-17.7-52.483,1.122,1.122,0,0,0-2.221.229,140.241,140.241,0,0,0,1.895,26.815,1.122,1.122,0,0,1-2.184.507c-.519-1.665-1.026-3.343-1.508-5.069a1.134,1.134,0,0,0-2.22.314A153.334,153.334,0,0,0,95.215,146.1a1.122,1.122,0,0,1-2.136.676c-4.3-10.825-8.616-22.881-12.382-35.673a1.134,1.134,0,0,0-2.22.326c.676,44.325,25.017,86.563,33.561,99.97h0a502.432,502.432,0,0,1-42.612-79.141,1.134,1.134,0,0,0-2.16.579A176.481,176.481,0,0,0,78.549,175.4a1.122,1.122,0,0,1-2.027.953c-2.9-5.358-5.732-10.861-8.448-16.617a1.134,1.134,0,0,0-2.136.652c3.174,20.829,11.344,42.093,20.274,60.448a1.134,1.134,0,0,1-1.991,1.062,262.017,262.017,0,0,1-12.345-23.774,1.122,1.122,0,0,0-2.148.567,115.851,115.851,0,0,0,11.851,41.031,1.122,1.122,0,0,1-1.943,1.122c-3.91-5.829-7.772-11.983-11.477-18.416a1.134,1.134,0,0,0-2.088.772c3.27,18.005,11.356,34.538,20.648,48.561a1.122,1.122,0,0,1-1.786,1.352,297.293,297.293,0,0,1-19.2-24.679,1.122,1.122,0,0,0-2.015.929C76.1,296.706,128.112,334.6,129.1,335.323h0L133.24,338a5.322,5.322,0,0,0,8.061-5.986Z" transform="translate(13.167 -51.97)" fill="#f5f5f5"/>
      <path id="Caminho_5039" data-name="Caminho 5039" d="M151.278,304.962c-2.184-32.764-3.97-124.432,36.4-194.136a.92.92,0,1,0-1.521-1.038,81.1,81.1,0,0,0-6.444,9.5.929.929,0,0,1-1.714-.579,195.5,195.5,0,0,1,5.262-26.453.929.929,0,0,0-1.714-.664,95.432,95.432,0,0,0-8.339,23.219.918.918,0,0,1-1.822-.229c.181-3.488.471-7.241.905-11.114a.929.929,0,0,0-1.81-.4,98.051,98.051,0,0,0-3.789,44.506.505.505,0,0,0,0,.121,229.715,229.715,0,0,1-4.139-45.242.929.929,0,0,0-1.822-.241,115.949,115.949,0,0,0-3.62,21.722.929.929,0,0,1-1.846,0c-.1-1.424-.181-2.872-.241-4.332a.929.929,0,0,0-1.822-.169,125.24,125.24,0,0,0-3.355,28.347A.929.929,0,0,1,148,147.9c-1.376-9.425-2.522-19.876-3.1-30.821a.929.929,0,0,0-1.822-.169c-7.9,35.612,3.524,73.867,7.784,86.3h0a412.146,412.146,0,0,1-18.983-71.2.929.929,0,0,0-1.834,0,144.815,144.815,0,0,0,.917,36.083.918.918,0,0,1-1.8.374c-1.291-4.827-2.5-9.8-3.62-14.868a.929.929,0,0,0-1.834.121c-1.424,17.221,1.062,35.745,4.694,52.085a.929.929,0,0,1-1.786.471,217.22,217.22,0,0,1-5.334-21.312.929.929,0,0,0-1.822,0,94.756,94.756,0,0,0,1.665,35,.929.929,0,0,1-1.774.531c-2-5.394-3.922-11.042-5.66-16.9a.929.929,0,0,0-1.81.217c-.809,15,2.5,29.723,7.241,42.684a.929.929,0,0,1-1.689.748A241.977,241.977,0,0,1,106.8,223.89a.929.929,0,0,0-1.786.362c.881,40.138,35.2,80.263,35.854,81.024h0l2.8,2.92a4.369,4.369,0,0,0,7.615-3.234Z" transform="translate(21.715 -47.531)" fill="#e6e6e6"/>
      <path id="Caminho_5040" data-name="Caminho 5040" d="M111.529,326.948c2.245-27.756,4.827-105.594-28.6-165.245a.784.784,0,0,1,1.3-.869,69.08,69.08,0,0,1,5.358,8.146.784.784,0,0,0,1.46-.471,164.905,164.905,0,0,0-4.163-22.519.785.785,0,0,1,1.472-.543,81.277,81.277,0,0,1,6.806,19.815.784.784,0,0,0,1.557-.181c-.121-2.957-.326-6.13-.64-9.449a.784.784,0,0,1,1.533-.314,83.425,83.425,0,0,1,2.7,37.821v.109a195.958,195.958,0,0,0,4.043-38.352.811.811,0,1,1,1.605-.229,97.363,97.363,0,0,1,2.776,18.524.784.784,0,0,0,1.569,0q.163-1.81.253-3.62a.784.784,0,0,1,1.557-.133,106.921,106.921,0,0,1,2.522,24.136.784.784,0,0,0,1.557.133c1.279-7.989,2.414-16.895,2.993-26.139a.784.784,0,0,1,1.557-.121c6.287,30.29-3.862,62.644-7.639,73.095h0a349.863,349.863,0,0,0,16.895-60.279.784.784,0,0,1,1.557.072,122.862,122.862,0,0,1-1.207,30.616.784.784,0,0,0,1.521.338c1.207-4.079,2.245-8.279,3.21-12.575a.784.784,0,0,1,1.557.121c1,14.638-1.327,30.339-4.61,44.168a.789.789,0,0,0,1.521.422A185.583,185.583,0,0,0,138.38,225.4a.784.784,0,0,1,1.545,0,80.456,80.456,0,0,1-1.822,29.711.784.784,0,1,0,1.5.471c1.762-4.55,3.463-9.328,5.008-14.264a.784.784,0,0,1,1.533.217c.507,12.732-2.414,25.2-6.674,36.143a.784.784,0,0,0,1.424.652,205.078,205.078,0,0,0,9.3-19.695.784.784,0,0,1,1.508.326c-1.207,34.068-30.833,67.725-31.376,68.364h0l-2.414,2.414a3.717,3.717,0,0,1-6.384-2.788Z" transform="translate(17.126 -36.403)" fill="#e0e0e0"/>
      <path id="Caminho_5041" data-name="Caminho 5041" d="M78.171,249.48a13.359,13.359,0,0,0-13.359,13.962c1.774,39.027,10.608,146.443,54.112,146.443s52.338-107.4,54.112-146.443a13.371,13.371,0,0,0-13.359-13.963Z" transform="translate(13.399 -14.784)" fill="#ebebeb"/>
      <rect id="Retângulo_4605" data-name="Retângulo 4605" width="229.494" height="6.746" transform="translate(234.442 262.09)" fill="#f5f5f5"/>
      <rect id="Retângulo_4606" data-name="Retângulo 4606" width="48.066" height="6.746" transform="translate(512.003 268.848) rotate(180)" fill="#e0e0e0"/>
      <path id="Caminho_5042" data-name="Caminho 5042" d="M408.678,277.77h-2L383.42,404.036h2.015Z" transform="translate(79.286 -8.934)" fill="#e0e0e0"/>
      <path id="Caminho_5043" data-name="Caminho 5043" d="M404.35,277.77h2.015L429.62,404.036H427.6Z" transform="translate(83.614 -8.934)" fill="#e0e0e0"/>
      <path id="Caminho_5044" data-name="Caminho 5044" d="M218.52,277.77H216.5L193.25,404.036h2.015Z" transform="translate(39.961 -8.934)" fill="#e0e0e0"/>
      <path id="Caminho_5045" data-name="Caminho 5045" d="M214.19,277.77h2l23.255,126.266h-2Z" transform="translate(44.291 -8.934)" fill="#e0e0e0"/>
      <rect id="Retângulo_4607" data-name="Retângulo 4607" width="23.725" height="45.991" transform="translate(328.125 349.111)" fill="#e6e6e6"/>
      <rect id="Retângulo_4608" data-name="Retângulo 4608" width="49.189" height="45.991" transform="translate(328.125 395.101) rotate(180)" fill="#f5f5f5"/>
      <rect id="Retângulo_4609" data-name="Retângulo 4609" width="14.24" height="9.401" transform="translate(278.936 368.6)" fill="#f0f0f0"/>
      <rect id="Retângulo_4610" data-name="Retângulo 4610" width="14.24" height="9.401" transform="translate(278.936 380.596)" fill="#f0f0f0"/>
      <rect id="Retângulo_4611" data-name="Retângulo 4611" width="24.401" height="3.512" transform="translate(328.487 345.599)" fill="#e0e0e0"/>
      <rect id="Retângulo_4612" data-name="Retângulo 4612" width="50.601" height="3.512" transform="translate(328.487 349.111) rotate(180)" fill="#f0f0f0"/>
      <rect id="Retângulo_4613" data-name="Retângulo 4613" width="35.166" height="68.171" transform="translate(417.161 326.93)" fill="#e6e6e6"/>
      <rect id="Retângulo_4614" data-name="Retângulo 4614" width="72.914" height="68.171" transform="translate(417.161 395.089) rotate(180)" fill="#f5f5f5"/>
      <rect id="Retângulo_4615" data-name="Retângulo 4615" width="25.198" height="22.205" transform="translate(386.039 334.726)" fill="#f0f0f0"/>
      <rect id="Retângulo_4616" data-name="Retângulo 4616" width="25.198" height="22.205" transform="translate(386.039 363.085)" fill="#f0f0f0"/>
      <rect id="Retângulo_4617" data-name="Retângulo 4617" width="36.179" height="5.201" transform="translate(417.705 321.729)" fill="#e0e0e0"/>
      <rect id="Retângulo_4618" data-name="Retângulo 4618" width="75.002" height="5.201" transform="translate(417.692 326.918) rotate(180)" fill="#f0f0f0"/>
    </g>
    <g id="freepik--Shadow--inject-2" transform="translate(67.713 477.278)">
      <ellipse id="freepik--path--inject-2" cx="233.984" cy="13.661" rx="233.984" ry="13.661" fill="#f5f5f5"/>
    </g>
    <g id="freepik--Notes--inject-2" transform="translate(250.636 96.839)">
      <rect id="Retângulo_4619" data-name="Retângulo 4619" width="8.725" height="1.255" transform="translate(269.168 101.199) rotate(-87.46)" fill="#407bff"/>
      <rect id="Retângulo_4620" data-name="Retângulo 4620" width="23.279" height="1.255" transform="translate(269.867 85.601) rotate(-87.46)" fill="#407bff"/>
      <path id="Caminho_5046" data-name="Caminho 5046" d="M458.774,292.132H217.646a9.9,9.9,0,0,1-9.944-10.415l8.134-181.633A11.03,11.03,0,0,1,226.7,89.67H467.849a9.884,9.884,0,0,1,9.944,10.415l-8.134,181.633A11.042,11.042,0,0,1,458.774,292.132Z" transform="translate(-207.689 -89.67)" fill="#407bff"/>
      <path id="Caminho_5047" data-name="Caminho 5047" d="M457,292.132H217.646a9.9,9.9,0,0,1-9.944-10.415l8.134-181.633A11.03,11.03,0,0,1,226.7,89.67H466.075a9.908,9.908,0,0,1,9.956,10.415l-8.146,181.633A11.042,11.042,0,0,1,457,292.132Z" transform="translate(-207.689 -89.67)" fill="#fff" opacity="0.5"/>
      <path id="Caminho_5048" data-name="Caminho 5048" d="M363.435,227.761l-43.155-.386,5.394-60.544h41.4Z" transform="translate(-184.406 -73.714)" fill="#407bff" opacity="0.4"/>
      <path id="Caminho_5049" data-name="Caminho 5049" d="M277.047,171.2,233.88,171,239,110.46l43.167.193Z" transform="translate(-202.273 -85.371)" fill="#407bff" opacity="0.4"/>
      <path id="Caminho_5050" data-name="Caminho 5050" d="M369.63,168.495l-43.42,1.834L328.877,110l41.682-1.762Z" transform="translate(-183.18 -85.83)" fill="#407bff" opacity="0.4"/>
      <path id="Caminho_5051" data-name="Caminho 5051" d="M409.149,210.475l-42.418-3.331,5.889-60.484L414.169,151Z" transform="translate(-174.801 -77.885)" fill="#407bff" opacity="0.4"/>
      <path id="Caminho_5052" data-name="Caminho 5052" d="M319.291,155.109l-33.211-.893,3.343-46.546,32.825.495Z" transform="translate(-191.479 -85.948)" fill="#407bff" opacity="0.4"/>
      <path id="Caminho_5053" data-name="Caminho 5053" d="M271.2,258.2l-32.619-.688,3.331-46.558,31.328-.591Z" transform="translate(-201.301 -64.713)" fill="#407bff" opacity="0.4"/>
      <path id="Caminho_5054" data-name="Caminho 5054" d="M417.917,148.674l-33.247.084,3.777-46.594,32.607-.084Z" transform="translate(-171.092 -87.104)" fill="#407bff" opacity="0.4"/>
      <path id="Caminho_5055" data-name="Caminho 5055" d="M277.15,209.448l32.885,3.789,5.877-47.427-31.376-2.631Z" transform="translate(-193.325 -74.469)" fill="#407bff" opacity="0.4"/>
      <path id="Caminho_5056" data-name="Caminho 5056" d="M362.035,226.291,318.88,225.9l5.394-60.544,43.155.4Z" transform="translate(-184.696 -74.018)" fill="#fff"/>
      <path id="Caminho_5057" data-name="Caminho 5057" d="M276.765,170.1l-43.155-.386L239,109.17l43.155.4Z" transform="translate(-202.329 -85.637)" fill="#fff"/>
      <path id="Caminho_5058" data-name="Caminho 5058" d="M368.23,167.035l-43.42,1.834,2.655-60.315L370.9,106.72Z" transform="translate(-183.47 -86.144)" fill="#fff"/>
      <path id="Caminho_5059" data-name="Caminho 5059" d="M408.111,210.163l-42.781-4.477,5.889-60.5L414,149.667Z" transform="translate(-175.091 -78.189)" fill="#fff"/>
      <path id="Caminho_5060" data-name="Caminho 5060" d="M318.761,153.651l-33.211-.893,3.331-46.558,33.211.893Z" transform="translate(-191.588 -86.252)" fill="#fff"/>
      <path id="Caminho_5061" data-name="Caminho 5061" d="M270.391,256.829l-33.211-.893,3.331-46.546,33.211.893Z" transform="translate(-201.59 -64.913)" fill="#fff"/>
      <path id="Caminho_5062" data-name="Caminho 5062" d="M416.987,148.136l-33.247.084,3.777-46.606,33.247-.084Z" transform="translate(-171.284 -87.217)" fill="#fff"/>
      <path id="Caminho_5063" data-name="Caminho 5063" d="M275.75,207.978l32.885,3.789,7.373-46.268-32.873-3.789Z" transform="translate(-193.615 -74.773)" fill="#fff"/>
      <path id="Caminho_5064" data-name="Caminho 5064" d="M290.5,218.42s-.193,12.635-2,16.388c5.9,1.689,17.281,1.665,17.281,1.665s2.486-12.152,2.076-16.895C304.466,218.77,290.5,218.42,290.5,218.42Z" transform="translate(-190.978 -63.046)" fill="#407bff" opacity="0.4"/>
      <path id="Caminho_5065" data-name="Caminho 5065" d="M290.708,218.42s-1.4,12.611-3.2,16.388a116.67,116.67,0,0,0,16.111,2.667s5.02-13.118,4.441-17.933C304.671,218.77,290.708,218.42,290.708,218.42Z" transform="translate(-191.183 -63.046)" fill="#fff"/>
      <path id="Caminho_5066" data-name="Caminho 5066" d="M363.79,221.551s6.842,17.305,6.456,23.412c9.268-1.038,25.4-6.36,25.4-6.36s-3.451-19.055-6.77-25.342C383.69,214.153,363.79,221.551,363.79,221.551Z" transform="translate(-175.409 -64.113)" fill="#407bff" opacity="0.4"/>
      <path id="Caminho_5067" data-name="Caminho 5067" d="M361.94,220.566s5.744,22.229,5.358,28.335c9.268-1.05,27.153-8.218,27.153-8.218s-2.414-22.712-6.034-28.963C383.276,212.649,361.94,220.566,361.94,220.566Z" transform="translate(-175.792 -64.432)" fill="#fff"/>
      <path id="Caminho_5068" data-name="Caminho 5068" d="M381.351,216.461a2.088,2.088,0,0,1-2.076,1.979,1.87,1.87,0,0,1-1.895-1.979,2.1,2.1,0,0,1,2.076-1.991,1.883,1.883,0,0,1,1.895,1.991Z" transform="translate(-172.6 -63.863)" fill="#407bff" opacity="0.4"/>
      <path id="Caminho_5069" data-name="Caminho 5069" d="M271.9,110.1a3.62,3.62,0,0,1-3.536,3.379,3.2,3.2,0,0,1-3.234-3.379,3.62,3.62,0,0,1,3.536-3.379A3.21,3.21,0,0,1,271.9,110.1Z" transform="translate(-195.812 -86.144)" fill="#407bff"/>
      <path id="Caminho_5070" data-name="Caminho 5070" d="M290.154,163.024a2.534,2.534,0,0,1-2.51,2.414,2.269,2.269,0,0,1-2.293-2.414,2.534,2.534,0,0,1,2.51-2.414,2.269,2.269,0,0,1,2.293,2.414Z" transform="translate(-191.63 -75)" fill="#407bff"/>
      <path id="Caminho_5071" data-name="Caminho 5071" d="M374.826,123.274a2.558,2.558,0,0,1-2.51,2.414,2.293,2.293,0,0,1-2.3-2.414,2.546,2.546,0,0,1,2.51-2.414,2.293,2.293,0,0,1,2.3,2.414Z" transform="translate(-174.124 -83.22)" fill="#407bff"/>
    </g>
    <g id="freepik--Character--inject-2" transform="translate(162.659 116.127)">
      <path id="Caminho_5072" data-name="Caminho 5072" d="M155,132.74c1.3,6.649,2.595,18.826-2.052,23.267a33.79,33.79,0,0,0,16.026,13.528c8.894-5.563,4.634-13.528,4.634-13.528-7.41-1.774-7.241-7.241-5.925-12.442Z" transform="translate(-131.032 -100.052)" fill="#b55b52"/>
      <path id="Caminho_5073" data-name="Caminho 5073" d="M148.9,134.622c-5.467-.555-21.722,22.41,9.751,32.656-5.117-4.743-7.663-9.341-6.324-14.771a46.787,46.787,0,0,0,.652-12.768S154.845,135.225,148.9,134.622Z" transform="translate(-133.748 -99.665)" fill="#263238"/>
      <path id="Caminho_5074" data-name="Caminho 5074" d="M150.61,160.009A14.228,14.228,0,0,1,148,155.665a6.541,6.541,0,0,1,7.072-8.653,39.607,39.607,0,0,0,10.221.072c7.7-.953,11.73,2.92,15.893,11.223h0s-1.943,3.62-7.772,5.032S150.61,160.009,150.61,160.009Z" transform="translate(-132.131 -97.115)" fill="#407bff"/>
      <path id="Caminho_5075" data-name="Caminho 5075" d="M178.231,128.113c-.205.881.084,1.7.664,1.834s1.207-.459,1.424-1.34-.084-1.7-.664-1.834S178.448,127.232,178.231,128.113Z" transform="translate(-125.817 -101.289)" fill="#263238"/>
      <path id="Caminho_5076" data-name="Caminho 5076" d="M179.18,126.779l2.257-.109S179.964,128.058,179.18,126.779Z" transform="translate(-125.608 -101.307)" fill="#263238"/>
      <path id="Caminho_5077" data-name="Caminho 5077" d="M181.126,124.266a.531.531,0,0,0,.434-.869,5.262,5.262,0,0,0-4.429-1.955.531.531,0,0,0-.471.591.543.543,0,0,0,.591.471,4.188,4.188,0,0,1,3.5,1.581.555.555,0,0,0,.374.181Z" transform="translate(-126.129 -102.39)" fill="#263238"/>
      <path id="Caminho_5078" data-name="Caminho 5078" d="M177.564,130.11a24.038,24.038,0,0,0,1.786,6.372,3.9,3.9,0,0,1-3.27-.169Z" transform="translate(-126.249 -100.595)" fill="#a02724"/>
      <path id="Caminho_5079" data-name="Caminho 5079" d="M154.661,121.176c-1.931,10.958-2.981,15.543,1.134,22.4,6.191,10.306,20.057,10.282,25.234.133,4.646-9.135,7.036-25.511-2.5-32.342a15.169,15.169,0,0,0-23.87,9.811Z" transform="translate(-131.029 -105.069)" fill="#b55b52"/>
      <path id="Caminho_5080" data-name="Caminho 5080" d="M175.591,130.449c3.319-1.352,11.211-4.344,13.142-9.063s-6.034-17.317-12.84-14.831c-17.728-3.777-30.085,4.706-30.013,18.1.072,14,5.636,21.963,14.759,24.039S177.691,141.213,175.591,130.449Z" transform="translate(-132.494 -105.653)" fill="#263238"/>
      <path id="Caminho_5081" data-name="Caminho 5081" d="M150.187,129.4c-3.62-.495-5.551,3.174-4.236,6.215s5.708,7.856,7.4,7.856,5.032-1.207,5.877-3.1S152.624,129.748,150.187,129.4Z" transform="translate(-132.564 -100.752)" fill="#407bff"/>
      <path id="Caminho_5082" data-name="Caminho 5082" d="M168.038,125.885a8.061,8.061,0,0,0,.99,6.118c1.508,2.414,4.176,1.533,5.358-.905,1.062-2.184,1.545-6.034-.736-7.651a3.62,3.62,0,0,0-5.612,2.438Z" transform="translate(-127.957 -102.103)" fill="#b55b52"/>
      <path id="Caminho_5083" data-name="Caminho 5083" d="M148.909,161.45V165.2q0,1.967.181,3.946a65.887,65.887,0,0,0,1.014,7.76,38.074,38.074,0,0,0,5.431,13.781c.99,1.279.6,1.074,1.448,1.653a13.456,13.456,0,0,0,2.872,1.352,53.316,53.316,0,0,0,7.6,1.967c5.37,1.014,11.054,1.714,16.63,2.281l.157,5.684a97.64,97.64,0,0,1-17.836.688,50.685,50.685,0,0,1-9.316-1.3,24,24,0,0,1-5.1-1.858,13.685,13.685,0,0,1-2.812-1.955c-.241-.217-.483-.471-.724-.724l-.447-.519-.821-.977a38.413,38.413,0,0,1-5.141-8.52,49.093,49.093,0,0,1-3.017-9.135,63.171,63.171,0,0,1-1.46-9.3c-.109-1.557-.181-3.114-.205-4.682v-2.353c0-.784.06-1.521.145-2.522Z" transform="translate(-134.255 -94.32)" fill="#b55b52"/>
      <path id="Caminho_5084" data-name="Caminho 5084" d="M176.33,191.493l11.959-1.883-5.889,9.751s-7.241-.3-9.22-4.489Z" transform="translate(-126.848 -88.292)" fill="#b55b52"/>
      <path id="Caminho_5085" data-name="Caminho 5085" d="M192.622,192.892l.036,7.253-11.839-.784,5.889-9.751Z" transform="translate(-125.269 -88.292)" fill="#b55b52"/>
      <path id="Caminho_5086" data-name="Caminho 5086" d="M218.174,227.215h-37.41a1.424,1.424,0,0,1-1.484-1.967l17.269-50.311a3.138,3.138,0,0,1,2.824-1.955h37.41a1.412,1.412,0,0,1,1.484,1.955L221,225.248a3.174,3.174,0,0,1-2.824,1.967Z" transform="translate(-125.61 -91.733)" fill="#407bff"/>
      <path id="Caminho_5087" data-name="Caminho 5087" d="M217.284,225.5H181.152a.784.784,0,0,1-.821-1.1L197.4,174.649a1.786,1.786,0,0,1,1.581-1.1h36.2a.8.8,0,0,1,.833,1.1L218.937,224.4a1.786,1.786,0,0,1-1.653,1.1Z" transform="translate(-125.384 -91.614)" fill="#fff"/>
      <path id="Caminho_5088" data-name="Caminho 5088" d="M138.266,154l12.068,4.887,6.432,7.132.833,9.835s-14.059,10.668-21.529,9.654C133.487,167.432,135.1,157.488,138.266,154Z" transform="translate(-134.787 -95.655)" fill="#263238"/>
      <path id="Caminho_5089" data-name="Caminho 5089" d="M197.042,162.454c.181,8.122-.965,25.029-6.674,60.134H144.861c.76-18.524,1.665-30.17-7.241-68.135a125.226,125.226,0,0,1,18.56-2.389,143.8,143.8,0,0,1,20.66,0c4.453.41,9.208,1.122,12.828,1.75a8.918,8.918,0,0,1,7.373,8.641Z" transform="translate(-134.202 -96.133)" fill="#263238"/>
      <path id="Caminho_5090" data-name="Caminho 5090" d="M179.757,163.23l8.1,13.19c-.422,4.694-1.038,10.318-1.919,17.04l-6.637-3.922C176.583,169.578,179.757,163.23,179.757,163.23Z" transform="translate(-125.81 -93.747)" opacity="0.2"/>
      <path id="Caminho_5091" data-name="Caminho 5091" d="M189.358,163.41q2.522,7.929,4.827,15.93l2.317,8,2.233,8.025,1.1,4.019.543,2.015a14.48,14.48,0,0,0,.459,1.521,9.087,9.087,0,0,0,.905,1.883c.085.121.072.145,0,.181s-.084.109.06.133a3.777,3.777,0,0,0,2.015-.567,18.5,18.5,0,0,0,2.824-1.883c.965-.772,1.919-1.617,2.86-2.51s1.871-1.895,2.715-2.788l4.827,3.041a37.964,37.964,0,0,1-2.221,3.97,31.378,31.378,0,0,1-2.691,3.741,23.184,23.184,0,0,1-3.548,3.488,12.683,12.683,0,0,1-5.648,2.607,9.22,9.22,0,0,1-4.067-.229,9.968,9.968,0,0,1-3.56-1.907,15.1,15.1,0,0,1-3.777-4.972,18.242,18.242,0,0,1-.99-2.414l-.676-1.991-1.352-3.97-2.643-7.965-2.546-8c-1.726-5.334-3.355-10.692-4.924-16.062Z" transform="translate(-125.769 -93.71)" fill="#b55b52"/>
      <path id="Caminho_5092" data-name="Caminho 5092" d="M177.486,162.292c1.919-4.586,7.929-7.542,7.929-7.542,6.468,4.212,8.653,6.2,12.949,27.623-6.263,5.479-16.642,5.479-16.642,5.479l-5.6-14.481S175.568,166.914,177.486,162.292Z" transform="translate(-126.255 -95.5)" fill="#263238"/>
      <path id="Caminho_5093" data-name="Caminho 5093" d="M205.19,195.1l4.3-10.475,5.262,10.1s-3.982,6.034-8.616,5.551Z" transform="translate(-120.229 -89.322)" fill="#b55b52"/>
      <path id="Caminho_5094" data-name="Caminho 5094" d="M217.583,189.553a.64.64,0,0,1-.543-.278L204.5,172.115a.688.688,0,0,1,.157-.953.676.676,0,0,1,.941.157l12.526,17.16a.664.664,0,0,1-.543,1.074Z" transform="translate(-120.398 -92.133)" fill="#263238"/>
      <path id="Caminho_5095" data-name="Caminho 5095" d="M218.127,182.94l2.764,6.082-6.879,6.058-5.262-10.1Z" transform="translate(-119.493 -89.671)" fill="#b55b52"/>
      <path id="Caminho_5096" data-name="Caminho 5096" d="M187.4,210.44s11.368,86.032,15.254,119.991c5.732,50.154,18.536,117.058,18.536,117.058l-7.639,1.364s-26.694-65.468-30.725-115.043C170.162,297.292,152,210.44,152,210.44Z" transform="translate(-131.228 -83.984)" fill="#b55b52"/>
      <path id="Caminho_5097" data-name="Caminho 5097" d="M210.6,400.14l-9.884,4.827a.893.893,0,0,0-.483,1.086l3.186,9.437a1.846,1.846,0,0,0,2.57.929c4.055-2.064,4.067-2.341,9.22-4.827,3.174-1.557,8.327-3.91,12.707-6.034s2.5-6.36.483-5.841c-9.027,2.341-11.863,1.074-15.688.229A3.161,3.161,0,0,0,210.6,400.14Z" transform="translate(-121.262 -44.854)" fill="#263238"/>
      <path id="Caminho_5098" data-name="Caminho 5098" d="M177.953,210.44s-7.386,81.482-13.6,115.091c-6.529,35.3-11.4,119.411-11.477,121.982h-7.76s-10.62-94.552-.712-126.194c1.641-38.617-.072-110.879-.072-110.879Z" transform="translate(-133.673 -83.984)" fill="#b55b52"/>
      <path id="Caminho_5099" data-name="Caminho 5099" d="M153.353,405.58H144.52a.893.893,0,0,0-.905.772l-1.3,10.1a1.846,1.846,0,0,0,1.846,2.015c4.441-.072,2.667-.338,8.279-.338,3.451,0,8.447.362,13.275.362s4.96-4.719,2.969-5.141c-8.93-1.919-10.366-4.562-13.407-7.072A2.981,2.981,0,0,0,153.353,405.58Z" transform="translate(-133.233 -43.632)" fill="#263238"/>
      <path id="Caminho_5100" data-name="Caminho 5100" d="M143.76,303.258l20.6,2.269c.833-4.924,1.689-10.608,2.522-16.738l-22.7-2.329C144.05,292.434,143.953,298.118,143.76,303.258Z" transform="translate(-132.932 -68.265)" opacity="0.2"/>
      <path id="Caminho_5101" data-name="Caminho 5101" d="M196.132,291.8,170.5,289.17c1.689,6.287,3.379,12.237,5.008,17.619l22.736,2.486C197.653,304.17,196.929,298.233,196.132,291.8Z" transform="translate(-127.403 -67.704)" opacity="0.2"/>
      <path id="Caminho_5102" data-name="Caminho 5102" d="M190.1,210.44l16.412,112.4L142.7,314.755c6.227-48.115-12.683-86.7,1.895-104.314Z" transform="translate(-133.931 -83.984)" fill="#407bff"/>
      <path id="Caminho_5103" data-name="Caminho 5103" d="M148.58,229.55A71.091,71.091,0,0,0,172.4,243.223C158.065,243.066,151.416,237.973,148.58,229.55Z" transform="translate(-131.935 -80.033)" opacity="0.2"/>
    </g>
  </g>
</svg>
