<?xml version="1.0" encoding="utf-8"?>
<!-- Generator: Adobe Illustrator 22.1.0, SVG Export Plug-In . SVG Version: 6.00 Build 0)  -->
<svg version="1.1" id="Camada_1" xmlns="http://www.w3.org/2000/svg" xmlns:xlink="http://www.w3.org/1999/xlink" x="0px" y="0px"
	 viewBox="0 0 36 26.2" style="enable-background:new 0 0 36 26.2;" xml:space="preserve">
<style type="text/css">
	.st0{fill:#FFFFFF;}
</style>
<title>crown, prize, sport, winner</title>
<g>
	<g>
		<g>
			<path class="st0" d="M35.1,7.5c-0.3-0.3-0.6-0.4-1-0.4c-0.4,0-0.8,0.1-1.1,0.4l-6.3,6.2L19.3,1l0-0.1c-0.1-0.1-0.2-0.3-0.4-0.4
				c-0.3-0.2-0.7-0.3-1.1-0.2c-0.4,0.1-0.7,0.3-1,0.6L9.4,13.8L3,7.5C2.7,7.2,2.2,7,1.8,7.1C1.4,7.2,1,7.4,0.8,7.7
				C0.6,8,0.5,8.4,0.5,8.8l2.4,15.9c0.1,0.7,0.7,1.3,1.5,1.3c0,0,0,0,0,0h27.3c0.7,0,1.4-0.5,1.5-1.3l2.4-15.9
				C35.6,8.3,35.4,7.9,35.1,7.5z"/>
		</g>
	</g>
</g>
</svg>
