<?xml version="1.0" encoding="utf-8"?>
<!-- Generator: Adobe Illustrator 22.1.0, SVG Export Plug-In . SVG Version: 6.00 Build 0)  -->
<svg version="1.1" id="Camada_1" xmlns="http://www.w3.org/2000/svg" xmlns:xlink="http://www.w3.org/1999/xlink" x="0px" y="0px"
	 viewBox="0 0 34.2 26.1" style="enable-background:new 0 0 34.2 26.1;" xml:space="preserve">
<style type="text/css">
	.st0{fill:#FFFFFF;}
</style>
<g>
	<g>
		<path class="st0" d="M32.9,5h-6.1c-0.5,0-1,0.4-1,1v4.9h-4.7V3.3c0-0.5-0.4-1-1-1H14c-0.5,0-1,0.4-1,1v7.6H8.4V6c0-0.5-0.4-1-1-1
			H1.3c-0.5,0-1,0.4-1,1v5.9c0,0.2,0.1,0.4,0.2,0.6l2.7,8H3.1c-0.5,0-1,0.4-1,1v1.3c0,0.5,0.4,1,1,1h28c0.5,0,1-0.4,1-1v-1.3
			c0-0.5-0.4-0.9-0.9-1l2.5-8c0.1-0.2,0.2-0.3,0.2-0.6V6C33.8,5.5,33.4,5,32.9,5z M17.1,20.2c-2.1,0-3.7-1.7-3.7-3.7
			s1.7-3.7,3.7-3.7c2.1,0,3.7,1.7,3.7,3.7S19.1,20.2,17.1,20.2z"/>
	</g>
</g>
</svg>
