<svg xmlns="http://www.w3.org/2000/svg" width="619.498" height="461.6" viewBox="0 0 619.498 461.6">
  <g id="Invoice-rafiki" transform="translate(0 -55)">
    <g id="freepik--background-complete--inject-2" transform="translate(0 55)">
      <rect id="Retângulo_4771" data-name="Retângulo 4771" width="619.498" height="0.31" transform="translate(0 405.647)" fill="#ebebeb"/>
      <rect id="Retângulo_4772" data-name="Retângulo 4772" width="41.036" height="0.31" transform="translate(516.388 425.582)" fill="#ebebeb"/>
      <rect id="Retângulo_4773" data-name="Retângulo 4773" width="10.767" height="0.31" transform="translate(399.613 428.953)" fill="#ebebeb"/>
      <rect id="Retângulo_4774" data-name="Retângulo 4774" width="23.776" height="0.31" transform="translate(491.373 414.085)" fill="#ebebeb"/>
      <rect id="Retângulo_4775" data-name="Retângulo 4775" width="53.512" height="0.31" transform="translate(64.998 416.166)" fill="#ebebeb"/>
      <rect id="Retângulo_4776" data-name="Retângulo 4776" width="7.843" height="0.31" transform="translate(129.549 416.166)" fill="#ebebeb"/>
      <rect id="Retângulo_4777" data-name="Retângulo 4777" width="116.069" height="0.31" transform="translate(162.891 421.395)" fill="#ebebeb"/>
      <path id="Caminho_5429" data-name="Caminho 5429" d="M284.51,405.388H45.272a7.075,7.075,0,0,1-7.062-7.075V62.013A7.075,7.075,0,0,1,45.272,55H284.51a7.075,7.075,0,0,1,7.075,7.075V398.313A7.075,7.075,0,0,1,284.51,405.388ZM45.272,55.248a6.765,6.765,0,0,0-6.753,6.765v336.3a6.765,6.765,0,0,0,6.752,6.765H284.51a6.777,6.777,0,0,0,6.765-6.765V62.013a6.777,6.777,0,0,0-6.765-6.765Z" transform="translate(9.132 -55)" fill="#ebebeb"/>
      <path id="Caminho_5430" data-name="Caminho 5430" d="M500.825,405.388H261.575a7.087,7.087,0,0,1-7.075-7.075V62.013A7.087,7.087,0,0,1,261.575,55h239.25a7.075,7.075,0,0,1,7.05,7.013v336.3A7.075,7.075,0,0,1,500.825,405.388ZM261.575,55.248a6.777,6.777,0,0,0-6.765,6.765v336.3a6.777,6.777,0,0,0,6.765,6.765h239.25a6.777,6.777,0,0,0,6.765-6.765V62.013a6.777,6.777,0,0,0-6.765-6.765Z" transform="translate(60.824 -55)" fill="#ebebeb"/>
      <rect id="Retângulo_4778" data-name="Retângulo 4778" width="35.795" height="127.517" transform="translate(355.889 405.647) rotate(180)" fill="#e6e6e6"/>
      <path id="Caminho_5431" data-name="Caminho 5431" d="M265.142,384.68h-6.8V372.86h13.926Z" transform="translate(61.742 20.967)" fill="#f0f0f0"/>
      <rect id="Retângulo_4779" data-name="Retângulo 4779" width="35.795" height="127.517" transform="translate(560.113 405.647) rotate(180)" fill="#e6e6e6"/>
      <rect id="Retângulo_4780" data-name="Retângulo 4780" width="210.158" height="124.42" transform="translate(530.253 402.537) rotate(180)" fill="#f0f0f0"/>
      <rect id="Retângulo_4781" data-name="Retângulo 4781" width="110.122" height="62.297" transform="translate(460.956 395.636) rotate(-90)" fill="#e6e6e6"/>
      <path id="Caminho_5432" data-name="Caminho 5432" d="M394.942,291.912h12.316a18.3,18.3,0,0,0,14.162-7.112H380.78a18.337,18.337,0,0,0,14.162,7.112Z" transform="translate(91.005 -0.079)" fill="#f0f0f0"/>
      <rect id="Retângulo_4782" data-name="Retângulo 4782" width="110.122" height="62.297" transform="translate(394.013 395.648) rotate(-90)" fill="#e6e6e6"/>
      <path id="Caminho_5433" data-name="Caminho 5433" d="M340.4,291.912h12.328a18.3,18.3,0,0,0,14.1-7.112H326.25a18.3,18.3,0,0,0,14.149,7.112Z" transform="translate(77.972 -0.079)" fill="#f0f0f0"/>
      <rect id="Retângulo_4783" data-name="Retângulo 4783" width="110.122" height="62.297" transform="translate(327.07 395.648) rotate(-90)" fill="#e6e6e6"/>
      <path id="Caminho_5434" data-name="Caminho 5434" d="M286.369,291.912H298.7a18.3,18.3,0,0,0,14.137-7.112H272.22a18.3,18.3,0,0,0,14.149,7.112Z" transform="translate(65.059 -0.079)" fill="#f0f0f0"/>
      <path id="Caminho_5435" data-name="Caminho 5435" d="M423.857,384.68h6.79V372.86H416.72Z" transform="translate(99.594 20.967)" fill="#f0f0f0"/>
      <rect id="Retângulo_4784" data-name="Retângulo 4784" width="240.154" height="204.471" transform="translate(335.123 244.974) rotate(180)" fill="#e6e6e6"/>
      <rect id="Retângulo_4785" data-name="Retângulo 4785" width="243.202" height="204.471" transform="translate(332.769 244.974) rotate(180)" fill="#f5f5f5"/>
      <rect id="Retângulo_4786" data-name="Retângulo 4786" width="184.846" height="223.8" transform="translate(323.068 50.316) rotate(90)" fill="#fafafa"/>
      <path id="Caminho_5436" data-name="Caminho 5436" d="M261.352,280.456,173.272,95.61H143.35l88.08,184.846Z" transform="translate(34.26 -45.294)" fill="#fff"/>
      <path id="Caminho_5437" data-name="Caminho 5437" d="M228.565,280.456,140.472,95.61H119.88l88.08,184.846Z" transform="translate(28.651 -45.294)" fill="#fff"/>
      <rect id="Retângulo_4787" data-name="Retângulo 4787" width="184.846" height="11.572" transform="translate(182.38 50.303) rotate(90)" fill="#e6e6e6"/>
      <rect id="Retângulo_4788" data-name="Retângulo 4788" width="184.846" height="11.572" transform="translate(259.297 50.303) rotate(90)" fill="#e6e6e6"/>
      <rect id="Retângulo_4789" data-name="Retângulo 4789" width="198.376" height="14.633" transform="translate(180.286 43.018) rotate(90)" fill="#f5f5f5"/>
      <rect id="Retângulo_4790" data-name="Retângulo 4790" width="198.376" height="14.633" transform="translate(257.203 43.018) rotate(90)" fill="#f5f5f5"/>
      <rect id="Retângulo_4791" data-name="Retângulo 4791" width="184.846" height="1.028" transform="translate(100.297 50.316) rotate(90)" fill="#e6e6e6"/>
      <path id="Caminho_5438" data-name="Caminho 5438" d="M69.239,77.5H329.428a1.239,1.239,0,0,1,1.239,1.239h0a1.239,1.239,0,0,1-1.239,1.239H69.239A1.239,1.239,0,0,1,68,78.739h0A1.239,1.239,0,0,1,69.239,77.5Z" transform="translate(16.252 -49.623)" fill="#e6e6e6"/>
      <path id="Caminho_5439" data-name="Caminho 5439" d="M270.807,85.523h0a1.7,1.7,0,0,0,1.685-1.7V80.2a1.685,1.685,0,0,0-1.685-1.685h0a1.7,1.7,0,0,0-1.7,1.685v3.63a1.71,1.71,0,0,0,1.7,1.7Z" transform="translate(64.316 -49.381)" fill="#e6e6e6"/>
      <path id="Caminho_5440" data-name="Caminho 5440" d="M84.555,85.523h0a1.71,1.71,0,0,0,1.7-1.7V80.2a1.7,1.7,0,0,0-1.7-1.685h0A1.685,1.685,0,0,0,82.87,80.2v3.63a1.7,1.7,0,0,0,1.685,1.7Z" transform="translate(19.806 -49.381)" fill="#e6e6e6"/>
      <rect id="Retângulo_4792" data-name="Retângulo 4792" width="243.029" height="101.486" transform="translate(328.916 130.615) rotate(180)" fill="#e0e0e0" opacity="0.6"/>
      <rect id="Retângulo_4793" data-name="Retângulo 4793" width="6.245" height="102.391" transform="translate(95.465 405.647) rotate(180)" fill="#e6e6e6"/>
      <rect id="Retângulo_4794" data-name="Retângulo 4794" width="33.812" height="19.923" transform="translate(201.894 283.321)" fill="#e6e6e6"/>
      <rect id="Retângulo_4795" data-name="Retângulo 4795" width="134.295" height="19.923" transform="translate(201.894 303.256) rotate(180)" fill="#f5f5f5"/>
      <rect id="Retângulo_4796" data-name="Retângulo 4796" width="33.812" height="19.923" transform="translate(201.894 315.634)" fill="#e6e6e6"/>
      <rect id="Retângulo_4797" data-name="Retângulo 4797" width="134.295" height="19.923" transform="translate(201.894 335.57) rotate(180)" fill="#f5f5f5"/>
      <rect id="Retângulo_4798" data-name="Retângulo 4798" width="33.812" height="19.923" transform="translate(201.894 347.959)" fill="#e6e6e6"/>
      <rect id="Retângulo_4799" data-name="Retângulo 4799" width="134.295" height="19.923" transform="translate(201.894 367.883) rotate(180)" fill="#f5f5f5"/>
      <rect id="Retângulo_4800" data-name="Retângulo 4800" width="6.245" height="102.391" transform="translate(229.759 405.647) rotate(180)" fill="#e6e6e6"/>
      <rect id="Retângulo_4801" data-name="Retângulo 4801" width="6.245" height="102.391" transform="translate(201.894 405.647) rotate(180)" fill="#f5f5f5"/>
      <rect id="Retângulo_4802" data-name="Retângulo 4802" width="6.245" height="102.391" transform="translate(73.844 405.647) rotate(180)" fill="#f5f5f5"/>
    </g>
    <g id="freepik--Shadow--inject-2" transform="translate(69.52 488.549)">
      <ellipse id="freepik--path--inject-2" cx="240.229" cy="14.025" rx="240.229" ry="14.025" fill="#f5f5f5"/>
    </g>
    <g id="freepik--Invoice--inject-2" transform="translate(259.524 92.404)">
      <path id="Caminho_5441" data-name="Caminho 5441" d="M437.57,439.109H236.357A14.125,14.125,0,0,1,222.121,423.7L246.765,100.6a16.974,16.974,0,0,1,16.6-15.413H464.58A14.112,14.112,0,0,1,478.816,100.6L454.173,423.7a16.987,16.987,0,0,1-16.6,15.413Z" transform="translate(-206.453 -85.189)" fill="#407bff"/>
      <path id="Caminho_5442" data-name="Caminho 5442" d="M437.57,439.109H236.357A14.125,14.125,0,0,1,222.121,423.7L246.765,100.6a16.974,16.974,0,0,1,16.6-15.413H464.58A14.112,14.112,0,0,1,478.816,100.6L454.173,423.7a16.987,16.987,0,0,1-16.6,15.413Z" transform="translate(-206.453 -85.189)" fill="#fff" opacity="0.5"/>
      <path id="Caminho_5443" data-name="Caminho 5443" d="M435.163,439.109H233.937A14.125,14.125,0,0,1,219.7,423.7L244.357,100.6A16.974,16.974,0,0,1,260.972,85.19H462.185A14.112,14.112,0,0,1,476.421,100.6L451.778,423.7a16.974,16.974,0,0,1-16.615,15.413Z" transform="translate(-207.031 -85.189)" fill="#407bff"/>
      <path id="Caminho_5444" data-name="Caminho 5444" d="M435.163,439.109H233.937A14.125,14.125,0,0,1,219.7,423.7L244.357,100.6A16.974,16.974,0,0,1,260.972,85.19H462.185A14.112,14.112,0,0,1,476.421,100.6L451.778,423.7a16.974,16.974,0,0,1-16.615,15.413Z" transform="translate(-207.031 -85.189)" fill="#fff" opacity="0.7"/>
      <path id="Caminho_5445" data-name="Caminho 5445" d="M233.339,432.149a9.392,9.392,0,0,1-9.491-10.271l24.322-318.806A11.287,11.287,0,0,1,259.234,92.8H460.447a9.392,9.392,0,0,1,9.491,10.271L445.616,421.877a11.287,11.287,0,0,1-11.052,10.271Z" transform="translate(-206.036 -83.37)" fill="#407bff"/>
      <path id="Caminho_5446" data-name="Caminho 5446" d="M421.626,138.429h-144a5.575,5.575,0,0,1-5.625-6.1h0a6.715,6.715,0,0,1,6.554-6.083h144a5.563,5.563,0,0,1,5.625,6.083h0a6.691,6.691,0,0,1-6.554,6.1Z" transform="translate(-194.522 -75.376)" opacity="0.2"/>
      <path id="Caminho_5447" data-name="Caminho 5447" d="M347.935,90.838H324.679a1.375,1.375,0,0,1-1.388-1.5h0a1.66,1.66,0,0,1,1.611-1.5H348.17a1.375,1.375,0,0,1,1.375,1.5h0a1.636,1.636,0,0,1-1.611,1.5Z" transform="translate(-182.261 -84.555)" fill="#407bff" opacity="0.3"/>
      <path id="Caminho_5448" data-name="Caminho 5448" d="M279,134.411a15.388,15.388,0,0,0-15.562-16.85h146.2a15.388,15.388,0,0,1,15.562,16.85Z" transform="translate(-196.563 -77.453)" fill="#f0f0f0"/>
      <path id="Caminho_5449" data-name="Caminho 5449" d="M273.36,117.56a18.511,18.511,0,0,0-18.151,16.85L240.229,330.754A18.5,18.5,0,0,1,222.09,347.6h146.2a18.511,18.511,0,0,0,18.151-16.85L401.422,134.41a18.5,18.5,0,0,1,18.139-16.85Z" transform="translate(-206.446 -77.453)" fill="#fff"/>
      <path id="Caminho_5450" data-name="Caminho 5450" d="M355.735,289.63A15.388,15.388,0,0,0,371.3,306.48H225.1a15.388,15.388,0,0,1-15.562-16.85Z" transform="translate(-209.464 -36.329)" fill="#f0f0f0"/>
      <path id="Caminho_5451" data-name="Caminho 5451" d="M260.159,289c.558-7.174-1.7-12.972-8.859-12.972H363.875c7.161,0,12.551,6.554,8.871,12.972Z" transform="translate(-199.465 -39.579)" fill="#e0e0e0"/>
      <path id="Caminho_5452" data-name="Caminho 5452" d="M355.721,292.888A18.5,18.5,0,0,1,373.86,276h-146.2a18.5,18.5,0,0,0-18.139,16.85Z" transform="translate(-209.45 -39.586)" fill="#f0f0f0"/>
      <path id="Caminho_5453" data-name="Caminho 5453" d="M416.474,330.626H248.652a4.052,4.052,0,0,1-4.089-4.423h0a4.869,4.869,0,0,1,4.758-4.423H417.155a4.051,4.051,0,0,1,4.076,4.423h0A4.869,4.869,0,0,1,416.474,330.626Z" transform="translate(-201.079 -28.645)" fill="#fff"/>
      <path id="Caminho_5454" data-name="Caminho 5454" d="M332.04,347.786h-84.7a4.039,4.039,0,0,1-4.089-4.423h0a4.869,4.869,0,0,1,4.758-4.423h84.7a4.051,4.051,0,0,1,4.089,4.423h0a4.869,4.869,0,0,1-4.758,4.423Z" transform="translate(-201.392 -24.544)" fill="#fff"/>
      <path id="Caminho_5455" data-name="Caminho 5455" d="M369.65,347.786H335.342a4.039,4.039,0,0,1-4.089-4.423h0a4.869,4.869,0,0,1,4.758-4.423h34.308a4.064,4.064,0,0,1,4.089,4.423h0a4.869,4.869,0,0,1-4.758,4.423Z" transform="translate(-180.361 -24.544)" fill="#fff"/>
      <path id="Caminho_5456" data-name="Caminho 5456" d="M395.53,280.231l-8.76,1.375a8.078,8.078,0,0,0-1-2.292,5.167,5.167,0,0,0-1.623-1.3l-.52,6.728q6.938,1.9,9.144,3.99a8.5,8.5,0,0,1,2.589,7.137,10.172,10.172,0,0,1-1.487,4.659,12.539,12.539,0,0,1-3.147,3.531,12.737,12.737,0,0,1-3.89,2.069,19.626,19.626,0,0,1-4.956.756l-.335,4.386H378.27l.335-4.386a20.887,20.887,0,0,1-5.464-1.1,10.3,10.3,0,0,1-3.544-2.23,9.614,9.614,0,0,1-2.143-3.06,13.11,13.11,0,0,1-.954-3.965l9.478-1.09a8.325,8.325,0,0,0,.867,3.333,5.216,5.216,0,0,0,2.205,1.809l.619-8.215a41.358,41.358,0,0,1-6.492-2.255,8.041,8.041,0,0,1-3.172-3.06,8.4,8.4,0,0,1-1.041-5.142,9.986,9.986,0,0,1,3.42-6.914,13.926,13.926,0,0,1,8.846-3.085l.173-2.3H384.8l-.173,2.3a13.381,13.381,0,0,1,7.781,2.478,9.045,9.045,0,0,1,3.122,5.848ZM380.748,277.9a4.832,4.832,0,0,0-2.156,1.239,2.8,2.8,0,0,0-.719,1.71,2.652,2.652,0,0,0,.458,1.784,3.977,3.977,0,0,0,1.958,1.239ZM382.4,300.81a5.922,5.922,0,0,0,3.011-1.462,3.593,3.593,0,0,0,1.09-2.267,2.825,2.825,0,0,0-.62-2.02,6.306,6.306,0,0,0-2.912-1.71Z" transform="translate(-171.933 -41.116)" fill="#fff"/>
      <path id="Caminho_5464" data-name="Caminho 5464" d="M375.669,187.2H254.83l.248-3.345H375.929Z" transform="translate(-198.621 -61.61)" fill="#407bff"/>
      <path id="Caminho_5465" data-name="Caminho 5465" d="M375.822,186.55H254.983l-.793,10.271H375.042Z" transform="translate(-198.774 -60.964)" fill="#f0f0f0"/>
      <path id="Caminho_5515" data-name="Caminho 5515" d="M375.822,186.55H254.983l-.793,10.271H375.042Z" transform="translate(-196.42 -101.964)" fill="#f0f0f0"/>
      <path id="Caminho_5466" data-name="Caminho 5466" d="M374.562,203.12H253.711l-.781,10.259H373.782Z" transform="translate(-199.075 -57.004)" fill="#f0f0f0"/>
      <path id="Caminho_5516" data-name="Caminho 5516" d="M374.562,203.12H253.711l-.781,10.259H373.782Z" transform="translate(-196.721 -98.004)" fill="#f0f0f0"/>
      <path id="Caminho_5467" data-name="Caminho 5467" d="M373.29,219.68H252.451l-.781,10.271H372.509Z" transform="translate(-199.376 -53.046)" fill="#f0f0f0"/>
      <path id="Caminho_5468" data-name="Caminho 5468" d="M372.032,236.25H251.181l-.781,10.259H371.252Z" transform="translate(-199.68 -49.086)" fill="#f0f0f0"/>
      <path id="Caminho_5469" data-name="Caminho 5469" d="M370.412,256.168H249.56l.26-3.358H370.672Z" transform="translate(-199.881 -45.128)" fill="#407bff"/>
      <path id="Caminho_5470" data-name="Caminho 5470" d="M336.16,136.08h25.114l-1.14,14.979H335.02Z" transform="translate(-179.456 -73.026)" fill="#f0f0f0"/>
    </g>
    <g id="freepik--Character--inject-2" transform="translate(110.14 123.304)">
      <path id="Caminho_5471" data-name="Caminho 5471" d="M138.831,213.014l4.485,1.8a10.073,10.073,0,0,1,4.163,3.122l2.057,2.6a4.547,4.547,0,0,1-.149,5.836l-2.181,2.478a4.572,4.572,0,0,1-6.492.384l-2.106-1.859s-6.443-4.522-8.338-10.507l1.239-1.239a8.561,8.561,0,0,1,7.322-2.614Z" transform="translate(-79.006 -85.557)" fill="#ffb573"/>
      <path id="Caminho_5472" data-name="Caminho 5472" d="M154.5,181.013l-1.462.966-1.623,1.115c-1.078.768-2.168,1.561-3.221,2.366-2.119,1.648-4.175,3.345-6.083,5.154a50.153,50.153,0,0,0-9.59,11.671c-.31.52-.582,1.041-.842,1.574l-.2.4a5.1,5.1,0,0,0,.124-.508,1.537,1.537,0,0,0,0-.619c-.112-.359-.124.57.161,1.487a38.089,38.089,0,0,0,2.961,6.864c2.552,4.882,5.749,9.912,8.772,14.868l.074.136a4.361,4.361,0,0,1-1.45,5.984,4.411,4.411,0,0,1-4.956-.285,81.114,81.114,0,0,1-7.075-6.195,84.085,84.085,0,0,1-6.468-7.05,42.907,42.907,0,0,1-5.687-8.834,23.8,23.8,0,0,1-1.165-3.048,15.164,15.164,0,0,1-.644-4.175,12.241,12.241,0,0,1,.31-2.85,13.544,13.544,0,0,1,.471-1.574l.235-.632c.31-.855.657-1.685,1.016-2.478a58.11,58.11,0,0,1,11.82-16.962,75.269,75.269,0,0,1,7.434-6.653c1.313-1.016,2.639-2.007,4.014-2.936.694-.471,1.388-.942,2.106-1.388l1.1-.669,1.239-.719A8.673,8.673,0,0,1,155,180.74Z" transform="translate(-82.386 -97.02)" fill="#ffb573"/>
      <path id="Caminho_5473" data-name="Caminho 5473" d="M152.105,162.05c-7.236,0-15.165,3.135-25.325,15.735,0,7.521,15.872,17.519,15.872,17.519S168.67,161.988,152.105,162.05Z" transform="translate(-79.84 -97.72)" fill="#263238"/>
      <path id="Caminho_5474" data-name="Caminho 5474" d="M104.483,403.775a1.464,1.464,0,0,1-.384-.062c-1.5-.533-2.912-4.349-3-6.48a.322.322,0,0,1,.186-.322.359.359,0,0,1,.384,0c.161.136,3.89,3.2,4.064,5.253a1.45,1.45,0,0,1-.335,1.115A1.239,1.239,0,0,1,104.483,403.775Zm-2.589-5.712c.335,2.02,1.487,4.646,2.478,4.956a.459.459,0,0,0,.533-.2.756.756,0,0,0,.173-.595c-.136-1.177-1.97-3.073-3.184-4.163Z" transform="translate(-85.978 -41.603)" fill="#263238"/>
      <path id="Caminho_5475" data-name="Caminho 5475" d="M106.813,399.34a12.068,12.068,0,0,1-5.563-1.71.352.352,0,0,1,.112-.632c.2,0,4.869-1.239,6.629-.2a1.425,1.425,0,0,1,.706.929,1.14,1.14,0,0,1-.446,1.239,2.552,2.552,0,0,1-1.437.372Zm-4.423-1.871c1.821.917,4.634,1.536,5.464.966.124-.087.235-.211.161-.545a.719.719,0,0,0-.384-.5c-1.028-.632-3.643-.248-5.241.074Z" transform="translate(-85.979 -41.715)" fill="#263238"/>
      <path id="Caminho_5476" data-name="Caminho 5476" d="M91.181,399.021a58.38,58.38,0,0,0,9.243-13.121s11.5,2.825,9.243,6.2c-4.1,6.009-6.1,18.362-.818,24.978,3.011,3.779-1.747,4.411-4.956,2.788-4.956-2.565-4.795-3.531-7.434-7.781-2.23-3.63-3.11-5.055-6.195-6.616C87.786,404.113,89.025,401.586,91.181,399.021Z" transform="translate(-88.895 -44.221)" fill="#407bff"/>
      <path id="Caminho_5477" data-name="Caminho 5477" d="M186.98,222.33s-16.652,81.278-28.869,116.057c-12.811,36.451-48.185,92.714-49.56,95.13-5.03-1.351-9.515-3.11-12.5-6.022,0,0,16.6-61.021,32.784-100.606,6.195-82.641,19.688-104.5,19.688-104.5Z" transform="translate(-87.185 -83.313)" fill="#263238"/>
      <path id="Caminho_5478" data-name="Caminho 5478" d="M149.079,257.487c-.756,15.723-1.239,37.343-.533,63.66,5.092-16.4,10.631-38.644,15.289-58.6C160.726,258.391,155.894,256.4,149.079,257.487Z" transform="translate(-74.721 -74.981)" opacity="0.2"/>
      <path id="Caminho_5479" data-name="Caminho 5479" d="M149.72,141.89c1.747,7.075,3.457,18.585.669,24.78,0,0,10.432.471,23.764,11.151,6.282-9.218-.991-11.027-.991-11.027-5.538-1.239-5.266-8.673-5.253-13.939Z" transform="translate(-74.358 -102.538)" fill="#ffb573"/>
      <path id="Caminho_5480" data-name="Caminho 5480" d="M148.112,166.284c-5.2-.57-1.611-10.457,1.09-9.491,6.839,2.478,22.178-.273,26.923,2.342s3.544,7.979,3.544,7.979S153.712,166.9,148.112,166.284Z" transform="translate(-75.377 -98.992)" fill="#407bff"/>
      <path id="Caminho_5481" data-name="Caminho 5481" d="M148.112,166.284c-5.2-.57-1.611-10.457,1.09-9.491,6.839,2.478,22.178-.273,26.923,2.342s3.544,7.979,3.544,7.979S153.712,166.9,148.112,166.284Z" transform="translate(-75.377 -98.992)" fill="#fff" opacity="0.7"/>
      <path id="Caminho_5482" data-name="Caminho 5482" d="M172.105,132.19c.173.942.805,1.623,1.425,1.512s.979-.966.818-1.908-.805-1.623-1.425-1.512S171.981,131.249,172.105,132.19Z" transform="translate(-69.014 -105.315)" fill="#263238"/>
      <path id="Caminho_5483" data-name="Caminho 5483" d="M172.55,130.563l2.156-1.053S173.851,131.492,172.55,130.563Z" transform="translate(-68.902 -105.497)" fill="#263238"/>
      <path id="Caminho_5484" data-name="Caminho 5484" d="M174.009,125.881a.545.545,0,0,0,0-.421.57.57,0,0,0-.694-.4,5.637,5.637,0,0,0-3.89,3.37.6.6,0,0,0,.359.719.57.57,0,0,0,.719-.359,4.436,4.436,0,0,1,3.11-2.639.6.6,0,0,0,.4-.273Z" transform="translate(-69.654 -106.564)" fill="#263238"/>
      <path id="Caminho_5485" data-name="Caminho 5485" d="M173,133.68a25.685,25.685,0,0,0,4.052,5.737,4.113,4.113,0,0,1-3.345.991Z" transform="translate(-68.794 -104.5)" fill="#ed893e"/>
      <path id="Caminho_5486" data-name="Caminho 5486" d="M146.093,135.3c2.763,11.5,3.717,16.417,10.494,21.36,10.247,7.434,23.479,1.561,24.148-10.507.595-10.878-4.014-27.84-15.983-30.492S143.33,123.8,146.093,135.3Z" transform="translate(-75.34 -108.904)" fill="#ffb573"/>
      <path id="Caminho_5487" data-name="Caminho 5487" d="M170.767,138.64c6.765-8.946,11.151-16.181,7.843-24.1-2.788-6.616-10.507-4.683-11.585-1.375-20.518-1.747-27.89,5.687-23.652,17.978,2.7,7.843-7.781,3.717-5.229,13.728,1.945,7.632-4.956,10.544-1.45,14.93,5.055,6.331,15.487-1.92,27.394,2.825C173.8,166.517,188.448,160.632,170.767,138.64Z" transform="translate(-77.712 -110.129)" fill="#263238"/>
      <path id="Caminho_5488" data-name="Caminho 5488" d="M163.257,135.932a7.608,7.608,0,0,0,5.142,3.531c2.689.4,3.618-2.627,2.478-5.427-.991-2.478-3.581-5.761-6.121-4.857S161.733,133.516,163.257,135.932Z" transform="translate(-71.329 -105.613)" fill="#ffb573"/>
      <path id="Caminho_5489" data-name="Caminho 5489" d="M167.472,409.192a11.15,11.15,0,0,1-5.86-2.565.351.351,0,0,1,.2-.607c.2,0,4.956-.533,6.591.78a1.375,1.375,0,0,1,.558,1.028,1.115,1.115,0,0,1-.62,1.239A2.044,2.044,0,0,1,167.472,409.192Zm-4.721-2.552c1.685,1.177,4.374,2.205,5.278,1.759.136-.074.26-.186.235-.52a.731.731,0,0,0-.31-.545C167.076,406.566,164.387,406.541,162.752,406.64Z" transform="translate(-71.543 -39.438)" fill="#263238"/>
      <path id="Caminho_5490" data-name="Caminho 5490" d="M161.846,407.624a.384.384,0,0,1-.285-.149.359.359,0,0,1,0-.384c.1-.173,2.478-4.361,4.5-4.869a1.4,1.4,0,0,1,1.165.161,1.127,1.127,0,0,1,.595,1.239c-.273,1.574-3.816,3.593-5.885,4.027Zm4.621-4.758h-.248c-1.165.3-2.738,2.416-3.618,3.791,1.933-.669,4.349-2.23,4.522-3.221a.514.514,0,0,0-.285-.508A.755.755,0,0,0,166.467,402.866Z" transform="translate(-71.541 -40.335)" fill="#263238"/>
      <path id="Caminho_5491" data-name="Caminho 5491" d="M179.611,415.8c-10.036-.781-16.8-7.669-16.107-14.967.384-4.027-12.477-4.386-12.477-4.386,2.032,12.477-.52,14.261-1.363,17.482s-.632,6.79,2.032,6.852c3.184.087,4.671-.52,8.673-.372,4.634.186,9.639.359,17.879.372C181.507,420.8,184.072,416.15,179.611,415.8Z" transform="translate(-74.476 -41.699)" fill="#407bff"/>
      <path id="Caminho_5492" data-name="Caminho 5492" d="M192.629,222.33s-.88,61.566-5.737,102.019-21.559,119.8-21.559,119.8a27.94,27.94,0,0,1-13.344-.124s-5.278-61.95,3.581-121.88c-6.5-62.78-10.581-99.813-10.581-99.813Z" transform="translate(-75.488 -83.313)" fill="#263238"/>
      <path id="Caminho_5493" data-name="Caminho 5493" d="M196.94,179.915c-.211,4.758,7.3,15.76-1.97,22.128,1.735,3.878,3.2,30.132-.31,34.816-5.117,3.717-32.809,3.036-55.755,0-.979-9.491,4.25-29.154-2.156-59.806a12.229,12.229,0,0,1,10.742-14.67c1.933-.186,3.977-.359,6.071-.458a156.442,156.442,0,0,1,21.967,0c2.366.223,4.82.52,7.161.855A16.578,16.578,0,0,1,196.94,179.915Z" transform="translate(-77.52 -97.842)" fill="#407bff"/>
      <g id="Grupo_2505" data-name="Grupo 2505" transform="translate(59.063 63.772)" opacity="0.3">
        <path id="Caminho_5494" data-name="Caminho 5494" d="M137.3,175.3l-.508.285h0a.322.322,0,1,0,.3.558l.57-.31c2.478.9,5.117,2.961,6.641,3.172-2.478-2.168-4.225-3.717-6.195-3.444.582-.347,1.152-.694,1.722-1.066,2.255.843,4.708,2.726,6.108,2.912-2.28-2.007-3.915-3.444-5.712-3.172l1.239-.855.694-.508c2.044.88,4.2,2.751,5.489,3.011-2.057-2.032-3.506-3.469-5.241-3.184.545-.409,1.078-.818,1.6-1.239,1.871.818,3.853,2.478,5.03,2.763-1.883-1.871-3.209-3.184-4.807-2.936l1.338-1.115.322-.273c1.648.867,3.283,2.577,4.361,2.887-1.561-1.871-2.651-3.172-4.287-2.961.421-.359.842-.731,1.239-1.115,1.524.805,3.023,2.379,4.014,2.664-1.437-1.722-2.478-2.912-3.94-2.726l1.313-1.239c1.326.818,2.589,2.3,3.469,2.614-1.239-1.635-2.032-2.763-3.382-2.7.235-.235.471-.458.694-.694l.4-.409c1.239.756,2.391,2.131,3.2,2.416-1.09-1.5-1.871-2.552-3.11-2.478.359-.372.719-.756,1.066-1.14,1.115.607,2.168,1.759,2.912,1.982-.979-1.239-1.673-2.156-2.862-2.032l.2-.211.743-.867a30.766,30.766,0,0,0,2.651,1.8c-.892-1.152-1.524-1.958-2.59-1.871.285-.347.57-.719.818-1.09a.1.1,0,0,0,0-.149.112.112,0,0,0-.136,0h0q-.372.52-.781,1a2.342,2.342,0,0,0-.458-1.635h-.421a16.035,16.035,0,0,1,.681,1.834c-.223.26-.458.508-.681.756l-.161.173c.235-.9-.235-1.685-.954-2.676h-.235c.2.768.781,1.821,1.016,2.837l-.991,1c.322-1.14-.471-2.143-1.574-3.568,0,.855,1.041,2.329,1.437,3.717l-.347.347-.681.644c.31-1.239-.533-2.317-1.735-3.841,0,.917,1.127,2.478,1.561,4l-1.239,1.078c.26-1.239-.57-2.478-1.7-4.089,0,.979,1,2.713,1.412,4.336l-.979.83c.285-1.338-.607-2.651-1.834-4.448,0,1.066,1.09,2.949,1.524,4.708l-.26.211c-.446.372-.9.731-1.363,1.09.359-1.375-.5-2.924-1.673-5.03-.087,1.14.929,3.37,1.239,5.34-.52.4-1.041.768-1.574,1.152.595-1.561-.372-3.308-1.71-5.737-.112,1.239,1.053,3.791,1.388,5.96l-.471.322-1.474.954c.681-1.574-.149-3.432-1.363-5.96-.062.087-.124.173-.173.26.087,1.487.954,3.866,1.14,5.935-.545.347-1.115.669-1.673.979.644-1.313.273-2.8-.52-4.659a11.866,11.866,0,0,0-.434,1.611A21.72,21.72,0,0,1,137.3,175.3Z" transform="translate(-136.565 -161.519)" fill="#263238"/>
        <path id="Caminho_5495" data-name="Caminho 5495" d="M165.317,166.791c-1.871-1.239-3.717-3.382-4.956-3.841,1.7,2.329,2.912,3.977,4.671,3.977-.607.31-1.239.632-1.784.966-1.71-1.1-3.395-3.11-4.522-3.531,1.561,2.143,2.676,3.655,4.287,3.717-.508.285-1,.582-1.5.88l-.359.223c-1.5-1.115-2.837-3.06-3.853-3.544,1.239,2.106,2.119,3.556,3.717,3.605-.483.285-.954.595-1.425.9-1.363-1.028-2.6-2.825-3.531-3.259,1.14,1.92,1.933,3.259,3.457,3.308l-1.487,1c-1.177-1.016-2.193-2.689-3.011-3.135.917,1.8,1.561,3.06,2.912,3.209l-.805.57-.446.335c-1.09-.929-2.032-2.478-2.788-2.887.855,1.66,1.45,2.813,2.689,2.961-.421.31-.83.619-1.239.942-1.016-.768-1.871-2.069-2.577-2.4.781,1.412,1.313,2.391,2.478,2.478l-.223.173-.88.743c-.917-.719-1.7-1.9-2.342-2.205.706,1.239,1.239,2.181,2.267,2.267-.335.3-.669.619-.991.954a.087.087,0,0,0,0,.136.1.1,0,0,0,.136,0h0a10.257,10.257,0,0,1,.929-.867c-.31.843.136,1.7.731,2.862a23.376,23.376,0,0,0-.508-3.048c.26-.223.52-.421.793-.632l.186-.149c-.421.954.062,1.908.743,3.246a29.956,29.956,0,0,0-.558-3.382c.384-.3.756-.57,1.152-.843-.5,1.066.124,2.193.991,3.717.087-.842-.669-2.478-.83-3.89l.4-.285.768-.52c-.5,1.152.161,2.366,1.1,4.064.087-.917-.719-2.664-.9-4.2l1.35-.867c-.458,1.177.161,2.478,1.016,4.3.149-.966-.558-2.837-.706-4.5l1.1-.669c-.5,1.239.173,2.713,1.115,4.683.161-1.053-.619-3.1-.768-4.894l.285-.161,1.524-.867c-.57,1.3,0,2.961.842,5.241.273-1.115-.372-3.482-.4-5.476.582-.31,1.152-.607,1.747-.892-.843,1.45-.173,3.32.781,5.935.3-1.239-.446-3.9-.434-6.1l.508-.248,1.623-.719c-.966,1.512-.359,3.593.508,6.48.4-1.338-.248-4.262-.087-6.653.595-.248,1.239-.471,1.809-.694-1.165,1.648-.5,3.94.458,7.137.446-1.45-.273-4.671-.087-7.261l.558-.2h0a.31.31,0,0,0,.2-.409.334.334,0,0,0-.409-.2l-.607.223a39.45,39.45,0,0,1-4.113-3.011h-.991c1.611,1.92,2.936,3.209,4.584,3.234-.632.235-1.239.508-1.871.781-2.094-1.239-4.213-3.432-5.563-3.853,1.933,2.354,3.321,4.027,5.142,4.039l-1.388.644Z" transform="translate(-132.924 -161.6)" fill="#263238"/>
        <path id="Caminho_5496" data-name="Caminho 5496" d="M152.973,186.223c-1.363-1.487-2.317-2.478-3.655-2.317l.62-.756.347-.446c1.239.607,2.6,1.846,3.444,2.032-1.239-1.363-2.143-2.329-3.382-2.131.322-.409.632-.818.942-1.239,1.177.471,2.354,1.5,3.122,1.635-1.127-1.152-1.908-1.958-3.085-1.7a1.649,1.649,0,0,0,.173-.235c.223-.31.434-.62.644-.942a30.494,30.494,0,0,0,2.85,1.5c-1.028-1.053-1.735-1.784-2.788-1.574a9.786,9.786,0,0,0,.694-1.239.1.1,0,1,0-.186-.087h0a9.741,9.741,0,0,1-.669,1.078c.074-.892-.582-1.6-1.474-2.565a23.541,23.541,0,0,0,1.313,2.813l-.595.818-.149.186c.161-1.028-.57-1.821-1.574-2.924A27.983,27.983,0,0,0,151,181.254l-.88,1.115c.186-1.177-.706-2.082-1.97-3.382.149.842,1.239,2.205,1.846,3.531l-.31.384-.607.706c.173-1.239-.781-2.23-2.143-3.618.161.9,1.4,2.379,1.995,3.8l-1.066,1.239c.124-1.239-.83-2.366-2.143-3.878.124.979,1.313,2.59,1.9,4.151l-.88.942c.136-1.363-.9-2.565-2.329-4.213.124,1.053,1.412,2.813,2.044,4.5l-.235.248c-.4.421-.818.83-1.239,1.239.211-1.4-.805-2.837-2.205-4.807,0,1.14,1.239,3.246,1.846,5.167-.471.446-.954.892-1.437,1.313.421-1.611-.731-3.234-2.342-5.5,0,1.239,1.474,3.643,2.044,5.761l-.434.372c-.446.384-.9.756-1.363,1.127.533-1.722-.619-3.556-2.218-6.108,0,1.388,1.375,4.039,1.858,6.381q-.756.595-1.561,1.152a4.411,4.411,0,0,0-.471-3.482c.149,1.474.273,2.912.372,4.324l.173-.124c2.54.632,5.414,2.366,6.951,2.4-2.676-1.883-4.609-3.221-6.5-2.726.545-.409,1.078-.83,1.6-1.239,2.342.582,4.956,2.181,6.393,2.218-2.478-1.747-4.275-3-6.034-2.478.4-.335.781-.657,1.165-1l.632-.582c2.131.657,4.485,2.28,5.786,2.379-2.255-1.784-3.866-3.048-5.563-2.577.5-.458.979-.929,1.462-1.412,1.945.607,4.113,2.094,5.3,2.193-2.081-1.648-3.556-2.812-5.117-2.379.409-.421.818-.83,1.239-1.239l.285-.31c1.735.681,3.556,2.193,4.659,2.391-1.759-1.685-2.986-2.862-4.584-2.478.372-.409.756-.83,1.115-1.239,1.6.632,3.271,2.02,4.287,2.193-1.611-1.549-2.738-2.614-4.213-2.267.4-.446.781-.9,1.152-1.363C150.644,184.674,152.069,186.012,152.973,186.223Z" transform="translate(-136.055 -157.862)" fill="#263238"/>
        <path id="Caminho_5497" data-name="Caminho 5497" d="M170.422,185.125c-.892.4-2.094,1.995-3.42,3.011l-1.152-.57c1.351-.26,2.193-1.6,3.358-3.444-.979.421-2.28,2.168-3.717,3.271l-.3-.161c-.52-.26-1.028-.545-1.536-.818,1.4-.211,2.478-1.611,3.952-3.531-1.09.372-2.726,2.193-4.4,3.283-.57-.322-1.127-.644-1.685-.991,1.66-.062,2.887-1.648,4.584-3.853-1.239.421-3.06,2.478-4.956,3.643l-.483-.3-1.462-.979c1.784,0,3.209-1.623,5.179-3.9-1.338.372-3.457,2.478-5.551,3.643q-.805-.558-1.561-1.152c2.007.1,3.581-1.7,5.774-4.225-1.474.4-3.8,2.738-6.1,3.977l-.458-.372h0a.335.335,0,0,0-.458,0,.322.322,0,0,0,0,.446l.508.4c.149,2.614-.681,5.873-.273,7.36,1.016-3.122,1.747-5.365.719-7.025.545.4,1.1.781,1.66,1.152.124,2.478-.632,5.4-.248,6.765.942-2.887,1.611-4.956.632-6.5l1.239.818.743.446c0,2.218-.867,4.956-.595,6.195,1.053-2.676,1.8-4.584.855-6.059.582.335,1.239.657,1.772.979,0,2.044-.793,4.535-.545,5.712.966-2.478,1.648-4.225.781-5.588l1.561.793.372.186c-.136,1.846-1.053,4.039-.917,5.142,1.1-2.168,1.858-3.717,1.016-5.1l1.524.706c-.136,1.71-.979,3.717-.843,4.745,1-2.007,1.7-3.395.929-4.7.545.248,1.09.483,1.648.706-.223,1.536-1.09,3.3-1.028,4.225,1.028-1.747,1.735-2.961,1.14-4.175l.917.372.52.2c-.2,1.425-.991,3.036-.942,3.89.942-1.6,1.6-2.726,1.053-3.853.483.186.966.372,1.462.533-.1,1.239-.743,2.689-.644,3.469.768-1.412,1.239-2.4.719-3.444l.273.1c.359.112.719.235,1.09.335a30.967,30.967,0,0,0-.595,3.159c.694-1.239,1.239-2.181.681-3.135a10.015,10.015,0,0,0,1.338.322.1.1,0,0,0,.112-.074.111.111,0,0,0-.074-.124h0c-.421-.087-.83-.2-1.239-.322.867-.2,1.351-1.016,2.007-2.156-.619.273-1.4,1.375-2.292,2.069l-.954-.322-.223-.087c1.028-.149,1.574-1.078,2.329-2.366-.706.31-1.561,1.536-2.565,2.28-.434-.161-.88-.322-1.313-.508,1.165-.161,1.784-1.239,2.639-2.862-.756.384-1.722,1.883-2.825,2.788l-.458-.186-.855-.372c1.239-.186,1.908-1.4,2.837-3.1-.818.409-1.859,2.02-3.048,3.011-.5-.211-.979-.434-1.462-.669C168.576,188.049,169.356,186.822,170.422,185.125Z" transform="translate(-131.933 -157.669)" fill="#263238"/>
        <path id="Caminho_5498" data-name="Caminho 5498" d="M164.733,197.623a31.1,31.1,0,0,0,2.924,1.313c-1.078-.979-1.846-1.66-2.874-1.4a11.552,11.552,0,0,0,.619-1.239.1.1,0,0,0-.186-.087h0c-.186.384-.384.756-.595,1.128,0-.892-.694-1.561-1.635-2.478a23.538,23.538,0,0,0,1.474,2.713l-.533.855-.136.2c.087-1.041-.681-1.784-1.759-2.812a30.052,30.052,0,0,0,1.623,3.011L162.862,200c.111-1.177-.843-2.044-2.181-3.246.2.83,1.437,2.119,2.057,3.407l-.285.4c-.173.248-.372.5-.558.743.1-1.239-.917-2.181-2.366-3.469.223.892,1.549,2.28,2.23,3.717-.322.434-.657.855-.991,1.239,0-1.239-.966-2.3-2.379-3.717.186.954,1.474,2.478,2.143,4.014q-.4.508-.818,1c0-1.375-1.053-2.478-2.577-4.064.186,1.041,1.586,2.713,2.329,4.361l-.223.26c-.384.446-.768.88-1.165,1.3.124-1.4-.991-2.788-2.478-4.659.1,1.14,1.5,3.159,2.168,5.043-.446.471-.892.942-1.351,1.4.31-1.623-.942-3.184-2.689-5.34.124,1.239,1.71,3.544,2.4,5.625l-.4.4-1.3,1.239c.421-1.747-.843-3.506-2.589-5.947,0,1.388,1.623,3.952,2.255,6.2-.483.434-.979.855-1.487,1.239.558-1.933-.818-3.878-2.775-6.591,0,1.524,1.784,4.324,2.478,6.839l-.471.372h0a.322.322,0,0,0,.4.508l.5-.409c2.577.458,5.563,2.02,7.1,1.958-2.8-1.71-4.807-2.936-6.666-2.317.508-.434,1.016-.892,1.512-1.35,2.366.434,5.1,1.858,6.517,1.809-2.589-1.586-4.46-2.713-6.195-2.119.372-.359.743-.706,1.1-1.078l.607-.62c2.156.52,4.609,1.982,5.91,2.007-2.366-1.635-4.039-2.8-5.712-2.218.471-.5.917-.991,1.363-1.5,1.995.471,4.237,1.821,5.439,1.846-2.181-1.512-3.717-2.577-5.253-2.057.384-.434.756-.88,1.127-1.326l.26-.335c1.784.57,3.717,1.97,4.807,2.094-1.871-1.574-3.159-2.664-4.733-2.168l1.041-1.313c1.635.52,3.382,1.8,4.411,1.908-1.71-1.437-2.9-2.478-4.349-1.995.359-.471.719-.954,1.066-1.437,1.45.57,2.961,1.821,3.878,1.97-1.462-1.388-2.478-2.366-3.8-2.069.2-.26.384-.533.57-.793s.211-.322.322-.471c1.326.52,2.713,1.673,3.568,1.809-1.351-1.239-2.292-2.181-3.506-1.908q.446-.644.855-1.3c1.239.4,2.478,1.35,3.221,1.437-1.239-1.078-2.032-1.834-3.184-1.5l.161-.248Z" transform="translate(-133.393 -153.651)" fill="#263238"/>
        <path id="Caminho_5499" data-name="Caminho 5499" d="M168.3,211.34q.4-.508.818-.966c-.186.867.347,1.66,1.09,2.751a26.8,26.8,0,0,0-.88-2.974l.706-.719.161-.173c-.3,1,.3,1.9,1.14,3.122a29.991,29.991,0,0,0-.966-3.283l1.028-.979c-.347,1.127.4,2.168,1.462,3.63,0-.855-.966-2.379-1.313-3.717l.372-.322.694-.62c-.359,1.239.446,2.329,1.586,3.9,0-.929-1.028-2.565-1.412-4.052.409-.359.818-.694,1.239-1.041-.31,1.239.471,2.478,1.536,4.151,0-.979-.9-2.763-1.239-4.386l1.016-.793c-.347,1.326.508,2.664,1.673,4.51,0-1.066-.991-3-1.363-4.758l.273-.211,1.4-1.028c-.409,1.35.384,2.924,1.487,5.08.124-1.14-.805-3.407-1.066-5.377.533-.372,1.066-.743,1.611-1.1-.657,1.536.248,3.32,1.512,5.8.149-1.239-.929-3.828-1.239-6.009l.471-.3c.508-.31,1.016-.619,1.524-.9-.781,1.611.087,3.593,1.239,6.356.235-1.375-.756-4.2-.892-6.579.558-.322,1.127-.632,1.71-.917-.954,1.772,0,3.965,1.338,7.025.26-1.5-.843-4.609-.979-7.2l.52-.26h0a.31.31,0,0,0,.149-.421.322.322,0,0,0-.434-.149l-.57.3c-2.416-.991-5.018-3.147-6.53-3.407,2.379,2.255,4.089,3.878,6.034,3.717-.595.31-1.177.657-1.759.991-2.23-.917-4.609-2.887-6-3.122,2.205,2.094,3.791,3.581,5.6,3.37l-1.3.818-.719.483c-2.007-.966-4.1-2.912-5.365-3.209,1.97,2.106,3.37,3.593,5.117,3.37-.558.384-1.1.781-1.648,1.239-1.846-.88-3.717-2.664-4.956-2.936,1.821,1.933,3.11,3.3,4.708,3.11-.458.347-.929.694-1.375,1.053l-.335.273c-1.611-.929-3.184-2.7-4.25-3.048,1.487,1.933,2.478,3.259,4.175,3.11l-1.3,1.066c-1.487-.842-2.936-2.478-3.915-2.8,1.375,1.772,2.329,3,3.841,2.874a15.5,15.5,0,0,0-1.35,1.239c-1.239-.867-2.478-2.4-3.37-2.738,1.127,1.673,1.933,2.837,3.283,2.825l-.731.657-.409.4c-1.239-.805-2.3-2.218-3.11-2.478,1.053,1.536,1.784,2.614,3.036,2.6-.384.359-.756.719-1.115,1.09-1.09-.632-2.106-1.821-2.85-2.069.942,1.239,1.6,2.205,2.8,2.131l-.2.2c-.26.273-.533.558-.781.843-1-.595-1.92-1.673-2.589-1.9.855,1.177,1.45,2.007,2.478,1.97a11.872,11.872,0,0,0-.867,1.053.1.1,0,0,0,0,.149.087.087,0,0,0,.136,0Z" transform="translate(-129.449 -153.541)" fill="#263238"/>
        <path id="Caminho_5500" data-name="Caminho 5500" d="M157.146,224.94q.743-.694,1.45-1.412c1.958.607,4.113,2.094,5.315,2.193-2.082-1.648-3.556-2.813-5.117-2.391.409-.409.818-.83,1.239-1.239l.285-.31c1.735.681,3.544,2.193,4.659,2.391-1.759-1.7-2.986-2.862-4.6-2.478.384-.409.756-.83,1.127-1.239,1.6.632,3.271,2.02,4.287,2.193-1.623-1.549-2.751-2.627-4.213-2.267l1.152-1.363c1.412.657,2.837,1.995,3.717,2.205-1.363-1.474-2.329-2.478-3.717-2.3l.619-.756.347-.446c1.3.607,2.614,1.834,3.457,2.032-1.239-1.375-2.143-2.329-3.382-2.131.322-.409.632-.818.929-1.239,1.239.471,2.354,1.5,3.122,1.635-1.115-1.152-1.9-1.958-3.073-1.7l.173-.235c.211-.31.434-.62.644-.942a31.548,31.548,0,0,0,2.837,1.487c-1.016-1.041-1.735-1.772-2.788-1.574a12.247,12.247,0,0,0,.694-1.177.1.1,0,0,0-.173-.1h0q-.31.558-.669,1.078c0-.892-.582-1.6-1.474-2.565a26.369,26.369,0,0,0,1.239,2.813l-.582.818-.149.186c.161-1.028-.57-1.821-1.586-2.924a31.991,31.991,0,0,0,1.437,3.11c-.285.384-.57.756-.867,1.115.186-1.165-.706-2.082-1.97-3.37.149.842,1.3,2.205,1.846,3.531-.111.124-.211.26-.31.384l-.607.706c.173-1.239-.781-2.23-2.143-3.618.161.9,1.4,2.366,1.995,3.8l-1.066,1.239c.124-1.239-.83-2.366-2.143-3.878.111.966,1.239,2.59,1.883,4.151l-.88.942c.136-1.375-.892-2.565-2.317-4.213.124,1.053,1.412,2.813,2.044,4.5l-.235.248-1.239,1.239c.211-1.4-.818-2.85-2.218-4.807,0,1.14,1.3,3.246,1.846,5.167l-1.425,1.313c.409-1.611-.731-3.234-2.354-5.5,0,1.239,1.487,3.643,2.057,5.761l-.434.372c-.446.384-.9.756-1.363,1.115.533-1.71-.62-3.544-2.218-6.1,0,1.375,1.338,3.977,1.834,6.294h.954c.384-.322.768-.644,1.14-.979s.434-.384.644-.582a40.231,40.231,0,0,1,4.287,1.908h.942C160.182,225.56,158.7,224.506,157.146,224.94Z" transform="translate(-132.819 -149.485)" fill="#263238"/>
        <path id="Caminho_5501" data-name="Caminho 5501" d="M150.67,219.42c0,1.239.929,3.271,1.586,5.34l.942.074C153.086,223.3,152.033,221.6,150.67,219.42Z" transform="translate(-133.194 -147.781)" fill="#263238"/>
        <path id="Caminho_5502" data-name="Caminho 5502" d="M154.64,223.946l1.871.112A3.358,3.358,0,0,0,154.64,223.946Z" transform="translate(-132.245 -146.719)" fill="#263238"/>
        <path id="Caminho_5503" data-name="Caminho 5503" d="M186.962,224.275a1.757,1.757,0,0,0,.1-.223l-.446-.161-.223-.074a1.908,1.908,0,0,0,.942-.446c.112-.322.223-.669.322-1.053a13.546,13.546,0,0,1-1.5,1.412l-1.35-.483c1.165-.173,1.784-1.239,2.639-2.874-.756.384-1.722,1.883-2.825,2.8l-.458-.186-.855-.372c1.239-.2,1.908-1.4,2.837-3.11-.818.421-1.858,2.032-3.048,3.023l-1.462-.669c1.239-.26,2.007-1.487,3.073-3.184-.892.4-2.094,2.007-3.42,3.023l-1.152-.57c1.351-.273,2.193-1.611,3.358-3.457-.979.434-2.28,2.181-3.717,3.271l-.3-.149-1.536-.83c1.4-.211,2.478-1.611,3.952-3.519-1.09.372-2.726,2.193-4.4,3.271-.57-.31-1.128-.644-1.685-.979,1.66-.074,2.887-1.648,4.584-3.853-1.239.409-3.06,2.478-4.956,3.643l-.483-.3c-.5-.322-.979-.644-1.462-.991,1.784,0,3.209-1.623,5.179-3.89-1.338.372-3.457,2.478-5.551,3.643l-1.574-1.165c2.02.1,3.593-1.7,5.786-4.225-1.474.409-3.8,2.738-6.1,3.977l-.458-.359h0a.322.322,0,0,0-.4.508l.508.384c.149,2.614-.681,5.885-.273,7.36,1.016-3.11,1.747-5.352.719-7.025.545.409,1.1.793,1.66,1.165.124,2.4-.632,5.4-.248,6.765.942-2.9,1.611-4.956.632-6.5.434.273.855.558,1.239.818l.743.446c0,2.218-.867,4.956-.595,6.195,1.053-2.689,1.8-4.584.855-6.071.582.347,1.239.669,1.772.979,0,2.044-.793,4.547-.545,5.712.966-2.478,1.648-4.213.781-5.575l1.561.781.372.186c-.136,1.859-1.053,4.039-.917,5.154,1.1-2.181,1.858-3.717,1.016-5.1l1.524.706c-.124,1.66-.917,3.581-.855,4.634h.062c.979-1.933,1.635-3.3.88-4.584l1.648.719c-.186,1.239-.781,2.627-.966,3.605l.335-.062c.793-1.388,1.239-2.478.743-3.494l.9.359.533.211a19.2,19.2,0,0,1-.694,2.577l.57-.173a2.565,2.565,0,0,0,.235-2.366l1.462.533a7.434,7.434,0,0,1-.235,1.239,4.52,4.52,0,0,0,.545-.322,1.735,1.735,0,0,0-.235-.9l.273.087Z" transform="translate(-128.512 -149.65)" fill="#263238"/>
        <path id="Caminho_5504" data-name="Caminho 5504" d="M146.689,201.966h0a.335.335,0,0,0,.223-.4.322.322,0,0,0-.4-.223l-.62.186c-2.193-1.425-4.336-4.027-5.774-4.572,1.908,2.664,3.283,4.572,5.241,4.733-.644.2-1.239.421-1.92.657a50.73,50.73,0,0,1-4.151-3.469v.842c1.239,1.611,2.317,2.689,3.717,2.788-.483.173-.954.359-1.425.558l-.805.335a14.441,14.441,0,0,1-1.5-1.3v1.028a2.912,2.912,0,0,0,1.239.4l-1.239.582v.52l1.673-.719c-.929,1.388-.372,3.308.4,5.972.384-1.239-.2-3.928,0-6.121l.52-.211,1.66-.607c-1.066,1.45-.595,3.568.087,6.492.483-1.3,0-4.262.335-6.629.619-.211,1.239-.409,1.858-.582-1.239,1.574-.743,3.89,0,7.161.533-1.425,0-4.683.384-7.261Z" transform="translate(-135.916 -153.149)" fill="#263238"/>
        <path id="Caminho_5505" data-name="Caminho 5505" d="M139.08,207.77a1.613,1.613,0,0,0,.124.446,11.151,11.151,0,0,0,0-3.246C139.167,205.924,139.13,206.866,139.08,207.77Z" transform="translate(-135.964 -151.235)" fill="#263238"/>
        <path id="Caminho_5506" data-name="Caminho 5506" d="M143.624,223.765l-.458-.731c1-1.982,3.011-4.027,3.333-5.291-2.156,1.92-3.717,3.283-3.494,5.03-.372-.57-.756-1.115-1.14-1.673.929-1.821,2.763-3.717,3.073-4.844-1.982,1.759-3.382,3.011-3.234,4.621l-1.028-1.412-.248-.335c.954-1.586,2.763-3.122,3.147-4.175-1.97,1.437-3.333,2.478-3.209,4.1l-1.041-1.326c.892-1.462,2.552-2.874,2.9-3.841-1.809,1.326-3.06,2.243-2.961,3.717l-.768-.917v.52l.446.545a3.1,3.1,0,0,0-.471-.074v.545l.719-.173.781,1.041a2.714,2.714,0,0,0-1.536,0v.768a12.216,12.216,0,0,1,1.809-.483l.2.26,1,1.437a4.46,4.46,0,0,0-3.023.409c0,.223,0,.458,0,.681a31.483,31.483,0,0,1,3.321-.669c.359.545.706,1.09,1.041,1.648-1.177-.545-2.478-.136-4.275.632v.5h.273a38.89,38.89,0,0,1,4.175-.83l.3.483.533.954.694.087A7.424,7.424,0,0,1,143.624,223.765Z" transform="translate(-136.122 -149.103)" fill="#263238"/>
        <path id="Caminho_5507" data-name="Caminho 5507" d="M138.71,212.885v.582a4.361,4.361,0,0,0,.867-1.128Z" transform="translate(-136.053 -149.473)" fill="#263238"/>
        <path id="Caminho_5508" data-name="Caminho 5508" d="M144.59,223.815l1.1.124a16.814,16.814,0,0,0,2.243-4.039,18.87,18.87,0,0,0-3.345,3.915Z" transform="translate(-134.647 -147.667)" fill="#263238"/>
        <path id="Caminho_5509" data-name="Caminho 5509" d="M143.662,224.073c1.028-2.094,2.85-4.25,3.11-5.563-2.156,2.156-3.717,3.717-3.519,5.514Z" transform="translate(-134.971 -147.999)" fill="#263238"/>
        <path id="Caminho_5510" data-name="Caminho 5510" d="M138.592,214.909a5.132,5.132,0,0,1-.062.979,18.93,18.93,0,0,0,2.379-2.738,10.99,10.99,0,0,0-2.317,1.759Z" transform="translate(-136.096 -149.28)" fill="#263238"/>
      </g>
      <path id="Caminho_5511" data-name="Caminho 5511" d="M208.191,191.241l5.476-5.811,7.6,10.693s-6.406,4.535-12.539,4.361l-.706-1.574A8.6,8.6,0,0,1,208.191,191.241Z" transform="translate(-60.621 -92.132)" fill="#ffb573"/>
      <path id="Caminho_5512" data-name="Caminho 5512" d="M221.244,186.271l2.143,4.027a3.791,3.791,0,0,1-1.549,5.117l-1.784.979-7.6-10.693,4.349-1.239A3.791,3.791,0,0,1,221.244,186.271Z" transform="translate(-59.363 -92.403)" fill="#ffb573"/>
      <path id="Caminho_5513" data-name="Caminho 5513" d="M188.009,174.706l.471,2.366.52,2.478c.372,1.673.731,3.358,1.152,4.956.805,3.32,1.772,6.579,2.8,9.726a66.416,66.416,0,0,0,3.717,8.809,24.035,24.035,0,0,0,4.535,6.319l-2.627-1.239c-.768-.1-.917.136-.508.124a5.55,5.55,0,0,0,1.871-.545,31.036,31.036,0,0,0,5.278-3.085c1.846-1.239,3.717-2.7,5.563-4.2s3.717-3.1,5.526-4.572l.2-.149a4.361,4.361,0,0,1,6.641,5.365A66.6,66.6,0,0,1,219,207.936a64.938,64.938,0,0,1-5.055,6.393,37.566,37.566,0,0,1-6.678,5.922,21.371,21.371,0,0,1-4.956,2.478,15.017,15.017,0,0,1-3.494.768,13.765,13.765,0,0,1-4.411-.322,6.642,6.642,0,0,1-2.342-1.078l-.3-.223a36.054,36.054,0,0,1-9.429-10.519,61.549,61.549,0,0,1-3.048-5.576q-1.35-2.813-2.478-5.625a101.879,101.879,0,0,1-3.643-11.324c-.483-1.908-.942-3.8-1.326-5.724-.186-.966-.384-1.92-.545-2.9s-.31-1.9-.471-3.06a8.673,8.673,0,0,1,17.1-2.85Z" transform="translate(-69.331 -96.45)" fill="#ffb573"/>
      <path id="Caminho_5514" data-name="Caminho 5514" d="M176.851,162.8c7.211.743,12.972,5.526,17,20.753-3.1,4.287-22.612,13.691-22.612,13.691S160.372,161.1,176.851,162.8Z" transform="translate(-70.055 -97.554)" fill="#263238"/>
    </g>
  </g>
</svg>
