<svg id="Search_engines-rafiki" data-name="Search engines-rafiki" xmlns="http://www.w3.org/2000/svg" width="671.357" height="500.242" viewBox="0 0 671.357 500.242">
  <g id="freepik--background-complete--inject-3" transform="translate(0 0)">
    <rect id="Retângulo_4370" data-name="Retângulo 4370" width="671.357" height="0.336" transform="translate(0 439.605)" fill="#e0e0e0"/>
    <rect id="Retângulo_4371" data-name="Retângulo 4371" width="22.638" height="0.336" transform="translate(505.29 449.809)" fill="#e0e0e0"/>
    <rect id="Retângulo_4372" data-name="Retângulo 4372" width="59.831" height="0.336" transform="translate(542.457 449.648)" fill="#e0e0e0"/>
    <rect id="Retângulo_4373" data-name="Retângulo 4373" width="74.48" height="0.336" transform="translate(356.169 451.904)" fill="#e0e0e0"/>
    <rect id="Retângulo_4374" data-name="Retângulo 4374" width="27.821" height="0.336" transform="translate(320.613 451.904)" fill="#e0e0e0"/>
    <rect id="Retângulo_4375" data-name="Retângulo 4375" width="12.219" height="0.336" transform="translate(191.283 449.313)" fill="#e0e0e0"/>
    <rect id="Retângulo_4376" data-name="Retângulo 4376" width="20.194" height="0.336" transform="translate(210.954 449.313)" fill="#e0e0e0"/>
    <rect id="Retângulo_4377" data-name="Retângulo 4377" width="89.371" height="0.336" transform="translate(89.814 455.368)" fill="#e0e0e0"/>
    <path id="Caminho_4105" data-name="Caminho 4105" d="M305.128,434.72H45.863a7.667,7.667,0,0,1-7.653-7.667V62.6A7.667,7.667,0,0,1,45.863,55H305.128a7.667,7.667,0,0,1,7.667,7.667V427.053A7.667,7.667,0,0,1,305.128,434.72ZM45.863,55.269A7.331,7.331,0,0,0,38.546,62.6V427.053a7.331,7.331,0,0,0,7.318,7.331H305.128a7.345,7.345,0,0,0,7.331-7.331V62.6a7.345,7.345,0,0,0-7.331-7.331Z" transform="translate(13.095 -55)" fill="#e0e0e0"/>
    <path id="Caminho_4106" data-name="Caminho 4106" d="M521.445,434.72H262.167a7.68,7.68,0,0,1-7.667-7.667V62.6a7.68,7.68,0,0,1,7.667-7.6H521.445a7.667,7.667,0,0,1,7.64,7.6V427.053A7.667,7.667,0,0,1,521.445,434.72ZM262.167,55.269a7.345,7.345,0,0,0-7.331,7.331V427.053a7.345,7.345,0,0,0,7.331,7.331H521.445a7.345,7.345,0,0,0,7.331-7.331V62.6a7.345,7.345,0,0,0-7.331-7.331Z" transform="translate(87.221 -55)" fill="#e0e0e0"/>
    <rect id="Retângulo_4378" data-name="Retângulo 4378" width="63.591" height="163.623" transform="translate(363.11 275.982)" fill="#e0e0e0"/>
    <path id="Caminho_4107" data-name="Caminho 4107" d="M312.022,391.17h12.084V356.81H299.36Z" transform="translate(102.595 48.435)" fill="#f0f0f0"/>
    <rect id="Retângulo_4379" data-name="Retângulo 4379" width="63.591" height="163.623" transform="translate(125.45 275.982)" fill="#e0e0e0"/>
    <rect id="Retângulo_4380" data-name="Retângulo 4380" width="248.187" height="142.543" transform="translate(178.501 275.982)" fill="#f0f0f0"/>
    <rect id="Retângulo_4381" data-name="Retângulo 4381" width="89.237" height="110.68" transform="translate(306.649 375.571) rotate(-90)" fill="#e0e0e0"/>
    <rect id="Retângulo_4382" data-name="Retângulo 4382" width="89.237" height="110.68" transform="translate(187.873 375.584) rotate(-90)" fill="#e0e0e0"/>
    <rect id="Retângulo_4383" data-name="Retângulo 4383" width="6.566" height="110.68" transform="translate(417.329 398.679) rotate(90)" fill="#e0e0e0"/>
    <rect id="Retângulo_4384" data-name="Retângulo 4384" width="6.566" height="110.68" transform="translate(298.553 398.679) rotate(90)" fill="#e0e0e0"/>
    <rect id="Retângulo_4385" data-name="Retângulo 4385" width="6.566" height="110.68" transform="translate(417.316 385.99) rotate(90)" fill="#e0e0e0"/>
    <rect id="Retângulo_4386" data-name="Retângulo 4386" width="6.566" height="110.68" transform="translate(298.539 386.004) rotate(90)" fill="#e0e0e0"/>
    <path id="Caminho_4108" data-name="Caminho 4108" d="M201.292,278.169H179.42a34.657,34.657,0,0,1-25.151-10.811l72.146,0A34.628,34.628,0,0,1,201.292,278.169Z" transform="translate(52.87 17.778)" fill="#f0f0f0"/>
    <path id="Caminho_4109" data-name="Caminho 4109" d="M290.585,278.169H268.7A34.629,34.629,0,0,1,243.55,267.36h72.184A34.628,34.628,0,0,1,290.585,278.169Z" transform="translate(83.468 17.779)" fill="#f0f0f0"/>
    <path id="Caminho_4110" data-name="Caminho 4110" d="M145.024,391.17H132.94V356.81h24.746Z" transform="translate(45.561 48.435)" fill="#f0f0f0"/>
    <rect id="Retângulo_4387" data-name="Retângulo 4387" width="333.557" height="190.531" transform="translate(91.775 25.498)" fill="#e0e0e0"/>
    <path id="Caminho_4111" data-name="Caminho 4111" d="M423.653,69.61H60.435a1.705,1.705,0,0,0-1.705,1.705h0a1.705,1.705,0,0,0,1.705,1.719H423.653a1.705,1.705,0,0,0,1.705-1.719h0a1.705,1.705,0,0,0-1.705-1.705Z" transform="translate(20.128 -49.993)" fill="#e0e0e0"/>
    <rect id="Retângulo_4388" data-name="Retângulo 4388" width="337.451" height="190.531" transform="translate(95.185 25.498)" fill="#e6e6e6"/>
    <rect id="Retângulo_4389" data-name="Retângulo 4389" width="333.557" height="13.575" transform="translate(91.775 216.029)" fill="#e0e0e0"/>
    <rect id="Retângulo_4390" data-name="Retângulo 4390" width="337.451" height="13.575" transform="translate(107.35 216.029)" fill="#e6e6e6"/>
    <rect id="Retângulo_4391" data-name="Retângulo 4391" width="170.068" height="316.988" transform="translate(422.391 35.73) rotate(90)" fill="#f5f5f5"/>
    <path id="Caminho_4112" data-name="Caminho 4112" d="M195.34,251.678,255.373,81.61H283.7L223.671,251.678Z" transform="translate(66.946 -45.88)" fill="#fafafa"/>
    <path id="Caminho_4113" data-name="Caminho 4113" d="M220.98,251.678,281.013,81.61H292.05L232.031,251.678Z" transform="translate(75.733 -45.88)" fill="#fafafa"/>
    <rect id="Retângulo_4392" data-name="Retângulo 4392" width="170.068" height="1.302" transform="translate(422.391 35.73) rotate(90)" fill="#e0e0e0"/>
    <rect id="Retângulo_4393" data-name="Retângulo 4393" width="17.603" height="164.107" transform="translate(87.921 16.556)" fill="#ebebeb"/>
    <rect id="Retângulo_4394" data-name="Retângulo 4394" width="13.709" height="164.107" transform="translate(98.676 16.556)" fill="#e0e0e0"/>
    <rect id="Retângulo_4395" data-name="Retângulo 4395" width="17.603" height="164.107" transform="translate(105.524 16.556)" fill="#ebebeb"/>
    <rect id="Retângulo_4396" data-name="Retângulo 4396" width="13.709" height="164.107" transform="translate(116.279 16.556)" fill="#e0e0e0"/>
    <rect id="Retângulo_4397" data-name="Retângulo 4397" width="17.603" height="164.107" transform="translate(123.127 16.556)" fill="#ebebeb"/>
    <rect id="Retângulo_4398" data-name="Retângulo 4398" width="10.137" height="164.107" transform="translate(405.701 16.556)" fill="#ebebeb"/>
    <rect id="Retângulo_4399" data-name="Retângulo 4399" width="7.909" height="164.107" transform="translate(411.905 16.556)" fill="#e0e0e0"/>
    <rect id="Retângulo_4400" data-name="Retângulo 4400" width="10.137" height="164.107" transform="translate(415.852 16.556)" fill="#ebebeb"/>
    <rect id="Retângulo_4401" data-name="Retângulo 4401" width="7.909" height="164.107" transform="translate(422.042 16.556)" fill="#e0e0e0"/>
    <rect id="Retângulo_4402" data-name="Retângulo 4402" width="10.137" height="164.107" transform="translate(425.99 16.556)" fill="#ebebeb"/>
    <rect id="Retângulo_4403" data-name="Retângulo 4403" width="22.504" height="61.402" transform="translate(505.895 87.746)" fill="#e6e6e6"/>
    <path id="Caminho_4114" data-name="Caminho 4114" d="M371.73,173.71,366.52,187.9h5.21l31.863-14.192Z" transform="translate(125.612 -14.316)" fill="#f0f0f0"/>
    <path id="Caminho_4115" data-name="Caminho 4115" d="M366.52,173.71V187.9L398.4,173.71Z" transform="translate(125.612 -14.316)" fill="#e0e0e0"/>
    <path id="Caminho_4116" data-name="Caminho 4116" d="M412.32,173.71,407.11,187.9h5.21l31.863-14.192Z" transform="translate(139.523 -14.316)" fill="#f0f0f0"/>
    <path id="Caminho_4117" data-name="Caminho 4117" d="M407.11,173.71V187.9l31.876-14.192Z" transform="translate(139.523 -14.316)" fill="#e0e0e0"/>
    <rect id="Retângulo_4404" data-name="Retângulo 4404" width="34.655" height="10.809" transform="translate(503.411 160.052) rotate(180)" fill="#e0e0e0"/>
    <rect id="Retângulo_4405" data-name="Retângulo 4405" width="98.891" height="10.809" transform="translate(503.397 149.243)" fill="#f0f0f0"/>
    <path id="Caminho_4118" data-name="Caminho 4118" d="M437.16,185.07H382.391l-6.781-74.4h54.769Z" transform="translate(128.727 -35.921)" fill="#e0e0e0"/>
    <path id="Caminho_4119" data-name="Caminho 4119" d="M439.267,185.07H384.5l-6.767-74.4H432.5Z" transform="translate(129.454 -35.921)" fill="#f0f0f0"/>
    <path id="Caminho_4120" data-name="Caminho 4120" d="M389.7,174.738,384.42,116.8h38.294l5.277,57.938Z" transform="translate(131.746 -33.82)" fill="#fafafa"/>
    <path id="Caminho_4121" data-name="Caminho 4121" d="M159.512,261.407s-23.618-40.7,9.144-73.1c0,0,8.553,5.572,8.419,13.065s-9.157,9.4-7.21,15.629,10.46,12.393,4.861,17.563.9,9.762.524,16.113S159.512,261.407,159.512,261.407Z" transform="translate(51.845 -9.313)" fill="#e0e0e0"/>
    <path id="Caminho_4122" data-name="Caminho 4122" d="M167.972,262.491s9.574-46.069-31.728-66.491c0,0-6.351,7.989-3.867,15.052s11.641,6.029,11.776,12.568-6.015,15.052.913,18.194,2.229,9.56,4.592,15.441S167.972,262.491,167.972,262.491Z" transform="translate(45.17 -6.677)" fill="#e0e0e0"/>
    <path id="Caminho_4123" data-name="Caminho 4123" d="M131.8,237.92s.779,30.372,30.882,30.372,30.882-30.372,30.882-30.372Z" transform="translate(45.17 7.689)" fill="#f0f0f0"/>
    <path id="Caminho_4124" data-name="Caminho 4124" d="M396.35,408.128h3.075l8.755-43.182,1.544-7.559,9.547-47h36.643l19.859,97.736h3.075l-20.235-99.6a1.5,1.5,0,0,0-1.477-1.2H418.048a1.477,1.477,0,0,0-1.464,1.2l-8.392,41.329-1.571,7.559Z" transform="translate(135.835 31.477)" fill="#ebebeb"/>
    <path id="Caminho_4125" data-name="Caminho 4125" d="M352.54,408.128h3.075l19.859-97.79h36.643l9.52,47.076,1.531,7.533,8.768,43.182h3.128l-10.3-50.741-1.557-7.533-8.392-41.329a1.5,1.5,0,0,0-1.477-1.2H374.252a1.5,1.5,0,0,0-1.477,1.2Z" transform="translate(120.821 31.477)" fill="#ebebeb"/>
    <path id="Caminho_4126" data-name="Caminho 4126" d="M443.66,344.932H376.336a23.618,23.618,0,0,1-23.6-23.135l-2.511-102.342A17.2,17.2,0,0,1,367.38,202h42.2a17.2,17.2,0,0,1,17.093,15.256Z" transform="translate(120.025 -4.621)" fill="#e6e6e6"/>
    <path id="Caminho_4127" data-name="Caminho 4127" d="M392.46,298.84h65.887a9.224,9.224,0,0,1,9.224,9.224v.322a3.357,3.357,0,0,1-3.357,3.357H392.46Z" transform="translate(134.502 28.568)" fill="#e6e6e6"/>
  </g>
  <g id="freepik--Shadow--inject-3" transform="translate(75.34 469.843)">
    <ellipse id="Elipse_327" data-name="Elipse 327" cx="260.339" cy="15.2" rx="260.339" ry="15.2" fill="#f5f5f5"/>
  </g>
  <g id="freepik--Graphics--inject-3" transform="translate(93.789 31.03)">
    <path id="Caminho_4128" data-name="Caminho 4128" d="M210.458,140.227h0a45.26,45.26,0,0,0-.6-7.466A47,47,0,0,0,163.973,93.42h-.4a46.767,46.767,0,0,0-37.945,19.469c-.712.98-1.343,1.987-1.987,2.994a1.155,1.155,0,0,0-.134.215,46.539,46.539,0,0,0-6.714,24.169v.094a46.834,46.834,0,0,0,84.873,27.19c.7-.98,1.343-1.974,1.974-2.994a1.157,1.157,0,0,0,.134-.215A46.257,46.257,0,0,0,210.458,140.227Zm-91.667-1.061a44.31,44.31,0,0,1,6.217-21.752h14.649a73.957,73.957,0,0,0-3.478,21.752Zm22.92-21.752H162.6v21.752H138.193a71.674,71.674,0,0,1,3.518-21.752Zm22.907-2.014V95.367a16.381,16.381,0,0,1,8.056,2.994c4.981,3.41,9.157,9.4,12.084,17.039Zm20.866,2.014a69.565,69.565,0,0,1,3.223,15.508c.2,2.095.3,4.176.322,6.244H164.618V117.414ZM159.649,95.931a14.192,14.192,0,0,1,2.954-.51v20.02H142.463c3.76-10.124,9.856-17.482,17.187-19.55Zm2.954,45.29v21.752H141.751a68.815,68.815,0,0,1-3.2-15.549q-.282-3.142-.322-6.244Zm0,23.766V185.02a16.422,16.422,0,0,1-8.056-2.994c-4.968-3.41-9.144-9.4-12.084-17.039Zm4.968,19.51a14.031,14.031,0,0,1-2.954.51v-20.06h20.141C181,175.03,174.9,182.4,167.572,184.456Zm-2.954-21.483V141.194h24.411a71.272,71.272,0,0,1-3.518,21.752Zm26.425-21.819H208.5a44.471,44.471,0,0,1-6.217,21.752H187.565a73.958,73.958,0,0,0,3.478-21.752ZM208.5,139.18H191.042c0-2.121-.134-4.27-.336-6.432a71.016,71.016,0,0,0-3.075-15.32h14.622A44.86,44.86,0,0,1,207.88,133a48.216,48.216,0,0,1,.564,6.163Zm-18.623-35.354a45.089,45.089,0,0,1,11.171,11.588H186.893c-3.008-8.311-7.533-14.891-13.078-18.7l-.43-.282a44.9,44.9,0,0,1,16.435,7.385ZM153.8,96.455c-5.653,3.719-10.3,10.487-13.427,18.959h-14.1l.98-1.437a44.565,44.565,0,0,1,26.492-17.536Zm-34.911,44.739h17.388c0,2.122.134,4.27.336,6.432a71.834,71.834,0,0,0,3.075,15.32h-14.7a44.591,44.591,0,0,1-5.626-15.576,43.639,43.639,0,0,1-.564-6.176Zm7.439,23.766h14.045c3.008,8.311,7.533,14.891,13.078,18.7l.443.282a45.142,45.142,0,0,1-27.566-18.986Zm47.143,18.946c5.639-3.706,10.285-10.487,13.427-18.959h14.072c-.322.483-.645.967-.98,1.437A44.511,44.511,0,0,1,173.466,183.906Z" transform="translate(-53.763 -72.863)" fill="#407bff"/>
    <path id="Caminho_4129" data-name="Caminho 4129" d="M210.458,140.227h0a45.26,45.26,0,0,0-.6-7.466A47,47,0,0,0,163.973,93.42h-.4a46.767,46.767,0,0,0-37.945,19.469c-.712.98-1.343,1.987-1.987,2.994a1.155,1.155,0,0,0-.134.215,46.539,46.539,0,0,0-6.714,24.169v.094a46.834,46.834,0,0,0,84.873,27.19c.7-.98,1.343-1.974,1.974-2.994a1.157,1.157,0,0,0,.134-.215A46.257,46.257,0,0,0,210.458,140.227Zm-91.667-1.061a44.31,44.31,0,0,1,6.217-21.752h14.649a73.957,73.957,0,0,0-3.478,21.752Zm22.92-21.752H162.6v21.752H138.193a71.674,71.674,0,0,1,3.518-21.752Zm22.907-2.014V95.367a16.381,16.381,0,0,1,8.056,2.994c4.981,3.41,9.157,9.4,12.084,17.039Zm20.866,2.014a69.565,69.565,0,0,1,3.223,15.508c.2,2.095.3,4.176.322,6.244H164.618V117.414ZM159.649,95.931a14.192,14.192,0,0,1,2.954-.51v20.02H142.463c3.76-10.124,9.856-17.482,17.187-19.55Zm2.954,45.29v21.752H141.751a68.815,68.815,0,0,1-3.2-15.549q-.282-3.142-.322-6.244Zm0,23.766V185.02a16.422,16.422,0,0,1-8.056-2.994c-4.968-3.41-9.144-9.4-12.084-17.039Zm4.968,19.51a14.031,14.031,0,0,1-2.954.51v-20.06h20.141C181,175.03,174.9,182.4,167.572,184.456Zm-2.954-21.483V141.194h24.411a71.272,71.272,0,0,1-3.518,21.752Zm26.425-21.819H208.5a44.471,44.471,0,0,1-6.217,21.752H187.565a73.958,73.958,0,0,0,3.478-21.752ZM208.5,139.18H191.042c0-2.121-.134-4.27-.336-6.432a71.016,71.016,0,0,0-3.075-15.32h14.622A44.86,44.86,0,0,1,207.88,133a48.216,48.216,0,0,1,.564,6.163Zm-18.623-35.354a45.089,45.089,0,0,1,11.171,11.588H186.893c-3.008-8.311-7.533-14.891-13.078-18.7l-.43-.282a44.9,44.9,0,0,1,16.435,7.385ZM153.8,96.455c-5.653,3.719-10.3,10.487-13.427,18.959h-14.1l.98-1.437a44.565,44.565,0,0,1,26.492-17.536Zm-34.911,44.739h17.388c0,2.122.134,4.27.336,6.432a71.834,71.834,0,0,0,3.075,15.32h-14.7a44.591,44.591,0,0,1-5.626-15.576,43.639,43.639,0,0,1-.564-6.176Zm7.439,23.766h14.045c3.008,8.311,7.533,14.891,13.078,18.7l.443.282a45.142,45.142,0,0,1-27.566-18.986Zm47.143,18.946c5.639-3.706,10.285-10.487,13.427-18.959h14.072c-.322.483-.645.967-.98,1.437A44.511,44.511,0,0,1,173.466,183.906Z" transform="translate(-53.763 -72.863)" fill="#fafafa" opacity="0.8"/>
    <rect id="Retângulo_4406" data-name="Retângulo 4406" width="422.15" height="102.288" transform="translate(40.335 89.68)" fill="#407bff"/>
    <rect id="Retângulo_4407" data-name="Retângulo 4407" width="422.15" height="102.288" transform="translate(40.335 89.68)" fill="#fafafa" opacity="0.6"/>
    <rect id="Retângulo_4408" data-name="Retângulo 4408" width="422.15" height="102.288" transform="translate(30.815 99.2)" fill="#407bff"/>
    <rect id="Retângulo_4409" data-name="Retângulo 4409" width="422.15" height="102.288" transform="translate(30.815 99.2)" opacity="0.3"/>
    <rect id="Retângulo_4410" data-name="Retângulo 4410" width="422.15" height="102.288" transform="translate(21.295 108.72)" fill="#407bff"/>
    <rect id="Retângulo_4411" data-name="Retângulo 4411" width="422.15" height="102.288" transform="translate(21.295 108.72)" fill="#fafafa" opacity="0.1"/>
    <rect id="Retângulo_4412" data-name="Retângulo 4412" width="62.007" height="381.868" transform="translate(423.304 128.86) rotate(90)" fill="#407bff"/>
    <rect id="Retângulo_4413" data-name="Retângulo 4413" width="62.007" height="381.868" transform="translate(423.304 128.86) rotate(90)" fill="#fafafa" opacity="0.9"/>
    <rect id="Retângulo_4414" data-name="Retângulo 4414" width="62.007" height="2.242" transform="translate(359.069 190.867) rotate(-90)" fill="#407bff"/>
    <rect id="Retângulo_4415" data-name="Retângulo 4415" width="62.007" height="2.242" transform="translate(359.069 190.867) rotate(-90)" fill="#fafafa" opacity="0.6"/>
    <rect id="Retângulo_4416" data-name="Retângulo 4416" width="44.9" height="2.242" transform="translate(50.956 182.314) rotate(-90)" fill="#407bff"/>
    <rect id="Retângulo_4417" data-name="Retângulo 4417" width="44.9" height="2.242" transform="translate(50.956 182.314) rotate(-90)" fill="#fafafa" opacity="0.6"/>
    <path id="Caminho_4130" data-name="Caminho 4130" d="M362.958,208.059a9.909,9.909,0,1,1,7.009-16.918h0a9.909,9.909,0,0,1-7.009,16.918Zm0-17.12a7.224,7.224,0,1,0,5.1,2.108h0a7.157,7.157,0,0,0-5.1-2.175Z" transform="translate(27.208 -40.367)" fill="#407bff"/>
    <path id="Caminho_4131" data-name="Caminho 4131" d="M372.094,208.577a1.343,1.343,0,0,1-.953-.4l-6.781-6.781a1.343,1.343,0,1,1,1.893-1.893l6.781,6.781a1.35,1.35,0,0,1-.94,2.3Z" transform="translate(30.922 -36.669)" fill="#407bff"/>
    <g id="Grupo_2262" data-name="Grupo 2262" transform="translate(380.26 147.873)" opacity="0.6">
      <path id="Caminho_4132" data-name="Caminho 4132" d="M362.958,208.059a9.909,9.909,0,1,1,7.009-16.918h0a9.909,9.909,0,0,1-7.009,16.918Zm0-17.12a7.224,7.224,0,1,0,5.1,2.108h0a7.157,7.157,0,0,0-5.1-2.175Z" transform="translate(-353.052 -188.24)" fill="#fafafa"/>
      <path id="Caminho_4133" data-name="Caminho 4133" d="M372.094,208.577a1.343,1.343,0,0,1-.953-.4l-6.781-6.781a1.343,1.343,0,1,1,1.893-1.893l6.781,6.781a1.35,1.35,0,0,1-.94,2.3Z" transform="translate(-349.338 -184.542)" fill="#fafafa"/>
    </g>
    <rect id="Retângulo_4418" data-name="Retângulo 4418" width="42.215" height="1.047" transform="translate(256.861 27.848)" fill="#407bff"/>
    <rect id="Retângulo_4419" data-name="Retângulo 4419" width="42.215" height="1.047" transform="translate(256.861 32.292)" fill="#407bff"/>
    <rect id="Retângulo_4420" data-name="Retângulo 4420" width="42.215" height="1.047" transform="translate(256.861 36.75)" fill="#407bff"/>
    <rect id="Retângulo_4421" data-name="Retângulo 4421" width="42.215" height="1.047" transform="translate(256.861 41.194)" fill="#407bff"/>
    <rect id="Retângulo_4422" data-name="Retângulo 4422" width="42.215" height="1.047" transform="translate(256.861 45.639)" fill="#407bff"/>
    <rect id="Retângulo_4423" data-name="Retângulo 4423" width="27.526" height="1.047" transform="translate(256.861 50.097)" fill="#407bff"/>
    <g id="Grupo_2263" data-name="Grupo 2263" transform="translate(256.861 27.848)" opacity="0.5">
      <rect id="Retângulo_4424" data-name="Retângulo 4424" width="42.215" height="1.047" fill="#fafafa"/>
      <rect id="Retângulo_4425" data-name="Retângulo 4425" width="42.215" height="1.047" transform="translate(0 4.444)" fill="#fafafa"/>
      <rect id="Retângulo_4426" data-name="Retângulo 4426" width="42.215" height="1.047" transform="translate(0 8.902)" fill="#fafafa"/>
      <rect id="Retângulo_4427" data-name="Retângulo 4427" width="42.215" height="1.047" transform="translate(0 13.347)" fill="#fafafa"/>
      <rect id="Retângulo_4428" data-name="Retângulo 4428" width="42.215" height="1.047" transform="translate(0 17.791)" fill="#fafafa"/>
      <rect id="Retângulo_4429" data-name="Retângulo 4429" width="27.526" height="1.047" transform="translate(0 22.249)" fill="#fafafa"/>
    </g>
    <rect id="Retângulo_4430" data-name="Retângulo 4430" width="44.981" height="0.671" transform="translate(0 219.843)" fill="#407bff"/>
    <rect id="Retângulo_4431" data-name="Retângulo 4431" width="44.981" height="0.671" transform="translate(0 222.689)" fill="#407bff"/>
    <rect id="Retângulo_4432" data-name="Retângulo 4432" width="44.981" height="0.671" transform="translate(0 225.536)" fill="#407bff"/>
    <rect id="Retângulo_4433" data-name="Retângulo 4433" width="44.981" height="0.671" transform="translate(0 228.382)" fill="#407bff"/>
    <rect id="Retângulo_4434" data-name="Retângulo 4434" width="44.981" height="0.671" transform="translate(0 231.229)" fill="#407bff"/>
    <rect id="Retângulo_4435" data-name="Retângulo 4435" width="28.278" height="0.671" transform="translate(0 234.089)" fill="#407bff"/>
    <g id="Grupo_2264" data-name="Grupo 2264" transform="translate(0 219.843)" opacity="0.4">
      <rect id="Retângulo_4436" data-name="Retângulo 4436" width="44.981" height="0.671" fill="#fafafa"/>
      <rect id="Retângulo_4437" data-name="Retângulo 4437" width="44.981" height="0.671" transform="translate(0 2.847)" fill="#fafafa"/>
      <rect id="Retângulo_4438" data-name="Retângulo 4438" width="44.981" height="0.671" transform="translate(0 5.693)" fill="#fafafa"/>
      <rect id="Retângulo_4439" data-name="Retângulo 4439" width="44.981" height="0.671" transform="translate(0 8.54)" fill="#fafafa"/>
      <rect id="Retângulo_4440" data-name="Retângulo 4440" width="44.981" height="0.671" transform="translate(0 11.386)" fill="#fafafa"/>
      <rect id="Retângulo_4441" data-name="Retângulo 4441" width="28.278" height="0.671" transform="translate(0 14.246)" fill="#fafafa"/>
    </g>
    <path id="Caminho_4134" data-name="Caminho 4134" d="M215.616,103.76h0a8.486,8.486,0,0,0-8.486,8.486v28a8.486,8.486,0,0,0,8.486,8.486h0a8.486,8.486,0,0,0,8.486-8.486v-28a8.486,8.486,0,0,0-8.486-8.486Z" transform="translate(-22.802 -69.319)" fill="#407bff"/>
    <path id="Caminho_4135" data-name="Caminho 4135" d="M215.616,103.76h0a8.486,8.486,0,0,0-8.486,8.486v28a8.486,8.486,0,0,0,8.486,8.486h0a8.486,8.486,0,0,0,8.486-8.486v-28a8.486,8.486,0,0,0-8.486-8.486Z" transform="translate(-22.802 -69.319)" fill="#fafafa" opacity="0.2"/>
    <path id="Caminho_4136" data-name="Caminho 4136" d="M231.446,91.33h0A8.486,8.486,0,0,0,223,99.816V144.5a8.486,8.486,0,0,0,8.486,8.486h0a8.486,8.486,0,0,0,8.486-8.486V99.816a8.486,8.486,0,0,0-8.526-8.486Z" transform="translate(-17.363 -73.579)" fill="#407bff"/>
    <path id="Caminho_4137" data-name="Caminho 4137" d="M231.446,91.33h0A8.486,8.486,0,0,0,223,99.816V144.5a8.486,8.486,0,0,0,8.486,8.486h0a8.486,8.486,0,0,0,8.486-8.486V99.816a8.486,8.486,0,0,0-8.526-8.486Z" transform="translate(-17.363 -73.579)" opacity="0.3"/>
    <path id="Caminho_4138" data-name="Caminho 4138" d="M247.286,116.19h0a8.486,8.486,0,0,0-8.486,8.486v11.306a8.486,8.486,0,0,0,8.486,8.486h0a8.486,8.486,0,0,0,8.5-8.486V124.676a8.486,8.486,0,0,0-8.5-8.486Z" transform="translate(-11.948 -65.059)" fill="#407bff"/>
    <path id="Caminho_4139" data-name="Caminho 4139" d="M247.286,116.19h0a8.486,8.486,0,0,0-8.486,8.486v11.306a8.486,8.486,0,0,0,8.486,8.486h0a8.486,8.486,0,0,0,8.5-8.486V124.676a8.486,8.486,0,0,0-8.5-8.486Z" transform="translate(-11.948 -65.059)" fill="#fafafa" opacity="0.6"/>
    <path id="Caminho_4140" data-name="Caminho 4140" d="M384.8,274.634h34.306L360.54,213.89h0L384.8,274.634" transform="translate(29.774 -31.576)" fill="#407bff"/>
    <g id="Grupo_2265" data-name="Grupo 2265" transform="translate(390.314 182.314)" opacity="0.1">
      <path id="Caminho_4141" data-name="Caminho 4141" d="M384.8,274.634h34.306L360.54,213.89h0L384.8,274.634" transform="translate(-360.54 -213.89)"/>
    </g>
    <path id="Caminho_4142" data-name="Caminho 4142" d="M354.05,242.57l8.714-28.68,4.941,28.68Z" transform="translate(27.55 -31.576)" fill="#407bff"/>
    <path id="Caminho_4143" data-name="Caminho 4143" d="M360.54,213.89v84.994l6.069-6.056L384.8,274.634Z" transform="translate(29.774 -31.576)" fill="#407bff"/>
    <path id="Caminho_4144" data-name="Caminho 4144" d="M360.54,213.89v84.994l6.069-6.056L384.8,274.634Z" transform="translate(29.774 -31.576)" fill="#fafafa" opacity="0.3"/>
    <path id="Caminho_4145" data-name="Caminho 4145" d="M428.586,78.11H353.394A14.448,14.448,0,0,0,339,92.49v38.831a14.448,14.448,0,0,0,14.38,14.38h55.172l-.4,13.575L422.074,145.7h6.485a14.448,14.448,0,0,0,14.394-14.38V92.49A14.448,14.448,0,0,0,428.586,78.11ZM351.7,94.652a4.028,4.028,0,0,1,4.028-4.028h17.308a4.028,4.028,0,0,1,0,8.056H355.717a4.028,4.028,0,0,1-4.015-4.028Zm72.614,37.6H394.4a4.028,4.028,0,1,1,0-7.935h29.916a4.028,4.028,0,1,1,0,7.935Zm0-16.8H359.745a4.028,4.028,0,1,1,0-7.935h64.571a4.028,4.028,0,1,1,0,7.935Zm0-16.8H386.089a4.028,4.028,0,0,1,0-8.056h38.227a4.028,4.028,0,0,1,0,8.056Z" transform="translate(22.392 -78.11)" fill="#407bff"/>
  </g>
  <g id="freepik--Character--inject-3" transform="translate(150.802 95.486)">
    <path id="Caminho_4146" data-name="Caminho 4146" d="M352.758,175.873A72.1,72.1,0,0,0,338.323,152H231.564a72.1,72.1,0,0,0-14.434,23.873L231.9,249.4a72.144,72.144,0,0,0,120.844-73.527Z" transform="translate(-76.388 -117.242)" fill="#407bff"/>
    <path id="Caminho_4147" data-name="Caminho 4147" d="M352.758,175.873A72.1,72.1,0,0,0,338.323,152H231.564a72.1,72.1,0,0,0-14.434,23.873L231.9,249.4a72.144,72.144,0,0,0,120.844-73.527Z" transform="translate(-76.388 -117.242)" fill="#fafafa" opacity="0.1"/>
    <path id="Caminho_4148" data-name="Caminho 4148" d="M358.109,197.749A71.9,71.9,0,0,1,339.1,243.307H233.022a72.252,72.252,0,0,1-14.77-73.527H353.866a71.728,71.728,0,0,1,4.243,27.969Z" transform="translate(-77.484 -111.149)" fill="#407bff"/>
    <path id="Caminho_4149" data-name="Caminho 4149" d="M358.109,197.749A71.9,71.9,0,0,1,339.1,243.307H233.022a72.252,72.252,0,0,1-14.77-73.527H353.866a71.728,71.728,0,0,1,4.243,27.969Z" transform="translate(-77.484 -111.149)" fill="#fafafa" opacity="0.9"/>
    <path id="Caminho_4150" data-name="Caminho 4150" d="M358.038,209.845a71.983,71.983,0,1,1-4.256-27.969,71.983,71.983,0,0,1,4.256,27.969Z" transform="translate(-77.412 -123.245)" fill="#fff" opacity="0.3"/>
    <path id="Caminho_4151" data-name="Caminho 4151" d="M326.458,146.351,222.72,240.959q-.779-1.437-1.531-2.9a71.165,71.165,0,0,1-6.539-20.141h0l89.6-81.718a71.728,71.728,0,0,1,22.209,10.151Z" transform="translate(-77.238 -122.657)" fill="#fff" opacity="0.4"/>
    <path id="Caminho_4152" data-name="Caminho 4152" d="M350.144,178.178l-97.468,88.941a72.077,72.077,0,0,1-26.156-19.657l106.5-97.132a72.17,72.17,0,0,1,17.12,27.848Z" transform="translate(-73.17 -117.815)" fill="#fff" opacity="0.4"/>
    <path id="Caminho_4153" data-name="Caminho 4153" d="M360.949,167.786a83.248,83.248,0,1,0-30.426,113.647,83.248,83.248,0,0,0,30.426-113.647Zm-128.9,74.44a179.39,179.39,0,1,0,.013,0Z" transform="translate(-80.35 -126.114)" fill="#407bff"/>
    <path id="Caminho_4154" data-name="Caminho 4154" d="M360.949,167.786a83.248,83.248,0,1,0-30.426,113.647,83.248,83.248,0,0,0,30.426-113.647Zm-128.9,74.44a179.39,179.39,0,1,0,.013,0Z" transform="translate(-80.35 -126.114)" opacity="0.1"/>
    <path id="Caminho_4155" data-name="Caminho 4155" d="M126.242,251.89l10.285,2.39L128,260.645s-6.109-2.766-6.391-7.1Z" transform="translate(-109.124 -83.009)" fill="#e4897b"/>
    <path id="Caminho_4156" data-name="Caminho 4156" d="M140.4,260.514l-7.412,4.941-6.62-5.425,8.526-6.351Z" transform="translate(-107.493 -82.395)" fill="#e4897b"/>
    <path id="Caminho_4157" data-name="Caminho 4157" d="M261.566,224.619c-10.93,8.056-22.141,15.71-33.407,23.189s-22.678,14.77-34.145,21.927-23.041,14.166-34.655,20.973c-5.8,3.464-11.655,6.821-17.455,10.231a34,34,0,0,1-9.318,4.122,29.2,29.2,0,0,1-5.371.9,22.828,22.828,0,0,1-6.029-.309,11.01,11.01,0,0,1-8.661-12.957,9.4,9.4,0,0,1,.376-1.343,22.236,22.236,0,0,1,2.685-5.371,28.489,28.489,0,0,1,3.437-4.162,34.265,34.265,0,0,1,8.231-6.015c5.868-3.343,11.7-6.714,17.6-10.03,11.762-6.646,23.632-13.118,35.528-19.51s23.941-12.581,36.052-18.623,24.317-11.923,36.777-17.348a8.338,8.338,0,0,1,8.3,14.354Z" transform="translate(-112.311 -97.509)" fill="#407bff"/>
    <path id="Caminho_4158" data-name="Caminho 4158" d="M261.566,224.619c-10.93,8.056-22.141,15.71-33.407,23.189s-22.678,14.77-34.145,21.927-23.041,14.166-34.655,20.973c-5.8,3.464-11.655,6.821-17.455,10.231a34,34,0,0,1-9.318,4.122,29.2,29.2,0,0,1-5.371.9,22.828,22.828,0,0,1-6.029-.309,11.01,11.01,0,0,1-8.661-12.957,9.4,9.4,0,0,1,.376-1.343,22.236,22.236,0,0,1,2.685-5.371,28.489,28.489,0,0,1,3.437-4.162,34.265,34.265,0,0,1,8.231-6.015c5.868-3.343,11.7-6.714,17.6-10.03,11.762-6.646,23.632-13.118,35.528-19.51s23.941-12.581,36.052-18.623,24.317-11.923,36.777-17.348a8.338,8.338,0,0,1,8.3,14.354Z" transform="translate(-112.311 -97.509)" opacity="0.1"/>
    <path id="Caminho_4159" data-name="Caminho 4159" d="M142.4,206.025c-.671,1.088-1.437,2.4-2.162,3.639s-1.437,2.524-2.108,3.827q-2.014,3.847-4.028,7.815c-1.343,2.645-2.43,5.371-3.531,8.056-.537,1.343-1.1,2.685-1.6,4.028l-.752,2.054c-.148.389-.175.551-.269.832s-.134.551-.215.819a41.8,41.8,0,0,0-.792,8.056c-.067,2.887,0,5.827.161,8.795s.322,5.948.591,8.929.537,6.015.819,8.969l-5.183,1.061c-.913-2.994-1.625-5.975-2.336-9s-1.249-6.056-1.772-9.144-.873-6.19-1.1-9.4a46.7,46.7,0,0,1,.255-10.084,13.189,13.189,0,0,1,.269-1.343c.121-.43.242-1.034.349-1.343l.658-2.283c.43-1.517.926-3.021,1.437-4.512,1.034-2.994,2.162-5.935,3.424-8.835s2.6-5.733,4.028-8.526c.738-1.343,1.517-2.779,2.309-4.162s1.584-2.685,2.578-4.149Z" transform="translate(-110.375 -100.748)" fill="#e4897b"/>
    <path id="Caminho_4160" data-name="Caminho 4160" d="M132.624,411.675a12.622,12.622,0,0,1-2.685-.376.228.228,0,0,1-.188-.188.255.255,0,0,1,.107-.255c.363-.242,3.531-2.283,4.753-1.732a.833.833,0,0,1,.483.7,1.343,1.343,0,0,1-.4,1.343A3.034,3.034,0,0,1,132.624,411.675Zm-2.054-.725c1.826.363,3.2.3,3.719-.188a.913.913,0,0,0,.255-.873.363.363,0,0,0-.215-.322C133.7,409.285,131.859,410.171,130.57,410.95Z" transform="translate(-106.336 -29.154)" fill="#407bff"/>
    <path id="Caminho_4161" data-name="Caminho 4161" d="M129.942,411.928a.216.216,0,0,1-.121,0,.228.228,0,0,1-.121-.215c0-.121,0-3.128,1.141-4.136a1.343,1.343,0,0,1,1.047-.336.859.859,0,0,1,.832.7c.242,1.168-1.665,3.424-2.685,4.028a.215.215,0,0,1-.094-.04Zm1.786-4.243a.833.833,0,0,0-.551.215,5.613,5.613,0,0,0-.967,3.3c.994-.806,2.175-2.5,2.027-3.209,0-.121-.094-.255-.4-.3Z" transform="translate(-106.352 -29.77)" fill="#407bff"/>
    <path id="Caminho_4162" data-name="Caminho 4162" d="M168.2,411.673a16.8,16.8,0,0,1-3.29-.376.228.228,0,0,1-.2-.2.255.255,0,0,1,.134-.255c.47-.242,4.632-2.363,5.908-1.665a.792.792,0,0,1,.43.658,1.343,1.343,0,0,1-.456,1.2,3.894,3.894,0,0,1-2.524.644Zm-2.471-.725c2.323.389,4.028.282,4.673-.282a.913.913,0,0,0,.282-.792.309.309,0,0,0-.161-.269C169.826,409.23,167.436,410.129,165.731,410.948Z" transform="translate(-94.354 -29.153)" fill="#407bff"/>
    <path id="Caminho_4163" data-name="Caminho 4163" d="M164.952,411.924a.175.175,0,0,1-.134,0,.2.2,0,0,1-.107-.215c0-.121.255-2.941,1.558-4.028a1.866,1.866,0,0,1,1.343-.43c.685.067.873.416.926.7.188,1.182-2.269,3.437-3.518,4.028Zm2.5-4.243a1.342,1.342,0,0,0-.859.322,5.761,5.761,0,0,0-1.343,3.223c1.262-.765,2.941-2.538,2.82-3.249,0,0,0-.242-.483-.282Z" transform="translate(-94.354 -29.766)" fill="#407bff"/>
    <path id="Caminho_4164" data-name="Caminho 4164" d="M148.473,174.49c.819,6.27,2.685,18.986-1.853,22.826,0,0,1.343,6.391,12.783,7.13,12.648.819,6.445-5.881,6.445-5.881-6.794-2.095-6.284-7.21-4.767-11.937Z" transform="translate(-100.553 -109.535)" fill="#e4897b"/>
    <path id="Caminho_4165" data-name="Caminho 4165" d="M165.6,165.874a.456.456,0,0,1-.228-.067.483.483,0,0,1-.2-.671,4.9,4.9,0,0,1,3.666-2.685.5.5,0,0,1,.094.98h0a4.028,4.028,0,0,0-2.887,2.121.537.537,0,0,1-.443.322Z" transform="translate(-94.219 -113.661)" fill="#263238"/>
    <path id="Caminho_4166" data-name="Caminho 4166" d="M168.16,169.1a22.466,22.466,0,0,0,3.491,5.075,3.625,3.625,0,0,1-2.941.846Z" transform="translate(-93.171 -111.382)" fill="#de5753"/>
    <path id="Caminho_4167" data-name="Caminho 4167" d="M167.5,168.492c.081.846.591,1.477,1.128,1.423s.94-.765.859-1.611-.591-1.477-1.141-1.423S167.422,167.66,167.5,168.492Z" transform="translate(-93.4 -112.144)" fill="#263238"/>
    <path id="Caminho_4168" data-name="Caminho 4168" d="M168,167.125l1.96-.765S169.02,168.025,168,167.125Z" transform="translate(-93.226 -112.321)" fill="#263238"/>
    <path id="Caminho_4169" data-name="Caminho 4169" d="M156.33,416.716h10.46l.7-24.2h-10.46Z" transform="translate(-97.225 -34.813)" fill="#e4897b"/>
    <path id="Caminho_4170" data-name="Caminho 4170" d="M120.96,416.716h10.46l3.357-24.2H124.33Z" transform="translate(-109.347 -34.813)" fill="#e4897b"/>
    <path id="Caminho_4171" data-name="Caminho 4171" d="M132.787,409.64H121.038a.833.833,0,0,0-.832.712l-1.343,9.292a1.678,1.678,0,0,0,1.665,1.866c4.028-.067,6.069-.309,11.239-.309,3.169,0,7.815.322,12.205.322s4.619-4.337,2.793-4.726c-8.191-1.759-9.48-4.189-12.246-6.512A2.685,2.685,0,0,0,132.787,409.64Z" transform="translate(-110.07 -28.945)" fill="#263238"/>
    <path id="Caminho_4172" data-name="Caminho 4172" d="M167.933,409.64H156.2a.819.819,0,0,0-.832.712l-1.343,9.292a1.692,1.692,0,0,0,1.678,1.866c4.028-.067,6.069-.309,11.225-.309,3.182,0,9.748.322,14.139.322s4.619-4.337,2.793-4.726c-8.191-1.759-11.413-4.189-14.179-6.512A2.686,2.686,0,0,0,167.933,409.64Z" transform="translate(-98.019 -28.946)" fill="#263238"/>
    <path id="Caminho_4173" data-name="Caminho 4173" d="M167.389,392.52l-.349,12.474H156.58l.363-12.474Z" transform="translate(-97.14 -34.813)" fill="#ce6f64"/>
    <path id="Caminho_4174" data-name="Caminho 4174" d="M123.9,392.52h10.46l-1.732,12.474H122.17Z" transform="translate(-108.932 -34.813)" fill="#ce6f64"/>
    <path id="Caminho_4175" data-name="Caminho 4175" d="M144.915,210.31a53.629,53.629,0,0,1-6.861,8.62l-1.2-.792-13.239-8.795s7.224-16.113,12.662-16.932c5.2-.832,8.983,4.538,10.742,10.285C147.695,204.778,146.58,207.6,144.915,210.31Z" transform="translate(-108.435 -103.422)" fill="#407bff"/>
    <path id="Caminho_4176" data-name="Caminho 4176" d="M144.915,210.31a53.629,53.629,0,0,1-6.861,8.62l-1.2-.792-13.239-8.795s7.224-16.113,12.662-16.932c5.2-.832,8.983,4.538,10.742,10.285C147.695,204.778,146.58,207.6,144.915,210.31Z" transform="translate(-108.435 -103.422)" fill="#fafafa" opacity="0.6"/>
    <path id="Caminho_4177" data-name="Caminho 4177" d="M141.536,206.567a53.629,53.629,0,0,1-6.861,8.62l-1.2-.792c.591-4.834,2.471-9.627,4.619-11.145C139.415,203.384,140.583,204.781,141.536,206.567Z" transform="translate(-105.056 -99.678)" fill="#407bff"/>
    <path id="Caminho_4178" data-name="Caminho 4178" d="M141.536,206.567a53.629,53.629,0,0,1-6.861,8.62l-1.2-.792c.591-4.834,2.471-9.627,4.619-11.145C139.415,203.384,140.583,204.781,141.536,206.567Z" transform="translate(-105.056 -99.678)" fill="#fafafa" opacity="0.4"/>
    <path id="Caminho_4179" data-name="Caminho 4179" d="M186.973,218.623h0c-.631,4.028-1.45,8.768-2.551,14.394-1.343,7.2-3.222,15.831-5.6,26.156l-42.363-2.685c1.826-17.2,2.538-27.834-3.41-63.752a124.635,124.635,0,0,1,18.154-1.195,135.022,135.022,0,0,1,19.228,1.249c8.217,1.343,17.455,3.813,17.455,3.813S190.25,197.529,186.973,218.623Z" transform="translate(-105.204 -103.692)" fill="#407bff"/>
    <path id="Caminho_4180" data-name="Caminho 4180" d="M186.973,218.623h0c-.631,4.028-1.45,8.768-2.551,14.394-1.343,7.2-3.222,15.831-5.6,26.156l-42.363-2.685c1.826-17.2,2.538-27.834-3.41-63.752a124.635,124.635,0,0,1,18.154-1.195,135.022,135.022,0,0,1,19.228,1.249c8.217,1.343,17.455,3.813,17.455,3.813S190.25,197.529,186.973,218.623Z" transform="translate(-105.204 -103.692)" fill="#fafafa" opacity="0.6"/>
    <path id="Caminho_4181" data-name="Caminho 4181" d="M175.338,211.953h0c-.631,4.028-1.45,8.768-2.551,14.394A104.033,104.033,0,0,1,167,211h7.868Z" transform="translate(-93.568 -97.022)" fill="#407bff"/>
    <path id="Caminho_4182" data-name="Caminho 4182" d="M175.338,211.953h0c-.631,4.028-1.45,8.768-2.551,14.394A104.033,104.033,0,0,1,167,211h7.868Z" transform="translate(-93.568 -97.022)" fill="#fafafa" opacity="0.4"/>
    <path id="Caminho_4183" data-name="Caminho 4183" d="M146.331,172.133c1.6,10.245,2.068,14.622,7.774,19.416,8.58,7.224,20.812,3.008,22.3-7.519,1.343-9.466-1.5-24.639-11.99-27.781a14.139,14.139,0,0,0-18.086,15.884Z" transform="translate(-100.721 -116)" fill="#e4897b"/>
    <path id="Caminho_4184" data-name="Caminho 4184" d="M171.679,241.9s-.671,18.65-2.283,42.175c-1.343,19.738-3.37,42.886-6.2,61.335l-.081.51C158.024,378.576,135.48,454.9,135.48,454.9H121.22s11.749-73.715,14.327-106.074c6.539-81.731-9.842-90.982,4.968-109Z" transform="translate(-109.258 -87.145)" fill="#407bff"/>
    <path id="Caminho_4185" data-name="Caminho 4185" d="M171.679,241.9s-.671,18.65-2.283,42.175c-1.343,19.738-3.37,42.886-6.2,61.335l-.081.51C158.024,378.576,135.48,454.9,135.48,454.9H121.22s11.749-73.715,14.327-106.074c6.539-81.731-9.842-90.982,4.968-109Z" transform="translate(-109.258 -87.145)" opacity="0.3"/>
    <path id="Caminho_4186" data-name="Caminho 4186" d="M160.569,278.03c-1.343,19.738-3.37,42.886-6.2,61.335-4.82-23.967-12.742-58.972-2.108-81.906C154.8,263.972,157.75,271.33,160.569,278.03Z" transform="translate(-100.431 -81.1)" fill="#407bff"/>
    <path id="Caminho_4187" data-name="Caminho 4187" d="M160.569,278.03c-1.343,19.738-3.37,42.886-6.2,61.335-4.82-23.967-12.742-58.972-2.108-81.906C154.8,263.972,157.75,271.33,160.569,278.03Z" transform="translate(-100.431 -81.1)" opacity="0.4"/>
    <path id="Caminho_4188" data-name="Caminho 4188" d="M175.06,242.438s12.084,71.62,11.359,103.5c-.712,33.165-12.863,108.76-12.863,108.76H159.431s2.229-73.675.98-106.236c-1.343-35.5-16.381-108.048-16.381-108.048Z" transform="translate(-101.441 -86.943)" fill="#407bff"/>
    <path id="Caminho_4189" data-name="Caminho 4189" d="M175.06,242.438s12.084,71.62,11.359,103.5c-.712,33.165-12.863,108.76-12.863,108.76H159.431s2.229-73.675.98-106.236c-1.343-35.5-16.381-108.048-16.381-108.048Z" transform="translate(-101.441 -86.943)" opacity="0.3"/>
    <path id="Caminho_4190" data-name="Caminho 4190" d="M153.871,402.121h18.946l1.477-6.351-21.094.148Z" transform="translate(-98.298 -33.699)" fill="#263238"/>
    <path id="Caminho_4191" data-name="Caminho 4191" d="M119.68,402.121h18.946l1.477-6.351-20.288.148Z" transform="translate(-109.786 -33.699)" fill="#263238"/>
    <path id="Caminho_4192" data-name="Caminho 4192" d="M135.79,238.069l-2.148,3.679c-.175.282.161.6.644.631l44.43,2.887c.376,0,.712-.134.752-.376l.631-3.773c0-.255-.282-.5-.7-.524L136.435,237.8A.819.819,0,0,0,135.79,238.069Z" transform="translate(-105.017 -87.838)" fill="#263238"/>
    <path id="Caminho_4193" data-name="Caminho 4193" d="M139.678,243.242l-1.141-.081c-.228,0-.4-.148-.376-.282l.859-4.9c0-.134.228-.242.457-.228l1.155.067c.228,0,.389.148.376.3L140.148,243C140.121,243.148,139.906,243.255,139.678,243.242Z" transform="translate(-103.453 -87.855)" fill="#407bff"/>
    <path id="Caminho_4194" data-name="Caminho 4194" d="M139.678,243.242l-1.141-.081c-.228,0-.4-.148-.376-.282l.859-4.9c0-.134.228-.242.457-.228l1.155.067c.228,0,.389.148.376.3L140.148,243C140.121,243.148,139.906,243.255,139.678,243.242Z" transform="translate(-103.453 -87.855)" opacity="0.3"/>
    <path id="Caminho_4195" data-name="Caminho 4195" d="M160.388,244.579l-1.141-.067c-.228,0-.4-.148-.376-.3l.859-4.887c0-.148.228-.242.47-.228l1.141.067c.228,0,.4.148.376.3l-.859,4.887C160.871,244.5,160.656,244.592,160.388,244.579Z" transform="translate(-96.355 -87.392)" fill="#407bff"/>
    <path id="Caminho_4196" data-name="Caminho 4196" d="M160.388,244.579l-1.141-.067c-.228,0-.4-.148-.376-.3l.859-4.887c0-.148.228-.242.47-.228l1.141.067c.228,0,.4.148.376.3l-.859,4.887C160.871,244.5,160.656,244.592,160.388,244.579Z" transform="translate(-96.355 -87.392)" opacity="0.3"/>
    <path id="Caminho_4197" data-name="Caminho 4197" d="M178.326,203.31c1.611,5.371,3.142,10.809,4.632,16.233l4.5,16.233.564,2.014.148.5.067.255v.134a4.78,4.78,0,0,0,.175.524,8.607,8.607,0,0,0,1.343,2.256,22.408,22.408,0,0,0,5.505,4.243,70.99,70.99,0,0,0,14.77,5.962l-.779,5.237a55.842,55.842,0,0,1-17.563-3.8,27.834,27.834,0,0,1-8.446-5.21,16.729,16.729,0,0,1-3.491-4.592,12.562,12.562,0,0,1-.631-1.437l-.148-.363-.094-.255-.175-.5-.712-2.027c-1.88-5.371-3.625-10.742-5.277-16.193s-3.276-10.822-4.753-16.3Z" transform="translate(-93.24 -99.658)" fill="#e4897b"/>
    <path id="Caminho_4198" data-name="Caminho 4198" d="M177.406,195.52c5.371,1.759,11.01,19.322,11.01,19.322l-19.389,8.352s-8.056-19.711-4.485-24.169S171.243,193.506,177.406,195.52Z" transform="translate(-94.724 -102.663)" fill="#407bff"/>
    <path id="Caminho_4199" data-name="Caminho 4199" d="M177.406,195.52c5.371,1.759,11.01,19.322,11.01,19.322l-19.389,8.352s-8.056-19.711-4.485-24.169S171.243,193.506,177.406,195.52Z" transform="translate(-94.724 -102.663)" fill="#fafafa" opacity="0.6"/>
    <path id="Caminho_4200" data-name="Caminho 4200" d="M178.419,156.615c-3.424-4.23-29.875-7.251-31.285,4.27-9.4,6.579-.483,23.578.859,27.9-6.485,1.8-27.378,8.942-12.084,22.826s38.227,11.521,42.712-2.847c3.142-10.043-6.834-26.854-6.62-32.735S184.287,163.8,178.419,156.615Z" transform="translate(-106.102 -116.957)" fill="#263238"/>
    <path id="Caminho_4201" data-name="Caminho 4201" d="M147.136,188.85a.309.309,0,0,1-.255-.121c-2.43-2.954-10.889-18.476-7.922-25.861a6.432,6.432,0,0,1,5.68-4.028.322.322,0,0,1,.363.3.336.336,0,0,1-.282.376,5.8,5.8,0,0,0-5.143,3.572c-2.86,7.143,5.438,22.3,7.815,25.2a.322.322,0,0,1-.255.537Z" transform="translate(-103.392 -114.899)" fill="#263238"/>
    <path id="Caminho_4202" data-name="Caminho 4202" d="M159.838,170.5a8.916,8.916,0,0,0,2.685,5.129c1.907,1.826,3.706.577,3.88-1.746.161-2.081-.644-5.532-2.9-6.5S159.556,168.181,159.838,170.5Z" transform="translate(-96.034 -112.061)" fill="#e4897b"/>
    <path id="Caminho_4203" data-name="Caminho 4203" d="M195.459,238.9l7.627-2.591-1.2,9.171s-3.008,1.343-6.9-2.041l-3.719-2.377,2.927-1.6A7.09,7.09,0,0,1,195.459,238.9Z" transform="translate(-85.251 -88.348)" fill="#e4897b"/>
    <path id="Caminho_4204" data-name="Caminho 4204" d="M205.706,236.29l-2.336,8.016-4.189,1.168,1.2-9.157Z" transform="translate(-82.54 -88.355)" fill="#e4897b"/>
  </g>
</svg>
