<svg xmlns="http://www.w3.org/2000/svg" width="628.033" height="498.018" viewBox="0 0 628.033 498.018">
  <g id="Public_talk-rafiki" data-name="Public talk-rafiki" transform="translate(0 -42.28)">
    <g id="freepik--background-complete--inject-2" transform="translate(0 42.28)">
      <rect id="Retângulo_6956" data-name="Retângulo 6956" width="628.033" height="0.314" transform="translate(0 427.213)" fill="#ebebeb"/>
      <rect id="Retângulo_6957" data-name="Retângulo 6957" width="41.601" height="0.314" transform="translate(523.503 447.423)" fill="#ebebeb"/>
      <rect id="Retângulo_6958" data-name="Retângulo 6958" width="10.915" height="0.314" transform="translate(405.119 450.84)" fill="#ebebeb"/>
      <rect id="Retângulo_6959" data-name="Retângulo 6959" width="24.104" height="0.314" transform="translate(498.143 435.767)" fill="#ebebeb"/>
      <rect id="Retângulo_6960" data-name="Retângulo 6960" width="54.25" height="0.314" transform="translate(65.893 437.877)" fill="#ebebeb"/>
      <rect id="Retângulo_6961" data-name="Retângulo 6961" width="7.951" height="0.314" transform="translate(131.334 437.877)" fill="#ebebeb"/>
      <rect id="Retângulo_6962" data-name="Retângulo 6962" width="117.668" height="0.314" transform="translate(165.135 443.178)" fill="#ebebeb"/>
      <path id="Caminho_5660" data-name="Caminho 5660" d="M287.9,410.216H45.37a7.172,7.172,0,0,1-7.16-7.172V62.109A7.172,7.172,0,0,1,45.37,55H287.9a7.172,7.172,0,0,1,7.172,7.172V403.043A7.172,7.172,0,0,1,287.9,410.216ZM45.37,55.251a6.858,6.858,0,0,0-6.846,6.858V403.043A6.858,6.858,0,0,0,45.37,409.9H287.9a6.871,6.871,0,0,0,6.858-6.858V62.109a6.871,6.871,0,0,0-6.858-6.858Z" transform="translate(9.784 -39.023)" fill="#ebebeb"/>
      <path id="Caminho_5661" data-name="Caminho 5661" d="M504.219,410.216H261.672a7.185,7.185,0,0,1-7.172-7.172V62.109A7.185,7.185,0,0,1,261.672,55H504.219a7.172,7.172,0,0,1,7.147,7.109V403.043A7.172,7.172,0,0,1,504.219,410.216ZM261.672,55.251a6.871,6.871,0,0,0-6.858,6.858V403.043a6.871,6.871,0,0,0,6.858,6.858H504.219a6.871,6.871,0,0,0,6.858-6.858V62.109a6.871,6.871,0,0,0-6.858-6.858Z" transform="translate(65.169 -39.023)" fill="#ebebeb"/>
      <rect id="Retângulo_6963" data-name="Retângulo 6963" width="222.462" height="130.568" transform="translate(337.304 84.923)" fill="#e0e0e0"/>
      <rect id="Retângulo_6964" data-name="Retângulo 6964" width="213.23" height="121.097" transform="translate(341.926 89.658)" fill="#ebebeb"/>
      <path id="Caminho_5662" data-name="Caminho 5662" d="M124.358,360.094c0-.44,1.507-44.54,8.679-51.5,6.984-6.783,14.985-.264,15.324,0l.716-.867c-.088-.075-9.132-7.448-16.819,0-7.536,7.3-8.968,50.456-9.019,52.29Z" transform="translate(31.558 24.84)" fill="#e0e0e0"/>
      <path id="Caminho_5663" data-name="Caminho 5663" d="M126.715,370.912c0-.528,4.9-52.943-14.244-74.912l-.842.741c18.841,21.6,14.018,73.543,13.967,74.108Z" transform="translate(28.585 22.689)" fill="#e0e0e0"/>
      <path id="Caminho_5664" data-name="Caminho 5664" d="M124.306,366.195l1.118-.075c0-.6-3.768-59.588,10.3-72.5l-.754-.829C120.525,306.067,124.143,363.745,124.306,366.195Z" transform="translate(31.698 21.867)" fill="#e0e0e0"/>
      <path id="Caminho_5665" data-name="Caminho 5665" d="M128.3,360.843h1.118c0-1.62-.465-39.842-11.3-46.06a7.649,7.649,0,0,0-7.084-.666c-6.569,2.713-9.822,14.407-9.961,14.9l1.08.3c0-.126,3.253-11.656,9.307-14.156a6.569,6.569,0,0,1,6.029.615C127.849,321.654,128.3,360.453,128.3,360.843Z" transform="translate(25.881 27.181)" fill="#e0e0e0"/>
      <path id="Caminho_5666" data-name="Caminho 5666" d="M126.143,360.514l1.13-.063c0-.3-1.645-30.208,6.431-40.734,1.947-2.512,4.07-3.768,6.28-3.617,5.288.364,9.722,8.114,9.76,8.19l.98-.553c-.188-.339-4.773-8.34-10.664-8.792-2.638-.188-5.087,1.181-7.285,4.045C124.485,329.891,126.08,359.27,126.143,360.514Z" transform="translate(32.259 27.536)" fill="#e0e0e0"/>
      <path id="Caminho_5667" data-name="Caminho 5667" d="M125.634,371.424c.214-2.9,5.275-71.181-3.63-83.214l-.9.666c8.654,11.707,3.467,81.757,3.4,82.461Z" transform="translate(31.01 20.694)" fill="#e0e0e0"/>
      <path id="Caminho_5668" data-name="Caminho 5668" d="M110.783,320.364s5.338,1.972,3.768,6.607-18.464,12.3-18.464,12.3-7.072-6.481-.578-17.02S110.645,317.035,110.783,320.364Z" transform="translate(23.754 27.818)" fill="#ebebeb"/>
      <path id="Caminho_5669" data-name="Caminho 5669" d="M126.805,312.881s-5.677-.239-6,4.66,12.309,18.452,12.309,18.452,9.019-3.266,7.084-15.487S128.212,309.816,126.805,312.881Z" transform="translate(30.932 26.458)" fill="#ebebeb"/>
      <path id="Caminho_5670" data-name="Caminho 5670" d="M130.123,295.138s-3.768-.414-3.479-2.726,14.721-8.24,23.237,1.369c0,0-5.451,9.358-13.327,9.471S130.123,295.138,130.123,295.138Z" transform="translate(32.425 20.763)" fill="#ebebeb"/>
      <path id="Caminho_5671" data-name="Caminho 5671" d="M127.063,291.807s3.429,1.658,4.4-.452-8.139-14.8-20.449-11.141c0,0-.327,10.827,6.28,15.073S127.063,291.807,127.063,291.807Z" transform="translate(28.425 18.479)" fill="#ebebeb"/>
      <path id="Caminho_5672" data-name="Caminho 5672" d="M138.432,318.714s-2.613-2.11.214-3.14,16.668-.728,16.806,12.975c0,0-16.128,2.688-18.125-2.512S138.432,318.714,138.432,318.714Z" transform="translate(34.993 27.609)" fill="#ebebeb"/>
      <path id="Caminho_5673" data-name="Caminho 5673" d="M115.36,294.214s2.613-2.11-.2-3.14-16.681-.741-16.819,12.975c0,0,16.128,2.688,18.125-2.512S115.36,294.214,115.36,294.214Z" transform="translate(25.182 21.335)" fill="#ebebeb"/>
      <path id="Caminho_5674" data-name="Caminho 5674" d="M120.1,302.662s.226-2.512-1.846-1.558-9.295,8.792-1.809,16.178c0,0,10.049-7.461,8.265-11.3S120.1,302.662,120.1,302.662Z" transform="translate(28.968 23.941)" fill="#ebebeb"/>
      <path id="Caminho_5675" data-name="Caminho 5675" d="M140.382,305.682s-1.558-2.047.729-2.3,12.561,2.512,10.162,12.724c0,0-12.5-.942-13.038-5.2S140.382,305.682,140.382,305.682Z" transform="translate(35.379 24.576)" fill="#ebebeb"/>
      <path id="Caminho_5676" data-name="Caminho 5676" d="M107.265,391.042h42.882l4.622-46.952H102.63Z" transform="translate(26.28 35.003)" fill="#f0f0f0"/>
      <rect id="Retângulo_6965" data-name="Retângulo 6965" width="56.711" height="10.363" transform="translate(183.335 384.268) rotate(180)" fill="#e6e6e6"/>
      <path id="Caminho_5677" data-name="Caminho 5677" d="M185.034,107.79,143.3,83.51H111.14L68.71,106.647V264.019H185.034Z" transform="translate(17.594 -31.722)" fill="#e0e0e0"/>
      <path id="Caminho_5678" data-name="Caminho 5678" d="M67.76,107.79l1.193-1.143A82.649,82.649,0,0,1,126.519,83.51h0a82.649,82.649,0,0,1,57.566,23.137l1.193,1.143v156.23H67.76Zm109.73,3.354a75.364,75.364,0,0,0-101.942,0V256.207H177.49Z" transform="translate(17.351 -31.722)" fill="#fafafa"/>
      <path id="Caminho_5679" data-name="Caminho 5679" d="M128.157,255.776H122.3V203.549H72.79V197.7H122.3V144.275H72.79v-5.841H122.3V88.92h5.853v49.514h49.514v5.841H128.157V197.7h49.514v5.853H128.157Z" transform="translate(18.639 -30.337)" fill="#f0f0f0"/>
      <path id="Caminho_5680" data-name="Caminho 5680" d="M64.65,107.006l1.143-1.143a87.1,87.1,0,0,1,123.095,0l1.143,1.143V268.712H64.65Zm117.53,3.253a79.3,79.3,0,0,0-109.73,0V260.911H182.18Z" transform="translate(16.555 -32.521)" fill="#f0f0f0"/>
      <circle id="Elipse_261" data-name="Elipse 261" cx="27.847" cy="27.847" r="27.847" transform="translate(496.536)" fill="#e0e0e0"/>
      <circle id="Elipse_262" data-name="Elipse 262" cx="23.677" cy="23.677" r="23.677" transform="translate(500.706 4.17)" fill="#f0f0f0"/>
      <path id="Caminho_5681" data-name="Caminho 5681" d="M418.826,80.755V64.2L407.86,70.4" transform="translate(104.439 -36.667)" fill="#f0f0f0"/>
      <path id="Caminho_5682" data-name="Caminho 5682" d="M419,81.758a.842.842,0,0,1-.842-.842V65.844l-9.709,5.5a.844.844,0,0,1-.829-1.47l10.966-6.2a.854.854,0,0,1,1.256.729V80.916a.854.854,0,0,1-.842.842Z" transform="translate(104.267 -36.828)" fill="#e0e0e0"/>
    </g>
    <g id="freepik--Shadow--inject-2" transform="translate(35.798 487.317)">
      <ellipse id="freepik--path--inject-2" cx="272.604" cy="26.49" rx="272.604" ry="26.49" fill="#f5f5f5"/>
    </g>
    <g id="freepik--speech-bubble--inject-2" transform="translate(404.34 145.679)">
      <path id="Caminho_5683" data-name="Caminho 5683" d="M381.272,124.6H337.1a15.186,15.186,0,0,0-15.186,15.2v18.339a15.186,15.186,0,0,0,15.186,15.2h30.4l9.634,11.016.59-11.016h3.567a15.2,15.2,0,0,0,15.2-15.2V139.8A15.2,15.2,0,0,0,381.272,124.6Z" transform="translate(-321.91 -124.6)" fill="#407bff"/>
      <path id="Caminho_5684" data-name="Caminho 5684" d="M339.135,144.8a3.077,3.077,0,1,1-3.077-3.077A3.077,3.077,0,0,1,339.135,144.8Z" transform="translate(-319.075 -120.216)" fill="#fff"/>
      <path id="Caminho_5685" data-name="Caminho 5685" d="M349.89,144.8a3.065,3.065,0,1,1-.893-2.175,3.065,3.065,0,0,1,.893,2.175Z" transform="translate(-316.315 -120.216)" fill="#fff"/>
      <path id="Caminho_5686" data-name="Caminho 5686" d="M360.665,144.8a3.065,3.065,0,1,1-.893-2.175A3.077,3.077,0,0,1,360.665,144.8Z" transform="translate(-313.562 -120.216)" fill="#fff"/>
      <path id="Caminho_5687" data-name="Caminho 5687" d="M371.435,144.8a3.065,3.065,0,1,1-.893-2.175A3.077,3.077,0,0,1,371.435,144.8Z" transform="translate(-310.804 -120.216)" fill="#fff"/>
    </g>
    <g id="freepik--character-4--inject-2" transform="translate(393.09 202.681)">
      <path id="Caminho_5688" data-name="Caminho 5688" d="M331.539,223.036l-3.1,6.029c-5.275,4.76-10.224-3.09-10.224-3.09l-3.944-2.814a3.58,3.58,0,0,1-.829-4.572l2.135-4.22a3.768,3.768,0,0,1,4.811-2l3.768,1.859a7.536,7.536,0,0,1,2.751,2.349Z" transform="translate(-312.953 -159.192)" fill="#d9877c"/>
      <path id="Caminho_5689" data-name="Caminho 5689" d="M399.763,227.171c-7.109,10.45-21.228,28.563-33.4,32.658-17.208,5.024-36.426-16.329-45.608-28.6a5.891,5.891,0,0,1,8.076-8.29c8.265,5.7,24.732,16.681,30.447,16.932,7.649-7.247,14.633-17.648,21.253-26.151a11.732,11.732,0,0,1,19.23,13.427Z" transform="translate(-311.227 -159.998)" fill="#d9877c"/>
      <path id="Caminho_5690" data-name="Caminho 5690" d="M393.966,211.363a11.719,11.719,0,0,0-16.429,2.3h-.063l-6.142,8.139c-1.959,2.638-3.957,5.225-5.954,7.737,3.065,3.1,8.792,10.551-5.137,10.262h-2.977a2.614,2.614,0,0,1-.8,0,59.035,59.035,0,0,0-24.87,6.984l1.382,1.256a72.239,72.239,0,0,0,9.659,7.361,42.281,42.281,0,0,0,6.13,3.153,24.431,24.431,0,0,0,8.554,1.947,18.616,18.616,0,0,0,6-.791c.54-.176,1.105-.389,1.62-.59l1.193-.553c.427-.188.754-.377,1.08-.553l.98-.553a43.581,43.581,0,0,0,5.841-4.22,95.14,95.14,0,0,0,8.642-8.4c2.625-2.826,5.024-5.728,7.386-8.654a110.6,110.6,0,0,0,6.645-9.169,11.757,11.757,0,0,0-2.738-15.651Z" transform="translate(-308.181 -159.992)" opacity="0.2"/>
      <path id="Caminho_5691" data-name="Caminho 5691" d="M386.138,233.024a48.6,48.6,0,0,1-8.391,14.42A61.083,61.083,0,0,1,364.7,259.15c-1.331.879-2.135,1.319-2.135,1.319l-6.28-11.418h0L350.78,239s.49-.766,1.357-2.06c4.359-6.418,18.351-25.925,30.146-29.543C382.458,207.35,392.695,214.9,386.138,233.024Z" transform="translate(-303.267 -160.4)" fill="#407bff"/>
      <path id="Caminho_5692" data-name="Caminho 5692" d="M386.138,233.024a48.6,48.6,0,0,1-8.391,14.42A61.083,61.083,0,0,1,364.7,259.15c-1.331.879-2.135,1.319-2.135,1.319l-6.28-11.418h0L350.78,239s.49-.766,1.357-2.06c4.359-6.418,18.351-25.925,30.146-29.543C382.458,207.35,392.695,214.9,386.138,233.024Z" transform="translate(-303.267 -160.4)" fill="#fff" opacity="0.7"/>
      <path id="Caminho_5693" data-name="Caminho 5693" d="M365.884,254.6l-4.987,1.545-5.125-9.961-6.733-13.1,3.216-2.763.389.7,5.3,9.421,7.2,12.837Z" transform="translate(-303.713 -154.53)" fill="#407bff"/>
      <path id="Caminho_5694" data-name="Caminho 5694" d="M365.884,254.6l-4.987,1.545-5.125-9.961-6.733-13.1,3.216-2.763.389.7,5.3,9.421,7.2,12.837Z" transform="translate(-303.713 -154.53)" fill="#fff" opacity="0.6"/>
      <path id="Caminho_5695" data-name="Caminho 5695" d="M363.77,255.667l.741,1.319-5.024,1.545-5.087-9.9c.3-1.017.641-2.01,1.017-3h0c.364-.917.741-1.834,1.156-2.726A75.93,75.93,0,0,1,372.349,221a233.881,233.881,0,0,1,4.472,23.036,61.08,61.08,0,0,1-13.051,11.631Z" transform="translate(-302.34 -156.917)" opacity="0.1"/>
      <path id="Caminho_5696" data-name="Caminho 5696" d="M366.39,388.26l16.065.414-1.645,18.942-13.427-.327Z" transform="translate(-299.27 -114.087)" fill="#d9877c"/>
      <path id="Caminho_5697" data-name="Caminho 5697" d="M366.39,388.26l16.065.427-.917,10.6-14.6-.364Z" transform="translate(-299.27 -114.087)" opacity="0.2"/>
      <path id="Caminho_5698" data-name="Caminho 5698" d="M394.894,358.685c4.685-24.418,21.667-53.885,7.775-75.125l-44.289,7.034s1.055,41.94,2.2,64.424c1.181,23.388,6.029,67.413,6.029,67.413l18.389.214S395.17,385.741,394.894,358.685Z" transform="translate(-301.321 -140.897)" fill="#263238"/>
      <path id="Caminho_5699" data-name="Caminho 5699" d="M384.665,396.618l-19.871-.176a.678.678,0,0,1-.678-.615l-.9-7.3a.691.691,0,0,1,.741-.779l22.132,1.495a.7.7,0,0,1,.628.854l-1.357,5.979a.691.691,0,0,1-.691.54Z" transform="translate(-300.085 -114.218)" fill="#263238"/>
      <path id="Caminho_5700" data-name="Caminho 5700" d="M396.441,300.635a120.018,120.018,0,0,1,.4,17.057c-1.7,7.7-3.994,15.45-6.042,22.948C386.191,320.091,384.621,295.849,396.441,300.635Z" transform="translate(-293.899 -136.682)" opacity="0.2"/>
      <path id="Caminho_5701" data-name="Caminho 5701" d="M384.793,401.924a.766.766,0,0,0-.942-.628c-4.032,1.608-11.669.377-14.57-.176a2.4,2.4,0,0,0-1.859.377c-3.077,2.186-11.3,3.517-11.3,3.517a8.969,8.969,0,0,0-.414,4.836h30.761a53.664,53.664,0,0,1-1.67-7.926Z" transform="translate(-302.047 -110.807)" fill="#263238"/>
      <path id="Caminho_5702" data-name="Caminho 5702" d="M407.16,390.659l15.952-1.909,1.105,18.979L410.9,409.337Z" transform="translate(-288.83 -113.962)" fill="#d9877c"/>
      <path id="Caminho_5703" data-name="Caminho 5703" d="M407.16,390.659l15.965-1.909.615,10.626-14.482,1.746Z" transform="translate(-288.83 -113.962)" opacity="0.2"/>
      <path id="Caminho_5704" data-name="Caminho 5704" d="M431.46,357.567c1.256-24.832,8.252-48.421,2.738-75.477L385.94,295.128s6.808,41.45,11.016,63.532c4.384,23,15.236,65.931,15.236,65.931l18.251-2.311S435.442,384.334,431.46,357.567Z" transform="translate(-294.264 -141.274)" fill="#263238"/>
      <path id="Caminho_5705" data-name="Caminho 5705" d="M426.715,395.657l-19.708,2.512a.691.691,0,0,1-.766-.5l-1.9-7.122a.691.691,0,0,1,.628-.867L427.1,388.12a.691.691,0,0,1,.741.754l-.528,6.117a.678.678,0,0,1-.6.666Z" transform="translate(-289.557 -114.124)" fill="#263238"/>
      <path id="Caminho_5706" data-name="Caminho 5706" d="M427.071,401.924a.766.766,0,0,0-.955-.628c-4.019,1.608-11.669.377-14.558-.176a2.4,2.4,0,0,0-1.859.377c-3.077,2.186-11.3,3.517-11.3,3.517a9.018,9.018,0,0,0-.4,4.836h30.749a54.466,54.466,0,0,1-1.671-7.926Z" transform="translate(-291.219 -110.807)" fill="#263238"/>
      <path id="Caminho_5707" data-name="Caminho 5707" d="M444.262,288.1c0,7.536-.465,13.679-1.884,18.087,0,0-65.315,20.939-84.621,3.442-5.916-42.706,8.353-78.73,14.9-93.765a15.073,15.073,0,0,1,11.719-8.893,203.205,203.205,0,0,1,44.691-.678c6.908.754,12.272,4.22,13.817,14.709a48.873,48.873,0,0,1,.452,8.956c-.075,2.587-.113,5.125-.138,7.624-.1,12.36.314,23.664.653,33.537C444.1,277.378,444.274,283.068,444.262,288.1Z" transform="translate(-301.84 -160.917)" fill="#407bff"/>
      <g id="Grupo_2527" data-name="Grupo 2527" transform="translate(54.511 44.463)" opacity="0.7">
        <path id="Caminho_5708" data-name="Caminho 5708" d="M444.262,288.1c0,7.536-.465,13.666-1.9,18.087,0,0-65.315,20.926-84.609,3.442-5.916-42.706,8.353-78.73,14.9-93.778a15.073,15.073,0,0,1,11.719-8.88,203.1,203.1,0,0,1,44.678-.678c6.921.754,12.284,4.22,13.817,14.7a50.076,50.076,0,0,1,.452,8.956v.075c-.075,2.512-.113,5.087-.138,7.536,0,5.59,0,10.965.126,16.078.126,6.218.339,12.046.528,17.459C444.1,277.365,444.274,283.055,444.262,288.1Z" transform="translate(-356.351 -205.38)" fill="#fff"/>
      </g>
      <path id="Caminho_5709" data-name="Caminho 5709" d="M435.458,225.2v.075c-.075,2.512-.113,5.087-.138,7.536,0,5.59,0,10.965.126,16.078-8.152,10.262-27.005,15.073-33.436,9.961s-14.759-16.216-14.759-16.216,5.288-7.7,19.042-18.514C406.694,226.691,435.458,221.78,435.458,225.2Z" transform="translate(-293.928 -156.165)" opacity="0.1"/>
      <path id="Caminho_5710" data-name="Caminho 5710" d="M384.665,396.618l-19.871-.176a.678.678,0,0,1-.678-.615l-.9-7.3a.691.691,0,0,1,.741-.779l22.132,1.495a.7.7,0,0,1,.628.854l-1.357,5.979a.691.691,0,0,1-.691.54Z" transform="translate(-300.085 -114.218)" fill="#fff" opacity="0.1"/>
      <path id="Caminho_5711" data-name="Caminho 5711" d="M426.715,395.657l-19.708,2.512a.691.691,0,0,1-.766-.5l-1.9-7.122a.691.691,0,0,1,.628-.867L427.1,388.12a.691.691,0,0,1,.741.754l-.528,6.117a.678.678,0,0,1-.6.666Z" transform="translate(-289.557 -114.124)" fill="#fff" opacity="0.1"/>
      <path id="Caminho_5712" data-name="Caminho 5712" d="M384.53,211.491a21.353,21.353,0,0,0,2.8,5.929l1.344,4.522,3.128.138,3.58-4.019s3.768-1.47,9.194-6.682l-1.105-1.708a49.576,49.576,0,0,1-8.968,7.323l-6.28-.1a25.4,25.4,0,0,1-1.633-5.941Z" transform="translate(-294.625 -159.818)" fill="#407bff"/>
      <path id="Caminho_5713" data-name="Caminho 5713" d="M392.427,218.974a133.794,133.794,0,0,0-3.454,28.99l-3.768,3-3.015-3s4.22-20.549,7.273-29.254Z" transform="translate(-295.224 -157.503)" fill="#407bff"/>
      <path id="Caminho_5714" data-name="Caminho 5714" d="M399.741,220.052l-15.311-3.366v-3.241a2.989,2.989,0,0,0,2.073-2.085,2.256,2.256,0,0,1,.063-.239,19.1,19.1,0,0,0,0-2.022,9.132,9.132,0,0,0-1.445-4.2l18.339-11.443,2.914-1.821h0c.075,8.127.151,14.545,3.957,17.585C411.285,213.081,407.014,217.314,399.741,220.052Z" transform="translate(-294.65 -164.435)" fill="#d9877c"/>
      <path id="Caminho_5715" data-name="Caminho 5715" d="M406.258,191.66c-.226.615-4.4,19.017-19.9,19.72a2.266,2.266,0,0,1,.063-.239,19.087,19.087,0,0,0,0-2.022,9.132,9.132,0,0,0-1.444-4.2l18.339-11.443Z" transform="translate(-294.51 -164.43)" opacity="0.2"/>
      <path id="Caminho_5716" data-name="Caminho 5716" d="M408.692,200.82a43.258,43.258,0,0,1-16.831,14.307s-5.175-3.668-4.685-8.34c0,0-5.276,4.748-5.024,15.387l6.921-5.954,2.914,2.738,3.19-2.512,4.421,7.084a40.27,40.27,0,0,0,17.221-16.894Z" transform="translate(-295.236 -162.084)" fill="#407bff"/>
      <path id="Caminho_5717" data-name="Caminho 5717" d="M408.692,200.82a43.258,43.258,0,0,1-16.831,14.307s-5.175-3.668-4.685-8.34c0,0-5.276,4.748-5.024,15.387l6.921-5.954,2.914,2.738,3.19-2.512,4.421,7.084a40.27,40.27,0,0,0,17.221-16.894Z" transform="translate(-295.236 -162.084)" fill="#fff" opacity="0.6"/>
      <path id="Caminho_5718" data-name="Caminho 5718" d="M388.507,174.446s-5.451-.578-6.569,3.216,2.135,7.85,2.135,7.85l5.276-6.079Z" transform="translate(-295.349 -168.846)" fill="#263238"/>
      <path id="Caminho_5719" data-name="Caminho 5719" d="M392.406,173.739c10.614-2.361,19.8,6.444,17.748,16.065s-3.655,16.1-10.3,19.394c-13.214,6.519-19.67.251-20.763-9.81C378.112,190.344,381.617,176.138,392.406,173.739Z" transform="translate(-296.058 -169.118)" fill="#d9877c"/>
      <path id="Caminho_5720" data-name="Caminho 5720" d="M391.33,187.28a4.861,4.861,0,0,1,3.668.54A9.432,9.432,0,0,1,391.33,187.28Z" transform="translate(-292.884 -165.589)" opacity="0.2"/>
      <path id="Caminho_5721" data-name="Caminho 5721" d="M391.27,188a4.032,4.032,0,0,1,3.115,1.256A8,8,0,0,1,391.27,188Z" transform="translate(-292.899 -165.368)" opacity="0.2"/>
      <path id="Caminho_5722" data-name="Caminho 5722" d="M390.423,187.687c-.113.842-.666,1.47-1.256,1.382s-.917-.829-.791-1.683.666-1.47,1.256-1.394S390.423,186.833,390.423,187.687Z" transform="translate(-293.647 -165.883)" fill="#263238"/>
      <path id="Caminho_5723" data-name="Caminho 5723" d="M382.422,186.625c-.113.854-.666,1.47-1.256,1.394s-.9-.842-.791-1.7.666-1.47,1.256-1.382S382.548,185.771,382.422,186.625Z" transform="translate(-295.695 -166.152)" fill="#263238"/>
      <path id="Caminho_5724" data-name="Caminho 5724" d="M385.467,187l-.477,7.185a4.484,4.484,0,0,1-3.63-.942A14.532,14.532,0,0,1,385.467,187Z" transform="translate(-295.437 -165.623)" fill="#de5753"/>
      <path id="Caminho_5725" data-name="Caminho 5725" d="M393.2,186.618a.427.427,0,0,0,.251,0,.515.515,0,0,0,.352-.628,5.024,5.024,0,0,0-3.065-3.454.49.49,0,0,0-.628.327.5.5,0,0,0,.327.628h0a4.057,4.057,0,0,1,2.4,2.776.49.49,0,0,0,.364.352Z" transform="translate(-293.201 -166.773)" fill="#263238"/>
      <path id="Caminho_5726" data-name="Caminho 5726" d="M380.336,184.267a.528.528,0,0,0,.44-.2,3.919,3.919,0,0,1,3.2-1.708.49.49,0,0,0,.515-.477.515.515,0,0,0-.477-.54,5.024,5.024,0,0,0-4.057,2.123.515.515,0,0,0,.1.7.5.5,0,0,0,.276.1Z" transform="translate(-295.82 -167.073)" fill="#263238"/>
      <path id="Caminho_5727" data-name="Caminho 5727" d="M400.1,195.428c1.331-2.638.816-6.645,0-10.25a3.68,3.68,0,0,1,2.512-4.522s-.364-2.964-5.552-3.768c-3.09-.5-5.916-1.118-7.536.553s-3.768,1.394-4.271-.553-1.507-6,4.949-6.808,5.991,3.555,8.391,3.467,8.792,1.105,11.744,6.758-2.01,14.709-2.01,14.709-5.188.829-6.481,3.63S400.1,195.428,400.1,195.428Z" transform="translate(-294.535 -169.981)" fill="#263238"/>
      <path id="Caminho_5728" data-name="Caminho 5728" d="M407.6,194.6a8.717,8.717,0,0,1-5.715,3.442c-3.04.427-4.183-2.4-3.027-5.024,1.042-2.387,3.894-5.5,6.8-4.71A3.969,3.969,0,0,1,407.6,194.6Z" transform="translate(-291.069 -165.321)" fill="#d9877c"/>
      <path id="Caminho_5729" data-name="Caminho 5729" d="M381.19,199.352s.8-3.768,2.324-4.874,6.519,0,6.519,0l-.075.867a24.875,24.875,0,0,0-3.53-.377c-.867.1-1.608,5.326.528,6.695s4.258.075,4.283-.339a1.03,1.03,0,0,0-.188-.7l1.62-.515a1.168,1.168,0,0,0,.6,1.055c.691.49,3.153-.691,4.007-2.311s-.917-5.866-1.6-6-4.158,2.16-4.158,2.16l.088-.917s2.512-2.248,4.17-2.3,3.153,1.658,3.655,1.733,2.1-3.3,2.1-3.3l2.236,2.211s2.2,10.89-5.615,14.47-19.268,2.424-18.715-9.257Z" transform="translate(-295.932 -164.799)" fill="#263238"/>
      <path id="Caminho_5730" data-name="Caminho 5730" d="M381.19,199.352s.8-3.768,2.324-4.874,6.519,0,6.519,0l-.075.867a24.875,24.875,0,0,0-3.53-.377c-.867.1-1.608,5.326.528,6.695s4.258.075,4.283-.339a1.03,1.03,0,0,0-.188-.7l1.62-.515a1.168,1.168,0,0,0,.6,1.055c.691.49,3.153-.691,4.007-2.311s-.917-5.866-1.6-6-4.158,2.16-4.158,2.16l.088-.917s2.512-2.248,4.17-2.3,3.153,1.658,3.655,1.733,2.1-3.3,2.1-3.3l2.236,2.211s2.2,10.89-5.615,14.47-19.268,2.424-18.715-9.257Z" transform="translate(-295.932 -164.799)" fill="#263238"/>
      <path id="Caminho_5731" data-name="Caminho 5731" d="M385,196.081a25.379,25.379,0,0,1,1.922,3.844l.9-.176c4.032-.854,5.69-2.349,6.28-3.768a3.844,3.844,0,0,0,.239-2.1,3.467,3.467,0,0,0-.339-1.143c-1.934,1.507-5.652,2.512-7.662,3.027C385.54,195.981,385,196.081,385,196.081Z" transform="translate(-294.504 -164.153)" fill="#263238"/>
      <path id="Caminho_5732" data-name="Caminho 5732" d="M386.1,195.777l.6,1.118c3.768-.816,6.393-1.8,7.4-3a3.467,3.467,0,0,0-.339-1.143C391.828,194.32,388.11,195.287,386.1,195.777Z" transform="translate(-294.223 -164.151)" fill="#fff"/>
      <path id="Caminho_5733" data-name="Caminho 5733" d="M387.26,199.088c4.032-.854,5.69-2.349,6.28-3.768A16.178,16.178,0,0,0,389.194,197,4.8,4.8,0,0,0,387.26,199.088Z" transform="translate(-293.926 -163.493)" fill="#de5753"/>
      <path id="Caminho_5734" data-name="Caminho 5734" d="M443.878,226.707a128.884,128.884,0,0,1-17.1,25.121c-4.472,5.024-10.287,10.3-17.284,11.506a56.612,56.612,0,0,1-17.057,0,157.72,157.72,0,0,1-34.253-8.943,5.878,5.878,0,0,1,2.412-11.3c7.423.389,14.972.892,22.283,1.156s15.211.628,21.83-1.168c.126,0,.842-.364.44-.314a10.732,10.732,0,0,1,.854-.967c6.28-7.3,12.1-17.911,17.309-26.3a11.732,11.732,0,0,1,20.562,11.3Z" transform="translate(-302.298 -159.885)" fill="#d9877c"/>
      <path id="Caminho_5735" data-name="Caminho 5735" d="M362.286,236.7l1.9,6.494c-.565,7.1-9.559,4.8-9.559,4.8l-4.773.653a3.617,3.617,0,0,1-3.768-2.751l-1.357-4.534a3.768,3.768,0,0,1,2.123-4.773l4.019-1.256a7.461,7.461,0,0,1,3.6-.188Z" transform="translate(-304.875 -153.332)" fill="#d9877c"/>
      <path id="Caminho_5736" data-name="Caminho 5736" d="M423.884,206.8c16.668,5.853,15.224,18.364,10.739,27.985-4.245,9.107-22.936,28.462-22.936,28.462L392.47,241.807s10.463-10.513,15.965-20.1S423.884,206.8,423.884,206.8Z" transform="translate(-292.592 -160.553)" fill="#407bff"/>
      <path id="Caminho_5737" data-name="Caminho 5737" d="M423.884,206.8c16.668,5.853,15.224,18.364,10.739,27.985-4.245,9.107-22.936,28.462-22.936,28.462L392.47,241.807s10.463-10.513,15.965-20.1S423.884,206.8,423.884,206.8Z" transform="translate(-292.592 -160.553)" fill="#fff" opacity="0.7"/>
      <path id="Caminho_5738" data-name="Caminho 5738" d="M391.35,236.489l3.015-3.969,19.821,23.325-6.092,2.663Z" transform="translate(-292.878 -153.967)" fill="#407bff"/>
      <path id="Caminho_5739" data-name="Caminho 5739" d="M391.35,236.489l3.015-3.969,19.821,23.325-6.092,2.663Z" transform="translate(-292.878 -153.967)" fill="#fff" opacity="0.6"/>
    </g>
    <g id="freepik--Podium--inject-2" transform="translate(347.478 252.748)">
      <path id="Caminho_5740" data-name="Caminho 5740" d="M349.024,214.788l-3.768,1.545a2.512,2.512,0,0,1-3.354-1.394h0A2.512,2.512,0,0,1,343.3,211.6l3.768-1.545a2.512,2.512,0,0,1,3.341,1.394h0a2.512,2.512,0,0,1-1.382,3.341Z" transform="translate(-259.982 -209.84)" fill="#263238"/>
      <path id="Caminho_5741" data-name="Caminho 5741" d="M325.086,257.254a1.183,1.183,0,0,1-1.181-1.608l12.561-35.17a9.056,9.056,0,0,1,4.924-5.25l6.117-2.613a1.256,1.256,0,0,1,.992,2.3l-6.117,2.625a6.544,6.544,0,0,0-3.555,3.768l-12.561,35.17A1.256,1.256,0,0,1,325.086,257.254Z" transform="translate(-264.556 -209.148)" fill="#263238"/>
      <g id="Grupo_2528" data-name="Grupo 2528" transform="translate(59.276 3.399)" opacity="0.3">
        <path id="Caminho_5742" data-name="Caminho 5742" d="M325.086,257.254a1.183,1.183,0,0,1-1.181-1.608l12.561-35.17a9.056,9.056,0,0,1,4.924-5.25l6.117-2.613a1.256,1.256,0,0,1,.992,2.3l-6.117,2.625a6.544,6.544,0,0,0-3.555,3.768l-12.561,35.17A1.256,1.256,0,0,1,325.086,257.254Z" transform="translate(-323.832 -212.547)" fill="#fff"/>
      </g>
      <path id="Caminho_5743" data-name="Caminho 5743" d="M329.024,214.789l-3.768,1.545a2.512,2.512,0,0,1-3.354-1.394h0A2.512,2.512,0,0,1,323.3,211.6l3.768-1.545a2.512,2.512,0,0,1,3.354,1.394h0a2.512,2.512,0,0,1-1.394,3.341Z" transform="translate(-265.103 -209.841)" fill="#263238"/>
      <path id="Caminho_5744" data-name="Caminho 5744" d="M305.086,257.254a1.1,1.1,0,0,1-1.181-1.608l12.561-35.17a9.057,9.057,0,0,1,4.924-5.25l6.117-2.613a1.256,1.256,0,0,1,.992,2.3l-6.117,2.625a6.469,6.469,0,0,0-3.555,3.768l-12.561,35.17A1.256,1.256,0,0,1,305.086,257.254Z" transform="translate(-269.678 -209.148)" fill="#263238"/>
      <g id="Grupo_2529" data-name="Grupo 2529" transform="translate(34.153 3.399)" opacity="0.3">
        <path id="Caminho_5745" data-name="Caminho 5745" d="M305.086,257.254a1.1,1.1,0,0,1-1.181-1.608l12.561-35.17a9.057,9.057,0,0,1,4.924-5.25l6.117-2.613a1.256,1.256,0,0,1,.992,2.3l-6.117,2.625a6.469,6.469,0,0,0-3.555,3.768l-12.561,35.17A1.256,1.256,0,0,1,305.086,257.254Z" transform="translate(-303.83 -212.547)" fill="#fff"/>
      </g>
      <path id="Caminho_5746" data-name="Caminho 5746" d="M283.11,254.22V235.68l52.227,18.728H412.51v18.527H335.337Z" transform="translate(-274.983 -203.225)" fill="#263238"/>
      <path id="Caminho_5747" data-name="Caminho 5747" d="M283.11,254.22V235.68l52.227,18.728H412.51v18.527H335.337Z" transform="translate(-274.983 -203.225)" fill="#fff" opacity="0.2"/>
      <path id="Caminho_5748" data-name="Caminho 5748" d="M392.206,266.851,343.76,249.48V448.667h48.446Z" transform="translate(-259.453 -199.691)" fill="#263238"/>
      <rect id="Retângulo_6966" data-name="Retângulo 6966" width="71.583" height="199.187" transform="translate(12.711 49.789)" fill="#263238"/>
      <rect id="Retângulo_6967" data-name="Retângulo 6967" width="71.583" height="199.187" transform="translate(12.711 49.789)" fill="#fff" opacity="0.3"/>
      <path id="Caminho_5749" data-name="Caminho 5749" d="M392.206,266.851,343.76,249.48V448.667h48.446Z" transform="translate(-259.453 -199.691)" fill="#fff" opacity="0.2"/>
      <rect id="Retângulo_6968" data-name="Retângulo 6968" width="59.349" height="169.946" transform="translate(17.723 60.855)" opacity="0.2"/>
      <rect id="Retângulo_6969" data-name="Retângulo 6969" width="71.583" height="3.102" transform="translate(12.711 49.525)" opacity="0.2"/>
      <rect id="Retângulo_6970" data-name="Retângulo 6970" width="128.797" height="12.234" transform="translate(8.127 236.742)" fill="#263238"/>
      <path id="Caminho_5750" data-name="Caminho 5750" d="M412.51,254.408v18.527L360.283,254.22H283.11V235.68h77.173Z" transform="translate(-274.983 -203.225)" fill="#263238"/>
      <path id="Caminho_5751" data-name="Caminho 5751" d="M412.51,254.408v18.527L360.283,254.22H283.11V235.68h77.173Z" transform="translate(-274.983 -203.225)" fill="#fff" opacity="0.3"/>
      <rect id="Retângulo_6971" data-name="Retângulo 6971" width="77.173" height="18.527" transform="translate(8.127 32.455)" fill="#fff" opacity="0.2"/>
      <path id="Caminho_5752" data-name="Caminho 5752" d="M360.459,398.32H283.11v5.288h72.023v-3.542Z" transform="translate(-274.983 -161.578)" fill="#fff" opacity="0.2"/>
      <path id="Caminho_5753" data-name="Caminho 5753" d="M342.29,403.607h54.463V401.56Z" transform="translate(-259.829 -160.748)" opacity="0.2"/>
      <rect id="Retângulo_6972" data-name="Retângulo 6972" width="128.797" height="12.234" transform="translate(8.127 236.742)" fill="#fff" opacity="0.3"/>
      <rect id="Retângulo_6973" data-name="Retângulo 6973" width="144.636" height="6.117" transform="translate(0 242.859)" fill="#263238"/>
      <rect id="Retângulo_6974" data-name="Retângulo 6974" width="75.791" height="5.728" transform="translate(0 242.859)" fill="#fff" opacity="0.2"/>
      <rect id="Retângulo_6975" data-name="Retângulo 6975" width="144.636" height="6.117" transform="translate(0 242.859)" fill="#fff" opacity="0.3"/>
    </g>
    <g id="freepik--character-1--inject-2" transform="translate(54.476 252.257)">
      <path id="Caminho_5754" data-name="Caminho 5754" d="M115.565,402.56l-1.218,12.083-.992,9.76H104.11V402.56Z" transform="translate(-27.817 -160.001)" fill="#e4897b"/>
      <path id="Caminho_5755" data-name="Caminho 5755" d="M115.565,402.56l-1.218,12.083-10.237.628V402.56Z" transform="translate(-27.817 -160.001)" opacity="0.2"/>
      <path id="Caminho_5756" data-name="Caminho 5756" d="M115.07,415.31H103.54a.854.854,0,0,0-.842.7l-1.545,9.119a1.608,1.608,0,0,0,1.6,1.834c4.019-.075,5.966-.314,11.041-.314,3.115,0,9.559.327,13.817.327s4.647-4.258,2.864-4.647c-8-1.721-11.1-4.107-13.817-6.381A2.613,2.613,0,0,0,115.07,415.31Z" transform="translate(-28.578 -156.736)" fill="#263238"/>
      <path id="Caminho_5757" data-name="Caminho 5757" d="M99.24,342.425l4.647,87.6,14.319-1.017s11.769-80.514,6.419-88.578S99.24,342.425,99.24,342.425Z" transform="translate(-29.064 -176.713)"/>
      <path id="Caminho_5758" data-name="Caminho 5758" d="M146.565,402.56l-1.218,12.083-.992,9.76H135.11V402.56Z" transform="translate(-19.878 -160.001)" fill="#e4897b"/>
      <path id="Caminho_5759" data-name="Caminho 5759" d="M146.565,402.56l-1.218,12.083-10.237.628V402.56Z" transform="translate(-19.878 -160.001)" opacity="0.2"/>
      <path id="Caminho_5760" data-name="Caminho 5760" d="M110.81,314.848l8.014,10.865s36.426-2.726,47.906,4.936-2,104.944-2,104.944l-14.081,1.256s-1.859-83.93-3.58-84.4-67.677,7.3-77.085,0-2.223-40.835-2.223-40.835Z" transform="translate(-37.795 -183.288)" fill="#263238"/>
      <path id="Caminho_5761" data-name="Caminho 5761" d="M146.07,415.31H134.54a.867.867,0,0,0-.842.7l-1.545,9.119a1.608,1.608,0,0,0,1.6,1.834c4.032-.075,5.966-.314,11.041-.314,3.115,0,9.559.327,13.817.327s4.647-4.258,2.864-4.647c-8-1.721-11.1-4.107-13.754-6.381a2.587,2.587,0,0,0-1.645-.641Z" transform="translate(-20.64 -156.736)" fill="#263238"/>
      <path id="Caminho_5762" data-name="Caminho 5762" d="M57.26,290.916l9.835,4.748,6.167,2.964,3.768-8.906L80.8,280.39l-3.266-17.02C67.472,267.716,57.26,290.916,57.26,290.916Z" transform="translate(-39.813 -195.643)" fill="#407bff"/>
      <path id="Caminho_5763" data-name="Caminho 5763" d="M65.09,292.194l6.167,2.964,3.768-8.906c-.766-5.024-1.407-9.333-1.407-9.333S66.359,283.3,65.09,292.194Z" transform="translate(-37.808 -192.173)" opacity="0.2"/>
      <path id="Caminho_5764" data-name="Caminho 5764" d="M108.77,242.939c0,.729.327,1.331.8,1.357s.879-.553.917-1.256-.327-1.344-.791-1.369S108.808,242.21,108.77,242.939Z" transform="translate(-26.623 -201.2)" fill="#263238"/>
      <path id="Caminho_5765" data-name="Caminho 5765" d="M109.067,243.74a25.9,25.9,0,0,0,3.19,6.381,4.22,4.22,0,0,1-3.517.49Z" transform="translate(-26.631 -200.669)" fill="#de5753"/>
      <path id="Caminho_5766" data-name="Caminho 5766" d="M106.865,239.668a.44.44,0,0,1-.251-.176.427.427,0,0,1,.126-.59,4.233,4.233,0,0,1,3.881-.477.415.415,0,0,1,.214.565.44.44,0,0,1-.565.214h0a3.391,3.391,0,0,0-3.065.414.4.4,0,0,1-.339.05Z" transform="translate(-27.193 -202.099)" fill="#263238"/>
      <path id="Caminho_5767" data-name="Caminho 5767" d="M113.793,256.942a12.863,12.863,0,0,1-1.256,2.851,12.486,12.486,0,0,1-3.768,4.032,12.146,12.146,0,0,1-5.313,2.035,11.166,11.166,0,0,1-9.923-3.768c-4.3-4.8-3.906-10.049-4.032-19.017a12.222,12.222,0,0,1,17.4-11.38C115.5,235.689,116.079,249,113.793,256.942Z" transform="translate(-31.558 -204.049)" fill="#e4897b"/>
      <path id="Caminho_5768" data-name="Caminho 5768" d="M91.868,258.967c3.052,2.952,17.786-.578,17.736-11.593,0,0,6.456-4.71,7.536-11.418s-2.763-10.375-7.926-10.174c-4.547.176-5.024,2.512-5.024,2.512s-20.549-2.7-18.376,6.557C75.464,241.621,88.062,255.3,91.868,258.967Z" transform="translate(-33.524 -205.27)" fill="#263238"/>
      <path id="Caminho_5769" data-name="Caminho 5769" d="M100.81,244.425a10.049,10.049,0,0,0,2.211,6.117c1.846,2.273,3.969,1.043,4.459-1.583.44-2.361,0-6.381-2.324-7.7S100.8,241.75,100.81,244.425Z" transform="translate(-28.662 -201.418)" fill="#e4897b"/>
      <path id="Caminho_5770" data-name="Caminho 5770" d="M110.328,253.989a12.485,12.485,0,0,1-3.768,4.032,12.146,12.146,0,0,1-5.313,2.035,26.374,26.374,0,0,1-3.027-2.8l2.7-4.045S105.844,257.041,110.328,253.989Z" transform="translate(-29.325 -198.245)" opacity="0.2"/>
      <path id="Caminho_5771" data-name="Caminho 5771" d="M87.25,266.319l4.509-13.3s7.712-3.316,14.143,1.256l-.553,10.049Z" transform="translate(-32.134 -198.591)" fill="#e4897b"/>
      <path id="Caminho_5772" data-name="Caminho 5772" d="M83.27,261.849l2.512-3.768s18.941-1.156,26.93,7.536C112.712,265.592,94.235,269.423,83.27,261.849Z" transform="translate(-33.153 -197.01)" fill="#407bff"/>
      <path id="Caminho_5773" data-name="Caminho 5773" d="M83.27,261.849l2.512-3.768s18.941-1.156,26.93,7.536C112.712,265.592,94.235,269.423,83.27,261.849Z" transform="translate(-33.153 -197.01)" opacity="0.2"/>
      <path id="Caminho_5774" data-name="Caminho 5774" d="M124.922,277.981a2.4,2.4,0,0,1-.214.641c-1.7,5.112-3.128,10.124-4.333,14.884-.842,3.3-1.583,6.481-2.248,9.508-2.989,13.817-4.208,24.33-5.175,27.822-7.034,0-33.487-.088-47.932-.138,2.085-43.171,10.513-66.572,10.513-66.572s12.561-6.28,33.725-2.613c7.649,1.319,17.962,5.652,17.962,5.652C124.532,273.083,126.869,272.166,124.922,277.981Z" transform="translate(-37.826 -196.412)" fill="#407bff"/>
      <path id="Caminho_5775" data-name="Caminho 5775" d="M114.488,274.39a2.4,2.4,0,0,1-.214.641c-1.7,5.112-3.128,10.124-4.333,14.884-.842,3.3-1.583,6.481-2.248,9.508-3.278-8.617-1.382-22.672-1.382-22.672Z" transform="translate(-27.393 -192.821)" opacity="0.2"/>
      <path id="Caminho_5776" data-name="Caminho 5776" d="M104.63,280.483c7.16-8.152,15.374-16.442,22.609-24.518,2.261-5.024,3.467-12.561,4.848-18.552l3.768-18.163,6.218.628q0,9.421-.779,18.841c-.678,7.021-1.13,13.716-3.266,20.713a13.34,13.34,0,0,1-1.193,2.638,161.442,161.442,0,0,1-10.388,13.051c-4.057,4.76-8.227,9.383-12.561,13.917Z" transform="translate(-27.683 -206.941)" fill="#dc897c"/>
      <path id="Caminho_5777" data-name="Caminho 5777" d="M130.367,223.663l-5.677-7.21,9.935-2.223s4.673,6.745,1.093,9.006Z" transform="translate(-22.547 -208.226)" fill="#e4897b"/>
      <path id="Caminho_5778" data-name="Caminho 5778" d="M126.876,209.45l5.929.176,1.821,5.816-9.935,2.223Z" transform="translate(-22.547 -209.45)" fill="#e4897b"/>
      <path id="Caminho_5779" data-name="Caminho 5779" d="M101.766,281.594c-1.972-7.624,5.125-13.4,18.841-28.324l12.8,9.709s-8.5,15.148-15.826,19.369S101.766,281.594,101.766,281.594Z" transform="translate(-28.5 -198.229)" fill="#407bff"/>
      <path id="Caminho_5780" data-name="Caminho 5780" d="M90.536,353.55,87.81,442.794h3.856L96.15,353.55Z" transform="translate(-31.99 -172.551)" fill="#263238"/>
      <path id="Caminho_5781" data-name="Caminho 5781" d="M100.24,356.435h34.441l10.9,87.209h4.472L140.007,350.23l-39.767.929Z" transform="translate(-28.807 -173.401)" fill="#263238"/>
      <path id="Caminho_5782" data-name="Caminho 5782" d="M110.892,350.97H59.557L48.83,443.454h2.424l.477-3.354-.389,3.354h2.424l12.335-87h40.144l.314,87h5.213L113.4,350.97Z" transform="translate(-41.972 -173.211)" fill="#263238"/>
      <path id="Caminho_5783" data-name="Caminho 5783" d="M109.259,443.454l1.633-92.484H59.557L48.83,443.454h2.424l12.335-87h42.656l.314,87Z" transform="translate(-41.972 -173.211)" fill="#fff" opacity="0.2"/>
      <path id="Caminho_5784" data-name="Caminho 5784" d="M127.66,355.17h2.814l10.639,87.209h-2.55Z" transform="translate(-21.786 -172.136)" fill="#fff" opacity="0.2"/>
      <path id="Caminho_5785" data-name="Caminho 5785" d="M116.342,359.981l-10.815-89.545a9.609,9.609,0,0,0-9.546-8.466H45.676a2.286,2.286,0,0,0-2.286,2.3v93.2a17.585,17.585,0,0,0,17.585,17.585H161.611a1.105,1.105,0,0,0,1.105-1.105h0a7.875,7.875,0,0,0-7.876-7.863H123.175a6.871,6.871,0,0,1-6.833-6.1Z" transform="translate(-43.365 -196.001)" fill="#263238"/>
      <path id="Caminho_5786" data-name="Caminho 5786" d="M162.7,373.911a1.118,1.118,0,0,1-1.105,1.105H60.955A17.585,17.585,0,0,1,43.37,357.431V264.256a2.3,2.3,0,0,1,.3-1.13,2.274,2.274,0,0,1,1.985-1.156H95.987a9.6,9.6,0,0,1,9.546,8.466l10.815,89.545a6.871,6.871,0,0,0,6.833,6.054h31.64a7.888,7.888,0,0,1,7.876,7.876Z" transform="translate(-43.37 -196.001)" fill="#fff" opacity="0.7"/>
      <path id="Caminho_5787" data-name="Caminho 5787" d="M125.014,374.818H60.955A17.585,17.585,0,0,1,43.37,357.233V264.02a2.3,2.3,0,0,1,.3-1.13H93.914a7.662,7.662,0,0,1,7.624,6.883l9.408,92.346a14.093,14.093,0,0,0,14.068,12.7Z" transform="translate(-43.37 -195.766)" opacity="0.2"/>
    </g>
    <g id="freepik--character-2--inject-2" transform="translate(174.216 266.953)">
      <path id="Caminho_5788" data-name="Caminho 5788" d="M219.554,401.71l1.771,12.008,1.432,9.722-8.968,2.261-5.338-21.19Z" transform="translate(-120.839 -174.915)" fill="#ebb376"/>
      <path id="Caminho_5789" data-name="Caminho 5789" d="M219.554,401.71l1.771,12.008-9.772,3.115-3.1-12.322Z" transform="translate(-120.839 -174.915)" opacity="0.2"/>
      <path id="Caminho_5790" data-name="Caminho 5790" d="M223.4,415.31H211.87a.854.854,0,0,0-.842.7l-1.545,9.119a1.608,1.608,0,0,0,1.6,1.834c4.019-.075,5.966-.314,11.041-.314,3.115,0,9.559.327,13.817.327s4.647-4.258,2.864-4.647c-8-1.721-11.1-4.107-13.817-6.381A2.613,2.613,0,0,0,223.4,415.31Z" transform="translate(-120.579 -171.432)" fill="#263238"/>
      <path id="Caminho_5791" data-name="Caminho 5791" d="M186.46,347.272l27.056,83.453,13.6-4.61s-9.4-80.828-16.63-87.246S186.46,347.272,186.46,347.272Z" transform="translate(-126.47 -191.419)" fill="#407bff"/>
      <path id="Caminho_5792" data-name="Caminho 5792" d="M223.4,415.31H211.87a.854.854,0,0,0-.842.7l-1.545,9.119a1.608,1.608,0,0,0,1.6,1.834c4.019-.075,5.966-.314,11.041-.314,3.115,0,9.559.327,13.817.327s4.647-4.258,2.864-4.647c-8-1.721-11.1-4.107-13.817-6.381A2.613,2.613,0,0,0,223.4,415.31Z" transform="translate(-120.579 -171.432)" fill="#fff" opacity="0.3"/>
      <path id="Caminho_5793" data-name="Caminho 5793" d="M186.46,347.272l27.056,83.453,13.6-4.61s-9.4-80.828-16.63-87.246S186.46,347.272,186.46,347.272Z" transform="translate(-126.47 -191.419)" opacity="0.2"/>
      <path id="Caminho_5794" data-name="Caminho 5794" d="M194.33,293.306,200.3,286.9l3.567,9.031s-5.665,5.4-8.328,2.361Z" transform="translate(-124.455 -204.314)" fill="#ebb376"/>
      <path id="Caminho_5795" data-name="Caminho 5795" d="M207.144,287.734l.716,5.615-5.213,2.575-3.567-9.044Z" transform="translate(-123.239 -204.319)" fill="#ebb376"/>
      <g id="Grupo_2530" data-name="Grupo 2530" transform="translate(69.875 82.561)" opacity="0.1">
        <path id="Caminho_5796" data-name="Caminho 5796" d="M194.33,293.306,200.3,286.9l3.567,9.031s-5.665,5.4-8.328,2.361Z" transform="translate(-194.33 -286.875)"/>
        <path id="Caminho_5797" data-name="Caminho 5797" d="M207.144,287.734l.716,5.615-5.213,2.575-3.567-9.044Z" transform="translate(-193.114 -286.88)"/>
      </g>
      <path id="Caminho_5798" data-name="Caminho 5798" d="M203.118,272.52c5.414,8.893,10.45,17.5,14.407,27.244,3.228,7.536-2.1,12.259-9.508,11.2-8.139-1.08-15.249-3.906-22.546-7.185l1.846-5.966c4.861.691,9.8,1.444,14.533,2,2.914.251,5.69.754,8.2.226-.615.1-1.344.427-2.236,1.746a4.585,4.585,0,0,0-.59,3.115c.075.339-.3-.615-.377-.729-4.3-8.265-9.91-16.969-14.52-25.121Z" transform="translate(-126.724 -207.996)" fill="#e7b278"/>
      <path id="Caminho_5799" data-name="Caminho 5799" d="M241.9,402.56l-1.218,12.083-.992,9.76H230.44V402.56Z" transform="translate(-115.208 -174.697)" fill="#ebb376"/>
      <path id="Caminho_5800" data-name="Caminho 5800" d="M241.9,402.56l-1.218,12.083-10.237.628V402.56Z" transform="translate(-115.208 -174.697)" opacity="0.2"/>
      <path id="Caminho_5801" data-name="Caminho 5801" d="M206.14,314.848l8.014,10.865s36.363-2.726,47.906,4.936-2,104.944-2,104.944L245.97,436.85s-1.859-83.93-3.567-84.4-67.677,7.3-77.085,0-2.223-40.835-2.223-40.835Z" transform="translate(-133.125 -197.984)" fill="#407bff"/>
      <path id="Caminho_5802" data-name="Caminho 5802" d="M182.882,239.444c.063.729.49,1.256.967,1.256s.8-.666.741-1.394-.49-1.256-.967-1.256S182.819,238.716,182.882,239.444Z" transform="translate(-127.389 -216.822)" fill="#263238"/>
      <path id="Caminho_5803" data-name="Caminho 5803" d="M183.22,240.18A26.113,26.113,0,0,0,187.2,246.1a4.183,4.183,0,0,1-3.4.942Z" transform="translate(-127.3 -216.277)" fill="#d58745"/>
      <path id="Caminho_5804" data-name="Caminho 5804" d="M180.568,236.5a.427.427,0,0,1-.226-.754,4.258,4.258,0,0,1,3.768-.98.427.427,0,0,1,.289.528.44.44,0,0,1-.528.289h0a3.416,3.416,0,0,0-2.989.816.44.44,0,0,1-.314.1Z" transform="translate(-128.077 -217.688)" fill="#263238"/>
      <path id="Caminho_5805" data-name="Caminho 5805" d="M189.408,253.032a12.371,12.371,0,0,1-.829,2.989,12.561,12.561,0,0,1-3.216,4.5,12.26,12.26,0,0,1-5.024,2.713,11.141,11.141,0,0,1-10.325-2.424c-4.886-4.2-5.2-9.458-6.494-18.326a12.221,12.221,0,0,1,15.751-13.565C188.328,231.679,190.652,244.8,189.408,253.032Z" transform="translate(-132.383 -219.307)" fill="#ebb376"/>
      <path id="Caminho_5806" data-name="Caminho 5806" d="M185.806,250.33a12.56,12.56,0,0,1-3.215,4.5,12.259,12.259,0,0,1-5.024,2.713,27.277,27.277,0,0,1-3.366-2.374l2.135-4.371S181.762,253.935,185.806,250.33Z" transform="translate(-129.61 -213.678)" opacity="0.2"/>
      <path id="Caminho_5807" data-name="Caminho 5807" d="M179.221,253.77c-.553,4.2-6.883,1.708-10.991,4.17,0,0-7.1-3.3-10.928-21.089-2.286-10.576,20.625-11.644,20.625-11.644s.3-2.512-2.776-4.007c0,0,5.552-.251,7.536,4.082a4.409,4.409,0,0,0-.553-4.132s10.488,4.019,4.3,13.264c0,0-3.617-.867-2.512,1.256s6.858,8-2.073,13.817a8.893,8.893,0,0,0-2.625,4.283Z" transform="translate(-133.978 -221.15)" fill="#263238"/>
      <path id="Caminho_5808" data-name="Caminho 5808" d="M175.13,242.025a10.048,10.048,0,0,0,2.989,5.765c2.123,2.01,4.07.5,4.208-2.148.138-2.4-.816-6.28-3.316-7.335S174.754,239.362,175.13,242.025Z" transform="translate(-129.384 -216.828)" fill="#ebb376"/>
      <path id="Caminho_5809" data-name="Caminho 5809" d="M183.743,269.111l-2.123-15.186s-5.313-7.436-14.771-3.266l-.339,12.561Z" transform="translate(-131.579 -213.919)" fill="#ebb376"/>
      <path id="Caminho_5810" data-name="Caminho 5810" d="M162.59,261.849l2.512-3.768s18.941-1.156,26.917,7.536C191.995,265.592,173.555,269.423,162.59,261.849Z" transform="translate(-132.583 -211.706)" fill="#407bff"/>
      <path id="Caminho_5811" data-name="Caminho 5811" d="M162.59,261.849l2.512-3.768s18.941-1.156,26.917,7.536C191.995,265.592,173.555,269.423,162.59,261.849Z" transform="translate(-132.583 -211.706)" fill="#fff" opacity="0.5"/>
      <path id="Caminho_5812" data-name="Caminho 5812" d="M205.375,278.535v.641c0,5.024.163,9.986.5,14.671.226,3.266.515,6.393.829,9.383,1.482,13.578,3.693,23.991,3.856,27.445-7.047,0-33.512-.088-47.969-.126-11.933-42.593-11.091-65.655-11.091-65.655s10.476-6.167,32.884-2.575c8.064,1.256,19.783,5.552,19.783,5.552C203.391,273.661,205.438,272.757,205.375,278.535Z" transform="translate(-135.425 -210.896)" fill="#407bff"/>
      <g id="Grupo_2531" data-name="Grupo 2531" transform="translate(16.052 50.249)" opacity="0.7">
        <path id="Caminho_5813" data-name="Caminho 5813" d="M210.553,330.634c-7.047,0-33.524-.088-47.982-.126-11.92-42.593-11.079-65.655-11.079-65.655s10.476-6.167,32.884-2.575c8.064,1.256,19.783,5.564,19.783,5.564-.766,5.828,1.256,4.924,1.256,10.664v.628c0,4.333.113,8.591.377,12.674,0,.678.075,1.344.126,2.01.151,2.186.327,4.321.528,6.393.1,1.017.2,2.01.3,2.989C208.179,316.767,210.39,327.193,210.553,330.634Z" transform="translate(-151.48 -261.155)" fill="#fff"/>
      </g>
      <path id="Caminho_5814" data-name="Caminho 5814" d="M241.4,415.31H229.87a.854.854,0,0,0-.842.7l-1.545,9.119a1.608,1.608,0,0,0,1.6,1.834c4.019-.075,5.966-.314,11.041-.314,3.115,0,9.559.327,13.817.327s4.647-4.258,2.864-4.647c-8-1.721-11.1-4.107-13.817-6.381a2.587,2.587,0,0,0-1.583-.641Z" transform="translate(-115.97 -171.432)" fill="#263238"/>
      <path id="Caminho_5815" data-name="Caminho 5815" d="M241.4,415.31H229.87a.854.854,0,0,0-.842.7l-1.545,9.119a1.608,1.608,0,0,0,1.6,1.834c4.019-.075,5.966-.314,11.041-.314,3.115,0,9.559.327,13.817.327s4.647-4.258,2.864-4.647c-8-1.721-11.1-4.107-13.817-6.381a2.587,2.587,0,0,0-1.583-.641Z" transform="translate(-115.97 -171.432)" fill="#fff" opacity="0.4"/>
      <path id="Caminho_5816" data-name="Caminho 5816" d="M196.534,294.45c-3.768-1.846-6.544-10.79-6.544-10.79a42.942,42.942,0,0,1,5.891,2.387c0,.678.075,1.344.126,2.01C196.157,290.242,196.283,292.377,196.534,294.45Z" transform="translate(-125.566 -205.143)" opacity="0.2"/>
      <path id="Caminho_5817" data-name="Caminho 5817" d="M194.526,266.47c7.876,2.211,18.941,26.9,18.941,26.9s-4.647,7.649-11.707,8.076l-12.661-13.4Z" transform="translate(-125.794 -209.545)" fill="#407bff"/>
      <path id="Caminho_5818" data-name="Caminho 5818" d="M194.526,266.47c7.876,2.211,18.941,26.9,18.941,26.9s-4.647,7.649-11.707,8.076l-12.661-13.4Z" transform="translate(-125.794 -209.545)" fill="#fff" opacity="0.7"/>
      <path id="Caminho_5819" data-name="Caminho 5819" d="M185.866,353.55l-2.726,89.244H187l4.484-89.244Z" transform="translate(-127.32 -187.247)" fill="#263238"/>
      <path id="Caminho_5820" data-name="Caminho 5820" d="M195.56,356.435h34.454l10.9,87.209h4.472L235.34,350.23l-39.78.929Z" transform="translate(-124.14 -188.097)" fill="#263238"/>
      <path id="Caminho_5821" data-name="Caminho 5821" d="M206.21,350.97H154.887L144.16,443.454h2.424l.477-3.354-.389,3.354H149.1l12.335-87h40.144l.314,87H207.1l1.62-92.484Z" transform="translate(-137.302 -187.907)" fill="#263238"/>
      <path id="Caminho_5822" data-name="Caminho 5822" d="M204.589,443.454l1.62-92.484H154.887L144.16,443.454h2.424l12.335-87h42.643l.327,87Z" transform="translate(-137.302 -187.907)" fill="#fff" opacity="0.2"/>
      <path id="Caminho_5823" data-name="Caminho 5823" d="M222.99,355.17H225.8l10.626,87.209h-2.537Z" transform="translate(-117.116 -186.832)" fill="#fff" opacity="0.2"/>
      <path id="Caminho_5824" data-name="Caminho 5824" d="M211.672,359.981l-10.815-89.545a9.621,9.621,0,0,0-9.546-8.466H141.006a2.286,2.286,0,0,0-2.286,2.3v93.2A17.585,17.585,0,0,0,156.3,375.054H256.941a1.093,1.093,0,0,0,1.093-1.105h0a7.863,7.863,0,0,0-7.863-7.863H218.518A6.871,6.871,0,0,1,211.672,359.981Z" transform="translate(-138.695 -210.697)" fill="#263238"/>
      <path id="Caminho_5825" data-name="Caminho 5825" d="M258.026,373.911a1.118,1.118,0,0,1-1.105,1.105H156.285A17.585,17.585,0,0,1,138.7,357.431V264.256a2.3,2.3,0,0,1,.3-1.13,2.273,2.273,0,0,1,1.985-1.156h50.305a9.6,9.6,0,0,1,9.546,8.466l10.84,89.545a6.871,6.871,0,0,0,6.833,6.054h31.64a7.888,7.888,0,0,1,7.876,7.876Z" transform="translate(-138.7 -210.697)" fill="#fff" opacity="0.7"/>
      <path id="Caminho_5826" data-name="Caminho 5826" d="M220.344,374.818H156.285A17.585,17.585,0,0,1,138.7,357.233V264.02a2.3,2.3,0,0,1,.3-1.13h50.243a7.662,7.662,0,0,1,7.624,6.883l9.408,92.346a14.093,14.093,0,0,0,14.068,12.7Z" transform="translate(-138.7 -210.462)" opacity="0.2"/>
    </g>
    <g id="freepik--character-3--inject-2" transform="translate(284.637 286.067)">
      <path id="Caminho_5827" data-name="Caminho 5827" d="M281.79,419.688,290,421.81l5.954-18.665-8.215-2.135Z" transform="translate(-212.48 -194.208)" fill="#b55b52"/>
      <path id="Caminho_5828" data-name="Caminho 5828" d="M295.372,403.143l-3.3,10.375-7.989-2.864,3.065-9.634Z" transform="translate(-211.894 -194.205)" opacity="0.2"/>
      <path id="Caminho_5829" data-name="Caminho 5829" d="M287.293,422.44l10.224-64.248L268.54,345.883l22.735-10.463s21.881,6.519,29.2,11.807-21.856,78.127-21.856,78.127Z" transform="translate(-215.873 -211.003)" fill="#407bff"/>
      <path id="Caminho_5830" data-name="Caminho 5830" d="M287.293,422.44l10.224-64.248L268.54,345.883l22.735-10.463s21.881,6.519,29.2,11.807-21.856,78.127-21.856,78.127Z" transform="translate(-215.873 -211.003)" fill="#fff" opacity="0.6"/>
      <path id="Caminho_5831" data-name="Caminho 5831" d="M292.062,415.443l-9.069-2.876a.691.691,0,0,0-.829.352l-3.492,6.783a1.256,1.256,0,0,0,.791,1.834c3.19.955,4.773,1.256,8.792,2.512,2.512.779,7.448,2.65,10.84,3.768s4.71-2.186,3.4-2.939c-5.853-3.354-7.7-6-9.22-8.453A2.273,2.273,0,0,0,292.062,415.443Z" transform="translate(-213.32 -191.257)" fill="#263238"/>
      <path id="Caminho_5832" data-name="Caminho 5832" d="M293.953,416.312a1.168,1.168,0,0,0,.666-.816.616.616,0,0,0-.151-.6c-.791-.854-4.585-.251-5.024-.176a.188.188,0,0,0-.163.163.213.213,0,0,0,.1.214,14.83,14.83,0,0,0,2.437,1.093A3.24,3.24,0,0,0,293.953,416.312Zm.226-1.143a.226.226,0,0,1,0,.239.741.741,0,0,1-.44.54c-.641.276-1.985-.063-3.68-.929,1.62-.214,3.705-.327,4.145.126Z" transform="translate(-210.563 -190.769)" fill="#407bff"/>
      <path id="Caminho_5833" data-name="Caminho 5833" d="M289.529,415.621c1.13-.138,3.63-1.256,3.768-2.223,0-.226,0-.528-.54-.754h-.163c-1.8-.578-3.216,2.6-3.278,2.738a.188.188,0,0,0,0,.2.151.151,0,0,0,.1.075Zm3.077-2.613c.327.151.314.289.3.339-.088.565-1.846,1.52-3.04,1.8.4-.766,1.47-2.512,2.625-2.173Z" transform="translate(-210.561 -191.247)" fill="#407bff"/>
      <path id="Caminho_5834" data-name="Caminho 5834" d="M282.645,402.75l-1.055,3.994,13.716,4.622,2.6-5.175Z" transform="translate(-212.531 -193.762)" fill="#407bff"/>
      <path id="Caminho_5835" data-name="Caminho 5835" d="M313.15,424.8l8.478-.339.289-19.595-8.478.339Z" transform="translate(-204.45 -193.219)" fill="#b55b52"/>
      <path id="Caminho_5836" data-name="Caminho 5836" d="M322.338,417.16H312.83a.7.7,0,0,0-.691.578l-1.256,7.536a1.319,1.319,0,0,0,1.319,1.507c3.329,0,4.924-.251,9.106-.251,2.575,0,7.9.276,11.455.276s3.831-3.517,2.361-3.844c-6.607-1.419-9.169-3.391-11.3-5.263a2.148,2.148,0,0,0-1.482-.54Z" transform="translate(-205.034 -190.072)" fill="#263238"/>
      <path id="Caminho_5837" data-name="Caminho 5837" d="M321.889,404.87l-.151,10.89-8.478-.44.151-10.111Z" transform="translate(-204.422 -193.219)" opacity="0.2"/>
      <path id="Caminho_5838" data-name="Caminho 5838" d="M325.124,418.261a1.13,1.13,0,0,0,.389-.98.59.59,0,0,0-.327-.528c-1.017-.578-4.447,1.143-4.836,1.344a.188.188,0,0,0-.1.2.2.2,0,0,0,.151.176,14.821,14.821,0,0,0,2.663.3,3.216,3.216,0,0,0,2.06-.515Zm-.163-1.168a.226.226,0,0,1,.126.214.753.753,0,0,1-.251.653c-.528.452-1.922.54-3.768.226C322.449,417.52,324.433,416.779,324.961,417.093Z" transform="translate(-202.632 -190.207)" fill="#407bff"/>
      <path id="Caminho_5839" data-name="Caminho 5839" d="M320.527,418.866c1.03-.465,3.077-2.3,2.927-3.253,0-.226-.188-.5-.741-.553h-.163c-1.9,0-2.286,3.467-2.3,3.617a.188.188,0,0,0,.075.176h.113Zm2.148-3.417c.352,0,.377.176.389.226.088.578-1.256,2.01-2.361,2.638.151-.854.628-2.864,1.846-2.864Z" transform="translate(-202.632 -190.61)" fill="#407bff"/>
      <path id="Caminho_5840" data-name="Caminho 5840" d="M287.015,308.66l6.569,13.967s42.568,1.62,52.981,18.678c4.2,6.871-8.792,96.717-8.792,96.717l-10.865-.7s-4.811-50.243-3.869-80.137c0,0-43.774,6.155-55.543.251s-15.952-17.12-14.671-32.52S287.015,308.66,287.015,308.66Z" transform="translate(-219.954 -217.856)" fill="#407bff"/>
      <path id="Caminho_5841" data-name="Caminho 5841" d="M287.015,308.66l6.569,13.967s42.568,1.62,52.981,18.678c4.2,6.871-8.792,96.717-8.792,96.717l-10.865-.7s-4.811-50.243-3.869-80.137c0,0-43.774,6.155-55.543.251s-15.952-17.12-14.671-32.52S287.015,308.66,287.015,308.66Z" transform="translate(-219.954 -217.856)" fill="#fff" opacity="0.7"/>
      <path id="Caminho_5842" data-name="Caminho 5842" d="M257.843,280.894c-4.107,9.307-8.164,19.306-10.136,29.229a2.9,2.9,0,0,0-1.068-2.324c-.239-.176-.339-.188-.364-.188a6.456,6.456,0,0,0,2.236.364c7.348,0,15.073-1.683,22.484-2.977l1.532,4.823c-6.984,2.776-29.53,12.347-33.562,2.412a7.687,7.687,0,0,1-.276-4.321c1.532-11.2,5.188-21.353,9.935-31.4Z" transform="translate(-223.565 -226.088)" fill="#b55b52"/>
      <path id="Caminho_5843" data-name="Caminho 5843" d="M240.78,289.322l12.5,7.612s.678-.729,1.658-1.959c2-2.512,5.213-7.21,6.092-12.033a12.185,12.185,0,0,0,.088-4.371c-.741-4.233-4.811-7.461-10.2-5.389S240.78,289.322,240.78,289.322Z" transform="translate(-222.982 -227.105)" fill="#407bff"/>
      <path id="Caminho_5844" data-name="Caminho 5844" d="M252.292,293.857c2-2.512,5.213-7.21,6.092-12.033-.465-.615-2.663-4.321-3.241-4.924C255.143,276.9,248.461,282.188,252.292,293.857Z" transform="translate(-220.337 -225.988)" opacity="0.2"/>
      <path id="Caminho_5845" data-name="Caminho 5845" d="M309.89,408.351l.214,4.132,14.47.251.9-5.715Z" transform="translate(-205.285 -192.669)" fill="#407bff"/>
      <path id="Caminho_5846" data-name="Caminho 5846" d="M278.62,251c0,.678.377,1.256.829,1.256s.8-.54.791-1.256-.389-1.256-.842-1.256S278.6,250.318,278.62,251Z" transform="translate(-213.292 -232.943)" fill="#263238"/>
      <path id="Caminho_5847" data-name="Caminho 5847" d="M279.09,249.882l1.633-.452S279.906,250.7,279.09,249.882Z" transform="translate(-213.172 -233.022)" fill="#263238"/>
      <path id="Caminho_5848" data-name="Caminho 5848" d="M279.09,251.27a18.706,18.706,0,0,0,2.512,4.346,2.952,2.952,0,0,1-2.437.44Z" transform="translate(-213.172 -232.551)" fill="#a02724"/>
      <path id="Caminho_5849" data-name="Caminho 5849" d="M280.05,247.333h-.2a3.3,3.3,0,0,0-2.927.352.4.4,0,0,1-.565-.075.389.389,0,0,1,.075-.553,4.107,4.107,0,0,1,3.668-.49.4.4,0,0,1,0,.766Z" transform="translate(-213.893 -233.814)" fill="#263238"/>
      <path id="Caminho_5850" data-name="Caminho 5850" d="M252.417,352.163c24.33,5.929,46.826-9.634,46.826-9.634-7.612-19.331-4.647-35.019-2.927-44.377a52.044,52.044,0,0,0,.879-5.7,34.541,34.541,0,0,0-.188-5.828,131.694,131.694,0,0,1-.8-13.44s-9.948-3.3-33.16-3.14a6.422,6.422,0,0,0-1.093.188c-1.03.214-2.035.44-3.015.666-.678.151-1.319.3-1.947.477s-1.444.389-2.123.578c-3.58,1-6.067,1.9-6.067,1.9C259.966,301.192,246.966,331.99,252.417,352.163Z" transform="translate(-220.928 -227.746)" fill="#407bff"/>
      <path id="Caminho_5851" data-name="Caminho 5851" d="M260.3,251.6c.691,8.353.791,11.895,5.137,16.2,6.544,6.494,16.743,4.12,18.59-4.2,1.658-7.536.264-19.871-8.064-23.262A11.2,11.2,0,0,0,260.3,251.6Z" transform="translate(-217.995 -235.591)" fill="#b55b52"/>
      <path id="Caminho_5852" data-name="Caminho 5852" d="M273.609,250.615a7.536,7.536,0,0,0,2.261,3.969c1.6,1.507,3,.766,3.077-.892s-.678-4.082-2.512-5.024S273.307,248.907,273.609,250.615Z" transform="translate(-214.586 -233.303)" fill="#b55b52"/>
      <path id="Caminho_5853" data-name="Caminho 5853" d="M287.422,310.724c.44-2.3,1.557-20.1,1.645-21.542a34.548,34.548,0,0,0-.188-5.828c-4.5-3.3-7.637,5.991-7.637,5.991S277.185,299.52,287.422,310.724Z" transform="translate(-212.824 -224.517)" opacity="0.2"/>
      <path id="Caminho_5854" data-name="Caminho 5854" d="M293.07,281.1a209.626,209.626,0,0,0,3.944,32.859c.352,1.52,2.387,3.341,3.831,4.522,6.444,5.024,14.319,8.792,21.755,12.3l-1.721,5.112a99.564,99.564,0,0,1-17.108-5.64c-6.481-3.115-14.181-6.569-16.442-14.344a137.6,137.6,0,0,1-5.1-34.592l10.865-.214Z" transform="translate(-212.368 -224.913)" fill="#b55b52"/>
      <path id="Caminho_5855" data-name="Caminho 5855" d="M313.554,320.23l7.1,2.512-3.442,5.74s-7.26-1.256-6.28-6.418Z" transform="translate(-205.042 -214.893)" fill="#b55b52"/>
      <path id="Caminho_5856" data-name="Caminho 5856" d="M321.67,324.785,320,330.1l-4.12-2.16,3.442-5.728Z" transform="translate(-203.751 -214.386)" fill="#b55b52"/>
      <path id="Caminho_5857" data-name="Caminho 5857" d="M288.027,272.557c4.823,1.369,10.764,16.454,10.639,21.554l-16.14,8.014s-3.856-9.069-.251-21.943C283.58,275.346,285.4,271.879,288.027,272.557Z" transform="translate(-212.751 -227.122)" fill="#407bff"/>
      <path id="Caminho_5858" data-name="Caminho 5858" d="M282.984,239.285c5.263,2.512,5.351,15.173-1.482,20.4,0,0-.138,8.328,3.982,12.347s1.193,13.339-7.75,20.034c0,0,2.424-3.919,2.512-5.351a24.2,24.2,0,0,1-9.094,8.993c-6.28,3.479-4.811,7.888-4.811,7.888s-9.521-1.444-9.282-10.8a8.152,8.152,0,0,0,.138,6.079,14.9,14.9,0,0,1-6.343-12.912c.59-8.466,4.56-10.224,2.2-28.638C251.042,241.307,265.612,231.032,282.984,239.285Z" transform="translate(-220.406 -236.367)" fill="#263238"/>
      <path id="Caminho_5859" data-name="Caminho 5859" d="M273.776,353.55l-2.726,89.244h3.844l4.5-89.244Z" transform="translate(-215.23 -206.361)" fill="#263238"/>
      <path id="Caminho_5860" data-name="Caminho 5860" d="M283.47,356.435h34.454l10.9,87.209h4.459L323.237,350.23l-39.767.929Z" transform="translate(-212.05 -207.211)" fill="#263238"/>
      <path id="Caminho_5861" data-name="Caminho 5861" d="M294.122,350.97H242.8L232.06,443.454H234.5l.465-3.354-.389,3.354h2.437l12.335-87h40.131l.327,87h5.213l1.62-92.484Z" transform="translate(-225.214 -207.021)" fill="#263238"/>
      <path id="Caminho_5862" data-name="Caminho 5862" d="M292.5,443.454l1.62-92.484H242.8L232.06,443.454H234.5l12.322-87h42.656l.327,87Z" transform="translate(-225.214 -207.021)" fill="#fff" opacity="0.2"/>
      <path id="Caminho_5863" data-name="Caminho 5863" d="M310.9,355.17h2.8l10.639,87.209H321.8Z" transform="translate(-205.026 -205.946)" fill="#fff" opacity="0.2"/>
      <path id="Caminho_5864" data-name="Caminho 5864" d="M299.572,359.981l-10.8-89.545a9.634,9.634,0,0,0-9.546-8.466H228.906a2.3,2.3,0,0,0-2.286,2.3v93.2A17.585,17.585,0,0,0,244.2,375.054H344.841a1.093,1.093,0,0,0,1.093-1.105h0a7.863,7.863,0,0,0-7.863-7.863H306.418a6.9,6.9,0,0,1-6.846-6.1Z" transform="translate(-226.607 -229.811)" fill="#263238"/>
      <path id="Caminho_5865" data-name="Caminho 5865" d="M345.936,373.911a1.118,1.118,0,0,1-1.105,1.105H244.195a17.585,17.585,0,0,1-17.585-17.585V264.256a2.3,2.3,0,0,1,.3-1.13,2.274,2.274,0,0,1,1.985-1.156h50.331a9.6,9.6,0,0,1,9.546,8.466l10.815,89.545a6.871,6.871,0,0,0,6.833,6.054h31.64a7.888,7.888,0,0,1,7.875,7.876Z" transform="translate(-226.61 -229.811)" fill="#fff" opacity="0.7"/>
      <path id="Caminho_5866" data-name="Caminho 5866" d="M308.254,374.818H244.195a17.585,17.585,0,0,1-17.585-17.585V264.02a2.3,2.3,0,0,1,.3-1.13h50.243a7.662,7.662,0,0,1,7.624,6.883l9.408,92.346a14.093,14.093,0,0,0,14.068,12.7Z" transform="translate(-226.61 -229.576)" opacity="0.2"/>
    </g>
  </g>
</svg>
