<svg xmlns="http://www.w3.org/2000/svg" xmlns:xlink="http://www.w3.org/1999/xlink" width="582.387" height="433.948" viewBox="0 0 582.387 433.948">
  <defs>
    <clipPath id="clip-path">
      <path id="Caminho_3690" data-name="Caminho 3690" d="M303.117,348.92h-19.8c-10.308,0-18.636,14.944-18.636,33.382s8.351,33.371,18.636,33.371h19.8c10.308,0,18.636-14.944,18.636-33.371S313.426,348.92,303.117,348.92Z" transform="translate(-264.68 -348.92)" fill="#263238"/>
    </clipPath>
  </defs>
  <g id="Logistics-rafiki" transform="translate(0)">
    <g id="freepik--background-complete--inject-4" transform="translate(0)">
      <rect id="Retângulo_3992" data-name="Retângulo 3992" width="582.387" height="0.291" transform="translate(0 381.347)" fill="#ebebeb"/>
      <rect id="Retângulo_3993" data-name="Retângulo 3993" width="26.999" height="0.291" transform="translate(174.763 388.778)" fill="#ebebeb"/>
      <rect id="Retângulo_3994" data-name="Retângulo 3994" width="66.008" height="0.291" transform="translate(468.355 395.021)" fill="#ebebeb"/>
      <rect id="Retângulo_3995" data-name="Retângulo 3995" width="66.008" height="0.291" transform="translate(49.759 395.021)" fill="#ebebeb"/>
      <path id="Caminho_3682" data-name="Caminho 3682" d="M269.755,384.4H44.849a6.651,6.651,0,0,1-6.639-6.651V61.593A6.651,6.651,0,0,1,44.849,55H269.755a6.651,6.651,0,0,1,6.651,6.651h0v316.1A6.651,6.651,0,0,1,269.755,384.4ZM44.849,55.233a6.36,6.36,0,0,0-6.348,6.36V377.747a6.36,6.36,0,0,0,6.348,6.36H269.755a6.383,6.383,0,0,0,6.36-6.36V61.593a6.383,6.383,0,0,0-6.36-6.36Z" transform="translate(6.296 -55)" fill="#ebebeb"/>
      <path id="Caminho_3683" data-name="Caminho 3683" d="M486.069,384.4H261.151a6.674,6.674,0,0,1-6.651-6.651V61.593A6.662,6.662,0,0,1,261.151,55H486.069a6.651,6.651,0,0,1,6.628,6.593V377.747a6.639,6.639,0,0,1-6.628,6.651ZM261.151,55.233a6.383,6.383,0,0,0-6.36,6.36V377.747a6.383,6.383,0,0,0,6.36,6.36H486.069a6.383,6.383,0,0,0,6.36-6.36V61.593a6.383,6.383,0,0,0-6.36-6.36Z" transform="translate(41.935 -55)" fill="#ebebeb"/>
      <path id="Caminho_3684" data-name="Caminho 3684" d="M99.741,130.41h97.026a7.42,7.42,0,0,1,7.431,7.431V423.653H92.38V137.83a7.431,7.431,0,0,1,7.361-7.42Z" transform="translate(15.222 -42.574)" fill="#f5f5f5"/>
      <rect id="Retângulo_3996" data-name="Retângulo 3996" width="14.42" height="32.101" transform="translate(116.827 105.156)" fill="#ebebeb"/>
      <rect id="Retângulo_3997" data-name="Retângulo 3997" width="14.42" height="32.101" transform="translate(195.682 105.156)" fill="#ebebeb"/>
      <rect id="Retângulo_3998" data-name="Retângulo 3998" width="14.42" height="32.101" transform="translate(143.104 105.156)" fill="#ebebeb"/>
      <rect id="Retângulo_3999" data-name="Retângulo 3999" width="14.42" height="32.101" transform="translate(169.393 105.156)" fill="#ebebeb"/>
      <rect id="Retângulo_4000" data-name="Retângulo 4000" width="14.42" height="32.101" transform="translate(116.827 155.835)" fill="#ebebeb"/>
      <rect id="Retângulo_4001" data-name="Retângulo 4001" width="14.42" height="32.101" transform="translate(195.682 155.835)" fill="#ebebeb"/>
      <rect id="Retângulo_4002" data-name="Retângulo 4002" width="14.42" height="32.101" transform="translate(143.104 155.835)" fill="#ebebeb"/>
      <rect id="Retângulo_4003" data-name="Retângulo 4003" width="14.42" height="32.101" transform="translate(169.393 155.835)" fill="#ebebeb"/>
      <rect id="Retângulo_4004" data-name="Retângulo 4004" width="14.42" height="32.101" transform="translate(116.827 206.503)" fill="#ebebeb"/>
      <rect id="Retângulo_4005" data-name="Retângulo 4005" width="14.42" height="32.101" transform="translate(195.682 206.503)" fill="#ebebeb"/>
      <rect id="Retângulo_4006" data-name="Retângulo 4006" width="14.42" height="32.101" transform="translate(143.104 206.503)" fill="#ebebeb"/>
      <rect id="Retângulo_4007" data-name="Retângulo 4007" width="14.42" height="32.101" transform="translate(169.393 206.503)" fill="#ebebeb"/>
      <rect id="Retângulo_4008" data-name="Retângulo 4008" width="14.42" height="32.101" transform="translate(116.827 257.182)" fill="#ebebeb"/>
      <rect id="Retângulo_4009" data-name="Retângulo 4009" width="14.42" height="32.101" transform="translate(195.682 257.182)" fill="#ebebeb"/>
      <rect id="Retângulo_4010" data-name="Retângulo 4010" width="14.42" height="32.101" transform="translate(143.104 257.182)" fill="#ebebeb"/>
      <rect id="Retângulo_4011" data-name="Retângulo 4011" width="14.42" height="32.101" transform="translate(169.393 257.182)" fill="#ebebeb"/>
      <rect id="Retângulo_4012" data-name="Retângulo 4012" width="14.42" height="32.101" transform="translate(116.827 307.85)" fill="#ebebeb"/>
      <rect id="Retângulo_4013" data-name="Retângulo 4013" width="14.42" height="32.101" transform="translate(195.682 307.85)" fill="#ebebeb"/>
      <rect id="Retângulo_4014" data-name="Retângulo 4014" width="14.42" height="32.101" transform="translate(143.104 307.85)" fill="#ebebeb"/>
      <rect id="Retângulo_4015" data-name="Retângulo 4015" width="14.42" height="32.101" transform="translate(169.393 307.85)" fill="#ebebeb"/>
      <path id="Caminho_3685" data-name="Caminho 3685" d="M394.792,153.28h69.467a6.057,6.057,0,0,1,6.045,6.045v260.56H388.77V159.337a6.057,6.057,0,0,1,6.022-6.057Z" transform="translate(64.059 -38.806)" fill="#f5f5f5"/>
      <rect id="Retângulo_4016" data-name="Retângulo 4016" width="13.104" height="29.178" transform="translate(463.196 130.233)" fill="#ebebeb"/>
      <rect id="Retângulo_4017" data-name="Retângulo 4017" width="13.104" height="29.178" transform="translate(487.097 130.233)" fill="#ebebeb"/>
      <rect id="Retângulo_4018" data-name="Retângulo 4018" width="13.104" height="29.178" transform="translate(510.986 130.233)" fill="#ebebeb"/>
      <rect id="Retângulo_4019" data-name="Retângulo 4019" width="13.104" height="29.178" transform="translate(463.196 176.3)" fill="#ebebeb"/>
      <rect id="Retângulo_4020" data-name="Retângulo 4020" width="13.104" height="29.178" transform="translate(487.097 176.3)" fill="#ebebeb"/>
      <rect id="Retângulo_4021" data-name="Retângulo 4021" width="13.104" height="29.178" transform="translate(510.986 176.3)" fill="#ebebeb"/>
      <rect id="Retângulo_4022" data-name="Retângulo 4022" width="13.104" height="29.178" transform="translate(463.196 222.379)" fill="#ebebeb"/>
      <rect id="Retângulo_4023" data-name="Retângulo 4023" width="13.104" height="29.178" transform="translate(487.097 222.379)" fill="#ebebeb"/>
      <rect id="Retângulo_4024" data-name="Retângulo 4024" width="13.104" height="29.178" transform="translate(510.986 222.379)" fill="#ebebeb"/>
      <rect id="Retângulo_4025" data-name="Retângulo 4025" width="13.104" height="29.178" transform="translate(463.196 268.434)" fill="#ebebeb"/>
      <rect id="Retângulo_4026" data-name="Retângulo 4026" width="13.104" height="29.178" transform="translate(487.097 268.434)" fill="#ebebeb"/>
      <rect id="Retângulo_4027" data-name="Retângulo 4027" width="13.104" height="29.178" transform="translate(510.986 268.434)" fill="#ebebeb"/>
      <rect id="Retângulo_4028" data-name="Retângulo 4028" width="13.104" height="29.178" transform="translate(463.196 314.512)" fill="#ebebeb"/>
      <rect id="Retângulo_4029" data-name="Retângulo 4029" width="13.104" height="29.178" transform="translate(487.097 314.512)" fill="#ebebeb"/>
      <rect id="Retângulo_4030" data-name="Retângulo 4030" width="13.104" height="29.178" transform="translate(510.986 314.512)" fill="#ebebeb"/>
      <path id="Caminho_3686" data-name="Caminho 3686" d="M258.531,89.26H371.374a8.643,8.643,0,0,1,8.643,8.643V430.434H249.9V97.9a8.643,8.643,0,0,1,8.631-8.643Z" transform="translate(41.177 -49.355)" fill="#f5f5f5"/>
      <rect id="Retângulo_4031" data-name="Retângulo 4031" width="16.773" height="37.343" transform="translate(301.874 60.067)" fill="#ebebeb"/>
      <rect id="Retângulo_4032" data-name="Retângulo 4032" width="16.773" height="37.343" transform="translate(393.612 60.067)" fill="#ebebeb"/>
      <rect id="Retângulo_4033" data-name="Retângulo 4033" width="16.773" height="37.343" transform="translate(332.45 60.067)" fill="#ebebeb"/>
      <rect id="Retângulo_4034" data-name="Retângulo 4034" width="16.773" height="37.343" transform="translate(363.037 60.067)" fill="#ebebeb"/>
      <rect id="Retângulo_4035" data-name="Retângulo 4035" width="16.773" height="37.343" transform="translate(301.874 119.028)" fill="#ebebeb"/>
      <rect id="Retângulo_4036" data-name="Retângulo 4036" width="16.773" height="37.343" transform="translate(393.612 119.028)" fill="#ebebeb"/>
      <rect id="Retângulo_4037" data-name="Retângulo 4037" width="16.773" height="37.343" transform="translate(332.45 119.028)" fill="#ebebeb"/>
      <rect id="Retângulo_4038" data-name="Retângulo 4038" width="16.773" height="37.343" transform="translate(363.037 119.028)" fill="#ebebeb"/>
      <rect id="Retângulo_4039" data-name="Retângulo 4039" width="16.773" height="37.343" transform="translate(301.874 177.989)" fill="#ebebeb"/>
      <rect id="Retângulo_4040" data-name="Retângulo 4040" width="16.773" height="37.343" transform="translate(393.612 177.989)" fill="#ebebeb"/>
      <rect id="Retângulo_4041" data-name="Retângulo 4041" width="16.773" height="37.343" transform="translate(332.45 177.989)" fill="#ebebeb"/>
      <rect id="Retângulo_4042" data-name="Retângulo 4042" width="16.773" height="37.343" transform="translate(363.037 177.989)" fill="#ebebeb"/>
      <rect id="Retângulo_4043" data-name="Retângulo 4043" width="16.773" height="37.343" transform="translate(301.874 236.938)" fill="#ebebeb"/>
      <rect id="Retângulo_4044" data-name="Retângulo 4044" width="16.773" height="37.343" transform="translate(393.612 236.938)" fill="#ebebeb"/>
      <rect id="Retângulo_4045" data-name="Retângulo 4045" width="16.773" height="37.343" transform="translate(332.45 236.938)" fill="#ebebeb"/>
      <rect id="Retângulo_4046" data-name="Retângulo 4046" width="16.773" height="37.343" transform="translate(363.037 236.938)" fill="#ebebeb"/>
      <rect id="Retângulo_4047" data-name="Retângulo 4047" width="16.773" height="37.343" transform="translate(301.874 295.887)" fill="#ebebeb"/>
      <rect id="Retângulo_4048" data-name="Retângulo 4048" width="16.773" height="37.343" transform="translate(393.612 295.887)" fill="#ebebeb"/>
      <rect id="Retângulo_4049" data-name="Retângulo 4049" width="16.773" height="37.343" transform="translate(332.45 295.887)" fill="#ebebeb"/>
      <rect id="Retângulo_4050" data-name="Retângulo 4050" width="16.773" height="37.343" transform="translate(363.037 295.887)" fill="#ebebeb"/>
      <rect id="Retângulo_4051" data-name="Retângulo 4051" width="71.68" height="218.989" transform="translate(219.385 162.102)" fill="#e6e6e6"/>
      <rect id="Retângulo_4052" data-name="Retângulo 4052" width="31.67" height="195.531" transform="translate(421.205 185.548)" fill="#e6e6e6"/>
      <path id="Caminho_3687" data-name="Caminho 3687" d="M101.195,398.105H38.46V306.682l62.735-21.222Z" transform="translate(6.337 -17.026)" fill="#e6e6e6"/>
    </g>
    <g id="freepik--Shadow--inject-4" transform="translate(65.355 396.932)">
      <g id="freepik--Shadow--inject-62--inject-4">
        <ellipse id="freepik--path--inject-62--inject-4" cx="225.838" cy="18.508" rx="225.838" ry="18.508" fill="#f5f5f5"/>
      </g>
    </g>
    <g id="freepik--Truck--inject-4" transform="translate(39.055 127.776)">
      <path id="Caminho_3688" data-name="Caminho 3688" d="M303.117,348.92h-19.8c-10.308,0-18.636,14.944-18.636,33.382s8.351,33.371,18.636,33.371h19.8c10.308,0,18.636-14.944,18.636-33.371S313.426,348.92,303.117,348.92Z" transform="translate(4.557 -134.345)" fill="#263238"/>
      <g id="Grupo_2219" data-name="Grupo 2219" transform="translate(269.237 214.575)" clip-path="url(#clip-path)">
        <path id="Caminho_3689" data-name="Caminho 3689" d="M323.118,348.92h-19.8c-10.308,0-18.636,14.944-18.636,33.382s8.351,33.371,18.636,33.371h19.8c10.308,0,18.636-14.944,18.636-33.371S333.426,348.92,323.118,348.92Z" transform="translate(-261.385 -348.92)" fill="#fff" opacity="0.05"/>
      </g>
      <path id="Caminho_3691" data-name="Caminho 3691" d="M484.441,386.426,137.7,386.182V164.7H484.441Z" transform="translate(-16.365 -164.7)" fill="#407bff"/>
      <rect id="Retângulo_4053" data-name="Retângulo 4053" width="235.005" height="221.715" transform="translate(233.071)" fill="#263238" opacity="0.3"/>
      <rect id="Retângulo_4054" data-name="Retângulo 4054" width="111.737" height="226.094" transform="translate(121.334)" fill="#fff" opacity="0.2"/>
      <line id="Linha_418" data-name="Linha 418" x2="345.903" transform="translate(122.173 10.297)" fill="none" stroke="#fff" stroke-linecap="round" stroke-linejoin="round" stroke-width="2" opacity="0.1"/>
      <line id="Linha_419" data-name="Linha 419" x2="345.903" transform="translate(122.173 19.883)" fill="none" stroke="#fff" stroke-linecap="round" stroke-linejoin="round" stroke-width="2" opacity="0.1"/>
      <line id="Linha_420" data-name="Linha 420" x2="345.903" transform="translate(122.173 29.457)" fill="none" stroke="#fff" stroke-linecap="round" stroke-linejoin="round" stroke-width="2" opacity="0.1"/>
      <line id="Linha_421" data-name="Linha 421" x2="345.903" transform="translate(122.173 39.032)" fill="none" stroke="#fff" stroke-linecap="round" stroke-linejoin="round" stroke-width="2" opacity="0.1"/>
      <line id="Linha_422" data-name="Linha 422" x2="345.903" transform="translate(122.173 48.618)" fill="none" stroke="#fff" stroke-linecap="round" stroke-linejoin="round" stroke-width="2" opacity="0.1"/>
      <line id="Linha_423" data-name="Linha 423" x2="345.903" transform="translate(122.173 58.192)" fill="none" stroke="#fff" stroke-linecap="round" stroke-linejoin="round" stroke-width="2" opacity="0.1"/>
      <line id="Linha_424" data-name="Linha 424" x2="345.903" transform="translate(122.173 67.767)" fill="none" stroke="#fff" stroke-linecap="round" stroke-linejoin="round" stroke-width="2" opacity="0.1"/>
      <line id="Linha_425" data-name="Linha 425" x2="345.903" transform="translate(122.173 77.341)" fill="none" stroke="#fff" stroke-linecap="round" stroke-linejoin="round" stroke-width="2" opacity="0.1"/>
      <line id="Linha_426" data-name="Linha 426" x2="345.903" transform="translate(122.173 86.927)" fill="none" stroke="#fff" stroke-linecap="round" stroke-linejoin="round" stroke-width="2" opacity="0.1"/>
      <line id="Linha_427" data-name="Linha 427" x2="345.903" transform="translate(122.173 96.502)" fill="none" stroke="#fff" stroke-linecap="round" stroke-linejoin="round" stroke-width="2" opacity="0.1"/>
      <line id="Linha_428" data-name="Linha 428" x2="345.903" transform="translate(122.173 106.076)" fill="none" stroke="#fff" stroke-linecap="round" stroke-linejoin="round" stroke-width="2" opacity="0.1"/>
      <line id="Linha_429" data-name="Linha 429" x2="345.903" transform="translate(122.173 115.662)" fill="none" stroke="#fff" stroke-linecap="round" stroke-linejoin="round" stroke-width="2" opacity="0.1"/>
      <line id="Linha_430" data-name="Linha 430" x2="345.903" transform="translate(122.173 125.236)" fill="none" stroke="#fff" stroke-linecap="round" stroke-linejoin="round" stroke-width="2" opacity="0.1"/>
      <line id="Linha_431" data-name="Linha 431" x2="345.903" transform="translate(122.173 134.811)" fill="none" stroke="#fff" stroke-linecap="round" stroke-linejoin="round" stroke-width="2" opacity="0.1"/>
      <line id="Linha_432" data-name="Linha 432" x2="345.903" transform="translate(122.173 144.385)" fill="none" stroke="#fff" stroke-linecap="round" stroke-linejoin="round" stroke-width="2" opacity="0.1"/>
      <line id="Linha_433" data-name="Linha 433" x2="345.903" transform="translate(122.173 153.971)" fill="none" stroke="#fff" stroke-linecap="round" stroke-linejoin="round" stroke-width="2" opacity="0.1"/>
      <line id="Linha_434" data-name="Linha 434" x2="345.903" transform="translate(122.173 163.546)" fill="none" stroke="#fff" stroke-linecap="round" stroke-linejoin="round" stroke-width="2" opacity="0.1"/>
      <line id="Linha_435" data-name="Linha 435" x2="345.903" transform="translate(122.173 173.12)" fill="none" stroke="#fff" stroke-linecap="round" stroke-linejoin="round" stroke-width="2" opacity="0.1"/>
      <line id="Linha_436" data-name="Linha 436" x2="345.903" transform="translate(122.173 182.706)" fill="none" stroke="#fff" stroke-linecap="round" stroke-linejoin="round" stroke-width="2" opacity="0.1"/>
      <line id="Linha_437" data-name="Linha 437" x2="345.903" transform="translate(122.173 192.281)" fill="none" stroke="#fff" stroke-linecap="round" stroke-linejoin="round" stroke-width="2" opacity="0.1"/>
      <line id="Linha_438" data-name="Linha 438" x2="345.903" transform="translate(122.173 201.855)" fill="none" stroke="#fff" stroke-linecap="round" stroke-linejoin="round" stroke-width="2" opacity="0.1"/>
      <line id="Linha_439" data-name="Linha 439" x2="345.903" transform="translate(122.173 211.441)" fill="none" stroke="#fff" stroke-linecap="round" stroke-linejoin="round" stroke-width="2" opacity="0.1"/>
      <path id="Caminho_3692" data-name="Caminho 3692" d="M88.107,352.66H69.785c-9.551,0-17.285,13.838-17.285,30.913s7.734,30.9,17.285,30.9H88.107c9.551,0,17.285-13.838,17.285-30.9S97.658,352.66,88.107,352.66Z" transform="translate(-30.404 -133.729)" fill="#263238"/>
      <path id="Caminho_3693" data-name="Caminho 3693" d="M108.119,352.66H89.785c-9.551,0-17.285,13.838-17.285,30.913s7.734,30.9,17.285,30.9h18.334c9.54,0,17.285-13.838,17.285-30.9S117.658,352.66,108.119,352.66Z" transform="translate(-27.109 -133.729)" fill="#fff" opacity="0.05"/>
      <path id="Caminho_3694" data-name="Caminho 3694" d="M75.992,305.887H67.326c-1.7.058-3.1-1.759-3.133-4.065a3.75,3.75,0,0,1,0-.722l2.33-26.172c.291-2.691,1.957-4.659,3.96-4.787H79.23c1.689,0,3.087,1.782,3.122,4.088v.7L80.022,301.1C79.672,303.755,77.948,305.817,75.992,305.887Z" transform="translate(-28.481 -147.326)" fill="#263238"/>
      <path id="Caminho_3695" data-name="Caminho 3695" d="M84.125,229.07,67.41,319.212,249.383,390.5l-1.27-177.651-40.022-1.165H98.463C91.87,211.622,86.058,218.7,84.125,229.07Z" transform="translate(-27.947 -156.959)" fill="#407bff"/>
      <path id="Caminho_3696" data-name="Caminho 3696" d="M206,239.062c-6.791-.3-12.882,5.265-14.874,13.57l-13.768,57.68h-26.5l-1.444,76.095h87.16" transform="translate(-14.434 -152.449)" fill="#407bff"/>
      <path id="Caminho_3697" data-name="Caminho 3697" d="M84.682,305.993c-2.667,0-4.822-3.424-4.822-7.641a11.347,11.347,0,0,1,.21-2.19l10.005-52.927c.839-4.391,3.4-7.4,6.3-7.385H192.1c1.037,0,1.887,1.328,1.887,2.982a4.355,4.355,0,0,1-.082.874c-2.1,10.9-8.911,47.022-11.52,60.836-.606,3.238-2.493,5.451-4.659,5.451Z" transform="translate(-25.896 -152.976)" fill="#263238"/>
      <path id="Caminho_3698" data-name="Caminho 3698" d="M179.856,318.215a20.044,20.044,0,0,1-.2,2.772l-.5,3.413-.291,2.015-2.143,14.723-3.494,23.936-.967,6.651H36.81v-6.651l.093-23.936.128-14.315V321c-1.165-7.687,2.551-15.142,8.212-16.691a7.592,7.592,0,0,1,2.038-.268H169.419C175.185,303.993,179.856,310.376,179.856,318.215Z" transform="translate(-32.99 -141.74)" fill="#407bff"/>
      <path id="Caminho_3699" data-name="Caminho 3699" d="M224.527,243.062V299.8c0,3.436-1.759,6.232-3.937,6.243h-33.1c-2.178,0-3.937-2.8-3.937-6.243a9.979,9.979,0,0,1,.14-1.677l10.2-58.006c.489-2.784,2.12-4.659,3.937-4.554l22.9,1.258C222.849,236.947,224.527,239.707,224.527,243.062Z" transform="translate(-8.811 -153.025)" fill="#263238"/>
      <path id="Caminho_3700" data-name="Caminho 3700" d="M137.5,235.85H119.211l-21,70.143h18.3Z" transform="translate(-22.872 -152.976)" fill="#fff" opacity="0.1"/>
      <path id="Caminho_3701" data-name="Caminho 3701" d="M148.365,235.85h-8.736L118.64,305.993h8.724Z" transform="translate(-19.506 -152.976)" fill="#fff" opacity="0.1"/>
      <path id="Caminho_3702" data-name="Caminho 3702" d="M214.947,335.89v23.936H36.83l.093-23.936Z" transform="translate(-32.986 -136.492)"/>
      <path id="Caminho_3703" data-name="Caminho 3703" d="M174.97,335.89H158.5l-29.62,17.4v6.534h70.9V335.89Z" transform="translate(-17.819 -136.492)" fill="#fff"/>
      <path id="Caminho_3704" data-name="Caminho 3704" d="M67.533,353.292v6.534H36.83l.093-23.936h1Z" transform="translate(-32.986 -136.492)" fill="#fff"/>
      <path id="Caminho_3705" data-name="Caminho 3705" d="M234.806,390.917l-1.351-178.071-24.46-1.165c-6.1-.3-13.15,6.791-14.932,15.014l-17.728,92.518h-6.907c-7.757,0-13.069,5.649-13.057,11.648l.1,60.079h78.331" transform="translate(-13.289 -156.96)" fill="#263238" opacity="0.3"/>
      <path id="Caminho_3706" data-name="Caminho 3706" d="M179.37,322.466a1.572,1.572,0,0,1-.536,1.165,1.526,1.526,0,0,1-1.048.408H37V320.87H177.821a1.584,1.584,0,0,1,1.339.745,1.607,1.607,0,0,1,.21.85Z" transform="translate(-32.958 -138.967)" fill="#fff"/>
      <path id="Caminho_3707" data-name="Caminho 3707" d="M61.84,320.88v3.168H36.96l.012-3.168Z" transform="translate(-32.965 -138.966)" fill="#263238"/>
      <path id="Caminho_3708" data-name="Caminho 3708" d="M164.285,322.466a1.572,1.572,0,0,1-.536,1.165,1.526,1.526,0,0,1-1.048.408H128.55V320.87H162.7a1.584,1.584,0,0,1,1.339.745A1.607,1.607,0,0,1,164.285,322.466Z" transform="translate(-17.873 -138.967)" fill="#263238"/>
      <path id="Caminho_3709" data-name="Caminho 3709" d="M507.826,360.824v.629A5.824,5.824,0,0,1,502,367.277H39.354a5.824,5.824,0,0,1-5.824-5.824v-.629A5.824,5.824,0,0,1,39.354,355H502A5.824,5.824,0,0,1,507.826,360.824Z" transform="translate(-33.53 -133.344)" fill="#263238"/>
      <rect id="Retângulo_4055" data-name="Retângulo 4055" width="68.955" height="3.366" transform="translate(39.463 226.444)"/>
      <path id="Caminho_3710" data-name="Caminho 3710" d="M52.2,360.822a1.922,1.922,0,1,1-.567-1.363,1.922,1.922,0,0,1,.567,1.363Z" transform="translate(-31.086 -132.701)" fill="#fff"/>
      <path id="Caminho_3711" data-name="Caminho 3711" d="M141.294,360.822a1.922,1.922,0,1,1-1.922-1.922A1.922,1.922,0,0,1,141.294,360.822Z" transform="translate(-16.407 -132.701)" fill="#fff"/>
      <path id="Caminho_3712" data-name="Caminho 3712" d="M191.4,381.677c0-18.532,8.4-33.557,18.764-33.557H190.263c-10.355,0-18.753,15.026-18.753,33.557s8.4,33.545,18.753,33.545h19.906C199.8,415.258,191.4,400.244,191.4,381.677Z" transform="translate(-10.795 -134.477)"/>
      <path id="Caminho_3713" data-name="Caminho 3713" d="M191.4,381.677c0-18.532,8.4-33.557,18.764-33.557H190.263c-10.355,0-18.753,15.026-18.753,33.557s8.4,33.545,18.753,33.545h19.906C199.8,415.258,191.4,400.244,191.4,381.677Z" transform="translate(-10.795 -134.477)" fill="#263238" opacity="0.7"/>
      <ellipse id="Elipse_135" data-name="Elipse 135" cx="18.765" cy="33.557" rx="18.765" ry="33.557" transform="translate(180.61 213.678)" fill="#263238"/>
      <ellipse id="Elipse_136" data-name="Elipse 136" cx="13.302" cy="26.161" rx="13.302" ry="26.161" transform="translate(187.575 221.074)" fill="#fff"/>
      <ellipse id="Elipse_137" data-name="Elipse 137" cx="12.731" cy="22.643" rx="12.731" ry="22.643" transform="translate(186.935 224.592)" fill="#263238"/>
      <ellipse id="Elipse_138" data-name="Elipse 138" cx="9.295" cy="16.528" rx="9.295" ry="16.528" transform="translate(187.575 230.707)"/>
      <path id="Caminho_3714" data-name="Caminho 3714" d="M474.855,360.824v.629a5.824,5.824,0,0,1-5.824,5.824H233.63V355h235.4A5.824,5.824,0,0,1,474.855,360.824Z" transform="translate(-0.559 -133.344)" opacity="0.5"/>
      <path id="Caminho_3715" data-name="Caminho 3715" d="M380.736,381.677c0-18.532,8.4-33.557,18.753-33.557H379.594c-10.366,0-18.764,15.026-18.764,33.557s8.4,33.545,18.764,33.545h19.871C389.134,415.258,380.736,400.244,380.736,381.677Z" transform="translate(20.4 -134.477)"/>
      <path id="Caminho_3716" data-name="Caminho 3716" d="M380.736,381.677c0-18.532,8.4-33.557,18.753-33.557H379.594c-10.366,0-18.764,15.026-18.764,33.557s8.4,33.545,18.764,33.545h19.871C389.134,415.258,380.736,400.244,380.736,381.677Z" transform="translate(20.4 -134.477)" fill="#263238" opacity="0.7"/>
      <ellipse id="Elipse_139" data-name="Elipse 139" cx="18.765" cy="33.557" rx="18.765" ry="33.557" transform="translate(401.125 213.678)" fill="#263238"/>
      <ellipse id="Elipse_140" data-name="Elipse 140" cx="13.302" cy="26.161" rx="13.302" ry="26.161" transform="translate(408.102 221.074)" fill="#fff"/>
      <ellipse id="Elipse_141" data-name="Elipse 141" cx="12.731" cy="22.643" rx="12.731" ry="22.643" transform="translate(407.449 224.592)" fill="#263238"/>
      <ellipse id="Elipse_142" data-name="Elipse 142" cx="9.295" cy="16.528" rx="9.295" ry="16.528" transform="translate(408.09 230.707)"/>
    </g>
    <g id="freepik--Character--inject-4" transform="translate(337.365 150.459)">
      <path id="Caminho_3717" data-name="Caminho 3717" d="M333.086,236.076c-.233,4.484-.641,8.817-1.3,13.232a73.815,73.815,0,0,1-2.982,13.43,22.709,22.709,0,0,1-1.666,3.681,10.487,10.487,0,0,1-1.677,2.166l-.326.3-.186.14-.093.082-.4.268-.78.547a42.364,42.364,0,0,1-6.22,3.3,71.23,71.23,0,0,1-12.731,4.216l-1.514-4.147c3.7-2.05,7.5-4.147,10.961-6.325a48.671,48.671,0,0,0,4.869-3.413l.513-.431.256-.221h0s.1-.175.233-.454a15.744,15.744,0,0,0,.839-2.329,51.914,51.914,0,0,0,1.246-5.824c.361-2.027.652-4.088.9-6.185.478-4.158.885-8.421,1.165-12.568Z" transform="translate(-287.404 -175.711)" fill="#ce7a63"/>
      <path id="Caminho_3718" data-name="Caminho 3718" d="M306.592,268.313,299.44,266.1l1.339,8.654s4.659-.582,6.989-3.191Z" transform="translate(-288.025 -170.675)" fill="#ce7a63"/>
      <path id="Caminho_3719" data-name="Caminho 3719" d="M292.026,271.668l.4,1.165a3.145,3.145,0,0,0,3.133,2.108l3.646-.163-1.351-8.678-4.007,1.572A3.168,3.168,0,0,0,292.026,271.668Z" transform="translate(-289.277 -170.675)" fill="#ce7a63"/>
      <path id="Caminho_3720" data-name="Caminho 3720" d="M338.83,229.759c0,2.7-1.3,8.037-2.423,12.044-.827,2.877-1.514,5.067-1.514,5.067l-1.642-.408-13.535-3.424c-.21-6.989.058-14.595,6.989-19.161C331.038,221.012,338.8,224.949,338.83,229.759Z" transform="translate(-284.692 -177.792)" fill="#263238"/>
      <path id="Caminho_3721" data-name="Caminho 3721" d="M338.28,229.292c-.885-.932-2.889-1.095-7.257.291-6.255,1.98-8,8.829-8.084,13.476l9.772,2.469.839.221.8.186s.338-1.095.827-2.761h0c.2-.676.443-1.468.676-2.329a63.3,63.3,0,0,0,2.423-11.555Z" transform="translate(-284.153 -176.86)" opacity="0.3"/>
      <path id="Caminho_3722" data-name="Caminho 3722" d="M313.438,418.41l-8.258-2.889,5.195-17.891,8.247,2.9Z" transform="translate(-287.079 -149.003)" fill="#ce7a63"/>
      <path id="Caminho_3723" data-name="Caminho 3723" d="M409.9,399.242l-6.721,5.009L389.42,390.309l6.721-5.009Z" transform="translate(-273.199 -151.034)" fill="#ce7a63"/>
      <path id="Caminho_3724" data-name="Caminho 3724" d="M399.809,400.692l7.257-6a.676.676,0,0,1,.885,0l5.568,5.055a1.34,1.34,0,0,1,0,1.9l-.116.1c-2.563,2.05-3.914,2.912-7.105,5.544-1.957,1.619-6.068,5.5-8.782,7.734s-5.067-.315-4.135-1.491c4.158-5.265,5.125-8.736,5.614-11.578a2.248,2.248,0,0,1,.815-1.27Z" transform="translate(-272.581 -149.514)" fill="#263238"/>
      <path id="Caminho_3725" data-name="Caminho 3725" d="M307.057,410.8l9.178,3.832a.827.827,0,0,1,.489.862l-1.037,8.1a1.235,1.235,0,0,1-1.374,1.072,1.166,1.166,0,0,1-.349-.093c-3.25-1.316-4.776-1.968-8.806-3.657l-12.37-5.183c-3.355-1.409-2.632-5.09-1.165-4.822,6.791,1.235,11.17.827,13.849-.186a2.062,2.062,0,0,1,1.584.081Z" transform="translate(-289.516 -146.866)" fill="#263238"/>
      <path id="Caminho_3726" data-name="Caminho 3726" d="M310.017,397.64l-2.667,9.213,8.037,3.634,2.889-9.959Z" transform="translate(-286.722 -149.001)" opacity="0.2"/>
      <path id="Caminho_3727" data-name="Caminho 3727" d="M396.152,385.3l-6.732,5.009,7.093,7.187,6.721-5.009Z" transform="translate(-273.199 -151.034)" opacity="0.2"/>
      <path id="Caminho_3728" data-name="Caminho 3728" d="M363.555,273.8l-34.011.489c-4.659-26.336-5.824-38.9-5.824-44.949a6.476,6.476,0,0,1,5.242-6.383c2.073-.408,4.659-.874,7.257-1.235.885-.117,1.782-.233,2.667-.326a108.508,108.508,0,0,1,15.445-.221c.769,0,1.526.07,2.33.116,3.494.221,6.686.664,8.957,1.013a3.122,3.122,0,0,1,2.586,3.576.9.9,0,0,1,0,.175c-1,4.659-1.817,8.794-2.469,12.475-1.037,5.824-1.689,10.576-2.073,14.723a128.73,128.73,0,0,0-.1,20.547Z" transform="translate(-284.025 -178.107)" fill="#263238"/>
      <path id="Caminho_3729" data-name="Caminho 3729" d="M358.173,251.442c-1.712-5.137-1.619-15.794.221-19.242l1.875,4.508C359.21,242.566,358.557,247.3,358.173,251.442Z" transform="translate(-278.549 -176.261)" opacity="0.1"/>
      <path id="Caminho_3730" data-name="Caminho 3730" d="M332.361,266.785s-5.824,49.515-11.077,80.369c-4.158,24.157-14.665,74.441-14.665,74.441l13.639,4.834s15.62-52.415,18.357-74.8c11.007-32.276,18.928-85.087,18.928-85.087Z" transform="translate(-286.842 -170.603)" fill="#407bff"/>
      <path id="Caminho_3731" data-name="Caminho 3731" d="M304.72,403.417l15.783,5.556,2.108-5.067-17.122-6.546Z" transform="translate(-287.155 -149.047)" fill="#263238"/>
      <path id="Caminho_3732" data-name="Caminho 3732" d="M344.405,279.48l-5.1,9.772c-1.864,7.361-1.421,25.276.943,36.6,4.24-17.064,7.629-35.025,9.737-47.08Z" transform="translate(-281.647 -168.588)" opacity="0.1"/>
      <path id="Caminho_3733" data-name="Caminho 3733" d="M335.06,266.818s6.092,55.42,17.472,86.193c5.707,15.433,48.047,61.186,48.047,61.186l9.551-7.641s-26.848-46.16-38.589-58.239c-4.787-26.79,1.235-66.951-9.889-81.977Z" transform="translate(-282.156 -170.636)" fill="#407bff"/>
      <path id="Caminho_3734" data-name="Caminho 3734" d="M392.578,398.092l11.205-9.178-3.028-4.974L388.49,394.621Z" transform="translate(-273.352 -151.258)" fill="#263238"/>
      <path id="Caminho_3735" data-name="Caminho 3735" d="M363.415,264.656l1.572,3.017c.117.233-.151.489-.547.489l-35.689.513c-.314,0-.559-.151-.594-.338l-.338-3.04c0-.21.245-.4.571-.4l34.454-.5a.676.676,0,0,1,.571.256Z" transform="translate(-283.349 -170.956)" fill="#263238"/>
      <path id="Caminho_3736" data-name="Caminho 3736" d="M354.521,268.618h.943c.175,0,.314-.1.3-.21l-.5-3.96c0-.116-.163-.2-.349-.2h-.874c-.186,0-.326.1-.3.21l.489,3.949C354.171,268.5,354.346,268.618,354.521,268.618Z" transform="translate(-279.078 -170.98)" fill="#407bff"/>
      <path id="Caminho_3737" data-name="Caminho 3737" d="M330.942,268.94h.932c.186,0,.314-.1.3-.221l-.478-3.949c0-.116-.186-.21-.373-.21h-.932c-.186,0-.326.1-.314.221l.489,3.949C330.593,268.846,330.756,268.94,330.942,268.94Z" transform="translate(-282.977 -170.929)" fill="#407bff"/>
      <path id="Caminho_3738" data-name="Caminho 3738" d="M342.74,268.75h.932c.186,0,.326-.1.314-.221l-.489-3.949c0-.128-.175-.221-.361-.21H342.2c-.186,0-.315.1-.315.221l.489,3.949C342.368,268.68,342.554,268.75,342.74,268.75Z" transform="translate(-281.031 -170.961)" fill="#407bff"/>
      <path id="Caminho_3739" data-name="Caminho 3739" d="M289.64,237.8l50.481-6.93,6.989,49.561-49.573,6.8Z" transform="translate(-289.64 -176.48)" fill="#407bff"/>
      <path id="Caminho_3740" data-name="Caminho 3740" d="M289.64,237.8l50.481-6.93,6.989,49.561-49.573,6.8Z" transform="translate(-289.64 -176.48)" fill="#fff" opacity="0.8"/>
      <rect id="Retângulo_4056" data-name="Retângulo 4056" width="13.616" height="51.646" transform="translate(37.694 53.903) rotate(-8.049)" fill="#407bff" opacity="0.2"/>
      <path id="Caminho_3741" data-name="Caminho 3741" d="M346.259,268.447l-6.989-2.737.687,8.736s4.659-.233,7.163-2.667Z" transform="translate(-281.462 -170.74)" fill="#ce7a63"/>
      <path id="Caminho_3742" data-name="Caminho 3742" d="M367.635,230.72c1.875,5.241,3.494,10.483,4.869,15.841.7,2.691,1.351,5.393,1.875,8.153.256,1.4.478,2.819.641,4.3a29.882,29.882,0,0,1,.2,4.659,12.428,12.428,0,0,1-.466,2.993,8.643,8.643,0,0,1-1.875,3.226,14.872,14.872,0,0,1-4.368,3.226,38.755,38.755,0,0,1-8.433,2.947,88.6,88.6,0,0,1-16.6,2.225l-.547-4.391c2.551-.606,5.16-1.281,7.7-1.992s5.067-1.5,7.49-2.388a37.782,37.782,0,0,0,6.662-3.04,7.734,7.734,0,0,0,2.027-1.712c.151-.233.151-.291.128-.291a7.7,7.7,0,0,0,0-1.037,25,25,0,0,0-.361-3.366c-.186-1.165-.443-2.469-.722-3.751-.582-2.493-1.235-5.043-1.968-7.594-1.456-5.055-3.1-10.192-4.741-15.142Z" transform="translate(-280.859 -176.505)" fill="#ce7a63"/>
      <path id="Caminho_3743" data-name="Caminho 3743" d="M333.754,270.013l.547,2.027a3.087,3.087,0,0,0,2.9,2.33l3.751.1-.687-8.724-3.82.431a3.1,3.1,0,0,0-2.772,3.4,3.141,3.141,0,0,0,.081.431Z" transform="translate(-282.387 -170.733)" fill="#ce7a63"/>
      <path id="Caminho_3744" data-name="Caminho 3744" d="M362.145,222.426c3.914,1.6,7.117,14.455,7.117,14.455l-10.809,8.445s-7.664-12-6.1-17.2C353.677,223.718,357.16,220.41,362.145,222.426Z" transform="translate(-279.342 -177.971)" fill="#263238"/>
      <path id="Caminho_3745" data-name="Caminho 3745" d="M396.771,403.313h-.14a1.165,1.165,0,0,1-.943-.606.687.687,0,0,1-.058-.687c.478-.932,3.494-1.3,3.82-1.339a.186.186,0,0,1,.2.093.2.2,0,0,1,0,.221C399.019,401.845,397.8,403.243,396.771,403.313Zm2.271-2.178c-1.165.175-2.807.559-3.04,1.072a.268.268,0,0,0,0,.291.722.722,0,0,0,.617.419,4.117,4.117,0,0,0,2.446-1.782Z" transform="translate(-272.187 -148.501)" fill="#263238"/>
      <path id="Caminho_3746" data-name="Caminho 3746" d="M399.285,401.333c-1.013,0-3.04-.361-3.494-1.165a.7.7,0,0,1,.163-.85,1.036,1.036,0,0,1,.815-.338c1.223,0,2.772,1.875,2.819,1.98a.229.229,0,0,1-.151.314ZM396.7,399.4a.687.687,0,0,0-.431.21c-.175.186-.14.3-.093.4.268.512,1.864.932,2.889.932a4.659,4.659,0,0,0-2.271-1.549Z" transform="translate(-272.162 -148.78)" fill="#263238"/>
      <path id="Caminho_3747" data-name="Caminho 3747" d="M300.923,410.985a3.285,3.285,0,0,1-1.619-1.165,1.282,1.282,0,0,1-.093-1.072.605.605,0,0,1,.443-.408c1.072-.2,3.6,2.516,4.088,3.063a.21.21,0,0,1,0,.233.186.186,0,0,1-.21.093A13.4,13.4,0,0,1,300.923,410.985Zm-.8-2.19a.733.733,0,0,0-.384-.07s-.1,0-.151.14a.839.839,0,0,0,.07.745c.361.629,1.607,1.223,3.378,1.607a12.137,12.137,0,0,0-2.889-2.423Z" transform="translate(-288.076 -147.239)" fill="#263238"/>
      <path id="Caminho_3748" data-name="Caminho 3748" d="M303.172,411.865h-.07c-.85-.85-2.236-3.4-1.759-4.217.1-.175.326-.361.827-.221,1.875.547,1.3,4.182,1.27,4.333a.151.151,0,0,1-.14.151A.128.128,0,0,1,303.172,411.865Zm-.932-4.065h-.117a.745.745,0,0,0-.373,0c-.28.478.617,2.4,1.433,3.424-.012-.9.1-2.959-.943-3.424Z" transform="translate(-287.728 -147.397)" fill="#263238"/>
      <path id="Caminho_3749" data-name="Caminho 3749" d="M333.429,191.23s-4.659,7.792-1.165,11.205,4.519-8.689,4.519-8.689Z" transform="translate(-282.831 -183.012)" fill="#263238"/>
      <path id="Caminho_3750" data-name="Caminho 3750" d="M355.118,210.679s5.824-9.109,3.4-18.159-13.744-3.2-18.52-5.684a27.323,27.323,0,0,0-5.556-2.574,2.131,2.131,0,0,0-1.852.314c-1.165,1.025.862,2.947,1.491,3.669a6.431,6.431,0,0,0-1.328-1.165c-.617-.408-1.444-.443-1.165.594a5.125,5.125,0,0,0,2.423,2.563c-.454-.256-3.145-1.619-3.331-.769a.839.839,0,0,0,.151.582c1.747,3.261,5.265,7.361,9.318,7.443C345.031,197.564,349.69,211.3,355.118,210.679Z" transform="translate(-282.878 -184.175)" fill="#263238"/>
      <path id="Caminho_3751" data-name="Caminho 3751" d="M357.072,209.57c-.3,3.075-4.869,3.11-4.869,3.11a9.877,9.877,0,0,1-3.576,4.333,25.63,25.63,0,0,0,.186,5.568c.769,2.9,1.747,3.9,2.97,4.554h0l-.978.967a12.813,12.813,0,0,1-6.15,1.712l-1.281-.745-1.677.268c-4.659-1.526-3.494-4.659-3.494-4.659a9.423,9.423,0,0,0,.128-6.651c-4.473-1.4-6.3-5.288-6.93-11.834s3.052-12.812,3.052-12.812c5.055,4.88,15.072,1.747,15.072,1.747-.431,9.178,3.855,12.568,3.855,12.568C354.789,206.437,357.363,206.507,357.072,209.57Z" transform="translate(-282.771 -182.658)" fill="#ce7a63"/>
      <path id="Caminho_3752" data-name="Caminho 3752" d="M339.79,208.388a5.148,5.148,0,0,0,2.924-2.143.384.384,0,0,0-.093-.524.373.373,0,0,0-.524.082,3.786,3.786,0,0,1-4.088,1.864.373.373,0,0,0-.466.245.384.384,0,0,0,.245.478A3.96,3.96,0,0,0,339.79,208.388Z" transform="translate(-281.75 -180.636)" fill="#263238"/>
      <path id="Caminho_3753" data-name="Caminho 3753" d="M340.813,201.265c0,.594-.233,1.107-.629,1.165s-.757-.431-.8-1.025.245-1.165.641-1.165S340.767,200.659,340.813,201.265Z" transform="translate(-281.445 -181.527)" fill="#263238"/>
      <path id="Caminho_3754" data-name="Caminho 3754" d="M334.692,201.006c0,.594-.233,1.107-.629,1.165s-.745-.431-.792-1.025.233-1.107.629-1.165S334.657,200.4,334.692,201.006Z" transform="translate(-282.452 -181.571)" fill="#263238"/>
      <path id="Caminho_3755" data-name="Caminho 3755" d="M336.425,206.42l-.082-4.31-2.143,3.634a2.679,2.679,0,0,0,2.225.676Z" transform="translate(-282.298 -181.219)" fill="#ba4d3c"/>
      <path id="Caminho_3756" data-name="Caminho 3756" d="M343.958,198.386a.4.4,0,0,0,.14-.07.489.489,0,0,0,.163-.687,4.042,4.042,0,0,0-3.809-1.957.489.489,0,0,0-.431.559.5.5,0,0,0,.559.431h0a3.075,3.075,0,0,1,2.83,1.491.5.5,0,0,0,.547.233Z" transform="translate(-281.339 -182.282)" fill="#263238"/>
      <path id="Caminho_3757" data-name="Caminho 3757" d="M332.637,197.889a.524.524,0,0,0,.314-.233,1.957,1.957,0,0,1,1.957-.85.489.489,0,0,0,.582-.4.5.5,0,0,0-.4-.582,2.912,2.912,0,0,0-3.005,1.328.513.513,0,0,0,.175.687.524.524,0,0,0,.373.047Z" transform="translate(-282.656 -182.263)" fill="#263238"/>
      <path id="Caminho_3758" data-name="Caminho 3758" d="M351.978,223.476l-2.5,2.446-4.461,4.38-1.677-2.667L341.67,225l5.824-6.942,4.24,5.125Z" transform="translate(-281.067 -178.591)" fill="#fff"/>
      <path id="Caminho_3759" data-name="Caminho 3759" d="M342.738,224.846,341.445,227l-1.9,3.145-4.356-7.862,2.784-3.273Z" transform="translate(-282.135 -178.435)" fill="#fff"/>
    </g>
  </g>
</svg>
